<svg xmlns="http://www.w3.org/2000/svg" width="63mm" height="88mm" viewBox="0 0 223.22835 311.81102"><rect y="370.276" x="260.433" height="311.811" width="223.228" rx="10.678" ry="10.664" fill="#fff" stroke="#000" stroke-width="1.001" transform="matrix(.99554 0 0 .9968 -258.773 -368.593)"/><path d="M17.638 70.248s-2.214-3.18-5.202-6.918c-1.999-2.501-3.596-5.21-3.745-7.543-.17-2.666 1.442-5.34 4.362-5.47 2.919-.129 4.103 2.056 4.585 3.857.483-1.801 1.667-3.986 4.586-3.856 2.92.13 4.533 2.803 4.362 5.469-.148 2.333-1.746 5.042-3.745 7.543a146.776 146.776 0 0 0-5.203 6.918zM205.59 241.563s-2.214 3.18-5.202 6.918c-1.999 2.502-3.596 5.21-3.745 7.544-.17 2.665 1.442 5.339 4.362 5.469 2.919.13 4.103-2.056 4.586-3.857.482 1.801 1.666 3.986 4.585 3.857 2.92-.13 4.533-2.804 4.362-5.47-.148-2.333-1.746-5.041-3.745-7.543a146.776 146.776 0 0 1-5.202-6.918zM60.079 80.935s-4.646-7.63-10.912-16.603c-4.192-6.004-7.544-12.505-7.856-18.105-.357-6.396 3.026-12.814 9.15-13.125 6.122-.31 8.606 4.932 9.618 9.255 1.011-4.323 3.496-9.566 9.617-9.255 6.125.311 9.508 6.729 9.15 13.125-.311 5.6-3.663 12.101-7.855 18.105-6.267 8.972-10.912 16.603-10.912 16.603zM163.15 179.829s-4.646-7.631-10.912-16.603c-4.193-6.004-7.544-12.505-7.856-18.105-.357-6.397 3.026-12.814 9.15-13.125 6.122-.311 8.606 4.932 9.618 9.254 1.011-4.322 3.496-9.565 9.617-9.254 6.124.31 9.507 6.728 9.15 13.125-.312 5.6-3.663 12.1-7.855 18.105-6.267 8.972-10.912 16.603-10.912 16.603zM163.15 80.935s-4.646-7.63-10.912-16.603c-4.193-6.004-7.544-12.505-7.856-18.105-.357-6.396 3.026-12.814 9.15-13.125 6.122-.31 8.606 4.932 9.618 9.255 1.011-4.323 3.496-9.566 9.617-9.255 6.124.311 9.507 6.729 9.15 13.125-.312 5.6-3.663 12.101-7.855 18.105-6.267 8.972-10.912 16.603-10.912 16.603zM60.079 179.829s-4.646-7.631-10.912-16.603c-4.192-6.004-7.544-12.505-7.856-18.105-.357-6.397 3.026-12.814 9.15-13.125 6.122-.311 8.606 4.932 9.618 9.254 1.011-4.322 3.496-9.565 9.617-9.254 6.125.31 9.508 6.728 9.15 13.125-.311 5.6-3.663 12.1-7.855 18.105-6.267 8.972-10.912 16.603-10.912 16.603zM163.15 230.876s-4.646 7.63-10.912 16.603c-4.193 6.004-7.544 12.505-7.856 18.105-.357 6.396 3.026 12.814 9.15 13.125 6.122.31 8.606-4.932 9.618-9.255 1.011 4.323 3.496 9.566 9.617 9.255 6.124-.311 9.507-6.729 9.15-13.125-.312-5.6-3.663-12.101-7.855-18.105-6.267-8.972-10.912-16.603-10.912-16.603zM60.079 230.876s-4.646 7.63-10.912 16.603c-4.192 6.004-7.544 12.505-7.856 18.105-.357 6.396 3.026 12.814 9.15 13.125 6.122.31 8.606-4.932 9.618-9.255 1.011 4.323 3.496 9.566 9.617 9.255 6.125-.311 9.508-6.729 9.15-13.125-.311-5.6-3.663-12.101-7.855-18.105-6.267-8.972-10.912-16.603-10.912-16.603zM7.99 37.067c-.405-2.769-.395-9.926-.064-12.043 1.02-6.486 3.494-9.454 7.638-10.423 4.026-.944 9.68.107 10.92 5.528l-3.364.065c-1.82-3.665-6.425-2.686-9.02-1.091-2.07 1.27-3.005 6.573-2.605 6.9 0 0 3.914-2.903 7-2.69 6.595.688 9.315 6.415 9.084 11.821-.21 6.505-2.27 11.707-9.259 12.052-6.645-.257-9.69-3.884-10.33-10.12zm16.389-1.718c.036-4.512-2.01-7.894-5.884-8.265-3.87-.373-7.776 3.41-7.506 8.01.27 4.619 2.056 8.505 6.75 8.484 5.05-.02 6.616-5.017 6.64-8.229zm0 0M215.237 274.744c.404 2.769.394 9.926.064 12.043-1.02 6.486-3.495 9.454-7.64 10.423-4.025.944-9.68-.107-10.92-5.528l3.365-.065c1.82 3.666 6.426 2.687 9.02 1.092 2.07-1.27 3.005-6.574 2.605-6.9 0 0-3.914 2.903-7 2.689-6.594-.688-9.314-6.415-9.084-11.821.21-6.505 2.27-11.706 9.26-12.052 6.645.257 9.69 3.884 10.33 10.12zm-16.39 1.718c-.036 4.513 2.01 7.895 5.884 8.265 3.87.374 7.776-3.409 7.506-8.009-.27-4.62-2.056-8.505-6.75-8.484-5.05.02-6.615 5.016-6.64 8.228zm0 0" fill="#d40000"/></svg>