<svg xmlns="http://www.w3.org/2000/svg" width="238.11" height="332.599" viewBox="0 0 223.22771 311.81164"><g transform="matrix(.99553 0 0 .9968 -2038.741 30.846)"><rect ry="10.664" rx="10.678" width="223.228" height="311.811" x="2048.386" y="-30.445" fill="#fff" stroke="#000" stroke-width="1.001"/><path d="M2065.603 39.528c-2.16-3.568-4.434-7.037-7.275-10 2.84-2.962 5.114-6.43 7.275-10 2.161 3.57 4.434 7.038 7.275 10-2.84 2.963-5.114 6.432-7.275 10zM2211.766 50.25c-5.186-8.565-10.642-16.89-17.46-24 6.818-7.11 12.274-15.435 17.46-24 5.187 8.565 10.643 16.89 17.461 24-6.818 7.11-12.274 15.435-17.46 24zM2254.398 231.393c-2.161-3.569-4.435-7.037-7.276-10 2.841-2.963 5.115-6.431 7.276-10 2.16 3.569 4.434 7.037 7.275 10-2.841 2.963-5.114 6.431-7.275 10zM2108.234 50.25c-5.187-8.565-10.643-16.89-17.461-24 6.818-7.11 12.274-15.435 17.46-24 5.187 8.565 10.643 16.89 17.461 24-6.818 7.11-12.274 15.435-17.46 24zM2160 99.84c-5.186-8.566-10.643-16.89-17.461-24 6.819-7.112 12.275-15.436 17.461-24 5.186 8.564 10.642 16.888 17.46 24-6.818 7.11-12.274 15.434-17.46 24zM2108.234 149.428c-5.187-8.565-10.643-16.889-17.461-24 6.818-7.11 12.274-15.435 17.46-24 5.187 8.565 10.643 16.89 17.461 24-6.818 7.111-12.274 15.435-17.46 24zM2211.766 149.444c-5.186-8.565-10.642-16.89-17.46-24 6.818-7.111 12.274-15.435 17.46-24 5.187 8.565 10.643 16.889 17.461 24-6.818 7.11-12.274 15.435-17.46 24zM2108.234 248.676c-5.187-8.564-10.643-16.889-17.461-24 6.818-7.11 12.274-15.435 17.46-24 5.187 8.565 10.643 16.89 17.461 24-6.818 7.111-12.274 15.436-17.46 24zM2211.766 248.683c-5.186-8.565-10.642-16.889-17.46-24 6.818-7.11 12.274-15.435 17.46-24 5.187 8.565 10.643 16.89 17.461 24-6.818 7.111-12.274 15.435-17.46 24zM2060.529 16.39c2.17-11.474 4.48-20.088 10.546-29.436h-12.33v4.024h-3.273v-7.585h18.035l2.224 3.562c-6.443 7.032-12.339 29.767-11.295 29.434h-3.907zm0 0M2259.469 234.532c-2.17 11.473-4.48 20.087-10.547 29.435h12.33v-4.024h3.273v7.586h-18.034l-2.224-3.562c6.442-7.033 12.339-29.767 11.295-29.435h3.907zm0 0" fill="#d40000"/></g></svg>