<svg xmlns="http://www.w3.org/2000/svg" width="63mm" height="88mm" viewBox="0 0 223.22835 311.81102"><g transform="matrix(.99554 0 0 .9968 -2647.876 823.417)"><rect y="-825.559" x="2660.244" height="311.811" width="223.228" rx="10.678" ry="10.664" fill="#fff" stroke="#000" stroke-width="1.001"/><path d="M2866.258-563.72c3.927-.09 5.688-4.69 2.78-8.262-.422-.521-.466-.82.307-.32 1.958 1.363 5.713.467 5.905-3.698.238-5.132-6.655-6.61-7.949-1.153-.068.575-.518.562-.41-.255.119-2.218.784-4.291 1.7-6.313h-4.67c.916 2.022 1.582 4.095 1.7 6.313.108.817-.341.83-.41.255-1.294-5.457-8.186-3.979-7.949 1.153.193 4.165 3.948 5.06 5.906 3.698.772-.5.729-.201.307.32-2.909 3.572-1.147 8.172 2.78 8.261zM2677.46-775.585c-3.927.088-5.688 4.688-2.78 8.26.422.522.466.82-.307.32-1.958-1.362-5.713-.466-5.905 3.698-.238 5.132 6.655 6.61 7.949 1.154.068-.576.518-.563.41.255-.119 2.218-.784 4.29-1.7 6.313h4.67c-.916-2.022-1.582-4.095-1.7-6.313-.108-.818.341-.83.41-.255 1.294 5.457 8.186 3.978 7.949-1.154-.193-4.164-3.948-5.06-5.906-3.698-.772.5-.729.202-.307-.32 2.909-3.572 1.147-8.172-2.78-8.26zM2677.354-811.72v3.453h3.354s.08 3.33.11 10.393c.026 6.859.166 10.26-.27 12.214-1.176 4.502-7.7 4.527-8.995 1.29-.754-1.883-.553-3.347-.588-5.243h-3.606s.02.955.026 2.123c.02 5.062 1.697 7.483 5.62 8.438 4.032 1.089 8.748-.573 10.425-4.019.999-1.964.884-2.099.909-13.975.015-7.924.135-11.22.135-11.22h3.088v-3.455h-10.208zm0 0M2866.362-527.585v-3.455h-3.355s-.08-3.33-.11-10.392c-.026-6.86-.166-10.26.271-12.214 1.175-4.502 7.699-4.527 8.995-1.29.753 1.883.553 3.347.587 5.243h3.607s-.021-.955-.026-2.123c-.021-5.062-1.697-7.483-5.62-8.438-4.033-1.09-8.75.572-10.426 4.019-.999 1.964-.884 2.099-.909 13.975-.015 7.923-.135 11.22-.135 11.22h-3.088v3.455h10.208zm0 0"/></g><path d="M161.379 30.34c.85-1.22 4.53 7.296 6.893 13.75 1.16 3.172 2.713 5.786 2.072 6.62-1.683 1.71-6.04.18-9.21-2.265-3.386-2.612-5.777-6.453-5.777-6.453zm29.703 6.314l.135 5.007c-2.917 2.639-6.54 5.875-10.78 10.8l11.32.062c-.1 61.54.09 184.88.09 184.88s-12.582-12.798-12.276-12.845c.015-.002-.358-74.518-.406-124.646-.099-.236 6.58-.248 7.004-3.528.28-2.168-7.003-1.868-7.118-2.013.015-22.532-.067-38.438-.067-38.438l-6.69-.22zM151.775 59.85c.973 1.945 2.521 9.423 3.706 9.244 5.44-1.812 7.193 6.252 1.564 6.667-2.132.157-4.512-2.633-5.848-6.104-.64-1.818.02-10.534.578-9.807zm-1.226 11.214c1.605 2.632 3.14 12.247 6.064 11.702 2.67-.61 4.378 1.739 4.118 3.796-1.37 5.778-11.15.288-13.717-1.043 1.272-2.902 3.069-10.136 3.535-14.455zm20.641 27.11c-2.239 5.085-1.637 9.262.262 14.376-5.808 2.497-11.534 5.488-17.258 8.485-.034-.014-.284-20.048 1.611-29.196.653-1.392 3.006-.28 4.364.398 3.677 1.742 7.627 3.702 11.021 5.937zM68.105 190.219c1.185 9.469.324 24.202-1.357 30.032-.645 1.973-14.106-6.925-15.079-7.533 2.652-4.932-.973-16.394-.578-14.341.934-.656 16.704-9.114 17.014-8.158zm5.784 39.296c-.252.607-1.259 7.695-1.57 7.722-1.022.089-2.52-6.94-5.124-9.26-4.917.57-5.493-2.776-4.531-4.393-.239-.71 1.587-2.253 3.292-2.105 4.24 1.663 9.956 3.134 7.933 8.036zm56.41 12.1s-3.695 20.838-3.711 20.812c-9.133 1.325-17.937 2.843-26.078 1.916 1.607-21.659 4.135-40.39 11.074-43.639l-14.376-11.609s-15.964 9.991-15.052 9.843c.394-.107.705-8.5.938-22.07-.405-35.42-20.714-71.277-21.503-70.917-.43-.288 17.302-1.68 30.049 3.832l.572-46.902s-6.317-3.165-7.487-4.63c-2.333-8.159 3.957-10.244 7.727-8.204 1.763-6.201 4.444-21.532 4.54-21.526 8.514-1.414 17.32-2.51 26.025-2.011-1.46 7.214-2.385 12.704-2.855 19.958-1.1 10.82-3.308 21.069-8.979 23.504 1.01-.402 14.182 11.148 14.182 11.148l16-9.882c-5.17 33.753 3.668 66.534 18.92 93.052-7.685.89-16.388.467-29.97-3.61 0 0 .763 46.993.769 46.732 15.025 5.944 6.825 17.516-.784 14.204zm-58.433 4.207c-.056.478-.275 5.786-.275 5.786-2.126-2.505-3.84-9.85-4.263-9.726 0 0-2.73.43-3.58-.478-2.77-2.962-.046-6.46 2.722-5.806 2.753.71 5.78 5.443 5.396 10.224zM43.624 86.497s.589 83.339.574 125.11c-10.503-.165-8.441 5.694.14 5.077l.028 38.513 5.69.199s-10.71 11.226-17.5 18.394l-.155-3.645 10.333-11.194-10.7.019-.036-184.798zM61.49 280.062c-2.592.567-5.294-11.435-9.789-18.718 5.108-3.074 13.165 2.773 14.976 7.464-1.18 3.976-5.261 11.212-5.187 11.254z" fill="#e2cf00"/><path d="M193.248 287.483V24.328H29.98v263.155zm-54.109-55.42c-.22-.424-.584-1.035-.584-1.035s.395-.102.67-.283c18.92-7.037 39.162-22.714 39.515-23.176v17.354l12.523 13.258v47.024h-49.228l-14.43-24.258c.867-6.356 3.114-18.657 3.114-18.657 1.325.321 5.793.743 8.207-2.737 1.151-1.66 1.766-3.922.213-7.49zM46.893 177.94l-1.87 2.38 3.296-.15-2.263 2.466 3.646.085-2.843 2.426 3.836.045-2.85 2.387 4.2-.19-3.01 2.596 4.152-.017-3.097 2.613 4.062.055-2.64 2.347 3.546.042-4.007 2.83c-1.711-.753-4.008-1.18-6.317-1.23l-.049-19.046zM44.02 210.97c-9.37-.032-11.373 5-.05 5.8-.212 12.665.512 37.995.512 37.995l6.168.158s-16.536 17.946-18.094 19.406c-1.413-60.324-1.35-200.382-1.35-200.382l12.635 12.71.14 39.601c4.228 4.308 6.651 10.591 9.168 14.66l6.91 3.376-1.625 5.581.695 1.587 2.157-7.897-7.558-3.611-.8-1.634 1.272-7.44-7.154-2.468-1.239-1.711.449-7.266-1.503-.456v-1.44l1.493.126.53-8.158-2.023-.596v-1.842c.002.032 1.185-.007 1.763.044.797.433 2.111 2.152 2.111 2.152l-.713 9.06 9.067 1.827.675.96-1.668 9.055 9.521 2.928c-.977-2.417-2.272-4.679-3.35-7.058 1.307-.38 2.673-.466 3.996-.751.357-12.234-.056-24.962.323-36.468 7.663-.555 4.068.178 7.4.127a2.369 2.369 0 0 0 2.362-2.376c0-.838-.432-1.573-1.085-1.997l1.32-.475 2.31 2.627-4.825 4.654.028 1.338 5.992-6.026-2.593-3.01 1.543-.804 2.367 2.506s5.094-5.241 4.777-5.337c-.158-.048-.441-.313-.632-.582-3.627-7.873 1.322-11.634 7.304-9.456 1.522-7.246 2.972-13.784 4.168-21.29 4.471-1.697 25.496-2.678 25.728-2.289 0 0 .532.512.555.766-.095.336.603-.698.603-.698 0-.448 18.327.459 27.366 2.19 0 0 .185.873.111 2.022-.148 2.306.03 2.284-2.058 1.949-4.263-.287-7.57 1.183-8.885 4.954-.736 2.112-.391 4.015.733 9.666 1.092 5.487 1.103 4.895.974 5.637-.152.87-1.087 1.842-2.43 2.938-1.012.825-1.113 2.385-.299 1.522.561-.822 1.547-1.116 2.43-1.576 2.074-1.091 2.006-2.144.781-6.65-.575-2.115-1.176-4.393-1.196-4.659-.061-.828.235-.49 1.47.364.792.582 1.704 1.062 2.517 1.541 2.483 1.331 1.382-.126-1.007-1.725-1.88-1.4-2.19-2.004-.57-1.333 1.671.686 4.07.389 5.945-.32.368-.207.64-.183.699.155.083.528-.238 1.853-.376 4.915-.351 7.744-2.165 15.997-7.288 20.766-7.333 6.828-19.384 2.195-26.071-4.13l-.723 1.106c4.489 3.788 12.269 8.513 19.846 7.596-3.168 2.656-10.157 7.057-10.157 7.057-4.793-3.494-8.328-6.982-13.589-10.766l-.916.611 14.472 11.537 15.589-10.335s-.648 9.914-.891 13.539l6.763-6.01-5.216-7.766 5.53-5.72s-.935.132.086-1.634c1.557-3.173 2.497-8.287 3.215-13.48-.14-3.879.81-8.17 1.105-11.587.511 3.2 1.116 4.882 2.294 7.786 1.082 2.798 1.505 2.777 2.725 2.369 6.614-.559 3.62 12.272-4.195 3.88-.344-.357-.91-.792-.936-.708-.162.514 2.075 7.272 2.94 8.83.915 1.646.923 1.878 2.281 1.737 2.542-.263 3.403.647 3.66 3.338-.338 5.086-5.813 2.937-9.32 1.374-.316-.245 1.646 1.796 2.348 2.516.955.977 1.11 1.604 1.11 1.604l-.208 2.7-5.366 4.925 4.411 6.549-.183 2.341-4.714 5.686 5.023 5.483.062 1.953-4.083 5.463 5.472 4.411.265 1.76s-3.513 6.534-3.418 6.772c.08.2 5.93 4.26 5.93 4.26l.587 2.75-2.54 6.975 6.079 3.49 1.113 3.15-1.711 6.462 6.305 2.928 1.798 3.64-1.17 6.792 7.066 2.103 1.875 2.986-.246 5.972 1.731.18-.024 1.473-1.928-.014s.15.22-.063 3.17c-.362 5.016-.395 4.823.795 5.032 2.51.438 1.934 1.988-.631 1.701-.394-.044-.727-.078-1.008-.13-.675-.128-1.195-1.01-1.195-1.01l.564-9.263-9.039-1.517-.858-1.163 1.514-8.585-8.484-2.467-1.143-2.08 2.406-8.929-8.552-3.78-.564-1.659 3.63-7.925-7.858-3.84-.491-1.9 4.362-8.172-9.058-6.627s.243.649.603 1.731l7.183 5.158-3.64 6.975s-.29-.51-.598-.402a42.14 42.14 0 0 1 .41 3.48l3.707 9.714-11.993 8.11c5.138 3.11 11.623 3.007 17.575 4.174 0 0 .261.833.709 1.58 1.732 2.793 3.29 6.345 5.222 10.009-1.423.675-2.04.588-3.569.888-2.115 11.944-4.21 25.686-7.583 36.084a2.671 2.671 0 0 0-2.66 2.68c0 .809.358 1.532.92 2.022-.33.094-.678.188-1.046.276-.486.007-2.454-2.176-2.454-2.176l5.057-5.012.03-1.658c-2.018 2.112-6.45 6.67-6.45 6.67l2.67 2.821-1.321.62-2.164-2.394-4.855 5.017-1.244-.853c1.636-2.16 2.7-2.863 5.149-5.415-1.279-1.521-6.233-6.32-6.233-6.32l.014 1.657 4.884 4.76-4.749 4.765-.274.315s-3.77-1.638-4.01-1.634c1.603 1.325 4.48 2.46 6.044 3.607 7.084 4.2.355 12.89-6.179 10.733-.186-.7-3.603 18.332-3.219 19.382-.346 2.947-.421 2.531.595 4.22 3.042 7.048 11.917 20.388 11.917 20.388l-79.863.513c.831-1.63 1.67-2.953 2.3-4.858 0 0-4.487-4.7-6.129-10.881-.916-3.449-2.232-6.677-4.54-8.973-.036-.082.082-.185.222-.28 6.315-2.238 13.512 3.179 15.722 9.359l3.624-5.94c-1.637-.185 24.118 2.94 30.437 2.15-.56-.111-1.221-.578-.849-2.36.643-3.073 1.789-14.18 1.789-14.18 1.27-10.805 2.249-24.384 9.34-28.874 0 0-1.086-1.163-2.023-1.756-.023.015.836.886.863.989-.004.314-.182.513-.39.678-1.503 1.225-3.335 3.763-3.269 3.83-5.852-5.11-15.01-9.51-20.53-7.683-2.178.459-3.145 2.57-4.3.858 1.5-9.296 1.397-19.522.814-27.553-.903-17.902-4.834-28.16-8.729-40.842 2.003-.711 12.282-7.64 12.282-7.64.063-.882-12.4-3.758-17.29-3.248 0 0-1.005-.986-1.01-.777.029.054.064.126.097.194a2.38 2.38 0 0 0-1.214 2.08 2.365 2.365 0 0 0 3.06 2.268c.615 1.514 1.138 2.84 1.138 2.84l-6.922-3.03 2.256-7.615-.757-1.691-2.752 9.917 8.836 3.806.597 1.76-3.663 7.522 7.9 4.707.333 1.498-4.251 8.076 7.65 5.909-5.597 7.271 6.889 5.817-.077.965-5.708 6.607 5.9 6.098.164 2.467-6.43 5.749 5.553 8.11c-2.315 1.563-3.608 3.346-5.124 5.123l-1.355-.596 4.932-3.757-5.27-7.654-5.557 5.047 3.012 4.94-1.836-.84-1.683-2.646.275-2.705 5.49-5.027-4.718-6.873-.04-1.26s2.936-3.393 5.072-5.915l-5.982-6.636 4.893-6.277-6.156-5.27.173 1.581 4.541 3.854-3.485 4.246c-.25 2.56.303 6.95-.997 8.878 2.1 2.068 1.003 7.05-.03 8.665 2.008 2.39.86 7.634-.42 7.856 1.532 1.931.922 5.846-.358 7.12-.41.22 5.47 2.353 9.18 4.915-3.087 5.776-2.367 11.21-3.34 13.168-1.336-3.875-3.045-7.997-4.522-10.965-.155-.307-.484-.238-.974-.247-6.134-.549-5.55-5.633-.95-6.936 0 0-9.355-7.005-14.095-7.78-.05-.125-.014-.29.145-.621.673-1.399 1.062-3.819 1.162-5.948.341-3.167-1.181-8.027-1.181-8.027l1.942-1.207c.387-1.673 2.558-1.707 2.767-2.899-.459-5.118-10.398-24.717-12.496-26.932-.795 13.986.724 29.166-.036 43.124zm2.268-35.664l-1.611 1.331.038-2.116zm-1.573-3.242l.813.609-.818.912zm99.953-24.96c-.151-.964-.33-1.92-.525-2.855a2.674 2.674 0 0 0 1.986-2.589 2.675 2.675 0 0 0-2.666-2.68c-.21 0-.411.03-.607.077a86.206 86.206 0 0 0-1.133-3.684l-.54-.388c1.457 5.098-1.367 7.84 2.806 12.075.061.212.367.152.68.044zm-86.12 138.274l-25.993-.172v-9.645l20.03-21.413-7.723-.096.082-36.729c2.118-.884 4.136-2.256 6.089-3.582l12.182 6.777.877.45s-.336.096-1.051.568c-1.378.908-1.904 3.14-1.277 4.818 1.023 2.743 3.137 2.248 4.897 2.254 1.463 1.136 2.714 4.935 3.741 7.47.475 1.101.928 1.945 1.046 2.584.11.59.106 1.106.106 1.106s-.237-.074-.583-.786c-1.94-4.111-6.475-6.098-8.885-2.21-1.22 2.382-.377 5.104 1.673 5.865.628.233 2.763-.015 2.763-.015.124-.075 1.547 2.018 3.557 8.895.825 2.84 1.042 9.003.256 9.889-1.332 1.624-1.675 3.906-2.801 5.545-.512 1.03-.485.387-1.287-.761-2.736-3.915-7.545-6.949-11.946-6.757-3.125.136-4.09 1.208-3.35 2.113 1.715 1.761 2.836 4.234 3.398 6.399 1.31 5.04 2.698 9.534 6.219 13.451zm13.194-23.929c-.329-.312-.07-.793-.01-1.662.152-2.209.2-2.234 1.461-1.678 2.422 1.068 5.846.134 7.91-2.118 2.605-2.84 2.687-5.764 1.061-11.537-1.857-6.492-1.812-7.35.415-8.677 1.34-1.147 2.711-3.55 2.198-3.543-.071.001-.257.145-.41.32-.152.174-1.376 1.164-2.318 1.813-2.586 1.778-3.396 2.687-2.208 5.972 1.173 3.241 2.118 6.41 1.63 6.607-.234.094-1.127-.961-1.678-1.28-1.13-.652-3.516-1.858-3.809-1.856-.403.002.028.294 1.191 1.061 3.112 2.055 4.387 3.916 1.384 2.739-1.61-.63-3.311-.263-4.272.053-1.118.368-1.703.74-1.822.315-.162-2-.007-4.06.116-6.069.037-.128.188-1.496.337-3.034.569-5.841 1.56-10.762 4.112-13.932 8.54-10.604 18.258-7.513 29.175.975-4.072 11.342-3.791 20.182-4.797 23.781-.942.285-2.047-.271-2.733-.66-1.52-.869-3.25-1.392-4.912-1.482-1.547-.085-1.816.136-1.678-.325.107-.355 2.6-1.091 4.127-1.41 2.777-.582 2.573-1.228.235-1.015-2.46.223-4.836 1.206-7.355 2.89-1.746 1.167-1.81 1.169-1.34 2.632.112.353.349.88-.483 1.188-.862.319-.74.673-.25 1.066.12.097.43.12.554.219.156.122-.011.672-.01.746 3.177 2.702 8.78 2.767 13.384-.006.23.083.47.445.244.942-.484 1.065-5.438 2.342-8.956 2.399-1.605.026-1.918-.179-4.334-.921-.993-.305-1.549-.385-1.64-.233-.205.346.153 1.375.917 1.925 2.58 1.859 6.335 1.711 11.463-.335 2.745-1.095 2.459-1.47 1.572 3.975-.246 1.511-.53 2.665-.53 2.665s-23.994-.858-27.94-2.51zm3.693-5.114c-1.269-.008-2.429-.328-3.105-.989-.988-1.1.05-1.442 1.62-.843 2.01.767 4.294.33 6.064-.776 1.137-.71 1.38-.33.425.689-1.158 1.231-3.151 1.931-5.004 1.92zm18.246-1.895c-2.213.015-4.24-.384-5.072-1.323-.76-.858-.027-.945 1.87-.2 2.674 1.052 6.238.72 9.18-.75 1.51-.756 1.975-.91 1.773-.049-.887 1.394-4.518 2.3-7.751 2.322zm-17.697-.693c-2.108-.006-3.9-.491-3.567-1.6.119-.395.223-.157 1.73.31 1.507.467 3.433.29 5.366-.276 1.804-.529 2.15-.649 1.34.136-.984.953-3.008 1.434-4.869 1.43zm-4.294-1.066c-2.134-3.307-2.512-8.158-4.783-10.786-4.201.786-6.19-3.186-2.655-5.832 1.798-1.004 3.99-.248 5.6 2.405 1.536 2.527 1.96 4.056 2.01 5.66-.14 3.367.049 5.17-.172 8.553zm24.599-1.518l-.93-.111c-.676-2.303-2.189-2.442-3.096-.03l-.703-.116c1.069-2.956 3.75-3.078 4.729.257zm1.441-.044c-.388.022-.71-.388-.882-.93-.362-1.226.05-1.071.892-.553.852.521 1.508.866 1.017 1.076-.368.198-.657.331-1.027.407zm-7.993-.785c-.32-.4-.394-.708.02-.998a7.973 7.973 0 0 1 1.094-.49c.375-.114.605-.024.448.519-.098.465-.39 1.13-.607 1.39-.364.067-.754-.192-.955-.42zm-11.285.281l-.737-.053c-.774-2.105-2.581-2.044-3.278-.218l-.66.005c1.244-3.26 3.777-2.671 4.675.266zm1.33-.276c-.706.001-1.394-1.023-1.007-1.546.392-.329 2.136.045 2.29.693.061.39-.575.852-1.282.853zm-6.825-.199c-.342-.081-.32-.34-.328-.383-.18-.862.845-1.163 1.075-.833.127.18-.413.87-.747 1.216zm16.242-9.22c1.727-.485 2.53-1.985 2.421-3.66-.087-1.353-.787-2.457-1.81-2.69-2.061-.469-3.487.977-5.592 1.561-.91.239-.697 1.419-.115 1.931.748.659 1.896.248 3.436-.937 3.021-2.325 3.748 2.146.994 2.936-.427.122-.23 1.112.666.86zm89.335-102.975l-1.175-.34 1.173-1.398s-.005 1.208.002 1.738zm-3.272-4.783l2.42-2.737-3.288.25 2.23-2.33-3.421-.139 2.515-2.615-3.363.068 2.486-2.524-3.173-.091 2.097-2.311-3.491.27 2.548-2.764-3.74.066 2.835-2.577-3.73.026 1.12-1.283-.994-.502c-1.015.475-6.864 2.305-7.058 3.682 1.292.348 5.096-1.598 5.347-1.275 1.526 6.765 8.103 21.726 12.442 26.089l.304-42.28c.663-.618 1.722-.311 2.398-.585 2.2.115 5.876-3.582 3.955-4.315-1.004-.223-6.564-1.18-6.58-1.46-.682-12.253.42-24.573-.087-37.654-1.555-.232-6.638-.523-6.638-.523s18.642-19.56 19.008-19.167c-.435 20.965-.207 61.948.159 62.1-.003 1.23-.43 3.82-.43 3.82l.401 130.38s.109.584.333.956c.383.635.41.798.438 2.753.15 1.208-.024 1.522-.024 1.522l-12.754-13.544-.016-37.9s-12.068-17.92-14.847-26.197c-6.091-12.322-5.432-30.28-9.125-37.155-.078 0-.151.003-.227.01-.09-1.003-.1-1.405-.246-1.561-.277-2.242-.578-5.304-.578-5.304l1.335-2.132-1.49-1.92-.01-5.119 1.987-2.03-1.817-2.318.506-4.78 1.417-1.27-.805-1.09s-.133-1.722.188-3.694c.219-1.339 1.531-1.159 4.261.238 3.869 1.474 7.829 4.113 10.885 6.103-.182 2.488-3.247 8.163 1.018 14.42 1.577 1.188 6.155.752 6.556.931l-.036 19.275m.006 2.226l-2.064.362 2.083-2.097zm-98.287 96.219c.169-.02.38-.178.651-.485.286-.324.744-.236 1.904-.165 1.242.076 1.558.041 2.377-.257.933-.34.953-.34 1.6-.063 1.012.433 1.645.483 2.574.218 1.141-.325 1.862-.236 2.565.112.712.352.938.281 1.186-.369.104-.272.61-1.331.843-1.691.762-1.17.578-1.366-1.017-.873-1.095.339-3.115.554-4.618-.073-1.143-.476-2.504-.324-4.131.388-1.428.624-2.835.822-4.204-.334-.797-.674-.754-.164-.55 1.23.23 1.56.39 2.412.82 2.362zm54.121-4.92a2.671 2.671 0 0 0 2.666-2.676 2.675 2.675 0 0 0-2.666-2.68c-.696.582-1.057 5.248 0 5.355zm-51.445-.022c1.621-.554 3.849-1.296 6.358-.555 1.972.605 1.5-.885-.641-1.072-1.488-.13-1.388-.129-.227-1.221.979-.92-.247-.854-.916-.281-.789.675-2.931.5-4.14-.054-.531-.242-.59.767.043.99 1.592.558 1.21.6-.527 1.169-.643.146-.667 1.27.05 1.024zm51.445-.875c-.841-.319-.316-3.424 0-3.563.979 0 1.774.8 1.774 1.784s-.795 1.779-1.774 1.779zm14.211-.112c-.68.234-1.157-.902-1.157-1.667 0-.984.792-1.784 1.77-1.784 1.196 1.174 1.414 2.482.03 3.219-.2.076-.414.154-.643.232zm-7.004-2.622l5.693-5.788-5.587-5.69-5.597 5.816zm-67.43-2.293a1.483 1.483 0 0 1-1.476-1.488c0-.82.66-1.484 1.475-1.484a1.486 1.486 0 0 1 0 2.971zm67.478-1.944a1.482 1.482 0 0 1-1.475-1.488c0-.82.66-1.483 1.475-1.483.816 0 1.475.663 1.475 1.483 0 .82-.66 1.488-1.475 1.488zm-60.513-1.42l-4.078-5.521 4.999-4.508-.256 2.801a2.376 2.376 0 0 0-1.937 2.342 2.37 2.37 0 0 0 1.518 2.215zm67.913-.306l.058-1.502-5.14-5.12 5.087-5.307-.044-1.469-6.33 6.777zm-14.525-.004l6.282-6.481-6.06-6.656-.077 1.687 4.758 4.944-4.85 4.843zm-90.641-1.038c-1.28.002-2.375-.42-2.71-1.26-.262-.472-.403-.88-.785-1.057-.747-.344-1.76-.107-1.808.146-.088 0 1.19.123 1.408.32 1 .905.83 1.475-.589 1.362-.457-.021-1.733-.04-1.762-.543-.284-1.732 2.008-3 4.94-2.768 2.09.347 2.1-.463 2.246-1.585.091-.369.413-.964.674-1.435.74-1.333.984-1.147.468-1.663-.5-.655-1.147-1.47-1.138-2.234l.023-7.027s4.387.019 5.912 1.127c1.597 2.93 2.682 9.247.337 12.715-.82 1.04-2.02 1.536-3.403 2.637-1.066.85-2.534 1.263-3.813 1.265zm24.802-.79l.159-2.03a2.37 2.37 0 0 0 .366-4.582l.14-1.764 3.254 4.697zm12.774-1.372a1.573 1.573 0 0 1-.805-1.376c0-.698.446-1.294 1.07-1.503zm67.88-.741c2.25-1.177 1.476-5.734 0-5.357a2.671 2.671 0 0 0-2.662 2.68 2.667 2.667 0 0 0 2.661 2.677zm-14.704-.068a2.671 2.671 0 0 0 2.666-2.676 2.675 2.675 0 0 0-2.666-2.68c-1.955.618-.848 5.268 0 5.356zm-65.724-.679l.232-2.923c.518.26.872.795.872 1.416 0 .709-.464 1.308-1.104 1.507zm80.427-.15c-.978 0-1.77-.795-1.77-1.78 0-.983.792-1.783 1.77-1.783.583-.116.954 3.255 0 3.563zm-14.703-.068c-1.186-.097-.201-3.132 0-3.563.979 0 1.774.8 1.774 1.784s-.795 1.779-1.774 1.779zm-59.722-1.692l5.876-5.89-5.804-6.432-4.83 5.904zm66.828-1.12l5.635-5.836-5.327-5.536-5.62 5.968zm37.071-3.194l-2.098-2.196 2.098-.02zM75.3 205.771a1.482 1.482 0 0 1-1.475-1.488c0-.82.66-1.484 1.475-1.484.815 0 1.475.664 1.475 1.484s-.66 1.488-1.475 1.488zm66.399-.805a1.487 1.487 0 0 1 0-2.971c.815 0 1.475.668 1.475 1.488s-.66 1.483-1.475 1.483zm-7.284-1.735l6.228-6.471-6.016-6.443-.082 1.527 4.82 4.877-4.888 5.031zm14.645-.01l-.063-1.638-4.999-4.983 5.255-5.313-.213-1.43-6.46 6.718zm-67.228-1.774l-4.508-4.508 4.493-5.032.005 2.613a2.38 2.38 0 0 0-1.59 2.25c0 1.041.667 1.92 1.595 2.239zm-12.428-.233l-.048-1.842a2.377 2.377 0 0 0-.12-4.62l-.04-1.458 3.568 3.955zm104.202-.829s-1.504-1.613-2.015-2.273a2.675 2.675 0 0 0-2.02-4.416c-.423 0-.82.104-1.176.281-.273-.408-1.475-2.08-1.475-2.08l7.086 1.145zm-39.157-1.07a2.671 2.671 0 0 0 2.665-2.677 2.675 2.675 0 0 0-2.665-2.68c-2.675.548-2.148 5.228 0 5.356zm14.837-.103c3.794-.418 2.81-5.27 0-5.356a2.671 2.671 0 0 0-2.66 2.68 2.667 2.667 0 0 0 2.66 2.676zm-79.95-.664l-.081-2.971c.625.21 1.075.804 1.075 1.503 0 .667-.41 1.237-.993 1.468zm65.113-.13c-1.723-.631-1.198-3.682 0-3.563.978 0 1.774.8 1.774 1.783 0 .984-.796 1.78-1.774 1.78zm14.837-.102c-.978 0-1.769-.796-1.769-1.78 0-.983.791-1.783 1.77-1.783 2.515.302 1.877 3.505 0 3.563zm-67.46-.17a1.586 1.586 0 0 1-.005-2.758zm89.206-.761l-2.073-2.68c.191-.072.397-.112.612-.112a1.78 1.78 0 0 1 1.461 2.792zm-95.92-1.217l4.869-5.885-5.983-5.337-4.242 5.284zm66.534-.707l5.972-6.099-4.218-4.406 2.334.257 3.374 3.461.077-1.149-1.837-2.113 1.96.068c.71-1.106-3.706-1.14-6.205-1.566-3.171-.54-10.078-3.091-8.558-1.22l1.74.45-1.644 1.977.02 1.503 2.844-3.064.964.223-4.03 4.179.27 1.274 4.955-5.099 1.442.33-5.038 5.167zm-66.78-3.51a1.478 1.478 0 0 1-1.475-1.483c0-.82.66-1.484 1.475-1.484.816 0 1.48.664 1.48 1.484s-.664 1.483-1.48 1.483zm66.982-.77a1.478 1.478 0 0 1-1.475-1.484c0-.82.66-1.483 1.475-1.483.815 0 1.475.663 1.475 1.483 0 .82-.66 1.483-1.475 1.483zm33.455-.427s.383-4.88.598-7.228l-7.718-2.075-.96 7.795zm3.365-.369l-1.075-.039.18-4.543 1.044 1.121zm-14.279-1.973s-.776-1.254-1.663-2.637a2.667 2.667 0 0 0 .771-1.88 2.675 2.675 0 0 0-2.665-2.681c-.27 0-.53.04-.776.116a38.154 38.154 0 0 0-.993-1.706l6.613 1.949zm-82.803-.499l-5.192-4.251 4.035-4.993.27 2.143a2.377 2.377 0 0 0 .573 4.595zm89.812-.073a1.478 1.478 0 0 1-1.475-1.483c0-.82.66-1.488 1.475-1.488a1.487 1.487 0 0 1 0 2.971zm-103.773-.47a2.369 2.369 0 0 0 2.367-2.37 2.377 2.377 0 0 0-2.367-2.38c-.515-.38-.657 4.078 0 4.75zm0-.795c-.14-.707-.31-3.327 0-3.16.868 0 1.577.712 1.577 1.585 0 .872-.709 1.575-1.577 1.575zm94.6-1.58a73.901 73.901 0 0 1-1.721-2.855 1.78 1.78 0 0 1 1.721 2.855zm-81.054-.407a1.574 1.574 0 0 1-1.243-1.542c0-.619.357-1.156.872-1.415zm-7.033-1.391l4.387-5.92-6.658-5.22-3.77 6.476zm100.138-2.41l-4.96-1.459.935-5.104c.08.298.356.836.728 1.478a2.676 2.676 0 0 0-.337 1.3 2.667 2.667 0 0 0 2.873 2.666c.442.655.761 1.12.761 1.12zm-7.351-1.24l1.615-8.14-7.462-3.02-1.818 8.6zm-93.635-.064A1.478 1.478 0 0 1 71.813 178c0-.82.66-1.483 1.476-1.483a1.482 1.482 0 0 1 0 2.966zm99.598-.75a1.778 1.778 0 0 1-1.355-1.731c0-.112.015-.22.034-.325.427.689.891 1.405 1.321 2.055zm-105.932-.223l4-7.577-6.8-4.776.466 1.62 4.864 3.587-2.828 5.212zm96.657-2.74a1.482 1.482 0 0 1-1.475-1.488c0-.82.66-1.483 1.475-1.483.815 0 1.475.663 1.475 1.483 0 .82-.66 1.488-1.475 1.488zm-7.043-.756l-1.586-2.777a2.672 2.672 0 0 0 1.08-2.148 2.675 2.675 0 0 0-2.666-2.68c-.22 0-.432.031-.636.082l-1.147-2.448 6.927 3.049zm-91.157-.024c.62.145 1.215-.254 1.64-.666a2.375 2.375 0 0 0 .722-1.71 2.369 2.369 0 0 0-2.362-2.375c-1.784.434-.826 4.558 0 4.75zm14.331-.655l-5.63-4.047 3.288-6.38s.33 1.29.747 3.02a2.376 2.376 0 0 0-1.355 2.148 2.369 2.369 0 0 0 2.362 2.375h.03c.22 1.04.418 2.04.558 2.884zm-14.331-.14c-.978-.3-.647-3.059 0-3.16.857-.135 1.571.707 1.571 1.58 0 .872-.704 1.58-1.571 1.58zm89.18-2.792l-1.44-3.078c.08-.011.162-.02.245-.02a1.78 1.78 0 0 1 1.196 3.098zm-75.586-.756a1.572 1.572 0 0 1-1.422-1.57c0-.572.305-1.07.757-1.349.218.92.446 1.923.665 2.919zm-7.429-.81l3.857-7.664-7.125-4.367-3.278 7.412zm95.41-1.474l-4.392-2.006 1.239-4.557.535 1.115a2.672 2.672 0 0 0 1.962 4.086zm-6.937-2.161l2.155-7.664-6.846-3.582-3.123 7.712zm5.765-.277a1.777 1.777 0 0 1-.93-1.939zm-95.506-.62a1.487 1.487 0 0 1 0-2.972c.816 0 1.476.664 1.476 1.484s-.66 1.488-1.476 1.488zm-6.502-.423l3.268-8.021-7.504-4.163.565 1.463 5.546 3.218-2.378 5.806zm93.495-2.675a1.478 1.478 0 0 1-1.475-1.483c0-.82.66-1.483 1.475-1.483.815 0 1.475.663 1.475 1.483 0 .82-.66 1.483-1.475 1.483zm-95.853-1.187a2.369 2.369 0 0 0 2.362-2.376c0-1.311-1.058-2.423-2.362-2.375-2.37.054-1.162 4.77 0 4.75zm88.516-.267c-.45-.816-.786-1.67-1.094-2.545a2.676 2.676 0 0 0 1.171-2.215 2.677 2.677 0 0 0-2.507-2.676 8.09 8.09 0 0 1-.298-.039l-.425-1.614 5.891 3.107c-.826 2.23-1.533 3.776-2.738 5.982zm-88.516-.528c-.689-.29-.874-3.072 0-3.16.868 0 1.572.707 1.572 1.58 0 .872-.704 1.58-1.572 1.58zm14.52-.921l-5.79-3.335 2.907-6.307.863 2.89a2.375 2.375 0 0 0-1.036 1.962 2.37 2.37 0 0 0 2.333 2.376zm72.588-1.988l-.92-3.083c.936.048 1.513.807 1.513 1.76 0 .527-.23.998-.593 1.323zM75 156.066a1.572 1.572 0 0 1-1.297-1.552c0-.453.188-.86.492-1.148zm86.395-.204l-4.479-2.632 2.02-5.255.588 1.896a2.675 2.675 0 0 0-.646 1.745 2.67 2.67 0 0 0 2 2.588zm-93.481-.107l2.714-7.314-7.853-4.15-1.962 7.485zm92.613-2.68a1.784 1.784 0 0 1-.757-1.46c0-.215.042-.419.111-.61zm-5.867-.364l3.187-7.421-6.629-4.392-3.451 7.737zm-89.21-1.207a1.478 1.478 0 0 1-1.475-1.483c0-.82.66-1.483 1.475-1.483.816 0 1.475.663 1.475 1.483 0 .82-.66 1.483-1.475 1.483zm-7.768-3.262c.661-.426 1.053-1.252 1.053-2.099 0-1.312-1.058-2.383-2.362-2.375a3.53 3.53 0 0 0-.784.086c-.68.917.284 4.43 2.093 4.388zm94.997.213a1.478 1.478 0 0 1-1.475-1.483c0-.82.66-1.488 1.475-1.488.815 0 1.475.668 1.475 1.488s-.66 1.483-1.475 1.483zm-96.656-3.821a.669.669 0 0 1 .35-.071c.867.04 1.572.707 1.572 1.58 0 .497-.229.94-.586 1.23-1.356 1.024-1.555-2.944-1.336-2.74zm87.93-1.264a76.056 76.056 0 0 0-.862-3.451c.12-.026.243-.044.371-.044.978 0 1.774.8 1.774 1.784 0 .813-.541 1.498-1.282 1.711zm-82.297-.872l2.054-8.226-7.858-2.88-1.504 7.785zm95.79-.112l-4.17-2.894s1.349-3.268 2.488-5.012l.323 1.512a2.675 2.675 0 0 0-1.142 2.196 2.67 2.67 0 0 0 2.169 2.633zm-88.168-.392a1.568 1.568 0 0 1-1.567-1.576c0-.572.17-.808.622-1.086.345.781.82 1.554 1.249 2.603-.128.034-.166.059-.304.059zm87.624-2.172a1.78 1.78 0 0 1-1.065-1.634c0-.463.174-.884.462-1.202zm-6.262-1.202l3.784-6.612-5.553-4.27-4.339 6.616zm-91.625-.223a1.483 1.483 0 0 1-1.475-1.488c0-.82.66-1.484 1.475-1.484a1.486 1.486 0 0 1 0 2.971zm-6.797-2.056l-.964-1.502a2.373 2.373 0 0 0-2.4-3.752l-.777-1.207 4.926 1.774zm97.29-1.764a1.478 1.478 0 0 1-1.476-1.483c0-.82.66-1.484 1.475-1.484a1.482 1.482 0 0 1 0 2.967zm-98.727-.475l-1.456-2.273h.044c1.375.026 1.957 1.165 1.412 2.273zm91.645-.102l5.36-7.15-7.11-5.298.11 1.58 5.197 3.733-3.953 5.293zm-78.282-2.419l-7.077-2.234 1.514-7.058 1.668 2.787a2.369 2.369 0 0 0-.738 1.72 2.365 2.365 0 0 0 2.358 2.376c.264 0 .519-.045.756-.126zm77.09-1.226a2.674 2.674 0 0 0 2.397-2.661 2.675 2.675 0 0 0-2.666-2.68c-.678-.082-.775.96 0 .896.978 0 1.774.8 1.774 1.784 0 .945-.733 1.715-1.658 1.774l.13.887h.024zm-86.702-.761l1.229-8.168-8.017-1.72-.598 7.406zm100.234-.199l-3.784-2.811 2.873-4.043.155 1.158a2.686 2.686 0 0 0-1.133 2.196c0 1.16.734 2.14 1.76 2.511zm-92.897-1.018a1.572 1.572 0 0 1-1.567-1.58c0-.39.14-.742.371-1.018l1.528 2.56a1.582 1.582 0 0 1-.332.038zm25.294-1.106c-.21-.047-.51-.096-.45-.222.065-.131 1.346-1.546 1.346-1.546l-.145-1.319-2.275 2.594-.916-.34 3.196-3.267.15-1.217-4.257 4.203-1.817-.504 4.95-4.9-5.702-5.813-5.708 5.851 4.054 4.455-2.005-.19c-.846-.969-1.777-2.511-3.331-3.334l.154 1.163c.08-.055 1.886 1.71 1.6 1.997l-1.595-.116c-1.875.509 2.29 1.199 6.307 1.879 2.085.083 8.153 2.773 6.706.716-.087-.039-.182-.063-.262-.09zm67.329.054a1.772 1.772 0 0 1-.724-1.43c0-.419.146-.805.386-1.11zm-102.896-1.42a1.478 1.478 0 0 1-1.475-1.483c0-.82.66-1.484 1.475-1.484.815 0 1.475.664 1.475 1.484s-.66 1.483-1.475 1.483zm97.005-.145l4.608-5.89-5.22-5.036-5.346 6.301zm-103.489-1.508l-.36-.063v-4.018l.567.126zm35.976-1.866a1.478 1.478 0 0 1-1.475-1.484c0-.82.66-1.483 1.475-1.483a1.482 1.482 0 0 1 0 2.967zm66.8-.422a1.483 1.483 0 0 1-1.476-1.488c0-.82.66-1.483 1.475-1.483.816 0 1.475.663 1.475 1.483 0 .82-.66 1.488-1.475 1.488zm-7.116-1.168l5.954-7.136-6.393-6.636.02 1.484 4.965 5.235-4.652 5.453zm-66.568-.655l6.127-6.224-6.107-6.364-.145 1.43 4.715 4.784-4.416 4.586zm13.47-.644l-.01-1.692-3.842-3.931 3.933-4.038-.024-1.716-5.577 5.783zm-31.388-.742l-7.216-1.372.443-6.854 1.736 2.109c-.296.397-.473.89-.473 1.425a2.365 2.365 0 0 0 2.362 2.37c.373 0 .723-.088 1.037-.242zm97.256-1.221l-3.558-3.762 3.399-3.863.029 1.313a2.683 2.683 0 0 0-1.61 2.463c0 1.142.71 2.112 1.711 2.496zm-13.19-.95a2.683 2.683 0 0 0 0-5.22v.934a1.785 1.785 0 0 1 1.177 1.678c0 .772-.492 1.425-1.176 1.672zm-52.288-.253c1.095-.725.606-4.817 0-4.75a2.365 2.365 0 0 0-2.358 2.375 2.365 2.365 0 0 0 2.358 2.375zm-13.975-.387a2.369 2.369 0 0 0 2.362-2.376 2.369 2.369 0 0 0-2.362-2.375c-1.038.345-.615 4.513 0 4.75zm-20.95-.306a1.572 1.572 0 0 1-1.36-2.36l1.87 2.278c-.16.055-.332.082-.51.082zm34.925-.102a1.572 1.572 0 0 1-1.567-1.58c0-.872.699-1.58 1.567-1.58-.08.565.295 3.226 0 3.16zm65.43-.363a1.772 1.772 0 0 1-.8-1.488c0-.598.289-1.13.737-1.455zm-79.405-.024c-.196-.64-.442-3.272 0-3.16.867 0 1.571.707 1.571 1.58 0 .872-.704 1.58-1.571 1.58zm7.144-2.303l5.75-5.754-5.87-6.035-5.554 5.958zm66.341-.31l5.148-5.59-4.96-6.475-5.818 5.826zm27.911-.204c-1.583-.001-3.061-.274-3.663-1.333-2.425-3.265-1.728-9.972-.049-12.278 3.773-3.444 5.907-4.355 10.162-3.568-.488 1.935 1.556 2.978 1.851 2.55.038-.007.196-.345.005-.369-1.466-.18-1.35-1.94-1.177-1.947 1.62.05 2.674.023 2.84.749.102.447-.16 1.139-1.104 1.916-1.11.893-6.218.872-6.218.872-.02-.007.012 1.46-.502 2.303-.45.74-1.074 1.56-.646 1.9.737.343 1.235 1.174 1.34 2.133.2 2.01-.115 6.846-.043 6.898-.86.081-1.846.175-2.796.174zM81.243 108.6a1.482 1.482 0 0 1 0-2.967c.815 0 1.475.664 1.475 1.483 0 .82-.66 1.484-1.475 1.484zm66.292-.577a1.478 1.478 0 0 1-1.475-1.483c0-.82.66-1.489 1.475-1.489a1.487 1.487 0 0 1 0 2.972zm-73.326-1.396l6.012-6.166-6.407-6.665.202 1.808 4.614 4.775-4.512 4.73zm13.58-.116l.164-1.707-4.257-4.498 3.866-3.994.058-1.94-5.688 6.03zm65.816-2.327l-3.399-4.794 4.045-3.568-.107 1.362a2.679 2.679 0 0 0-2.048 2.608c0 1.122.686 2.079 1.658 2.477zm-12.727-.945c.08-.995.133-1.798.183-2.53a2.681 2.681 0 0 0 .362-4.998 85.68 85.68 0 0 1 .304-2.686l4.063 5.977zm-96.1-.282L44.64 86.19 32.528 73.582V26.37h49.683l12.8 21.686c.252.428.621.276.9.688l-3.793 20.374c-5.973-2.766-10.998 4.388-7.737 10.184-18.412 6.762-39.603 23.655-39.603 23.655zm29.398-.092a2.365 2.365 0 0 0 2.362-2.37 2.373 2.373 0 0 0-2.362-2.38c-1.7.783-.84 4.717 0 4.75zm13.753-.14c.656-.75 1.03-4.783 0-4.75-1.304.04-2.362 1.068-2.362 2.38a2.365 2.365 0 0 0 2.362 2.37zm-13.753-.655c-1.243-.92-.115-2.945 0-3.16a1.58 1.58 0 0 1 1.571 1.585c0 .872-.704 1.575-1.571 1.575zm13.753-.14a1.568 1.568 0 0 1-1.567-1.576c0-.872.699-1.58 1.567-1.58-.093.262.394 3.049 0 3.156zm65.897-.626a1.78 1.78 0 0 1-.838-1.512c0-.74.447-1.373 1.084-1.643zm-12.692-1.59c.073-1.137.126-2.073.202-3.02.449.325.743.849.743 1.445 0 .683-.384 1.277-.945 1.575zm-59.824-.547l5.606-5.638-5.837-6.098-5.549 5.904zm66.688-1.464l5.872-4.741-3.78-5.827-1.316-.795-5.375 4.625zm23.572-.393l-13.82-7.416s3.585-1.51 3.486-3.917c-.142-2.693-1.748-4.893-4.932-4.067-.73.106-1.064-.198-1.769-1.852-1.349-3.165-2.68-6.642-2.16-6.534 1.696 1.361 1.442 1.436 3.437 2.336 3.723 1.032 5.987-2.45 4.811-5.269-1.096-2.6-2.92-2.748-4.748-2.482-.268-.061-.494-.357-.675-.698-.58-1.183-1.46-3.29-2.15-6.53-1.062-4.995-1.3-11.248-.525-12.82a918.89 918.89 0 0 1 2.55-5.12c2.882 5.525 9.163 10.367 16.221 8.653.238-.149.287-.929-.034-1.386-2.289-3.021-2.676-5.79-3.494-8.76-2.098-7.612-6.33-11.968-6.272-11.19l2.216-4.04s19.192-.096 27.046 0v9.273l-20.574 21.19 8.15.347-.282 36.53c-2.98.625-6.482 3.752-6.482 3.752zM81.209 94.97a1.478 1.478 0 0 1-1.475-1.483c0-.82.66-1.489 1.475-1.489a1.487 1.487 0 0 1 0 2.972zm67.416-1.503a1.486 1.486 0 0 1 0-2.971c.815 0 1.475.668 1.475 1.488s-.66 1.483-1.475 1.483zm-60.817-1.362l-.144-1.464-4.045-4.26 3.746-3.83c.545-.752 1.942-.588 2.381-.64-.303-.936-1.142-.82-2-1.183l-5.443 5.599zm-.062-3.31c.98-.311.807-4.51 0-4.751a2.369 2.369 0 0 0-2.363 2.375 2.369 2.369 0 0 0 2.363 2.375zm-13.87-.645c-.098-.389-.243-3.125 0-3.161.868 0 1.572.708 1.572 1.58 0 .873-.704 1.58-1.571 1.58zm13.87-.15a1.576 1.576 0 0 1-1.572-1.581c0-.872.704-1.58 1.572-1.58.211.364.562 3.109 0 3.16zm48.63-.762c.235-.089.558-.033.814-.034.82-.002 1.84.582 2.064.475.256-.121.17-.662.156-.904-.028-.224-.652-.299-.908-.468-.413-.273-.3-.368.168-.48.417-.097.753-.125 1.017-.504.165-.236.18-.647-.102-.643-1.637.024-3.714.702-5.674.041-1.12-.402-1.85-.652-2.028-.498-.372.322.938 1.582 2.193 1.818 1.265.238 1.718.14 1.309.52-.212.196-.497.12-.518.26-.058.395.23.801.573.857.368.06.657-.328.936-.44zm-7.043-3.955c.133-.002.325-.097.583-.306.747-.498 1.915-1.166 4.734-.387 1.55.512 3.288.064 4.3-.222.79-.223 1.92-.441 2.825-.026.884.428 1.852 1.076 1.673.408-.046-.17-.1-1.15-.111-1.731-.03-1.367-.122-2.507-1.104-1.435-.425.465-.938.469-1.9.087-.685-.272-1.166-.455-1.696-.106-.753.495-1.402.618-2.792.145-.658-.224-1.35-.244-2.183.272-1.386.857-2.265.024-2.796-.853-.421-.695-.632.295-1.408 2.355-.4.984-.524 1.804-.125 1.799zm6.636-7.658c.755-.428 1.808-.557 2.573-1.064 1.618-1.123.101-2.057-1.023-1.823-.46.105-.992.335-1.582.729-2.026 1.352-3.149 1.154-3.34-.483-.207-1.77 2.504-2.568 2.25-3.39-.34-.536-1.655.2-2.47 1.311-2.416 3.293.244 6.621 3.592 4.72zm-10.494-9.286c2.749-.312 6.886-1.647 8.963-3.217 1.632-1.278 2.08-1.599 1.388-2.108-.633-.467-1.12-.483-.25-1.377.309-.318.835-.985.834-1.115-.01-.64-3.887-2.543-6.113-2.84-1.717-.23-4.493.033-5.987.64-1.971.8-2.038 1.346-.175.796 1.453-.43 3.208-.753 4.938-.627 1.556.113 3.081.59 4.044.936 2.382.856 1.967 1.854-.439 1.003-2.771-1.203-6.361-1.184-9.55.262-1.286.583-1.646 1.042-1.88.843-.056-.049-.187-.367-.221-.455-.081-.212-.089.544-.202 1.745-.095.996-.188 2.331-.188 2.331s.191-.563.188-.829c-.026-1.743.815-1.751 3.196-.416 2.796 1.544 4.156 1.394 6.815 1.378 1.164-.007 1.217.33-.422.874-.78.26-1.978.678-3.761 1.251-1.475.474-1.874 1.005-1.178.925zm21.082-3.517c-1.013 0-1.92-.865-2.179-2.545l1.007.073c.336 2.504 2.145 1.937 2.854.446l.887-.025c-.696 1.378-1.675 2.051-2.57 2.05zm-2.574-.155c-.41.037-2.318-.892-2.435-1.178-.127-.314.599-.651 1.234-.839.732-.215.582-.247.813.188.322.61.888 1.804.388 1.829zm4.864-.121c-.02-.27.56-1.255.978-1.382.495-.15.883.508.477.843-.364.19-1.38.924-1.455.539zm-19.606-.131c-1.281.052-2.473-1.249-2.574-2.788l.646.015c.598 3.203 3.046 2.478 3.596.194l.762.218c-.635 1.655-1.553 2.325-2.43 2.36zm2.517-.228c-.351.023-.305-.263.115-1.115.199-.402.34-.63.69-.616.473.071.79.224 1.031.601.165.374-.22.665-1.041.926-.375.12-.636.193-.795.204zm-5.385-.238c-.225-.001-.634-.146-1.277-.431-1.646-.73-1.84-1.03-.979-1.445.382-.184.7-.322.954-.407.772-.258.748.176.955.713.118.303.26.579.41.901.209.451.217.671-.063.67zm24.108-2.714c-.274.001-.867-.362-2.059-.79-1.71-.615-3.436-.389-5.707.339-.937.3-1.257.489-.887-.058.293-.433 1.888-1.227 3.191-1.551 2.44-.608 5.663.546 5.664 1.803-.018.182-.078.256-.202.257zm-8.075-2.07c-.248-.005-.006-.38.511-.96.802-.9 2.026-1.518 3.274-1.74 2.625-.467 4.8.252 4.82 1.73.016 1.065-.17 1.08-1.465.408-1.1-.571-3.572-.709-5.563-.063-.655.174-1.326.575-1.442.606a.497.497 0 0 1-.135.019zm-20.179-1.43c1.992-.529 4.107-1.061 6.04-1.435 2.072-.408 5.091-.033 6.667.747 1.165.576 1.573.236 1.06-.883-.333-.73-.838-1.497-2.332-2.021-2.17-.762-7.256.475-11.035 2.438-2.197.982-1.775 1.576-.4 1.154zm32.804-15.051l-3.4 5.807c-23.021-4.482-47.93-1.227-55.552-.166 0 0-8.324-13.849-11.317-18.71-.283-.517-1.056-2.268-1.056-2.268l78.605.063c-1.1 2.225-2.146 5.101-2.146 5.101 2.402.969 4.265 4.577 5.419 7.622 1.012 2.672 2.764 9.197 5.071 12.376-4.034 2.3-14.178-2.833-15.624-9.825z" fill="#131f67"/><path d="M84.375 25.997l77.853-.001-10.144 20.388c-18.925-2.88-37.582-2.521-56.026.413l-11.683-20.8zM190.808 42.52l.163 9.774-10.084-.224zm-85.121 65.724l-.11 29.666c-4.022-2.853-8.042-5.712-12.18-7.978l.159-30.696zm33.935 6.49c.715 16.777 3.145 23.326 4.721 31.83l-14.437 9.383-.042-34.438zm39.47 29.428l-.082 41.316c-13.271-19.192-21.655-38.687-23.968-65.004 3.608-1.463 7.128-3.078 10.828-4.383a171.226 171.226 0 0 0 13.221 28.071zM44.714 127.151c12.264 15.666 19.573 36.54 23.433 62.256l-11.227 5.48c-3.726-9.078-7.508-18.723-12.222-26.258zm47.918 27.71l-.045 34.547-9.585 6.258c-.597-12.145-2.513-23.492-4.727-31.905zm25.228 18.192c3.546 2.682 7.238 5.15 11.332 7.026l-.599 30.65-10.82-8.377zM41.81 259.41s-6.749 6.892-9.252 9.13l-.055-9.358zm84.978 4.462l12.583 21.592-78.873.665 10.134-21.741c20.887 3.84 38.759 2.106 56.156-.516z" fill="#d40000"/><path d="M90.638 69.665c-.18-.058-2.619 1.601-3.883 4.044-1.367 2.7-.131 5.353-.537 5.362-2.517-.755-1.793-5.58-.917-7.074.743-1.3 2.164-2.176 3.634-2.426 1.452-.247 1.703.094 1.703.094zm-4.1 10.548c.506-.008.726.078 1.06.426.464.484 1.02.809 1.316.766.399-.058.58.014.583.228.003.175-.174.204-.83.145-.398-.035-1.24.598-1.24.598l-.007 45.603c-3.566-1.487-8.896-2.342-12.992-2.83L74.154 84.5s-6.009 3.165-8.191 4.43l-.078 36.384-4.257.468 6.722 13.734c.943-.73 14.173.513 17.477 2.674l-12.072 7.574c1.227 3.76 2.342 7.355 3.367 11.163.032.117.255.105.286.222.248.929.425 1.347.658 2.282.043.175-.027.459.023.632 2.6 9.009 4.375 20.948 4.736 31.635-.038.101-.422.014-.422.014l.077 6.529.428-.287-.042 2.955-.436.433c-.01.573-.05 1.653-.05 1.653l.559.351-.29 4.95-.575.086-.315 7.837 15.288-9.95s9.977 7.183 14.34 10.909c-4.8 3.282-6.074 9.683-7.264 14.995-1.217 5.256-1.617 9.596-1.962 13.995-.38 4.847-1.179 11.046-1.817 14.1-.386 1.847-.373 2.05.168 2.08.187.011-.005.071-.429.136-9.803.394-20.329-1.074-29.677-2.296 0 0-2.312 4.333-3.115 5.93 0 0-.47-1.466-.971-2.485-1.136-2.162-3.73-4.456-5.949-5.691-.828-.548-3.21-1.35-4.82-1.624-.948-.157-2.473.145-3.601.596-.388.163-.692.368-.695.572-.003.207.303.417.695.79.333.319.78.935.993 1.372.678 1.386 1.715 3.713 2.294 5.89 1.63 4.33 2.839 9.556 6.583 11.859l-2.583 5.198 81.357-.021-12.59-21.321s-.38-.636-.505-.862c-.372-.673-.524-.577-.524-.577a220.231 220.231 0 0 1 3.527-22.006s.163.575 2.554.54c6.997-.1 9.447-7.92 3.596-11.381-.551-.33-1.49-.96-2.415-1.45-.266-.138-3.62-2.117-3.62-2.117l4.02 1.818.29-46.918s8.384 2.533 13.91 2.771l-.055 40.681 7.718-4.189.35-36.37 4.229-.274s-1.602-3.427-1.958-4.147c-.715-1.442-2.513-4.648-3.74-6.675-.436-.716-1.452-2.312-1.452-2.312-5.633-.15-11.398-1-16.637-3.342l12.125-7.933c-5.064-14.349-11.38-35.344-7.861-69.232l-.85.542-.233 3.651-15.094 10.445-18.62-15.079s1.351.037 1.654.05c4.75.168 8.094-4.716 9.241-8.794 2.023-7.188 2.288-8.961 3.22-20.36.368-4.507 1.254-8.856 2.159-13.151.477-2.159.406-2.374.406-2.374-9.47-.304-19.362.702-26.781 2.351 0 0-3.133 14.948-4.25 21.294-1.054-.608-1.992-.874-2.942-.853-7.344.802-6.715 10.929-2.929 11.213zm32.687 204.928l-3.85-13.583 9.43-.877 7.828 14.348zm-57.965.19l9.693-20.676c20.334 2.87 32.071 3.143 55.674-.218l12.269 20.615-3.23.028-9.25-16.46-13.739 1.378 3.797 15.062-3.63.113-3.757-14.781-21.266.113c-.688 4.952-2.023 14.638-2.023 14.638l-3.927-.044 2.617-14.965-12.561-1.584-7.258 16.73zm27.273-.192l1.239-12.572 17.59-.135 2.814 12.716zm-21.313.241l5.972-14.92 8.702 1.168-2.377 13.545zm-10.73-14.62a98.485 98.485 0 0 0-.872-2.778c-1.42-3.869-2.004-5.147-2.931-6.433-.153-.212-.2-.187.025-.37 4.274-2.1 11.999 3.07 13.86 7.804a267.56 267.56 0 0 1-1.268 2.38c-.54-1.058-.135-2.104-.489-3.054-.087-.405-.971 2.738-.971 2.738s-.852-1.395-.957-4.078c-.016-.414-1.11 1.8-1.11 1.8-1.375-1.862-1.297-5.091-1.297-5.091-1.55 1.891-.584 2.975-2.978-1.845-.277.5-.142 1.033-.505.892-1.052-.41-2.53-1.15-3.068-1.001.702.884 2.064 1.35 2.438 2.524 0 0-1.08-.092-1.151-.039 1.224.67 2.4 1.247 3.318 2.533-.273.101-1.38-.089-1.332.029 1.657 1.504 4.142 2.72.547 2.38 2.337 1.654 4.942 2.795.882 2.672 2.896 1.376 3.677 2.224 3.137 2.458-.304.131-1.17-.393-2.55.051 2.327.954 3.286 1.39 3.378 1.705.112.38-.993.59-1.75 1.414 0 0 .936-.213 1.345.223 0 0-.455 1.318-.805 2.078-2.962-2.702-4.128-6.53-4.896-8.993zm-24.956 5.247s13.09-14.18 19.57-21.216l-6.332-.095-.29-38.397c-2.206-.298-6.032-.006-7.48-1.483-.9-1.338 2.58-3.97 4.54-3.417 1.306.355 2.921.074 2.921.074l-.133-42.786c4.18 7.8 7.374 12.736 12 26.28-1.34.938-2.719 1.66-2.949 1.82 1.778 4.312 3.008 11.093.526 17.001l-1.711-1.025c1.254-3.606 1.716-8.94-.335-13.868l-.47.497s.507.984.833 2.069c.291.968.71 2.216.714 3.51.082 2.29.012 4.26-.526 6.097-.185.6-.45 1.495-.588 1.77-.138.275-.27.53-.27.606 5.036 2.05 8.645 5.052 12.987 7.198.165.08.302.15.412.212.55.307.405.413-.456.757-1.812.726-2.55 1.606-2.511 3.374.057 2.516 1.395 3.496 4.32 3.33 1.062-.06 1.13-.045 1.32.32.442.854 1.97 4.247 1.972 4.382.001.08.32.844.708 1.697.601 1.361 1.295 2.765 1.578 4.186.143.706.55.984.654.254.774-5.415 1.486-8.273 2.878-11.527.413-.968.727-1.783.694-1.813-.134-.119-2.462-1.206-3.552-1.658-4.253-1.76-6.187-2.845-5.53-3.107.457-.182.622-.5.738-1.41.304-2.384.27-3.604-.125-4.358-.417-.792-.407-.848.274-1.294.591-.388.464-.39.625-2.38.19-2.364.06-3.867.06-3.867l-1.059-1.367 1.078-1.348.248-6.19-1.455-1.11 1.36-1.35-.486-5.646s.179-.522.414-.78c-2.303-23.878-11.203-47.94-24.534-64.34l-.132-39.225L30.97 73.239zm1.023-2.525v-3.092l11.094-12.014-11.094-.194v-2.62l17.031.033zm.17-5.248l-.027-8.658 8.292-.01zm76.086-4.363l-1.73.072c.069-1.745.756-9.803 1.579-16.86.927-7.956 2.824-14.819 3.188-14.819l1.67 1.018c-2.766 9.127-3.502 20.873-4.707 30.589zm-7.846.25c.244-4.926 1.27-8.371 1.584-14.196.389-7.114 1.605-15.97 4.787-23.316 1.072-2.474 3.053-4.797 5.831-5.893 4.872-1.92 9.008 4.151 5.715 8.617-2.604 3.53-6.68 3.485-7.916-.087-1.022-2.951 2.262-6.657 4.883-5.506 1.822.8 1.357 4.1-.689 4.876-.848.322-1.566-.76-1.147-1.73.33-.764.365-1.242-.082-.918-1.85 1.312-.457 4.437 1.84 3.268 3.064-1.559 2.548-6.142-.538-6.342-3.907-.386-6.92 4.451-8.85 13.638-2.117 10.28-1.591 19.485-3.62 27.557zm4.992-.173l-2.053.062c.164-.763.193-1.577.333-2.511.81-5.393 1.288-13.266 2.118-19.436 1.17-8.706 3.268-13.998 3.321-13.352.234 1.055.898 1.911 1.406 2.747-2.116 5.789-2.97 11.057-3.514 16.017-.635 5.796-.814 11.173-1.61 16.473zm8.778-.5l-1.802.094c.702-11.542 2.384-22.006 3.379-26.498.307-1.354.41-1.94.665-2.053.283-.125.755.333 1.903.974-1.747-.248-3.148 19.624-4.145 27.484zm-2.81.167l-1.956.192c.29-4.172.99-10.732 1.776-16.647.948-7.151 2.19-13.488 2.81-13.394l1.63.569c-1.091-.344-3.779 20.99-4.26 29.28zm3.712-.204c1.278-8.738 1.4-18.947 4.047-27.106l1.832.857c-.502-.165-1.804 5.308-2.245 11.501-.384 5.392-1.352 11.257-1.638 14.506zm3.02-.32c.729-3.086.728-7.633 1.274-11.425.676-4.696 1.397-14.234 2.477-14.015l1.87.953c-.98-.297-2.693 17.773-3.734 24.19zm4.926-.765l-1.9.259c.915-7.055 2.568-23.505 3.547-23.628l1.78.95c-.694 2.89-2.453 12.715-3.427 22.419zm1.18-.275c.787-7.755 1.525-15.608 3.169-21.639l1.947.883s-1.352 6.633-1.993 11.291c-.632 4.599-.729 5.254-.93 6.452-.445 2.643-.568 2.741-.568 2.741zm-83.42-7.949l.187-37.238 2.16.082-.09 37.215zm-5.101-.294a1.478 1.478 0 0 1-1.475-1.483c0-.82.66-1.488 1.475-1.488.816 0 1.475.668 1.475 1.488s-.66 1.483-1.475 1.483zm34.78-13.665c-1.528-2.812-2.7-3.842-4.047-4.38-2.43-.97-5.781 1.42-4.562 4.764.641 1.759 2.268 2.02 4.332 1.67 0 0 .889.635 1.935 3.821 1.238 3.772 3.181 7.653 3.181 7.653.123-4.731 1.23-9.658-.838-13.528zM34.06 250.352a1.482 1.482 0 0 1 0-2.967c.816 0 1.475.664 1.475 1.483 0 .82-.66 1.484-1.475 1.484zm4.05-.058a1.478 1.478 0 0 1-1.476-1.484c0-.82.66-1.488 1.476-1.488a1.487 1.487 0 0 1 0 2.972zm33.092.356c-1.37-2.856-1.66-5.006-2.988-7.594a137.775 137.775 0 0 0-1.104-2.097c-4.339 2.052-6.007-3.115-2.488-4.765 3.464-1.623 7.362 4.546 6.983 11.19-.104 1.832-.403 3.266-.403 3.266zm-35.035-3.856a1.478 1.478 0 0 1-1.475-1.484c0-.82.66-1.488 1.475-1.488.816 0 1.475.669 1.475 1.488 0 .82-.66 1.484-1.475 1.484zm-3.908-2.788v-3.173l7.712-7.525v3.07zm101.404-2.443c-1.474-.02-2.181-.458-1.205-.848 3.238-1.293 4.677-3.354 4.855-6.956.008-1.821-.209-2.06.905-1.043 2.847 4.005-1.254 8.871-4.555 8.847zm-2.707-1.302a3.127 3.127 0 0 1-1.07-.146c-.868-.274-.55-.294.912-1.27 2.79-1.862 3.638-3.685 3.762-7.412.035-.562-.08-1.028-.033-1.263.04-.179.255-.121.384-.114.533.089.86.655 1.014 1.133 1.768 3.55-1.5 8.94-4.97 9.072zm-3.02-1.233c-.24.003-.45-.035-.622-.121-.682-.343-.43-.392.819-1.288 2.217-1.59 3.314-3.925 3.571-6.534.165-1.674-1.12-3.665 1.154-2.024 1.598 1.333 1.28 4.798-.416 7.176-1.045 1.468-3.21 2.775-4.507 2.79zm-95.677.725v-3.613l7.712-7.366v3.698zm93.2-1.883c-.876-.01-1.27-.575-.246-1.222 2.497-1.578 3.998-4.589 3.852-7.731-.142-1.899-.214-2.24.993-.984 1.942 2.02.573 7.506-3.192 9.559-.511.27-1.009.382-1.407.378zm-2.555-1.052c-1.438.035-1.638-.696-.352-1.6 2.455-1.723 4.094-4.759 4.054-7.518-.018-1.283.082-1.442.646-1.008 2.835 2.176-.204 9.771-4.044 10.106a4.92 4.92 0 0 1-.304.02zm-50.718-.238c-.352-.025-.98-1.28-1.966-3.907-.95-2.532-2.485-5.725-2.81-5.846-.101-.037-.533.114-.96.34-3.236 1.707-5.514-3.138-2.324-4.94 2.27-1.282 4.411.093 6.388 4.106 2.33 4.73 2.967 8.243 1.841 10.136-.047.079-.102.116-.169.111zm48.086-1.29a2.178 2.178 0 0 1-1.123-.241c-.838-.437-.716-.76.568-1.518 1.325-.781 1.847-1.27 2.608-2.428 1.188-1.806 1.387-2.501 1.389-4.828 0-1.897.56-2.002 1.687-.315 1.942 2.905-1.952 9.19-5.13 9.33zm-3.23-1.7c-1.27.028-2.108-.494-.892-1.14 3.868-2.055 5.494-5.007 4.753-8.638-.232-1.138 1.061-.174 1.847 1.377 1.147 2.264-.97 6.642-3.857 7.979a4.765 4.765 0 0 1-1.851.421zm-43.65-3.34c-.243-.018-.523-.665-1.143-2.26-.404-1.038-.945-2.282-1.205-2.762-.26-.48-.442-.932-.4-1.004.218-.365 2.01.257 2.613.907.93 1.005 1.226 3.252.597 4.537-.184.375-.317.592-.462.582zm-37.148-2.74a1.478 1.478 0 0 1-1.475-1.483c0-.82.66-1.488 1.475-1.488.816 0 1.475.669 1.475 1.488 0 .82-.66 1.484-1.475 1.484zm151.4-2.394a1.483 1.483 0 0 1-1.475-1.488c0-.82.66-1.483 1.476-1.483.815 0 1.475.663 1.475 1.483 0 .82-.66 1.488-1.475 1.488zm-60.994-.446c-1.612.057-2.11-.709-2.382-3.17-.186-1.69-.548-1.847-3.191-1.4-2.79.47-3.724-.29-3.924-3.195-.158-2.305-.138-2.286-3.312-2.308-3.124-.021-3.459-.339-3.818-3.558-.267-2.391-.177-2.324-3.249-2.283-3.403.046-3.708-.207-3.938-3.233-.187-2.453-.348-2.611-2.497-2.433-2.106.174-5.99.193-6.715.033-1.811-.397-1.886-.322-2.276 2.133-.512 3.233-1.148 3.638-5.1 3.238-1.943-.196-2.168-.156-2.443 1.562-.367 2.293-.824 2.964-.825.978-.003-5.014.344-5.248 3.672-4.356 2.5.67 2.54.155 2.802-2.265.23-2.134.588-3.008 1.369-3.35.606-.265 2.647-.038 3.466.195.31.09 2.252.136 4.55.112 5.537-.059 5.595-.072 5.591 3.84-.002 1.645.357 1.999 3.255 1.911 3.636-.11 3.446-.208 4.064 4.182.215 1.521.336 1.58 3.345 1.536 3.28-.047 4.026-.095 3.833 2.685-.176 2.526.436 3.189 3.172 2.549 2.914-.682 3.472.562 3.756 2.82.263 2.093.44 1.57 1.83 1.678 1.542.12 1.363 1.865-.274 2.026-.28.028-.531.065-.761.073zm-92.686-.76a1.478 1.478 0 0 1-1.475-1.484c0-.82.66-1.483 1.475-1.483.815 0 1.475.663 1.475 1.483 0 .82-.66 1.483-1.475 1.483zm4.155-.083a1.483 1.483 0 0 1-1.475-1.488c0-.82.66-1.484 1.475-1.484.816 0 1.475.664 1.475 1.484s-.66 1.488-1.475 1.488zm147.313-2.472a1.482 1.482 0 0 1 0-2.967c.815 0 1.475.663 1.475 1.483 0 .82-.66 1.484-1.475 1.484zm4.146-.034a1.478 1.478 0 0 1-1.475-1.484c0-.82.66-1.483 1.475-1.483.815 0 1.475.663 1.475 1.483 0 .82-.66 1.484-1.475 1.484zm-77.143-1.264l-15.348-11.516-14.527 9.776.088-3.566 14.423-9.645s12.275 9.558 18.208 14.173zm-76.384-.171a1.483 1.483 0 0 1-1.475-1.488c0-.82.66-1.484 1.475-1.484.816 0 1.475.664 1.475 1.484s-.659 1.488-1.475 1.488zm25.138-1.944l-3.64-5.948 3.634-2.651-3.308-4.253 3.567-3.675-3.92-2.505 3.666-5.134 5.075-2.266-5.076 6.705 4.2 2.9-3.984 4.316 3.575 4.712-3.7 2.907 4.003 6.602-.262.319zm67.288 1.313l-26.967-20.286s-2.49-1.884-3.205-2.34c-1.514-.965-1.816-.579-3.327.464-3.407 2.035-11.655 7.68-11.655 7.68l.065-2.923s8.297-6.242 12.89-8.831c.65-.362 1.35-.02 1.84.353 10.015 7.977 20.264 15.71 30.418 23.524zm-61.966-.323c-.113-.204-.476-.278-.652-.551-1.195-1.86-3.36-5.164-3.36-5.164l3.792-3.025-3.482-4.597 4.35-4.445-4.444-3.042s2.76-4.248 4.846-6.19l.051 3.3-1.782 2.16 2.045 1.416.006 4.537-2.08 2.203 1.905 1.936-.34 4.961-1.816 1.445 1.499 2.065zm121.082-1.012a1.482 1.482 0 0 1 0-2.966c.815 0 1.475.663 1.475 1.483 0 .82-.66 1.483-1.475 1.483zm-155.04-5.41l7.501-6.973v3.167l-7.502 7.404zm150.753 3.405v-3.821l8.01-7.44v3.69zm-150.754-4.382v-3.793l7.502-7.089v3.756zm8.827-.597l-.155-123.3-8.71-9.267-.007-3.076L43.53 86.777l.25 124.057zm141.927.368v-4.292l8.01-7.35v4.04zm-54.807-.788l-10.595-8.294.044-28.912c4.291 3.244 7.735 5.178 10.991 6.822zm-92.458-9.35a1.478 1.478 0 0 1-1.475-1.484c0-.82.66-1.483 1.475-1.483a1.482 1.482 0 0 1 0 2.966zm78.673-1.414l-.04-29.503 2.088 1.918.122 29.26zm72.357-.283a1.478 1.478 0 0 1-1.475-1.484c0-.82.66-1.488 1.475-1.488a1.487 1.487 0 0 1 0 2.972zM34.07 197.365a1.478 1.478 0 0 1-1.475-1.484c0-.82.66-1.488 1.475-1.488.815 0 1.475.669 1.475 1.488 0 .82-.66 1.484-1.475 1.484zm4.203-.184a1.478 1.478 0 0 1-1.475-1.484c0-.82.66-1.483 1.475-1.483.816 0 1.476.663 1.476 1.483 0 .82-.66 1.484-1.476 1.484zm75.257.143l-6.462-6.076 6.657-6.351.054 2.931-3.705 3.592 3.724 3.882zm-2.46-.537l-5.388-4 .844-1.028zm73.817-.896a1.478 1.478 0 0 1-1.475-1.483c0-.82.66-1.483 1.475-1.483.816 0 1.475.663 1.475 1.483 0 .82-.66 1.483-1.475 1.483zm4.324-.073a1.483 1.483 0 0 1-1.475-1.488c0-.82.66-1.483 1.475-1.483.816 0 1.475.663 1.475 1.483 0 .82-.66 1.488-1.475 1.488zM83.3 195.28c-1.038-11.803-1.758-19.973-4.79-31.102l13.94-8.963-.127 34.186zm-38.42-27.007l.056-40.537c13.156 18.824 20.25 40.828 22.532 61.681 0 0-7.062 3.272-10.491 5.28-3.633-8.56-2.064-8.55-12.097-26.424zm-9.017 25.291a1.483 1.483 0 0 1-1.475-1.488c0-.82.66-1.483 1.475-1.483.815 0 1.475.663 1.475 1.483 0 .82-.66 1.488-1.475 1.488zm151.15-1.594a1.478 1.478 0 0 1-1.475-1.484c0-.82.66-1.488 1.475-1.488.815 0 1.475.668 1.475 1.488s-.66 1.484-1.475 1.484zm-82.25.136l-5.119-3.929-.012-2.979 6.124 5.923zm1.755-1.573l-6.401-6.363 6.711-6.733 6.62 6.308zm-48.2-.222l6.172-2.546c-2.361-21.511-8.487-37.635-16.747-50.707l-.188 30.173c4.264 6.786 7.493 14.96 10.763 23.08zm-25.947-.445v-3.384l7.683-7.085v3.37zm74.152-1.862l4.079-4.004-4.107-3.994-3.953 3.994zm76.783.444v-3.6l7.627-7.406v3.826zM97.42 186.43l-.062-34.43 1.696-.807-.118 35.969zm9.18-.52l-1.851-1.872 1.937-1.958 1.823 1.871zm-74.23-.36v-3.903l7.683-7.214.128 3.722zm85.008-14.634c-7.928-6.898-14.02-17.37-20.709-23.224-2.705-2.357-9.32-6.037-12.89-7.169-4.058-1.286-7.217-1.813-11.29-1.886-3.216-.057-3.23-.076-3.23-.076l-1.362-2.434 2.251.031.148-8.593c-2.384-.116-4.719.017-7.023.304l-.832-1.565c16.4-2.235 32.43 4.014 42.071 11.999 4.397 3.635 7.97 8.073 12.32 14.534 8.37 13.13 23.115 19.469 36.846 19.616l1.138 1.779-2.295-.077s-.232 1.651-.262 4.458c-.034 3.16-.015 3.715.232 3.806 1.662.195 6.677.09 6.53-.123l1.032 1.856c-16.37 1.697-32.479-4.033-42.675-13.236zm65.927 12.959v-3.53l7.627-7.236v3.535zm-83.842-.3l.201-3.156 3.637-3.616-3.869-3.777.092-2.636 6.822 6.361zm49.823-1.123c.351 0 .563-.03.603-.097.09-.153.04-1.508.337-6.413.109-1.798.233-1.805-1.267-1.986-1.258-.044-4.073-.769-5.946-.99-1.579-.211-1.249.271-1.694 1.54-.484 1.388-.748 2.618-1.35 4.599-.551 1.814-.298 1.872 3.256 2.54 2.458.462 5.008.806 6.061.807zm-35.48.3l-6.173-6.194 6.078-6.208.107 3c-1.173 1.048-2.57 2.243-3.6 3.427l3.582 3.677zm30.96-2.008l-.662-1.096-1.59-.263.277-1.115-.809-1.15.996-.75-.035-1.388 1.245.045 1.083-.78.856 1.094 1.247.041-.068 1.554.81.688-.967.87.125 1.379-1.537-.26zm10.026-1.867l-.981-.647.997-.692.045-1.06.61-.522 2.24 4.407-1.457-.594-1.113.743zm-17.972 1.02c.783-.014.886-1.47 1.734-4.225 1.184-3.844 1.27-3.489-1.002-4.29-1.012-.357-2.946-1.013-3.97-1.497-2.492-1.178-2.505-1.174-3.436.427-.414.71-1.197 2.453-1.745 3.356-1.368 2.256-1.405 2.147 1.109 3.365 1.478.716 2.374 1.009 5.483 2.277.864.352 1.417.593 1.827.586zm-2.488-2.55l-1.09-.687-1.223.513-.245-1.324-1.339-.521.381-1.302-.589-.976 1.14-.223.828-1.804 1.252.882 1.327-.481.368.992 1.36.66-.494 1.094.679 1.475-1.556.12zm-27.374-1.354l-6.815-6.714 6.205-6.253 6.812 6.736zm-71.091-1.223a1.478 1.478 0 0 1-1.475-1.483c0-.82.659-1.484 1.475-1.484.815 0 1.475.664 1.475 1.484s-.66 1.483-1.475 1.483zm89.288-.326c.395-.006.622-.372.964-1.076.145-.297.986-1.877 1.764-3.101 1.752-2.76 1.753-2.619.004-3.699-.741-.458-2.449-1.871-3.916-3.205-1.358-1.235-1.21-.942-4.136 2-1.908 1.918-3.085 2.457-2.342 3.468 1.809 1.559 3.291 2.698 5.252 4.188 1.295.971 1.963 1.431 2.41 1.425zm-18.517-.75l4.02-3.96-4.53-4.127-3.756 3.88zm68.846 1.344l-.044-30.976c-4.42-7.599-8.957-15.267-11.319-23.818l-6.483 3.194c3.101 25.307 10.315 39.339 17.846 51.6zm11.543-1.945a1.478 1.478 0 0 1-1.476-1.484c0-.82.66-1.483 1.476-1.483.815 0 1.475.664 1.475 1.483 0 .82-.66 1.484-1.475 1.484zm-80.437-1.653l-1.938-1.789 1.784-1.949 1.957 2.036zm-72.53-.291a1.482 1.482 0 0 1 0-2.967c.815 0 1.474.664 1.474 1.484s-.66 1.483-1.475 1.483zm3.962-.15a1.482 1.482 0 0 1 0-2.967c.815 0 1.475.664 1.475 1.483 0 .82-.66 1.484-1.475 1.484zm86.223.096l-1.121-.835-1.316.57-.095-1.56-1.199-.593.755-1.104-.456-1.452 1.297-.042 1.008-1.33.905.874 1.764-.12.28 1.514.764.601-.593 1.002.434 1.334-1.51.104zm64.95-1.652a1.478 1.478 0 0 1-1.474-1.484c0-.82.66-1.483 1.475-1.483.815 0 1.475.663 1.475 1.483 0 .82-.66 1.484-1.475 1.484zm-4.246-.044a1.483 1.483 0 0 1-1.475-1.488c0-.82.66-1.483 1.475-1.483.815 0 1.475.663 1.475 1.483 0 .82-.66 1.488-1.475 1.488zm-85.44-3.54l3.52-3.303-3.469-3.636.105-2.787 6.154 6.17-6.253 6.174zm34.792.718l13.206-8.81.803 2.205-11.772 7.752zm-98.241.718a1.482 1.482 0 0 1-1.475-1.488c0-.82.659-1.483 1.475-1.483.815 0 1.475.663 1.475 1.483 0 .82-.66 1.488-1.475 1.488zm79.176-.895c.61-.043 1.235-.77 2.42-2.036 1.162-1.243 2.534-2.702 2.827-2.91.917-.65.872-.806-.723-2.608a58.74 58.74 0 0 1-2.034-2.486c-.634-.822-1.645-1.852-1.846-2.063-.647-.683-1.003-.54-3.981 1.61-3.617 2.61-3.6 2.223-.275 6.538 1.913 2.484 2.827 4.01 3.612 3.955zm71.834-.913a1.478 1.478 0 0 1-1.475-1.483c0-.82.66-1.483 1.475-1.483a1.482 1.482 0 0 1 0 2.966zm-77.458-.538l-2.386-2.574.214-.256zm-77.151-.573v-4.46l7.351-6.83v4.08zm82.33-1.303l-.893-1.237-1.516.098.224-1.456-.805-.592.786-1.103.062-1.391 1.252.299 1.025-1.24 1.008 1.188 1.187-.139-.04 1.447 1.212.692-.856.941-.026 1.62-1.764.066zm-36.37-.093l-.735-2.25 18.38-12.026 1.606 1.855zm48.117-1.506l-1.463-1.108 19.292-12.474.58 1.627zm56.426.478v-3.709l8.138-7.885v3.83zm-76.394-.89l-.235.195-6.308-6.09 1.192-1.275zm17.422-1.787l-.173-35.974 1.682 1.169-.127 34.131zm-1.036-.831l-1.37-1.212 1.312-1.29zm-90.495.307v-3.648l7.351-7.02v3.814zM182.965 157v-3.429l8.138-7.821v3.463zm-75.849-.467c.211.003.439-.134.772-.398a29.384 29.384 0 0 1 1.644-1.149c2.214-1.446 4.092-2.802 4.174-3.003.171-.414-2.05-3.33-5.135-6.824-1.212-1.373-1.179-1.64-2.395-.416-.967 1.104-4.512 4.128-4.41 4.937.196.926 1.414 1.979 4.44 6.092.402.518.64.756.91.76zm13.668-.376l-4.839-6.962.645-.647 5.937 5.89zm9.454-.822l-.01-33.563 9.084-6.487c-.167-.088 1.115 20.165 4.588 30.966zm-22.587-1.182l-.89-1.67-1.345.228.177-1.534-1.14-.9 1.12-1.56-.148-1.111 1.321.301 1.204-1.252.826 1.593 1.736-.028-.243 1.53 1.211 1.023-1.322.785-.183 1.395-1.139-.098zm-7.881-.26l-.15-1.372.81.708zm23.22-2.437l.013 1.962-5.791-5.62 5.914-5.573-.041 2.647-3.366 3.225zm-47.857 1.086l-.822-2.503 11.896-7.365 2.398 1.253zm-39.193-4.136a1.487 1.487 0 0 1 0-2.971c.816 0 1.475.668 1.475 1.488s-.66 1.483-1.475 1.483zm75.717-4.828l4.18 4.207-.525.572zm-10.768 3.781c1.416-1.217 4.44-4.73 4.434-5.31-.005-.577-4.185-4.211-6.7-5.825-.79-.505-1.103-.522-1.408-.063-4.345 6.527-4.529 6.307-2.81 7.58 1.749 1.345 3.792 3.345 5.188 4.033.588.29.69.11 1.296-.415zm15.665-.318l-6.89-6.643 6.39-6.196 6.632 7.035zm70.353-.501a1.478 1.478 0 0 1-1.475-1.484c0-.82.66-1.483 1.475-1.483.815 0 1.475.663 1.475 1.483 0 .82-.66 1.484-1.475 1.484zm-87.056-1.336l-1.16-1.037-1.382.362-.311-1.373-1.333-.493.715-1.397-.1-1.761 1.343.252.932-1.445 1.363 1.38 1.563-.131-.087 1.54 1.381.671-.876 1.012.549 1.385-1.654-.261zm-65.873-.618a1.478 1.478 0 0 1-1.475-1.483c0-.82.66-1.483 1.475-1.483a1.482 1.482 0 0 1 0 2.966zm86.196-3.501l-4.079-4.198-3.754 3.62 3.98 4.225zm-82.127 3.443a1.478 1.478 0 0 1-1.475-1.483c0-.82.66-1.488 1.475-1.488.815 0 1.475.668 1.475 1.488s-.66 1.483-1.475 1.483zm150.894-1.546a1.483 1.483 0 0 1-1.475-1.488c0-.82.66-1.484 1.475-1.484.816 0 1.475.664 1.475 1.484s-.66 1.488-1.475 1.488zm-4.324-.015a1.483 1.483 0 0 1-1.475-1.488c0-.82.66-1.483 1.475-1.483.816 0 1.475.663 1.475 1.483 0 .82-.66 1.488-1.475 1.488zm-68.315-.33l-1.856-1.925 1.718-1.822 1.919 1.986zm-25.207-1.32c.95-.686 3.532-5.603 3.975-6.684-.004-.26-1.246-1.053-2.801-1.784-1.325-.622-5.626-2.357-6.022-2.454-.864-.21-1.013.12-1.157.685-.076.3-.419 1.443-.8 2.686-1.332 4.351-1.73 4.146.252 4.807.682.227 2.827.955 4.179 1.581 1.339.621 1.944 1.171 2.374 1.163zm-55.034-.788a1.487 1.487 0 0 1 0-2.971c.815 0 1.475.668 1.475 1.488s-.66 1.483-1.475 1.483zm70.473-2.037l-.231-29.176 2.27 1.786.062 29.273zm10.155-4.971l6.268-6.416.04 3.269-3.51 3.195 3.574 3.758-.074 2.526c-2.287-1.882-4.239-4.196-6.298-6.332zm70.247 5.597a1.478 1.478 0 0 1-1.475-1.483c0-.82.66-1.488 1.475-1.488a1.487 1.487 0 0 1 0 2.971zm-96.74.064l-1.264-1.061-1.06.64-.609-1.092-1.52-.213.682-1.667-.893-1.288 1.483-.275.368-1.778 1.454.869 1.104-.481.804 1.506 1.72.07-.939 1.636.885 1.294-1.248.082zm19.346-.116l.011-2.573 2.728-2.78-2.738-2.997.014-2.992 5.67 5.803zm-29.081-1.69c.57-.018.576-.624 1.013-2.597.095-.428.398-1.575.67-2.55.826-2.955.93-3.01-1.618-3.518-1.476-.222-7.862-1.717-7.993-.693-.16 1.738-.264 5.832-.286 7.224-.056.466.053.906.517.961 2.91.35 6.15 1.118 7.697 1.173zm24.879-.125c-3.627-2.49-7.138-5.027-11.305-7.3l-.105-30.005 11.435 8.565zm-72.788-.086v-3.679l7.623-7.32v3.514zm44.658-1.277l-.66-1.423-1.389.465.009-1.7-1.238-.786 1.493-.692.131-2.069 1.512.469 1.246-.775 1.102 1.164 1.35.025-.495 1.84.871.84-1.266.625-.103 1.642-1.355-.816zm105.594.273v-3.546l8.299-7.68v3.1zM66.82 133.94l-1.862-3.166.673-1.28 1.248.613 1.371-.509-.21 1.693 1.059.846-1.071.989.049 1.243zm49.155-1.045l-6.363-6.63 6.483-6.73 6.362 6.724zm-83.422-4.15l7.623-7.12v3.463l-7.623 7.268zm150.252 2.896v-3.46l8.299-7.819v3.206zm-66.845-1.237l4.132-4.112-4.098-4.136-4.14 4.035zm-.056-2.357l-1.77-1.826 1.692-1.767 1.824 1.784zm7.096-2.527l-6.309-6.514.724-.859 5.591 4.366zm-13.543-.528l-.167-2.94 3.441-2.953-3.143-3.317-.087-3.054 5.98 6.19zm-73.51-2.984a1.478 1.478 0 0 1-1.476-1.483c0-.82.66-1.484 1.475-1.484.815 0 1.475.664 1.475 1.484s-.66 1.483-1.475 1.483zm150.812-1.794a1.478 1.478 0 0 1-1.476-1.483c0-.82.66-1.488 1.476-1.488.815 0 1.475.668 1.475 1.488s-.66 1.483-1.475 1.483zm-30.206-.909l4.655-7-3.668-2.472 3.474-4.695-3.615-4.372 3.639-3.138-3.692-6.355c1.467.292 2.96 1.276 4.311 1.959l2.784 5.324-3.201 2.77 3.249 3.792-3.408 4.06 3.417 2.411-3.727 5.763zm-122.371-.933a1.478 1.478 0 0 1-1.475-1.483c0-.82.66-1.483 1.475-1.483.816 0 1.475.663 1.475 1.483 0 .82-.66 1.483-1.475 1.483zm91.553.116l-32.13-24.902.132-3.304 32.136 24.834 13.645-9.687-.122 3.526zm-87.62-.314a1.478 1.478 0 0 1-1.475-1.484c0-.82.66-1.483 1.475-1.483.816 0 1.475.663 1.475 1.483 0 .82-.659 1.484-1.475 1.484zm74.785-3.18l.337-.064 3.506 2.573-.764.866s-2.3-2.553-3.08-3.374zm71.675 1.435a1.487 1.487 0 0 1 0-2.972c.815 0 1.475.664 1.475 1.483 0 .82-.66 1.489-1.475 1.489zm3.977-.02a1.482 1.482 0 0 1 0-2.966c.815 0 1.475.663 1.475 1.483 0 .82-.66 1.483-1.475 1.483zM35.945 114.45a1.482 1.482 0 0 1-1.475-1.488c0-.82.66-1.484 1.475-1.484.815 0 1.475.664 1.475 1.484s-.66 1.488-1.475 1.488zm150.827-1.643a1.483 1.483 0 0 1-1.475-1.489c0-.82.66-1.483 1.475-1.483.815 0 1.475.664 1.475 1.483 0 .82-.66 1.489-1.475 1.489zm-154.22-2.764v-3.276l7.206-7.022v3.163zm97.255-.983c-1.072.01-2.507-.045-4.44-.112-1.654-.057-3.484-.093-4.064-.078-2.29.063-3.039-.72-3.08-3.209-.037-2.212-.028-2.205-2.907-2.326-3.47-.147-4.388-1.043-4.435-4.339-.018-1.283-1.05-1.786-3.07-1.498-3.186.456-3.805.016-4.175-2.961-.307-2.485-.142-2.357-3.061-2.337-3.139.022-3.84-.507-3.876-2.937-.021-1.41-.363-1.834-1.576-1.944-1.297-.117-1.856-.787-1.215-1.45.117-.12.717-.194 1.663-.208 2-.029 2.66.603 3.032 2.909.26 1.6.421 1.683 3.08 1.609 3.393-.095 3.658.111 4.026 3.088.314 2.555.742 2.818 3.659 2.263 2.12-.403 3.243.538 3.519 2.938.309 2.693.428 2.792 3.437 2.899 3.015.107 3.854.64 3.88 2.462.04 2.823.396 3.08 4.103 2.967 1.8-.055 3.64-.023 4.7.087 2.246.233 2.234.245 2.458-1.924.336-3.242.808-3.54 5.072-3.224 1.78.132 1.907.049 2.029-1.314.153-1.705.78-2.757 1.263-2.113.252.336.254.368 0 2.865-.283 2.794-.315 2.815-3.938 2.535-2.455-.19-2.336-.28-2.599 1.963-.319 2.729-.27 3.357-3.485 3.389zm52.877.255v-3.595l8.419-7.862v3.484zm-26.16-4.226l-1.832-2.516.594-4.68 1.557-1.18-1.103-2.224.353-2.733.437-.251 3.057 5.967-3.618 3.2 3.708 4.547-3.503 4.747 3.636 2.57-4.368 6.466c-.757.925-.801-2.745-.801-2.745l1.809-2.755-2.024-1.756h-.004l-.007-4.36 2.11-2.297zm-2.311 2.12l-.197 5.868 1.578 1.23-1.218 2.035.083 5.199.367.253c3.036 37.214 21.153 59.203 23.988 64.19 0 0 .63.51.515 1.788-.05.555-.075 3.835-.053 7.29.114 17.64-.034 29.725-.034 29.725l13.319 14.274-.077-5.223-.654-.474.002-23.781.554-.031s.171-6.394.127-10.786l-.793-.023.048-16.34.675-.082-.038-10.588-.734.002s-.173-11.1.09-16.5l.547-.032-.037-10.524-.62-.048-.04-15.052.763-.116-.207-9.937-.622-.035c-.225-6.139-.119-16.753-.119-16.753l.713-.032-.175-9.866-.51-.034.148-17.319.465-.055-.178-10.23-.503-.046.085-8.507.346-.06.082-3.18-.368-.844-.024-11.334.28-.124.082-5.693-20.655 21 7.604.23-.005 6.787c-.002 11.2-.15 20.24.183 31.164.1.097.854.218 1.678.266 3.914.23 4.976.55 4.99 1.493.016 1.169-1.758 2.616-3.23 2.637-.334.005-.892.338-.892.338l.473 124.271 9.242 9.733-.04 3.09-11.387-12.119-.428-124.206-.432.202-.031 41.712c-5.837-8.776-9.11-17.474-12.356-26.171 0 0-1.148.398-1.195.422-.01.01.41.146.41.146 3.311 11.116 7.502 19.175 12.936 27.588l-.078 40.425c-13.916-19.765-20.643-37.54-23.438-63.16l7.042-3.538.684-.917 5.319-2.675.51.854 3.225-2.246c-2.491-4.37-2.4-10.652-.37-13.98l-.873-.546c-.06-.24-3.341 6.802.33 13.966l-2.403 1.488c-3.466-7.204-1.857-14.965-.225-16.965 0 0-2.51-1.607-4.312-2.591-1.96-1.07-3.701-2.049-6.05-2.81-1.448-.592-2.368.104-2.363.119l-.703 4.021 1.118 1.533-1.303 1.055-.593 6.158 1.399 1.421zm-121.66-1.644v-3.967l7.205-6.865v3.904zm150.13-4.249l8.42-7.77v3.231l-8.42 7.949zM35.417 96.03a1.486 1.486 0 0 1 0-2.972c.816 0 1.475.664 1.475 1.484s-.66 1.488-1.475 1.488zm143.906-2.403l-.009-36.61 2.223-.002-.103 37.059zm7.436.333a1.478 1.478 0 0 1-1.476-1.483c0-.82.66-1.484 1.476-1.484.815 0 1.475.664 1.475 1.484s-.66 1.483-1.475 1.483zM37.517 92.544a1.478 1.478 0 0 1-1.476-1.483c0-.82.66-1.488 1.476-1.488a1.486 1.486 0 0 1 0 2.971zm-3.977-.063a1.478 1.478 0 0 1-1.476-1.483c0-.82.66-1.483 1.476-1.483a1.482 1.482 0 0 1 0 2.966zm150.913-2.23a1.487 1.487 0 0 1 0-2.97c.816 0 1.475.663 1.475 1.482 0 .82-.66 1.489-1.475 1.489zm-76.01-.043c-7.693-.958-5.656-9.07-2.412-10.756 4.414-2.068 7.95 2.096 5.13 6.316-2.069 3.095-6.004 1.048-4.483-2.345.856-1.911 2.631-1.688 2.615.245-.634 1.837-.052 1.182.443.534 1.556-2.036-1.583-4.195-3.197-2.186-.99 1.233-1.198 2.697-.86 3.867.58 1.998 2.874 3.166 5.469 1.317 3.1-3.739 4.757-8.577 5.673-13.988 1.95-11.516 2.048-23.633 3.721-26.706l1.822.044c-2.649 13.18-2.662 24.462-5.488 34.853-1.4 5.15-4.97 8.816-8.434 8.805zm80.045-.063a1.483 1.483 0 0 1-1.475-1.488c0-.82.66-1.484 1.475-1.484.815 0 1.475.664 1.475 1.484s-.66 1.488-1.475 1.488zm-31.208-.204c2.028-.04 4.087-1.73 3.928-3.887-.192-2.62-1.736-3.788-4.275-3.524-1.359.14-1.322.162-2.237-1.484-.823-1.48-2.994-7.806-3.008-8.764 1.043 1.392 3.478 3.976 5.727 3.868 2.413-.176 4.445-2.476 2.62-5.734-.97-1.598-2.695-1.91-4.45-1.382-2.626-4.108-3.121-8.223-3.956-12.997 0 0-1.038 10.219-1.352 14.296-.597 6.247-1.445 10.293-3.85 15.247 2.005 1.163 4.152 2.076 6.31 2.913.858.333 1.76.338 2.61.896a3.297 3.297 0 0 0 1.933.552zm-122.026-.833a1.478 1.478 0 0 1-1.475-1.483c0-.82.66-1.488 1.475-1.488.816 0 1.476.668 1.476 1.488s-.66 1.483-1.476 1.483zm117.87-3.277c-1.519-2.484-3.001-6.068-3.132-8.326-.052-1.493.242-3.328.493-5.042.125-.848.444-.021 1.02 1.81 2.39 7.603 3.022 9.058 4.684 8.678.946-.216 1.93-.253 2.575.105 2.106 1.168 2.3 5.085-.776 5.833-2.43.532-3.995-1.638-4.863-3.058zm.055 1.89c-3.064-1.214-5.021-3.044-4.463-6.022.246-1.12.41-2.043.709-1.924.345.138.82 1.482 1.771 3.793.216.748 2.4 4.137 1.983 4.153zm-50.72-.13c-.162.024-.416-.13-.762-.455-2.417-2.392-1.105-7.784 2.112-9.337 1.325-.917 3.764-.767 3.776.12.005.344-.072.437-.41.442-2.708-.021-5.586 3.762-4.789 7.79.099.607.281 1.41.073 1.44zm84.236-1.31a1.478 1.478 0 0 1-1.475-1.483c0-.82.66-1.488 1.475-1.488a1.487 1.487 0 0 1 0 2.972zm-86.776-.455c-.17.026-.756-.228-1.145-.7-2.276-2.758-.428-7.457 3.15-9.068 1.367-.743 2.518-.23 2.228.535-2.438 1.017-4.738 3.648-4.497 7.247.093 1.262.512 1.948.264 1.986zm48.252-.501l-.827-.395.341-.721c.16.431.157.599.486 1.116zm-50.84-.299c-.182.004-.588.065-.972-.31-1.472-1.438-1.704-5.47-.29-7.463.663-.935 2.721-2.633 3.334-2.804.716-.088 1.213-.195 2.402.349.4.013-.178.392-.929.828-2.665 1.546-4.433 4.307-3.97 6.898.287 1.603.77 2.494.425 2.502zm-2.7-1.3c-.706-.061-1.253-.685-1.588-1.215-1.75-2.526-.296-7.841 3.284-8.943 2.385-.734 3.273-.04 1.342 1.093-2.773 1.627-4.212 4.807-3.41 7.332.384 1.207.748 1.707.372 1.732zm-2.887-1.85c-.835-.012-1.48-.655-1.774-1.317-.69-1.632-.583-3.918.317-5.526.897-1.604 2.613-2.938 4.518-3.134.499-.046.93.028 1.306.191.838.363.55.417-1.026 1.246-2.511 1.32-3.995 4.065-3.615 7.096.143 1.138.598 1.44.274 1.443zm90.94.552V78.51l8.195-7.779v3.826zm-69.634-.507c-.156-.163-1.083-2.385-1.198-2.844 1.919-2.776 2.461-7.332 2.759-10.784 1.083-9.783 2.208-21.596 2.7-21.704l2.134-.048c-.813-.545-1.856 16.222-3.51 26.845-.127.833-1.899 9.03-2.885 8.535zm-24.794-1.735c-2.815-1.915-1.312-7.894 2.602-9.372 1.421-.55 1.943-.62 2.586.01.406.395.793.53-.24.896-2.894.76-4.937 3.477-4.449 6.633.058.767.776 2.795-.5 1.833zm22.77-1.655l-1.28-.828c1.38-4.14 1.89-9.02 2.455-13.746.683-5.716 1.285-11.6 2.113-17.213l1.959-.07c-1.022 3.468-1.494 13.155-2.507 21.271-.59 4.108-1.234 9.758-2.74 10.586zm-2.222-1.353l-1.642-.956c.58-2.31 1.267-4.841 1.606-7.264.754-5.386 1.05-11.92 2.784-21.973l1.775-.15c-.447 3.228-1.293 10.42-2.015 17.036-.838 7.683-2.154 13.494-2.508 13.307zm73.88.26v-3.846l8.195-7.587v3.542zm-76.657-1.475s-1.412-.8-1.59-.894c1.065-4.244 1.586-8.188 2.111-12.036.709-5.189 1.235-10.238 2.212-15.941l1.893-.12c-.942 4.374-2.02 14.65-2.868 21.896-.492 4.207-1.51 7.177-1.758 7.095zm45.118-8.638c-.025-2.9.607-7.393.607-7.393.249-.144 1.023 6.581 3.725 9.623 3.29-1.575 6.13 2.12 3.886 4.662-4.38 3.788-8.217-4.302-8.218-6.892zm-47.586 7.481l-2.29-1.062c.282.049.822-1.538 1.348-4.013 1.605-7.54 3.197-22.402 3.457-22.396l1.767-.147c-.572 3.992-1.358 10.298-2.18 15.878-.933 6.32-1.802 11.708-2.102 11.74zm-3.183-1.445l-1.74-1.052c.151.11.78-1.762 1.086-3.065 1.567-7.522 2.274-14.117 3.243-21.413l1.898-.248c.142-.21-1.638 14.359-3.107 21.717-.502 2.514-1.24 4.145-1.38 4.06zm-2.713-1.308l-1.866-.928c2.028-5.771 2.216-11.293 4.16-22.878l1.971-.358c-.793 7.416-1.919 15.382-3.535 22.641-.223.975-.71 1.501-.73 1.523zm-2.667-1.356l-2.1-.847 4.395-21.27 1.771-.24c-1.103 6.132-1.674 13.222-3.161 18.81-.315 1.185-.492 2.516-.905 3.547zm91.386-3.369a1.482 1.482 0 0 1 0-2.966c.815 0 1.475.663 1.475 1.483 0 .82-.66 1.483-1.475 1.483zm-1.929-3.48a1.487 1.487 0 0 1 0-2.972c.816 0 1.475.664 1.475 1.484s-.66 1.488-1.475 1.488zm3.842-.092a1.487 1.487 0 0 1 0-2.971c.816 0 1.475.667 1.475 1.487 0 .82-.66 1.484-1.475 1.484zm-1.841-3.423a1.483 1.483 0 0 1-1.475-1.488c0-.82.66-1.483 1.475-1.483a1.487 1.487 0 0 1 0 2.971zm-13.35-4.956l17.701-18.031.055 3.603-12.133 11.98 12.227.187-.028 2.44zm8.113-3.438l9.485-9.103.08 9.257zm-10.131-.665s.052-.333-.839-1.9c-2.587-4.523-3.185-8.702-5.473-13.55-1.138-2.651-3.702-5.33-4.275-5.481l2.849-5.242-80.392.169 12.87 22.588c20.424-3.802 38.775-3.135 56.025-.096.988-1.336 2.072-4.055 3.111-6.02 2.576 6.97 10.815 11.47 16.124 9.532zm-2.926-.606c-4.248.061-7.79-1.97-10.933-6.278-1-1.372-1.39-1.992-1.386-2.568.106-.666 1.423-2.797 1.423-2.797s.764 2.115.946 3.14c1.142-4.23 1.597.671 2.036 1.964 1.394-4.086 2.145 1.53 2.075 3.045 1.896-2.62 1.774 1.684 2.699 2.483.023-2.27 1.35-.717 3.071-.233-.9-1.269-2.652-2.121-.414-2.401-2.232-1.55-3.35-1.313-1.184-2.168-1.67-.926-4.418-2.04-1.379-2.65-1.857-1.177-4.843-1.671-1.632-2.796-2.425-1.492-5.654-1.385-1.113-2.583-1.645-.968-4.545-1.33-1.3-2.17-.502-.226-1.37-.813-1.37-.813l1.402-2.227s.505.041.85.404c1.489 1.563 2.937 4.44 4.235 8.473.954 2.966 2.09 6.1 3.343 8.701.676 1.376.613 1.445-1.37 1.474zM96.363 45.58l-11.11-19.117 2.636-.04L97.7 42.79l13.234-1.503-4.358-14.632 3.933-.108 3.905 14.394c7.388-.3 14.437-.383 20.581.113l2.082-14.602 3.753.126-2.377 14.453 12.419 1.597 6.737-16.21 3.88-.074c-2.505 4.247-8.758 17.964-9.926 19.315-27.053-4.354-41.1-2.007-55.199-.078zm2.596-4.432l-8.411-14.706 13.513-.062 4.539 13.617zm50.56-.43c-2.666-.782-5.535-.952-8.425-1.059l2.457-13.158 11.974.025zm-33.705-1.55l-3.177-12.777 22.54-.117-1.86 12.738c-5.915-.356-11.695-.028-17.503.157z"/><path d="M163.154 278.722c9.774-.212 14.157-11.217 6.918-19.763-1.05-1.247-1.158-1.962.765-.765 4.873 3.26 14.219 1.117 14.697-8.847.592-12.277-16.563-15.814-19.783-2.76-.17 1.378-1.29 1.346-1.02-.609.294-5.306 1.95-10.266 4.229-15.102h-11.62c2.277 4.836 3.934 9.796 4.228 15.102.27 1.955-.85 1.987-1.02.61-3.22-13.055-20.374-9.518-19.783 2.759.478 9.964 9.824 12.106 14.698 8.847 1.923-1.197 1.814-.482.764.765-7.239 8.546-2.856 19.55 6.919 19.763h.01zM60.083 33.09C69.857 33.3 74.24 44.305 67 52.851c-1.05 1.247-1.158 1.962.765.765 4.874-3.26 14.219-1.117 14.698 8.847.59 12.277-16.563 15.814-19.784 2.76-.17-1.378-1.29-1.346-1.02.609.294 5.306 1.951 10.266 4.229 15.102h-11.62c2.277-4.836 3.935-9.796 4.228-15.102.27-1.955-.85-1.987-1.02-.61-3.22 13.055-20.374 9.518-19.783-2.759.479-9.964 9.824-12.106 14.698-8.847 1.923 1.197 1.814.482.765-.765-7.24-8.546-2.857-19.55 6.918-19.763h.01z"/></svg>