<svg xmlns="http://www.w3.org/2000/svg" width="238.11" height="332.599" viewBox="0 0 223.22771 311.81164"><g transform="matrix(.99553 0 0 .9968 -3353.968 30.846)"><rect ry="10.664" rx="10.678" width="223.228" height="311.811" x="3369.511" y="-30.445" fill="#fff" stroke="#000" stroke-width="1.001"/><path d="M3509.96-4.153s25.354 36.738 33.953 43.258c.632.298 11.233-1.732 11.233-1.732-5.433-13.04-8.928-26.531-5.402-41.657zm14.089 58.102c-17.48 4.946-34.925 9.597-53.874 1.535l-20.693 20.042c-.172.517 24.999 11.418 25.423 10.142-12.34 33.292 6.9 39.337 19.148 2.716 16.034-2.105 35.27-4.285 51.167-15.349-13.761-8.291-21.186-19.185-21.171-19.086zm-105.13 5.927c-6.625-4.076-11.803 4.312-6.952 8.5-.57 2.447-.764 6.088 1.597 7.688 2.17 1.375 6.217-.051 6.801-.036.042 0 .105 4.404-.232 4.392-.628-.02-2.997-2.044-4.458-2.483-4.938-1.484-11.883-2.216-11.76-1.96.206.428-1.23 1.443 4.28 4.911 2.047 1.288 8.513-.163 13.662 1.466 3.138.992 5.956 2.575 7.66 1.753 4.492-1.23 6.248-7.114 5.94-7.07-.15-.178-13.583 3.464-12.32 4.103l-.04-5.108c5.298.585 10.08-3.265 4.873-9.864 3.878-3.865-1.547-13.074-9.051-6.292zm22.074 23.363c-13.031 13.169-39.668 37.882-39.668 37.882l.285 18.445 26.023 23.344c2.061-24.78 16.109-47.908 29.484-59.478 1.228-3.519-13.291-18.958-16.124-20.193zm92.845 4.556c-1.963 15.237-3.748 36.016-29.534 59.113 4.468 7.629 10.156 15.393 18.34 19.098.582 1.31 23.659-23.938 37.855-35.876l-.075-16.17zm-116.217 3.27c-.054.332-1.006 4.335-1.251 4.229.019.218 2.64-.976 2.937-2.074.26-.962.86-2.266.9-2.45-.591-4.12-1.709-1.194-2.586.295zm-9.653 10.653c-.937 2.268-1.813 6.433-1.49 9.144 4.617 2.317 5.871-7.32 4.63-8.24-.744-.315-2.507-.926-3.14-.904zm142.574 44.182c-.428 1.922-.338 2.492.516 2.867 1.494.657 2.166-.136 3.366-3.266.714-1.863 1.35-4.666.774-5.78-2.832-1.981-4.328 4.728-4.656 6.18zm-80.74 16.17c-18.948 3.01-37.908 4.866-52.955 16.633 1.695-.2 19.932 16.969 20.876 19.384 27.87-13.648 54.94-3.339 54.94-3.339l20.396-19.706c.786-.373-22.184-9.859-26.511-11.458 15.643-42.21-9.13-35.867-16.747-1.514zm74.585-4.82c-1.239 1.002-1.862 1.91-2.827 3.209l.973 1.577 2.493-2.756zm-17.849 17.761c2.627-1.188 11.95-5.718 12.35-4.67l-.198 4.535c-1.426-.468-10.63 1.057-5.307 10.582-3.353 7.567 4.118 11.469 9.351 6.466 10.969 3.772 9.5-7.23 7.237-9.007 1.784-2.778-.458-8.692-1.574-8.712 0 0 9.572 2.163 8.636.455-.427-.78-.962-2.124-3.089-3.548-2.451-1.64-6.758-1.045-10.244-1.776-3.727-.782-6.126-2.118-9.258-2.306-4.727.431-9.139 4.591-7.904 7.981zm-106.666 35.71l-13.187 3.533s4.265 9.924 5.741 18.772c1.806 10.824.363 22.593.363 22.593l38.276.194z" fill="#e2cf00"/><path d="M3454.241 255.678c-16.794-24.03-32.355-46.887-53.016-72.079 0 0 .017-9.737.09-19.394l63.471 91.236zm34-38.797c-.542-4.564-1.469-10.026-2.802-14.727l11.589-10.953c-1.25 9.788-3.17 17.297-8.787 25.68zm55.385-34.525c2.594 3.453-1.783 5.37-3.435 3.834-3.351-3.116 1.557-6.335 3.436-3.834zM3428.72 160.61c-1.923 1.235 3.456-30.113 18.22-46.315 8.98 25.787-6.864 40.244-18.22 46.315zm72.839-.116l-9.806-2.653 4.617-13.748s9.472 2.163 8.687 5.017c-2.556 9.293-3.498 11.384-3.498 11.384zm-45.393-5.285c2.655-4.376 4.671-9.2 6.527-14.137l9.823-.206-4.936 13.625zm59.098-19.291c-7.589-15.148 1.352-39.124 17.864-45.724-.595 15.362-5.35 30.922-17.864 45.724zm-51.007-4.304c.334-5.38-.28-11.019-1.023-16.016 10.467 2.418 21.877 4.036 34.515 4.612l1.206 14.503c-11.224-2.061-22.644-3.534-34.698-3.1zm25.07-22.1c1.118-4.496 2.55-8.898 4.501-13.144l11.96-.559c-.062-.234-5.103 7.978-6.31 13.905-1.905-.202-10.15-.201-10.15-.201zm-22.674-3.584c-3.49-1.235-8.263-1.58-10.12-4.286l3.631-11.534 10.754 3.307zm30.18-110.055l8.427-.08s40.494 51.941 55.671 72.154c-.505 2.058.17 19.494.17 19.494-21.498-30.328-64.269-91.568-64.269-91.568zm-77.654 72.474c-2.265-2.437 1.337-4.596 2.834-2.419 1.319 1.918-1.64 3.704-2.834 2.419zm45.436-8.517c.131-12.036 8.646-26.321 8.557-25.956-.099-.024 1.214 11.767 2.85 15.477-.441.654-11.004 11.234-11.407 10.48z" fill="#d40000"/><path d="M3399.491-6.117v263.155h163.269V-6.117zm149.534 1.999c-1.328 14.572-1.56 25.84 5.982 40.952-1.362 1.432-11.625 1.838-14.86 3.534-.058.407.831 1.111.831 1.111 3.384-1.574 16.577-3.01 16.577-3.01-5.525-9.654-10.07-28.345-6.649-42.587h9.903v70.32s.116 13.366.399 20.997c-5.07-6.568-11.602-15.565-15.993-22.376-5.327-7.512-11.257-16.324-17.346-24.592-1.796-2.604-4.355-5.984-6.444-9.027-3.28-4.7-5.991-8.346-9.392-13.405-3.632-5.238-7.114-9.992-11.43-16.074-3.66-5.177-3.83-5.843-3.83-5.843zm-62.54 0c6.173 10.754 17.222 14.517 20.002 15.242l1.617 2.368c-13.028-2.56-20.004-10.944-23.28-16.128-.255-.404-.226-1.482-.226-1.482zm-6.11 0c-1.708 4.06-4.097 6.515-6.362 8.974l.078-2.611c.07.163 3.39-3.652 4.534-6.363zm2.989 0s.05.815-.157 1.385c-1.308 4.234-9.43 12.27-9.196 11.067l-.083-2.074c-.036.09 6.1-5.978 7.708-10.378zm-5.907 0c-.633 1.182-2.994 4.873-3.208 3.884l.21-3.884zm18.556 0c1.024 1.485 1.953 2.692 3.03 4.21.2.29.321.632.27.763-.163.422-.649.108-1.993-1.086a32.83 32.83 0 0 1-3.706-3.887zm-8.214 0h1.995c4.131 6.878 11.544 10.664 14.11 11.464.684.757 1.422 2.14 1.709 2.446-6.919-1.879-14.67-7.863-17.814-13.91zm4.851 0c2.2 3.183 5.648 5.506 7.59 7.03 1.044.82 2.423 2.496 2.295 2.829-4.326-1.37-9.384-6.298-11.705-9.859zm-8.48 2.061l1.203 1.919c-2.913 4.814-6.566 9.151-11.437 12.57l-.026-2.514c5.528-3.991 7.917-8.001 10.26-11.975zm1.95 2.78c3.473 4.69 10.957 11.948 22.959 14.117 0 0 .681.617 1.675 1.974 1.262 1.721 1.282 1.79 1.448 4.61.112 5.164 1.785 12.171 3.447 16.58-.206 1.096-.398 1.654-2.46 4.445-8.59 11.632-26.892 22.634-35.908 7.618-3.007-4.81-3.3-14.034-3.49-19.785 0 0 .057-.405.079-.514.217-1.044.514-.88 2.142-.433 1.65.71 3.368.137 5.115-.34 1.988-.804 2.153-.184.236 1.61-.663.62-1.475 1.57-1.39 1.524.085-.046 1.201-.503 1.694-.879 1.532-1.17 1.895-.721 1.327.566-2.41 5.458-2.837 5.676.552 7.192.706.316 1.188.67 1.584 1.016 2.317 2.186 1.485 1.008.837.005-.996-1.57-.096-2.401 1.587-1.428 1.125.65 2.602 1.174 3.405.925 1.559-.509 2.035-2.22 1.572-4.104-.37-1.042-2.5-2.883-2.009-.957 1.28-.057 2.386 1.763 1.273 2.995-.84 1.135-2.337.522-4.633-1-1.269-.956-2.81-.467-2.75.709.04.79-1.075.608-1.8-.398-.402-.559-.13-2.167.627-3.69 4.76-9.596.747-18.9-7.498-16.277-.906.288-1.724.522-1.724.522l-.045-3.67c4.734-3.307 9.755-8.58 12.148-12.932zm4.814 17.226c-1.243 1.505-.803 2.844 1.927 1.495 2.222-1.098 2.53-1.227 4.953-1.315 3.437-.125 6.522.972 10.34 3.32 2.531 1.556 2.9 1.674 2.213.699-2.044-3.922-14.126-9.875-19.433-4.199zm-11.675.45c2.386.602 4.676 2.182 4.277 2.836-.143.236-.282.28-.586.122-1.745-.865-4.527-2.278-8.55-.554-.443.19-.689-.104-.687-.64 0-1.04 1.751-1.872 3.597-1.939.657 0 1.373.033 1.95.174zm13.86 3.041c-1.422.741-1.91 1.136-2.514.805-1.444-.791-1.139-.17-.242 1.422.632 1.123.626 1.354.532 2.043-.102.748-.087.777.64 1.577 1.357 1.788 2.707 3.513 4.74 4.87.633.423 1.48.904 1.543.906.203.006.125-.156-.237-.51-2.603-2.51-4.655-4.759-2.005-3.803 3.086 1.008 6.021-.248 8.428-1.069.98-.303 2.012-.559 2.267-.559 2.223.003 2.748-.925 1.327-2.339-4.808-5.405-8.798-6.677-14.479-3.343zm11.41 1.013c.994.92 1.517 1.42 1.418 1.66-.107.257-.872-.178-2.154-.864-2.58-1.379-5.505-1.703-9.16-.645-2.838.821-2-.482 1.162-1.709 2.531-1.17 6.024-.82 8.733 1.558zm-26.496-1.861c2.167-.035 4.425.678 5.934 1.983 1.053.91.283 1.122-1.428.412-2.589-1.073-4.77-1.244-6.894-.247-.667.313-1.436.685-1.646.665-.355-.241-.506-.941-.199-1.437.854-.84 2.547-1.35 4.233-1.376zm35.723.745c.16.007.399.26.755.762.649.913.673 1.363.136 2.96-.656 1.951-.92 1.635-1.085-1.086-.107-1.766-.11-2.649.194-2.636zm2.15 2.941c.247-.035.535.402.997 1.306.322.63.246.82-.76 3.77a36.677 36.677 0 0 1-.828 2.229c-.31.244-.27.222-.402.053-.717-.919-.666-2.71-.048-4.858.468-1.628.723-2.455 1.041-2.5zm-19.53.224c.078-.007.558.098.558.098-.05 4.372 3.323 3.492 3.77.387 0 0 .832-.086.96.121.399.65-.53 2.52-1.918 3.133-1.013.453-2.39.343-3.212-.417-.23-.427-.928-2.052-.798-2.726.163-.393.405-.576.64-.596zm-2.01.51a.986.986 0 0 1 .102 0c.33.017.571.107.702.509l.723 2.22c-.532.638-2.552-.653-2.548-1.622 0-.67.504-1.081 1.021-1.107zm-13.714-.004c.51-.05.69.007.749.484.172 1.443-1.268 3.012-3.135 3.097-1.808.202-2.783-1.203-2.728-2.573 0-1.042.899-1.172.998-.349.287 2.378 2.313 2.514 3.239 1.202.35-.515.27-1.782.877-1.861zm22.192.484c.143-.006.336.048.62.145 1.863.597 1.913.885.319 1.461-1.902.687-2.025.777-1.578-.553.249-.742.322-1.04.639-1.053zm-19.76.21c1.382.085 1.498 1.257.283 1.648-1.81.801-2.42.749-1.718-.432.38-.837.72-1.2 1.435-1.217zm-8.645.42c.165-.001.354.063.557.214.208.629.56 1.112.838 1.762-.284.282-.96.278-1.392-.065-.866-.688-.717-1.904 0-1.91zm43.447 1.355c.536.003 1.082.855 1.26 1.49-1.875 2.415-1.58 6.923-2.016 8.284-.378 1.107-.5.151-1.543-2.717-.42-1.158 1.702-6.915 2.192-7.043a.414.414 0 0 1 .107-.014zm1.917 2.475c.417.239.984.787 1.084 1.65.058.5-.189 1.166-.348 1.825-.379 1.565-.89 4.523-1.075 7.256-.078 1.163-.074 2.209-.126 2.31-.564 1.108-1.753-1.874-1.652-4.247.37-1.895.577-8.534 2.117-8.794zm2.648 3.407c.265.369.433.651.515.97.142.553.023 1.213-.302 2.621-.86 3.733-.735 7.756-.174 11.886.118.87-.484.434-1.394-1.063-.505-.83-.828-1.967-.983-3.31-.317-2.935.294-6.915.814-10.055.23-1.39.391-2.614 1.524-1.05zm1.428 2.271l1.506 1.82s-.643 4.184-.639 6.416c-.105.836.748 9.928 1.026 10.663-.925-1.039-1.358-1.65-2.372-2.955-.115.019-.994-8.958-.387-12.391.366-2.077.866-3.553.866-3.553zm2.363 3.616c.253-.01.574.276.978.845.364.512.542.933.561 1.572.014.465-.215.825-.222 1.655-.043 4.945.624 9.613 1.463 14.113.296 1.61-.28.953-1.232-.066-.874-.932-.89-1.287-1.356-2.613-.093-.264-1.022-9.384-1.014-10.074.033-2.834.113-4.412.44-5.092.106-.222.23-.334.382-.34zm-5.472 9.937s-1.753.905-2.212.587c-.74-2.023-3.41-7.44-3.457-8.4.047-.315 1.095-1.74 1.095-1.74 1.475 3.209 2.803 6.492 4.574 9.553zm-32.99-6.506c-.528.622-1.158.363-2.433-.198-.653-.201-.552.068-1.632.63-.837.437-1.131.448-1.686.443-.731-.006-.995-.263-.997.252 0 .286-.044 1.575-.217 2.242-.235.907-.44 1.307-.31 1.465.371.341.684.133 1.468-.627 1.302-1.26 2.18-.899 3.63-.43 1.648.533 1.99.729 3.497.2 2.137-.748 3.423-.749 4.274-.206 1.466.936 1.908.881 1.304-1.678-.194-.825-.208-2.104-.328-2.326-.136-.25-.508.465-.899.729-.745.503-1.13.493-2.812-.059-.996-.327-2.113-1.397-2.858-.437zm27.042.334c.651 1.537 3.24 6.673 3.162 7.247-.504.454-1.18.785-1.58.379-1.295-2.369-1.683-3.645-2.735-6.303-.314-.636.625-2.255 1.153-1.323zm13.909-.189c.183-.025.566.357.851.739.887 1.189.94 1.336.969 2.61.102 4.622.681 10.06 1.98 14.255.255.826.74 1.83.687 1.966-.435.636-2.455-1.068-3.064-3.66-.84-3.29-1.333-6.725-1.6-8.96-.339-3.931-.337-6.745.177-6.95zm-15.537 2.549c.747 1.442 1.686 3.93 2.32 5.424.288.648-1.188 1.16-1.527.939-.59-.441-.868-1.683-1.255-2.427-1.231-2.698-1.453-2.755-.77-3.596.42-.584.921-1.3 1.232-.34zm18.46 1.655c.109 0 .25.106.427.335.778.922 1.307 1.627 1.51 2.31.148.496.03.868.082 1.767.14 2.354.756 5.567 2.503 12.143.17.641.402 1.4.373 1.606-.169 1.208-1.936-.75-2.45-2.771-.596-2.295-1.684-5.225-2.004-7.935-.66-4.302-1.026-7.455-.44-7.455zm-20.015 1.739c1.469 3.436 1.585 3.43.66 3.702-.978.287-1.037.193-2.185-2.147-.838-1.707-1.004-1.921-.299-2.537 1.076-1.27 1.358-.059 1.824.982zm-20.458-.82c-.167.003-.66.377-1.154.574-1.214.481-3.369.514-4.682.118-2.328-.937-1.672.28.387 1.02 1.598.538 4.762.12 5.253-.878.302-.319.41-.838.196-.834zm17.697 1.807c1.312 2.032 1.706 2.843 1.484 3.001-.21.21-1.248.603-1.675.393-.536-.263-1.003-1.518-1.238-2.501.164-.48 1.026-1.342 1.43-.893zm-32.846.856c.586.002 2.11 2.056 1.801 2.426-.086.19-.657.01-1.992-.361-.446-.165-1.454-.297-1.135-.945.159-.294 1.093-1.121 1.326-1.12zm31.44 2.815c-.131.35-1.12.433-1.54.407-.361-.753-.456-1.112-.556-1.61.136-.3.813-1.075 1.147-.923.2.179.847 1.755.949 2.126zm27.281-1.98c.21.007.571.374 1.109 1.145 1.016 1.456.878 1.35 1.607 4.83.828 3.944 1.818 6.754 2.818 10.783.014.669-.257.491-.998.04-1.21-.74-1.608-1.56-1.99-3.7-.65-3.532-2.024-6.8-2.55-10.973-.28-1.38-.302-2.136 0-2.125zm-30.497 1.409c.715-.024.619 1.08.414 1.258-.522.456-1.961.32-2.209.346-.552-.87 1.33-1.575 1.795-1.604zm34.128 3.755c.21.029.774.827 1.83 2.315 1.014 1.429.792 1.195 1.4 3.547.858 3.25 2.28 5.595 3.112 8.586 0 .342-.414.298-.808.136-.769-.323-1.455-.868-2.106-1.403-.446-.482-.442-1.094-1.758-5.63-.474-1.636-.598-2.061-1.19-4.547-.496-2.079-.718-3.037-.48-3.004zm-109.978 9.71c3.45 6.362 2.173 9.184-5.246 10.065-.536-.075-.03 3.26-.045 4.75 3.717-2.131 8.211-2.63 12.354-3.968-1.128 3.62-3.108 7.724-9.104 7.092-6.268-4.855-13.645-1.938-18.65-3.909-2.723-1.017-3.763-4.048-3.795-4.568 3.265.328 6.95 1.029 10.115.8-3.456-2.67-2.446-6.362-1.958-8.05-4.044-5.112-.668-10.862 5.205-9.525.607.138 1.806.73 1.806.73 5.665-5.085 12.232-.308 9.318 6.583zm114.63-3.095c.235-.023.753.591 1.792 2.048 3.08 4.32 5.748 8.34 5.708 8.566-.133.744-3.344-.56-4.154-1.626-.923-1.214-3.519-7.466-3.515-8.46 0-.33.047-.517.17-.528zm-125.468 18.506c1.603.236 2.05.371 2.033 1 .137.533-3.889.604-4.434.208-.436-.316.126-1.008.556-1.174.624-.189 1.242-.123 1.845-.034zm110.983.572c-22.493 10.65-31.695 38.977-20.341 60.684l-1.563 1.132c-11.132-22.951-2.85-47.545 15.235-59.966.732-.521 2.352-.924 3.105-1.425 0 0-7.378 1.688-9.875 2.667-.507-.017-1.995.509-3.594 2.247-1.398 1.298-5.768 7.338-5.628 7.548l-11.613.469.01.43 11.398-.264c-11.737 19.372-8.853 37.804-1.607 50.704l.18.12c.42.284 1.53-.529 3.829-2.713.947-.9 2.14-2.017 2.653-2.485 1.421-1.305 3.446-3.557 4.837-5.183-7.892-16.125-.107-37.362 18.36-46.933.032-.51-.197-2.065-.197-2.065s-.698-.628-1.11-.564c-20.574 9.085-28.817 31.646-20.452 52.162l-1.38 1.506c-10.51-21.246.772-47.801 20.445-55.324-.01-.48-.435-1.093-.964-.724-21.24 9.885-30.495 35.128-20.091 56.644l-1.31 1.161c-11.837-23.558.634-49.958 20.187-58.978.576-.134-.514-.85-.514-.85zm-114.48.22s-.15 1.255.292 1.683c.203.895-.121.798-.881.616-1.87-.447-.412.62 1.118 1.48 1.507.848 1.305.82-.01 1.655-.883.562-.792.773-.673 1.2.176.632.297.21.663-.127.77-.709 1.384-.886 2.068-.883 1.026.004 1.13.828.949 1.47-.409 1.349-1.794 1.277-2.93.942-1.857-.549-4.892-3.78-4.845-5.681-.13-1.704 2.196-2.433 4.248-2.355zm8.353.416c.72.265 1.627.62 2.624 1.039 1.377.438 2.773 1.152 3.673 1.754 2.74 1.831 2.573 5.494 2.375 5.858l-14.159 13.452s-.8-.392-1.553-.777c-2.38-1.218-2.952-1.86-1.631-2.534.64-.327.847-1.03.94-1.718.122-.921.074-.764.624-1.184.956-.73 1.002-1.032 1.007-2.247 0-.804.086-1.174.377-1.68.232-.4.476-1.237.64-2.198.026-.158.034-.552.065-.69.168-.753.405-.974.564-1.145.159-.17.414-.75.59-1.252.396-1.12.322-.954.96-.83.926.18.793.723.692 1.583-.05.417-.327.71-.233.616.127-.126.696-.395.814-.422.296-.068.592.034.668.5.042.259-.07.737-.063 1.106.019.957.058 2.104.276 2.859 1.05 3.637.842 3.133.484.107-.086-.725-.187-1.789-.082-2.675.073-.624.252-1.397.494-1.82.621-1.085.655-1.3-.693-1.834-.5-.199-1.353-.547-1.53-.893-.215-.425-.857-1.002-1.694-1.199-2.034-.48-3.218-2.45-2.924-2.742.192-.192 1.012.059 1.53.077 1.857.067 2.251-.029 3.074-.737.438-.377.635-.713.983-.737.368-.008.837.267 1.109.363zm96.374 2.18c-19.021 15.426-22.355 40.381-12.866 59.638l-1.642 1.293c-11.925-22.588-3.915-46.954 10.735-60.28zm-109.814 1.839c.336-.032.703.462 2.038 1.892.9.964 1.837 1.801 2.33 2.083 1.116.536.872.313-.059 1.198-.952 1.095-.426 1.995-1.564 1.447-2.96-1.393-5.037-5.496-3.113-6.484.146-.075.256-.126.368-.136zm-1.472 4.314a.738.738 0 0 1 .228.025c.365.089.808.777 1.283 1.257 1.315 1.327 1.926 1.916 2.977 2.383 1.034.458 1.062.57.334 1.378a2.456 2.456 0 0 0-.484.844c-.062.197-.078.448-.3.49-1.152.222-4.981-2.106-5.132-3.712.124-1.503.502-2.62 1.095-2.665zm8.115.447c.664-.017 1.054.576 1.05 1.538 0 .667-.377.938-1.138 1.223-1.626.61-2.628-.556-1.49-1.844.477-.541 1.123-.905 1.578-.917zm-.993 3.916c1.227.005 1.582 1.042.683 1.937-.845.84-2.55.845-2.547-.078 0-.723 1.083-1.862 1.864-1.859zm-7.606 1.241c.83.246 2.85 1.705 3.738 1.877.047.492-.544.626.295 1.551.381.42.413.707.082.884-1.013.541-4.524-1.17-4.759-2.932-.114-.86.171-1.349.643-1.38zm4.58 2.108c1.208.05 2.574.087 2.43.665-.104.42-.536 1.528-1.089 1.32-.268-.1-.53-.369-.716-.548-.645-.62-.816-1.445-.625-1.437zm45.676 5.013c3.518 3.193 16.3 36.55-10.337 60.853l-5.652 1.697c25.575-20.13 21.32-48.71 14.419-61.04 0-.362-.1-.32-.737.257-.557.506-.616.616-.392.71 7.8 12.03 10.714 46.011-20.014 62.409-.516.536.528.454.528.454.054-.44 13.836-3.798 12.863-3.883 12.846-11.382 24.03-38.528 10.107-62.189-.336-.221-.785.732-.785.732zm-4.437 3.777l-.18.752c11.15 21.942.508 48.825-20.217 58.774.342.251.72.424 1.1.603 23.511-12.69 30.29-39.55 20.034-60.354zm-1.864 1.556l-.13.796c9.23 18.675 1.903 44.59-20.126 55.102-.209 1.13 0 .8 1.034.746 25.488-13.702 27.884-39.76 19.91-56.682zm-1.583 2.24c-.72.953-2.038 1.447-2.476 2.675 7.405 19.618-2.165 38.503-18.366 46.464-.013.987-.72 3.43.996 3.04 20.015-9.09 28.723-33.25 19.972-52.268 0 0-.114.084-.126.088zm100.537 37.93c.737.052 1.397.276 2.081.366 2.486.323 4.1 2.14 2.988 3.245-.365.363-.875.154-2.49-.638-.742-.364-.861-.705-1.015-1.525-.184-.984-.38-1.084-.63-.32-.251.77-.523 1.25-1.371 1.054-2.384-.555-1.483-2.2.437-2.181zm-26.595 16.703c-5.97-3.396-13.343-9.52-17.557-16.479-2.096 3.942-4.557 11.114-4.557 11.114l-9.371-2.624-.11.196 9.261 2.675-.902 3.098c-.098.335-1.532 3.861-1.532 3.861l14.466 6.768c-.896 1.406-1.874 2.315-3.117 3.626-.702.74-.722 1.698-.722 1.698l20.057-19.179s2.587 3.847 3.55 4.719c.902.818 1.183 1.016.13 1.26-4.713.693-8.37 4.27-7.095 9.068.206.534.621.337 1.515-.226 3.129-2.84 10.776-5.47 11.037-4.803l.03 3.056c-8.233.12-7.389 6.187-6.786 9.442 0 .07-2.381 2.156-2.381 2.156.842.443 1.666.901 2.445 1.446-.724 4.048 2.716 9.915 9.474 6.912a39.66 39.66 0 0 1 1.78 1.959c.692-.803 1.49-2.694 1.49-2.694 3.357 1.523 10.322-1.886 6.76-9.693l1.963-1.878-1.886-1.192c-.05-1.985-.356-3.759-1.538-5.488 0 0 3.17.81 5.514.946 1.448.132 2.67.169 2.548-.71-.036-.257-.253-1.52-.394-1.935-.7-2.045-4.328-3.546-7.851-3.745-.575-.032-1.194-.014-1.317-.164-.23-.28.183-.678.562-.612 1.93.336 3.785-1.094 4.12-2.912.066-.32.46-.903 1.026-1.524 1.004-1.102 1.083-1.073 1.064-2.665-.013-1.106.18-1.35.689-2.092a5.125 5.125 0 0 0 .63-3.86c-.104-.452-.53-1.09-.167-2.217.592-1.831-.708-3.506-2.413-4.46-.136-.04-.095.094-.208.23-1.547.482-3.43-.628-3.43-.628-.389-.192 1.317-10.127 4.85-9.24.588.358.837 2.085.792 2.115.163-.004.25-1.016.022-1.692-.24-.708-.788-1.383-1.842-1.183-.817.155-1.76 1.242-2.188 1.788-1.65 2.109-1.67 3.455-2.22 5.698-.266 1.06-.295 1-1.759-.147-1.05-.824-1.56-1.087-1.194-1.57.164-.216.845-.902.845-.902l13.384-12.34v123.989h-72.931l.506-16.296c1.357-11.166-1.03-34.614-2.838-36.82 1.394-1.57 5.718-5.353 5.48-5.524l-.573-.34-2.287 2.108-5.646-1.714c-2.408-1.667-4.866-3.21-7.416-3.865-4.163-1.072-12.182 2.342-12.19 2.377-12.81.95-23.069 6.166-22.925 6.126-.558-.513-1.296-2.153-1.316-2.143-6.603-9.213-13.095-14.373-21.964-20.67l11.234-6.22-26.62-27.883-.235-22.64 38.563-36.96c.227-.637 12.303 8.55 16.8 16.028.861-3.655 2.467-6.974 3.805-10.563.14-.328 7.672 2.792 9.907 2.924.334.02.603-.333.603-.333l-9.941-3.241 2.033-5.837s.708-1.586-.09-1.85c-4.532-1.469-8.785-4.059-13.119-6.265 0 0 2.025-2.256 2.055-2.356.03-.094.85-1.305.654-1.722-2.205 2.144-20.197 18.871-20.197 18.871-.511-2.87-1.316-3.874-3.065-5.646.953-.046 2.444-.99 3.306-1.62 2.637-1.925 4.073-5.361 3.727-7.369-2.53.807-4.816 1.754-7.987 2.331-1.781.324-3.471 1.13-4.496 1.996l-.158-3.203c.01.036 4.266.748 6.239-2.117 1.7-2.47 1.003-5.296.612-6.737.044-.32-.05-.285.683-.961.541-.5 1.385-1.146 1.385-1.146.036-.182-2.2-1.012-2.578-1.77.595-5.938-4.136-8.23-8.141-7.175-.749.227-1.106.367-1.996-.626-.133-.149-1.2-1.28-1.2-1.28s-.472 1.09-.714 1.568c-.785 1.552-1 1.085-2.694 1.168-4.29.211-6.203 3.683-5.219 7.945.231 1 .128.847-.527 2.112-.335.646-.882 1.47-.882 1.47s.787.437 1.317.675c.785.352.826.763.823 1.548.11 1.73.489 2.888 1.48 4.373-3.36.078-5.938-.237-8.98-1.25.466 4.69 3.914 6.437 8.139 7.124 0 0-.444.415-.91.6-.988.287-1.607 1.157-1.598 1.937-.142.744-.622 1.491-1.065 1.889-.657.57-1.198 1.375-.939 2.93-.066 1.127-.338 1.453-.668 1.883-.663.864-.887 1.723-.721 2.859.077.528.24 1.66.13 2.83-.181 1.949.515 2.68 1.4 4.052.572.889.452.913.32 1.558-.319 1.549-.65 2.345-.993 3.523-.769 2.637-.798 4.635-.17 5.15.947.775 2.02.542 2.518.387 3.737-1.156 3.09-4.835 3.287-7.304.107-.635.323-.94.533-.91 1.057 1.24 2.174 1.957 3.612 2.738-4.974 5.075-8.158 8.18-14.445 13.716V-4.118h71.833s.075 1.035-.096 5.508c-.31 9.09-.692 18.611-.097 27.878.1 3.206.034 6.373.494 9.546.447 3.091.645 6.425 2.086 9.304.58 1.56.598 1.44-1.608 3.485-1.083 1.002-2.002 2.07-1.962 2.258.013.063-.048.298.118.165.11-.089.91-.882.998-.987.598-.706 1.598.2 5.01 1.165.67.19 1.613.821 2.334 1.345 5.1 4.308 12.277 2.965 17.642.615 1.523-.667 1.896-.736 4.343-1.027 9.06-1.077 18.742-5.045 18.722-5.033l1.182 1.942s.446-.082.763.407c5.211 9.867 22.226 21.142 21.924 20.62l-11.122 6.172c8.097 10.029 26.719 27.043 26.719 27.043v24.454c-4.971 3.985-9.876 8.554-14.247 13.015-1.256 1.248-2.144 1.96-1.666 1.983 1.134-.173 2.114.948 3.037 1.726.585.654.444.595-.23 1.488-.475.627-.648.808-.65 1.262.017.877.01 1.465-.769 2.123-.483.609-.76.999-.847 1.72-.087.72-.081 1.183-.575 1.82-.838.179-.917 1.401-.77 1.948.877.872.477 1.816.558 1.618-1.675 1.823-3.433 3.402-2.31.854.505-.949.682-1.735.682-1.735s-.807.837-1.229 1.233c-.646.6-.882.246-.901-1.614-.083-1.408-.676-3.373-.91-3.748-.132-.21-.154.153-.093 1.509.081 1.783.293 2.3-.333 4.081-.846 2.406-1.448 2.747-.074 2.664 1.302-.08 2.403-.093 2.972.686.192.263.44.712.965.978 1.072.586 1.924 1.237 2.52 1.886 1.925 2.1 1.372 3.976-2.351 2.704-1.96-.67-.676-1.514 1.43-1.319 1.295.122 1.513-.358.393-.702-2.084-.386-2.42-.621-3.794 1.017-5.77-.573-9.01-3.807-10.568-6.441-.651-1.102-.85-1.313-.397-1.937.178-.246.07-.17-.237.17-.308.34-1.146.626-1.423.87-1.939 1.94-3.904 4.023-5.65 5.6zm25.117-13.58c.98.122.96.946.086 1.739-.822.624-1.385.744-1.848.276-.812-.82.236-2.02 1.762-2.014zm2.852.572c.79-.003 1.797.361 2.993 1.358 1.428 1.189 1.754 4.07.443 4.569-.549.208-.634.004-1.805-1.111-.79-.752-1.645-1.432-2.488-1.835-1.722-.82-1.942-1.131-.78-1.69.246-.126.563-.423.708-.656.298-.48.389-.633.93-.635zm-1.86 3.835c.23.007.535.147 1.013.403 2.901 1.589 4.32 4.079 3.337 5.485-.644.921-1.691.57-2.49-.738-.45-.736-1.646-1.68-3.002-2.368-1.553-.79-1.587-.903-.465-1.442.46-.221.806-.534 1.031-.932.262-.461.283-.416.577-.408zm.93 5.935c2.193 2.19 1.942 3.376.518 4.268-.972.609-2.532.76-3.043.257-.826-.724-.804-1.554.11-1.82.85-.183.532-.525-.264-.728-2.842-.808-4.59-2.32-1.5-1.992.887.094 1.745-.597 2.208-1.149.67-.815 1.576.769 1.972 1.164zm-149.472.843l63.837 91.36h-51.583c1.817-14.53-1.83-30.657-6.652-41.18 5.249-.892 10.249-2.283 15.254-3.665l-1.016-1.322c-5.972 2.392-11.482 3.267-16.669 3.861 6.885 11.747 9.343 27.942 7.278 42.307h-9.832v-70.928zm11.433 13.597c.904-.035 3.155 1.558 3.43 2.756.056.245.641 1.718 1.297 3.087.013.253 2.231 4.268 1.257 3.918-1.94-2.641-5.403-7.138-6.274-9.329 0-.292.038-.422.29-.432zm6.911 4.016c.121.663.792 2.398 1.321 3.54 1.381 2.98 3.519 7.65 3.084 8.98-.293.896.01.849-.774-.258a266.35 266.35 0 0 0-1.864-2.596c-.7-.941-.23-.078-.628-1.61-.953-4.332-2.491-6.608-3.491-9.14-.356-1.188 1.894.605 2.352 1.084zm1.23.66c.185.131 2.72 1.918 2.977 2.175.899 3.203 4.492 13.467 3.562 15.3-.324-.254-1.694-1.91-1.884-2.762-.414-4.907-1.968-8.437-3.634-12.094-.469-1.103-.837-2.205-1.021-2.619zm4.768 3.604c.803.393 1.634 1.292 2.104 2.095.315.545.476 1.186.772 2.535.919 4.187 2.672 8.432 1.883 12.9-.491.669-1.56-.847-1.714-2.34-.506-4.947-.941-7.318-2.677-13.137-.337-1.13-.591-2.014-.368-2.053zm4.072 3.839c.171.007.523.327 1.109.878 1.14 1.073 1.3 1.468 1.307 3.247.037 2.615.906 5.6 1.04 8.241.079 1.524.357 5.464.122 5.698-.332.459-1.804-1.211-1.69-3.77.187-3.078.035-5.394-1.273-10.717-.605-2.46-.911-3.512-.65-3.572.01-.002.024-.005.035-.005zm118.105-15.542c4.57 2.941 2.959 8.37 1.98 9.037 6.312 7.994-3.5 12.088-6.613 9.214-4.609 4.59-12.518.743-9.472-6.824 0 0-5.788-11.084 5.627-10.343 0 0 .197-4.479-.125-4.684-4.075-.274-9.615 3.659-11.184 4.747-.87.527-1.06.275-1.06.275-.218-2.324-.224-3.389.718-4.685 1.645-2.262 4.364-3.026 7.935-3.812 4.419 1.363 8.627 3.505 12.722 3.172 2.254.013 4.56.378 6.746 1.554 1.475.697 2.242 3.314 2.242 3.314-2.313 1.213-9.516-.965-9.516-.965zm-2.174-16.437c.019-.794.913-1.678 1.794-1.575 1.21.087 1.368 1.523.292 2.052-.31.252-1.315-.12-1.37.16.075.488-.417.282-.512.106-.167-.208-.205-.505-.204-.743zm-.734 3.13c.445-.312.815-.34 1.263-.398.686-.084 1.564.02 1.759.741.191.708-1.163 1.124-2.259 1.143-.558.01-1.203.118-1.37-.274-.158-.368.383-1.046.607-1.212zm-138.339-50.552c.882-3.073.331-4.793 1.801-8.581l3.578 1.194s.152 3.715-.57 5.785c-.722 2.068-3.095 3.717-4.809 1.602zm26.652 83.104c.422.05 1.459 1.53 1.927 2.883.429 1.254.287 2.847.6 4.198.702 4.63.66 9.27.474 10.673-.093.698-.542.413-1.157-.253-.894-.968-.77-.99-.76-3.679.01-2.304-.5-8-.736-9.158-.434-2.14-.615-4.182-.513-4.533.028-.098.086-.14.165-.131zm41.846.554c4.607.736 8.291 3.889 10.402 9.08 2.037 5.278 2.539 12.48 2.855 19.102-.022 1.584-.673 1.184-2.38.2-1.864-.914-2.26-.65-4.983-.024-1.698.39-1.544-.768 1.25-2.69.95-.621 2.058-1.452 1.694-1.577-.185-.063-1.036.167-1.65.665-2.742 2.221-3.486 2.762-2.695.602.2-.546.835-2.06 1.1-2.785.993-2.713-.151-3.874-3.523-5.592-.844-.43-1.4-1.146-.557.355.689 1.227-.735 2.217-2.498.78-1.226-.997-3.688-.332-4.483.913-.77 1.207-.358 3.458 1.16 4.187 1.337.578 1.836.162.542-.737-1.663-1.156-1.34-3.107.529-3.1.461.002 1.276.518 3.336 1.64 1.474.8 2.524.462 2.525-.732 0-.8.457-.734 1.427-.253 1.306.646 1.163 1.233.473 3.041-.465 1.263-.697 2.699-1.123 4.019-1.1 4.443-1.246 9.476-.03 11.044 3.234 4.172 6.67 3.73 9.611.973l-.126 4.569c-2.999 2.413-6.503 4.058-11.912 13.003-1.887-2.376-9.981-12.086-22.96-14.28l-2.92-4.006c.05-.249-2.183-14.9-3.643-19.887 0 0 1.606-2.444 3.064-4.246 5.828-7.197 15.678-15.434 25.515-14.264zm-16.927 4.158c-.5.16-.662-.839-.39-1.029.6-.05.812-.031 1.414.013.454.028.443.55-1.024 1.017zm-21.903-.747c.648.463 1.439 1.709 2.212 2.844.428.628.186 1.67.252 2.699.094 1.458.256 3.861.358 5.338.2 2.88-.069 5.29-.489 6.16-.429 1.04-1.299.32-1.515-1.102-.052-.342.232-3.875.232-5.815 0-3.336-.85-7.454-1.05-10.124zm19.646-.02c.23-.013.403-.005.555.19.699.897.982 1.44.346 1.932-.844.706-1.612.528-2.08-.814-.302-.955.41-1.256 1.18-1.308zm-2.602.79c.753.507 1.5 1.84 1.58 2.8-.049.265-.28.488-.786.898-.502.46-.66.43-1.22-.454-.877-1.375-1.288-2.28-1.116-2.754.438-.457 1.01-.64 1.542-.49zm30.68.175c1.258.107 2.5.683 3.724.973l-1.867 1.81a39.447 39.447 0 0 0-1.857-2.783zm-33.471.943c.69.9 1.892 3.254 1.828 4.13a2.11 2.11 0 0 1-.738.73c-.23.062-.436-.341-1.214-1.721-1.353-2.4-1.75-3.076-1.047-3.364.37-.041.931-.024 1.17.225zm-2.728.558c.752.671 2.558 4.247 2.61 5.252-.021.283-.105.529-.272.72-1.136 1.223-.848 1.026-2.538-2.462-1.427-2.868-1.804-3.151-.86-3.474.208-.071.73-.166 1.06-.036zm-2.714.933c.496-.007.635.824 1.6 2.715 1.617 3.576 2.224 4.074 1.858 4.456-.45.57-.715.971-1.143.278-.975-1.59-1.943-3.617-2.85-5.397-.727-1.33-.792-1.49-.325-1.815.267-.187.666-.234.86-.237zm28.86 1.016c-.608.171-3.05.947-1.555 1.087.303.028 1.07-.164 1.608-.2 1.512-.106 4.659.18 4.546-.11-.287-1.09-3.775-.989-4.6-.777zm-30.975.335c0 .06.392.757.783 1.44 2.298 4.45 3.575 6.071 3.167 6.775-.336.425-.855.959-1.162.832-.494-.204-1.153-1.66-2.797-4.958-1.7-3.408-1.877-3.663-1.003-4.106.357-.166.792-.29 1.012.017zm-2.295 1.57c1.056 1.72.917 1.494.905 7.095-.01 3.486-.454 5.71-1.036 6.567-.305.45-.842.185-1.109-.694-.122-.402.226-1 .29-1.636.412-4.194.125-8.385.134-12.355.32-.033.645.742.816 1.023zm27.242 1.373c.492.704.372 1.272.368 2.218-.01 1.34.091 1.438 1.013.762.818-.6.883-.638 2.342.354.865.589 1.957.656 2.663.005.497-.458.67-.251 1.336-.077.725.404.932.466 2.489-.292 1.05-.466 1.093-.533 1.718-.203 1.1.972 1.262.62 1.114-.65 0-.444.13-1.273.261-1.81.547-2.26-.339-2.285-1.51-.845-.454.557-1.465.8-2.421.35-1.369-.645-3.505-.385-5.085-.118-1.868.315-2.734-.202-3.484-.844-.426-.364-1.398-.688-1.505-.41-.108.279.112.718.701 1.56zm-25.059 3.17c.234-.051.593.644 1.118 2.116.679 1.9-.507 8.504-1.22 9.585-.377.568-.619.916-1.394-.136-.308-.462-.068-.609.237-1.907.465-1.976.857-5.172.882-6.659.01-1.93.112-2.942.377-3zm2.382 6.406c.168.012.365.393.634 1.145.381 1.034.196 3.027-.305 4.553-.29.889-.566 1.836-1.06 2.63-.168.446-1.03.29-1.268-.698-.15-.626.368-1.402.62-2.398.252-1 .54-2.272.682-2.912.263-1.563.451-2.337.697-2.32zm18.436 2.927a.109.109 0 0 0-.053.005c0-.006-.01.01-.015.014-.039.04 1.797 2.046 2.29 2.607.258.218 2.47 2.915 1.094 2.295-3.472-1.442-7.534-.734-10.036 1.684-.313.303-.572-.007-1.52-.077-1.943-.146-2.649.627-1.467 1.587.18.147.558.213.729.448.156.217.11.605.191.713 3.757 5 10.717 5.973 15.085 2.707.55-.411.858-.556 1.37-.403 1.017.303 1.107-.55.209-1.742-.392-.52-.874-1.12-.593-1.293.555-.478.83-1.26-.136-1.553-.665-.202-1.41-.943-1.784-1.979-.436-1.209-4.716-4.925-5.364-5.013zm-17.056 2.189c.816-.02.854 4.817-.048 6.285-.464.555-1.525-.478-1.365-1.539.12-.806.988-4.442 1.186-4.63.08-.076.158-.115.227-.116zm16.65 3.018c.685-.007 1.623.301 2.369.977.403.365 1.11 1.946.816 2.566-.082.315-.929.297-1.006.066-.465-3.192-3.047-3.655-3.866-.675 0 0-.531.452-.6-.42.184-1.692.978-2.5 2.286-2.514zm20.783.277c.82-.015 1.603.398 2.005 1.276.28.613.31 1.128.2 1.397-.084.2-.36.114-.36.114-1.31-3.602-3.093-1.936-3.739.055 0 0-.674.208-.758-.006-.084-.216-.032-.62.236-1.181.512-1.07 1.487-1.638 2.416-1.655zm-17.525.223c.463-.025 1.258.353 1.851.953.604.61.663.974.176 1.426-.293.271-1.334.54-1.536.068l-.876-2.053c-.083-.195.174-.382.385-.394zm-6.314.097c.52.002.63.12-.186 2.022-.174.407-2.267-.184-1.868-.968.598-.625 1.535-1.055 2.054-1.054zm20.959.15c.209-.01.378.021.45.117-.187.068-.978 2.073-.978 2.073-.747-.09-1.64.015-1.801-.597-.152-.579.149-.93 1.2-1.335.319-.116.78-.241 1.129-.257zm6.123.515c.792.291.978.964.876 1.31-.077.263-.45.266-.716.064-.253-.294-.624-.794-.596-1.131.083-.335.184-.339.436-.243zm-39.47 1.853c.243.46.683 3.063.169 2.996-.499-.13-.73-.915-.818-1.621-.018-.146.426-1.358.648-1.375zm8.719 1.39c.23-.034.811.17 1.675.66 2.84 1.375 5.753 1.57 8.847.877 1.784-.464 2.239-.736 2.49-.429.429.522-.247 1.043-2.766 1.892-2.763.93-5.63.774-9.399-1.892-1.013-.717-1.144-1.066-.847-1.109zm31.526.717c.467.875-1.125 1.705-1.931 1.938-1.714.497-4.31.265-5.778-.618a4.326 4.326 0 0 1-.353-.237c-1.193-.89-.699-1.526.63-.84 1.428.739 4.335.874 5.876.129.773-.374 1.304-.843 1.556-.372zm-35.278 1.631c-.159.036.11.437.663 1.039 3.886 4.373 13.158 6.745 18.37 2.238 1.632-1.535 1.384-2.226-1.19-1-2.848.94-6.894 1.063-10.393.543-1.72-.233-4.523-.894-5.945-1.936-.895-.657-1.366-.915-1.505-.884zm26.797.131c.237.02.653.108 1.555.578 1.317.687 4.307.451 5.286.09 2.063-.764 2.486.206.532 1.288-2.178 1.322-5.184.805-6.938-.898-.543-.488-.837-1.095-.598-1.144.023-.005.129.084.163.086zm-25.765 7.735c7.653.7 19.203 8.73 23.707 17.875h-2.592c-4.525-7.197-11.486-13.405-19.748-15.567-.326-.252-1.542-1.99-1.367-2.308zm33.97 1.675l-.353 2.529c-1.282 1.053-5.983 4.958-9.47 11.071-.726-.034-1.079-.911-.957-1.509 2.791-5.518 6.129-8.564 10.78-12.09zm-30.93 1.979c1.755-.12 13.18 6.445 17.026 14.221h-2.106c-4.327-5.65-9.136-9.75-13.405-11.23-1.038-1.097-2.175-2.943-1.515-2.991zm30.577 1.76l-.019 3.416c-2.733 2.667-4.73 5.766-6.295 9.045h-2.122s-.472-1.353-.307-1.937c2.412-4.352 4.722-7.52 8.744-10.525zm-17.354 12.461h-2.054c-1.733-2.457-4.308-5.236-6.672-6.643-.969-1.203-2.054-2.688-1.617-2.929.026-.889 9.116 5.685 10.343 9.572zm17.399-7.366l-.044 1.976c-1.39 1.782-2.555 3.692-3.668 5.39h-1.75c1.596-3.454 5.605-8.3 5.462-7.366zm-23.572 3.825c.633.168 2.947 2.799 2.873 3.541h-1.041c-.585-.74-1.278-1.955-1.689-2.712-.257-.48-.422-.923-.143-.829zm23.169.611c.01-.002.01-.002.015 0l-.02 2.93h-1.757c-.19-.035.85-2.314 1.762-2.93z" fill="#131f67"/><path d="M3496.206-4.454l65.403 93.027.053-20.666-20.988-27.152c4.777-1.476 10.61-2.497 15.202-2.907-5.899-13.108-8.849-25.419-6.25-42.292-18.335-.22-36.746-.183-53.42-.01zm52.33.442c-.512 5.957-1.184 12.6-.106 19.976-3.404-1.245-4.202.883-4.766 1.107-.64-1.432-3.013-3.908-5.7-.997-1.395 1.513-.717 4.36 2.525 5.643-3.712.285-5.641-2.895-6.293-6.175-2.006-1.287-4.115-2.56-4.316-7.074l1.029.173c-.342 3.15 2.922 4.753 4.833 3.25 1.235-.949 1.367-2.413.88-4.687.992-.203 3.316-1.179 2.701-4.171-.848-4.132-5.08-3.647-7.015-.93-1.607-1.995-4.555-2.365-5.737.733-.658 1.726.842 3.663 2.547 4.038-3.786.728-5.695-4.505-5.907-8.047l-1.568-2.79c10.235-.06 14.71-.048 26.893-.049zm-51.265.102l7.596.005 55.439 71.917.116 17.904zm19.206.005l1.21.014c.95 6.33 4.58 10.913 10.792 13.143.322 5.172 2.81 12.197 12.248 14.57-.278 5.84 3.464 11.42 7.47 14.094 0 0-1.081.269-1.926.35-5.387-4.282-6.714-10.585-7.248-13.187-.182-.376-.696-.467-1.104-.558-4.61-1.632-8.489-5.428-10.075-10.061l-.997-4.548c0-.584-.116-.31-1.486-.815-3.556-1.312-6.843-5.169-8.318-9.775-.775-2.422-.566-3.227-.566-3.227zm-4.885.014l4.256.005s.025.753.087 1.243c.572 4.534 4.634 10.226 8.777 12.114.586.267 1.402.642 1.593.82 1.158 7.434 4.52 11.911 11.614 14.977.113.118.433.192.528.34.967 4.597 3.081 9.926 7.102 12.857l-1.738.18zm20.788 7.803a1.746 1.746 0 0 1 0 3.49 1.746 1.746 0 0 1 0-3.49zm-58.735 9.534c.101.252-23.802 20.52-21.476 58.657l-.692.777.189.272c-.79.898-1.55 1.619-2.411 2.494 4.956 3.167 13.596 6.624 13.623 6.533l-1.65 3.834 10.326 3.344-1.385 3.645s-7.184-2.388-10.162-3.383c-1.469 3.265-2.358 6.713-3.427 10.11-.101.274-.336.142-.702-.389-5.365-9.17-16.382-15.788-16.01-15.132l-39.07 37.162-.267 22.966 27.04 27.936s-7.826 3.86-11.528 6.392c2.88 2.355 6.138 4.17 9 6.397 5.92 4.186 9.917 10.339 13.754 14.506 18.098-8.995 36.324-8.494 52.064-3.033-1.834 1.934-3.88 3.61-5.77 5.708 4.575 12.034 3.11 35.934 2.88 36.584 9.525-9.755 23.696-30.672 21.805-60.123l4.01-4.029c-.074-.206-10.029-5.548-14.177-6.71l1.148-3.661-9.934-3.111 1.108-2.907 9.896 2.873c1.874-4.612 3.858-11.07 3.858-11.07 3.952 5.926 8.308 11.317 17.274 16.802l38.848-37.26-.252-23.956-26.449-26.514 11.01-5.751c-1.058-.855-2.592-1.667-3.68-2.524-.078-.061.219-.245.14-.306-.276-.213-.478-.386-.76-.582-.062-.044-.261.243-.324.199-3.736-2.626-7.473-5.21-10.414-8.353-.074-.08.035-.406-.039-.485-1.528-1.637-3.05-3.16-4.604-4.77-.72-.73-1.912-2.462-1.912-2.462l-.068-.572-1.67-2.107c-5.379 3.18-28.31 11.163-50.5 2.325l4.216-4.227a32.315 32.315 0 0 1-2.14-8.227c-1.16-9.951-.716-27.872-.716-27.872zm69.948 5.634c1.016 0 1.84.827 1.84 1.845a1.843 1.843 0 0 1-1.84 1.844 1.839 1.839 0 0 1-1.835-1.844c0-1.018.82-1.845 1.835-1.845zm5.754 2.194c.937 4.584 2.996 11.24 5.047 15.726l-2.444.272c-1.99-1.296-4.092-3.187-4.313-5.87-5.38.042-6.954-8.418-4.989-7.403-.25 2.89 1.818 4.03 3.847 3.746 1.747-.244 3.258-2.663 1.179-5.333.924-.36 1.375-.632 1.673-1.138zm-76.254 13.555c.357 5.862 1.505 10.137 2.576 14.565l-10.632 10.057c.83-9.18 3.519-17.382 8.056-24.622zm50.99 19.307l1.35 1.942c-15.364 9.044-41.587 9.683-57.563 2.057l2.12-2.023c14.048 6.359 36.92 6.831 54.093-1.976zm-99.786 3.019c-1.548-.02-3.334.573-5.228 2.019-7.049-3.219-11.665 4.306-7.306 9.29-.645 3.586-1.134 4.255 1.56 7.886-2.861.365-6.472-.385-9.543-.859.519 5.312 8.107 6.549 11.266 5.965 3.41-.741 6.628.95 6.768.99 2.005.561 3.251 1.529 5.228 1.995 3.262.777 8.038-3.054 8.73-6.693.064-.49.216-.932-.054-1.005-2.229.572-4.678 1.377-6.85 1.854-2.127.523-3.73 1.04-5.35 2.31l-.135-4.387c11.041.527 6.236-9.997 5.61-10.45 2.052-4.152-.415-8.862-4.695-8.915zm100.362.33l2.401 5.79-6.38 2.17-1.632-5.67zm-100.822.175c3.754.036 7.11 3.998 3.506 8.435 6.987 6.177-1.968 12.797-6.231 8.202-5.677 5.21-11.707-.232-8.536-5.906-6.053-5.43 1.412-12.714 6.512-8.023 1.253-1.93 3.044-2.725 4.75-2.708zm43.573 2.12c.898 0 1.626.73 1.626 1.631s-.728 1.631-1.626 1.631c-.899 0-1.627-.73-1.627-1.63 0-.901.728-1.631 1.627-1.631zm-41.573.122c-.093.001-.204.043-.324.15-.182.017-.578.698-1.569 1.85-1.723 2.002-1.91 2.02-1.91 2.02-1.835-.601-3.063-.276-4.272.49 0 0-1.38-.261-3.283-1.855-.868-.728-1.335-.885-1.486-.495-.161.415.233.825 1.898 1.96 2.304 1.572 2.161 1.452 2.161 1.452-.143 1.381.081 2.504.602 3.55 0 0-.406.98-2.042 3.128-.463.607-.841 1.267-.842 1.466 0 .835.724.274 2.396-1.845.655-.83 1.555-2.019 1.555-2.019 1.964.682 2.652.268 3.884-.171 0 0 .422.315 1.493 1.17 1.96 1.567 2.384 1.734 2.625 1.535.324-.268.281-.355-.46-.893-2.21-1.605-2.971-2.532-2.971-2.532.45-1.755-.042-3.207-.524-4.123 0 0 .035-.223 1.282-1.62.917-1.026 2.171-2.645 2.092-2.878.021-.145-.1-.342-.305-.34zm45.242.354l5.747 1.791-1.268 5.99-6.125-1.98zm41.588 1.47l1.602 5.844-5.979 1.592-.978-6.202zm4.197.098c.899 0 1.627.73 1.627 1.63 0 .901-.728 1.631-1.627 1.631-.898 0-1.627-.73-1.627-1.63 0-.901.729-1.631 1.627-1.631zm13.59.209l5.025 4.484-5.577 2.825-2.687-5.844zm-47.387 1.295l5.838.69-.237 6.29-6.7-.898zm-20.257.068l6.498 2.859-2.344 6.562-6.652-2.864zm16.747.51c2.394.376 1.75 3.208 0 3.261-.899 0-1.627-.73-1.627-1.63 0-.9.728-1.631 1.627-1.631zm21.006.005l.8 6.295-6.062.368-.13-6.396zm4.169.718c.898 0 1.626.73 1.626 1.63 0 .901-.728 1.632-1.626 1.632-.899 0-1.627-.73-1.627-1.631 0-.9.728-1.63 1.627-1.63zm-84.384.59c.926 0 1.68.75 1.68 1.68 0 .929-.754 1.684-1.68 1.684a1.68 1.68 0 0 1-1.676-1.684c0-.93.75-1.68 1.676-1.68zm71.777-.06c.898 0 1.627.73 1.627 1.63 0 .9-.729 1.63-1.627 1.63-.899 0-1.627-.73-1.627-1.63 0-.9.728-1.63 1.627-1.63zm28.55.402l2.362 6.47-6.623 2.14-1.874-6.644zm4.647.175c.898 0 1.627.73 1.627 1.63 0 .901-.729 1.631-1.627 1.631-.899 0-1.627-.73-1.627-1.63 0-.901.728-1.631 1.627-1.631zm11.45 1.834l4.28 3.034-2.12 1.184c-.557-1.334-1.538-2.915-2.16-4.218zm-61.176.588l6.318 1.373-.963 6.635-6.894-1.379zm-18.789.364l3.355 1.582-2.212 5.528-5.427-2.898zm14.999.359c.898 0 1.626.73 1.626 1.63 0 .901-.728 1.631-1.626 1.631-.899 0-1.627-.73-1.627-1.63 0-.901.728-1.631 1.627-1.631zm36.489.364l1.128 6.634-7.126 1.005-.441-6.766zm26.68.126c.9 0 1.627.73 1.627 1.63 0 .901-.728 1.631-1.626 1.631-.899 0-1.627-.73-1.627-1.63 0-.901.728-1.631 1.627-1.631zm-5.054.048l2.358 5.849-6.971 2.921-2.063-5.853zm-17.777.423c.899 0 1.627.73 1.627 1.63 0 .901-.728 1.631-1.627 1.631s-1.627-.73-1.627-1.63c0-.901.728-1.631 1.627-1.631zm-23.544.665l6.672.12-.077 6.708-7.306-.204zm53.357.465l2.624 1.825c-27.005 17.409-64.942 19.567-94.547 2.432 0 0 1.21-1.209 1.898-1.917 26.688 16.011 65.651 13.764 90.025-2.34zm-56.973.758c.898 0 1.627.73 1.627 1.63 0 .901-.729 1.631-1.627 1.631-.899 0-1.627-.73-1.627-1.63 0-.901.728-1.631 1.627-1.631zm13.696.368c.898 0 1.627.73 1.627 1.631 0 .9-.729 1.63-1.627 1.63s-1.627-.73-1.627-1.63c0-.9.729-1.63 1.627-1.63zm-31.774.898l6.967 2.02-1.186 5.513-7.64-2.204zm-4.609.04c.899 0 1.627.73 1.627 1.63 0 .9-.728 1.63-1.627 1.63-.898 0-1.626-.73-1.626-1.63 0-.9.728-1.63 1.626-1.63zm54.112 1.174l1.666 6.188-7.703 1.65-.93-6.086zm4.425.898c.899 0 1.627.73 1.627 1.63 0 .9-.728 1.631-1.627 1.631-.898 0-1.627-.73-1.627-1.63 0-.901.729-1.631 1.627-1.631zm-100.628.96l-.015 4.34a156.435 156.435 0 0 0-4.197-3.315c1.507.08 2.907-.337 4.212-1.024zm-15.865.107c.352-.003 1.175.285 2.155.282 3.136-.01 8.995.97 10.728 2.397.578.474 1.442.895 1.913 1.66 0 .365-.517.375-1.274-.097-1.452-.904-3.868-1.71-7.102-2.16-.584-.08-.657-.057-.658.219 0 .34.538.54 2.241.82 2.204.363 2.673.58 3.161.713 1.31.36.473.84-.874.969-5.5.516-9.616-1.856-10.445-4.565-.067-.178 0-.236.155-.238zm76.605.097l6.918.898-.314 5.805-7.572-.869zm-58.832.505c1.209.951.377 3.835-.28 4.684-.427.476-1.425.223-1.42-.447.151-.602-.061-3.47.069-4.358.481-.275 1.19-.198 1.631.121zm80.173.257l.358 5.985-7.548.344.058-5.877zm-25.466.403c.899 0 1.627.73 1.627 1.63 0 .902-.728 1.632-1.627 1.632-.898 0-1.626-.73-1.626-1.631 0-.9.728-1.63 1.626-1.63zm-42.057.083c.28 4.391-6.449 7.37-8.966 6.023-1.114-.597-.65-.965 1.56-1.413 2.859-.759 4.742-1.498 4.744-2.033 0-.329-.432-.29-1.598.145-1.795.605-3.66.864-5.374 1.636-1.28.583-1.78.787-2.067.437-.604-.735 2.243-2.59 5.195-3.082 2.214-.37 4.448-1.553 6.506-1.713zm71.686.548c.899 0 1.627.73 1.627 1.63 0 .901-.728 1.632-1.627 1.632-.898 0-1.626-.73-1.626-1.631 0-.9.728-1.63 1.627-1.63zm-15.129 1.194c.899 0 1.627.73 1.627 1.63 0 .901-.728 1.631-1.627 1.631-.898 0-1.627-.73-1.627-1.63 0-.9.729-1.631 1.627-1.631zm36.247 2.771c10.888 10.393 22.821 22.357 32.665 32.198l-.043 15.448-37.588 35.813c-6.807-4.166-12.569-9.373-17.875-18.623.599-.517 1.125-.846 1.579-1.412l-1.961 1.175c-6.934-11.118-9.875-33.267 1.903-51.024l-11.9.437 1.941-4.062 12.955-.709 5.239-5.635s1.66-.308 3.035-.626c1.365-.315 4.15-1.114 6.192-1.776 2.043-.662 3.78-1.204 3.859-1.204zm-87.875 2.878s11.188 6.096 17.4 18.302c-20.08 17.317-27.65 37.481-29.358 58.469-10.93-10.248-16.453-15.917-26.328-25.869l.359-14.85zm42.236 1.937c-2.895 6.204-5.385 13-7.616 20.282l-3.113-.922s2.014-.844 2.91-1.378l-1.617-2.612 3.065-1.261-1.81-2.214 3.107-1.805-1.554-1.956 2.847-1.427-1.767-2.038 2.987-1.67-1.559-1.95zm.954.014s.4.077.871.17c.113-.043-.56 1.626-.489 1.684 1.087.225 1.15.164 1.477.262l.828-1.718 1.36.258c-2.744 6.208-5.679 13.001-7.364 20.355l-1.602-.335s.468-1.55.47-1.757c-.189-.04-1.09-.42-1.37-.534-.097.242-.669 2.038-.669 2.038l-1.268-.034c2.076-8.028 5.695-16.931 7.756-20.389zm5.214.238l2.842 2.359-3.225 1.257 1.67 2.228-3.417 1.237 1.96 2.315-3.384 1.252 2.02 2.8-3.52 1.19 2.222 2.46-3.176 1.49 1.902 1.889s-1.981.655-2.096.684c-.319.082-1.65-.248-1.65-.248 2.007-7.165 4.487-14.428 7.852-20.913zm-69.14 1.194c-.784.51-.337 1.623-1.321 2.572-.157.17-.17.562-.233.903-.047.26-.824 3.36-.824 3.36s.196-.237.508-1.226c.265-.844.496-2.446.64-2.713.726-.222.836-2.595 1.572-2.27.425.188.344.575.104 1.485-.524 1.819-.73 2.585.17 1.345 1.342-1.62 1.473-3.083-.04-3.393-.16-.03-.483-.06-.576-.063zm20.305.675l-35.124 33.06-.107 12.338 12.225 12.42 8.676 8.43c3.149-18.88 10.374-36.892 28.162-52.48-2.726-4.393-7.395-9.927-13.832-13.768zm94.678.34c-20.638 9.723-25.384 29.665-18.993 47.718 9.835-12.68 17.554-24.593 18.993-47.719zm-73.453 1.009l9.372 3.024-3.529 12.065-8.438-2.567-.862-2.136zm72.417.315c-.897 16.135-6.966 31.893-17.526 44.258-5.34-13.205-2.128-34.317 17.526-44.258zm-50.481.088l-.59 1.5 1.297.368.552-1.524zm-1.298 3.543l-.532 1.524 1.331.451.499-1.548zm55.289.276c-2.89 22.38-14.95 42.747-27.693 53.125 4.06 6.603 8.835 10.85 13.687 14.395l35.893-34.468-.14-11.498zm-94.852 5.94c-.22.82-.299 1.235-.299 1.235s.413-.383 1.505-.981c7.052-3.527 4.777 1.836 1.454 3.82-.743.396-1.506.867-1.506.867s.705.16 1.47.302c4.28.892 3.37 3.401-1.095 3.01-.66-.057-1.435-.182-1.436-.145 0 .037.268.98.577 1.76 1.505 3.8-1.303 4.095-3.149 1.68-.257-.337-.84-1.265-.84-1.265s-.182.702-.293 1.38c-1.595 5.956-5.53 5.805-4.062-.237.184-.625.408-1.742.408-1.742s-.885.536-1.848.967c-5.097 2.281-5.925-.067-1.294-3.5 1.317-.977 1.764-1.36 1.764-1.36a13.46 13.46 0 0 1-2.244-.357c-3.694-.93-4.679-3.143 1.24-3.04.874.019 1.764.077 1.764.077s-.292-1.273-.6-2.232c-1.428-4.439 1.45-4.967 3.877-.99.517.845.665.85.665.85-.075.004.152-1.514.74-2.917 2.939-5.456 4.09-.476 3.202 2.819zm63.48-4.416c-2.466 4.367-4.615 8.709-5.64 13.236l-9.591-.166c.663-4.013 2.357-8.189 4.381-12.604a390.18 390.18 0 0 0 10.85-.466zm-25.32 1.937l-.553 1.606 1.39.427.503-1.562zm-71.72 3.014c-1.028 2.676-1.372 5.657-1.942 8.047-.24 1.385 0 1.961.833 2.271 1.178.44 2.878-.16 3.83-1.524.535-.77.925-2.358 1.006-5.164l.092-2.5c-1.457-.27-2.453-.662-3.82-1.13zm70.422.35l-.46 1.475 1.341.5.513-1.49zm62.114.553c1.632.04 1.935.186 3.414 1.062l2.851 2.942a3.937 3.937 0 0 0 2.716 6.785c1.076 0 2.76-1.136 2.76-1.136l4.519 4.692c-2.634 1.157-5.214-1.505-6.184-2.558-.228-.247-.287-.417-.287-.417s.04.13-.054.65c-.378 2.09-2.434 8.255-4.4 7.927-2.213-.37.04-9.184.065-8.98-1.522 1.612-8.938 3.33-8.418 1.528 1.032-3.577 6.579-4.956 7.308-5.577-2.95-1.778-6.688-6.71-4.29-6.918zm-132.178.115c.939.066 1.583.18 2.222.448.297.08.31.328.344.563.01 1.056.27 4.156-.707 4.188-1.085-.023-2.103.21-2.818.757-.574.44-.765.122-.61-1.005.15-1.091.692-3.385.925-4.314.037-.383.34-.654.644-.637zm29.304.04a3.937 3.937 0 0 0-3.93 3.94c0 2.177 1.76 3.942 3.93 3.942a3.937 3.937 0 0 0 3.932-3.941c0-2.176-1.761-3.941-3.932-3.941zm0 1.378a2.56 2.56 0 0 1 0 5.12 2.56 2.56 0 0 1 0-5.12zm20.284.048c9.01 15.592 7.967 36.994-2.656 52.563l11.42-.801-1.5 2.931-12.176 1.19c-1.86 1.706-3.554 3.658-5.384 5.484l-.019.645c-4.174.972-8.352 2.09-12.607 3.627-2.246-2.21-6.47-6.63-6.442-6.741l.271-1.43c28.958-14.811 20.487-44.513 18.448-46.956 3.106-3.739 6.814-7.258 10.646-10.512zm80.368 2.835c1.173 0 2.12.955 2.12 2.13 0 1.176-.947 2.131-2.12 2.131a2.13 2.13 0 0 1-2.125-2.13 2.13 2.13 0 0 1 2.125-2.13zm9.44.573l3.56 3.674a2.548 2.548 0 0 1-1.797.742 2.556 2.556 0 0 1-2.556-2.557c0-.73.305-1.392.794-1.86zm-122.22.456c1.174 0 2.121.95 2.121 2.126s-.947 2.13-2.12 2.13a2.13 2.13 0 0 1 0-4.256zm-15.801.893c.994.333.762 1.265-.523 2.085-.831.53-1.593.647-2.324.254-1.386-.743 1.49-2.824 2.847-2.339zm16.417 5.213l-12.796 12.41c.805-2.062.835-4.119.896-6.179 3.85.398 5.462-1.56 4.9-5.59 2.486.148 5.063-.115 7-.641zm20.503 1.417c5.933 16.959.78 34.907-17.778 45.301.764-16.251 7.569-31.788 17.778-45.301zm16.901 1.485c10.184 2.672 21.776 3.918 33.812 3.926.09 4.591.31 9.447 1.25 14.133-10.254-2.688-21.705-3.938-34.215-3.717.52-4.853-.312-10.357-.847-14.342zm75.515 2.509l-10.844 12.711.455-6.94c3.652.466 4.953-1.465 4.415-5.28 1.993.246 3.982-.103 5.974-.491zm-105.377.704l-.856 5.076c-2.165.06-4.29.83-4.26 5.674l-6.469-.078zm119.35.936c1.173 0 2.12.955 2.12 2.131 0 1.176-.947 2.13-2.12 2.13a2.13 2.13 0 0 1-2.126-2.13 2.13 2.13 0 0 1 2.126-2.13zm-129.187.646a2.13 2.13 0 0 1 0 4.256 2.13 2.13 0 0 1 0-4.256zm124.447 2.184l-1.133 7.688c-2.955-.26-5.42.196-4.662 5.406-2.5-.245-5.972.347-8.298.549zm-10.588 1.393a2.13 2.13 0 0 1 0 4.256 2.13 2.13 0 0 1 0-4.256zm-129.429 1.65a2.13 2.13 0 0 1 0 4.256 2.12 2.12 0 0 1-2.12-2.125c0-1.176.947-2.131 2.12-2.131zm7.044 2.519c2.713.61 1.458 6.95.847 8.673-.046.046 7.569-4 8.023-2.213.297 3.58-6.304 6.076-6.304 6.076s4.45 3.874 4.575 6.31c.011 1.575-1.86 1.283-4.29-.714-1.037-1.022-1.841-1.789-2.555-2.5a3.938 3.938 0 0 0 1.36-2.984c0-2.176-1.76-3.941-3.931-3.941-1.199 0-2.271.54-2.992 1.388-.563-.544-1.201-1.178-2.058-1.99-1.403-1.315-2.388-2.36-2.246-2.834 1.851-1.307 5.534 2.204 5.863 2.523-.276-.684 1.76-7.43 3.708-7.794zm-3.708 7.794c.015.037.035.059.063.059l-.063-.059zm115.64-2.844c1.29-.018 1.21 2.927.75 4.456-.313 1.166-.624 2.12-.624 2.12s1.088-.85 1.569-1.077c3.511-1.648 4.82.218 3.05 2.383-.85 1.114-2.011 1.36-2.953 2.296 1.342.061 2.883.36 4.042 1.043.902.54 1.61 1.195 1.608 1.602 0 .91-2.233 1.4-4.319 1.165-.887.02-2.556-.456-2.556-.456s.692 1.166.944 1.863c.778 2.166.506 4.703-.62 4.698-1.883-.504-2.802-2.603-3.539-4.11-.604 1.68-1.19 3.478-2.537 4.727-1.335 1.238-2.02.21-1.95-1.888.026-.835.638-3.325.638-3.325-7.91 2.677-7.322-.944-1.149-4.116-3.802-1.818-6.112-3.453.355-3.824-.17-.155-1.3-3.628-.092-4.44 1.123-.756 3.516 1.839 3.631 1.965-.048-.257.63-2.29 1.767-3.694.872-.988 1.519-1.381 1.985-1.388zm-7.29 7.557c.01.007.015.008.018 0h-.019zm34.625-2.293c-1.377.125-2.234 1.35-2.871 2.419-.13.217-.368.294-.456.58-.571 1.842-1.07 4.049-1.375 6.796.873.36 2.842.966 3.712.64.245-.103.17-.737.252-.947 1.373-3.466 2.052-6.057 2.052-7.65 0-1.284-.44-1.918-1.314-1.838zm-141.533-.158a2.56 2.56 0 0 1 1.588 4.567c-1.646-1.646-2.489-2.508-3.592-3.591a2.546 2.546 0 0 1 2.004-.976zm142.02 1.22c.346.84-.764 1.754-2.2 1.748-.855-.003-1.133.118-.753-.625.453-.903 2.293-2.732 2.954-1.123zm-19.272-.594a2.13 2.13 0 0 1 0 4.257 2.13 2.13 0 0 1 0-4.256zm-112.034.15a2.13 2.13 0 0 1 0 4.256 2.125 2.125 0 0 1-2.12-2.13c0-1.175.948-2.125 2.12-2.125zm100.478.865a3.937 3.937 0 0 0-3.931 3.94c0 2.176 1.76 3.941 3.931 3.941a3.937 3.937 0 0 0 3.931-3.94c0-2.176-1.76-3.941-3.931-3.941zm-52.538.529c-1.034 4.54-2.625 8.881-4.634 13.176-3.79.23-7.886.407-10.588.792 4.5-7.901 4.609-9.759 6.275-13.944zm6.511.64c1.064.126 2.231.288 3.283.49-1.935 6.826-4.493 13.834-7.795 20.579l-2-.31-.948-1.175 3.176-1.272-2.474-2.533 4.1-1.243-2.522-2.495 4.052-1.014-2.169-2.64 3.636-1.422-2.31-2.99 3.874-1.068zm46.027.209a2.56 2.56 0 0 1 0 5.12 2.56 2.56 0 0 1 0-5.12zm-42.018.388l1.35.219-.416 1.45 1.54.33.498-1.567s1.239.115 1.37.214c-1.612 6.589-7.314 20.38-7.387 20.306l-1.467-.218.387-1.393-1.365-.194v-.015l-.659 1.514-1.457-.12c3.53-8.078 5.934-14.278 7.606-20.526zm71.758.524c1.083-.005 1.017.555.233 2.602-.738 1.923-1.014 2.693-1.372 2.942-.853.607-2.69.098-2.542-.787.484-2.873.655-4.098 1.395-4.488.77-.153 1.522-.265 2.286-.269zm-66.326.238l3.524.684-2.948 1.757 1.874 2.194-3.622 1.548 2.198 2.281-3.495 1.432 2.125 2.51-3.626 1.533 2.469 2.145-4.076 1.291 1.544 2.378-1.535.86-1.893-.297c3.142-7.348 5.162-13.393 7.46-20.316zm8.661 1.757l6.904 1.883 1.38 2.47-3.24 10.964-9.198-2.708zm-13.72 1.058l-.659 1.8 1.52.316.586-1.854zm-1.337 4.135l-.658 1.8 1.428.282.673-1.82zm-1.346 3.635l-.672 1.791 1.389.287.663-1.796zm64.863 3.296s-.704.512-.89.739c.153.41.6 1.042.533 1.457-.061.312-.408.563-.929 1.119-1.3 1.516-1.757 1.351-1.002-.267.248-.509.358-.98.358-.98-.3.421-.527.921-.73 1.317-.43.828-.829 1.61-.829 1.61.828.287 1.378.903 1.913 1.303 0 0 .272-.733.46-1.435.262-.979.779-1.382 1.413-1.718.4-.213.782-.6.782-.6-.698-.713-.778-1.734-1.079-2.545zm-66.3.441l-.712 1.908 1.385.34.77-1.947zm-78.11 4.796c-.127 7.595.124 12.596-.141 20.787l20.513 26.65-3.2 1.077s-.036.37-.209.417c-4.383 1.209-11.493 2.412-11.493 2.412 5.288 12.105 8.717 27.241 6.352 42.36l53.09-.14zm112.28 12.87l-1.83 1.84c-27-14.649-64.187-14.591-91.323 3.145l-2.212-1.626c29.617-19.022 66.055-18.902 95.365-3.358zm-111.288-10.206l62.487 89.986-7.34.107-55.094-72.252zm134.1 1.626s-1.804.47-3.32.956c-4.343 1.394-6.374 3.911-5.975 7.406.118 1.033.385 1.018 2.154-.102 4.141-2.62 4.4-2.736 9.557-4.251.4-.117.978-.03.978-.03l-.227 4.082c-8.597-.032-8.128 6.813-5.655 10.372-.866 1.646-2.76 7.39 3.476 9.576 3.11.62 6.405-1.913 6.303-2.044 5.738 2.72 12.396-1.84 7.204-9.74 1.953-3.446.576-6.003-1.287-8.202 0 0 .315.027 3.03.529 4.12.761 5.694.626 5.694.626.01-3.717-3.066-5.378-9.47-5.883-4.536.642-12.462-3.327-12.462-3.295zm-69.173.432c.31-.002.617-.002.925.005l-.3 6.348-6.977.32-.455-6.323c2.403-.167 4.636-.342 6.807-.35zm8.361.155l7.485.913-1.133 5.935-6.894-.742zm60.678.074c.62.07.42.789-.427.955-1.346.264-4.796 2.278-4.798 2.8 0 .338.17.29 1.433-.388.631-.338 1.95-.914 2.924-1.286.975-.372 2.09-.82 2.479-.995 1.16-.524 1.735-.162 1.317.83-.276.656-.386.707-3.074 1.563-2.433.773-2.88.974-4.425 1.966-.577.37-1.598.96-2.271 1.31-1.59.825-1.912.828-1.908-.282-.087-3.288 3.542-5.755 8.458-6.464a.843.843 0 0 1 .292-.01zm-64.75.766c.936 0 1.695.76 1.695 1.699 0 .938-.759 1.698-1.694 1.698-.936 0-1.695-.76-1.695-1.698s.759-1.7 1.694-1.7zm-18.518.451l.557 5.761-6.86 1.767-1.569-5.95c2.625-.645 5.248-1.098 7.872-1.578zm88.374.437c1.881.287 1.732 4.605.77 5.353-1.48 1.069-2.389-1.166-1.728-4.13.186-.891.529-1.203.959-1.223zm-84.481.233c.936 0 1.694.76 1.694 1.699 0 .938-.758 1.698-1.694 1.698-.936 0-1.695-.76-1.695-1.698s.76-1.699 1.695-1.699zm33.512.495l7.756 2.121-1.898 6.018-7.277-2.053zm-4.222.117c.936 0 1.694.76 1.694 1.698s-.758 1.699-1.694 1.699c-.936 0-1.694-.76-1.694-1.699 0-.938.758-1.698 1.694-1.698zm63.446.504c3.341.035 7.748 1.715 7.756 4.305-.068.736-7-.241-10.2-1.533-1.137-.459-2.52-1.854-2.518-2.437 0-.346.677-.321.953.015.45.549 2.047 1.122 5.713 2.048 2.816.711 3.097.739 3.099.31 0-.39-1.664-.927-3.467-1.227-.907-.15-1.753-.424-3.147-.544-.65-.002-.808-.411-.266-.69.59-.175 1.306-.255 2.077-.247zm-5.902 1.34c.843.396 1.147 1.186 1.613 1.601-.578.275-.837.552-1.772.622.017-.62-.152-1.36.16-2.223zm-101.567.466c.936 0 1.695.76 1.695 1.698 0 .939-.759 1.7-1.694 1.7-.936 0-1.695-.761-1.695-1.7 0-.938.759-1.698 1.694-1.698zm-4.56.48l1.83 5.883-6.555 2.858-2.324-5.829c2.266-1.194 4.745-2.062 7.049-2.912zm30.312.961s5.222.007 7.025.03l-.422 6.639-6.516.048zm-6.977.364l.363 6.63-6.274.844-1.24-6.668zm39.67.058c.936 0 1.695.761 1.695 1.7 0 .937-.759 1.698-1.695 1.698-.935 0-1.694-.76-1.694-1.699 0-.938.759-1.699 1.694-1.699zm45.398.156c3.82.016 7.464 4.422 3.689 9.037 6.192 4.775-.54 12.802-6.013 8.124-7.826 7.706-12.2-2.758-8.961-5.533-4.783-7.878 1.093-12.857 7.155-9.381 1.116-1.588 2.635-2.254 4.13-2.247zm-63.95.189l6.885 1.534-1.385 6.557-6.725-1.37zm22.784.16l6.293 3.135-4.88 4.708-3.626-1.81zm-40.353.743c.936 0 1.694.76 1.694 1.698 0 .939-.758 1.7-1.694 1.7-.936 0-1.694-.761-1.694-1.7 0-.938.758-1.698 1.694-1.698zm13.6.213c.935 0 1.694.76 1.694 1.699 0 .938-.759 1.699-1.695 1.699-2.494-.392-1.823-3.342 0-3.398zm-31.348.956l1.534 6.557-6.376 2.16-2.28-6.387zm4.381.466c.936 0 1.694.76 1.694 1.699 0 .938-.758 1.699-1.694 1.699-.936 0-1.694-.761-1.694-1.699 0-.938.758-1.699 1.694-1.699zm94.382 3.024c-.48.597-1.11 1.301-1.11 1.301-1.586-.655-3.123-.394-4.152.314 0 0-1.093-.874-2.092-1.683-1.73-1.401-2.307-1.722-2.309-1.136 0 .122.587.721 1.302 1.335 1.951 1.673 2.35 2.277 2.35 2.277-.469 1.518-.464 2.708.432 3.985 0 0 .037.166-.648.89-1.243 1.315-2.525 3.345-2.23 3.643.367.37 1.406-.518 2.71-2.283.928-1.259 1.208-1.286 1.208-1.286 1.584.429 2.462.817 4.046-.494 0 0 .598.181 1.792 1.17 1.86 1.539 2.528 1.87 2.73 1.348.165-.425-.08-.71-1.655-1.912-1.026-.782-2.167-1.7-2.167-1.7.335-.55.573-2.51-.574-3.852 0 0 .045.088 1.74-2.116 1.13-1.466 1.325-1.651.951-1.966-.498-.654-2.156 1.956-2.324 2.165zm-49.173-1.878l6.211 2.616-2.222 6.508-5.999-2.456zm-68.346.436c.936 0 1.695.761 1.695 1.7 0 .938-.759 1.698-1.695 1.698-.935 0-1.694-.76-1.694-1.699 0-.938.758-1.699 1.694-1.699zm63.543.175c.936 0 1.695.76 1.695 1.699 0 .938-.76 1.699-1.695 1.699-.936 0-1.694-.76-1.694-1.7 0-.937.758-1.698 1.694-1.698zm-67.88.466l2.033 5.048-4.624-3.456zm50.974 1.3l6.187.734-.978 5.911-5.335-.485zm-6.754.015l-.063 6.077-5.877.252-.499-6.066zm-30.239 1.107c.936 0 1.695.76 1.695 1.699 0 .938-.76 1.698-1.695 1.698-.936 0-1.694-.76-1.694-1.698s.758-1.699 1.694-1.699zm-4.686.121l2.391 6.106-3.708 1.796-4.972-4.718zm22.12.078l.959 5.81-6.13 1.519-1.486-5.912zm87.604.058a2.42 2.42 0 0 1 2.416 2.422 2.419 2.419 0 0 1-2.416 2.422 2.419 2.419 0 0 1-2.415-2.422 2.42 2.42 0 0 1 2.415-2.422zm-71.715.185c.936 0 1.695.76 1.695 1.698s-.759 1.699-1.695 1.699-1.694-.76-1.694-1.699c0-.938.758-1.698 1.694-1.698zm16.693.626l6.536 2.12-2.198 5.247-5.645-1.534zm-28.966.218c.936 0 1.695.76 1.695 1.699 0 .938-.759 1.698-1.695 1.698-.935 0-1.694-.76-1.694-1.698s.759-1.699 1.694-1.699zm24.851.626c.936 0 1.695.76 1.695 1.699 0 .938-.76 1.699-1.695 1.699-.936 0-1.694-.76-1.694-1.7 0-.937.758-1.698 1.694-1.698zm-41.5 1.99l2.251 5.193-6.148 2.665-2.678-5.295zm4.357.31c.936 0 1.695.761 1.695 1.7 0 .938-.76 1.698-1.695 1.698-.936 0-1.694-.76-1.694-1.699 0-.938.758-1.698 1.694-1.698zm22.653 1.568c10.094-.02 19.206 2.095 26.52 5.13l-2.178 2.048c-23.725-8.173-39.241-4.49-55.152 2.505l-1.608-1.99c11.247-5.515 22.324-7.672 32.418-7.693zm26.84.063c.936 0 1.695.761 1.695 1.7 0 .937-.759 1.698-1.695 1.698-.935 0-1.694-.76-1.694-1.699 0-.938.759-1.699 1.694-1.699zm-61.829 3.728c1.362.08 1.492 2.627.857 1.893l-1.515-1.757c.246-.106.464-.148.658-.136zm63.427 1.053c-.05 1.931-1.875 14.874-8.032 23.772-.373-4.5-1.457-9.882-2.667-13.473 0 0 6.625-6.137 10.7-10.299zm-78.764 19.612l32.04 43.312-3.365-.024c-.703-3.18-1.72-6.435-3.718-8.868-1.622-1.975-3.075-3.463-5.984-4.79-1.75-.798-1.976-.628-2.086-1.975-.529-7.575-6.648-12.34-11.334-14.153-.452-4.578-2.514-9.083-7.683-12.876zm-3.12 1.037c2.928 2.017 6.136 3.767 7.865 11.719.13 1.662.231 1.485 1.534 1.974 5.107 1.5 9.549 7.653 9.944 13.032 0 1.622.524 1.766 2.518 2.606 2.449 1.03 4.99 3.212 6.43 5.358 2.14 3.086 2.895 7.76 2.71 7.537l-1.762.01c-1.257-7.923-6.23-11.084-11.49-12.564.41-11.186-8.266-14.677-11.296-15.202.178-8.057-5.022-11.38-8.378-14.084.626-.247 1.925-.385 1.925-.385zm-5.183 1.112c2.621.858 4.607 4.52 4.406 6.204 3.457.437 7.088 3.787 6.291 7.276-.256.148-.66.178-1.059-.223.927-6.77-9.154-3.418-5.126 1.48l-1.8 1.179c-1.45-6.775-3.233-10.613-5.168-15.506.706-.187 2.456-.41 2.456-.41zm8.347 14.193a1.62 1.62 0 0 1 1.617 1.626 1.62 1.62 0 0 1-1.617 1.625 1.624 1.624 0 0 1-1.622-1.625c0-.898.726-1.626 1.622-1.626zm8.653 7.306c3.85 1.092 5.095 4.998 4.969 6.419l-.842-.02c-1.353-6.188-8.39-2.821-5.452 2.114-3.761 1.394-3.464 4.874-2.357 6.25 1.529 1.9 5.426 1.84 6.614-1.083 3.657 4.742 8.702-.58 4.25-5 3.646 1.347 4.23 6.243 3.683 7.772 1.692.579 3.642 3.27 3.381 3.256l-27.315.005s1.322-11.05-.082-19.39c1.818.439 3.036.879 5.127-1.582 3.384 2.809 5.816.69 5.64-1.737-.26-1.697-1.134-2.54-2.585-3.437 2.962-.73 5.201 4.406 4.97 6.433zm3.048 7.785c.923 0 1.67.75 1.67 1.674 0 .925-.747 1.675-1.67 1.675-.922 0-1.67-.75-1.67-1.675 0-.924.748-1.674 1.67-1.674z"/><path d="M3387.15 39.528c-2.161-3.568-4.435-7.037-7.276-10 2.841-2.962 5.115-6.43 7.276-10 2.16 3.57 4.434 7.038 7.275 10-2.84 2.963-5.114 6.432-7.275 10zM3575.102 231.393c-2.161-3.569-4.435-7.037-7.276-10 2.841-2.963 5.115-6.431 7.276-10 2.16 3.569 4.434 7.037 7.275 10-2.84 2.963-5.114 6.431-7.275 10zM3429.59 50.25c-5.186-8.565-10.643-16.89-17.46-24 6.817-7.11 12.274-15.435 17.46-24 5.186 8.565 10.642 16.89 17.46 24-6.818 7.11-12.274 15.435-17.46 24zM3532.66 248.683c-5.185-8.564-10.642-16.889-17.46-24 6.818-7.11 12.275-15.435 17.46-24 5.187 8.565 10.643 16.89 17.462 24-6.819 7.111-12.275 15.436-17.461 24zM3379.881 5.473h-2.758v-3.76h2.758s.021-2.025.1-5.599c.171-7.617.362-8.8 2.567-10.896 4.354-4.143 11.647-.767 11.56 5.463-.125 8.793-.034 17.177-.291 18.364-.457 2.092-.503 2.21-.317 2.592.382.767 3.676 1.1 3.676.885v3.703c-2.516.195-3.561-.04-5.574-1.478-1.257 1.212-5.083 2.43-8.126.998-2.314-1.09-4.068-3.904-3.595-10.272zm9.321 6.563c-1.366-1.974-3.666-4.67-5.83-5.627-.135 2.271.06 4.175.859 5.199 1.27 1.63 3.323 2.003 4.971.428zm1.134-21.719c-1.014-2.873-3.62-3.847-5.524-2.05-1.19 1.119-1.381 2.296-1.407 8.69-.015 3.945-.015 5.602-.015 5.602 3.707 1.202 7.172 5.524 7.142 5.468l.09-11.929a33.467 33.467 0 0 0-.285-5.781zm0 0M3582.37 245.448h2.758v3.76h-2.758s-.02 2.026-.1 5.6c-.17 7.617-.361 8.799-2.566 10.896-4.355 4.143-11.647.767-11.56-5.464.125-8.793.034-17.176.29-18.364.457-2.091.504-2.21.317-2.591-.382-.768-3.676-1.1-3.676-.886v-3.703c2.516-.195 3.562.041 5.575 1.478 1.256-1.212 5.082-2.43 8.126-.997 2.314 1.09 4.068 3.903 3.594 10.271zm-9.32-6.563c1.366 1.975 3.666 4.67 5.83 5.627.135-2.27-.061-4.175-.86-5.199-1.27-1.63-3.323-2.003-4.97-.428zm-1.135 21.72c1.015 2.872 3.62 3.847 5.525 2.049 1.19-1.119 1.38-2.296 1.406-8.69.015-3.944.015-5.602.015-5.602-3.706-1.202-7.171-5.524-7.142-5.467l-.09 11.928a33.467 33.467 0 0 0 .286 5.781zm0 0" fill="#d40000"/></g></svg>