<svg xmlns="http://www.w3.org/2000/svg" width="63mm" height="88mm" viewBox="0 0 223.22835 311.81102"><rect y="370.276" x="260.433" height="311.811" width="223.228" rx="10.678" ry="10.664" fill="#fff" stroke="#000" stroke-width="1.001" transform="matrix(.99554 0 0 .9968 -258.773 -368.593)"/><path d="M17.639 70.248s-2.215-3.18-5.203-6.918c-1.999-2.501-3.596-5.21-3.745-7.543-.17-2.666 1.442-5.34 4.362-5.47 2.919-.129 4.103 2.056 4.586 3.857.482-1.801 1.666-3.986 4.585-3.856 2.92.13 4.533 2.803 4.362 5.469-.148 2.333-1.746 5.042-3.745 7.543a146.776 146.776 0 0 0-5.202 6.918zM205.59 241.563s-2.214 3.18-5.202 6.918c-1.999 2.502-3.596 5.21-3.745 7.544-.17 2.665 1.443 5.339 4.363 5.469 2.918.13 4.102-2.056 4.585-3.857.482 1.801 1.666 3.986 4.585 3.857 2.92-.13 4.533-2.804 4.362-5.47-.148-2.333-1.746-5.041-3.745-7.543a146.776 146.776 0 0 1-5.202-6.918zM111.614 179.829s-4.645-7.631-10.912-16.603c-4.192-6.004-7.544-12.505-7.855-18.105-.358-6.397 3.025-12.814 9.15-13.125 6.121-.311 8.606 4.932 9.617 9.254 1.012-4.322 3.496-9.565 9.617-9.254 6.125.31 9.508 6.728 9.15 13.125-.311 5.6-3.663 12.1-7.855 18.105-6.266 8.972-10.912 16.603-10.912 16.603zM7.59 47.187v-2.813h2.68l5.71-30.082h3.25l6.29 30.082h2.164v2.813H20.31v-2.813h1.99l-.795-4.61h-7.44l-.575 4.61h1.99v2.813H7.59zM20.87 36.48l-3.235-16.1-3.03 16.1h6.265zm0 0M195.542 264.625v2.812h2.68l5.71 30.082h3.25l6.29-30.082h2.164v-2.812h-7.375v2.812h1.99l-.794 4.61h-7.44l-.576-4.61h1.99v-2.812h-7.889zm13.28 10.706l-3.235 16.1-3.03-16.1h6.265zm0 0" fill="#d40000"/></svg>