<svg xmlns="http://www.w3.org/2000/svg" width="63mm" height="88mm" viewBox="0 0 223.22835 311.81102"><rect y="370.276" x="260.433" height="311.811" width="223.228" rx="10.678" ry="10.664" fill="#fff" stroke="#000" stroke-width="1.001" transform="matrix(.99554 0 0 .9968 -258.773 -368.593)"/><path d="M17.639 70.248s-2.215-3.18-5.203-6.918c-1.999-2.501-3.596-5.21-3.745-7.543-.17-2.666 1.442-5.34 4.362-5.47 2.919-.129 4.103 2.056 4.586 3.857.482-1.801 1.666-3.986 4.585-3.856 2.92.13 4.533 2.803 4.362 5.469-.148 2.333-1.746 5.042-3.745 7.543a146.776 146.776 0 0 0-5.202 6.918zM205.59 241.563s-2.214 3.18-5.202 6.918c-1.999 2.502-3.596 5.21-3.745 7.544-.17 2.665 1.443 5.339 4.363 5.469 2.918.13 4.102-2.056 4.585-3.857.482 1.801 1.666 3.986 4.585 3.857 2.92-.13 4.533-2.804 4.362-5.47-.148-2.333-1.746-5.041-3.745-7.543a146.776 146.776 0 0 1-5.202-6.918zM111.614 80.935s-4.645-7.63-10.912-16.603c-4.192-6.004-7.544-12.505-7.855-18.105-.358-6.396 3.025-12.814 9.15-13.125 6.121-.31 8.606 4.932 9.617 9.255 1.012-4.323 3.496-9.566 9.617-9.255 6.125.311 9.508 6.729 9.15 13.125-.311 5.6-3.663 12.101-7.855 18.105-6.266 8.972-10.912 16.603-10.912 16.603zM111.614 230.876s-4.645 7.63-10.912 16.603c-4.192 6.004-7.544 12.505-7.855 18.105-.358 6.396 3.025 12.814 9.15 13.125 6.121.31 8.606-4.932 9.617-9.255 1.012 4.323 3.496 9.566 9.617 9.255 6.125-.311 9.508-6.729 9.15-13.125-.311-5.6-3.663-12.101-7.855-18.105-6.266-8.972-10.912-16.603-10.912-16.603zM8.287 47.116l.16-2.028c.506-6.269 1.85-8.383 9.48-14.927 3.705-3.172 4.92-4.737 5.09-6.552.485-4.283-3.3-5.62-5.765-5.64-3.195-.028-6.81 1.918-5.084 6.442l-3.585 1.075c-.72-4.22.02-8.18 3.375-9.936 4.48-2.291 10.224-1.393 13.125 2.216 1.949 2.421 2.394 5.772 1.349 8.394-3.056 6.7-13.42 9.647-14.274 17.398h11.454v-4.316h3.375v7.945l-18.7-.071zm0 0M214.94 264.695l-.16 2.029c-.506 6.268-1.852 8.382-9.481 14.926-3.705 3.172-4.92 4.737-5.09 6.553-.485 4.282 3.3 5.619 5.765 5.639 3.195.029 6.81-1.918 5.084-6.442l3.585-1.074c.721 4.22-.02 8.179-3.375 9.936-4.48 2.29-10.224 1.392-13.124-2.217-1.95-2.421-2.395-5.772-1.35-8.394 3.056-6.7 13.42-9.647 14.275-17.398h-11.455v4.316h-3.375v-7.944l18.7.07zm0 0" fill="#d40000"/></svg>