<svg xmlns="http://www.w3.org/2000/svg" width="63mm" height="88mm" viewBox="0 0 223.22835 311.81102"><rect y="370.276" x="260.433" height="311.811" width="223.228" rx="10.678" ry="10.664" fill="#fff" stroke="#000" stroke-width="1.001" transform="matrix(.99554 0 0 .9968 -258.773 -368.593)"/><path d="M17.638 70.248s-2.214-3.18-5.202-6.918c-1.999-2.501-3.596-5.21-3.745-7.543-.17-2.666 1.442-5.34 4.362-5.47 2.919-.129 4.103 2.056 4.585 3.857.483-1.801 1.667-3.986 4.586-3.856 2.92.13 4.533 2.803 4.362 5.469-.148 2.333-1.746 5.042-3.745 7.543a146.776 146.776 0 0 0-5.203 6.918zM205.59 241.563s-2.214 3.18-5.202 6.918c-1.999 2.502-3.596 5.21-3.745 7.544-.17 2.665 1.442 5.339 4.362 5.469 2.919.13 4.103-2.056 4.586-3.857.482 1.801 1.666 3.986 4.585 3.857 2.92-.13 4.533-2.804 4.362-5.47-.148-2.333-1.746-5.041-3.745-7.543a146.776 146.776 0 0 1-5.202-6.918zM60.079 80.935s-4.646-7.63-10.912-16.603c-4.192-6.004-7.544-12.505-7.856-18.105-.357-6.396 3.026-12.814 9.15-13.125 6.122-.31 8.606 4.932 9.618 9.255 1.011-4.323 3.496-9.566 9.617-9.255 6.125.311 9.508 6.729 9.15 13.125-.311 5.6-3.663 12.101-7.855 18.105-6.267 8.972-10.912 16.603-10.912 16.603zM163.15 80.935s-4.646-7.63-10.912-16.603c-4.193-6.004-7.544-12.505-7.856-18.105-.357-6.396 3.026-12.814 9.15-13.125 6.122-.31 8.606 4.932 9.618 9.255 1.011-4.323 3.496-9.566 9.617-9.255 6.124.311 9.507 6.729 9.15 13.125-.312 5.6-3.663 12.101-7.855 18.105-6.267 8.972-10.912 16.603-10.912 16.603zM111.614 179.829s-4.645-7.631-10.912-16.603c-4.192-6.004-7.544-12.505-7.855-18.105-.358-6.397 3.025-12.814 9.15-13.125 6.121-.311 8.606 4.932 9.617 9.254 1.012-4.322 3.496-9.565 9.617-9.254 6.125.31 9.508 6.728 9.15 13.125-.311 5.6-3.663 12.1-7.855 18.105-6.266 8.972-10.912 16.603-10.912 16.603zM163.15 230.876s-4.646 7.63-10.912 16.603c-4.193 6.004-7.544 12.505-7.856 18.105-.357 6.396 3.026 12.814 9.15 13.125 6.122.31 8.606-4.932 9.618-9.255 1.011 4.323 3.496 9.566 9.617 9.255 6.124-.311 9.507-6.729 9.15-13.125-.312-5.6-3.663-12.101-7.855-18.105-6.267-8.972-10.912-16.603-10.912-16.603zM60.079 230.876s-4.646 7.63-10.912 16.603c-4.192 6.004-7.544 12.505-7.856 18.105-.357 6.396 3.026 12.814 9.15 13.125 6.122.31 8.606-4.932 9.618-9.255 1.011 4.323 3.496 9.566 9.617 9.255 6.125-.311 9.508-6.729 9.15-13.125-.311-5.6-3.663-12.101-7.855-18.105-6.267-8.972-10.912-16.603-10.912-16.603zM7.282 38.67l3.22-.03c.615 1.985 1.974 4.003 3.82 4.563 5.214 1.25 8.569-1.723 9.674-5.15 1.34-4.156-.03-9.992-3.62-12.063-2.975-1.718-7.394-.27-9.424 3.405l-2.256-1.407 1.211-13.696h14.734v3.237H12.7l-.19 5.706c2.571-1.84 6.52-1.82 9.09-.53 4.865 2.367 7.125 7.747 6.18 14.089-1.31 6.308-4.2 9.882-10.719 10.392-7.25.067-9.81-5.018-9.78-8.515zm0 0M215.944 273.14l-3.22.031c-.615-1.985-1.974-4.003-3.82-4.563-5.214-1.25-8.569 1.723-9.673 5.15-1.34 4.156.03 9.992 3.62 12.064 2.974 1.718 7.394.269 9.423-3.406l2.256 1.407-1.211 13.696h-14.733v-3.237h11.939l.19-5.706c-2.57 1.84-6.52 1.821-9.09.53-4.865-2.367-7.125-7.747-6.18-14.089 1.31-6.307 4.2-9.881 10.72-10.392 7.25-.067 9.81 5.018 9.78 8.515zm0 0" fill="#d40000"/></svg>