<svg xmlns="http://www.w3.org/2000/svg" width="63mm" height="88mm" viewBox="0 0 223.22835 311.81102"><g transform="matrix(-.99554 0 0 -.9968 1848.474 -158.588)"><rect y="-471.408" x="1633.031" height="311.811" width="223.228" rx="10.678" ry="10.664" fill="#fff" stroke="#000" stroke-width="1.001"/><path d="M1692.879-438.713c-9.226 13.157-19.098 20.728-19.262 30.993-.055 3.324 1.742 8.973 7.371 10.055 3.652.698 8.68-2.258 8.785-8.263-.016-1.195 1.266-1.164 1.254.474-.172 4.737-1.671 10.252-4.191 14.74h12.086c-2.52-4.488-4.02-10.003-4.192-14.74-.012-1.638 1.27-1.67 1.254-.474.105 6.005 5.133 8.961 8.785 8.263 5.63-1.082 7.426-6.731 7.371-10.055-.164-10.265-10.035-17.836-19.261-30.993zM1650.248-421.435c-4.31 5.482-8.923 8.637-9 12.914-.025 1.385.815 3.739 3.445 4.19 1.706.29 4.055-.941 4.104-3.443-.01-.498.592-.485.586.197-.08 1.974-.78 4.272-1.958 6.142h5.647c-1.178-1.87-1.878-4.168-1.959-6.142-.01-.682.593-.695.586-.197.049 2.502 2.398 3.733 4.105 3.442 2.63-.45 3.47-2.804 3.443-4.189-.077-4.277-4.688-7.432-8.999-12.914zM1839.043-209.57c-4.311-5.482-8.923-8.637-9-12.914-.026-1.385.814-3.74 3.444-4.19 1.706-.29 4.056.94 4.105 3.443-.01.498.591.485.585-.197-.08-1.974-.78-4.272-1.958-6.142h5.647c-1.177 1.87-1.878 4.168-1.958 6.142-.01.682.593.695.586.197.049-2.502 2.398-3.734 4.104-3.443 2.63.45 3.47 2.805 3.444 4.19-.077 4.277-4.689 7.432-9 12.914zM1796.411-438.713c-9.226 13.157-19.097 20.728-19.261 30.993-.055 3.324 1.742 8.973 7.37 10.055 3.653.698 8.68-2.258 8.786-8.263-.016-1.195 1.266-1.164 1.254.474-.172 4.737-1.672 10.252-4.192 14.74h12.086c-2.52-4.488-4.019-10.003-4.191-14.74-.012-1.638 1.27-1.67 1.254-.474.105 6.005 5.133 8.961 8.785 8.263 5.629-1.082 7.426-6.731 7.371-10.055-.164-10.265-10.036-17.836-19.262-30.993zM1692.879-192.292c-9.226-13.157-19.098-20.729-19.262-30.993-.055-3.324 1.742-8.974 7.371-10.055 3.652-.698 8.68 2.257 8.785 8.262-.016 1.196 1.266 1.165 1.254-.473-.172-4.737-1.671-10.252-4.191-14.741h12.086c-2.52 4.49-4.02 10.004-4.192 14.74-.012 1.639 1.27 1.67 1.254.474.105-6.005 5.133-8.96 8.785-8.262 5.63 1.081 7.426 6.73 7.371 10.055-.164 10.264-10.035 17.836-19.261 30.993zM1796.411-192.292c-9.226-13.157-19.097-20.729-19.261-30.993-.055-3.324 1.742-8.974 7.37-10.055 3.653-.698 8.68 2.257 8.786 8.262-.016 1.196 1.266 1.165 1.254-.473-.172-4.737-1.672-10.252-4.192-14.741h12.086c-2.52 4.49-4.019 10.004-4.191 14.74-.012 1.639 1.27 1.67 1.254.474.105-6.005 5.133-8.96 8.785-8.262 5.629 1.081 7.426 6.73 7.371 10.055-.164 10.264-10.036 17.836-19.262 30.993zM1744.645-339.503c-9.226 13.157-19.098 20.729-19.262 30.994-.055 3.324 1.742 8.973 7.371 10.054 3.652.699 8.68-2.257 8.786-8.262-.016-1.196 1.265-1.165 1.253.474-.172 4.736-1.671 10.251-4.191 14.74h12.086c-2.52-4.489-4.02-10.004-4.191-14.74-.012-1.639 1.27-1.67 1.254-.474.105 6.005 5.133 8.96 8.785 8.262 5.629-1.08 7.426-6.73 7.37-10.054-.163-10.265-10.035-17.837-19.261-30.994zM1639.845-433.114l3.235-.03c.617 1.991 1.982 4.016 3.837 4.577 5.237 1.254 8.607-1.728 9.717-5.166 1.346-4.17-.03-10.024-3.636-12.103-2.988-1.723-7.428-.27-9.467 3.417l-2.265-1.412 1.216-13.74h14.8v3.248h-11.993l-.19 5.724c2.581-1.846 6.549-1.827 9.13-.531 4.886 2.374 7.156 7.772 6.208 14.134-1.317 6.327-4.22 9.913-10.768 10.425-7.283.067-9.855-5.034-9.824-8.542zm0 0M1849.443-197.892l-3.235.031c-.617-1.991-1.983-4.016-3.837-4.578-5.237-1.253-8.607 1.729-9.717 5.166-1.346 4.17.03 10.025 3.636 12.103 2.988 1.724 7.428.27 9.467-3.416l2.265 1.412-1.216 13.74h-14.8v-3.248H1844l.19-5.725c-2.581 1.847-6.549 1.827-9.13.532-4.886-2.374-7.157-7.772-6.208-14.134 1.317-6.328 4.22-9.913 10.768-10.425 7.283-.067 9.855 5.034 9.824 8.542zm0 0"/></g></svg>