<svg xmlns="http://www.w3.org/2000/svg" width="63mm" height="88mm" viewBox="0 0 223.22835 311.81102"><rect y="370.276" x="260.433" height="311.811" width="223.228" rx="10.678" ry="10.664" fill="#fff" stroke="#000" stroke-width="1.001" transform="matrix(.99554 0 0 .9968 -258.773 -368.593)"/><path d="M60.079 146.864s-4.646-7.63-10.912-16.603c-4.192-6.004-7.544-12.505-7.856-18.105-.357-6.396 3.026-12.814 9.15-13.125 6.122-.31 8.606 4.932 9.618 9.255 1.011-4.323 3.496-9.566 9.617-9.255 6.125.311 9.508 6.729 9.15 13.125-.311 5.6-3.663 12.101-7.855 18.105-6.267 8.972-10.912 16.603-10.912 16.603zM17.638 70.248s-2.214-3.18-5.202-6.918c-1.999-2.501-3.596-5.21-3.745-7.543-.17-2.666 1.442-5.34 4.362-5.47 2.919-.129 4.103 2.056 4.585 3.857.483-1.801 1.667-3.986 4.586-3.856 2.92.13 4.533 2.803 4.362 5.469-.148 2.333-1.746 5.042-3.745 7.543a146.776 146.776 0 0 0-5.203 6.918zM205.59 241.563s-2.214 3.18-5.202 6.918c-1.999 2.502-3.596 5.21-3.745 7.544-.17 2.665 1.442 5.339 4.362 5.469 2.919.13 4.103-2.056 4.586-3.857.482 1.801 1.666 3.986 4.585 3.857 2.92-.13 4.533-2.804 4.362-5.47-.148-2.333-1.746-5.041-3.745-7.543a146.776 146.776 0 0 1-5.202-6.918zM111.614 123.44s-4.645-7.631-10.912-16.603c-4.192-6.004-7.544-12.506-7.855-18.105-.358-6.397 3.025-12.815 9.15-13.126 6.121-.31 8.606 4.932 9.617 9.255 1.012-4.323 3.496-9.566 9.617-9.255 6.125.311 9.508 6.729 9.15 13.126-.311 5.6-3.663 12.1-7.855 18.105-6.266 8.972-10.912 16.602-10.912 16.602zM60.079 80.935s-4.646-7.63-10.912-16.603c-4.192-6.004-7.544-12.505-7.856-18.105-.357-6.396 3.026-12.814 9.15-13.125 6.122-.31 8.606 4.932 9.618 9.255 1.011-4.323 3.496-9.566 9.617-9.255 6.125.311 9.508 6.729 9.15 13.125-.311 5.6-3.663 12.101-7.855 18.105-6.267 8.972-10.912 16.603-10.912 16.603zM163.15 146.864s-4.646-7.63-10.912-16.603c-4.193-6.004-7.544-12.505-7.856-18.105-.357-6.396 3.026-12.814 9.15-13.125 6.122-.31 8.606 4.932 9.618 9.255 1.011-4.323 3.496-9.566 9.617-9.255 6.124.311 9.507 6.729 9.15 13.125-.312 5.6-3.663 12.101-7.855 18.105-6.267 8.972-10.912 16.603-10.912 16.603zM163.15 80.935s-4.646-7.63-10.912-16.603c-4.193-6.004-7.544-12.505-7.856-18.105-.357-6.396 3.026-12.814 9.15-13.125 6.122-.31 8.606 4.932 9.618 9.255 1.011-4.323 3.496-9.566 9.617-9.255 6.124.311 9.507 6.729 9.15 13.125-.312 5.6-3.663 12.101-7.855 18.105-6.267 8.972-10.912 16.603-10.912 16.603zM111.614 188.372s-4.645 7.63-10.912 16.603c-4.192 6.004-7.544 12.505-7.855 18.105-.358 6.396 3.025 12.814 9.15 13.125 6.121.31 8.606-4.932 9.617-9.255 1.012 4.323 3.496 9.566 9.617 9.255 6.125-.311 9.508-6.729 9.15-13.125-.311-5.6-3.663-12.101-7.855-18.105-6.266-8.972-10.912-16.603-10.912-16.603zM163.15 164.947s-4.646 7.63-10.912 16.603c-4.193 6.004-7.544 12.505-7.856 18.105-.357 6.397 3.026 12.814 9.15 13.125 6.122.31 8.606-4.932 9.618-9.255 1.011 4.323 3.496 9.566 9.617 9.255 6.124-.311 9.507-6.728 9.15-13.125-.312-5.6-3.663-12.101-7.855-18.105-6.267-8.972-10.912-16.603-10.912-16.603zM60.079 164.947s-4.646 7.63-10.912 16.603c-4.192 6.004-7.544 12.505-7.856 18.105-.357 6.397 3.026 12.814 9.15 13.125 6.122.31 8.606-4.932 9.618-9.255 1.011 4.323 3.496 9.566 9.617 9.255 6.125-.311 9.508-6.728 9.15-13.125-.311-5.6-3.663-12.101-7.855-18.105-6.267-8.972-10.912-16.603-10.912-16.603zM163.15 230.876s-4.646 7.63-10.912 16.603c-4.193 6.004-7.544 12.505-7.856 18.105-.357 6.396 3.026 12.814 9.15 13.125 6.122.31 8.606-4.932 9.618-9.255 1.011 4.323 3.496 9.566 9.617 9.255 6.124-.311 9.507-6.729 9.15-13.125-.312-5.6-3.663-12.101-7.855-18.105-6.267-8.972-10.912-16.603-10.912-16.603zM60.079 230.876s-4.646 7.63-10.912 16.603c-4.192 6.004-7.544 12.505-7.856 18.105-.357 6.396 3.026 12.814 9.15 13.125 6.122.31 8.606-4.932 9.618-9.255 1.011 4.323 3.496 9.566 9.617 9.255 6.125-.311 9.508-6.729 9.15-13.125-.311-5.6-3.663-12.101-7.855-18.105-6.267-8.972-10.912-16.603-10.912-16.603z" fill="#d40000"/><g fill="#d40000"><path d="M7.663 47.187V14.293h3.185v32.894H7.663zm0 0M20.287 14.292c-3.065 0-5.53 2.804-5.53 6.286v20.323c0 3.483 2.466 6.285 5.53 6.285h1.79c3.065 0 5.534-2.802 5.534-6.285V20.578c0-3.482-2.47-6.286-5.534-6.286h-1.79zm.926 3.11c1.81 0 3.265 1.39 3.265 3.13v20.591c0 1.739-1.456 3.142-3.265 3.142-1.81 0-3.27-1.403-3.27-3.142V20.531c0-1.737 1.46-3.129 3.27-3.129zm0 0"/></g><g fill="#d40000"><path d="M215.563 264.625v32.893h-3.184v-32.893h3.184zm0 0M202.939 297.519c3.066 0 5.53-2.804 5.53-6.286V270.91c0-3.483-2.466-6.285-5.53-6.285h-1.79c-3.065 0-5.534 2.802-5.534 6.285v20.323c0 3.482 2.47 6.286 5.535 6.286h1.789zm-.925-3.11c-1.81 0-3.266-1.39-3.266-3.129v-20.592c0-1.739 1.456-3.142 3.266-3.142s3.27 1.403 3.27 3.142v20.592c0 1.737-1.46 3.129-3.27 3.129zm0 0"/></g></svg>