<svg xmlns="http://www.w3.org/2000/svg" width="63mm" height="88mm" viewBox="0 0 223.22835 311.81102"><rect ry="10.664" rx="10.678" width="223.228" height="311.811" x="260.433" y="370.276" fill="#fff" stroke="#000" stroke-width="1.001" transform="matrix(.99554 0 0 .9968 -258.773 -368.593)"/><path d="M111.61 33.503c-9.774.213-14.157 11.218-6.918 19.764 1.05 1.246 1.158 1.962-.765.764-4.874-3.259-14.22-1.116-14.698 8.848-.59 12.276 16.563 15.814 19.784 2.76.17-1.378 1.29-1.347 1.02.608-.294 5.307-1.951 10.266-4.23 15.103h11.621c-2.278-4.837-3.935-9.796-4.229-15.103-.27-1.955.85-1.986 1.02-.609 3.22 13.055 20.375 9.517 19.784-2.76-.479-9.963-9.824-12.106-14.698-8.847-1.923 1.198-1.815.482-.765-.764 7.24-8.546 2.856-19.551-6.918-19.764h-.01zM111.61 279.137c-9.774-.213-14.157-11.218-6.918-19.764 1.05-1.246 1.158-1.962-.765-.764-4.874 3.259-14.22 1.116-14.698-8.848-.59-12.276 16.563-15.814 19.784-2.76.17 1.378 1.29 1.347 1.02-.608-.294-5.307-1.951-10.266-4.23-15.103h11.621c-2.278 4.837-3.935 9.796-4.229 15.103-.27 1.955.85 1.986 1.02.609 3.22-13.055 20.375-9.517 19.784 2.76-.479 9.963-9.824 12.106-14.698 8.847-1.923-1.198-1.815-.482-.765.764 7.24 8.546 2.856 19.551-6.918 19.764h-.01zM205.592 261.5c3.91-.09 5.663-4.675 2.767-8.236-.42-.519-.463-.817.306-.318 1.95 1.358 5.688.465 5.88-3.687.236-5.115-6.626-6.589-7.914-1.15-.068.574-.516.561-.408-.253.118-2.211.78-4.278 1.691-6.293h-4.647c.91 2.015 1.574 4.082 1.691 6.293.108.814-.34.827-.408.254-1.288-5.44-8.15-3.966-7.913 1.15.191 4.151 3.93 5.044 5.879 3.686.769-.5.726-.201.306.318-2.896 3.561-1.143 8.147 2.767 8.235.001 0 0 0 0 0zM17.637 50.312c-3.91.088-5.663 4.674-2.767 8.235.42.52.463.817-.306.318-1.95-1.358-5.688-.465-5.88 3.687-.236 5.115 6.626 6.589 7.914 1.15.068-.574.516-.561.408.253-.117 2.211-.78 4.278-1.691 6.293h4.647c-.91-2.015-1.574-4.082-1.691-6.293-.108-.814.34-.827.408-.253 1.288 5.439 8.15 3.965 7.913-1.15-.191-4.152-3.93-5.045-5.879-3.687-.769.5-.726.201-.306-.318 2.896-3.561 1.143-8.146-2.767-8.235zM7.79 47.116l.16-2.028c.505-6.269 1.85-8.383 9.48-14.927 3.704-3.172 4.919-4.737 5.089-6.552.485-4.283-3.3-5.62-5.765-5.64-3.195-.028-6.81 1.918-5.084 6.442l-3.585 1.075c-.72-4.22.02-8.18 3.375-9.936 4.48-2.291 10.224-1.393 13.125 2.216 1.95 2.421 2.395 5.772 1.349 8.394-3.055 6.7-13.42 9.647-14.274 17.398h11.454v-4.316h3.375v7.945l-18.7-.07zm0 0M214.94 264.695l-.16 2.029c-.506 6.268-1.852 8.382-9.481 14.926-3.705 3.172-4.92 4.737-5.09 6.553-.485 4.282 3.3 5.619 5.765 5.639 3.195.029 6.81-1.918 5.084-6.442l3.585-1.074c.721 4.22-.02 8.179-3.375 9.936-4.48 2.29-10.224 1.392-13.124-2.217-1.95-2.421-2.395-5.772-1.35-8.394 3.056-6.7 13.42-9.647 14.275-17.398h-11.455v4.316h-3.375v-7.944l18.7.07zm0 0"/></svg>