<svg xmlns="http://www.w3.org/2000/svg" width="63mm" height="88mm" viewBox="0 0 223.22835 311.81102"><rect y="370.276" x="260.433" height="311.811" width="223.228" rx="10.678" ry="10.664" fill="#fff" stroke="#000" stroke-width="1.001" transform="matrix(.99554 0 0 .9968 -258.773 -368.593)"/><path d="M163.145 33.503c-9.774.213-14.157 11.218-6.918 19.764 1.05 1.246 1.158 1.962-.765.764-4.873-3.259-14.219-1.116-14.697 8.848-.591 12.276 16.563 15.814 19.783 2.76.17-1.378 1.29-1.347 1.02.608-.294 5.307-1.951 10.266-4.229 15.103h11.62c-2.277-4.837-3.934-9.796-4.228-15.103-.27-1.955.85-1.986 1.02-.609 3.22 13.055 20.374 9.517 19.783-2.76-.478-9.963-9.824-12.106-14.698-8.847-1.923 1.198-1.814.482-.764-.764 7.239-8.546 2.856-19.551-6.919-19.764h-.01zM60.075 33.503c-9.775.213-14.158 11.218-6.919 19.764 1.05 1.246 1.158 1.962-.764.764-4.874-3.259-14.22-1.116-14.698 8.848-.591 12.276 16.563 15.814 19.784 2.76.17-1.378 1.289-1.347 1.02.608-.295 5.307-1.952 10.266-4.23 15.103h11.62c-2.277-4.837-3.934-9.796-4.228-15.103-.27-1.955.85-1.986 1.02-.609 3.22 13.055 20.374 9.517 19.783-2.76-.478-9.963-9.824-12.106-14.698-8.847-1.922 1.198-1.814.482-.764-.764 7.239-8.546 2.856-19.551-6.918-19.764h-.01zM163.145 279.137c-9.774-.213-14.157-11.218-6.918-19.764 1.05-1.246 1.158-1.962-.765-.764-4.873 3.259-14.219 1.116-14.697-8.848-.591-12.276 16.563-15.814 19.783-2.76.17 1.378 1.29 1.347 1.02-.608-.294-5.307-1.951-10.266-4.229-15.103h11.62c-2.277 4.837-3.934 9.796-4.228 15.103-.27 1.955.85 1.986 1.02.609 3.22-13.055 20.374-9.517 19.783 2.76-.478 9.963-9.824 12.106-14.698 8.847-1.923-1.198-1.814-.482-.764.764 7.239 8.546 2.856 19.551-6.919 19.764h-.01zM60.075 279.137c-9.775-.213-14.158-11.218-6.919-19.764 1.05-1.246 1.158-1.962-.764-.764-4.874 3.259-14.22 1.116-14.698-8.848-.591-12.276 16.563-15.814 19.784-2.76.17 1.378 1.289 1.347 1.02-.608-.295-5.307-1.952-10.266-4.23-15.103h11.62c-2.277 4.837-3.934 9.796-4.228 15.103-.27 1.955.85 1.986 1.02.609 3.22-13.055 20.374-9.517 19.783 2.76-.478 9.963-9.824 12.106-14.698 8.847-1.922-1.198-1.814-.482-.764.764 7.239 8.546 2.856 19.551-6.918 19.764h-.01zM111.61 132.397c-9.774.212-14.157 11.217-6.918 19.763 1.05 1.247 1.158 1.962-.765.765-4.874-3.26-14.22-1.117-14.698 8.847-.59 12.277 16.563 15.814 19.784 2.76.17-1.378 1.29-1.346 1.02.609-.294 5.306-1.951 10.266-4.23 15.102h11.621c-2.278-4.836-3.935-9.796-4.229-15.102-.27-1.955.85-1.987 1.02-.61 3.22 13.055 20.375 9.518 19.784-2.76-.479-9.963-9.824-12.106-14.698-8.846-1.923 1.197-1.815.482-.765-.765 7.24-8.546 2.856-19.55-6.918-19.763h-.01zM205.592 261.5c3.91-.09 5.663-4.675 2.767-8.236-.42-.519-.463-.817.306-.318 1.95 1.358 5.688.465 5.88-3.687.236-5.115-6.626-6.589-7.914-1.15-.068.574-.516.561-.408-.253.118-2.211.78-4.278 1.691-6.293h-4.647c.91 2.015 1.574 4.082 1.691 6.293.108.814-.34.827-.408.254-1.288-5.44-8.15-3.966-7.913 1.15.191 4.151 3.93 5.044 5.879 3.686.769-.5.726-.201.306.318-2.896 3.561-1.143 8.147 2.767 8.235.001 0 0 0 0 0zM17.637 50.312c-3.91.088-5.663 4.674-2.767 8.235.42.52.463.817-.306.318-1.95-1.358-5.688-.465-5.88 3.687-.236 5.115 6.626 6.589 7.914 1.15.068-.574.516-.561.408.253-.117 2.211-.78 4.278-1.691 6.293h4.647c-.91-2.015-1.574-4.082-1.691-6.293-.108-.814.34-.827.408-.253 1.288 5.439 8.15 3.965 7.913-1.15-.191-4.152-3.93-5.045-5.879-3.687-.769.5-.726.201-.306-.318 2.896-3.561 1.143-8.146-2.767-8.235-.001 0 0 0 0 0zM7.282 38.671l3.22-.03c.615 1.984 1.974 4.003 3.82 4.563 5.214 1.249 8.569-1.724 9.674-5.15 1.34-4.156-.03-9.993-3.62-12.064-2.975-1.718-7.394-.27-9.424 3.405l-2.256-1.407 1.211-13.696h14.734v3.238H12.7l-.19 5.705c2.571-1.84 6.52-1.82 9.09-.53 4.865 2.367 7.125 7.748 6.18 14.09-1.31 6.307-4.2 9.88-10.719 10.391-7.25.067-9.81-5.018-9.78-8.515zm0 0M215.944 273.14l-3.22.031c-.615-1.985-1.974-4.003-3.82-4.563-5.214-1.25-8.569 1.723-9.673 5.15-1.34 4.156.03 9.992 3.62 12.064 2.974 1.718 7.394.269 9.423-3.406l2.256 1.407-1.211 13.696h-14.733v-3.237h11.939l.19-5.706c-2.571 1.84-6.52 1.821-9.09.53-4.865-2.367-7.125-7.747-6.18-14.089 1.31-6.307 4.2-9.881 10.719-10.392 7.25-.067 9.81 5.018 9.78 8.515zm0 0"/></svg>