<svg xmlns="http://www.w3.org/2000/svg" width="63mm" height="88mm" viewBox="0 0 223.22835 311.81102"><g transform="matrix(.99554 0 0 .9968 -2144.35 1061.095)"><rect ry="10.664" rx="10.678" width="223.228" height="311.811" x="-112.614" y="-210.095" transform="translate(2267.077 -853.906)" fill="#fff" stroke="#000" stroke-width="1.001"/><path d="M2171.68-994.027s-2.225-3.19-5.226-6.94c-2.007-2.51-3.612-5.227-3.762-7.568-.17-2.674 1.45-5.356 4.382-5.486 2.932-.13 4.122 2.061 4.606 3.868.484-1.807 1.674-3.998 4.606-3.868 2.933.13 4.553 2.812 4.382 5.486-.15 2.34-1.755 5.058-3.762 7.568-3.001 3.75-5.226 6.94-5.226 6.94zM2360.475-822.162s-2.225 3.19-5.226 6.94c-2.008 2.51-3.613 5.227-3.762 7.568-.171 2.674 1.449 5.356 4.382 5.486 2.931.13 4.121-2.061 4.606-3.868.484 1.807 1.674 3.998 4.605 3.868 2.933-.13 4.553-2.812 4.382-5.486-.149-2.34-1.754-5.058-3.762-7.568-3-3.75-5.225-6.94-5.225-6.94zM2266.077-933.7s-4.666-7.655-10.961-16.656c-4.211-6.023-7.578-12.545-7.89-18.163-.36-6.418 3.039-12.856 9.19-13.168 6.15-.311 8.645 4.948 9.66 9.285 1.017-4.337 3.513-9.596 9.661-9.285 6.152.312 9.55 6.75 9.191 13.168-.313 5.618-3.68 12.14-7.89 18.163-6.295 9-10.961 16.656-10.961 16.656zM2214.31-983.305s-4.666-7.656-10.96-16.656c-4.211-6.024-7.578-12.546-7.891-18.163-.359-6.418 3.04-12.856 9.191-13.168 6.149-.312 8.645 4.948 9.66 9.285 1.016-4.337 3.512-9.597 9.66-9.285 6.153.312 9.551 6.75 9.192 13.168-.313 5.617-3.68 12.14-7.89 18.163-6.295 9-10.962 16.656-10.962 16.656zM2317.843-884.094s-4.666-7.656-10.96-16.657c-4.212-6.023-7.578-12.545-7.891-18.163-.36-6.417 3.039-12.855 9.191-13.167 6.149-.312 8.644 4.948 9.66 9.284 1.016-4.336 3.512-9.596 9.66-9.284 6.153.312 9.55 6.75 9.192 13.167-.313 5.618-3.68 12.14-7.89 18.163-6.295 9.001-10.962 16.657-10.962 16.657zM2317.843-983.305s-4.666-7.656-10.96-16.656c-4.212-6.024-7.578-12.546-7.891-18.163-.36-6.418 3.039-12.856 9.191-13.168 6.149-.312 8.644 4.948 9.66 9.285 1.016-4.337 3.512-9.597 9.66-9.285 6.153.312 9.55 6.75 9.192 13.168-.313 5.617-3.68 12.14-7.89 18.163-6.295 9-10.962 16.656-10.962 16.656zM2214.31-884.094s-4.666-7.656-10.96-16.657c-4.211-6.023-7.578-12.545-7.891-18.163-.359-6.417 3.04-12.855 9.191-13.167 6.149-.312 8.645 4.948 9.66 9.284 1.016-4.336 3.512-9.596 9.66-9.284 6.153.312 9.551 6.75 9.192 13.167-.313 5.618-3.68 12.14-7.89 18.163-6.295 9.001-10.962 16.657-10.962 16.657zM2317.843-832.884s-4.666 7.656-10.96 16.656c-4.212 6.024-7.578 12.546-7.891 18.164-.36 6.417 3.039 12.855 9.191 13.167 6.149.312 8.644-4.948 9.66-9.285 1.016 4.337 3.512 9.597 9.66 9.285 6.153-.312 9.55-6.75 9.192-13.167-.313-5.618-3.68-12.14-7.89-18.164-6.295-9-10.962-16.656-10.962-16.656zM2214.31-832.884s-4.666 7.656-10.96 16.656c-4.211 6.024-7.578 12.546-7.891 18.164-.359 6.417 3.04 12.855 9.191 13.167 6.149.312 8.645-4.948 9.66-9.285 1.016 4.337 3.512 9.597 9.66 9.285 6.153-.312 9.551-6.75 9.192-13.167-.313-5.618-3.68-12.14-7.89-18.164-6.295-9-10.962-16.656-10.962-16.656zM2166.606-1017.166c2.17-11.473 4.48-20.087 10.546-29.435h-12.33v4.024h-3.273v-7.585h18.035l2.224 3.561c-6.443 7.033-12.339 29.768-11.295 29.435h-3.907zm0 0M2365.546-799.023c-2.17 11.473-4.48 20.087-10.547 29.435h12.33v-4.024h3.273v7.585h-18.034l-2.224-3.561c6.442-7.033 12.339-29.768 11.295-29.435h3.907zm0 0" fill="#d40000"/></g></svg>