<svg xmlns="http://www.w3.org/2000/svg" width="63mm" height="88mm" viewBox="0 0 223.22835 311.81102"><g transform="matrix(1 0 0 1 -3633.726 736.062)"><rect ry="10.63" rx="10.63" width="222.232" height="310.814" x="3634.234" y="-735.562" fill="#fff" stroke="#000" stroke-width=".997"/><path d="M3651.375-665.812s-2.215-3.18-5.202-6.918c-2-2.502-3.597-5.21-3.746-7.544-.17-2.665 1.443-5.34 4.363-5.469 2.918-.13 4.103 2.055 4.585 3.856.482-1.8 1.667-3.985 4.585-3.856 2.92.13 4.533 2.804 4.362 5.469-.148 2.333-1.746 5.042-3.745 7.544-2.987 3.738-5.202 6.918-5.202 6.918zM3839.327-494.497s-2.215 3.18-5.203 6.917c-1.998 2.502-3.596 5.21-3.745 7.544-.17 2.665 1.443 5.34 4.363 5.469 2.918.13 4.103-2.055 4.585-3.856.482 1.801 1.667 3.986 4.585 3.856 2.92-.13 4.533-2.804 4.363-5.469-.149-2.333-1.747-5.042-3.746-7.544-2.987-3.738-5.202-6.917-5.202-6.917zM3653.787-691.24h3.304l-4.854-12.147-3.71 5.13.026 7.016h2.605v3.618h-9.18v-3.618h3.025v-26.12l-3.025.012v-3.163h9.314v3.27h-2.57l-.055 12.73 8.13-12.837h-2.87v-3.163h9.91v3.163h-2.615l-6.694 10.49 6.555 15.624h2.91l.014 3.618h-10.19l-.03-3.624zm0 0M3838.532-467.813h-3.305l4.855 12.146 3.709-5.13-.026-7.016h-2.605v-3.618h9.18v3.618h-3.024v26.121l3.024-.012v3.162h-9.314v-3.27h2.57l.055-12.73-8.13 12.838h2.87v3.162h-9.91v-3.162h2.615l6.694-10.491-6.555-15.623h-2.91l-.014-3.618h10.19l.03 3.623zm0 0" fill="#d40000"/><path d="M3714.91-471.887a284.64 284.64 0 0 0 53.717 1.163c4.758 6.63 14.312 20.15 14.312 20.15l-86.566.707zm-22.48 4.615c2.32-4.723 2.77-9.276 2.328-15.836-.349-5.035 2.774-8.956 5.995-7.453 2.49 1.162 1.34 5.925-1.235 4.917-.985-.386-1.85-.036-1.719 2.227.23 5.575 1.702 11.856.437 17.201-.882 5.194-7.96 2.801-5.806-1.056zm-21.748-7.283c-2.735-4.14 2.165-8.018 5.233-6.108 1.455.687 1.25 2.182-.584 1.385-2.56-1.112-5.314 2.822-3.087 4.402 1.025.727 1.416.63.636-.28-2.075-2.436 3.233-3.512 3.08-1.908-.363 1.954-.409 2.776-.585 3.16-1.081 1.705-3.16.835-4.693-.651zm7.627-17.405c-2.954-3.72.433-6.646.388-6.54.876-.958-7.038-15.842-6.038-15.94 9.996-1.073 20.098-.263 30.114.052 0 .001-5.34 9.691-7.47 14.487-.857 1.932 1.148 4.206.318 5.641-2.578 2.844-.975 5.993-2.583 6.135-4.123-.78-8.51-1.233-13.834-.058-.405-.035-.342-2.516-.895-3.777zm43.267-103.421c5.054 25.957-2.397 53.472-19.48 71.625-2.411-2.338-4.26-6.775-6.665-9.67-6.676-2.022-11.48.359-16.16 2.69-4.16-2.418-8.845-3.841-13.41-3.78l-.149-4.014c4.621-.101 9.5.33 13.616 2.899l6.437-2.636-20.074-21.013.272-3.591 24.358 24.8 3.137.112c-6.894-18.491-.863-47.862 28.118-57.422zm33.965 32.559l3.521 16.95s-19.749 19.753-30.128 29.843l-8.674-.796c4.331-6.504 6.797-13.08 9.675-19.64zm69.99 23.248c-8.268 9.342-18.147 15.282-29.12 21.828-4.386-4.945-9.709-10.383-12.783-15.259 9.57-5.161 18.696-9.16 28.068-18.193-.513.583-11.956 4.502-11.919 4.05-.413 1.929-.164 3.118-2.026 3.626-2.204-3.107-4.336-5.629-7.811-7.017-1.458.132-3.394-.84-3.393-.84.973-.2.544-12.122 0-12.26 1.067-.349 2.145-1.176 3.616.465.68.46 7.274-6.242 9.52-8.532 8.816-.732 16.624.145 25.309-.092-.067 10.61.54 21.612.536 32.224zm-55.978-26.874c-.221-.45-2.446-18.033-.332-29.058 5.802-18.555 4.323-23.724 19.322-41.974.987-.974 4.435 2.168 7.012 7.599 7.486 4.76 17.084-1.383 17.084-1.383s3.726 3.07 12.15 4.747l-.144 3.303c-.042.961-9.475-1.022-11.506-2.94 0 0-7.065 2.379-7.064 2.813 0 1.85 18.817 19.402 18.817 19.402l-.106 4.117c.12.005-25.8-27.14-26.137-24.298 7.337 31.879-5.146 48.029-29.096 57.672zm-31.172-5.604l-.418-16.863 15.877.19.653 17.039zm-72.647-18.228c.424-.598-.618-31.428-.552-31.428 10.104-10.152 19.987-15.826 29.895-21.999 4.48 4.482 8.288 8.264 11.588 13.693l-13.67 8.504c.52 2.073-.828 2.82 7.984 10.889.149-.553 3.052-2.195 3.559.262-1.194 5.186.53 9.595.756 12.383-1.203 1.634-3.893-.12-3.893-.12-1.741-1.832-8.562 7.216-10.51 8.227-8.497-.32-25.634.262-25.157-.41zm95.508-54.817c.06.106 8.743.015 8.661.218-1.579 3.91-5.178 11.69-8.787 20.3-3.013 5.012-24.57 25.884-24.57 25.884-1.021-6.056-2.557-11.962-4.157-17.85zm37.462-29.065c3.125 1.347 11.904.642 13.297.036 1.785 1.224.67 2.857.445 3.763 1.833 2.344 2.837 3.175.755 6.954-.475 0 6.399 15.639 6.583 15.65 0 0-7.264-3.484-9.826-5.837l-5.01 6.733-5.822-7.602c-.021.686-11.217 8.192-11.352 7.83-.352-.357 10.224-11.861 8.126-18.616-.506-1.627.651-3.282 1.442-4.716.543-.984-.187-2.886 1.362-4.195zm-5.811-1.4c.474-.55-2.715-14.692.742-20.399 1.464-2.075 4.113-2.181 5.22-.482.846 2.363-1.675 5.652-2.18 7.258-1.64 4.476.794 10.38-.394 14.61-3.558 9.24-9.86-.909-3.388-.988zm23.687-6.28c-1.876.082-.566-5.582-.257-7.204-.01-.322 3.433-1.133 4.673 1.094 2.002 3.33-.405 7.529-4.416 6.11zm-22.366-28.556l-17.668 21.714c-17.864-2.078-35.79-3.398-54.057-.573l-14.69-20.711z" fill="#e2cf00"/><path d="M3826.985-711.733h-163.269v263.156h163.269zm-32.94 1.366l-19.57 24.33-.481.164c1.304 3.86 3.165 8.674 4.943 12.329 2.83 5.908 9.945 16.765 5.507 25.45-.435.744-.84 1.106-1.384 1.104-.754-.004-.74-.451-.291-1.323.989-1.918 1.659-6.467 1.264-8.873-.252-1.537-1.096-3.905-2.7-7.484-7.437-13.88-9.76-21.279-9.339-21.28a1.708 1.708 0 0 0-.534-.212l-.73-.246c2.576 8.775 6.764 16.152 10.077 22.983 2.719 6.348 3.01 8.81 1.59 13.432-.55 1.789-1.546 2.935-2.525 2.93-.733-.004-.69-.153-.19-1.06 2.604-4.728 2.002-9.887-1.236-15.888-4.703-9.913-7.525-16.184-9.2-22.544-.043-.002-.859-.279-1.152-.35 1.395 6.62 5.292 14.253 8.92 22.065 3 6.016 3.864 10.4 2.782 13.863-.354 1.501-1.486 3.737-2.916 3.803-.559-.003-.647-.298-.119-1.07 2.223-3.854 2.617-7.407-1.36-15.496-3.657-7.438-7.326-15.76-8.58-23.033-.079-.596-1.669-1.303-1.326-.314 1.962 8.588 5.873 17.383 10.025 25.958 2.338 5.322 2.58 8.73.826 11.707-.98 1.665-1.23 2.044-1.966 2.06-.87.02-.854.052-.374-.96 2.121-4.477 1.773-8.42-1.062-14.89-3.888-8.871-7.163-16.213-8.561-24.02-.251-.073-1.567-.59-1.38-.2 1.945 7.438 4.434 14.342 7.64 21.323 1.117 2.422 2.928 7.134 3.513 9.494 1.108 4.494-1.392 10.665-4.662 10.976-1.22.116-1.068-.499.29-1.777 2.34-2.203 2.794-5.715 2-9.79-.596-3.137-1.623-6.504-3.035-9.925-2.854-6.918-5.96-14.157-6.943-20.542.032-.573-1.275-.574-.906.024.705 4.49 2.391 9.603 4.237 14.352 2.02 5.196 5.025 11.018 6.01 17.395.804 5.217-2.413 10.143-6.318 10.437-4.702.354-5.628-4.355-4.497-6.563 1.845-3.296 7.205-1.413 5.611 1.957-.917 1.94-3.717 1.43-3.598-.697-.032-.194.269-.778.215-.81-.097-.056-.508.325-.64.563-.951 1.722 1.908 4.034 3.894 2.65 6.659-3.65 2.162-14.78-.74-21.58-2.81-6.335-4.87-12.06-5.764-17.922-.242-.171-1.342-.453-1.188-.252.806 3.13 1.179 5.77 1.98 8.4 1.258 4.123 3.514 8.74 5.355 13.363 1.672 4.55 3.35 8.416 2.586 13.16-.071.439-.249.965-.544 1.284-.3.318-.546.269-.635-.94-.03-.164-.24-.38-.272-.59.164-1.783.044-3.55-.41-5.227-.39-1.404-1.13-2.837-2.696-5.565-.617-1.016-2.233-4.122-1.666-1.976.325 1.214 1.434 3.912 2.587 5.865.716 1.213 1.468 4.524 1.245 5.164-.235.625-.78.661-1.035.446-.23-.194-.228-1.08-.287-1.628-.241-2.25-2.516-6.175-4.094-7.716-1.133-1.28 2.67 5.444 2.95 7.236.117.76.35 1.377.094 1.75-.168.244-.51.246-.844.159-.322-.084-.308-.308-.65-1.463-.583-1.976-1.304-2.97-2.8-4.752-.513-.61-.856.153-.038 1.143 1.13 1.807 1.979 2.961 2.266 5.285-.732 1.053-1.092.848-2.624-1.816-1.012-1.76-1.62-2.212-1.885-2.2-.671.033-.038.874 1.847 3.88.976 1.605 1 2.602-.11 2.597-.376-.002-2.483-2.35-3.011-3.367-.438-.844-.981-1.492-.983-.46 0 .41 1.305 2.57 2.2 3.618 1.41 1.654 1.815 1.986 1.994 2.718.086.349.256.959.377 1.356.362 1.19.178 1.53-.553.901-.331-.881-.6-.973-1.508-1.652-.766-.572-1.829-2.054-2.525-3.1-.262-.394-.489-.895-.757-1.298-.684-1.293-1.592-1.405-.935-.1.311.605.815 1.597 1.344 2.333.886 1.277.703 1.943-.348 1.938-.45-.002-1.71-1.673-2.496-2.98-.513-.851-1.315-1.454-1.217-.61.024.21.645 1.707 1.575 2.878 1.01 1.271 1.143 1.947.162 1.942-.67-.003-1.246-.65-2.1-1.967-.81-1.25-1.316-1.692-1.546-1.55-.29.18 1.164 2.661 2.358 4.016 1.13 1.281.3 2.01-.997.872-.705-.618-2.115-2.462-2.51-3.338-.708-1.566-1.163-1.138-.707.102.504 1.368 1.289 2.864 2.238 3.836.498.51 1.523.909 2.023 1.347 1.418 1.241 2.316 2.387 2.2 2.591-4.042.231-7.36-4.134-8.27-6.776-.644-1.738-1.38-1.994-.682.46 1.971 6.096 8.116 9.262 12.364 6.53 2.564-1.65.3-5.942-1.799-4.558-.57.375-.596 1.441.13.871 1.362-1.071 2.732 1.572 1.244 2.355-2.09 1.099-4.41-1.053-2.987-3.662 1.406-2.68 7.038-1.146 5.936 3.182-.667 1.943-3.592 4.37-6.098 4.418-4.658.088-7.874-3.525-9.668-7.092-.23-.459-.641-1.36-.982-2.097-.294-.636-.527-1.108-.551-1.103.518 4.331 4.608 9.687 8.271 10.573 6.087 1.447 7.752-2.223 11.734-6.017 0 0 2.91.383 3.011.32.268-.166 5.661-.41 5.822-.257-21.788 39.966-20.13 87.412-1.394 123.426 1.24 2.635 1.456 2.136-.596 1.599-2.12-.56-4.042.3-5.764-.102-3.562-.736-4.321 1.723-7.058 3.037-3.414 1.305-2.641 3.705-3.455 6.026-.256.359-.442.653-.302.606.226-.077.954-.758 1.008-1.357.14-1.536.682-2.75 1.298-3.362.588-.582.999-.877 1.14-.625.112.197.029.884-.262 1.439-.827 1.583.27 6.877.34 3.109.053-2.99 1.845-6.325 4.351-7.689 2.007-.993 2.628-.892.995.637-1.856 2.001-3.117 4.333-3.192 7.235-.03 1.204.442 2.208.611 1.129-.07-5.527 5.387-11.681 11.24-8.622.291.213.538.614.451.84-5.668-.962-10.6 2.17-9.873 9.588 0 0 .509-1.453.794-2.904.893-4.542 5.972-6.53 9.534-5.285.67.285 1.196 1.242 1.103 1.371-4.357-1.383-9.138 2.782-9.415 7.295-.09 1.467-.056 2.726.687.077 2.813-10.026 11.491-5.482 10.425-4.66-6.717-.81-9.148 3.762-8.994 9.049.096.483.342.645.544 1.095.896 1.992 1.303 3.699 1.375 7.314-.068.93.692 6.859-.074 6.609-2.44-.913-4.294-1.99-8.522-.067-.38.02-.505-.192-.374-.526.175-.448.836-1.335 1.989-2.646 2.596-2.8 1.105-2.05-1.03-.107-1.379 1.254-1.08.397.22-3.887.526-1.736.198-1.947-2.068-3.11-2.331-1.2-3.945-1.382-1.966-.127.777.48 1.604.984 2.485 1.34 1.032.57.914.81.153 3.313-1.48 4.862-1.994 6.638-1.917 9.908.188 7.953 7.68 7.164 11.946 5.376l.177 5.236 16.064 22.888s-56.152-.06-86.193.44c1.716-4.167 19.877-21.817 20.958-24.974.103.015-2.014-6.453-3.126-9.267-5.252-13.286-12.157-18.871-8.158-27.6.86-1.73 1.01-2.314 1.664-2.31.887.004 1.17.6.173 2.293-4.293 7.282 4.866 19.847 7.96 27.86.496 1.285 2.57 7.298 2.934 9.324.035.618 1.488.83 1.081.106-1.14-4.095-2.573-8.567-3.238-10.177-2.446-5.917-5.019-9.954-7.403-15.737-1.332-3.654-2.04-7.876.025-11.664.753-1.38.968-2.146 1.464-2.219.428.003.679.15.706.504.03.388-.206 1.023-.768 1.991-3.61 6.215 2.806 16.256 5.984 23.415 2.072 4.668 3.914 9.576 4.567 14.004.01.305.408 1.116 1.203.563-1.374-8.27-5.415-16.289-8.955-24.016-3.023-6.036-4.158-11.297-.117-16.267.351-.343 1.106-.286 1.16.223.028.345-.233 1-.864 2.325-3.56 7.53 1.952 13.648 4.538 20.829 2.523 6.003 4.869 11.046 5.812 17.442.713.274 1.067.617 1.143-.289-1.845-9.039-5.823-17.163-9.274-24.99-1.595-3.402-2.159-5.032-2.267-7.31-.149-3.132 1.41-7.096 2.807-8.14.363-.272.589-.32.92-.138.453.249.362.415-.535 2.131-1.713 3.278-1.86 6.96-.272 10.855 2.744 5.981 5.055 10.89 6.693 15.288 1.791 4.81 2.799 8.986 3.205 12.756 0 0 1.22.549 1.039-.271-.761-5.275-2.483-10.748-4.342-15.38-1.755-4.37-3.954-8.578-5.736-12.911-2.16-5.197-.371-10.879 4.06-13.716l2.04.045c-.119-.054-4.65 1.766-4.888 8.318-.226 6.244 2.697 10.081 4.81 15.37 2.577 6.379 4.883 11.972 5.43 18.79.203.237 1.319.287 1.3.187-.549-4.586-1.872-8.945-3.762-14.303-2.008-5.694-4.005-8.219-5.869-14.197-1.26-4.045-1.091-9.523 1.718-12.027 4.203-4.297 10.069-1.238 8.599 3.681-1.134 3.462-5.82 2.774-5.795-.47-.01-2.095 2.542-2.66 3.385-1.08.196.308.328 1.655.415 1.705.088.05.352-1.06.353-1.308.01-1.72-2.3-3.17-4.018-2.296-2.353 1.196-3.881 3.947-3.726 7.63.164 3.916.866 6.45 4.033 12.591 3.69 7.156 4.915 14.905 5.702 20.126.34-.145.75.04.882 0-.538-7.118-2.85-14.43-5.733-20.508-3.492-7.361-4.47-11.866-3.305-15.164.171-.485.334-.85.544-.882.39-.059.511.573.873 1.894.111.406-.029 1.044-.11 1.536-.304 3.02 1.788 9.299 3.732 12.09.57.795 1.297.769.668-.644-2.003-3.65-3.223-6.957-3.383-11.393-.047-1.304 1.453-.718 1.487-.064.109 2.118.318 4.614 1.319 6.39 2.03 3.515 3.161 3.668 1.083-.257-.462-.91-1.782-4.76-1.25-6.084.296-.27.657-.318.835-.048.588 2.176 1.4 4.33 2.839 6.006.754.873.878.479.482-.61-.662-1.26-2.734-5.473-1.78-6.423.308-.257.127-.117.964 1.264 1.165 1.924 1.8 2.678 2.367 3.24.753.75.936.246.157-1.07-1.554-2.626-2.44-4.809-1.893-5.358.54-.543.67-.292 1.898 1.822.546.941 1.338 2.327 1.608 2.655.269.325.515.41.52.14-.286-2.55-2.453-5.461-3.326-5.967-.125-.237-.08-2.253-.08-2.253 3.255 1.696 3.388 3.608 5.544 6.554.222.22.539-.048.444-.455-.076-.552-1.352-3.002-2.152-4.079-.63-.845-.658-1.33-.124-1.574.862-.394 2.067.902 3.35 3.216.595 1.074 1.39 1.697 1.393 1.134 0-.31-1.106-3.08-1.87-3.88-1.274-1.333-.644-2.265.83-1.032.669.56 1.575.98 2.51 3.018.545 1.19 1.014 1.342 1.016.392 0-1.066-1.771-3.672-2.963-4.393-.924-.559-1.448-1.183-1.188-1.599.809-1.202 4.083 1.865 5.2 4.718.33.842.909 1.272 1.05.901.252-.188-.411-2.244-1.092-3.197-1.124-2.176-3.78-4.279-5.354-4.025-.304.05-1.14-1.734-1.14-1.734 4.014-.655 7.914 4.203 8.608 6.02 1.317 3.45 1.986 3.046.835.02-2.25-5.913-9.24-9.225-13.118-6.365-2.209 1.63-.888 5.525 1.384 4.865.904-.343 1.778-1.273.19-.966-1.767.179-2.33-2.54-.529-3.085 2.899-.877 3.563 3.79 1.222 4.83-2.43 1.052-4.847-.518-4.62-3.212.43-5.093 6.623-6.566 12.737-2.446 1.719 1.158 3.835 4.936 4.562 7.329.24.79 1.05 1.067 1.149.968.232-.234-1.698-4.438-2.333-5.507-2.662-6.159-12.286-6.463-12.286-6.145 0 0-3.77 2.397-7.117 6.347l-8.602-.8c21.915-35.56 23.638-87.84 1.159-124.852.287.187 4.321 1.241 5.712.135 1.026-.496 1.32-.668 2.452-.256 1.276.463 2.62.053 4.009-1.23 1.046-.968 1.067-1.266 1.742-1.178 1.995.261 3.32-.918 3.731-3.826.162-1.143.272-2.33.11-2.156-.094.1-.326 1.09-.473 1.71-.403 1.709-.777 2.334-1.436 2.892-1.085.918-1.713.404-1.26-.988.429-.9.786-3.211.196-4.263-.103-.19-.128.527-.277 1.1-1.185 4.556-2.426 6.87-4.573 7.403-1.008.25-1.474.095-1.148-.491 3.788-4.078 3.535-8.597 3.25-8.21-.805 2.614-2.302 6.51-4.758 8.113-2.121 1.383-5.229 1.515-6.957.353-.982-.66.501-.854 2.723-.885 3.742-.05 7.239-5.099 6.658-9.355-.137-.786-.35.058-.654 1.352-1.38 4.608-3.748 7.844-9.157 6.878-.423-.075-.705-.357-.935-.518-.88-.617-.556-1.04 1.193-.81 3.912.517 7.317-3.188 7.296-7.667-.01-2.149-.315-2.123-.654-.523-.476 2.256-2.214 9.177-8.541 6.917-1.14-.624-1.761-1.423-1.356-1.54 3.69.752 7.073-.068 8.387-4.965.567-2.115.43-4.18-.146-5.91-.183-1.175-.574-2.07-.706-3.264-.353-3.199-.858-6.73-.706-10.23.303-.305.355-.239 1.417.474 2.086 1.4 3.663 1.077 5.784.247 2.728-.995 2.48-.815-.373 2.441-.594.68-1.196 1.508-1.264 1.638-.727 1.374.635.365 1.656-.93 1.418-1.8 1.715-2.215 1.994-2.214.095 1.946-.6 4.31-.959 5.905-.471 1.768-.465 2.176.65 2.63.482.196 1.414.583 1.932.833 2.333 1.126 2.118.21.257-.853-2.512-1.434-2.533-1.362-1.813-3.744.842-2.794 1.257-5.213 1.713-7.978 1.129-6.837-3.976-10.598-10.756-8.21-.387.197-.836-3.594-.773-4.597.06-.362-1.025-.282-1.913-1.385.271-.245-9.997-13.245-14.778-21.129 29.762.075 59.087-.546 86.012-.475zm-22.051 24.418c.066.042.105.077.105.077-.044-.052-.08-.077-.105-.077zm23.239-23.808h29.542v62.873l-2.92.063s-4.8-8.346-6.065-12.288c-.316-.985-.868-2.34-1.083-2.873-.488-1.206-.83-1.355-.182-2.092 1.3-1.476 1.043-4.462-.22-5.9-.39-.467-.592-.309-.572-1.444.017-.975.108-1.599-.148-2.102-.427-.84-.715-.9-.105-1.826.64-.97 1.489-2.543 1.847-3.778.578-1.995.171-2.368 1.46-1.899 3.236 1.041 5.945-1.292 5.86-4.59-.07-2.776-2.639-5.25-5.626-4.492-.689.175-.825.115-1.885-.557-.304-.193-.767-.6-1.16-.75-.491-.19-.898-.174-1.102-.529-.4-.697-1.65-1.805-3.173-1.734-.93.043-2.137-.296-2.458-.465-.53-.28-2.02-.052-3.912-.339-.842-.128-1.52.203-1.928.208-1.166.014-.69-.131-.912-1.027-1.46-4.668-5.727-4.111-7.682-.6-.718 1.377-1.238 3.421-1.508 5.531l-11.49-.174zm-88.928.136c4.292 5.52 8.4 11.706 12.726 17.341 5.325 6.825 5.501 7.61 4.07 14.478-.799 3.882-1.142 4.779-2.762 4.486-1.521-.276-2.809.934-3.016 2.465-.39 2.875 2.352 4.645 5.106 3.207 1.452-.759 1.5-.84 1.016 1.666-.693 3.591-2.083 6.684-2.977 6.583-2.309-4.954-7.926-1.43-6.06 3.72-.585.9.182 2.04.476 2.981 0 0 .012.112-3.196 1.185-15.754 4.714-34.987 17.02-45.64 28.573v-86.448zm90.398 11.795a2.56 2.56 0 0 1 1.822.673c1.374 1.248 1.051 2.99-.849 6.273-1.994 4.572-1.45 8.175-.993 12.977-.013 2.788-.944 5.437-2.428 6.582-2.406 1.856-5.371-.63-4.123-3.148.638-1.252 1.995-.522 2.314-1.705.44-4.365-.633-8.818-.706-13.103.025-1.92.647-4.33 1.508-6.137.84-1.506 2.193-2.38 3.455-2.412zm3.788 7.46c-.546.46-1.455.47-1.562-.104 0-.601.468-2.519.79-2.73 1.97-.466 1.342 2.339.772 2.835zm2.945-2.99c1.627-.064 2.7 4.148 1.288 6.613-.269.05-2.243.038-2.252.077-.033-.44.096-1.32.243-2.16.126-.72.2-1.267-.014-2.04-.534-1.93-.882-2.292.735-2.49zm3.101.059c.06-.002.124 0 .191 0 1.653.008 2.594 3.238 2.076 6.767-.074.506-.117 1.038-.3 1.157-.692-.19-2.61.503-2.644.498-.18-.187-.107-1.19.138-2.096.453-1.674.58-2.789.048-4.52-.382-1.496-.396-1.78.492-1.806zm4.118.93c1.817.309 1.935 5.4 1.189 7.052-.178.244-.863.185-1.107.277-1.545.447-1.2.68-1.022-1.807.123-1.707.153-3.033-.1-4.442-.123-.618-.172-1.049.272-1.09a1.87 1.87 0 0 1 .768.01zm-9.061 1.99c.723 1.004.14 3.325-.41 4.187-.631.951-.884 1.03-.54 1.447.146.176.45 1.076.263 1.453-.347.699.542.824 1.35 1.25 1.31.694 1.945 1.973 2.924 4.301.34.811 1.04.556.7-.318-.29-.747-.403-1.848-.603-2.583-.21-.755.02-1.132.88-.911 1.293.333 1.114.021 1.586-.155 1.038-.581 1.734.242 1.108.698-.36.261-1.127.42-1.977.657-.72.2-.553.904.172.9.67-.002 2.59-.548 3.842-.933 3.59-1.1 3.71-1.686 3.374.383-.443 2.736-1.917 4.789-4.352 5.483-2.12.605-7.015.489-9.195-.218-2.071-.95-2.208-1.615-2.835-3.463-.857-2.53-1.362-6.811-.377-9.3.868-2.101.78-1.88 1.613-1.775.74.262 1.736-.03 1.956-.49.112-.218.394-.62.52-.612zm13.747 1.517c.205 1.125.224 2.282-.162 3.153-.223.409-1.48.387-1.966.392-.287.069-.265-3.802.043-4.223.731-1.112 1.676-.219 2.085.678zm-36.423-.669l3.555.044v.877l-4.195-.03zm12.44.15v1.139l-5.354.01v7.13l5.989.02.033 1.481-8.017-.029.024-9.745 7.32-.005zm27.214-.227c5.488 1.223 3.04 7.377.983 7.75-2.565.465-4.739.172-4.028-2.117.714-1.55.219-3.482.42-4.892.495-.465 1.787-.928 2.625-.741zm-41.382 2.16l5.283.053v1.178l-6.037-.015zm11.734 1.085c.844 0 1.527.694 1.527 1.55 0 .856-.683 1.55-1.527 1.55a1.539 1.539 0 0 1-1.527-1.55c0-.856.684-1.55 1.527-1.55zm14.903.615c.982.11 1.067 1.635.667 2.08-.515.519-1.477.298-1.77-.496-.264-.716.328-1.615 1.103-1.584zm-28.111.664l6.757.02v.954l-6.824.058-.181-.615zm38.036.412c.937-.023 1.511.777.926 1.458-.882.994-2.682-.527-.926-1.458zm-72 2.084c-1.512 1.295-.301 2.568 1.708 1.342 4.32-2.638 10.694-.547 14.848 1.65.814.423.926-.563.124-1.245-3.837-3.429-12.017-5.395-16.68-1.747zm65.474-1.803c1.055.005 1.04 1.34.362 1.817-.677.298-.795.215-1.245.037-.617-.244-.156-1.848.883-1.854zm3.738.02c1.25.063 1.112 2.617-.778 1.696-.685-.747-.24-1.7.778-1.696zm-34.924 1.316l6.566.059v1.085l-6.14-.063zm-42.435 2.553c1.794 1.445 1.238 1.533-1.737.47-1.944-.44-3.88-.159-5.097.33-1.44.577-1.773.41-1.15-.567 1.675-1.908 6.29-1.522 7.984-.233zm8.627 2.393c-.18.45-.795-.36-1.627-.203-1.188.224-.844.28.41 1.729 1.256 1.449 1.666 1.791 1.59 2.35-.113.82.114 1.272.92 1.181.388-.044.848.412 1.441.96 2.054 1.894 3.093 2.836 3.76 3.128 2.72 1.192 1.496-.153-.243-1.37-2.898-2.031-3.906-3.384-1.847-2.66 2.188.77 5.67.333 7.383-.715.843-.517 1.377-1.308 2.567-.922 1.67.542 2.31-.457 1.846-1.017-.758-.494-2.49-1.083-4.132-2.204-3.517-1.811-7.214-1.758-9.677-.3-1.452.858-1.958.255-.535-.596 5.71-3.124 10.226-.132 13.882 2.112.633.39 1.076.358 1.078.082-.097-.907-1.723-1.463-2.381-1.87-5.092-3.145-10.444-4.148-14.435.315zm34.667-2.766l5.707.005v1.143l-5.287-.024zm-46.434 1.458c1.58-.008 5.02 1.433 4.962 2.626-.066.453-.927.046-1.675-.417-1.445-.896-3.665-1.136-5.754-.741-1.604.303-2.115.572-2.343.378-.555-1.264 3.342-1.839 4.81-1.846zm61.709.853l.01 2.049c-3.098.229-3.736 3.723-1.748 5.669 1.63 1.595 4.322.966 5.676-1.295.236-.403.265-.645.41-.446.09.125.169.506.243.877.215 1.075-.09 1.35-.792 2.271-1.135 1.489-1.289 3.365-.578 4.762.196.385.606.933.535 1.187.397-.013-3.518 11.106-9.236 16.71-.957.645-1.65-.114-1.157-1.157 4.658-10.804-4.254-20.84-7.711-30.496l14.349-.131zm-41.405 1.865l.816.072c-.657 4.978-5.415 4.177-5.602.121l.687-.024c.927 3.772 4.11 2.228 4.099-.17zm-26.88.101s.343.556.344.867c0 1.159-.02 2.834-.048 3.343-.276 4.79-6.263 5.677-5.808 1.579.357-1.74 2.522-1.933 3.054-.359.778 1.98.916-.477.926-1.245.634-1.206 1.099-2.671 1.532-4.185zm28.85.34c.246.005.686.223 1.031.6.394.43.247.644-.673 1.124-.995.52-1.446.475-1.088-.577.223-.652.415-1.156.73-1.148zm44.789.251c.135.006.482.187.4.707-.134.87-.875 1.363-1.068 1.158.123-.458.272-1.683.668-1.865zm-51.937 1.681c-.117.352-.322.199-.844-.252-.576-.497-.546-.814.048-1.172.853-.522.905 1.1.797 1.424zm-18.128-1.298c1 3.205 3.036 2.797 3.946.155l.874-.015c-.193 4.127-5.338 4.053-5.383.063zm-1.804.397c.305-.049.086 1.022.086 1.022s-.844-.442-.348-.91a.675.675 0 0 1 .263-.112zm7.56.271c.103-.007.3.075.514.218.5.337.414.534-.157 1.018-.88.744-1.277.33-.802-.669.177-.372.31-.558.444-.567zm65.721.698c.372-.024.894.147 2 .446 3.045.82 7.12.79 10.589-.18 1.095-.306 1.908 1.644 1.317 3.062-.262.626-.215.704.582 1.545 1.13 1.193 1.312 3.116.453 4.868-.625 1.275-.583 1.16.158 3.337 1.59 4.734 3.93 9.136 6.391 13.459l-3.28-1.241s-14.814 12.926-25.262 13.416l3.784 5.987c5.952 2.414 11.644 1.81 17.088-1.667-.135.5 6.623 3.855 12.173 4.22l.033 4.03c-4.118-.469-8.29-.566-12.116-3.009 0 0-3.516 1.493-7.038 2.611l19.727 20.714.01 3.462s-8.421-7.979-17.088-16.973l.186 44.23 17.07.338c-.537 11.511-.32 18.83-.206 32.013-8.066 8.4-19.164 16.804-29.418 21.85-4.84-4.736-8.837-9.868-12.336-15.354-.074-.116.353-.338.28-.454-.107-.169-.713-.232-.824-.399-2.132-3.224-7.088-12.161-6.303-12.371 1.516.106 8.545-.776 9.944-5.052.012-.271-.152-1.034.038-1.928.494-2.318.748-5.837-.09-8.075-1.511-4.032 3.033-2.74 3.187-2.47v-15.234c-5.913 4.812-11.88 9.548-19.784 11.528-4.917-25.156 2.88-56.443 25.11-77.66l-1.22-.106c-22.838 23.986-28.827 50.364-24.93 78.144 0 0 .144.869.167 1.162.053.691-.11.955-.716 1.454-.577.385-1.102.8-1.05 1.274.098.892-.747.92-1.851.915-.51-.452-1.194.118-1.604.325-.573.086-.858-2.288-1.589-.547-.278 1.098-.807 1.18-2.028.634-.767-.227-.784.16-.048 1.06 1.019 1.113 1.88 2.777 1.713 3.275-.374 1.119-.211 2.246 1.346 2.887-.089.007-.94 3.412 1.474 3.313.769.008 2.716.407 2.716.407.126.65-.08 1.02-.382 1.308l-1.68-.852-.439 2.03-2.238-.16 5.445 6.824.635-5.323 6.365.819c1.022 2.69 7.453 17.612 19.746 28.751-.135.365-8.456 3.85-8.456 3.85l-1.317-4.144-1.054 1.54-1.88-.489-.22 1.744-1.675.547 3.019 1.989-7.654 2.217c-21.443-35.108-31.097-83.525-4.393-135.096l6.747.087-1.317 2.287 1.919-.31.542 1.666 1.408-.675 1.416 1.802 1.612-4.813s4.78.11 5.376.048c.468-.053 10.104-8.26 9.897-8.573-.15-.226-10.494 7.448-10.841 7.154 0 0-1.039.251-.23-.731 1.453-1.764 2.478-3.105 3.952-5.639 2.435-3.364 3.53-7.469 4.103-10.25.01-.194.062-.64-.1-.968-.929-1.87-.724-3.092.945-5.299.584-.773.62-.964.453-1.439-.376-1.071-.015-1.988.754-2.707.306-.286.503-.423.792-.441zm-56.854 7.47c4.234 1.764.834 5.674-2.311 2.266-1.649-1.786-2.95-1.672-3.847-.368-.404.588.184 1.62.707 1.293.484-.304.983-.665 1.689-.005 5.355 5.005 9.2-2.001 4.586-3.744-.571-.267-1.383.324-.824.557zm-17.443-.17c.04-.002.087.019.148.058.2.127.215 1.896.014 2.64-.669 3.768-3.316 12.525-8.747 8.239-2.156-1.702-.195-5.976 2.386-4.524 2.016 1.134.655 3.84-1.527 2.286-1.059-.754-.723.8.172 1.245 1.517.805 4.262-.574 5.55-3.032.513-.98.995-2.713 1.536-5.207.272-1.255.295-1.696.468-1.705zm.458 6.524c.447 2.725-1.596 7.497-4.504 8.2-2.227.54-4.98-.933-4.782-2.295.057-.396.217.127 2.233.465 2.817.472 4.61-1.071 6.232-4.626.512-1.122.731-1.719.821-1.744zm7.01 1.303c0 .308-.146 1.12-.272 1.657-.3 1.277-.489 1.761.888 1.128.91-.425 2.24-.847 3.617-.072 1.518.855 2.968.696 4.757-.073 1.554-.525 2.31-.53 3.178-.024 1.583.924 1.04.334.835-1.996-.141-1.64-.582-1.424-1.15-.804-.373.407-1.126.497-1.966.039-1-.545-2.393-.287-2.863.102-.469.387-1.147.44-2.066-.19-.609-.416-.948-.198-1.694.141-1.229.559-1.7.257-2.367-.266-.606-.45-.89-.308-.897.358zm-6.098 1.957c.16-.002.178.628.067 1.894-.513 4.673-4.117 7.275-8.36 5.013-1.86-1.076-1.607-1.836.224-1.162 2.918 1.074 5.864-.428 7.305-4.268.37-.984.622-1.476.764-1.477zm10.354 3.333c2.098.88 4.425.6 5.017-.18.664-.876-.356-.732-.889-.6-1.836.446-3.098.283-3.841-.054-2.175-.852-2.038.072-.287.834zm-21.888 2.62c2.72 3.38 3.078 4.04 5.42 7.881 17.129 29.51 22.614 66.81 11.353 100.67-3.09 9.343-7.448 18.865-12.335 26.514l-5.865.063 2.014-2.33-2.73.204-.167-1.54-2.07.678-.998-2.325-1.875 5.323-10.87.03c25.459-25.114 30.473-55.55 25.725-79.982 0 0 2.128-1.35 2.424-2.141.072-.192.23-1.008.377-1.129.946-.628 1.575-1.239 2.042-1.119.269.07.407.195.601.485.897 1.334 1.09 1.542 1.58.198.351-.964.2-1.313 1.355-1.128.676.364 1.575.354 1.493.218-.06-.101-1.02-1.245-1.474-1.894-1.075-1.535-1.383-1.813-1.284-2.485.151-1.024-.652-2.13-1.154-2.407.144-2.76-.9-3.036-3.856-3.653a2.582 2.582 0 0 1 .272-1.288l1.737 1.405.63-2.606 2.357.13-6.833-6.713c.034 1.894.122 3.808-.048 5.633-3.204-.177-6.364-1.226-6.412-1.027-4.703-11.242-11.87-20.748-19.437-28.167l7.558-3.686 2.143 4.147.525-2.35 1.875.335.315-1.507 2.071-.295-2.286-2.204zm45.013 4.849c.289.37.52.395.906.731l-.773.557c.037-.527-.01-.797-.133-1.288zm-50.29 1.385c-.642 0-1.165.531-1.165 1.182 0 .65.523 1.177 1.164 1.177.641 0 1.16-.526 1.16-1.177 0-.65-.518-1.182-1.16-1.182zm6.306.187c-.643 0-1.164.53-1.164 1.182 0 .653.521 1.182 1.164 1.182.643 0 1.164-.529 1.164-1.182 0-.652-.52-1.182-1.164-1.182zm-20.317.864c3.743 3.158 7.184 7.272 11.357 13.708l-.086.867 1.274.48s6.943 9.276 6.576 13.398c-2.384.505-4.561-.151-8.822 3.894-2.012-1.098-3.205-.747-5.288-.13 0 0 .037.917.754 1.225 1.386-1.652 2.896-.886 3.717-.475-.294.128-1.047 9.343.415 11.306 1.101 3.129-1.792 2.535-3.798 1.763l.577 14.633c6.603-7.646 20.55-12.746 19.56-12.192 7 37.532-9.642 62.57-27.061 80.921l9.128.054s-7.87 12.814-8.455 16.357c.447 1.177 1.685 3.617-.406 5.328-.707.788-.783 4.36-.783 4.36-4.8.168-8.961-1.524-14.496.446-.573.195-.698-3.06-.726-3.648-3.093-2.783-.26-7.565.16-7.213-2.497-7.443-7.517-16.329-7.517-16.329s-3.026-.163-4.868-.27c-.384-.327-.633-9.004-.244-9.213 13.682 1.101 35.093-.16 35.093-.16l-5.746-8.147c-7.076-2.8-16.8 1.981-16.332 2.233.023.028-7.773-4.315-13.18-3.697l.177-4.256c4.804-.019 9.236.889 13.104 3.205l6.573-2.484-20.147-21.453.234-3.536c6.566 6.167 17.336 18.096 17.336 18.096l.014-45.038-17.322-.043-.462-9.092-.449-.795-.205-6.524.482-.664-.167-2.79-.162-.397-.22-6.665.372-.562.057-4.195c8.37-8.317 29.982-22.306 29.982-22.306zm14.798 1.264l2.018 8.981 1.355-1.705 2.081.664.143-2.069 1.895-.668zm68.835 1.494c-.643 0-1.164.53-1.164 1.182 0 .653.52 1.182 1.164 1.182.643 0 1.164-.53 1.164-1.182 0-.653-.521-1.182-1.164-1.182zm-5.45.74c-.643 0-1.164.529-1.164 1.181 0 .653.521 1.182 1.164 1.182.643 0 1.165-.529 1.165-1.182 0-.652-.522-1.181-1.165-1.181zm-66.745 1.046c-.643 0-1.164.529-1.164 1.182 0 .652.521 1.182 1.164 1.182.643 0 1.165-.53 1.165-1.182 0-.653-.522-1.182-1.165-1.182zm70.924.712l-8.102 7.735 2.271-.096.407 2.257 2.033-.945 1.645 1.54zm3.448 2.6c-.643 0-1.164.528-1.164 1.181s.521 1.182 1.164 1.182c.643 0 1.165-.53 1.165-1.182 0-.653-.522-1.182-1.165-1.182zm-64.437 1.522c-.643 0-1.164.53-1.164 1.182 0 .653.521 1.182 1.164 1.182.643 0 1.165-.53 1.165-1.182 0-.653-.522-1.182-1.165-1.182zm5.04.988c-.644 0-1.165.53-1.165 1.182 0 .653.521 1.182 1.164 1.182.643 0 1.165-.53 1.165-1.182 0-.653-.522-1.182-1.165-1.182zm-4.572 1.758c.223 3.16.587 6.909.668 10.076l1.537-1.536 1.775.731.63-1.942 1.932-.097zm49.89 2.637c-.644 0-1.165.529-1.165 1.182 0 .652.521 1.182 1.164 1.182.643 0 1.165-.53 1.165-1.182 0-.653-.522-1.182-1.165-1.182zm-53.23.207c-.643 0-1.165.529-1.165 1.182 0 .652.522 1.181 1.165 1.181s1.164-.529 1.164-1.181c0-.653-.521-1.182-1.164-1.182zm57.845.287c-.643 0-1.164.529-1.164 1.182 0 .652.615 1.182 1.164 1.182.549 0 1.164-.53 1.164-1.182 0-.653-.52-1.182-1.164-1.182zm-.69 2.553l-6.717 7.012 2.2.208.691 1.99 1.408-1.21 1.709 1.27zm3.689 1.503c-.644 0-1.165.529-1.165 1.182 0 .652.521 1.182 1.165 1.182.643 0 1.164-.53 1.164-1.182 0-.653-.521-1.182-1.164-1.182zm-52.961 2.186c-.643 0-1.165.53-1.165 1.182 0 .653.522 1.182 1.165 1.182s1.164-.625 1.164-1.182c0-.557-.521-1.182-1.164-1.182zm-28.698.959l-1.696 1.316c1.398.553 2.184 1.742 2.184 1.742 0 .001-.189-.698-.488-3.058zm34.204.795c-.643 0-1.164.529-1.164 1.182 0 .652.521 1.181 1.164 1.181.644 0 1.165-.529 1.165-1.181 0-.653-.521-1.182-1.165-1.182zm-8.34 1.685c-.644 0-1.165.53-1.165 1.182 0 .653.521 1.182 1.164 1.182.643 0 1.165-.53 1.165-1.182 0-.653-.522-1.182-1.165-1.182zm48.1 2.382c-.644 0-1.165.529-1.165 1.182 0 .652.521 1.181 1.164 1.181.643 0 1.165-.529 1.165-1.181 0-.653-.522-1.182-1.165-1.182zm-4.596 1.734c-.643 0-1.164.529-1.164 1.182 0 .653.521 1.182 1.164 1.182.643 0 1.164-.53 1.164-1.182 0-.653-.521-1.182-1.164-1.182zm46.907.292l2.42 2.67v39.05l-2.363.048zm-94.181.276c1.97.003 4.168.291 4.867 1.507 1.088 1.363-1.226.836-3.173 1.133-1.8.223-.756.596 1.784.746 3.502.21 4.877.303 5.398 1.122.296.763.08 1.278.142 2.1l-3.975-.19c-2.061.003-3.272-.037-3.884.121-.487.127-.347.523-.181.693.087.09 1.669.11 3.517.16 4.974.133 6.074.303 6.427 1.928.267 1.49-.93 1.263-6.04.697-2.275-.188-3.499.355-3.828.519-.56.279 1.625.554 2.338.436.447-.072 3.727.288 4.934.518 1.016.156.122.128-.39.755-.34.52-.233 1.117-.764 1.41-.652.35-1.944.343-4.262.344-2.65 0-3.885.653-.248.814 2.35.103 2.482.062 2.682.75.53 1.698-.6 1.997-2.997 2.384-1.145.2-2.844.087-4.127-.005-5.07-.366-6.826-1.593-7.511-3.86-2.557-8.462.599-13.627 7.983-14.043.41-.022.853-.04 1.308-.039zm51.236.378l-5.724 8.452 2.206-.871 1.05 2.29 1.765-1.278 1.764 1.104zm-42.828 1.027c.296.368.166.644-.325.915-.414.23-1.122.06-1.589-.145-.616-.27-.678-1.386-.172-1.506.727-.148 1.63.196 2.086.736zm-41.463-.431l-2.627 2.906s2.418-.877 3.715-1.395zm87.86 1.298c-.642 0-1.164.53-1.164 1.182 0 .653.522 1.182 1.165 1.182s1.164-.53 1.164-1.182c0-.653-.521-1.182-1.164-1.182zm42.621 1.022s2.916 2.924 4.113 4.151l-1.083-.005.03 2.306 3.45.039 1.894 1.884-5.268-.024v2.354l6.523.005-.033-1.008 2.576 2.369.306 26.186-12.43-.04c-.047-12.893-.012-25.323-.077-38.217zm-85.277 2.839c-.18.566-.579.567-1.26.285-1.009-.416-.865-1.546-.1-1.666 1.443-.167 1.71.508 1.36 1.38zm3.913.494c-.644 0-1.165.529-1.165 1.182 0 .652.521 1.181 1.165 1.181.643 0 1.164-.529 1.164-1.181 0-.653-.521-1.182-1.164-1.182zm-4.1.905c.455.029.907.266 1.165.524.637.652.411 1.26-.3 1.637-.8.422-1.362-.153-1.595-1.114-.157-.648.217-1.025.73-1.047zm36.551 3.1c-.646 0-1.169.531-1.169 1.187 0 .655.523 1.187 1.17 1.187.645 0 1.168-.532 1.168-1.187 0-.656-.523-1.187-1.169-1.187zm-38.478 1.44c1.003.033 1.306 1.074.782 1.631-.751.756-1.92.433-2.085-.29-.053-.813.6-1.342 1.303-1.342zm34.306.478c-.643 0-1.164.53-1.164 1.182 0 .653.52 1.182 1.164 1.182.643 0 1.164-.529 1.164-1.182 0-.652-.521-1.182-1.164-1.182zm4.135.785l-5.21 8.874 2.109-.847 1.279 1.71 1.317-1.168 1.99.988zm-40.89 1.483c.933.004 1.194.747.516 1.428-.46.463-.98.478-1.513.049-.805-.65-.187-1.483.998-1.477zm44.54.11c-.642 0-1.163.528-1.163 1.181s.52 1.182 1.164 1.182c.643 0 1.164-.53 1.164-1.182 0-.653-.521-1.182-1.164-1.182zm-37.935.931c-.643 0-1.117.53-1.117 1.182 0 .653.522 1.182 1.165 1.182s1.164-.53 1.164-1.182c0-.653-.569-1.182-1.212-1.182zm86.327.262v2.509l6.566.005v-2.51zm-86.241 2.228l-2.515 9.324 2.104-1.216 1.313 1.361 1.221-1.525 2.195.58zm4.471 1.012c-.643 0-1.164.53-1.164 1.182 0 .653.521 1.182 1.164 1.182.643 0 1.164-.53 1.164-1.182 0-.653-.52-1.182-1.164-1.182zm-8.198.475c-.643 0-1.164.529-1.164 1.182 0 .652.521 1.182 1.164 1.182.643 0 1.164-.53 1.164-1.182 0-.653-.52-1.182-1.164-1.182zm89.963.736v2.252h6.566v-2.237zm-54.033 2.945c-.643 0-1.164.529-1.164 1.182 0 .652.521 1.182 1.164 1.182.643 0 1.165-.53 1.165-1.182 0-.653-.522-1.182-1.165-1.182zm54.038 1.26v2.426h6.566v-2.427zm-135.386.295l2.31.044.037 42.3-2.252-2.416zm-.964.082l-.115 38.664-4.375-4.67 1.164-.014v-2.635l-3.789-.03-1.618-1.598 5.402.005v-2.586l-6.408-.025v1.565l-3.15-3.41.053-25.246zm82.484 1.182l-3.506 9.199 2.205-1.274 1.14 1.138 1.18-1.08 2.003.993zm-92.21.44l-.032 2.476h6.47v-2.475zm96.18.5c-.643 0-1.164.529-1.164 1.181 0 .653.521 1.182 1.164 1.182.643 0 1.165-.529 1.165-1.182 0-.652-.522-1.181-1.165-1.181zm-7.924.132c-.643 0-1.165.529-1.165 1.182 0 .652.522 1.182 1.165 1.182s1.164-.53 1.164-1.182c0-.653-.521-1.182-1.164-1.182zm-27.4.44c-.643 0-1.164.529-1.164 1.181 0 .653.521 1.182 1.164 1.182.643 0 1.164-.529 1.164-1.182 0-.652-.52-1.182-1.164-1.182zm85.22.954v2.6h6.566v-2.6zm-85.363 1.467l-.974 1.526-2.228-.77 3.04 9.334 3.812-9.736-2.19 1.269zm-60.712.678v2.47h6.437v-2.47zm146.075 2.214v2.577h6.561v-2.577h-6.566zm-146.075 2.156v2.475h6.437v-2.475zm92.125.465c-.646 0-1.17.53-1.17 1.186 0 .656.524 1.187 1.17 1.187.646 0 1.169-.531 1.169-1.187 0-.655-.523-1.186-1.17-1.186zm-35.054 1.235c-.646 0-1.17.531-1.17 1.187 0 .655.524 1.186 1.17 1.186.646 0 1.17-.531 1.17-1.186 0-.656-.524-1.187-1.17-1.187zm7.473.223c-.646 0-1.17.53-1.17 1.186 0 .656.524 1.187 1.17 1.187.645 0 1.169-.531 1.169-1.187 0-.655-.524-1.186-1.17-1.186zm81.531.164v2.325h6.561v-2.325h-6.566zm-53.96 1.085l-1.393 1.487-2-.576 4.534 8.583 2.29-9.232-2 1.293zm-92.115.872v2.81h6.437v-2.81zm60.755 1.274c-.646 0-1.17.531-1.17 1.187 0 .655.524 1.187 1.17 1.187.645 0 1.169-.532 1.169-1.187 0-.656-.524-1.187-1.17-1.187zm-.076 2.446c-.498.36-.716.988-1.236 1.313l-2.128-.92 1.279 11.688 5.907-11.044-2.7.46zm-60.679.383v2.92h6.437v-2.92zm96.684 1.355c-.646 0-1.17.53-1.17 1.186 0 .656.524 1.187 1.17 1.187.645 0 1.169-.531 1.169-1.187 0-.655-.524-1.186-1.17-1.186zm-7.559.135c-.645 0-1.169.531-1.169 1.187 0 .655.524 1.187 1.17 1.187.645 0 1.168-.532 1.168-1.187 0-.656-.523-1.187-1.169-1.187zm-89.125 2.748v2.926h6.437v-2.926zm93.342.653c-.646 0-1.17.53-1.17 1.186 0 .656.524 1.187 1.17 1.187.646 0 1.169-.531 1.169-1.187 0-.655-.523-1.186-1.169-1.186zm16.504.093c6.26.203 7.177 2.248 7.214 9.305.03 5.633-1.624 7.834-5.664 8.92-1.472.396-6.976.03-8.536-.477-.026-.483-.804-1.602-.98-2.463.398-.115 1.655.063 4.036.293 1.931.186 2.428-.128 1.818-.513-3.633-.87-6.106-.634-9.596-1.313-.05-1.06-.893-2.293-.893-2.293.19-.077 5.38.49 8.119.402 1.206-.05.48-.625-.01-.731-3.194-.464-5.268-.39-8.646-.822.092-.877-.348-1.674-.892-2.345 0 0 1.708-.015 5.23.04 1.853.028 3.466.106 4.276.078 1.361-.002 1.237-.646.057-.734-1.438-.163-7.101-.197-7.101-.197.421-.198.971-2.772.754-2.8 0 0 1.467.03 2.4-.005 4.538-.172 5.321-.1 5.406-.271.597-.553-1.013-.77-2.69-.766-.724.002-1.779.163-1.771-.237.01-.367-.01-1.12-.379-1.896 2.784-1.088 5.344-1.256 7.845-1.175zm-53.977 1.449c-.646 0-1.17.53-1.17 1.186 0 .656.524 1.187 1.17 1.187.646 0 1.169-.531 1.169-1.187 0-.655-.523-1.186-1.17-1.186zm44.66.247c.771.004 1.014 1.412.29 1.632-1.11.337-1.718.072-1.68-.596.023-.378.89-1.039 1.39-1.036zm-37.025 1.225c-.646 0-1.17.531-1.17 1.187 0 .655.524 1.187 1.17 1.187.645 0 1.169-.532 1.169-1.187 0-.656-.524-1.187-1.17-1.187zm33.293 1.332c2.646-.024 1.276 3.628-.759 2.31-1.009-.653-.299-2.302.759-2.31zm-41.84 2.92c-.054-.004-.083.05-.076.185l.611 11.102 6.366-10.37-2.53.954-1.087-1.676-1.365 1.09c-.562.448-1.625-1.257-1.918-1.284zm39.387 1.137c1.187.168 1.979 1.374 1.155 1.954-1.856.825-2.849-1.873-1.155-1.954zm-2.85 2.437c-.646 0-1.17.531-1.17 1.187 0 .655.524 1.186 1.17 1.186.645 0 1.169-.53 1.169-1.186 0-.656-.524-1.187-1.17-1.187zm4.496 1.004c1.011-.015 1.487 1.474.487 1.943-.213.1-.846.17-1.126-.04-1.18-.883-.569-1.809.64-1.903zm-43.773 1.831c-.646 0-1.17.531-1.17 1.187 0 .655.524 1.187 1.17 1.187.645 0 1.169-.532 1.169-1.187 0-.656-.524-1.187-1.17-1.187zm89.301 1.487l-4.332 1.478v2.08c1.891-.611 2.972-2.171 4.333-3.558zm-40.603 1.004c.751.32.955 1.354.31 1.7-.51.274-1.89.23-2.227-.22-.875-1.424 1.007-1.828 1.917-1.48zm-40.847.41c-.646 0-1.169.532-1.169 1.188 0 .655.523 1.186 1.17 1.186.645 0 1.168-.531 1.168-1.186 0-.656-.523-1.187-1.169-1.187zm-4.79 2.051c-.569 0-1.03.469-1.03 1.046 0 .578.462 1.047 1.03 1.047.57 0 1.031-.469 1.031-1.047 0-.577-.461-1.046-1.03-1.046zm48.598 1.765c-.645 0-1.169.531-1.169 1.187 0 .655.524 1.187 1.17 1.187.645 0 1.169-.532 1.169-1.187 0-.656-.524-1.187-1.17-1.187zm-52.364.065l-.057 10.487 6.89-8.584-2.39.528-1.021-2.126-1.475.973zm43.737 2.415c-.646 0-1.169.531-1.169 1.187 0 .655.523 1.187 1.17 1.187.645 0 1.168-.532 1.168-1.187 0-.656-.523-1.187-1.169-1.187zm34.483.04l-1.13 1.957 3.206-1.806zm-29.816 1.394c-.646 0-1.17.531-1.17 1.187 0 .655.524 1.186 1.17 1.186.645 0 1.169-.531 1.169-1.186 0-.656-.524-1.187-1.17-1.187zm3.938 1.28l-1.398 2.025-1.842-.6-.544 1.927-2.209-.082 7.182 6.345zm-55.975.81c-.646 0-1.169.532-1.169 1.187 0 .656.523 1.187 1.17 1.187.645 0 1.168-.531 1.168-1.187 0-.655-.523-1.186-1.169-1.186zm107.483 2.85v86.232h-40.046l-16.81-23.636c-.347-3.796-.146-7.693 1.428-12.787 1.644 1.156 5.245.525 5.123-3.956-.08-2.934-4.535-4.435-6.755-2.227.114-2.836 1.249-7.098 2.882-8.355 1.122 1.035 1.37 2.566 3.906 2.138 1.802-.304 3.229-2.349 2.448-4.73a6.357 6.357 0 0 1-.305-1.831c0-.492.047-1.366-.048-1.855a12.735 12.735 0 0 1-.172-1.347c18.717-4.323 35.034-15.825 48.348-27.645zm-99.298.348c-.645 0-1.169.53-1.169 1.186 0 .656.524 1.187 1.17 1.187.645 0 1.168-.531 1.168-1.187 0-.655-.523-1.186-1.169-1.186zm-5.513 1.159c-.645 0-1.169.531-1.169 1.187 0 .655.524 1.186 1.17 1.186.645 0 1.169-.531 1.169-1.186 0-.656-.524-1.187-1.17-1.187zm57.85.571c-.645 0-1.168.532-1.168 1.187 0 .656.523 1.187 1.169 1.187.645 0 1.169-.531 1.169-1.187 0-.655-.524-1.187-1.17-1.187zm-62.042 1.266l-1.823 11.05 7.96-8.26-2.162-.048-.43-1.884-2.023.663zm54.117 2.358c-.646 0-1.17.53-1.17 1.186 0 .656.524 1.187 1.17 1.187.645 0 1.169-.531 1.169-1.187 0-.655-.524-1.186-1.17-1.186zm5.158 1.288c-.646 0-1.169.531-1.169 1.187 0 .655.523 1.186 1.17 1.186.645 0 1.168-.53 1.168-1.186 0-.656-.523-1.187-1.169-1.187zm-64.233 1.44c-.646 0-1.17.532-1.17 1.187 0 .656.524 1.187 1.17 1.187.645 0 1.169-.531 1.169-1.187 0-.655-.524-1.187-1.17-1.187zm68.886.897l-1.904 1.467-1.752-1.087-.41 2.347-1.493.794 6.265 4.456zm4.63 3.16c-.646 0-1.17.53-1.17 1.186 0 .655.524 1.187 1.17 1.187.645 0 1.169-.532 1.169-1.187s-.524-1.187-1.17-1.187zm-66.11.4c-.646 0-1.17.531-1.17 1.186 0 .656.524 1.187 1.17 1.187.645 0 1.169-.531 1.169-1.187 0-.655-.524-1.186-1.17-1.186zm-5.192 1.55c-.646 0-1.17.531-1.17 1.187 0 .655.524 1.186 1.17 1.186.645 0 1.169-.531 1.169-1.186 0-.656-.524-1.187-1.17-1.187zm68.307 3.137c-.646 0-1.17.531-1.17 1.187 0 .655.524 1.186 1.17 1.186.645 0 1.169-.53 1.169-1.186 0-.656-.524-1.187-1.17-1.187zm-4.9 1.062c-.647 0-1.17.532-1.17 1.187s.523 1.187 1.17 1.187c.645 0 1.168-.532 1.168-1.187s-.523-1.187-1.169-1.187zm-45.262 1.69c.01 0 .015.005.02.01.131.143.537 1.222.176 1.772-.186-.089-1.026-.883-.811-1.152.099-.125.507-.631.615-.63zm-26.53 1.86s1.132.06 1.38.17c0 .293-.272.934-.578 1.652-1.526 3.586-1.76 7.606-.21 11.48 2.433 5.259 9.3 17.7 8.79 18.838l-15.174.063.066-2.343c4.263-.17 4.934-2.816 3.87-5.004-.737-1.515-2.802-2.382-4.691-1.587-2.727 1.149-2.895 2.517-3.869 4.637l-.434-.56c.82-1.104 1.093-2.166 1.026-3.376-.066-1.188-.101-.86.308-1.511 2.374-2.59.82-5.962.82-5.962-.284-2.07 7.106-15.283 8.697-16.496zm-34.7.34c4.316 3.486 8.051 15.227 7.826 15.408-.2-.165-3.478 3.772.052 7.44 0 0-.216 2.205.463 3.338-1.56 3.283-1.834 3.531-1.966 6.229-.03-.01-.271-.032-1.718-.039-7.151-.034-7.485 9.196-.339 9.702.978.07 1.314-.155 1.904.436.598.754 1.135 1.51 2.157 1.12.243.001.635.232 1.045.62.687.943 1.684 1.614 3.106 1.356.505.05 1.02.196 1.565.397.626.5 1.713.88 2.563.503.253-.112.74-.149 1.136.034 1.032.478 2.084.18 2.471-.12.96-.506 1.172.304 1.127 1.05-.49 1.709.585 3.31 2.214 3.938 3.433 1.077 5.164-1.066 5.902-5.318.183-.932.344-2.04.344-2.04l11.495.306-16.505 19.346h-28.739v-63.735c1.235-.074 2.66.03 3.896.03zm103.363 3.463c2.096.82 2.263 2.324.176 1.671-3.391-1.06-7.04 1.044-7.802 4.05-.14.554-.29.974-.377 1.08-.474.583-.451.051-.31-1.618.274-3.239 2.53-5.585 5.473-5.682a8.994 8.994 0 0 1 2.84.5zm-1.04 2.291c.876 0 1.804.261 2.498.873.786.876.552 1.457-.052 1.427-2.84-1.204-6.452.253-7.867 3.893-.868 2.234-1.025 1.037-.64-.692.711-3.13 3.058-5.444 6.06-5.5zm-19.756.863c-1.24.005-2.416.253-3.016.828-1.138 1.092-.191 1.11 1.87.383 1.003-.354 2.933-.191 4.167.242 1.034.363 1.398.516 1.34.189-.054-.982-2.295-1.65-4.361-1.642zm23.157 3.654c.523 1.214.185 3.353-1.641 3.57-2.153.256-3.265-3.408.666-2.767-.509-1.465-2.273-1.06-3.142-.689-1.775.787-2.983 2.557-4.07 5.808-.323.964-.56 1.468-.683 1.37-.206-.16-.303-1.659.172-3.463.855-3.252 2.94-5.217 5.148-5.28 1.431-.222 3.097.399 3.55 1.45zm-30.8-1.412c-.191.044.145.727.668 1.788.29.587.487 1.347.487 1.496 0 .577.433.72 1.073.35.74-.428.858-.75 1.904-.277.986.526 1.958.858 2.859.325.488-.29.81-.277 1.756-.025 1.127.302 1.276.348 2.118-.01 1.075-.456 2.353-.143 2.625.164.258.292.108-.113.692-1.488.271-.638.66-1.413.553-1.63-.144-.294-1.123.03-2.19.315-.577.153-1.127.108-2.233-.209-2.333-.667-3.802-.476-5.263.228-.817.393-2.863-.15-4.93-1.003-.05-.02-.092-.03-.12-.024zm4.589 6.34c-1.052-.015-2.006.657-2.443 1.58-.507 1.281.356 3.594 1.67 3.793 1.169.176 1.125-.55.536-.745-.89-.297-1.94-1.592-1.262-2.718.466-.773 1.875-.769 2.855.185 1.973 1.922 4.234 2.049 4.663.381.13-.667-.37-1.555-1.142-1.313-.597.188-1.976.244-3.13-.552-.599-.412-1.196-.602-1.747-.61zm20.839 6.104c5.037-.306 2.87 6.677-.037 4.884-1.039-.64-.578-2.993 2.182-2.95-2.708-2.14-4.553.467-3.89 3.392-.609.954-.777 2.773-1.176 3.802-.612 1.176-1.094-1.903-.475-4.877.599-2.88 1.612-4.142 3.395-4.25zm-28.493.242c-1.04.013.029 1.149.19 1.284 3.139 2.5 4.672 4.044 2.148 3.221-4.1-.99-5.157.187-8.279 1.584-.573.28-.736.106-1.427-.102-2.743-.824-2.542.924.325 2.5 4.328 2.38 7.902 2.917 11.266 1.133 2.162-1.146 2.272-.396.262.872-3.441 2.037-7.064 1.728-12.626-1.787-1.797-1.136-2.048-.376-.21.818 4.2 2.575 9.855 4.91 14.473 1.11.909-.82 1.091-1.246 1.79-.892 1.846.936 1.239-.693-.02-2.228-.444-.542-.773-.98-.744-1.351.104-1.332-.62-1.327-1.283-1.294-.792.04-.705-.23-1.675-1.312-1.418-1.581-3.149-3.273-4.19-3.556zm-41.92 7.082c-1.744.14-2.144.22-1.718 3.846.08.682.379 2.725.462 3.492 1.034 9.497.197 13.698-2.41 14.861-.937.419-1.86.265-2.547-.014-1.65-.67-2.33-2.704-1.131-5.125.322-.652.712-1.661.868-2.243.156-.582.508-1.859.778-2.838.656-2.381 1.012-6.005.625-9.465-.263-2.35-.205-2.547.372-4.132 1.266-2.342 2.085-3.541 4.751-3.57 2.982.317 3.817 4.898-.05 5.188zm64.1-.208l-.817.039c-.982-3.32-3.034-2.246-3.376.084l-.693-.007c.12-4.432 5.582-3.23 4.885-.116zm-76.622-2.479c5.568.56 6.583 1.964 7.022 8.79.04 3.304-.175 5.298-.674 6.05-.834.407-1.633-.353-2.821.412-.654.405-.529.447-.81.007-.265-.414.045-2.157.472-3.549.407-1.327-.291-2.099-2.134-3.802-.5-.46-.937-1.1-1.384-2.015-.959-2.612-1.446-1.462-.647.79.395.97.487 1.45-.713 1.032-.706-.248-1.323.045-1.867.338-1.528.395-2.845-.453-1.52-.962.807-.31 2.253-.76 2.7-.757.326.002.483-.073.483-.228 0-.653-2.945-.582-5.193.204-2.76 1.29-2.92 1.06-2.665-.946.647-5.09 5.314-5.711 9.751-5.364zm54.456.444c1.424-.064 2.731 1.592 2.472 2.999l-.678-.044c-.318-2.647-2.784-2.76-3.44.203l-.978.025c.622-2.288 1.65-3.138 2.624-3.183zm16.555.054c.562.338.172 1.254-.427 1.438-.226.057-.944-.45-.771-.759.323-.372.813-.567 1.198-.68zm6.382.448c.392 0 .899.203.968.738.022.783-.564.621-.758.551-.389-.366-.536-1.26-.21-1.289zm-19.52.627c1.043.125 1.422 1.456.238 1.54-.528.11-.553-1.22-.238-1.54zm-6.351.145c.124.002-.068 1.094-.33 1.255-.516.318-1.174-.03-1.15-.359.058-.787.999-.9 1.48-.896zm18.214 2.655c1.988.764 4.573 1.506 7.005.644.887-.34 1.597-.745 1.595-.362 0 .4-.705 1.008-1.976 1.37-2.618.744-4.514.456-6.313-.915-.508-.387-.685-.743-.311-.737zm-.821 1.14c3.225 1.91 6.136 2.1 8.757.707 1.061-.373 1.096-.031 1.092.66-4.722 4.212-10.623-.16-9.85-1.367zm-79.165 2.91c-.8 1.636-1.229 5.669-2.534 6.864-8.911-.52-3.18-12.45 2.534-6.865zm55.22-1.338c-.504.269-.058 1.553.735 1.899 6.815 2.977 10.31 3.331 14.186 1.962 1.606-.568 2.483-1.9 2.563-2.548.094-.77-.942-.846-2.758-.03-5.526 2.2-8.993.485-13.456-1.219-.413-.158-.835-.213-1.27-.064zm-26.097.092l-.024 10.085-6.49-.116.076-1.492 4.858.145-.076-7.203-5.636-.053-.01-1.337 7.301-.029zm1.508.024l6.475.01.325 1.027h-6.8v-1.036zm-26.126 3.203c-.426.387-1.17.473-1.475.16-.685-.703.01-1.994 1.103-1.986 1.095.01 1.188 1.083.372 1.826zm2.983-1.64c.98.005 1.303.932.558 1.681-.504.466-.762.497-1.216.155-.573-.51-.274-1.803.658-1.836zm-6.39.25c.257-.01.483.016.649.276.595 1.236-1.358 2.092-1.766 1.172-.3-.746.459-1.424 1.117-1.448zm36.619.135l.377 1.298-7.463.034v-1.298zm-26.714.373c1.112.135.94 1.272.424 1.778-.887.833-1.748.563-1.522-.557.141-.7.588-1.207 1.098-1.22zm-6.002 3.72c-.393 1.42.445 4.293.195 4.593-.544.655-1.42.32-1.808.095-1.348-.878-1.433-6.032-.128-6.34.838.427 1.401-.337 1.784-.448.384-.111.127.59-.043 2.1zm19.727-2.117c.735 0 1.331.605 1.331 1.351 0 .747-.596 1.352-1.331 1.352a1.342 1.342 0 0 1-1.331-1.352c0-.746.596-1.351 1.33-1.351zm5.903.174h7.635c.457.646.41 1.083.281 1.531l-7.916.01v-1.54zm-22.422.176c.349-.004.523.753.29 1.618-.42 1.562-.398 3.688-.11 4.61.194.636.385 1.073.272 1.254-.395.634-1.604.201-2.118-.634-1.254-2.36-1.054-6.765.443-6.423.563.286.885-.162 1.223-.425zm-6.73.594c-.369.598-.105 3.952-.143 4.23-.047.348-.991.168-1.517-.074-1.296-.616-.944-2.183-.692-3.448.283-.994.906-1.068 1.675-1.159.425-.048.985-.01.678.451zm10.386.185c.412-.015.47.294.375 1.535-.074.972-.11 1.8.047 2.717.332 1.949.373 2.477-.11 2.858-.572.453-1.344.316-1.941-.218-1.225-.985-1.306-5.82-.344-6.239.895.227 1.458-.491 1.973-.653zm26.367 1.462l-1.097 1.531h-6.51v-1.526l7.603-.005zm-23.21 2.048c1.016.012.849 1.835.302 2.98-.463.69-.803.76-1.498.112-.79-.736.148-3.097 1.197-3.092zm21.311.51l-.916.852-4.772.005v-.847l5.688-.01z" fill="#131f67"/><path d="M3681.495-508.36l-7.912-6.298c9.41-.21 18.817.011 28.226.174l-9.397 6.797c-1.924-2.134-3.06-5-5.79-6.384-2.033.852-3.423 3.79-5.127 5.71zm69.012-2.294c-.216-.138-.356-.445-.514-1.457-2.349-11.118-13.893-10.33-13.816-10.004-.086-.439 14.347-13.668 22.832-24.047 2.564 7.931 10.338 26.054 10.014 25.988 0 0-2.25.019-8.08-.128-5.308 2.432-9 4.8-8.827 8.23-.03 1.208-.317 1.71-.713 1.607-.318-.037-.606-.126-.896-.189zm26.305-35.687c7.509-.119 8.925-3.842 9.78-4.29 4.933-.824 7.98 2.434 10.142 5.921 2.76 1.687 2.415.13 2.987-2.498l6.872-2.045-.01 2.223c-2.121 1.16-5.27 4.131-5.27 4.131l-2.092-.125-1.2 1.622c-4.774 2.622-9.455 5.746-14.49 7.772 0 0-6.032-7.917-6.721-12.71zm-93.559.698l-.078-43.956c3.106-.223 8.825-.194 8.825-.194 2.39-4.284 5.651-6.298 9.012-8.786.471 5.419.652 10.594.544 16.015-8.899 11.025-13.842 24.595-8.354 44.876l-3.293-.37zm49.173 2.463c2.534-9.168 4.502-18.47 5.318-28.075l16.941-.255.339 5.889zm57.686-20.015l-.314-16.446c12.363-14.994 13.095-28.07 8.51-44.601 4.083.954 6.186 4.185 10.078 8.64v42.886c-2.705.408-9.409.809-9.409.809-.203 2.009-5.868 6.813-8.867 8.712zm-52.352-25.92l-.754-7.252 22.014-21.343c-1.817 9.248-4.015 18.745-4.656 28.59zm-36.524-22.652c-1.57 1.046-7.363-5.063-8.31-9.17 1.452-1.991 14.198-8.33 14.198-8.33s7.449 9.705 7.144 13.753c-3.308.892-6.178 1.147-8.69 3.885-1.436.13-1.941-1.511-4.342-.138zm-10.053-8.205c1.773.289.636 2.717.364 4.495l-9.367 2.819c3.22-2.79 5.504-5.163 9.003-7.315zm30.5-21.458c1.926-.059 3.934.747 5.418.14.556-.22 1.665-.56 2.88-.326 2.8.878 3.783-2.253 5.567-2.266 2.31.006 3.591-1.635 3.607-4.92.01-1.42.123-1.58.387-1.721.787-.423 1.629.17 1.734.95 1.656 6.05 5.839 11.49 12.435 11.057-5.252 5.434-21.23 22.14-21.23 22.14-2.878-8.9-6.7-17.185-10.797-25.054zm67.97-5.214l9.624-7.09 5.76 7.117 4.98-6.775c2.928 2.128 9.584 6.873 9.584 6.873s-19.96.3-29.947-.125z" fill="#d40000"/><path d="M3795.113-710.914l-88.47.576 17.194 23.309c18.265-3.775 34.165-1.322 50.667 1.603zm-2.261 1.182l-5.889 7.425c-1.629-1.495-5.266-.955-4.751 2.316-4.513-2.38-5.47 4.157-1.638 3.89-.48 1.283-4.35 1.622-5.44-.708-3.972 2.26-5.185.068-6.237-1.356 5.047 3.478 7.503-3.671 1.947-4.074 2.183-4.482-5.603-6.516-5.144-.683-5.135-1.181-3.958 6.153-.186 4.65-2.45 3.739-6.469 1.227-7.282.5-2.066 1.572-5.973 1.622-7.067-.892 5.715 1.166 5.09-6.472.014-4.713 2.705-5.867-6.295-5.077-4.109-.271-5.12-.199-3.986 6.21.51 5.12-3.995 3.822-6.988.26-7.62.184-2.365 2.649-6.52 1.197-7.09-.369 4.075 1.635 5.411-5.316.273-4.898 1.316-4.478-6.077-5.02-4.445.065-4.074-.937-4.296 5.685.268 4.654.283 1.813-3.308 3.55-5.516 1.797-1.62.9-3.394 2.302-5.502.228 3.211-.525 3.74-6.034-1.446-4.844.247-3.382-1.666-3.566-4.03-2.708l-3.786-5.207zm-61.032 8.307c-.281.63-.757 1.06-.645 1.54.09.394.49.94 1.046 1.681 4.426 5.857 13.4 5.66 16.1-.378.55-1.121.438-1.376-.224-2.33-.8-1.152.103-2.38 1.083-2.276 1.462.154 1.715 1.448 1.012 2.368-1.528 1.952 2.668 6.369 6.857 7.063 5.37.89 10.461-2.944 9.752-6.38-.04-.196-.14-.38-.18-.586-.571-2.876 3.922-1.498 2.305.334-.608.663-.936.86-.854 1.59 1.304 6.086 8.595 6.724 12.067 4.848-4.48 7.417-11.577 1.7-12.826-3.483-6.291 9.22-13.85 7.304-18.062-.799.498.505-8.297 14.524-18.28.15-4.227 11.57-11.932 3.749-11.405 3.275 3.54 2.001 9.969 1.276 10.589-4.912.085-.764-.486-.811-.816-1.414-1.674-3.059 3.726-3.08 2.48-.291zm-16.635.76c.8.076.935.414.802 1.24zm68.653 2.175l-1.16 1.478c-.276-.723-.284-1.387 1.16-1.478zm12.612.49c-2.752.118-4.878 3.978-4.739 9.125.067 2.496.5 8.761.668 9.693.235 1.302-.02 3.068-.472 3.255-1.191.491-1.64.808-1.961 1.385-.836 1.5-.145 3.194 1.617 3.953 1.259.542 2.853-.207 3.932-1.84.6-.909.74-1.313 1.27-3.595.243-1.05.221-2.794-.058-4.393-.633-3.637-.162-8.166 1.07-10.294 2.208-3.814 2.167-6.312-.115-7.1a3.267 3.267 0 0 0-1.212-.19zm-.144.58c3.203.013 3.117 3.256 1.341 4.254-.688.312-1.53.385-2.371-.175-.946-.554-.817.078.162.8 1.15.846 1.64.794 1.021 2.78-.576 1.85-.878 5.847-.563 8.118.862 6.214.133 9.312-2.443 10.39-1.27.532-2.64-.218-2.993-1.253-.552-1.62.43-3.011 2.855-2.622 0 0 .171-.516-.459-5.91-.876-7.502-.531-12.74.826-14.57.725-.977 1.661-1.815 2.624-1.811zm21.727 7.736c-.749.006-1.555.213-2.377.683 0 0-.089 3.374-.186 3.885-.544 2.854-.385 3.194.926 3.599 3.179.983 5.79-1.158 5.674-4.514-.065-1.887-1.792-3.672-4.037-3.653zm.43.45c1.737-.052 3.314 2.01 3.144 3.953-.091 2.326-2.283 3.594-4.247 3.188-.581-.09-1.183-.202-1.37-.645-.393-.616.24-.84 1.56-.833 1.447.007 1.715-.194 2.196-1.017.95-1.63-.266-3.696-1.818-3.308-.53.132-.607.375.014.552 1.902.87 1.194 2.084.534 2.577-.784.585-2.083-.217-2.305-.703l.134-3.148s.628-.598 2.157-.615zm-19.594 14.59s-.725.352-1.074.679c-.768.72-.93 1.81-.553 2.882.166.474.14.554-.444 1.327-1.664 2.2-1.878 3.3-1.026 5.284.387.902.39.902.024 2.093-1.569 5.11-4.664 10.903-7.969 14.914-.51.62-.716 1.255-.716 1.255s.774-.04 1.203-.257c3.414-1.725 7.021-5.065 10.374-7.256-5.302 4.366-10.952 8.273-10.952 8.273l7.215.393c-1.811 1.885-33.448 29.096-25.047 77.903 9.876-2.493 14.472-6.629 19.736-11.412.05 3.933.134 14.517.167 14.517.1-.174-4.57-1.786-3.46 2.116.661 2.141.996 7.56-.176 10.618-.05.13.504.335.449.455-.063.139-.75.14-.75.14-1.793 3.396-6.411 4.14-8.687 4.037-.84-.08-.5 1.088-.39 1.51.423 1.749 2.408 5.492 6.114 11.504l.974.131-.563.528c.437.81 1.606 2.331 1.606 2.331l.051.517s2.034 2.873 3.125 4.222c.074.092.244-.126.32-.035.604.738 1.33 1.566 1.946 2.303.048.056-.095.267-.047.32a522.64 522.64 0 0 1 3.438 3.875l.453-.11 1.79 2.048c14.864-6.86 30.397-22.038 30.235-22.005l.128-32.665-17.599-.053-.075-43.272 17.58 17.64-.115-5.06c-3.987-3.85-20.013-20.263-20.013-20.263 2.333-.33 4.592-1.099 6.78-2.305 3.823 2.134 7.91 3.417 12.594 2.785l-.02-4.8c-5.316-.01-8.614-1.798-10.998-3.958l-3.283-.111c-6.065 4.681-10.353 2.509-14.965 1.589l-3.187-4.66 32.653-.17-.234-11.31-4.958.111-3.22-2.417 3.736 1.604s-.06-.623-.807-1.807c-2.012-3.339-4.567-8.251-6.098-12.536-.741-2.177-.74-2.087-.115-3.362.86-1.751.673-3.873-.458-5.066-.797-.841-.771-1.02-.51-1.647 1.06-2.482-1.498-3.395-1.508-3.236-5.47 2.14-12.806-.064-12.674-.13zm12.722.901c1.092-.01 1.21.478 1.207 1.303-.093 1.514-2.034 2.062-2.91 2.272-4.197.976-11.512.398-11.988-1.589-.35-1.46.547-2.27 3.527-1.545 4.788 1.045 7.752-.079 10.164-.44zm-13.543 4.215c.436-.003.958.446 1.107 1.181.128.628-.516 2.476-1.054 2.902-1.333 1.054-2.537-.585-1.647-2.369.514-1.028 1.034-1.71 1.594-1.715zm14.316.208c.199.005.556.047.787.213 1.057.759 1.155 3.384.167 3.764-1.006.386-1.94-.679-1.933-2.35 0-1.023.38-1.643.979-1.627zm-3.355.542c.215-.01.443.036.678.146.88.412 1.307 3.166.434 4.044-.677.681-2.133.644-2.558-.77-.508-1.69.285-3.36 1.446-3.42zm-7.44.078c1.29.009 1.583 2.919.32 4.117-1.055 1.002-2.666.016-2.161-1.971.252-.994.832-2.077 1.842-2.146zm3.666.465c1.886.327 1.727 5.016-.745 4.548-1.407-.996-1.37-4.478.745-4.548zm-8.251 5.023l2.668.252c-.07-.042-4.245 8.958-7.978 11.34 2.051-3.468 3.85-7.603 5.31-11.592zm15.99.048c1.558 4.217 3.157 8.496 5.283 12.807-3.23-3.161-6.093-8.021-8.733-12.584zm-12.54.407l1.766.02c.587 2.73 1.605 4.471 2.8 5.967 1.035-1.774 1.69-3.724 2.325-5.803l1.403-.02c.537.326-1.651 8.557-3.794 9.558-2.27-1.87-4.183-6.927-4.5-9.722zm-.744 1.947c-.148.197 2.742 7.247 5.187 9.509 2.304-2.27 3.774-5.26 4.762-8.826l7.582 10.802-7.391-5.134c-1.477 2.489-3.044 4.863-4.925 6.84-2.028-2.228-3.784-4.87-5.626-7.383-2.852 2.145-4.853 4.436-8.556 6.438.017.083 7.256-7.926 8.967-12.246zm-.711 7.678l5.158 6.399-13.733-.2zm11.17.102l8.666 6.054-12.912.136zm-69.043 2.979s.073.384.157.615c1.538 6.368 5.78 11.663 12.164 11.034l-20.982 21.289s-3.465-11.934-10.484-24.166c0 0 1.281.267 2.281.465.938.145 1.65.1 2.353-.088.537-.08.947-.437 1.427-.542.808-.172 1.824.124 2.362.315 1.441.277 2.423-.542 4.227-2.16.48-.431.665-.327 1.27-.325 2.261.006 3.704-1.964 3.45-5.018l-.115-1.357-.286 1.526c-.54 2.877-.917 4.117-3.722 4.239-.68.03-.935.493-2.009 1.429-1.504 1.31-2.566 1.423-3.631.91-1.088-.523-1.189-.215-2.215.281-1.174.569-2.885.502-4.428.053-2.153-.626-1.89-.416-1.89-.416 12.47 22.526 16.85 44.132 16.573 63.323-.393 27.346-9.817 49.417-18.085 62.723 0 0 1.419-.146 2.682-.334.609-.172 1.078-.006 1.68.208.561.2.986.19 1.536.126.43-.05 1.48.008 2.157.107 1.534.223 1.636.019 3.307-1.628 4.741-4.675 4.433-4.502 7.868-4.388 5.155.17 9.277 3.62 10.995 9.217.217.708.501 1.7.54 1.7l-.335-1.482c-1.509-7.503-7.83-10.248-13.108-10.148l22.275-22.669c-.114.022 5.162 17.249 9.758 24.927.01.053-1.394-.613-3.957-.276-1.393.184-2.952-.003-3.827-.155-1.126-.028-1.812.308-3.215 1.482-.583.506-1.108 1.061-2.248 1.55-2.709 1.161-3.789 2.362-3.803 5.376 0 .549-.085 1.25-.076 1.521 0 .072 0 .202.014.202.046 0 .11-.113.162-.192.136-.2.409-.746.619-2.01.375-2.254.843-3.043 2.946-4.042.631-.3 1.96-1.116 2.55-1.594 1.939-1.57 2.585-1.928 4.16-1.556.895.212 1.656.32 2.857.173 1.43-.176 1.513-.25 3.042.15 1.037.271 2.32.535 2.32.535-21.589-44.006-20.876-84.803.431-126.193 0 0-6.307.075-6.575.242-.102.063-.868-.007-1.704-.16-1.716-.314-1.34-.103-5.392 4.03-5.008 5.11-13.02 1.034-15.432-7.542-.126-.448-.235-.718-.425-1.036-.06-.102-.219-.271-.219-.271zm20.41 5.032c.927.1 1.618.348 1.503 1.23l-29.734 29.553-.463-1.904zm6.27.18c-.367.733-1.36 1.652-1.795 2.344l1.618 2.044-.897 1.647-2.487-2.122-4.733 4.742 3.946 4.495-3.736 3.827-1.246-1.429 1.976-2.097-3.068-2.916-5.407 5.333 4.404 4.543-3.23 3.144-1.288-1.24 1.694-1.899-2.873-3.013-5.034 5.212 3.984 4.5-3.078 3.1-1.364-1.404 1.479-1.565-2.849-3.027-5.13 5.134 4.161 4.582-3.058 2.776-1.079-1.158 1.48-1.613-2.797-3.037-3.183 2.93-.53-2.01 31.485-31.746zm1.813.47l-1.327 2.702-1.026-1.143 1.336-1.395zm-74.26.174c-.816.202-19.562 10.801-30.234 22.436l-.033 4.336-.396.518.19 6.709.268.358.091 2.737-.425.721v7.513l.568.097.091 9.194 17.532.048-.02 43.924s-10.294-11.486-17.707-18.266l.029 5.134 19.612 20.567c-1.35.193-3.104.524-5.75 2.006-6.364-4.035-13.72-2.8-13.72-2.8l.03 5.231c4.677-.458 8.898.191 13.814 3.55 4.048-2.784 8.925-4.478 16.196-2.266 1.6 2.572 3.2 5.225 4.8 6.95l-34.724.262.043 10.594c1.54.031 5.392 0 5.392 0 1.953 3.884 5.792 9.186 7.386 15.857-2.188 2.668-2.014 4.815.115 7.502-.02 1.211-.378 2.55.963 3.9 4.418-2.193 9.406-1.22 13.119-.1 1.258.38 1.733-1.075 1.689-2.906-.112-1.048-.106-1.497.687-2.195 1.89-1.662.716-5.077.42-5.153-.11-2.995 9.346-17.998 9.353-17.722l-1.885.692-8.083.038c21.261-20.81 30.148-44.547 28.287-71.35-.415-6.753-1.45-9.848-1.45-9.848-7.49 3.378-13.644 5.834-19.622 12.333l-.396-13.97c.332.662 2.551 1.272 3.545.426.68-.451.748-.934.12-2.63-.914-2.46-1.13-7.74-.45-9.532.08-.21.148-.767.206-1.313.078-.735-.081-.778-.148-.765.174-.043.905.107.993.029 2.554-2.281 5.294-3.707 8.656-3.856l.086-1.666c-2.493-6.39-4.604-8.896-6.862-12.468 0 0-.64-.216-1.045-.131l.52-.557c-3.168-5.102-7.676-9.745-11.82-14.154.012-.015 0-.02-.024-.014zm-.138.867l2.247 2.107c-10.725 5.233-21.307 12.9-31.727 23.299l.143-3.822c11.778-11.243 20.664-16.644 29.337-21.584zm68.881 3.822l1.35 1.365-1.87 2.204 1.217 1.26-.678 1.68-3.11-3.279zm-66.958.174c.706 0 1.279.581 1.279 1.298 0 .717-.573 1.298-1.279 1.298a1.289 1.289 0 0 1-1.279-1.298c0-.717.573-1.298 1.279-1.298zm91.781 1.792c21.864 24.701 10.637 60.6-18.548 69.223l-.324-2.03c29.445-10.067 36.352-43.746 17.245-64.921zm-87.992.165l1.393 1.637c-12.464 6.04-24.623 15.094-36.375 28.157l-.115-3.298c11.038-11.777 22.838-20.298 35.097-26.496zm-8.04.504c.706 0 1.278.58 1.278 1.298 0 .717-.572 1.298-1.279 1.298a1.289 1.289 0 0 1-1.279-1.298c0-.717.573-1.298 1.28-1.298zm-3.895 2.44c.707 0 1.28.582 1.28 1.299s-.573 1.298-1.28 1.298a1.289 1.289 0 0 1-1.278-1.298c0-.717.572-1.298 1.278-1.298zm12.966.853c.706 0 1.278.582 1.278 1.299 0 .716-.572 1.298-1.278 1.298a1.289 1.289 0 0 1-1.28-1.298c0-.717.573-1.299 1.28-1.299zm55.539.896l1.279 1.371-2.028 2.064 2.887 3.061 2.777-2.712-1.394 4.04-24.484 24.838-.51-2.606 1.927-1.966-2.953-2.994-.52-1.995 2.906-2.761 1.216 1.269-1.698 1.99 2.734 2.733 4.967-4.64-4.099-4.569 3.384-3.322 1.169 1.157-1.618 1.69 2.849 3.135 5.096-4.956-4.185-4.49 3.364-3.366 1.274 1.235-1.694 2.063 2.897 2.844 4.991-5.004-4.103-4.379zm-72.322.872c.706 0 1.279.582 1.279 1.299 0 .716-.573 1.298-1.279 1.298a1.289 1.289 0 0 1-1.279-1.298c0-.717.573-1.299 1.279-1.299zm20.166.252l.973 1.642c-14.838 7.61-25.102 15.231-40.288 32.745v-2.204c11.724-14.612 23.913-24.032 39.315-32.183zm-7.454.194c.706 0 1.279.581 1.279 1.298 0 .717-.573 1.298-1.279 1.298a1.289 1.289 0 0 1-1.279-1.298c0-.717.573-1.298 1.28-1.298zm114.815.499c2.618 2.364 8.115 4.72 11.658 4.47l.095 2.844c-6.18.596-11.577-3.42-11.577-3.42-4.76 2.945-9.604 3.317-14.654 2.04l-1.942-4.224c7.49 3.524 14.514.161 16.42-1.71zm-29.57.77c.274.514 1.197 1.11 1.197 1.11 5.765-1.524 7.56 4.507 4.872 7.953l.768 2.528c1.029.19 1.931.556 2.663 1.07 1.402.988 2.174 2.697 2 4.491.195 1.944-2.67 3.754-2.826 3.618l-.038 2.78c.806.682 1.777 1.342 2.396 2.306 1.378 2.348.831 4.713-1.293 6.2-1.265.868-2.637.982-2.692.892l-1.331 3.158c1.172.672 1.5 1.814 1.684 2.63.398 1.77-.825 4.075-2.362 4.926-1.94 1.075-4.583.12-4.58.121l-1.89 1.919c.486 1.661.62 2.653.362 3.628-.636 2.412-3.128 3.358-5.13 3.177-1.57-.142-2.753-1.308-2.753-1.308l-2.094.814c.059 0 .03 2.693-1.026 3.517-.333.349-1.513 1.123-1.513 1.123l-.277-1.855c.83-.606 1.346-2.077 1.179-3.153l4.524-2.248c0 .167 1.238 1.385 2.085 1.56 1.737.36 3.551-1.016 3.555-2.635 0-.944-.535-1.587-.687-2.35l3.84-4.034c1.59.555 2.707.649 3.418.232 1.342-.786 1.704-2.41 1.445-3.385-.305-1.155-1.32-1.901-1.388-2.01l2.142-5.498c.999-.005 1.617-.165 2.396-.678 1.588-1.06 1.383-3.117.706-4.093-.824-1.189-2.02-1.41-2.114-1.381l.158-5.71c0 .046 2.167-1.058 2.4-2.33.343-1.876-.436-3.069-2.706-3.6-1.259-.294-1.193-.048-1.193-.048l-1.794-5.168c2.844-1.76 1.942-4.56.501-5.498-1.52-.99-3.665-.073-3.665-.073s-.977-.984-1.717-1.778zm-76.092 1.046c1.868 2.55 5.031 7.66 6.8 12.231.076.2.037 1.211.037 1.211-5.044.445-6.777 2.453-8.57 3.865-1.39-.724-1.976-1.573-4.49.025-.01.075-6.41-3.931-7.635-9.368 4.577-2.863 8.937-5.589 13.857-7.964zm-25.61.034c.705 0 1.278.581 1.278 1.298 0 .717-.573 1.299-1.279 1.299a1.289 1.289 0 0 1-1.279-1.299c0-.717.573-1.298 1.28-1.298zm12.124.257c.707 0 1.28.581 1.28 1.298 0 .717-.573 1.298-1.28 1.298a1.289 1.289 0 0 1-1.278-1.298c0-.717.572-1.298 1.278-1.298zm87.516 1.594c2.205 2.945 5.527 8.514 6.318 13.446 1.111 6.937.37 14.214-2.763 19.303-5.686 10.87-15.546 13.184-15.552 13.562l-.1-2.228c.093.502 7.536-2.682 12.603-9.867 3.127-4.869 4.904-11.828 4.299-17.258-.376-7.826-5.848-15.043-5.893-15.07zm-103.63 1.06c.706 0 1.279.582 1.279 1.299 0 .716-.573 1.298-1.28 1.298a1.289 1.289 0 0 1-1.278-1.298c0-.717.573-1.299 1.279-1.299zm12.11.02c.707 0 1.28.581 1.28 1.298 0 .717-.573 1.298-1.28 1.298a1.289 1.289 0 0 1-1.278-1.298c0-.717.573-1.298 1.279-1.298zm109.19 2.19c2.838.311 6.308 5.534 9.467 8.515l.033 42.577-9.434.194c-1.228 2.995-4.078 5.956-8.618 8.878v-15.955c15.481-16.835 11.269-35.26 8.556-44.21zm-124.774.484c.706 0 1.279.58 1.279 1.298 0 .717-.573 1.298-1.279 1.298a1.289 1.289 0 0 1-1.279-1.298c0-.717.573-1.298 1.279-1.298zm11.658.232c.706 0 1.278.581 1.278 1.298 0 .717-.572 1.298-1.278 1.298a1.289 1.289 0 0 1-1.28-1.298c0-.717.573-1.298 1.28-1.298zm119.768.102l19.287 19.738-.067 2.897-21.735-22.417zm-112.697 1.855l.511 2.48c-.623-.994-.647-1.362-1.727-1.535zm-10.44.722c.706 0 1.279.58 1.279 1.298 0 .717-.573 1.298-1.28 1.298a1.289 1.289 0 0 1-1.278-1.298c0-.717.572-1.298 1.279-1.298zm-11.553.363c.706 0 1.279.581 1.279 1.298 0 .717-.573 1.298-1.279 1.298a1.289 1.289 0 0 1-1.279-1.298c0-.717.573-1.298 1.279-1.298zm108.516 0l3.808 2.737-1.24 4.936-3.9-3.556zm-87.997.402l.678.407-.788 3.376-8.766 3.212c2.819-2.443 5.716-5.106 8.876-6.995zm1.436 1.57c.624 2.502 1.975 6.202 3.632 9.336-1.124.59-5.17 2.913-5.159 3.994.571 1.957 4.844 3.754 4.844 3.754a49.523 49.523 0 0 0-4.42 9.42c-.729-1.261-.813-6.237.76-8.306-1.552-.621-3.674-2.04-5.288-3.507 1.04-3.737 5.475-5.969 5.67-5.997-.079.188-1.31-7.806-.039-8.695zm-14.23.63c.707 0 1.28.58 1.28 1.297s-.573 1.298-1.28 1.298a1.289 1.289 0 0 1-1.278-1.298c0-.717.572-1.298 1.279-1.298zm97.632.106c5.69 10.76 2.306 20.107-6.771 26.805l.21-2.538c6.263-4.612 10.319-13.691 5.745-22.35zm-108.435.31c.707 0 1.279.58 1.279 1.298 0 .717-.572 1.298-1.279 1.298a1.289 1.289 0 0 1-1.279-1.298c0-.717.573-1.298 1.28-1.298zm91.023.068c-4.176 15.799-4.072 23.04-4.557 27.324l-16.21.14-.63-5.696zm-64.759.435s3.516 3.313 6.671 6.205l-.377.756-3.068.417c-2.347-4.693-3.226-7.378-3.226-7.378zm-2.91 1.735l.024.005.195 2.354c-1.053-.04-12.453 4.793-21.21 12.511 1.305-2.334 3.506-4.572 5.635-6.48 4.528-4.513 15.356-8.39 15.356-8.39zm-16.206.537c.707 0 1.28.581 1.28 1.298 0 .717-.573 1.299-1.28 1.299a1.289 1.289 0 0 1-1.278-1.299c0-.717.572-1.298 1.278-1.298zm7.177 1.478l.65.678-3.026 1.588zm21.092.692a.737.737 0 0 1 .129.005c.468.06.662.285.93.514-.592-.125-1.173-.195-1.727-.165.14-.17.379-.342.668-.354zm-11.577.49l.277 1.758c-6.56 3.785-14.362 7.362-25.715 18.257v-3.624c7.125-6.7 15.436-12.32 25.438-16.392zm8.823.164c.41.102.774.108 1.146.015 0 0-.238.478-.52.489-.298.011-.626-.504-.626-.504zm2.782.102c.825-.052 1.388.714 1.222 1.7-.633 3.342-.609 6.727.072 9.092.53 1.843.664 2.492.224 2.8-3.866 2.707-5.986-9.496-2.758-12.958.438-.417.866-.61 1.24-.634zm-31.575.426c.706 0 1.279.581 1.279 1.298 0 .717-.573 1.298-1.279 1.298a1.289 1.289 0 0 1-1.279-1.298c0-.717.573-1.298 1.28-1.298zm111.122.3l2.405 4.093-3.35 3.808-2.038-4.423zm-82.763 2.224l-.125 1.413c-1.727.532-3.232 1.287-4.527 2.404-.25.218 4 2.165 4.447 1.714l-.01 1.507c-.06.495-7.03-1.752-7.501-3.43.79-1.115 5.2-3.709 7.715-3.608zm-31.723.75c.706 0 1.279.582 1.279 1.299s-.573 1.298-1.279 1.298a1.289 1.289 0 0 1-1.279-1.298c0-.717.573-1.298 1.279-1.298zm19.012 1.491c-.495.954-1.227 2.222-1.368 3.607-4.782 2.944-9.687 5.693-15.654 12.447l-3.216-.02-.072-.857c6.522-6.311 13.584-11.756 20.31-15.177zm12.32.408l.033 1.778c-1.112.014-1.72-.354-2.548-.78.698-.447 1.239-.892 2.514-.998zm35.984.19l.897.953-.558.533zm-48.453 3.695l1.77 1.119c-4.558 2.414-9.357 5.982-13.509 10.642h-3.507c4.43-4.873 9.2-9.245 15.246-11.76zm94.444 1.284l.353 4.834-4.447 2.475.086-5.1zm-84.576.02l3.059.338.315 1.313c-2.566 1.656-4.796 3.6-6.934 5.619.82-2.594 2.097-5.17 3.56-7.27zm-7.334.517l1.312.616-.52 2.271c-3.747 1.691-6.733 3.975-9.93 7.053h-3.598c3.15-3.428 8.39-7.742 12.736-9.94zm11.38 2.137c.012-.001.016-.001.015.005l.477 14.9c-13.212 15.699-12.494 30.881-8.642 44.65l-2.52-.117c-2.928-3.693-6.823-7.454-6.823-7.454l-.01-43.343 9.11.034c2.147-5.045 8.055-8.635 8.393-8.675zm-10.755 2.092l.11 1.986a26.438 26.438 0 0 0-4.858 3.725h-3.421c2.365-2.234 4.712-4.484 8.169-5.71zm31.06.974l.5 2.344c-30.664 11.26-36.206 43.993-18.108 66.462l-1.231 1.395c-20.781-22.652-11.66-59.655 18.839-70.201zm-30.817 2.344s.168 1.796.22 2.393h-3.436c.773-.92 1.46-1.873 3.216-2.393zm86.294.75l-1.975 4.675-5.273.083 2.395-4.675zm-33.379 3.203h4.805v4.66h-4.805zm-20.796.46l.081 2.049c-2.134 1.103-1.596 2.856-2.133 2.829-1.312.337-4.771 2.199-4.771 2.199-1.228-1.13-2.882-.845-3.65-.296-1.067.709-1.302 2.358-.998 3.754l-3.67 4.355c-1.772-.769-3.5-.721-4.361.48-.971 1.353-.604 3.033 1.002 4.916l-2 5.207c-.23-.312-3.576.685-3.621 2.703-.048 2.135 2.766 3.528 2.763 3.69l-.134 5.746c-.127-.277-2.872.86-2.5 3.613.342 2.535 3.741 2.226 3.812 2.436l1.847 5.498c-.124-.168-2.503 2.196-1.045 4.432 1.215 1.864 4.744.658 4.715.538l.978 1.4-1.084 1.191s-.468-.569-.73-.518c-2.054.399-4.348-.08-5.449-1.744-1.499-2.348.174-6.017.706-5.987l-1.27-3.167c-2.312-.047-4.27-2.143-4.375-3.9-.219-3.678 2.756-5.217 2.763-5.192l.086-3.43c-.182.205-2.938-1.78-2.873-4.059.048-1.665 1.43-3.624 3.13-4.413.493-.235 1.26-.605 1.26-.605l1.15-2.81s-1.628-2.387-1.207-4.795c.784-3.645 5.464-3.395 6.204-3.042l2.17-2.76c-1.068-2.52.779-5.444 3.193-5.92 1.073-.175 4.08.547 4.08.547l2.782-1.458c-.048-1.543 1.611-2.548 3.15-3.487zm15.82 5.1h4.117v4.66h-4.118zm10.97 0h4.643v4.66h-4.643zm-26.455 1.168l-.053 1.782c-26.586 13.085-15.713 40.176-11.92 43.328l-.855 1.914c-4.665-2.88-16.691-34.141 12.827-47.024zm20.461 4.718h4.996l.043 4.79h-4.996zm-21.616 2.33l-1.584 4.364-4.882.416 1.804-4.354zm99.75 3.192l3.34.019c-6.245 7.414-12.984 12.467-19.636 15.234 0 0-.023-.66.182-1.182.162-.414-.1-1.458-.1-1.458 7.394-3.696 12.473-7.99 16.214-12.613zm-17.117.063c-.859 1.048-1.84 1.973-3.058 2.657l-.482-2.701c1.021-.012 3.54.044 3.54.044zm5.88-.059c.337.863-8.767 5.854-8.8 5.428l.025-1.659 4.912-3.7zm1.965 0h.02l2.562.015c-2.315 3.706-14.556 10.434-14.047 9.487l.494-2.71c3.946-1.762 7.527-4.157 10.972-6.792zm4.319 0l3.372.015c-5.073 6.539-10.219 8.926-15.155 11.74-.297-.044-.163-.158-1.087-.13l-1.688-1.337c.315.294 11.344-6.27 14.558-10.288zm-94.344.233l-.114 1.976c-7.097 6.195-9.943 14.111-6.251 23.3l-.879 1.96c-3.97-9.803-2.798-19.33 7.244-27.236zm32.315.31l.377 5.333-22.032 21.768c3.354-12.161 4.282-19.502 5.183-27.072zm70.551 1.255l.01 2.96c-8.685 9.711-17.44 14.064-25.004 15.824l-.172-1.138 3.503-2.19c11.285-4.99 16.228-10.014 21.664-15.456zm-26.361.079c.153 2.139-1.724 6.177-3.868 8.455l-3.674-.01-.406-1.618c3.046-1.667 5.867-3.924 7.948-6.827zm1.109.637c1.35 2.205-.675 7.909-.759 7.683-.162.393 11.543 2.904-.482 8.782.262 1.726 1.39 5.413.52 7.692-.27-.873-2.363-6.789-3.98-8.303 3.755-1.086 6.458-3.417 6.166-4.185-.61-1.093-2.292-2.435-5.12-3.42 2.407-3.391 3.123-5.937 3.655-8.249zm-85.965 1.08l.377 4.496-4.275 2.61-.33-4.935zm74.384 4.176c.333.004.647.092.801.262 2.112.867 2.265 11.326.349 12.39-1.393.889-2.373-.54-2.324-.794.923-4.812.346-7.787-.038-11.15.04-.49.656-.715 1.212-.708zm36.833.155v3.72c-12.416 13.064-25.795 23.362-39.453 29.145l-1.245-2.145c16.588-7.787 30.459-18.895 40.698-30.72zm-2.18.339c-5.751 8.126-12.758 13.431-22.356 15.84l-.182-2.306c11.954-2.757 22.848-13.534 22.538-13.534zm-156.516 1.318c7.49 7.772 15.165 15.476 22.79 23.453l-3.03.16-19.851-20.906zm89.166.387l.267 1.918-2.18 2.427 3.445 3.759.176.886-2.958 3.139-1.336-1.342 1.637-1.865-2.778-2.964-5.149 5.028 4.243 4.674-3.202 3.09-1.26-1.322 1.637-1.918-2.844-3.047-5.25 5.3 3.97 4.45-2.647 2.975-1.255-1.342 1.36-1.584-2.878-3.008-5.044 4.931 4.152 4.66-3.374 3.41-1.307-1.288 1.894-2.093-3.111-3.008-2.496 2.393s.942-2.374 1.079-2.776c.2-.59 1.027-1.056 6.275-6.311 6.262-6.328 12.685-12.258 18.934-19.172zm35.923 1.279c1.83.031 4.944.479 6.456 1.288 2.805 1.502 1.923 2.684.1 3.565-2.179 1.054-3.966 1.57-6.428 1.642l.072-1.225c1.43-.35 2.912-.705 4.176-1.415.869-.487 1.092-.881 1.092-.881s-.846-.874-2.195-1.37c-.986-.364-2.396-.362-3.163-.49zm-81.923 1.618l2.305 3.507-2.73 4.645-2.62-4.006zm46.492.377c.08.661.904 3.23.472 2.732l-1.532-1.748zm35.574.344c1.274.11 2.614.148 3.545.606-1.08.85-2.302 1.04-3.521 1.25zm31.976 1.754c.77 0 1.393.633 1.393 1.414 0 .781-.624 1.415-1.393 1.415-.77 0-1.394-.634-1.394-1.415 0-.78.624-1.414 1.394-1.414zm-71.912 2.45l1.188 1.168-1.536 1.817 2.787 2.979 3.45-3.28.458 2.083-32.325 32.284-1.794-.13 2.057-2.466-2.338-2.427.959-1.744 2.758 2.49 5.053-4.907-4.094-4.374 3.502-3.647 1.322 1.158-2.009 2.208 2.926 3.033 5.287-5.28-4.137-4.568 3.302-3.197 1.212 1.168-1.537 1.651 3.016 3.188 4.457-4.709-4.056-4.533 3.603-3.56 1.107 1.123-1.661 1.88 3.03 3.182 4.863-5.072-4.004-4.407zm68.676.844c.77 0 1.394.633 1.394 1.414 0 .781-.624 1.414-1.394 1.414-.77 0-1.393-.633-1.393-1.414 0-.781.624-1.414 1.393-1.414zm-26.273.063c2.195 2.616 3.516 5.528 3.779 8.66-1.754-2.701-3.985-5.097-6.91-7.178l.501-1.313zm30.997.213v3.158c-9.792 11.262-21.679 19.75-33.884 25.658l-2.076-2.563c14.435-6.541 24.88-14.664 35.96-26.253zm-14.406 2.204l-3.97 3.129v-1.356l3.975-1.773zm-20.461.232c3.379 1.675 6.213 4.505 7.902 8.7-4.616 2.94-9.68 5.321-14.506 7.692-2.318-3.789-4.65-7.338-6.48-12.215 7.444-.056 9.486-4.184 9.538-4.216 1.794.689 2.17.771 3.546.04zm26.746.615c.694.014 1.388.553 1.412 1.362 0 .78-.624 1.414-1.393 1.414-.77 0-1.393-.633-1.393-1.414.15-.976.762-1.374 1.374-1.362zm-10.303.93l.01 1.366c-1.9 1.69-5.592 4.428-5.592 4.428l-1.527-.083.496-3.875c2.312-.473 4.553-1.159 6.614-1.836zm-97.235.16l3.646 3.042-1.117 4.718-3.588-2.766zm48.959.892l.339 1.365-29.953 30.056-1.704-.28zm55.258 1.162c.77 0 1.393.633 1.393 1.414 0 .782-.624 1.415-1.393 1.415-.77 0-1.394-.633-1.394-1.415 0-.78.624-1.414 1.394-1.414zm11.06-.01c.165 0 .359-.012.359.145v2.601a1.377 1.377 0 0 1-.468.083c-.77 0-1.284-.633-1.284-1.415 0-.78.624-1.414 1.394-1.414zm-3.38 3.153c.77 0 1.394.633 1.394 1.415 0 .78-.624 1.414-1.393 1.414-.77 0-1.394-.633-1.394-1.414 0-.782.624-1.415 1.394-1.415zm-11.708.015c.77 0 1.394.633 1.394 1.414 0 .781-.624 1.415-1.394 1.415-.77 0-1.393-.634-1.393-1.415 0-.78.624-1.414 1.393-1.414zm-10.073.436l1.431.048-2.662 1.608c.489-.62.945-1.096 1.23-1.656zm25.539.662l.019 2.908c-6.852 6.951-15.503 14.163-28.732 21.114l-1.686-1.733c10.787-5.221 20.908-12.537 30.399-22.29zm-19.455 1.585c.77 0 1.393.634 1.393 1.415s-.624 1.414-1.393 1.414c-.77 0-1.393-.633-1.393-1.414 0-.781.623-1.415 1.393-1.415zm12.388.107c.77 0 1.393.633 1.393 1.414 0 .782-.624 1.415-1.393 1.415-.77 0-1.394-.633-1.394-1.415 0-.78.624-1.414 1.394-1.414zm-138.765 5.677c4.727-2.785 8.527-3.112 13.943-2.272l1.618 3.24c-5.274-.948-10.83-.863-15.58 2.858-4.923-3.157-8.663-4.068-12.706-3.555l-.073-3.416c5.269-.747 9.997 1.085 12.798 3.145zm122.536-3.08c.77 0 1.393.633 1.393 1.414 0 .78-.624 1.414-1.393 1.414-.77 0-1.394-.633-1.394-1.414 0-.781.624-1.415 1.394-1.415zm12.74.58c.77 0 1.394.634 1.394 1.415s-.624 1.414-1.394 1.414c-.77 0-1.393-.633-1.393-1.414 0-.781.624-1.414 1.393-1.414zm-16.93 2.112c.77 0 1.393.634 1.393 1.415s-.624 1.414-1.393 1.414c-.77 0-1.393-.633-1.393-1.414 0-.781.623-1.415 1.393-1.415zm12.99.82c.77 0 1.394.634 1.394 1.415s-.624 1.414-1.394 1.414c-.77 0-1.393-.633-1.393-1.414 0-.781.624-1.414 1.393-1.414zm-17.285 1.68c.78 0 1.413.642 1.413 1.434 0 .791-.633 1.433-1.413 1.433s-1.412-.642-1.412-1.433c0-.792.632-1.434 1.412-1.434zm13.562 1.186c.77 0 1.393.634 1.393 1.415s-.624 1.414-1.393 1.414c-.77 0-1.394-.633-1.394-1.414 0-.781.624-1.415 1.394-1.415zm-17.69.979c.77 0 1.394.633 1.394 1.414 0 .782-.624 1.415-1.393 1.415-.77 0-1.394-.633-1.394-1.415 0-.78.624-1.414 1.394-1.414zm-61.599 1.279l3.464 3.221-3.583 3.652-1.312-1.279 1.994-2.116-1.35-1.846zm75.444.313c.77 0 1.394.633 1.394 1.414 0 .781-.624 1.415-1.394 1.415-.77 0-1.393-.634-1.393-1.415 0-.78.624-1.414 1.393-1.414zm-4.011 2.394c.77 0 1.393.634 1.393 1.415 0 .78-.624 1.414-1.393 1.414-.77 0-1.394-.633-1.394-1.414 0-.781.624-1.415 1.394-1.415zm-4.36 2.403c.77 0 1.393.633 1.393 1.414 0 .781-.624 1.415-1.393 1.415-.77 0-1.394-.634-1.394-1.415 0-.78.624-1.414 1.394-1.414zm-71.659 4.001l1.131.935-1.775 2.17-1.355-.02zm-21.888 5.851c-3.95 1.984-5.826 3.24-8.58 5.673l-3.946-5.556zm-26.87.04l10.517.15-3.498 5.022c-2.306-2.467-4.645-4.143-7.02-5.173zm12.526.547c1.14.368 4.122 4.682 5.526 7.038 2.99-2.415 5.92-5.113 9.114-6.564-3.798 4.072-7.133 8.284-9.506 12.357-.673-1.836-2.545-7.093-4.915-9.378-3.738 3.542-5.215 7.818-5.215 7.818a67.896 67.896 0 0 0-7.234-10.22c-.464-.635 3.409 1.808 7.243 5.594 1.08-2.76 3.97-6.537 4.987-6.645zm-12.631 2.712c1.806 1.456 6.717 7.851 7.282 11.698l-2.353.15c-1.25-3.95-3.352-7.898-4.93-11.848zm26.154.654c-1.778 3.702-3.985 7.484-5.568 11.582l-2.324-.102c2.545-5.647 3.472-6.68 7.892-11.48zm-13.327 1.647a.079.079 0 0 1 .057.015c2.208 3.06 3.25 6.034 3.908 9.653l-1.709-.068s-1.191-3.633-2.009-4.916c-.529-.784-.953-.684-1.326-.034-.843 1.536-1.159 3.075-1.632 4.747l-1.966-.145c-.364-2.743 3.986-9.182 4.676-9.252zm-.31 10.545c.798.011 1.634.89 1.626 2.433.062.724-.492 2.329-1.092 2.41-1.114.6-2.431-1.264-2.1-2.819.283-1.325.86-2.033 1.565-2.024zm-3.87.292c1.58.142 1.919 3.736 1.28 4.47-.735.74-2.678.216-2.862-1.065-.634-1.63.522-3.388 1.583-3.405zm7.782-.02c1.72.244 1.287 4.189.398 4.769-1.383.742-2.436-.499-1.97-2.353.376-1.494.937-2.382 1.572-2.417zm3.975.653c1.97.223.832 3.697-.029 4.405-1.249.987-2.455-.49-1.856-2.254.465-1.368 1.237-2.16 1.885-2.15zm-15.893.107c1.432.232 2.262 3.522 1.409 4.462-.445.54-1.74-.247-2.332-1.15-.71-1.082-.045-3.317.923-3.312zm15.247 7.165c.17 1.728-1.113 1.727-4.813.885-1.868-.425-5.179-.157-6.871.155-2.848.525-3.25.324-3.245-.852.01-1.365 1.602-2.14 5.296-2.256 2.644-.083 9.223-.11 9.633 2.068zm5.752-1.014c-4.405.421-5.577 6.024-5.091 8.094.386 3.46.222 7.084-.435 9.465-.47 1.71-.888 3.532-1.646 5.081-1.159 2.342-.86 4.08.859 5.014 1.411.766 3.149.504 4.237-.683 1.968-2.147 2.203-6.703.998-17.04-.426-3.649-.198-4.376 1.546-4.171 3.659-.03 3.513-5.754-.468-5.76zm-.53 4.709c-.985-.387-1.653.521-1.522 2.785.034 1.004.209 2.133.334 3.032 1.425 9.918.892 16.563-2.109 16.89-2.612.426-4.381-1.526-3.106-3.545.722-1.144 1.344-1.298 2.748-.698 1.93 1.215 1.447-.554-.29-1.86-1.116-.8-1.2-.8-.602-3.303.807-3.377 1.078-5.785.782-10.056-.416-3.02.578-7.028 4.367-7.264 3.83-.117 2.675 5.404-.602 4.019zm-27.042 13.063c1.247.611 2.46.507 3.646.01.463-2.108.491-3.863 1.89-6.73-2.33-2.366-6.25-1.436-7.353 1.043-1.103 2.48-.076 4.75 1.817 5.678zm3.737-7.32c1.411.305 1.2 1.81-.13 1.319-3.166-1.514-5.748 3.042-3.191 4.756 1.304.741 1.88.316.587-.702-.53-.619-.397-.87-.076-1.492.664-1.252 3.076-1.049 2.906-.14-.55 2.885-.912 3.718-1.766 3.725-4.918.257-5.844-9.088 1.67-7.466zm41.777 5.19s-14.65 16.813-21.707 25.424l88.446-.416-16.83-23.57c-14.438 3.383-31.402 2.406-49.909-1.439zm-.439 5.37c2.21.025 4.723 1.654 6.895 7.083.118.05 9.728-14.813 18.047.576 1.358-3.454 9.195-12.465 18.253-.901 3.217-7.74 10.637-5.122 11.333-2.422-.156-.581-7.07-2.247-10.064 2.882-.554 1.087-.581 2.117.053 2.727 1.495 1.44-.133 3.503-1.836 2.33-.664-.458-.748-1.418-.24-2.11 1.504-1.138-1.576-4.677-4.108-5.95-3.476-1.748-8.324-.976-10.654 1.531-1.254 1.35-2.02 2.56-2.203 3.528-.097.45-.038.685.225.985 1.011 1.238.344 2.933-1.024 2.727-1.792-.27-1.552-1.97-.354-2.9.368-.183.229-.402.118-.72-3.272-9.351-15.466-7.57-16.784-1.094-.048.236-.153.482-.1.724.137.62.494 1.142.357 1.63-.56 1.988-3.01 1.417-3.121-.23-.05-.75.746-.975 1.136-1.66.234-.428.34-.953.117-1.43-3.305-7.026-8.976-5.555-11.79-3.968-.06.034 2.516-3.373 5.744-3.337zm-3.665 4.075c1.209-.044 2.309.559 3.336 1.768 3.463-1.86 5.925 1.36 5.516 1.67-4.904-3.23-6.496 4.298-1.664 4.013-2.124 4.458 5.46 6.368 4.609.67 4.68 1.658 5.452-4.865.711-4.767 1.532-2.691 5.509-1.95 7.19-.264 1.978-2.451 6.834-.114 7.316 1.981-5.446-2.832-5.995 5.823-.72 3.982-1.563 5.509 6.822 4.725 4.504-.025 5.222 1.743 4.511-6.179-.62-4.572-.312-.41 4.057-4.99 7.234-.688.43-.758 5.388-3.24 8.102.659-5.88-2.019-4.766 6.015-.553 4.417-1.127 5.323 6.475 4.459 4.533-.077 5.89 1.512 3.282-7.597-.858-4.234.675-3.661 5.626-2.143 5.572-1.579 0-.003 2.63-2.886 5.574-.775-4.6.393-3.035 6.69 1.312 4.898-.047 2.137 1.703 3.553 4.07 2.828l3.718 5.275-84.786.543 6.773-8.195c2.265 1.9 4.614 1.002 4.903-1.979 4.93 3.07 6.212-4.222 1.585-4.537.94-.65 1.817-.982 2.643-1.012zm-4.738 2.368c.293.21-.105 1.224-.754.93zm66.109 2.117c.252.366.43.602.682.969.122.327-1.321-.174-.682-.97z"/><path d="M3693.815-655.125s-4.645-7.631-10.912-16.603c-4.192-6.004-7.544-12.505-7.855-18.105-.358-6.397 3.025-12.814 9.15-13.125 6.121-.311 8.606 4.932 9.617 9.255 1.012-4.323 3.496-9.566 9.617-9.255 6.125.31 9.508 6.728 9.15 13.125-.311 5.6-3.663 12.1-7.855 18.105-6.266 8.972-10.912 16.603-10.912 16.603zM3796.886-505.185s-4.646 7.631-10.912 16.603c-4.192 6.004-7.544 12.505-7.855 18.105-.358 6.397 3.025 12.814 9.15 13.125 6.121.311 8.606-4.932 9.617-9.255 1.011 4.323 3.496 9.566 9.617 9.255 6.125-.31 9.508-6.728 9.15-13.125-.311-5.6-3.663-12.101-7.855-18.105-6.266-8.972-10.912-16.603-10.912-16.603z" fill="#d40000"/></g></svg>