<svg xmlns="http://www.w3.org/2000/svg" width="63mm" height="88mm" viewBox="0 0 223.22835 311.81102"><g transform="matrix(1 0 0 1 -3369.501 383.253)"><rect ry="10.63" rx="10.63" width="222.232" height="310.814" x="3370.009" y="-382.754" fill="#fff" stroke="#000" stroke-width=".997"/><path d="M3387.15-332.94c-4.292 5.464-8.883 8.609-8.96 12.872-.025 1.38.81 3.727 3.429 4.176 1.699.29 4.037-.938 4.086-3.432-.01-.496.59-.483.584.197-.08 1.967-.778 4.258-1.95 6.122h5.622c-1.173-1.864-1.87-4.155-1.95-6.122-.01-.68.59-.693.583-.197.05 2.494 2.388 3.722 4.086 3.432 2.619-.45 3.455-2.796 3.429-4.176-.077-4.263-4.668-7.408-8.96-12.873zM3575.102-121.754c-4.292-5.464-8.883-8.609-8.96-12.872-.025-1.38.81-3.727 3.43-4.176 1.698-.29 4.036.937 4.085 3.431-.01.497.59.484.583-.196-.08-1.968-.777-4.258-1.949-6.123h5.622c-1.173 1.865-1.87 4.155-1.95 6.123-.01.68.59.693.583.196.05-2.494 2.388-3.721 4.086-3.431 2.619.449 3.455 2.795 3.429 4.176-.077 4.263-4.668 7.408-8.96 12.872zM3379.912-346.95h-2.745v-3.749h2.745s.021-2.019.1-5.581c.17-7.593.36-8.772 2.555-10.861 4.335-4.13 11.595-.765 11.51 5.445-.126 8.765-.036 17.122-.291 18.306-.455 2.085-.5 2.202-.315 2.583.38.765 3.66 1.097 3.66.883v3.69c-2.506.195-3.546-.04-5.55-1.473-1.251 1.209-5.06 2.423-8.09.995-2.304-1.086-4.05-3.891-3.579-10.239zm9.28 6.541c-1.36-1.968-3.65-4.654-5.805-5.609-.134 2.264.061 4.162.855 5.182 1.265 1.626 3.309 1.998 4.95.427zm1.129-21.65c-1.01-2.863-3.605-3.834-5.5-2.042-1.185 1.114-1.375 2.288-1.4 8.662-.016 3.931-.016 5.584-.016 5.584 3.69 1.198 7.14 5.506 7.11 5.45l.09-11.89a33.383 33.383 0 0 0-.284-5.764zm0 0M3582.336-107.743h2.746v3.747h-2.746s-.02 2.02-.1 5.582c-.17 7.593-.36 8.771-2.554 10.861-4.335 4.13-11.595.765-11.51-5.446.126-8.765.035-17.121.291-18.305.454-2.085.5-2.202.315-2.583-.38-.765-3.66-1.097-3.66-.883v-3.691c2.505-.195 3.546.04 5.55 1.474 1.25-1.21 5.06-2.423 8.09-.995 2.304 1.086 4.05 3.891 3.578 10.239zm-9.28-6.543c1.361 1.969 3.651 4.655 5.805 5.61.135-2.264-.06-4.162-.855-5.183-1.264-1.625-3.308-1.997-4.95-.427zm-1.128 21.65c1.01 2.864 3.604 3.835 5.5 2.043 1.185-1.115 1.375-2.288 1.4-8.662.015-3.932.015-5.584.015-5.584-3.69-1.198-7.14-5.506-7.11-5.45l-.09 11.89c-.072 1.93.024 3.861.284 5.763zm0 0"/><path d="M3471.632-97.5L3495-140.2c0 .01 5.574 2.201 12.173 3.92-6.333 16.552-.046 38.386-.046 38.386s-35.514.359-35.496.394zm-64.041-72.918c-1.326-18.134.766-33.512 1.61-50.166.054-.232-7.591-4.977-7.591-4.977l17.968-10.152c1.79.93 2.818.768 3.241-.955-1.812-6.177-2.168-12.158 1.984-17.274 3.11-3.739 10.211-1.817 12.278-1.825 1.607-.007 5.434-12.759-1.037-16.518-1.372-.797-2.021 7.442-2.956 10.907-4.165-2.44-11.863-4.494-12.89-8.796-.527-2.384 7.035-6.971 5.55-9.658-2.163-3.915-7.75-9.77-10.142-8.162-2.26 2.047-7.652 6.232-7.616 9.095 1.684 5.134 5.966 5.491 8.216 10.348.56 1.05 4.698 5.462 4.698 5.462-1.553 2.381.96 6.544 1.078 5.908l-19.602-8.565s4.493 33.906-.252 38.924c-.502.53 4.198-1.33 4.277-1.04 1.429 1.812 17.26 11.907 21.792 15.535 8.047-11.255 10.986-16.207 21.358-26.193 2.276-1.887 7.351-5.334 10.253-9.474 2.332-3.327 3.299-7.074 2.88-9.983-.542-3.761-.876-6.335-3.19-9.332-5.348-6.925-13.854-13.53-13.704-13.65l2.906-2.372s10.491 8.7 14.934 15.098c2.993 4.31 1.65 9.254 4.231 10.138.62.213 4.86-.142 6.252.126.168.033 30.86 21.756 25.296 23.009-7.704 1.735-19.988.603-19.988.603-8.77-8.585-13.004-11.408-18.232-8.718 0 0-13.246 11.62-20.89 20.717-4.357 5.184-11.264 16.024-11.264 16.024-.513-.226-15.678-12.246-15.046-10.898 0 0 3.636 32.925 2.019 44.974-1.11 10.235-2.63 21.228-3.308 30.667 2.15-.469 5.324-1.08 5.925 2.21.525 4.493-5.245 3.45-5.38 3.061.01-.004 3.221 6.933 3.221 6.933s-4.997 8.644-4.859 8.268c.086-.233-4.542-7.674-4.542-7.674s3.435-6.247 3.952-7.514c.354-.865-5.258 2.28-5.478-2.28-.227-4.69 5.856-3.571 5.54-2.978-.751-10.03-2.43-20.402-3.492-28.853zm75.148 22.566c.138-.104-13.264-5.393-25.575-4.894-4.337-1.693-11.411-3.465-16.133-.31-5.31-3.604-9.894-7.573-14.551-11.505 1.304-.017 6.915-32.316 9.385-42.507-1.425-13.636 11.677-13.626 12.815-2.704 14.115 14.633 31.397 29.77 49.211 44.661-2.834 5.893-13.063 10.387-15.152 17.259zm30.86-96.464c-16.092-16.45-49.77-45.857-49.77-45.857l15.765-15.428c8.275 2.473 16.78 4.54 26.393 4.637.038.038 10.536 4.789 16.13-.013l14.551 11.562s-6.035 31.83-9.58 42.938c.076 4.4-1.585 9.76-5.92 10.556-3.701.68-6.548-4.582-7.569-8.395zm32.525-38.106c1.679-10.347 2.025-17.879 3.19-29.95-7.259 2.131-7.16-7.678-.03-5.098l-3.305-7.302 4.894-8.225 4.492 7.811-3.868 6.924c8.04.397 6.1 7.88-.824 6.073 1.306 11.565 4.18 23.247 4.041 34.68 2.489 18.336-3.061 43.85-2.142 44.455l7.84 5.407-1.339 39.893-12.383-5.441-3.685 2.492c1.183 2.348 2.688 4.599 3.196 7.15 0 0 8.528 7.031 7.344 9.223.55.323-6.068 9.106-8.01 8.886-3.702-.42-7.996-5.223-9.232-8.632-1.046-3.436 7.656-6.804 6.559-9.318-1.314-3.007-4.628-4.453-7.567-5.337-4.051-1.219-5.905-4.434-6.09-4.434 0 0-1.575 12.75-3.09 11.731-6.098-4.1-1.928-17.111-.797-16.749 0 0 2.663.614 5.81.91 11.084 1.164 10.333-12.498 8.185-19.111-.768-2.587 2.518-1.757 3.916-2.15 5.382-1.59 13.707-7.158 13.707-7.158-8.663-4.817-16.31-10.314-23.171-15.526 0 0-6.37 10.896-13.918 18.453-5.495 5.502-6.39 7.375-15.587 14.46-.178.137-6.97 8.277-3.736 17.781 2.768 8.134 16.068 16.938 15.97 17.526l-2.618 2.508c.106.146-18.828-11.775-18.387-24.596-.021-.485-8.605-.652-8.605-.652l-24.949-23.18 21.135-.09 10.851 8.884 6.78.353c.443.39.69-1.796 6.66-6.261 11.41-8.531 25.546-30.439 25.546-30.439s14.949 10.54 14.964 10.541c-.748-15.828-3.294-32.85-1.747-46.492zm-54.425-74.8s-15.532 29.247-24.05 43.025l-12.066-3.469c5.056-13.45.215-39.088-1.057-39.734z" fill="#e2cf00"/><path d="M3399.491-358.925v263.156h163.269v-263.156zm112.86 190.869c7.735-7.206 15.386-13.155 22.54-17.478 2.774-1.677 3.616-1.922 4.705-.928 1.778 1.622 2.885 3.033 2.304 4.168-.13.256-.55.681-.55.681l-4.272-1.63 1.384 4.861c-3.845 1.57-3.775 5.74-.065 7.952l-2.553 5.891 5.936-2.62c.227 1.285 4.46 4.39 7.092.002l5.36 2.623-1.847-6.581c1.76-1.682 2.786-4.37.018-6.845l1.274-5.156-4.84 1.58c-1.213-1.663-1.918-1.548-2.196-2.002-.083-.62-.098-2.063-.903-3.393-.666-1.1-1.427-2.268-2.139-3.086-.377-.64-.076-.695 1.858-1.743.908-.492 1.658-.99 1.658-.99s9.471 4.791 13.358 6.616v88.174h-51.98c-5.876-17.59-1.654-32.87-.097-39.27-2.74-.229-16.872-4.82-17.295-6.399 5.598-8.918 13.196-17.022 21.25-24.427zm-101.679 25.676c-6.816-2.207-6.885 6.023-3.403 6.661.903.166 1.847.301 3.258-.156.35.073-4.082 6.9-4.082 6.9s3.55 6.465 5.25 9.212l5.366-9.548-3.509-6.608c5.494 2.808 8.339-5.554 2.57-6.648-1.394-.19-2.934.51-2.934.51l3.033-28.603c2.446 1.666 6.907 5.008 6.907 5.008 1.015 15.758.271 28.89 9.056 51.817l.09 15.875h-30.6v-83.208l5.6 3.788c.113.47-.84.156-.326 5.952.464 5.236 2.054 14.315 3.724 29.048zm108.295-214.1c.24.343.223.866.43 1.56 1.221 4.079 5.465 8.978 8.847 10.264 1.184.45 1.644 1.135.96 1.822-.864.866-4.429-1.504-7.06-4.577-2.39-2.79-3.984-5.1-4.337-6.853-.21-1.04-.315-1.709-.16-2.25.438-.607.98-.438 1.32.035zm4.217-.44c.447-.002 1.049.526 1.41 1.486.868 2.31 2.23 4.037 4.36 5.53.564.396.788.99.501 1.336a.753.753 0 0 1-.401.236c-1.66.465-6.033-4.608-6.38-7.757-.077-.684.163-.83.51-.831zm5.44.063c.884-.004 1.307 1.844.796 2.811-.334.306-1.066-.165-1.716-1.378-.559-1.043-.335-1.428.92-1.433zm-2.958.029c.197-.006.606-.112.814.177.34 1.91 1.776 3.292 2.921 4.398.193.362.283 1.12-.138 1.317-1.004.446-4.025-2.999-4.046-4.992-.01-.6.176-.892.449-.9zm-3.835 1.21c1.06 3.486 3.625 6.33 5.922 7.806 1.642 1.048 2.275 1.644 1.514 2.179-.189.132-.38.234-.425.227-3.845-1.472-8.572-7.056-8.73-11.009.837-1.076 1.576.129 1.72.797zm-13.308 15.132c-2.022.003-4.498.465-6.51 1.38-2.798 1.274-3.5 2.12-3.092 2.427.294.216 2.096-.56 2.999-.677 4.873-1.21 8.226-1.507 11.402-.118 2.455 1.073 2.47.58.822-1.207-1.196-1.296-3.329-1.808-5.62-1.805zm17.178 2.68c1.612-.017 3.258.36 3.843 1.115.456 2.44-.76 1.324-1.738.838-1.414-.654-3.035-1.22-4.547-.987-.972.15-1 .1-.448-.212.83-.507 2.007-.742 2.89-.755zm-19.102.95c-4.61.358-6.205 2.696-9.18 5.107-1.223.933-.945 1.654.545 1.41 1.839-.303 2.58-.23 5.088.628 2.738.938 4.7 1.327 6.206.747 2.845-1.097 2.601-.914-1.468 3.037-2.177 1.754-1.298 1.662.907.143 1.63-1.305 2.75-2.137 3.09-2.853.166-.348.18-1.593.487-1.593 1.035 0 .502-1.295-.439-1.845-.618-.442-.48-.903.32-1.753 1.256-1.325.83-1.924-.535-1.098-.24.13-.358-.275-1.19-.778-1.318-.797-2.427-1.168-3.83-1.152zm3.322 1.734c1.114.94.638 1.201-1.793 1.178-2.055-.02-3.804.197-6.244 1.008-2.772.922-2.941.946-1.313-.446 2.239-1.914 6.788-3.834 9.35-1.74zm14.398-.811c1.118-.024 2.061.135 2.913.605 2.322 1.284 2.838 2.397.254 1.49-1.622-.57-3.812-.49-5.325-.069-1.563.435-1.832.587-1.62-.259.258-1.036 1.915-1.727 3.778-1.767zm-18.259 3.787c.55 2.766 2.642 1.862 2.85.192l.763.003c-.324 2.221-3.34 4.08-4.512-.195.248-.007 1.343.07.899 0zm16.686.047l.567-.018c.374 2.12 2.34 2.814 3.194.161l.686.014c-.525 4.425-5.194 2.27-4.447-.157zm-18.287.206c.377.134.55 1.171.486 1.445-.132.567-1.978-.037-2.369-.59.386-.412 1.297-1.062 1.883-.855zm25.122.472v.774c-.853.205-1.207.685-2.004.528.045-.495-.038-1.175.425-1.753.58-.307 1.272.07 1.583.45zm-18.605.895c-.387.306-.918.34-.918.34-.083-.742-.208-1.577.714-1.583.605.177.563.929.204 1.243zm10.64-1.23c.323.023.703.832.748 1.303-.095.774-1.994.465-1.994-.304 0-.326.794-.998 1.245-.999zm-17.38 29.296c-1.465-.736-12.582-7.511-15.43-19.494l-.566 1.226c1.207 2.869 2.988 7.528 2.988 7.528-.074-.401.454 3.122 1.587 9.103-.6.007-1.265-.164-1.918-.34-1.466-5.475-1.813-9.768-3.045-15.126l-.535 1.496s1.548 9.615 2.597 13.374c-.6-.057-1.704-.305-1.704-.305-.874-4.055-1.55-6.775-2.372-10.842l-.756.984c1.086 3.337 1.509 6.322 2.056 9.52-.746-.113-1.496-.185-2.207-.582 0 0-1.121-5.832-1.27-5.917-.427.431-.604.987-.604.987-.045-.052.973 3.234.9 4.587-.713-.118-1.952-.476-2.824-.77-.457.304-.695.812-1.046 1.268.43 1.856 25.935 5.873 24.406 4.339-.01.16 11.246 4.94 17.527.879 0 0 10.925 8.125 15.193 11.372 0 .369 1.478 2.09 3.017 3.186l4.325 3.34c1.257.98 1.76.27 1.95-1.573.213-2.053 1.7-15.895 2.048-18.846 1.299-9.942 1.297-9.836-.208-9.379-2.302.7-4.374-.21-4.374-2.571 0-1.445.667-2.642 2.201-3.2.436-.15 1.004-.164 1.656-.15.298.053.85.09.908.1.733-.04-2.839-6.527-2.839-6.527s3.413-6.1 5.055-8.372l4.417 8.029-3.617 7.081c7.044-.53 6.355 8.352-.541 5.378 0 0-.041 2.638-.027 2.445.067-.755.056-1.4.294-1.542 6.68 2.54 8.042-7.233.843-6.783 1.184-2.071 2.505-4.213 3.736-6.496l-5.206-9.517-5.88 9.811 2.959 6.126c-.665-.173-1.2-.068-1.912.005-4.358.895-3.421 7.93 1.56 6.963.569-.11 1.424-.543 1.424-.543l-3.215 28.736s-.318.257-1.608-.675c-1.49-1.077-4.612-3.417-4.81-3.657 1.115-18.37-3.466-37.7-8.697-49.8-.332-.93-.135-19.155-.135-19.155h29.936v84.722c-1.551-.985-3.394-2.28-4.988-3.409-.478-.388-.775-.848-.57-1.588-.524 1.125-.208 1.608-.208 1.608l6.55 5.249-.26 83.301s-10.573-5.465-17.083-8.102c-2.937-1.202-3.069-.856-3.069-.856.01-.005 2.076 4.671 1.486 5.515 1.4 1.35 3.752 4.174 3.866 6.938 1.253 1.087 1.605 1.223 2.544 2.79l3.93-1.425-.893 4.105c4.178 2.935.155 6.881-.619 6.517 0 0 1.844 3.968 2.265 5.774-.66-.045-3.969-1.845-4.89-2.271-2.398 4.733-6.447.76-6.479.063l-4.49 2.006 1.59-5.128c-2.893-1.764-4.847-4.431-.17-7.303l-1.08-4 3.846 1.515s.717-1.156 1.263-1.999c-1.439-6.282-10.897-5.094-13.935-10.744 0 0-.746 7.053-1.511 9.606-.299 6.746-5.01-.078-5.01-7.215 0-1.612 2.019-7.034 2.702-7.297.711-.1 7.463 3.174 11.997-.078 2.064-2.153 5.624-8.211 2.204-17.695-1.132-2.192 2.151-2.469 3.217-1.73 0 0 9.867-5.176 14.321-7.67-7.472-4.117-23.009-15.074-22.999-15.594-2.072 3.3-4.447 6.069-7.784 10.736-5.41 6.39-9.639 12.461-16.505 17.567-9.655 7.052-11.923 14.15-9.23 22.482 1.09 3.602 3.284 7.254 6.878 8.518 1.828 1.854 9.172 8.828 9.172 8.828-12.26 11.197-20.678 20.407-26.582 30.583 4.983 2.629 17.001 6.435 17.001 6.435-4.464 14.88-2.432 26.7.51 38.565 0 0-34.886.045-52.987-.526-.155.153-2.114.048-2.14-.077-.071-1.326 3.26-4.974 4.257-4.464.502-.495 1.562-.748 1.371-1.356-2.497-.299-6.287 4.03-6.437 5.82h-1.49c-.304-.267 2.704-7.311 8.734-7.873-.063.253.809-.548.154-.891-7.028.835-10.301 8.658-10.094 8.764h-1.086c2.39-7.692 8.612-10.12 12.213-10.454.035-.015 1.168-.411.864-1.085-7.958 1.386-11.926 4.841-13.84 11.54h-1.434c1.036-6.794 8.003-12.746 15.878-12.552.246-.156.548-.341.42-1.113-8.74.987-13.098 3.912-16.689 11.442-3.211-8.362-12.137-12.329-12.243-12.364 0 0-.216-2.34.283-2.244 7.614 2.765 10.521-3.867 10.203-7.72-.177-2.144-.057-3.325-.772-6.416-.638-2.755-1.11-4.612-1.059-5.809.05-1.184.42-1.423 1.292-1.82 1.632-.742 2.654-3.43 2.291-3.758-.838 1.955-3.055 2.292-4.076 3.605-.816 1.082-.457 2.805.995 8.785.885 3.644-.164 1.969-2.229.828l-1.379-.783c.925.954 1.903 1.853 2.845 2.788.844.773.372 1.251-.838.803-1.742-.872-5.1-.507-6.386.591-.502.359-.68.322-.806-.009-.563-9.288.41-15.001 3.478-21.981 1.983-4.745 4.935-8.298 8.873-8.551 3.968-.33 9.673 1.064 14.855 4.594 6.085 4.146 12.015 10.45 12.645 18.184.024.09.468-.661.67-1.058.278-.92-.737-3.68-2.323-6.882-.293-2.408-1.118-6.63-1.767-9.485.493-.226 1.544-.1 1.84.261 1.114 4.721 1.907 8.399 2.862 14.725.014.617.804-.916.807-1.322-.138-.943-2.766-13.322-2.713-13.04.015-.42 2.493.133 2.153.523 0 0 1.884 10.384 2.017 10.062l.638-.881s-1.799-7.584-1.574-9.045c.154-.224 1.547.229 1.989.47.555.746.91 3.451 1.144 5.297.64.49.768-.928.72-1.303-.463-.735-.951-3.476-.585-3.617.288-.11 1.885.525 2.192.799.36.322 1.753-1.611 1.399-1.946-7.535-2.895-17.04-4.584-24.194-4.698-1.662.007-2.322-.228-4.871-1.152-6.492-2.351-11.86-.009-12.647.734-7.927-5.525-16.777-13.241-23.82-18.164-.332-.22-1.122-.351-1.209-.351-1.118 8.571-1.899 18.488-2.852 26.399-.387 3.132-.433 3.376-.29 3.465.124.077.368-.048.465-.098 2.319-.857 4.413-.3 5.523 1.8.558 3.005-2.06 4.981-4.823 3.555-1.025-.53-1.172-.426-.704.576.807 1.803 3.137 6.552 3.137 6.552 0 .002-3.148 6.444-4.74 8.197-1.553-2.515-3.534-5.058-4.393-7.805 1.22-2.395 3.525-5.479 4.253-7.84-.104-.075-.731-.01-1.168.218-4.03 1.912-4.677-1.688-4.623-2.982.109-2.63 2.393-3.19 5.711-1.964-3.586-23.898-4.351-37.514-3.435-36.04 0 0-4.332-3.107-6.485-5.214l.245-173.962h51.388c5.283 14.207 3.829 31.292.67 40.188 5.61 1.029 11.276 2.357 17.677 6.043-10.814 15.902-27.79 33.09-46.178 44.093-1.043.472-4.467-1.67-4.869-3.786-.093-.492.179-1.46.73-1.443 1.35.44 2.66 1.044 3.979 1.583 0 0-1.838-4.624-.95-5.327.576-.38 1.048-.697 1.418-1.088 1.32-1.71 1.214-3.651-.183-5.141-.563-.592-1.22-1-1.548-1.15 0 0 1.296-3.608 1.946-5.309l-5.102 1.693c-1.652-2.297-4.69-4.084-6.935-.664-.428.911-.34.771-3.498-.63-1.79-.795-2.894-1.202-2.894-1.202.672 2.005 1.55 3.889 2.317 6.21-3.515 2.247-2.714 6.038.245 7.17l-1.559 5.12s3.324-1.243 5.126-1.725c0 0 1.58 1.592 2.048 3.105.803 2.595 2.628 4.476 3.782 5.547-1.922 1.414-2.872 1.89-5.037 2.933l7.474 3.029c-.465-1.585-1.455-2.761-1.554-4.765-.09-1.718-.186-1.75-1.293-2.911-2.034-1.779-2.25-3.89-2.933-5.284-.933-.551-1.53-1.428-1.97-2.352-.492-1.034-3.707 1.389-4.193.93-.596-.638 1.035-3.908.854-4.235-1.312-.112-4.987-2.985-.61-6.185l-1.396-5.205s3.332 1.46 4.928 2.279c1.11-5.2 6.168-2.707 6.986-.465 0 0 4.01-1.322 3.761-.25-.112.964-.763 3.367-.763 3.367 3.605 3.202 2.86 4.774-.07 6.873-.045 1.698.666 4.336.666 4.336s-2.04-.908-3.384-1.29c-.537.54-1.148 1.514-1.046 2.016.912 4.047 5.887 5.174 13.26 9.31.252-2.615 2.05-6.189 2.254-9.326.127-2.288.205-2.324 1.81-1.593 4.225 3.06 2.935 11.469 1.396 14.919-.912 1.953-1.062 1.902-2.834 1.336-2.455-.784-6.794-.468-9.182.344-3.301 1.356-4.859 8.743-4.895 10.987-.058 2.132.106 4.246 1.221 6.88.463 1.686-.387 2.985-1.902 2.533a24.583 24.583 0 0 1-1.148-.412l-14.25 7.394 2.684 1.585s-1.98-1.185-.753-1.827l12.218-6.396c2.277.891 1.972 1.073 3.448-.47.883-.912 1.317-.93 2.5-.816 7.203.693 10.394-.359 11.64-3.387.186-.454.115-.438.85-.811 1.364-.531 2.004-1.493 2.074-2.7.045-.79.387-.899.988-1.452 1.12-1.032 1.347-2.326.642-3.656-.332-.625-.587-.823-.448-1.472.23-1.087-.17-2.22-1.212-3.419-1.2-1.379-1.191-1.146 1.067-3.256 4.436-4.23 8.345-7.467 12.66-11.294 2.951-2.618 2.632-2.43 3.781-1.233 4.229 4.41 5.888 11.286 3.984 17.333-.09.284-.13.252.092 0 1.195-1.36 1.23-8.204.207-11.239-1.246-3.73-2.453-5.67-6.574-9.322-2.573-2.33-9.574-9.057-9.574-9.057 10.186-8.86 21.158-19.874 27.31-29.999-3.158-3.396-17.794-6.527-17.794-6.527 1.822-3.79 5.426-20.821-.744-39.704 18.113.837 36.358-.493 54.451.736 0 0 .282-.108.432-.147.503-.132.755.224.633.789-.387 1.441-2.496 4.815-3.984 4.536-.663-.258-.476 1.021-.773 1.553 2.345-.304 5.096-3.285 5.784-6.24.378-.62.623-.724 1-.604.433.138.325.551-.145 1.98-1.468 3.574-4.446 6.894-7.908 6.562l-.448 1.22c4.67-.076 8.28-4.468 9.347-7.753.746-1.953.775-2.217 1.524-2.029.619.575.236 1.4.025 2.08-2.348 7.524-8.796 9.534-12.007 9.207-.387-.048-.455.316-.338.935 6.898.456 12.392-5.504 13.17-10.619.377-1.42 1.033-1.905 1.411-1.256.214.572.143 1.157.037 1.702-1.885 8.074-10.466 12.659-15.71 11.35-.242-.228-.637.888-.066 1.287 10.585-.4 13.853-5.88 16.267-10.72 2.88 4.357 5.235 8.85 12.136 11.49 0 0 .688 1.52.145 1.862-.286.18-.723.096-1.356-.007-8.412-1.363-11.194 6.523-7.613 18.303.98 3.225.541 2.732-1.555 4.75-.998.962-1.474 2.668-1.211 2.707.359-.203.477-.755 1.351-1.482.381-.316 1.162-.618 1.738-1.017 1.556-.905 1.542-1.524.984-3.664-.416-1.59-1.473-6.43-1.475-6.92 0-.928.216-.83 1.373 0 1.614 1.2 2.53 1.115.576-.423-.756-.596-1.248-1.06-1.476-1.394-.311-.455-.119-.749.511-.55 2.899.91 5.387.845 8.2-.873.322 7.771-.744 19.562-7.235 27.992-4.98 5.61-14.513 1.365-18.04-.407zm7.628-17.858c-.193.009-.888.153-1.318.4-1.912 1.098-1.456 4.993.631 5.512.84.209 1.601.323 3.012-.352.84-.402 2.016-.717 2.346-.578.693.29.912-.324 1.06-1.017.33-1.548-2.202-1.585-4.217.016-2.542 2.02-4.49-.961-2.095-3.206.798-.517.774-.784.581-.775zm-19.75 8.335l2.135 2.476 1.342 5.899c-.814.139-1.8-.315-1.8-.315-.667-2.668-1.317-5.34-1.677-8.06zm29.081 1.485a.254.254 0 0 0-.072.019c-.09.04-.487.22-1.037.28-.318.036-.798-.19-1.14-.169-.934.058-1.808.335-2.042.431-.287.12-.57.17-.816.025-.697-.413-2.728-.296-3.345.067-.731.312-1.553.316-2.153.005-.259-.134-.523-.472-.57-.426-.095.096-.485 1.766-.603 2.412 0 .227-.156.605-.063.644.12.048.502-.3.975-.543.97-.496 2.054-.458 3.959.01 2.35.578 3.265.41 4.653-.3 1.105-.565 1.776-.7 2.51-.499.182.05.664.301.73.238.13-.126-.227-.824-.532-1.516-.22-.5-.3-.697-.453-.678zm-25.36 2.662c2.065 1.962 1.91 1.794 3.213 2.764l-.063 1.89s-1.597.036-2.38-.208c-.248-.736-1.322-4.427-.77-4.446zm16.983 1.27c.14.096.343.198.623.293 3.287 1.237-.151.925-.479 2.103 0 .106.15.122.312.058 1.127-.444 3.883-.732 5.136-.489 1.626.55 1.728.17.164-.648-1.144-.452.243-.76.71-1.156.97-.626.303-.884-.932-.29-1.236.595-3.438.586-4.441.022-.444-.226-.877-.437-1.081-.45-.42-.017-.198.424-.012.557zm-12.939 2.118l1.924 1.508-1.967-.19zm-43.57 37.902a.707.707 0 0 0 0 1.414.707.707 0 0 0 0-1.414zm2.569.714l-8.824 4.202 2.332.783-.019 2.42 2.148-.686.91 2.261zm.39 1.979a.707.707 0 0 0 0 1.413.707.707 0 0 0 0-1.413zm-11.185 4.3a.703.703 0 0 0-.705.701c0 .39.316.707.705.707a.707.707 0 0 0 .704-.707.703.703 0 0 0-.704-.702zm2.711 1.314l-9.904 4.564 2.936.895-.776 3.032 2.392-1.008 1.335 2.035zm.292 2.172a.707.707 0 0 0 0 1.414c.389 0 .7-.317.7-.707a.703.703 0 0 0-.7-.707zm-19.652.455c3.725-.005 7.902 1.416 9.327 4.614.38 1.6-1.187 2.551-4.533 1.63-5.53-1.52-6.562-1.691-5.643-.748.121.124.364.428 1.192.711 2.083.712 6.115 1.536 7.203 1.424 1.486-.198 2.514.496 2.143 1.738-.421 1.411-2.35 1.989-5.252 1.579-3.005-.425-4.659-.772-5.658-1.075-1.282-.389-1.327-.356-.72.547.317.47.348.846.817.935 1.984-.113 4.096.268 5.918.44 3.27.294 3.782 1.224 1.38 2.644-1.138.673-4.543.489-6.478-.21-1.383-.5-4.553-1.213-3.33-.245.293.232.192.803.704.983 1.677.232 6.417.565 7.159 1.238.477.433-.598 1.533-2.811 2.107-3.331.634-8.313.37-9.629-.532-2.436-4.976-1.125-13.12 2.689-16.303 1.217-.955 3.288-1.474 5.522-1.477zm21.84 2.595c-.39 0-.7.317-.7.707a.703.703 0 0 0 1.405 0 .707.707 0 0 0-.706-.707zm2.941.754l-10.227 5.109 2.587.77-.613 2.985 2.397-.99 1.451 2.008zm.079 2.5a.707.707 0 0 0 0 1.414.707.707 0 0 0 0-1.414zm5.947 6.024c-4.535 4.426-9.645 7.933-14.314 12.232l1.011-.04 2.544-2.302 71.64-.225-1.674 2.45.704.303s2.148-3.186 2.002-3.332c-15.74.045-27.888.01-45.155.128-3.147-3.126-6.471-6.055-9.761-9.025zm-21.776 2.838a.707.707 0 0 0 0 1.414c.389 0 .7-.317.7-.707a.703.703 0 0 0-.7-.707zm93.526.54c6.189 4.608 13.521 10.257 19.606 13.61 2.437 1.063 2.2 1.425-.275 2.598-2.434 1.518-6.485 3.473-9.863 5.181-1.464.555-2.103-.168-3.143.025-.749.191-.963.332-1.41.925-.731.97-.532.937-4.445.76-3.949-.179-5.577-.09-6.425.344-.817.417-2.217 1.844-2.217 2.435 0 .57-.446 1.3-1.26 1.545-.946.23-2.04.983-1.993 2.15-.253.878-.789 1.268-1.265 1.75-1.125 1.138-1.013 2.034-.687 3.091.15.474.38.364.263 1.765-.268 3.21-.488 2.939 2.935 5.314l-17.49 15.286c-.405.32-.524.288-.893.034-2.132-1.589-3.617-4.214-4.472-6.84-2.955-8.165.653-14.871 5.448-18.976 1.661-1.422 3.893-3.117 4.514-3.544 9.03-7.724 16.883-18.663 23.072-27.452zm-90.915.598l-9.998 4.736 3.22.544-.616 2.79 2.332-.886 1.234 2.352zm.612 2.213a.707.707 0 0 0-.705.707.703.703 0 0 0 1.405 0 .703.703 0 0 0-.7-.707zm91.615 3.106l-1.136-2.693s-3.158 7.803-3.826 10.447c2.676-1.383 10.514-5.386 10.514-5.386l-3.354-.624.379-3.056zm-114.21.481a.707.707 0 0 0 0 1.414.707.707 0 0 0 0-1.414zm3.063.644s-7.44 3.502-10.798 5.013l3.135.659-.55 3.058 2.83-1.107 1.14 3.022zm.398 2.31a.707.707 0 0 0-.705.707c0 .39.317.702.705.702a.703.703 0 0 0 .705-.702.707.707 0 0 0-.705-.707zm105.282.508a.703.703 0 0 0-.705.702.703.703 0 0 0 1.405 0 .699.699 0 0 0-.7-.702zm12.164.64l-3.54 9.87 9.576-4.836-2.6-.712.013-2.442-2.139.625zm-113.178 2.372a.707.707 0 0 0 0 1.414.707.707 0 0 0 0-1.414zm104.744.18c-.388 0-.7.317-.7.707a.703.703 0 0 0 1.405 0 .707.707 0 0 0-.705-.707zm-101.808.723l-10.148 4.966 3.15.74-.346 3.178 2.561-1.459 1.39 2.898zm.634 2.1c-.388 0-.665.317-.665.707a.703.703 0 0 0 1.404 0c0-.39-.35-.707-.739-.707zm105.525.624a.707.707 0 0 0-.705.707c0 .39.317.702.705.702a.703.703 0 0 0 .705-.702.707.707 0 0 0-.705-.707zm-13.983 3.247l-.943-2.658-3.754 9.745 10.096-4.64-3.204-.753.057-2.545zm-10.258-2.098c-.115-.006-.217.026-.217.101 0 .226-2.58 2.754-2.58 2.754l-29.8.276c.061.004 2.48.676 2.48.676 3.91 3.133 10.036 8.69 10.036 8.69l7.397-.296c4.097-4.034 10.253-7.102 12.998-12.085a.517.517 0 0 0-.314-.116zm27.933 2.009a.707.707 0 0 0-.705.707.703.703 0 0 0 1.405 0 .703.703 0 0 0-.7-.707zm-23.003 3.402c-.389 0-.7.312-.7.702a.703.703 0 1 0 1.404 0 .703.703 0 0 0-.704-.702zm15.127 1.02c2.136-.011 4.194.063 4.726.47 3.302 2.789 1.737 15.822-2.424 17.468-4.567 1.031-7.726 1.222-11.689-1.4-1.124-.55-3.354-2.211-2.92-3.582.594-1.686 2.227-1.563 6.909-.102 1.709.533 2.648.426 3.085.092.407-.312-.126-.66-1-.664-.351 0-1.865-.375-3.128-.765-1.782-.55-2.294-.71-3.447-.78-1.937-.114-2.5-.19-2.5-1.38 0-2.219 3.077-2.513 8.742-1.21.678.156 1.905.329 2.206.32.219.083-.431-.736-.54-1.225-.205-.175-.57-.258-1.535-.29-3.643-.36-6.667-.607-6.733-1.085-.321-2.35 4.39-2.99 9.277-1.104 1.254.484 1.279.283 1.27-.083-.019-.677-2.119-1.859-5.216-1.827-3.014.032-2.593-1.504-.116-2.658.846-.394 2.897-.184 5.033-.195zm-11.652 2.519c-.388 0-.7.317-.7.707a.703.703 0 1 0 1.405 0 .707.707 0 0 0-.705-.707zm-10.857 4.876l-.637-2.633-4.1 10.247 10.355-5.29-3.414-.643.3-2.156zm-5.276 4.115a.707.707 0 0 0 0 1.414c.389 0 .7-.318.7-.707a.703.703 0 0 0-.7-.707zm10.316 2.906l-.871-2.49-3.482 8.92 8.835-3.959-2.61-.714.372-2.703zm-7.033.027a.707.707 0 0 0 0 1.414c.388 0 .7-.318.7-.707a.703.703 0 0 0-.7-.707zm2.262 3.407a.703.703 0 0 0-.705.702.703.703 0 0 0 1.405 0 .699.699 0 0 0-.7-.702zm-4.44 2.088l-2.983 8.448 8.303-4.031-2.426-.802s.133-1.9-.095-1.812c-.145.056-1.708.494-1.708.494zm7.39 1.01a.703.703 0 0 0-.706.703c0 .39.317.707.705.707a.707.707 0 0 0 .705-.707.703.703 0 0 0-.705-.702zm-11.008 4.065a.707.707 0 0 0 0 1.413.707.707 0 0 0 0-1.413zm3.174 3.268a.703.703 0 0 0-.705.702c0 .39.316.707.705.707a.707.707 0 0 0 .705-.707.703.703 0 0 0-.705-.702zm-43.791 38.907c-.38.057-1.369-.85-1.561-1.275.563-.143 1.145-.037 1.46.228.26.248.445.884.101 1.047zm3.006-.61c-.134 1.032.503 2.898.382 3.34-.326.162-1.978-1.615-2.385-2.047-.085-.59.01-1.339.04-1.677.567-.101 1.573-.063 1.963.383zm2.974.513c.352 2.287 1.356 5.965 1.2 7.205-.15-.12-1.423-1.379-2.363-2.714-.33-.8-.846-3.584-.801-4.917.634-.087 1.484.015 1.964.426zm-19.924-.257c-1.016.52-2.17.893-3.62.887-1.163-.005-3.165-.61-2.962-.46.53.95 1.912.451 1.938 1.071-.344.613-1.262.555-1.72 1.142-.096.156.136.287.783.219 1.964-.893 4.53-.877 6.876-.103.494.103.17-.371 0-.497-.304-.224-.808-.46-1.232-.51-2.052-.366-1.15-.573.222-1.188 1.007-.37 1.26-1.278-.287-.561zm4.443 2.906c-.273.021-.956.37-1.704.673-1.263.512-2.433.392-4.133-.082-1.476-.413-2.014-.298-3.484.444-.975.627-2.042.802-2.815.364-1.001-.57-.995-.375-.499 1.036.124.353-.12 1.42.315 1.666.332.187.714-.436.97-.523.257-.086 1.868.638 2.767-.16 1.603-.583 2.085.363 3.195.272 1.803-.638 2.931-1.303 4.48-.071.092-.461.452-2.98 1.029-3.576-.015-.034-.058-.048-.121-.043zm-3.284 7.249c-1.298.015-2 .815-3.673.662-1.336-.094-1.794 1.094-1.228 1.96.399.61.933.723 2.754-.114.75-.345 1.79-1.102 2.4-1.041 1.78.178 2.212 1.905.728 3.365-.722.426-.728.888-.508.897.586.022 1.774-.68 2.043-1.5.739-2.243-.589-4.27-2.516-4.23zm5.82 10.337c-1.688.356-4.12 2.3-4.948 3.558-.773 1.226-1.514 2.612-.974 3.297.444.561 1.064 1.107 1.117 1.411.046.266-.316.53-.655.91-1.482 1.663-1.129 1.754.95.674 1.052-.547 1.542-.766 2.23-.586 2.003.524 4.497.15 6.193-.475.766-.282 1.516-.665 1.574-.47-3.095 3.417-6.954 2.557-8.332 2.349-.24-.063-.426-.048-.425.034 0 .166.4.527 1.25.905 1.423.633 4.84-.04 6.976-1.602 4.225-2.773 6.554-5.422 3.225-4.315-1.527.508-2.1.42-3.954-.421-2.78-1.26-4.91-1.629-7.212-.823-2.917 1.02-.68-1.392 2.602-3.482.71-.453.8-.972.383-.964zm-15.733 7.206l-.973.015c-.695-2.35-2.377-2.346-3.104.014l-.813-.057c.796-2.93 3.803-3.533 4.89.028zm17.302.194l-.73.033c-.444-1.423-2.006-2.675-3.106-.343l-.507-.104c.9-3.726 4.486-1.654 4.343.414zm-4.873-2.14c.455 0 .57.518.053 1.36-.364.593-.797.54-1.23.092-.393-.393-.369-.463.057-.852.454-.415.847-.6 1.12-.6zm5.383.014c.197-.006.574.157.996.3 1.109.376 1.36.687.906 1.143-.447.448-1.294.583-1.685.328-.018-.56-.57-.99-.59-1.553 0-.15.175-.212.373-.218zm-17.374.02c.769-.036 1.8.42 1.725.866-.082.486-.84.805-1.466.857-.419.055-.402-.115-.512-.413-.098-.266-.224-.606-.295-.872-.173-.511.155-.424.548-.439zm-5.258.168s-.431 1.286-.624 1.724c-1.609-.086-1.457-.798-.697-1.312.409-.312.822-.318 1.32-.412zm-1.25 3.056c.292.005.653.258 1.16.421 1.424.46 3.791.409 5.638-.02.884-.204 1.302-.479 1.496-.338.346.251-.012 1.127-1.289 1.69-1.663.615-4.2.949-6.12-.034-1.644-.84-1.827-1.736-.884-1.719zm-.439 1.84c1.507.999 3.016 1.314 4.88 1.14 2.792-.102 3.29-.448.937.802-2.173 1.154-5.524.942-6.169-.31-.37-.717-.13-1.572.352-1.632zm13.527 1.675a.057.057 0 0 0-.024.005c.225 1.511 2.754 2.894 3.968 3.22 2.575 1.146 6.67.012 9.751-1.321 2.25-.974 3.062-2.443.382-1.608-4.314 1.344-9.728 1.445-12.44.402-.882-.42-1.486-.704-1.637-.697zm-14.194 5.658c5.397 1.222 11.921 9.571 11.897 13.222h-1.743c-2.654-9.287-9.546-11.297-10.22-11.851-.309-1.14.08-1.398.066-1.37zm-.086 2.352c6.415 2.819 8.696 7.847 9.657 10.87h-1.875c-1.398-4.16-3.91-7.126-7.797-8.972-.263-.58.015-1.898.015-1.898zm-.01 2.847c3.287.972 6.186 5.312 7.01 8.023l-1.642-.01c-1.163-3.024-2.812-4.964-5.43-6.081-.11-.57-.087-1.215.062-1.932zm-.053 2.949c1.543.311 4.157 2.717 4.533 5.074h-1.506c-.532-1.588-2.174-3.04-3.015-3.632 0-.288-.012-1.442-.012-1.442zm.158 2.516c.166-.104 2.47 1.977 2.082 2.558h-2.076c-.024-.647-.04-2.565-.01-2.558z" fill="#131f67"/><path d="M3491.739-356.819c-3.913 7.601-23.986 41.833-24.19 43.024l5.141 2.28 24.957-45.13s-5.171-.168-5.908-.174zm59.053 28.652l-2.174 3.099 1.764 3.544 2.139-3.38zm-91.82 34.282s-7.198 7.174-10.011 10.52c6.047 6.05 17.604 13.65 17.69 25.342l7.968.03 25.793 23.14s23.356.17 23.791.069c.47-.11 8.77-12.025 8.77-12.025l14.8 10.823s-.71-11.657-1.27-18.8c-.182-4.777-.34-7.715 3.142-9.83-4.784-2.287-4.482-6.492-.964-9.58-1.16-1.609-2.895-1.906-3.155-7.612-.733-.788-1.426-1.25-2.342-1.918l-.956.857c-3.07 2.766-5.163 5.587-5.508 7.423-.656 3.496 2.883 5.89 4.93 3.336.576-.72 1.09-.518 1.09.422 0 1.906-2.39 2.982-4.412 1.99-.473-.232-.89-.386-.932-.344-.073.073 2.007 5.183 2.568 6.31.935 1.874 1.425 3.757 1.497 5.728.077 2.104.035 2.373-.946 6.009-.925 3.425-.49 5.462 1.163 5.462.93 0 .901.896-.039 1.225-1.997.698-3.236-.778-3.307-3.932-.043-1.917-.076-1.964-1.057-1.501-3.415 1.61-7.125-1.268-5.518-4.28.338-.633.737-.434.947.47.393 1.694 1.278 2.44 2.877 2.435 3.686-.014 5.23-5.238 3.104-10.498-.427-1.056-.642-.996-1.202.339-.88 2.094-2.353 2.71-3.568 1.491-.407-.408-.604-1.071-.328-1.104.064-.008.47-.025.898-.038 2.147-.07 2.89-2.16 1.883-5.303-.885-2.762-1.021-3.262-1.285-4.76-.406-2.313-.123-4.069 1.02-6.314.2-.396 1.46-1.808 3.026-3.394 1.598-1.62 2.974-2.862 2.974-2.862-1.523-1.277-2.905-2.282-4.623-3.565 0 0-10.976 30.23-10.198 42.007-1.393 15.518-12.767 11.225-13.604.478zm-.49 4.532c3.752-.062 6.225 4.914 7.638 15.239.468 3.421 2.546 8.213 4.055 9.345 3.805 2.858 9.76.656 9.765-3.612.01-5.313-7.43-6.1-7.545-.799-.027 1.25-.666 1.315-1.28.126-.546-1.06-.053-3.042 1.01-4.043.681-.642.628-.763-.671-1.482-4.524-2.505-6.449-6.24-4.031-7.83 1.057-.695 2.502.184 1.84 1.119-1.037 1.46-1.05 1.692-.184 2.905.984 1.379 2.15 2.067 4.919 2.886 2.324.688 2.706.817 3.78 1.307 3.142 1.437 4.577 4.6 3.48 7.67-.259.725-.51 1.44-.56 1.589-.112.336.072.338 2.284.043 3.519-.47 7.429.791 9.355 3.017 1.036 1.196 1.866 3.886 1.892 6.13.01.432.138 1.408.3 2.17.161.76.376 2.047.473 2.856.92 7.681 7.296 11.61 10.05 6.193 1.734-3.408-2.275-6.818-4.315-3.67-.717 1.106-1.456.597-1.043-.717.802-2.553 3.98-2.987 6.145-.837 1.17 1.162 1.732 3.799 1.164 5.471-.298.878-.267.934.381.707 1.455-.508 3.969-.019 4.871.95 2.126 2.28 1.7 5.02-.917 5.907-1.19.4-2.538-.016-2.979-1.414-.193-.997.49-1.284 1.019-.426.99 1.606 3.144.311 2.636-1.584-.579-2.155-2.416-2.613-5.808-1.443-5.391 1.861-7.131 1.706-9.712-.866-1.843-1.837-2.536-3.423-3.032-6.925-.548-3.866-.6-3.966-1.555-3.152-4.562 3.894-10.59-1.99-6.724-5.859 1.195-1.199 2.075-.154 1 1.186-1.571 1.957.476 4.683 3.04 4.048 4.67-1.155 3.717-8.01-1.337-9.611-1.54-.488-5.772-.286-9.027.43-9.089 2.002-13.104-1.89-14.975-14.497-.218-1.473-.474-2.561-1.337-5.733-1.024-3.762-4.506-5.805-6.406-3.757-1.515 1.632-.718 3.83 1.39 3.835 2.102.005 1.458 1.45-.733 1.646-3.803.339-4.465-6.01-.816-7.83.89-.444 1.722-.675 2.5-.688zm-49.695 2.281l1.242 4.582 4.7 1.331-1.49-4.3zm12.119 1.412l-1.262 4.089 3.5-1.223 1.225-3.918zm38.658 6.694c.746 0 1.351.607 1.351 1.356 0 .749-.605 1.356-1.351 1.356a1.354 1.354 0 0 1-1.352-1.356c0-.75.605-1.356 1.352-1.356zm-44.926 2.377l-4.083 1.363-.713 3.242 3.753-.845zm8.526 1.465l-2.932-.901.694 3.346 3.206 1.314zm131.36-.634l-1.948 1.52c5.675 4.947-.45 9.715-.64 9.392 4.102 2.723 3.371 7.02 2.839 10.953-.971 7.017-1.35 13.654-2.409 20.845 0 0 4.943 3.421 8.23 4.746.063.008.02-42.195.02-42.195zm-70.031 6.355c.746 0 1.351.607 1.351 1.356 0 .749-.605 1.356-1.351 1.356a1.354 1.354 0 0 1-1.352-1.356c0-.749.605-1.356 1.352-1.356zm-82.976 3.47l.17 39.38 8.127-14.576-5.592-6.47 4.833-5.175c-2.848-4.218-5.175-8.697-7.538-13.159zm79.133 6.002c.747 0 1.352.607 1.352 1.355 0 .75-.605 1.356-1.352 1.356a1.354 1.354 0 0 1-1.352-1.356c0-.748.605-1.355 1.352-1.355zm18.45 4.028c.747 0 1.352.607 1.352 1.356 0 .749-.605 1.356-1.352 1.356a1.354 1.354 0 0 1-1.351-1.356c0-.749.605-1.356 1.351-1.356zm52.85 43.87l5.97 6.146-4.726 5.823 7.405 12.497-.118-38.665zm-150.507-12.933l.283 42.356 6.383 4.67 1.619-1.533c-4.12-4.412-1.659-7.695 1.447-9.594-5.479-1.28-3.815-8.567-3.489-11.944-.133-6.27 2.158-13.424 1.452-19.453zm36.763 5.887l-9.149 12.786s-10.052-7.638-15.121-11.084c.542 5.518 1.037 12.556 1.71 18.49 1.643 8.666-2.636 8.816-2.676 9.646 6.803 5.177 1.093 10.02.07 9.776 3.623 1.979 3.324 7.99 3.324 7.99l1.718.974s.56-.342.797-.47c1.837-.991 4.832-4.525 5.518-6.856 1.163-3.954-2.26-7.238-4.413-4.233-1.057 1.477-1.904.49-1.038-1.21.791-1.551 2.857-2.33 4.23-1.593.798.428.619-.684-.614-3.796-.413-1.045-.75-2.184-1.332-4.494-.564-2.234-.345-4.928.632-7.67 1.408-3.953.909-6.432-1.347-6.648-1.203-.116-1.333-.494-.352-1.051 2.19-1.245 4.315.527 4.229 3.53-.047 1.624-.03 1.651.825 1.307 4.323-1.739 7.739 2.76 4.717 6.213-.925 1.055-1.506.385-.898-1.032.939-2.19.045-3.75-2.153-3.767-3.189-.024-4.954 4.394-3.698 9.254.392 1.516.452 1.535 1.51.523.94-.9 1.643-1.187 2.371-.969 1.51.453 1.905 2.064.459 1.864-2.486-.343-3.14 2.27-1.733 6.915 1.865 6.164-.023 11.186-5.542 14.759-.28.18-.724.528-.724.528 2.129 1.902 3.49 2.983 6.303 4.702l10.043-40.707s-.169-2.311-.416-3.4c-.01-10.927 10.155-11.973 13.336-2.053.306.953 1.922 3.385 1.922 3.385l52.912 47.097s9.878-9.575 9.742-9.829c-7.504-7.586-17.639-12.95-18.008-24.987-1.798-.052-7.81.059-7.81.059l-25.728-23.67c-8.075.052-15.236-.527-23.616-.279zm14.416.887c1.413-.045 2.839.692 2.839 1.874 0 1.02-.682 1.253-1.246.426-.788-1.156-1.704-1.249-2.636-.266-2.582 2.723 1.43 5.21 6.044 3.748 2.826-.896 4.194-1.138 5.228-.93 4.36.877 6.464 3.827 6.836 9.573.189 2.922.184 2.91 1.443 1.753 3.067-2.818 7.498-1.25 8.188 2.9.296 1.781-1.616 4.024-3.433 4.024-.712 0-.6-.746.17-1.114 1.847-.883 1.92-3.806.125-4.948-2.383-1.516-5.523.848-5.484 4.13.047 3.945 2.984 5.762 8.786 5.428.85-.049 2.982-.15 4.736-.223 2.77-.118 5.749-.642 8.573 1.497 2.957 2.359 4.92 7.048 5.759 13.824 1.322 8.34 2.344 10.575 5.136 10.775 1.657.119 3.061-1.296 3.061-2.94 0-1.16-1.529-2.18-2.689-1.797-1.4.464-1.684-1.058-.304-1.636 1.911-.801 4.245.742 4.765 3.152.302 1.404-1.278 4.098-2.935 4.77-4.323 1.754-7.397-1.828-8.41-9.845-.62-3.676-.962-6.155-2.104-9.297-2.098-5.783-5.545-8.17-9.298-6.44-4.25 1.96-3.407 8.342 1.096 8.295 2.474.196 2.992-1.627 3.043-3.58.058-1.44 1.685-.087 1.824.904.134 1.202-.941 2.69-1.89 3.394-1.532 1.029-.987.965.58 1.379 4.215.778 7.348 6.373 4.828 8.273-1.31.8-2.7-.378-1.793-1.536 1.444-1.84-.999-4.748-5.445-5.725-5.824-1.28-8.143-5.628-6.042-10.096.695-1.479.755-1.444-2.086-1.284-6.25.354-8.469-.512-10.567-4.144-.633-1.097-.913-2.563-1.047-5.477-.242-5.216-.716-8.446-1.371-9.355-3.246-4.503-9.997-3.155-9.153 1.825.443 2.616 3.137 3.454 4.977 1.55 1.39-1.438 2.037-.102.68 1.404-3.263 3.624-8.943-.606-7.255-5.404.386-1.098.438-1.063-1.656-1.123-4.658-.135-6.874-4.132-3.871-6.978.525-.498 1.258-.737 1.998-.76zm11.238 17.16c.747 0 1.352.608 1.352 1.357 0 .748-.605 1.355-1.352 1.355a1.354 1.354 0 0 1-1.351-1.355c0-.75.605-1.356 1.351-1.356zm18.726 4.814c.746 0 1.352.607 1.352 1.356 0 .749-.606 1.356-1.352 1.356a1.354 1.354 0 0 1-1.352-1.356c0-.75.605-1.356 1.352-1.356zm-4.021 8.847c.746 0 1.351.607 1.351 1.355 0 .75-.605 1.356-1.351 1.356a1.354 1.354 0 0 1-1.352-1.356c0-.748.605-1.355 1.352-1.355zm59.508 5.273l.856 4.01 3.102.819-.484-3.436zm10.852 1.388l-.067 2.378 2.76.325.976-4.099zm-46.33 3.59c.747 0 1.352.606 1.352 1.355 0 .75-.605 1.356-1.352 1.356a1.354 1.354 0 0 1-1.351-1.356c0-.749.605-1.356 1.351-1.356zm39.631 5.523l-3.244.903-1.558 4.518 4.153-1.508zm6.346.407l.397 3.348 3.996 1.811-1.351-4.772zm-58.907 28.54l-24.81 44.99 6.78-.094 23.417-42.423zm-78.033 10.891l-2.191 2.959 2.08 3.433 2.39-3.448z" fill="#d40000"/><path d="M3453.793-357.945c4.568 13.893 4.993 27.584 1.028 40.739 2.259.115 12.113 2.65 17.538 6.008-1.004 2.59-16.382 21.56-26.82 30.11 2.966 2.947 6.232 5.894 9.664 9.142 5.19 4.94 7.023 8.342 7.366 14.754-.046 3.096-1.153 6.917-3.118 9.621-1.486 2.045-3.064 3.617-6.228 5.719-2.919 1.94-7.185 6.112-12.55 12.265-2.046 2.346-5.498 6.618-8.357 10.692-1.082 1.48-4.267 6.102-4.267 6.102-10.625-8.696-22.002-15.404-22.294-15.353 0 0 11.48-6.136 13.894-7.387 1.855 1.194 4.374.173 3.164-2.455-2.323-5.979-.703-12.133 2.15-16.43.684-1.035 2.33-1.639 4.992-1.825 1.156-.075 2.378-.038 3.602-.053.441 0 1.63.17 2.283.528 2.17 1.188 2.605-.34 3.958-5.487 1.347-5.12-.82-11.595-3.91-11.616-.726-.005-1.134.264-.984 2.085.113 1.376-.217 2.088-.57 2.956-.77 1.892-1.18 3.744-1.425 6.212.451.092-2.869-3.313-8.1-4.663-3.399-.403-5.125-4.649-4.982-4.658 0 0 .51-1.15.956-1.598 1.162.557 2.302 1.212 3.679 1.617 0 0-.317-1.705-.44-2.164-.631-2.372-.597-2.733.314-3.225 2.26-1.22 2.498-3.403.734-5.39-.445-.507-.82-.833-1.42-1.089l1.116-4.455s-1.022.22-1.84.47c-2.364.72-2.187.745-3.195-.407-2.194-2.506-5.544-2.03-6.044.862-.055.32-.203.828-.203.828l-5.043-2.454c.148 1.186 1.457 5.205 1.457 5.205-4.412 3.437-.683 6.482.52 6.803 0 0-1.03 3.29-1.385 4.658l4.977-1.427c.418.951.933 1.673 1.968 2.34.27 2.807 2.428 5.071 3.914 6.434 0 0 .214 1.027.085 1.684-.321 1.632 1.333 4.218 1.614 4.372-6.83-2.802-13.95-6.164-20.822-9.466l.43 84.733s1.6 1.438 4.774 3.719c1.525 1.095 1.524 1.1 1.207 2.363-.42 1.665-.316 2.936 1.1 13.897.75 5.796 1.567 11.808 2.298 17.2.29 1.963.33 3.223.33 3.223-1.517-.705-3.726-.776-4.868.51-1.97 2.25-.393 5.873 2.525 5.796.663-.041 1.113-.234 1.685-.625.395-.213.803-.027.803-.027l-4.355 7.675 5.013 8.467 5.002-9.055-3.637-7.162s.354-.04.847.208c.49.247 1.146.434 1.603.46 2.538.02 3.058-1.14 3.326-3.23 0-2.687-2.133-3.903-5.069-2.89-.46.16-.97.203-.97.203l3.08-29.551 1.65 1.215.542-.295-1.444-1.235c.313-4.735-1.244-6.413-2.926-7.559 5.625-3.209 3.187-8.282-.553-9.844 0 0 2.43-1.424 2.917-2.919.415-1.336.26-3.454-.21-7.21-.352-5.793-1.593-17.762-1.593-17.762 4.914 3.716 9.959 7.694 14.704 11.452l9.51-13.258 22.92.16s17.421 15.865 26.19 23.954l7.569.068s.083.812.16 1.35c.717 7.834 5.955 13.214 10.726 16.987 1.944 1.752 6.748 6.353 6.748 6.353l-8.906 9.006-54.54-48.862s-.261-.713-.367-1.148c-1.26-5.175-4.678-7.342-7.787-6.977-3.262.383-6.044 3.605-5.904 9.089.022.848.328 2.343.328 2.343l-9.963 41.628s-3.985-3.05-6.136-4.517l-.473.276 5.831 4.396.435-.188 1.656 1.297.125.886c5.102 3.482 13.754 9.98 13.754 9.98 4.083-3.044 8.377-2.026 12.676-.881 0 0 3.126 1.048 4.79 1.04 8.448.191 15.93 1.838 23.784 4.683l-28.627 50.901 54.53.112c-2.687-10.654-5.543-21.476-.439-39.648-5.377-1.089-17.335-5.888-17.335-5.888s-.057-.273.45-.896c2.21-3.17 7.8-11.765 13.038-16.735.638-.457 9.769-9.345 9.858-9.626.05-.158.269-.757.627-.992.842-.564 3.079-2.685 3.079-2.685l-11.427-9.939s-.502-.049-.665-.14c-1.595-.895-4.475-5.887-5.184-9.23-1.632-7.688 1.38-13.767 9.881-20.007 8.3-5.7 24.037-27.827 24.09-28.318 8.485 7.047 15.11 10.696 22.576 15.318-4.51 2.595-8.187 4.33-11.343 6.046-2.048 1.172-2.33 1.417-4.06.925-1.96.016-2.631.774-2.134 2.47 2.967 4.703 1.694 15.653-2.319 17.764-3.483 1.832-6.87 1.336-9.668.297-2.16-.694-2.131-.701-3.094 1.264-2.118 4.525-2.254 8.337-.3 12.676 1.605 3.485 3.99 5.073 4.283.375.173-2.758 1.385-5.982 1.347-8.945 2.432 2.693 4.045 3.924 8.037 5.021 2.678.418 5.522 3.787 5.434 5.16-.736.745-.96 1.697-1.078 1.63-1.305-.428-4.129-1.633-4.129-1.633l1.202 4.261s-.198.193-.777.49c-2.658 1.36-2.486 5.037.304 6.507.568.3.609.44.367 1.225-.347 1.748-1.109 2.921-1.52 4.654 0 0 .379.013 3.562-1.463l1.25-.58.753.808c1.65 1.768 3.63 1.757 5.359-.03l.791-.818 2.211 1.124c2.084 1.06 2.631 1.278 2.631 1.278s-1.201-4.675-1.424-5.21c-.12-.289-.366-.582-.545-.649-.297-.11-.25-.18.54-.809 2.004-1.593 2.205-3.79.498-5.461-.651-.637-.734-.77-.734-.77l1.038-4.334-4.304 1.43c-.68-1.45-1.759-2.109-2.44-2.404-.073-1.955-.318-3.966-3.668-7.023 1.129-1.034-.214-3.526-1.32-5.021 1.885.635 6.599 2.635 6.599 2.635l.711-.03 2.251 1.083.264.401s7.08 3.351 10.33 4.92c-.01-.176-.033-3.684-.042-42.297-.01-23.022.032-41.957-.015-42.078-.046-.122-.824-.72-1.632-1.332-1.49-1.129-1.796-1.349-3.688-2.615-1.519-1.016-1.417-1.008-1.1-2.179.361-1.345.354-3.194-.126-6.658-.355-2.557-1.64-11.55-2.535-18.807-.628-5.091-.777-6.221-.932-7.04-.249-2.063.018-2.96-.027-2.99 7.11 3.088 7.672-7.155.544-5.772 1.364-2.758 2.512-4.039 3.68-6.985-1.485-3.21-4.776-8.639-4.776-8.639l-5.209 9.099 3.066 6.295c-3.527-.638-5.398 1.937-4.746 4.246.71 2.042 2.662 2.615 4.384 1.792 1.326-.525 1.325-.658.15 9.321a3456.86 3456.86 0 0 0-2.105 18.802c-.143 1.38-.232 1.762-.792 1.458-.76-.328-1.193-.805-1.955-1.308l-.425.397c.677.55 1.478 1.263 2.297 2.018-.187 3.654-.113 5.771 2.92 7.555-5.498 3.456-2.284 8.773.945 9.541-1.924.499-3.822 2.982-3.362 7.915l1.56 20.333-14.903-11.098-8.747 12.555-23.046.03-25.996-23.529s-5.7-.078-8.038-.135c.265-.124-.49-7.273-4.253-11.941-4.09-4.877-13.397-12.926-13.39-12.929l9.775-9.955 54.882 49.55s.266 1.403.406 2c1.835 7.822 10.708 8.296 12.595.329.305-1.288.672-4.283.536-4.639-.044-.115.231-1.421.613-2.905 2.95-11.607 5.463-21.62 8.366-32.763.4-1.534.824-3.242.94-3.796.48-2.26.408-2.247 2.767-.465 1.445 1.091 2.042 1.482 2.042 1.482l.459-.48c-1.62-1.257-4.393-3.263-4.393-3.263l.029-.852c-8.911-6.4-10.747-8.1-16.022-12.294-4.089 3.61-9.935 2.148-13.6.871-.943-.372-3.263-.978-3.263-.978-9.126.012-17.144-1.755-24.716-4.237l29.196-52.15h-11.276l-.394.444h-5.868l-.019-.443zm107.67 171.517c0 .032 0 0 0 0zm-74.39-170.339l3.993.078-23.626 42.282-2.51-.983s.23-.121.227-1.903c0-1.913-.416-2.73-1.275-3.86-.719-.977-1.025-1.03 1.082-.74 4.308.594 7.369-4.104 5.658-7.772-.66-1.415-.568-1.5 1.177-1.675 4.805-.48 6.674-6.595 3.273-9.641-.702-.638-.389-1.044.922-.76 4.157.9 7.377-3.724 5.726-7.346-.538-1.01-.054-1.178.705-1.278 3.558-.837 4.769-3.64 4.648-6.402zm-31.841.005l18.493.005c-2.488 3.818 1.906 6.079 2.463 5.811-3.988 2.184-2.893 5.263-.825 6.32 2.006 1.027 5.016.103 4.213-4.34l.99-.43c.962 1.09 1.917 7.856-5.421 6.914-1.307-.167-2.015 1.056-.922 1.734 5.798 6.687-3.279 9.641-3.674 8.532l-.03-1.132c2.454.453 5.596-2.72 2.841-5.54-1.565-1.604-6.107-.822-5.33 4.043-2.683-4.019-5.611-2.806-6.4-.683-.612 1.646.166 3.9 2.842 4.283-2.988 2.511-1.537 5.313.517 5.932 2.267.683 4.583-.244 3.958-4.376.036-.391.827-.264.893-.286 2.344 5.868-3.26 8.024-6.286 6.813-1.12-.437-1.707 1.296-.516 2.18 1.807 1.34 1.249 5.196 1.037 5.234-3.36-1.278-8.174-2.224-7.994-2.152 3.21-12.735 3.002-25.684-.849-38.861zm29.485.005l1.67.005c.023 2.399-1.016 5.351-5.097 5.806a7.069 7.069 0 0 0-.193-1.932c1.53-.348 3.561.079 3.62-3.878zm7.295.131l5.334.024-25.098 44.684-4.011-2.068zm-13.16 3.39c.943 0 1.71.763 1.71 1.709 0 .945-.767 1.714-1.71 1.714a1.709 1.709 0 0 1-1.704-1.714c0-.946.762-1.71 1.704-1.71zm-10.697 19.485a1.58 1.58 0 0 1 1.578 1.583c0 .875-.706 1.588-1.578 1.588a1.584 1.584 0 0 1-1.579-1.588 1.58 1.58 0 0 1 1.579-1.583zm82.62 1.263l4.249 7.419-4.847 8.609-4.045-8.251zm-.076 2.528l-2.988 4.949 2.713 5.07 3.084-4.819zm.058 2.12l1.545 2.993-1.878 3.036-1.56-3.21zm-4.118 10.053c.321.001.665.07 1.019.218 2.861 1.2 1.95 5.563-1.106 5.293-.403-.043-.934-.248-1.318-.509-2.12-1.744-.844-5.008 1.405-5.002zm6.995.083c2.503.045 4.01 3.537 1.376 5.171-1.272.71-3.172.28-3.92-.983-.642-1.083-.365-2.889 1.072-3.825a3.093 3.093 0 0 1 1.472-.363zm-3.476 4.982c.25.021.522 1.24.773 3.356.09.767.334 2.684.54 4.26.394 3.372.8 6.513 1.15 9.763.068.639.24 1.999.38 3.021 1.448 10.557 1.776 13.929 1.434 14.827-.913 3.148-5.196 3.388-6.985 1.56-1.352-1.383-1.551-2.901-1.019-6.857.308-2.285.434-3.434 1.338-12.164.211-2.045.517-4.765.68-6.043.358-3.416.782-6.617 1.246-9.985.133-1.204.292-1.752.463-1.738zm-70.137 7.844s13.716 4.535 24.151 4.33c1.532-.002 1.78-.015 3.688.61 1.131.37 2.911.872 3.954 1.113 3.217.625 6.045.449 8.55-.576.393-.161.97-.646 1.554-.47.356.108.874.819.874.819-9.137 2.433-30.513 1.984-43.819-3.642zm70.47 1.443c-.057.01-.116.088-.183.194-.224.354-.04 2.677.792 10.067 1.586 14.116 1.58 14.418-.343 15.902-.945.73-1.092 1.022-.637 1.288.338.197.31.196.999.005 1.617-.45 2.287-1.738 2.274-4.368-.01-2.004-.034-2.246-.657-7.171-.216-1.705-.51-4.11-.657-5.346-1.04-8.793-1.28-10.622-1.588-10.57zm-71.85 1.477c13.655 4.905 27.922 6.294 45.12 3.646 0 0 1.654 1.075 2.487 1.603l-.58.136.261 2.382 2.921-.47s1.58 1.26 2.756 2.034c-15.335 4.697-40.101 3.887-55.38-2.924-.581-.337-.922-.606-.922-.606.33-.812.729-1.295 1.135-1.748l2.79.8.806-2.553-2.134-.78zm3.576 3.056l-.893 2.513 3.9 1.162.667-2.566zm5.967 1.554l-.517 2.862 3.915.726.488-2.784zm6.478 1.341l-.309 2.76 4.152.441.256-2.794zm28.535.044l-3.534.387.222 2.431 3.573-.421zm-6.232.702l-3.505.232.12 2.547 3.525-.222zm-15.79.053v2.707l3.591.136.043-2.765zm9.876.34l-3.311.014-.014 2.576 3.345.014zm-38.397.454c.357-.01 1.174.788 1.511 1.68.664 1.757.36 3.704-.68 4.349-1.416.877-3.08-.497-2.105-1.738.172-.22.449-.44.618-.494.727-.232.897-1.381.502-3.37-.06-.295.015-.422.154-.427zm5.296.674c14.781 4.853 31.554 6.484 48.834 2.934 0 0-8.189 33.545-8.366 33.561zm-7.246.101c.778 0 .92 1.325.217 2.03-.896.898-2.606.177-2.25-.95.104-.327 1.519-1.08 2.033-1.08zm4.248.78c.161-.012.466.31.95.963 1.661 2.242 1.791 4.747.305 5.888-1.743 1.338-3.016-.738-1.564-2.551.376-.47.431-1.338.208-3.26-.08-.683-.06-1.028.1-1.04zm57.316.808c.19-.006.529.142 1.207.475 1.06.52 1.427 1.282.917 1.898-.741.896-2.772-.878-2.39-2.087.058-.184.117-.28.266-.286zm-1.593 1.167c.265.027.69.515 1.182 1.506.317.637.5.82 1.034 1.012 1.263.458 1.498 1.771.386 2.16-1.208.422-2.108-.448-2.66-2.576-.365-1.403-.284-2.136.058-2.102zm-52.875.94c.183-.011.534.4 1.091 1.225 1.652 2.446 1.083 7.14-1 8.236-.917.484-1.556.38-2.292-.358-1.076-1.08-.811-1.933.787-2.523 1.36-.502 1.8-2.054 1.38-4.88-.168-1.13-.174-1.688.034-1.7zm7.869.775c10.094 8.349 19.207 17.3 30.953 27.75 2.79-8.608 6.856-26.48 6.87-26.54-.444.367-19.731 3.112-37.823-1.21zm37.823 1.21c.01-.008.012-.014 0-.02v.02zm6.26-1.186c.169 0 .655 1.256.932 2.401.252 1.039 1.251 2.777 1.637 2.843 1.99.338 2.836 1.45 1.854 2.435-.722.724-2.284.314-3.037-.794-1.415-2.081-2.38-6.885-1.385-6.885zm-112.633 1.152c1.2.01 2.354.769 2.646 2.334.34 1.821-.687 3.146-1.556 2.934-.944-.354-1.265-1.854-1.265-1.854s-.224 1.223-.611 1.84c-.847 1.296-2.627-.628-2.308-2.494.311-1.821 1.734-2.77 3.094-2.76zm71.847.48c10.993 1.656 20.45 2.086 33.565.658l-6.18 24.066zm-8.303.038c.163.011.497.304 1.018.857 1.709 1.812 2.202 4.326 1.091 5.574-.675.759-1.13.846-1.849.353-.917-.63-.986-1.578-.144-2.014.773-.402.843-1.283.231-2.954-.456-1.246-.585-1.831-.347-1.816zm-71.716.62l4.016 1.67 1.439 3.405-4.007-1.037zm15.187.45l-1.193 3.39-3.09 1.157 1.203-3.665zm104.77.712c.148-.002.368.427.636 1.312.664 2.193.945 2.747 1.55 3.036.986.472 1.057 1.671.125 2.097-.591.27-.785.215-1.206-.339-.656-.862-1.184-2.513-1.28-3.995-.09-1.388-.017-2.108.174-2.11zm-44.712 1.53c.116-.008.287.164.54.465 1.56 1.86 1.73 4.714.333 5.569-1.353.827-3.245-.88-2.066-1.865.106-.088.35-.286.546-.435.328-.252.356-.398.386-2.015.022-1.2.067-1.705.26-1.719zm11.854.199l19.228 17.527 4.415-17.339c-7.595.684-15.53.481-23.643-.188zm-47.235.881c6.075 6.434 14.024 11.635 15.912 18.032 3.384 8.807.902 19.024-7.02 24.87-4.372 3.319-8.658 6.812-12.222 11.03-5.85 6.246-9.754 13.071-13.662 18.023-.662.832-2.409 3.452-2.409 3.452s-.855.98-3.712-1.423c-7.58-6.761-15.536-11.666-23.635-16.338l3.427-1.922c6.762 3.867 15.167 9.37 22.728 15.785 0 0 6.012-8.807 7.931-11.33 2.783-3.622 4.737-5.954 7.328-8.755 6.617-8.194 13.45-10.905 16.293-15.054 4.164-6.08 4.342-13.285.917-19.437-3.378-5.87-9.946-9.894-14.309-14.754zm57.66.475h7.515s-1.103.923-1.95 1.491c-.53.356-1.151.307-2.322-.184a215.114 215.114 0 0 0-3.244-1.307zm8.606 0l1.753.053c-1.31 1.65-2.654 2.716-4.413 4.184-.227.098-.354.138-.883-.034-3.593-1.192-6.89-2.707-10.389-4.14l3.119-.015s1.5.481 3.756 1.419c2.585 1.075 3.255 1.406 4.253.75.961-.641 1.757-1.607 2.804-2.217zm3.549 0l-.628 2.31c-1.048 1.313-3.168 2.826-4.938 4.319-.416.217-.402.256-2.216-.45-6.681-2.603-9.91-4.296-9.91-4.296l-1.357-1.215s1.742.5 2.891.954c.784.31 2.12.818 2.97 1.133.849.315 2.728 1.116 3.982 1.612 2.892 1.145 2.732 1.18 5.503-1.273 3-2.657 3.703-3.094 3.703-3.094zm-101.217.213l2.916 3.35-3.886 3.279-2.935-3.467zm110.632.003c.67 1.258 1.12 2.747 2.209 3.807.82.784 1.024 1.389.537 1.83-1.268.787-1.487-.483-1.88-1.313-.69-1.462-1.534-3.438-.866-4.324zm-105.438.335c.074-.002.15 0 .227 0 3.11.047 3.844 4.656.918 5.762-1.05.397-2.256.217-2.907-.435-.63-.633-.72-1.168-.286-1.5.674-.481 2.28-.514 2.28-.514s-1.458-.496-2.107-.86c-1.278-.731-.171-2.371 1.875-2.453zm64.017.005c.176.01.478.369.907 1.08 1.569 2.598 1.486 7.542-.15 8.793-.85.651-1.91.558-2.62-.232-.939-1.041-.65-2.094.743-2.712 1.345-.596 1.619-1.93 1.071-5.224-.19-1.149-.177-1.717.048-1.705zm-75.448.083c.928-.033 1.824.33 2.269 1.065.329.542.17.941-.452 1.212-.755.3-2.189.571-2.189.571s1.39.23 2.23.572c1.053.465.97 1.32-.57 2.054-2.965 1.413-5.767-2.449-3.32-4.666a3.209 3.209 0 0 1 2.032-.808zm77.982 1.864a.248.248 0 0 1 .072 0c.272.033.775.428 1.28 1.099 1.767 2.349 2.074 5.878.57 6.566-1.59.727-2.734-.772-1.59-2.082.812-.928.711-2.286-.366-4.973-.157-.391-.12-.585.034-.61zm38.18.111c.14-.01.393.554.802 1.695.898 2.51 1.667 3.564 2.592 3.564 1.162 0 1.771 1.597.854 2.242-1.811 1.272-4.185-1.846-4.359-5.733-.052-1.168-.029-1.757.111-1.768zm-9.577 1.254l-.536 2.048s-1.236 1.205-2.12 1.971c-1.403 1.217-1.749 1.459-2.857 1.08a140.711 140.711 0 0 0-5.17-1.666l-4.109-3.409 9.375 3.67s.813.241 1.096-.043c1.228-1.23 2.576-2.184 4.32-3.65zm8.843 1.918c.118-.027.236.123.319.498.425 1.93 1.04 3.328 1.56 3.545.656.275.908.847.632 1.428-.798 1.679-2.897-1.285-2.897-4.091 0-.796.19-1.336.386-1.38zm-33.835.135c.114-.007.3.165.589.455 1.296 1.3 1.688 4.893.647 5.937-1.505 1.51-3.111-.734-1.651-2.305.386-.415.387-.445.294-2.285-.064-1.282-.07-1.79.121-1.802zm-78.532.359l-1.014 3.37-3.24.838.759-2.775zm3.881.343c.257-.01.548.088.854.31 1.32.96 1.428 2.598.811 3.806-.59 1.18-1.796 1.519-2.964 1.4-1.514-.17-2.657-1.228-2.577-2.848.026-.812.379-1.712.926-2.096.386-.271.702-.16 1.036.396.311.543.843 1.773.843 1.773s.017-1.262.195-1.912c.146-.516.466-.812.876-.829zm2.472.296l2.346.804.927 3.195-2.627-1.021zm133.767.596s.673.286 3.877 2.837c.8.638 2.153 1.86 2.153 1.86l-.077 41.705-7.606-4.74.398-3.651s1.045-11.032 1.844-16.813c.56-6.442 1.794-8.292-2.506-11.024 4.628-2.914 3.322-7.45.418-9.338zm-37.73.16l-.426 1.907c-1.523 2.615-2.887 2.481-5.218 1.269l-2.8-2.388c1.812.38 2.786.961 4.557 1.52.88.245 1.201.088 1.82-.469a84.387 84.387 0 0 1 2.066-1.84zm-20.759 1.002c.95 1.038 1.197 2.062 1.115 4.59-.182 1.798-.102 3.137-1.573 4.145-.719.472-1.96.473-2.515.005-1.332-.894-.598-2.683 1.147-2.77 1.1-.02 1.553-3.629.928-5.883-.097-.35-.072-.58.101-.596.173-.017.495.178.797.509zm29.752-.136c.214-.002.591.547.815 1.443.325 1.298.782 2.026 1.497 2.392.917.47 1.213 1.371.627 1.903-1.166 1.06-2.359-.211-2.741-2.92-.018-.308-.554-2.79-.198-2.818zm25.044.445c2.602.041 4.074 1.868 4.07 4.081-.027 1.596-.897 3.219-2.497 3.892-3.822 1.129-5.908-1.437-5.872-3.933a4.161 4.161 0 0 1 4.3-4.04zm-52.522 1.448c2.189 2.196 2.287 6.89.145 6.89-2.57-.853-.565-2.374-.516-2.77.2-1.616-.17-2.653-.546-4.163-.166-.893.676-.218.917.043zm52.662-.213c-.459-.014-.426.45.415 1.177 1.526 1.318.78 3.752-1.153 3.762-.892.005-1.11.607-.333.92 3 1.21 5.05-3.367 2.36-5.273-.562-.398-1.013-.577-1.289-.586zm-114.775.615c2.415.826 3.248 5.441 3.34 7.07.108 2.833-1.207 7.465-2.38 8.391-3.038 2.397-4.463-6.076-1.864-11.529.227-.447.512-1.051.405-2.164-.105-1.105.08-1.76.499-1.768zm79.81.446s-.304 1.383-.627 2.14c-.375.875-.65.903-1.52.155-.486-.417-1.29-1.279-1.29-1.279.759.12 1.437.514 2.08.194.688-.34 1.242-.98 1.357-1.21zm9.168.072c.171.006.39.488.68 1.443.795 2.614 1.49 3.598 2.544 3.598 1.726 0 2.103 2.085.473 2.62-.603.198-.807.196-1.578-.01-1.163-.311-2.752-4.245-2.525-6.247.107-.941.234-1.41.406-1.404zm-106.3 1.52c.634-.015.883.298 1.255 1.07.424.88 1.536 1.998 2.476 2.485 2.268 1.118 4.657 1.991 6.899 3.113 2.906 1.465 5.51 5.948 3.727 6.416-.647.15-1.39.158-2.052.097-.216-.114-.638-.604-.937-1.094-1.325-2.176-3.804-4.306-7.627-5.302-2.695-.703-5.11-4.033-5.629-5.598-.134-.405-.14-.723.222-.828.767-.221 1.286-.35 1.666-.358zm81.95.272c.12-.02.297.134.565.421 1.604 1.72 1.803 4.878.362 5.772-1.563.969-2.93-.633-1.704-1.995.54-.6.54-.6.54-2.402 0-1.241.037-1.763.237-1.796zm23.355 2.004c.193.008.481.542.83 1.594.496 1.491.563 1.609 1.13 1.903.958.496 1.114 1.24.41 1.946-1.31 1.315-2.631-.801-2.635-4.222 0-.823.096-1.227.265-1.22zm-20.972.237c.12.011.452.274.711.582 1.966 2.338 1.57 7.812-.622 8.633-.732.275-.955.29-1.41.092-1.635-.709-1.435-2.44.58-3.54 1.506-.821.432-5.746.741-5.767zm-100.49 1.725l8.114 4.038s2.225 4.698 3.25 6.46c.702 1.22 2.11 2.4.656 3.215-2.442 1.66-3.826 2.605-3.804 3.636.018.834 1.051 1.684 2.442 3.327 1.999 2.358 1.98 1.815.165 5.413-1.391 2.524-2.573 8.237-2.573 8.237l-8.197 4.237c2.439-5.844 5.31-10.817 8.53-14.372-2.391-1.781-4.401-3.635-6.498-6.096 1.547-2.078 3.59-3.757 5.474-5.564-3.828-4.34-6.227-8.504-7.56-12.531zm102.63.072c.013-.002.03 0 .043 0 .34.022 1.118.87 1.801 2.232.882 1.759.968 3.974.183 4.76-1.351 1.356-3.112-.387-1.848-1.83.891-.65.648-2.265-.053-3.946-.325-.806-.32-1.185-.126-1.216zm-103.528.79c2.111 4.5 4.472 8.16 6.893 11.626l-5.281 5.558c1.626 1.893 3.597 3.925 6.363 6.285-3.397 3.789-5.624 9.093-7.855 14.1zm121.457.096c.183.014.443.56.71 1.656.336 1.383.568 1.737 1.371 2.082 1.278.55 1.307 1.788.053 2.233-.46.163-1.32-.3-1.675-.906-.469-.865-.71-2.029-.705-3.094-.074-1.318.04-1.986.246-1.97zm29.282.834c1.996.56 2.717 2.568 2.328 6.284-.521 4.971-1.134 10.502-1.631 15.07-.574 5.268-1.05 8.617-1.05 8.617l-.49-.38s.142-2.849.328-4.597c.446-3.934.693-7.38 1.072-11.31.848-8.748.64-11.512-.937-12.32-1.22-.624-1.745-.256-.845.596 1.717 1.328 1.663 1.883-.174 23.422-.188 2.228-.265 3.806-.265 3.806l-2.332-1.453s-.173-1.846-.39-4.634c-.527-5.25-.834-10.849-1.183-15.882-.375-5.37.628-7.249 3.948-7.38.531-.02 1.12.023 1.621.16zm-42.841 3.12c.254.711 1.412 6.008-1.551 4.487-.79-.447-.833-1.146-.25-1.826.651-.76.804-1.854.477-3.414-.198-.95-.439-1.737-.439-1.737.572.21 1.696 2.305 1.763 2.49zm-88.096-1.66c2.506.477 5.259 1.943 7.033 3.777 1.101 1.174 1.045 2.119-.676 2.229-1.657.244-1.692.514-2.484-.173-.355-.279-1.047-.964-1.836-1.086-2.5-.388-3.777-5.079-2.037-4.748zm101.163 1.386c.264.427.292 1.264.512 1.865.374 1.678 1.522 2.92 2.553 2.764.693-.083 1.65.127 1.753.96.201.703-.167 1.37-.927 1.675-.858.344-1.827.133-2.559-.557-1.542-1.454-2.484-6.2-1.332-6.707zm-12.055.066c.899.346 2.046 3.233 2.168 5.522 0 1.64-.255 3.703-1.665 4.484-.895.464-1.82.233-2.225-.552-.497-.963-.128-1.957.898-2.421 1.254-.568 1.662-3.12.897-5.612-.043-.416-.67-1.593-.074-1.421zm-95.736 1.198l6.613 3.36c-.962 1.318-1.718 2.54-2.24 3.932-2.102-2.391-3.204-4.829-4.373-7.292zm98.221 1.15c.114-.003.495.362.828.685 1.65 1.604 2.362 4.515 1.366 5.578-.797.851-2.19.792-2.424-.101-.084-.438.38-1.258.584-1.651.305-.586.36-2.26-.1-3.482-.208-.548-.4-1.025-.254-1.029zm-45.945.661l7.473.257 25.035 22.618-2.351-.054-23.003-21.025-7.16.02zm-43.054 4.075c-2.853 4.547-3.632 10.28-1.88 15.376 1.33 3.614-1.574 3.83-2.765 1.449-.916-1.78-1.443-4.88-1.164-8.18.39-5.336 2.845-10.692 4.811-11.335 1.997-.654 1.558 1.964.998 2.69zm102.58 10.945c-.759 3.558-2.165 5.329-4.16 6.068-8.174 3.027-11.735-13.507-4.152-17.461 7.226-2.41 9.316 6.695 8.313 11.393zm-59.98-10.802l7.048.145c6.425 5.861 13.332 11.33 20.207 18.458h-3.326l-1.202-1.147c-6.214-5.568-10.818-10.113-16.809-15.287l-6.29-.174zm53.773 1.09c-3.811.154-4.122 5.333-4.007 7.295.277 2.827 1.4 7.003 4.977 6.674 2.624-.263 3.839-3.38 3.6-7.124-.226-3.523-1.659-6.848-4.57-6.845zm-54.415 1.718l6.184.14c5.447 4.766 11.21 9.943 16.934 15.655h-2.698s-.705-.674-.917-.89c-4.635-4.203-9.346-8.887-13.84-12.663l-6.416-.252zm54.516.203c1.082.403 1.263 3.046.318 4.141-.647.75-2.135-.67-2.268-2.46-.081-1.092.976-2.042 1.95-1.68zm-102.206.33c-.498 1.71-.825 3.63-1.028 5.709l-2.588-3.298zm104.17 3.181c.633 0 1.145.513 1.145 1.148 0 .634-.512 1.147-1.144 1.147a1.145 1.145 0 0 1-1.144-1.147c0-.635.511-1.148 1.144-1.148zm-51.957.576l12.325 11.621-3.51.04-10.109-9.191-6.415-.242 1.255-2.194zm47.932.199c.632 0 1.144.513 1.144 1.147a1.145 1.145 0 1 1-2.289 0c0-.634.512-1.147 1.145-1.147zm14.67.024c6.948 5.416 16.755 12.602 26.942 18.43 0-.02-1.679 1.323-3.225 1.747-7.928-4.384-17.362-10.568-23.205-15.582-5.517 8.145-16.113 22.963-25.532 29.804-5.945 4.265-8.939 9.523-8.921 15.67.018 6.357 2.255 10.495 8.491 15.702 4.022 3.36 8.419 7.646 8.419 7.646l-2.312 2c-.385-.047-6.747-5.545-13.184-12.028-3.537-3.562-5.111-11.381-4.509-15.602.819-5.737 2.726-9.85 8.149-14.28 2.082-1.616 4.185-2.872 6.02-4.71 16.85-18.079 22.867-28.797 22.867-28.797zm-11.277 2.954c.637 1.313.988 3.036-1.009 3.152-1.182.068-1.86-1.906-.835-3.666.776-1.385 1.466-.206 1.844.514zm-59.377-.349l6.652.199s6.56 5.735 9.872 8.914h22.284c12.255 0 22.327.05 22.384.107.153.152-1.583 2.488-1.583 2.488l-73.493.044c.015-.011 4.54-4.052 6.16-5.186 2.87-2.007 5.5-3.876 7.724-6.566zm-45.035 2.775c.48 1.78.883 3.594 1.714 5.234l-5.103 2.716c.938-2.709 2.012-5.315 3.39-7.95zm141.694 14.797c-1.013 2.77-3.665 8.422-6.869 12.706-.636.821-1.072 1.463-1.072 1.463l6.252 6.004-5.426 5.786c3.047 3.18 5.625 8.053 6.98 11.931-2.461-.975-3.843-1.564-6.879-3.258-.858-2.16-1.734-4.449-2.698-6.421-2.215-4.5-2.185-4.06-.377-5.385 2.646-1.938 3.435-2.388 2.747-3.365-.484-.687-3.606-4.406-3.794-4.523-.288-.177-.16-.728.371-1.607 1.81-3.26 3.292-6.85 4.215-10.043zm1.183.228l.164 37.837c-2.239-4.52-4.568-9.138-7.164-12.023-.098-.197 5.663-5.84 5.663-5.84-2.111-1.962-3.346-3.135-6.295-5.86 2.872-4.15 5.146-9.579 7.632-14.114zm-158.537 1.312l7.167 4.173c-.379 5.338-.857 12.344-1.591 19.452-.616 5.546-.87 8.102.11 9.64.83 1.127 3.069 2.345 3.069 2.345-3.77 1.53-5.223 6.045-.997 9.422 0 0-1.027.81-1.482 1.298l-5.88-4.411zm112.184 1.913c-1.787 2.008-4.589 4.986-6.739 6.41-2.867 1.9-6.893 5.548-6.7 5.603 0 0-4.22-.021-7.077-.135l-9.858-8.823s.352-.13-13.063-.02c-17.338.144-31.388-.048-31.388-.048l1.97-2.774zm35.139 1.733c-.971 3.128-2.476 6.02-4.383 8.73-.442-1.922-.685-3.963-1.608-5.597zm-139.247 1.003l.86.615s-.513 6.528-.681 8.44c-.302 3.53-.45 6.712-.758 10.308-.617 7.142-.514 8.195.883 9.297 1.075.807 1.808.44.855-.58-.628-.81-.625-.794-.816-1.986-.132-.828-.112-2.063.077-5.413 1.064-18.869 1.285-19.504 1.308-19.51l2.143 1.39c-.12.29 1.963 19.018 1.751 23.674-.247 5.443-7.552 4.241-7.898.2-.143-.928 1.243-16.214 1.243-16.214zm59.585 1.099l2.867.082 17.688 16.309 6.03.13-.527 2.058-5.826-.014zm10.968 0h2.776l10.123 9.205 6.232.097-1.188 1.772-6.198-.18zm-3.457.01l14.965 13.534 5.103.266-.787 1.85-6.049-.17-16.813-15.446zm-14.429.048h3.11l23.393 21.127 6.13.111-.091 1.903-7.382-.034zm78.726.6c1.234.311 1.842 1.511 2.713 5.961 1.015 5.19-1.185 13.615-3.94 15.195-1.425 1.125-2.976-.068-1.969-1.535 3.287-4.789 3.72-12.624 1.777-17.006-.617-1.408.018-2.868 1.419-2.614zm-99.252.78c7.475.09 9.407 15.488 2.054 17.648-4.777.707-7.237-3.63-7.93-7.543-.817-4.862 1.32-10.16 5.876-10.105zm-4.108 9.238c.446 3.086 2.354 6.62 5.128 6.318 3.648-.397 4.106-5.282 3.744-7.741-.436-2.968-2.066-5.657-4.672-5.805-3.885-.221-4.545 4.847-4.2 7.228zm4.007-5.994c1.042-.017 1.81 1.38 1.525 3.114-.184 1.122-.61 2.504-1.868 1.565-.586-.536-1.11-2.109-.97-3.284.093-.772.473-1.373 1.313-1.395zm103.075 3.56l3.51 4.072-3.988 2.803c.56-2.143.745-4.421.478-6.876zm-100.531.367a1.15 1.15 0 0 1 1.144 1.153c0 .634-.512 1.148-1.144 1.148a1.145 1.145 0 0 1-1.144-1.148 1.15 1.15 0 0 1 1.144-1.153zm-4.094.707c.632 0 1.144.514 1.144 1.148a1.145 1.145 0 1 1-2.293 0 1.15 1.15 0 0 1 1.15-1.148zm2.317 1.482c.575.175.942.705 1.25 1.165.766 1.143.866 2.577.322 3.177-1.1 1.31-2.816-.091-2.61-2.114.152-1.484.545-2.378 1.038-2.228zm9.8 4.494c1.641 0 2.104 1.941.69 2.89-.919.618-1.123 2.625-.555 5.404.461 2.008.22 2.318-.975.509-2.04-3.28-1.514-8.803.84-8.803zm-3.838 1.055c1.44-.055 1.902 1.048 1.062 1.894-.492.547-.443 1.993.106 3.18.777 1.722.594 2.241-.859.587-2.009-2.154-1.978-5.597-.309-5.66zm95.168.838c1.633 2.178 3.08 5.02 4.402 8.241l-7.081-3.263zm-103.489 8.758c-.501-.582-.744-2.467-1.155-3.272-.32-.966-.597-1.53-1.117-1.497-2.993.255-2.866-2.616-1.148-3.158 3.555-1.121 4.851 7.488 3.42 7.927zm14.846-2.897c-.507 1.504-.138 2.404-.033 4.01.09.73.127.923-.47.363-1.42-1.242-2.175-5.481-.896-6.267 1.718-1.056 2.24.728 1.4 1.894zm70.95-2.011c.695-.033 1.483.51 1.873 1.505.562 1.434.51 4.948.227 6.818-.434 2.863-1.122 5.493-1.404 7.462-1.003 1.195-3.471-3.032-3.703-6.367-.389-2.646.52-8.142 2.549-9.302.144-.07.298-.11.458-.116zm9.561.45c.621-.029.48.181.939.663.697.732.98.91 1.965 1.22 2.03.641 4.264 3.482 3.404 4.345-.68.54-2.53-.481-3.163-.698a448.52 448.52 0 0 0-1.887-.65c-1.703-.575-4.15-3.723-3.39-4.357.408-.34 1.65-.5 2.132-.523zm-4.95.523c1.258.012 1.602.327 2.322 1.685 1.066 2.013 3.049 3.433 5.928 4.251 3.674 1.126 6.846 3.262 6.691 7.22-.877.009-1.754.068-2.63.335-1.018-2.871-3.55-4.517-5.727-5.013-5.024-1.143-9.687-6.255-8.36-8.285.579-.297 1.2-.2 1.776-.193zm-86.667.252l43.403 37.914c-18.316-6.816-35.12-6.67-51.368-4.15zm18.51 2.51c-.082 1.18-1.696 1.432-2.03 1.724-.811.708-.703 2.752-.356 5.135.265 1.431-.09 1.368-.84.247-1.329-1.985-1.302-5.428-.421-7.456 1.135-2.612 3.762-1.304 3.647.35zm-24.96-1.857c1.665.174 2.123 2.445 2.192 3.951 0 2.076-.587 1.998-.917 0-.158-.885-.432-1.228-1.144-1.442-1.62-.487-1.725-2.509-.13-2.509zm20.17 2.32c-.427.47-.437 2.67-.049 4.15.215.817-.182.88-.733.232-1.796-2.112-1.961-5.695-.295-6.387 1.357-.354 1.71 1.307 1.077 2.005zm-18.78 4.237c.04 2.108-.438 2.302-1.07.28-.163-.47-.45-.942-.657-1.084-1.182-.811-1.39-1.444-.705-2.13 1.682-1.378 2.41 2.307 2.433 2.934zm6.344-1.86l-5.885 25.175c14.484-1.218 21.065-1.474 36.54 1.559zm17.548.417c.885.222 1.191 1.382.16 2.479-.34.434-.655 1.105-.242 2.885.565 2.435-.387 1.656-1.545-.643-.742-1.473-.402-5.232 1.627-4.721zm-27.705.077c1.574 0 3.033 2.562 3.056 5.365.017 2.266-.305 2.102-1.144-.063-.59-1.431-1.067-1.95-2.139-2.324-1.985-.693-1.813-2.978.227-2.978zm10.635.726l27.256 23.892c-11.161-1.79-22.118-1.927-32.76-.586zm22.684.901c2.138 0 2.98 2.65.358 3.576-1.563.553-.896 3.722-.609 5.605.109.71-.115.76-.565.126-1.647-2.439-2.568-8.586.816-9.307zm-2.887 2.978c-.387.613-.431 1.272-.164 2.46.693 2.555.873 3.028-.574 1.729-1.524-1.616-2.189-4.815-.913-5.763 1.434-1.064 2.725.117 1.651 1.574zm-53.86-1.972c2.53-.018 4.37 1.624 4.272 3.915-.107 2.523-1.682 4.115-3.996 4.247-2.583.131-4.18-1.936-4.236-4.078-.051-1.891 1.15-4.064 3.96-4.084zm-.042 1.013c-2.896-.009-3.98 3.82-1.584 5.588 1.028.758 1.84.544.995-.261-1.592-1.518-.952-4.027 1.144-4.489 1.036-.228.634-.834-.555-.838zm35.254.65l-3.485 16.956c7.13-1.11 15.756-.772 22.414-.145zm-11.74.643c1.734-.088 2.24 2.528 2.254 3.569 0 1.346-.157 2.048-.404 1.328-.584-1.698-1.16-2.63-1.786-2.63-.34-.088-.63-.225-.904-.533-.616-.818-.019-1.7.84-1.734zm12.064.678l2.298 1.956c-1.479-.65-2.738 1.032-2.738 1.032zm23.65 3.2c-.667.842-.663 2.617-.146 4.683.145.578-.393.15-.936-.537-1.028-1.3-1.511-2.824-1.325-4.073.207-3.158 4.202-2.543 2.406-.072zm-36.351-1.51c1.487.169 2.048 3.283 2.013 4.227-.05.987-.273 1.653-.468 1.053-.383-1.302-1.174-3.171-1.859-3.6-1.174-.735-.842-1.576.314-1.68zm113.861 3.49c.053 1.098-.402 2.223-1.077 2.585-.69.37-1.11-.131-1.522-1.397-.302-.931-.41-1.29-.41-1.29s-.255 1.165-.336 1.409c-.537 1.616-2.288 1.631-3.021-.174-.78-2.106 1.4-4.263 3.075-4.186 1.858.085 3.193 1.288 3.291 3.052zm-99.326-2.352c.523 0 2.55.91 2.55.91l2.017 1.792s-1.856-.809-2.51-1.041c-1.563-.555-1.53-.56-2.79.474a60.939 60.939 0 0 1-2.366 1.845l.4-2.3s1.901-1.68 2.7-1.68zm-13.241 5.65c.297 2.431-.38 2.637-1.038.315-.564-1.987-1.119-2.711-2.076-2.711-1.763.264-2.356-2.36-.773-2.886 2.99-.842 3.76 4.324 3.887 5.283zm102.437-5.33l2.757 1.283.584 2.861-2.54-.63zm-61.78.263c2.654-.738 2.981 2.575.948 3.064-1.242.298-1.235 2.228-.881 5.03.08.64.252 1.414.212 1.52-.189.507-.82-.267-1.67-2.062-1.27-3.275-.873-6.922 1.391-7.552zm75.833-.04l-.768 3.311-2.331-.16-.087-2.028zm-78.555 2.153c-1.278 1.855-.13 3.567.153 5.019.05.844-1.035.018-1.66-1.212-1.305-2.564-1.38-4.634-.208-5.559 1.642-.965 2.397.761 1.715 1.752zm-23.921-.454c.451.005 1.062.25 2.346.745.972.376 3.224 1.293 3.224 1.293l2.979 2.64s-2.615-.967-4.436-1.739c-4.101-1.738-3.512-1.794-6.754.683a65.218 65.218 0 0 0-1.912 1.53l.396-2.121s1.225-1.22 2.752-2.324c.658-.476.953-.712 1.405-.707zm-38.147 1.002c2.099-.058 3.478 1.616 3.983 3.487.292 1.083.04 2.083-.019 3.123-1.449 11.133-2.086 21.465-3.418 31.774-.164.492-.342.31-.555-.576-1.542-9.347-2.546-19.607-3.843-28.87-.296-3.458-1.186-7.98 3.177-8.865.232-.045.459-.067.676-.073zm-.125 1.235c-.926.037-2.02.675-2.409 1.496-.794 1.678-.586 5.094.922 15.33.126.853.3 2.276.386 3.162.265 2.719.624 4.877.884 5.278.493.764.557-.056.202-2.716-.18-1.357-.426-3.432-.545-4.61-.678-4.855-.826-8.31-1.246-12.74-.21-2.177.664-3.782 2.303-4.217.887-.236.935-.636.106-.906a1.731 1.731 0 0 0-.603-.077zm138.788.136c3.065.007 4.192 4.312 1.192 5.83-1.113.563-2.98.297-3.444-.602-.224-.7.027-1.108.583-1.405.677-.361 1.67-.67 1.67-.67s-1.624-.316-2.08-1.087c-.987-1.662.823-2.035 2.079-2.066zm-115.327 4.643c-.034.812-.447.477-.55 0-.33-1.08-1.02-2.25-1.598-2.716-.699-.563-.865-1.326-.391-1.802 1.78-1.577 2.53 4.012 2.54 4.518zm103.995-4.655c.785-.022 1.852.245 2.527.922.871.874.824 1.202-.636 1.735-.709.265-1.197.47-1.197.47s.658.26 1.147.396c1.4.47 1.326 1.284.041 2.247-1.75 1.31-4.563-.43-4.53-2.737.026-1.83 1.15-2.99 2.648-3.033zm6.47-.013l2.8 3.094-3.272 3.4-3.08-3.39zm-95.148.29h.121c.868.017 2.253.605 5.648 1.976 1.866.754 4.021 1.613 4.021 1.613l3.056 2.711s-4.186-1.318-5.643-2.058a19.453 19.453 0 0 0-1.545-.658c-.533-.2-1.855-.72-2.94-1.157-2.33-.941-2.357-.947-3.138-.286-.333.283-1.153.928-1.82 1.433-.666.506-1.639 1.248-2.162 1.647a25.084 25.084 0 0 0-1.395 1.181l.492-2.615s.44-.432 1.226-1.036l2.414-1.854c.701-.54 1.067-.868 1.665-.896zm30.051 2.296c.086.544.035.649-.589 1.288-.788.807-.896 2.13-.318 3.845.159.473.353 1.033.31 1.076-.833.835-3.025-4.439-2.502-6.01.626-1.88 2.684-1.908 3.1-.2zm-48.057.228c.574-.027 1.24.41 1.574 1.317.906 2.538.352 5.65-.575 2.75-.24-.614-.654-1.273-.97-1.608-.325-.346-1.055-.748-1.038-1.312.071-.74.503-1.124 1.01-1.147zm18.735.072c.368.012.858.195 1.738.557.796.327 3.037 1.076 4.311 1.569a59.893 59.893 0 0 1 4.045 1.777l-4.48-.252s-1.522-.508-2.427-.881c-3.281-1.352-3.099-1.345-4.731-.102-.584.444-1.318 1.162-1.318 1.162l-2.279.126s1.071-1.146 2.617-2.295a43.112 43.112 0 0 0 1.53-1.191c.385-.322.627-.481.994-.47zm35.049.886c1.247-.237 1.93.955 1.85 1.699-.085.816-.84 1.628-2.003 1.855-.244.912-.94 2.992-.534 6.097.327 1.454-.286 1.486-.912.092-1.015-2.26-2.493-8.965 1.599-9.743zm-3.56 2.49c-.528 1.133-.712 2.046-.42 3.476.325 1.589.394 1.98-.506.988-1.744-2.332-1.998-6.043-.391-6.47 1.55-.411 1.89 1.277 1.318 2.005zm-52.26-1.739c2.72.432 3.522 5.081 3.142 7.07-.721 2.406-.685.78-.937-.223-.67-2.422-1.445-3.74-2.273-3.879-2.232-.372-1.92-3.283.067-2.968zm20.854.915a.553.553 0 0 1 .13.01c.895.15 3.293.892 2.259 1.143l-3.538.02c-.687.025.446-1.123 1.148-1.173zm95.283.76c.343-.031.811.373 1.361.935 1.259 1.286.707 3.314-.994 4.314-2.67 1.57-5.71-1.389-4.243-4.106.804-1.491 1.771-1.225 2.596.88.151.255 0-.264.28-.904.282-.638.657-1.087 1-1.119zm-4.48.15l-.801 3.235-3.254 1.569 1.188-3.985zm6.768.552l2.592.208 1.44 4.204-3.737-1.598zm-61.255 2.376c1.886.078 2.077 1.864.995 2.646-.607.583-.817 1.426-.69 2.774.055.6.174 1.334.168 1.419-.018.287-.255.242-.58-.111-1.99-2.177-1.725-6.804.107-6.728zm-57.036.7c1.195 0 2.55 3.433 1.884 4.747-.42.77-.826.58-.98-.315-.114-.651-.486-1.543-1.45-1.702-1.4-.448-.944-2.73.546-2.73zm60.483 2.076c.913.474.999 1.527.174 2.116-.64.457-.809.844-.908 2.083.21 2.819-1.37 1.029-1.518-1.535-.081-1.396.672-3.468 2.252-2.664zm-61.487.867c.858 0 1.877 1.544 1.65 2.446-.12.716-.493.59-1.017.058-.203-.16-.658-.323-.87-.388-1.284-.389-1.068-2.116.237-2.116zm24.374 1.186c11.592-.054 23.65 1.792 33.67 5.806l-.825 1.487-2.63-.906-.903 2.392 2.167.828-1.018 2.208c-11.829-3.902-24.585-6.807-45.784-3.66-1.052-.735-2.954-2.184-2.954-2.184l1.695-.373-.222-2.363-4.282.765-1.25-1.312c6.693-1.722 14.404-2.65 22.336-2.688zm38.88.519c1.11.002 1.799 1.251.985 1.786-.57.375-1.836.477-2.09.17-.526-.635.22-1.958 1.105-1.956zm-40.517 1.462l-.048 2.45 3.495-.111.072-2.325zm6.107.053l.015 2.407 3.394.111.159-2.358zm-8.878.165l-3.432.227.106 2.247 3.404-.15zm15.347.373l-.087 2.32 3.451.382.251-2.359zm-21.733.111l-3.452.44.294 2.31 3.356-.372zm28.404.75l-.338 2.422 3.22.48.415-2.301zm6.382 1.356l-.319 2.446 3.273.697.44-2.271zm-23.167 2.819c10.868-.013 20.772 1.864 29.114 5.045 0 0-1.08 2.338-1.462 2.59-5.986-2.396-16.187-4.624-23.08-4.745-2.526-.094-3.086-.161-4.017-.484-5.253-1.733-9.89-2.482-14.168.078l-1.748-1.24a98.255 98.255 0 0 1 15.361-1.244zm-45.899 13.974c2.486.03 3.668 3.851 1.043 5.457-.705.4-1.63.346-2.375.01-2.128-1.016-2.287-4.19.193-5.23.4-.167.784-.24 1.14-.237zm81.226.126c.89.545 4.176 2.005 4.176 2.005l-23.08 41.85-5.585.044zm-74.442.099c1.383-.155 2.365 1.036 2.721 2.032.487 1.358-.386 3.77-2.824 3.631-2.796-.16-4.05-5.199.103-5.663zm79.371 2.177c.62.341 2.861.714 3.056 1.147.084.217-.085.644-.135 1.196-.12 1.33.21 2.804 1.013 3.986 1.316 1.833-.109.99-1.424.978-2.967-.76-6.746 3.294-5.31 7.466.332.924.267.997-1.323 1.482-3.609 1.102-5.182 4.943-3.448 8.374.903 1.787.93 1.696-.66 1.829-4.416.367-6.98 4.296-5.126 8.314.286.621.104.792-.86.973-3.014.555-4.364 3.083-4.745 5.859l-3.987.039zm3.823 1.477l7.661 2.096c-3.181 10.85-3.62 23.456.208 38.036l-17.615.014c2.446-2.202 1.48-5.246-1.38-5.916 2.775-1.598 2.777-5.85-.548-6.36-2.924-.45-4.434 2.338-3.135 5.132l-1.25.341s-.559-.704-.687-1.08c-1.103-3.225 1.206-6.426 5.141-6.416 2.427.007 2.93-.682 1.588-2.179-2.398-2.675-1.643-6.435 1.488-7.914 1.442-.68 2.292-.23 2.292-.23l.075 1.773s-.585.057-1.04.129c-3.458.555-2.817 6.084.698 6.036 1.935-.026 3.318-1.498 3.319-3.611v-1.47c1.776 3.048 4.828 3.266 6.128.786 1.53-2.92-1.246-4.755-4.029-4.453 0 0 .584-.38.953-.57 2.963-1.53 1.943-5.897-1.334-5.897-2.25 0-3.56 2.096-2.836 4.318.116.357.391.929.391.929l-1.337.34s-.304-.233-.44-.446c-2.295-3.598 1.391-7.561 6.035-6.662 1.7.534 1.645-.645.69-1.71-1.026-1.535-1.792-3.274-1.038-5.016zm-86.58 1.569l4.022 7.108-4.504 8.188-4.465-7.67zm-.395 3.699l-2.79 3.854 2.732 4.426 2.592-4.479zm-.12 1.448l1.814 2.44-1.83 2.998-1.79-2.814zm83.098 7.68a1.536 1.536 0 0 1 0 3.07c-.845 0-1.53-.687-1.53-1.536 0-.848.685-1.534 1.53-1.534zm-10.826 19.271a1.592 1.592 0 0 1 0 3.181 1.588 1.588 0 0 1-1.583-1.592c0-.88.707-1.589 1.583-1.589zm-2.4 1.083c-.145.062 0 1.443.35 2.015-2.287.14-2.892 1.896-3.115 3.377l-2.049-.006c.342-5.01 4.668-5.122 4.814-5.386z"/><path d="M3429.59-350.164c-9.185 13.115-19.012 20.662-19.176 30.894-.055 3.314 1.735 8.945 7.339 10.023 3.635.696 8.641-2.25 8.746-8.236-.016-1.192 1.26-1.16 1.248.472-.171 4.722-1.664 10.219-4.173 14.694h12.032c-2.509-4.475-4.001-9.972-4.173-14.694-.011-1.633 1.265-1.664 1.249-.472.104 5.986 5.11 8.932 8.746 8.236 5.604-1.078 7.393-6.71 7.338-10.023-.163-10.232-9.991-17.779-19.176-30.894zM3532.66-104.53c-9.184-13.116-19.011-20.663-19.175-30.895-.055-3.313 1.734-8.945 7.338-10.022 3.636-.697 8.642 2.25 8.746 8.236-.016 1.191 1.26 1.16 1.249-.473-.172-4.721-1.664-10.218-4.173-14.693h12.032c-2.509 4.475-4.002 9.972-4.173 14.693-.012 1.633 1.265 1.664 1.249.473.104-5.986 5.11-8.933 8.746-8.236 5.603 1.077 7.392 6.709 7.338 10.022-.164 10.232-9.991 17.78-19.176 30.894z"/></g></svg>