<svg xmlns="http://www.w3.org/2000/svg" width="63mm" height="88mm" viewBox="0 0 223.22835 311.81102"><g transform="matrix(1 0 0 1 -3369.501 1088.87)"><rect ry="10.63" rx="10.63" width="222.232" height="310.814" x="3370.009" y="-1088.37" fill="#fff" stroke="#000" stroke-width=".997"/><path d="M3575.103-827.37c3.91-.088 5.663-4.673 2.768-8.234-.42-.52-.464-.817.306-.318 1.95 1.358 5.687.465 5.879-3.687.236-5.115-6.626-6.59-7.914-1.15-.068.574-.516.561-.408-.254.118-2.21.78-4.277 1.692-6.292h-4.648c.911 2.015 1.574 4.081 1.691 6.292.108.815-.34.828-.407.254-1.289-5.44-8.15-3.965-7.914 1.15.191 4.152 3.93 5.044 5.88 3.686.768-.498.725-.2.305.32-2.896 3.56-1.142 8.145 2.767 8.234zM3387.148-1038.556c-3.91.088-5.663 4.674-2.767 8.235.42.519.463.817-.306.318-1.95-1.358-5.688-.465-5.879 3.686-.236 5.116 6.625 6.59 7.913 1.15.068-.574.516-.56.408.254-.117 2.211-.78 4.278-1.691 6.293h4.648c-.911-2.015-1.574-4.082-1.692-6.293-.108-.815.34-.828.408-.254 1.288 5.44 8.15 3.966 7.913-1.15-.19-4.151-3.93-5.044-5.879-3.686-.769.499-.725.2-.306-.319 2.896-3.56 1.143-8.146-2.767-8.234zM3379.912-1052.566h-2.745v-3.748h2.745s.021-2.02.1-5.581c.17-7.593.36-8.772 2.555-10.862 4.335-4.13 11.595-.765 11.51 5.446-.126 8.765-.036 17.121-.291 18.305-.455 2.085-.5 2.202-.315 2.584.38.764 3.66 1.096 3.66.882v3.691c-2.506.195-3.546-.04-5.55-1.473-1.251 1.208-5.06 2.422-8.09.994-2.304-1.086-4.05-3.89-3.579-10.239zm9.28 6.542c-1.36-1.969-3.65-4.655-5.805-5.61-.134 2.264.061 4.162.855 5.183 1.265 1.625 3.309 1.997 4.95.427zm1.129-21.65c-1.01-2.864-3.605-3.835-5.5-2.043-1.185 1.115-1.375 2.288-1.4 8.662-.015 3.932-.015 5.584-.015 5.584 3.69 1.199 7.14 5.506 7.11 5.45l.09-11.89a33.373 33.373 0 0 0-.284-5.763zm0 0M3582.337-813.359h2.745v3.748h-2.745s-.021 2.019-.1 5.581c-.17 7.593-.36 8.772-2.555 10.862-4.335 4.13-11.595.764-11.51-5.446.126-8.765.036-17.122.291-18.306.455-2.084.5-2.202.315-2.583-.38-.765-3.66-1.096-3.66-.882v-3.692c2.506-.194 3.546.041 5.55 1.474 1.251-1.209 5.06-2.423 8.09-.995 2.304 1.086 4.05 3.891 3.579 10.239zm-9.28-6.542c1.36 1.968 3.65 4.655 5.805 5.609.134-2.264-.061-4.162-.855-5.182-1.265-1.625-3.31-1.997-4.95-.427zm-1.129 21.65c1.01 2.863 3.604 3.835 5.5 2.042 1.185-1.114 1.375-2.288 1.4-8.661.015-3.932.015-5.585.015-5.585-3.69-1.198-7.14-5.505-7.11-5.45l-.09 11.89c-.072 1.93.024 3.862.284 5.764zm0 0"/><path d="M3488.948-803.333c.55-8.137.078-16.872.448-23.494-.251-.467.652-1.752.7-1.752-.537-.984-.718-3.504-.04-5.74 5.305-20.292 14.911-36.083 24.806-50.809 8.046 24.337-17.22 41.41-22.533 62.676-1.772 7.363-1.506 12.505-2.186 19.157zm-42.005.31l-30.057-46.616 6.527-3.19 30.894 49.642zm38.876-86.357c.266 1.338 1.314 2.057 2.427 1.444 1.09-.6 1.217-.64.538.415-1.498 2.33 1.536 4.585 3.483 2.586.692-.71.808-1.867.18-2.454-.71-.663-.865-1.007.182-.501 2.63 1.069 4.08-2.75 1.53-4.035-.656-.331-1.936-.038-2.417.466-.582.61-.664.395-.509-.077.092-.28.157-.733.376-1.273.172-.425.295-1.002.295-1.002l-2.687.028s.217.618.437 1.138c.207.49.286.856.386 1.06.362.732-.073.46-.799-.081-1.026-.767-2.312-.551-3.043.457-.27.592-.496 1.209-.379 1.829zm3.88-37.925l5.778-.173 6.354 17.604c-5.085 8.476-6.457 18.036-.54 27.726l-18.322.03c4.298-14.602 4.961-30.089 6.73-45.187zm6.042 22.905c.775-.696.875-1.959.168-2.8-.889-1.06-.685-1.113.507-.422 1.72.998 3.365-1.16 2.35-3.068-.645-1.211-2.73-1.48-3.526-.402-.664.898-.59.076-.08-1.118.188-.439.458-1.263.458-1.263l-2.8.058s.362.796.554 1.307c.511 1.356.532 1.785-.255.913-1.71-1.442-3.714-.397-3.732 1.674.017 1.591 1.454 2.613 2.712 1.87.765-.453 1.108-.561.247.477-.594.99-.381 2.25.403 2.842 1.074.652 2.224.616 2.994-.068zm-38.706 5.485c.225-.166.308-.057.17.167-.117.192-.418.463-.676.751-1.307 1.46.384 3.314 2.49 3.027 1.434-.195 2.275-2.46 1.216-3.353-.343-.23-.612-.274-.872-.59-.021-.125.037-.21.164-.16.187.078.57.388.762.44 1.332.364 2.338-.19 2.676-1.134.214-1.092.008-2.265-.88-2.878-.827-.557-2.049-.397-2.76.552-.73.972-.83.047-.234-1.294.223-.502.377-1.217.377-1.217l-2.574.137s.137.556.364 1.195c.571 1.46.981 1.878.25 1.124-3.144-1.86-4.188.67-4.24 1.675-.097 1.893 2.648 2.966 3.767 1.558zm12.588-28.55l4.645.016c-3.503 18.695-10.68 34.355-22.754 45.133l-22.724-.07-10.95-7.687 4.23-5.514c28.847 2.984 41.133-11.376 47.553-31.878zm-20.906 43.34c1.36-.603 1.925-2.149 1.026-3.186-.814-.938-.897-1.23.352-.5 1.672.977 3.288-.974 2.468-2.883-.51-1.189-2.117-1.556-3.275-.749-1.016.762-.997.422-.466-.78.263-.596.466-1.55.466-1.55l-2.847.04s.205.68.413 1.146c.475 1.07.647 1.56.426 1.563-.107 0-.459-.325-.664-.515-.567-.523-2.117-.622-2.692-.07-1.705 1.632-.745 4.487 1.423 3.96 1.4-.34 1.72-.874.56.448-1.429 1.629.785 3.972 2.81 3.075zm-17.96-.568c1.178-.557 1.572-1.92.912-2.8-.663-.886-.99-1.457.19-.659 1.568.792 2.939-.26 2.919-2.051-.021-1.876-2.12-2.751-3.663-1.621-.26.19-.581.362-.639.363-.188.002.154-1.013.53-1.677.162-.288.45-.875.45-.875l-2.848-.11s.159.78.382 1.378c.454 1.217.565 1.623-.23.932-2.141-2.01-4.425.55-3.524 2.758.477 1.244 1.938 1.243 2.8.622.783-.609.383.199-.153.841-1.463 1.752.681 3.929 2.874 2.9zm130.025-46.873l.15 3.458-36.794 30.784-1.543-2.373zm-136.848 6.474c5.298-3.785 11.19-10.58 17.006-14.12 4.25 9.804-5.717 19.416-17.006 14.12zm96.726-1.8c-3.743-20.727 18.436-16.408 17.266-14.559zm-119.106-12.679l36.423-29.812 1.655 2.507-38.424 31.604zm99.775-30.072c.103.311 1.205 1.5 1.207 1.607-.315-.235-2.186-1.288-3.1-.265-.318.375-.724 1.27-.68 2.198.382 1.66 2.265 2.246 3.602 1.109.385-.327.716-.724.794-.585.068.122-.142.693-.313 1.144-.198.465-.932 1.44-.4 1.44l2.587-.006s-.095-.608-.405-1.281c-.578-1.258-.554-1.94.144-1.034 1.359 1.764 3.992.293 3.717-1.823-.199-1.527-1.739-2.4-2.871-1.672-.124.08-.488.44-.54.443-.138.007.241-.576.492-1.06.835-1.606-.41-3.093-2.317-2.933-.616.052-1.29.441-1.294.497-.716.58-.833 1.581-.623 2.22zm31.447-14.956c3.644 3.365 7.288 5.832 10.932 7.987l-3.439 5.45c-23.306-2.165-40.254 7.086-47.326 32.166l-3.842.742c1.445-15.645 6.667-31.16 22.105-46.32zm-22.336 3.744c.006.741 1.363 1.624 1.061 1.828-.138.074-.946-.632-1.318-.672-2.69-.287-3.248 3.914-.582 4.385.525.093 1.608-.234 1.929-.5.427-.351.723-.64.81-.609.164.06-.208.81-.501 1.364-.272.516-.651 1.59-.651 1.59l3.059.013s-.277-.941-.553-1.61c-.351-.855-.426-1.397-.19-1.34.103.025.217.292.432.477 1.325 1.142 3.27.654 3.78-1.13.48-1.677-1.52-3.404-2.912-2.466-.486.328-.487.082-.001-.654.443-.671.334-1.69-.068-2.294-1.462-1.558-4.361-.444-4.295 1.618zm21.966 4.974c-.074-.374.021-.267.413.142 1.227 1.282 3.339 1.084 3.877-.616.536-1.695-1.103-3.635-2.532-2.97-.743.347-.756.225-.331-.33 1.096-1.432-.113-3.318-1.993-3.297-1.717.02-2.73 1.68-1.894 3.105.343.584.231.709-.371.416-1.757-.856-3.397 1.936-2.11 3.592.757.973 2.509 1.076 3.51.11.534-.515.53-.269.142.796-.337.926-.711 1.676-.711 1.676l3.04.027s-.811-1.55-1.04-2.65zm-65.118 37.515c.885-.23-3.124-12.975-6.06-18.66 3.346-8.044 7.924-15.839.227-27.42l18.705-.053c-5.779 13.154-5.902 46.353-7.26 46.434zm1.64-14.763s-.923-1.275-.98-2.308c-.11-.663.06-.704.403-.028 1.666 1.849 3.921.064 3.932-1.574.191-1.498-1.554-2.782-2.675-2.034-.786.524-1 .374-.299-.602.987-1.374-.088-3.163-1.853-3.143-2.295.026-3.174 2.18-1.529 3.716 1.216 1.135.083.464-.883.058-1.88-.79-3.112 1.131-2.268 3.07.581 1.34 2.29 1.688 3.292.605.549-.594 1.056-.942.759-.044-.156.725-.996 2.264-.996 2.264zm2.896-20.218s-1.107-1.394-1.298-2.442c-.065-.386.207-.288.836.254 2.013 1.734 4.777-1.376 2.902-3.275-.644-.653-1.3-.842-2.052-.448-.94.493-.864.254-.396-.256.688-.747.637-2.11-.103-2.772-2.046-1.83-5.284.898-3.383 2.854.828.852.436.741-.475.194-1.724-1.035-3.631 1.8-2.337 3.466 1.534 1.302 2.684.662 3.745-.157.23-.122.43-.177.431-.076.002.188-1.06 2.697-1.06 2.697zm-24.532-7.858c-1.141-.077-1.957-10.783-.562-14.173 2.974-14.3 12.052-24.715 17.701-33.474 9.064-13.044 7.937-34.71 8.322-33.847l1.286.15s-.995 12.702-.433 18.44c.585 5.046.457 5.36.097 5.86-.095.47.046 1.845-.056 2.318-4.034 18.682-13.66 37.892-23.601 52.394zm93.194-32.637l-30.609-48.457 7.356-.664c2.73 4.342 29.32 45.745 29.32 45.745z" fill="#d40000"/><path d="M3414.452-802.159c3.48-12.811-5.95-42.607-11.843-46.5 6.912-.293 15.225-.168 14.962-.817 0 0 29.39 46.41 29.15 46.657-.225.232-32.269.66-32.269.66zm119.12-72.684c-7.123-1.016-4.315-6.952.265-7.568-.596.1.49-2.951 4.184-4.185.839-1.527 1.497-4.135 2.265-5.346-2.214.722-4.905 2.6-14.963 1.12.876-4.785 10.497-5.601 13.967-4.861 2.003.467 3.98 3.464 4.59 3.527 6.175-1.033 14.032 4.576 11.655 10.27-.368.812-1.308-.964-3.387-1.721-6.719-2.446-7.19-6.097-8.734-7.732-.562-.105-3.533 5.798-3.533 5.798l.927 4.01c1.612-.148 8.774 4.295-.142 7.305-2.465 8.531-7.109 2.51-7.095-.617zm16.877-38.094c-.38-.389.3-3.044 1.204-4.572.489-.825 1.617-1.38 2.279-1.263 1.18.208.995 1.929-.567 6.968-.065.727-1.66.803-2.916-1.133zm-141.84-35.283c-1.954-.007-.201-5.343 1-7.037.395-.526 1.955.595 2.036 1.368.144 1.385-1.975 6.219-3.036 5.67zm-1.387-36.284c2.386.578 6.151 2.989 7.95 4.312 2.238 1.676 1.628 4.968 3.418 5.26 1.209-.6 3.426-5.99 3.426-5.99s.557-2.77-1.02-3.622c-3.924-2.122-3.854-4.414-3.605-4.618 1.164-3.028 3.48-2.49 4.732-2.658.027-1.658-.028-5.158 3.39-4.797 2.99.284 3.284 4.571 2.027 4.611-.024-.072 5.652-.818 5.597 2.942-.03 2.038-3.397 4.646-4.446 3.699 0 0 .562 4.063-4.525 5.456-1.188 1.214-2.158 6.38-2.158 5.92 3.067-2.779 7.87-3.43 15.45-2.433-4.696 8.74-17.678 4.65-18.693 2.959-6.532-1.979-12.658-4.555-11.543-11.04zm55.92-20.945c6.91.63 14.467-1.547 20.213-.395.655.09 1.366 1.062 1.76 1.278 2.97 1.627 6.078 1.121 10.858-.695 1.18-.449 23.086-.277 23.086-.277 4.99 7.4 13.862 21.321 14.055 20.85 0 0-12.144-.139-17.738.194-3.934.234-1.621.772-4.353.89-19.142 14.434-22.786 45.626-22.786 45.626s6.083-1.607 7.673.08c7.526-22.102 21.813-32.194 41.736-30.218 9.207.913 20.193 10.003 20.193 10.003l-19.703 16.098c-15.263-7.73-21.803 15.053-17.172 15.11l39.676-32.56s.679 2.657.61 2.747c-2.827 3.722-50.128 42.27-50.128 42.27l-2.077-2.303s-1.305 1.163-1.991 1.937c-.068 1.263.375 2.333 1.329 3.321-9.37 7.55-9.68 21.402-2.773 28.963 0 0-3.063.218-3.385.273-3.893.67-7.919-18.602-.202-27.569-3.893-7.665-6.292-18.092-6.78-18.576.105 1.229-6.144.82-6.144.82-.477 15.576-2.096 30.849-5.824 45.565l28.707.62-12.22 21.293s-13.713-.345-19.621-.76c-6.168-3.603-9.724-.863-15.513.47-8.238.243-20.364-.141-20.364-.029-4.113-8.2-8.533-14.23-14.54-21.26-.763-1.277 24.384-.488 24.384-.488s12.57-19.091 14.86-24.483c1.787-4.208 5.796-19.53 5.796-19.53.185.8-2.283-3.983-8.031-3.875-4.754 31.725-42.303 42.412-64.898 21.993l-.21-3.69 49.791-40.547 2.213 2.567c-.476-.382-30.567 24.758-30.068 24.6 8.919 4.686 19.238.892 18.038-14.492 7.066-5.129 13.323-11.103 19.475-17.201.132-.239 6.864 15.164 6.698 18.128 3.872-1.305 6.165 1.432 6.092.964-1.392-8.907 6.377-42.68 6.525-46.563-4.315-.349-10.037-.189-19.01-.546 7.207 14.007 4.703 23.496-5.372 32.124l-2.107-2.658c.855.479 14.716-11.565 3.556-29.558-.511.043-5.883-.487-5.883-.487s11.013-17.542 11.57-20.024zm53.5-57.89s31.425-.759 31.435.166c-1.003 16.95 2.932 32.413 12.43 46.713 0 0-13.92-.495-13.665-.32z" fill="#e2cf00"/><path d="M3562.76-1064.54H3399.49v263.155h163.269zm-15.35 1.144c-.013-.015-2.106 27.849 12.375 46.099-8.846-1.346-13.91.015-19.06 3.669l.704.728c7.094-4.375 13.111-3.224 19.27-2.543v35.848c-.044 1.741-7.374.964-11.896-2.45-2.148-1.274-4.918-3.947-6.16-5.952-.378-.61-.775-1.213-.885-1.34-.415-.48-2.995-5.305-7.73-14.44-2.408-4.646-5.591-10.982-8.176-15.893-1.674-3.18-4.785-9.186-5.004-9.665-.458-.998-3.845-7.634-5.164-10.048-3.483-6.377-9.106-17.505-11.112-21.493-.443-1.035-1.118-1.512.09-1.478.268.006.536.023.69.06.213.106.471-.367.471-.367zm-145.665 150.741v-2.819l47.569-39.313 1.515 1.957zm46.068-68.861c-.19.07-.4.143-.628.215-1.22-5.458-.525-12.752.913-18.235 2.094-7.612 6.005-13.717 10.359-19.852 9.952-14.01 14.36-24.571 14.182-43.39l1.422.151c-.06 2.973-.451 5.209-.566 9.164-.178 4.239-.107 7.461.342 11.6.22 2.033.353 3.351.012 3.616-.163.133-.31.836-.16 1.095-.025.564-.101 1.692-.101 1.692-2.28 11.205-14.504 39.935-25.775 53.944zm5.937 25.472l-2.516-3.099s-1.935-1.566-.196-3.336c5.026-5.118 5.06-11.622.2-17.472-.326-.742 1.51-4.495 1.51-4.495l3.826.063c5.967 7.29 7.594 20.167-2.824 28.34zm3.515-28.924c.12-.499-5.669-.306-5.669-.306 3.595-5.38 6.653-10.915 9.658-16.465 4.66-8.399 11.124-23.114 13.15-33.78 1.509 12.475 3.703 30.991 14.336 31.722 3.486.24 7.524-2.16 8.182-1.763l22.09-.175c4.53 9.222 9.398 15.163 15.16 21.47 4.142 2.372 9.193 4.249 14.075 5.466 2.773.692 3.039.232 8.509 1.015 1.444.207 3.643-.406 3.621-.406-4.37 3.461-9.412 2.48-14.965.999-.31-.083-.636-.18-.96-.295l-4.193 6.333c-9.333-2.22-39.293-.649-47.191 32.056 0 0 .812.415.622.19 6.273-28.387 32.77-34.046 45.402-31.218l-1.086 1.664c-20.96-2.573-38.026 10.588-42.09 29.253l.404.369c7.865-28.219 40.93-38.66 61.428-19.1l3.76-2.674-.121 3.618-50.398 42.394-2.016-2.092s-.355.27-.757.605c-1.3 1.087-1.813 1.353-1.449 1.96.365.606 1.779 1.972 1.84 2.125-8.359 6.839-11.01 20.027-3.068 29.264.886.978.725 1.241.563.139-7.126-7.785-6.223-21.554 2.66-28.078l1.791 2.356c-3.91 8.622-5.997 22.07 4.288 23.234 3.684 9.914-.555 21.66-5.287 29.535-5.015 9.07-11.092 16.61-14.886 26.49-1.843 4.123-4.777 16.351-4.623 25.695l-1.105-.011c-.002-3.813.252-8.334.283-11.225.155-14.092.135-13.256.45-13.613.105-.12.4-.244.427-.343.042-.149-.23-.44-.336-.785-.11-.353-.296-.973-.277-1.495.018-.522.506-1.283.413-1.453-2.212-7.777-2.394-21.753-9.535-28.173-3.502-3.02-8.153-3.141-14.177-.664-13.294.024-11.323.71-22.058.095-4.441-8.164-9.827-16.115-15.655-22.01-2.723-3.05-6.51-4.72-10.072-6.93 1.429-2.72 3.05-4.71 4.82-6 .367-.527.617-1.094 1.092-1.54 36.199 3.492 44.049-31.705 42.396-30.81l-.32.28c-9.897 36.263-45.116 34.942-62.82 19.264 0 0-2.501 2.182-2.51-.212-.007-2.176.784-2.806.784-2.806l49.69-40.682c.908.581 1.887 2.514 2.294 2.298.916-.489 2.264-1.47 2.223-2.054-.032-.45-1.817-3.273-1.817-3.273 13.293-13.817 7.297-19.99 3.03-29.458zm18.837-77.656c.24-.002.465.112.633.378.303.48-.903 3.283-1.649 3.777-.705.467-.756-.076-.246-2.787.15-.794.735-1.365 1.262-1.368zm72.909.082h11.688v44.345c-8.601-12.137-13.05-26.08-11.688-44.345zm-69.82.073c.288-.013.54.067.624.277.295.747-1.393 3.98-3.481 6.66-1.084 1.39-1.63 1.792-1.968 1.46-.285-.632-.277-1.368.72-2.524.823-.952 2.223-3.18 2.8-4.428.25-.731.498-1.393 1.305-1.445zm11.818.158c.335.003.68-.002.777.157 2.009 4.114 5.793 7.827 9.665 9.81.564.322.298 1.13.488 1.696-4.35-.649-10.058-6.835-11.584-11.35-.008-.328.318-.316.654-.313zm6.801-.003c.865.883 2.227 1.949 2.533 2.956.189.618.326 1.327.194 1.66-.756.475-4.511-3.899-4.366-4.41.477-.315 1.077-.382 1.639-.206zm-16.284-.063c.37.014.933-.007 1.016.272.469 1.908-3.87 9.34-7.035 11.446-1.125.748-1.197.552-1.107-.704.06-.844.141-.777 1.296-1.883 1.648-1.58 3.448-4.018 4.438-6.18 1.27-2.77.96-2.945 1.392-2.95zm2.945.03c.413 0 .798.14.904.324.144.25-.05.655-.184 1.156-1.43 4.062-4.983 9.907-9.157 13.227-1.623 1.257-1.898 1.249-2.016-.048-.069-.754.276-.974 1.04-1.505 3.54-2.465 6.722-6.743 8.069-11.111.262-.851.162-1.615.623-1.874.214-.12.473-.17.72-.17zm21.974 7.038c.17.291 1.384 2.198.392 1.48-.408-.335-1.148-1.18-2.326-2.524-2.787-3.177-2.87-2.98-2.815-3.77.027-1.03-.707-2.72.878-2.28 1.559 1.837 2.537 4.8 3.87 7.094zm-12.687-6.976c.316-.005.69.054 1.001.117 1.835 3.463 6.314 6.504 6.297 6.488 0 0 .113 1.507-.05 1.774-.094.464-7.115-4.892-7.895-8.097.074-.207.331-.276.647-.282zm-4.996.063c1.648 3.04 5.05 9.94 13.042 12.728.574.126 1.186 1.768.746 2.22-4.382-1.276-12.33-5.584-15.03-14.906.263-.247.962-.21 1.242-.042zm-2.146.591c-.274.005 3.773 11.732 15.304 15.229.997.314 1.581.747 1.518 1.34-.08.747-.056.84-1.166.281-3.145-1.65-7.629-2.422-11.373-.511-.584.298-1.177 1.11-.707 1.623.269.26.93.067 1.773-.262 4.358-1.703 11.03-.702 12.208 1.975.836 1.9.979 3.301.522 3.534-.349.178-.94-.46-1.983-1.378-3.316-2.921-7.28-3.734-10.433-.928-.682.608-1.358.503-1.596.753-.23.242.044.788.237 1.32.203.557.212.71.01 1.18-.276.644-.287 1.469-.256 2.082.074 1.496 1.06 2.784 3.897 4.757 2.209 1.537 3.936 2.4 1.247.214-4.642-3.775-5.484-5.313-2.475-4.005 3.004 1.212 7.17-.003 10.119-2.262 1.004-.017 1.601-.193 2.13.194 2.2 5.186 4 12.086 6.924 18.775-3.492 3.962-15.653 13.665-24.324 13.319-7.487-.299-10.13-12.601-11.786-19.4-.557-2.877-1.193-5.805-1.117-9.869 0 0 .136-.109.33-.072 1.254.238 3.414.402 4.51.145 1.992-.467 2.393-.824 2.51-.529.137.348-.693 1.13-2.143 2.126-.63.434-2.465 1.322-2.272 1.452.439.294 2.66-.892 3.032-1.21.58-.493.979-.524 1.257-.251.325.319.392-.021-.682 2.655-1.184 2.949-1.07 3.216 1.238 5.033.802.632 1.536 1.263 1.711 1.54.221.362.371.789.474.926.39.524.15-.32-.082-1.66-.27-.992-1.238-1.977-1.925-2.456-1.26-.88-1.064-1.742-.02-4.738 3.076-8.834 2.291-12.774-1.096-14.693-1.528-.865-5.805-.634-7.153.497-.664.557-.573-.537-.467-.61 8.126-5.608 10.032-10.957 12.105-16.116zm15.684 4.329c2.306 2.298 5.177 5.419 6.906 7.638.949 1.183 1.449 2.398 2.204 3.64.144.226.286.483.184.588-.038.045-.368-.148-.551-.286-1.69-1.28-8.669-9.258-8.669-9.258-.322-1.31-.546-1.756-.074-2.322zm1.38 5.415s6.046 6.628 9.51 9.888c.681 1.436 1.986 3.505 1.953 3.854-.015.154-.74-.408-.74-.408-3.828-3.54-7.364-7.52-11.038-11.29.035.02-.29-1.561-.295-2.2.084-.312.45.033.61.156zm13.116 16.99c.814 1.328 1.407 2.519 1.799 3.3.646 1.238.43 1.273-.14.816-4.327-3.555-7.95-7.883-12.025-11.85-.529-.546-1.585-1.761-1.585-1.761.037.044-1.328-2.859-.471-2.8.67.262 1.111.993 1.544 1.458 2.137 2.298 6.208 6.247 10.878 10.836zm-37.74-9.474c1.784-.054 3.542.409 4.428 1.508.807 1 1.133 2.58.686 3.04-.28.287-1.27-.521-1.27-.521-4.202-2.367-5.65-1.227-7.93-.532-.325.099-.67-.781-.254-1.652.836-1.447 2.957-1.802 4.34-1.843zm26.441 2.24c4.495 4.525 9.061 9.55 13.925 13.442.681.583 1.149.958 1.46 1.272.642 1.277 2.119 4.319 2.119 4.319-5.213-3.659-16.954-16.272-16.824-16.188.117.059-.983-2.308-.68-2.844zm-8.797.75c.82-.008 1.72.25 2.43.533 2.264.902 3.69 1.863 1.344 1.543-3.264-.446-4.38-.47-5.575-.277-2.22.358-2.392.606-2.586.252-.51-.929 1.924-2.028 4.387-2.051zm-18.529.265a6.37 6.37 0 0 1 2.577.558c2.769 1.216 3.256 2.007.9 1.627-1.224-.198-3.467-.178-5.072.237-.51.132-1.073.429-1.204.471-.57.183-.727-.244-.484-.96.42-1.24 1.721-1.923 3.283-1.933zm20.043 3.547l.572.041c-.714 4.06-4.753 3.664-5.84.177l.571-.012c2.128 3.334 3.718 1.373 4.697-.206zm2.25.21c1.866-.02 1.746 1.104-.198 1.86-1.49.578-1.658.474-1.112-.646.524-1.077.47-1.204 1.31-1.214zm-19.228.146c.182 3.658-4.894 4.329-5.206.34l.483-.024c1.664 3.137 3.585 1.243 4.185-.315zm2.258.5c.575.394.218.935-1.03 1.699-1.125.703-1.415-.147-.487-1.326.39-.38 1.029-.695 1.517-.373zm8.804-.005c.222-.07.749.919.3 1.155-.267.14-.661-.264-.706-.563-.035-.236.114-.5.406-.592zm15.2.228c3.389 3.747 6.799 7.51 16.773 15.664 0 0 1.409 2.517 1.716 3.5-.242.3-.369.266-1.068-.082-6.505-5.042-12.553-11.174-17.29-16.873-.225-.805-.726-1.58-.13-2.209zm-32.296.374c.385-.013.928.85.629 1.369-.248.195-.631-.108-.798-.345-.165-.235-.16-.668-.058-.859.06-.112.139-.162.227-.165zm33.713 5.189c-.026-.13 15.754 15.927 17.778 15.62.943.557 3.288 5.122 3.288 5.122.067.144.056.412-.324.223-2.668-1.325-13.821-10.616-19.523-17.533-.417-1.007-.922-2.287-1.219-3.432zm-18.757 2.358c2.752 1.335 1.568 4.072-1.336 2.331-2.289-1.396-4.104-1.523-4.09-.315.006.51.629 1.166 1.233 1.16 1.131.073 2.156.489 3.268.733 1.734.373 3.031-.089 3.466-1.146.736-1.793-1.016-3.75-2.17-3.646-1.154.104-.864.659-.37.883zm21.789 4.39c-.193-.17 7.847 8.674 18.807 15.979.426.493 1.485 3.044 1.654 3.388-.044.24-.285.005-.285.005-5.536-3.213-12.843-9.584-19.765-16.815 0 0-.666-1.603-.87-2.645.15-.07.314.021.459.087zm-18.261 3.184c-.25.034-.583.412-.996.64-.843.466-1.11.59-3.181-.034-1.124-.338-1.306-.314-1.978.185-.586.436-.912.508-1.566.213-1.178-.53-1.724-.144-2.814.238-1.039.377-1.395-.082-2.33-.296-.124.001-.177 3.787-.054 3.908.043.042.972-.571 1.5-.84.905-.463.775-.39 2.097-.335 1.953.338 3.886.224 5.193-.291 1.627-.462 2.899-.376 4.023.548.682.562 1.587.47 1.058-.563-.182-.357-.596-1.671-.546-2.16.074-.73-.087-1.199-.358-1.213-.016-.001-.031-.003-.048 0zm20.848 2.95c3.7 3.563 8.262 9 18.995 15.301.56.984 1.316 2.29 1.794 3.31.044.283-.025.535-.3.437-6.632-4.22-10.32-6.271-19.513-15.368-.571-.922-1.18-2.492-1.653-3.771.1-.361.525 0 .677.092zm-1.562 1.36l4.105 7.737-13.823-.029c3.513-2.102 6.866-4.903 9.718-7.708zm-22.912.175c-2.27.906-2.613 1.094-4.864.543-1.312-.32-.952.443-.28.759 1.698.798 4.158.235 5.07-.397.602-.39 1.014-1.28.074-.905zm-2.33 2.388c-2.378.033-4.62.865-4.787 1.835-.032.187.162.398.532.175 1.61-.974 5.61-1.292 8.635-.195.49.178.575-.128.067-.548-1.132-.938-2.821-1.29-4.448-1.267zm30.169 3.306c4.474 4.145 8.792 7.96 18.422 13.51.693 1.518 1.696 3.334 1.872 3.492-9.025-4.398-18.86-13.077-18.86-13.077s-1.548-2.768-1.903-3.954c-.033-.4.342-.071.469.029zm3.08 6.458s8.24 6.996 17.632 11.745c.38.366 1.326 2.617 1.634 2.859.311.243-.373.243-1.05-.107-4.915-2.273-15.456-9.548-15.456-9.548-1.012-1.664-2.459-3.395-2.76-4.949zm-98.595 29.233c.754-1.618 1.522-3.418 2.02-4.886 2.244.023 3.346-.82 4.142-1.837 1.137-.031 2.006-.027 3.554-.072-.05-1.536.02-3.711.02-3.711 1.569-1.622 2.633-3.496.2-6.362 0 0-.097-1.336-.133-3.615-1.12-.18-3.635-.064-3.635-.064-2.032-2.87-5.636-2.147-6.73 0 0 0-1.619.089-2.73.093-.023.607-.215 3.298-.215 3.298s-4.737 3.244.178 7.067l-.067 3.212c.92.074 1.58.012 2.78.243 0 0-1.88 4.383-3.117 6.463-.423.112-.322-.132-.834-1.585-.614-1.714-2.005-3.588-3.185-4.51-1.6-1.238-3.787-1.623-5.313-2.698-1.472-1.038-2.51-2.376-2.979-2.127-.152.521-.32 3.514.232 5.437.78 3.163 5.313 5.18 9.1 6.694.29.189.55.474.55.578.006.523-.497.362-1.74.237-1.877-.187-2.653.328-3.312 1.937-.197.397-.664 1.08-1.044 1.534-.38.453-.776.895-.832 1.087-.055.193-.445 1.17-.831 1.986-.238.502-.634 1.029-.662 1.771-.089 2.268-.122 5.314.217 7.233.25 1.41 2.024 2.22 2.635 2.335.938.176 1.11 1.13.962 1.912-.723 3.854-2.933 6.213-3.64 4.947-.187-.333-.383-1.908-.436-1.888-.033.012-.37 1.339-.241 1.878.138.58.877 1.008 1.605.743 1.08-.393 1.93-1.468 2.601-3.913.274-1 .534-1.558 1-1.63.854.059 2.186 1.825 2.186 1.825-4.434 3.709-12.945 10.443-12.945 10.443v-121.472h69.907c.39 9.632-.774 17.84-4.22 26.421-4.082 9.244-10.418 16.114-15.266 24.621-5.854 10.272-7.728 20.927-5.734 31.644-5.981 7.86-11.02 11.632-15.803 15.284 0 0-3.587-3.785-5.579-5.903 0 0 .84-.07 1.824-.11 4.544-.512 9.462-1.159 11.362-5.908.27-.528.156-.762-.165-.835-3.558.496-6.65-.007-8.667.136-4.935.35-7.02 2.067-7.02 2.067zm.542 3.497s-5.71-2.725-6.133-2.802c-2.489-.453-8.491-3.593-9.505-5.728-.132-.278-.464-4.173-.57-4.97.036-.254.137-.246.386-.063.641.443 3.129 2.07 4.047 2.519 3.792 1.85 5.26 3.167 6.189 5.951.232.697.476 1.423.614 1.573.303.33.431.302.812.01 1.625-2.112 2.385-3.87 3.138-6.136.097-.253.309-.511.184-.877-.297-1-1.025-2.296-.28-3.275-2.376.109-4.65-1.634-4.36-3.38.632-3.236 2-2.653 4.562-3.124-.296-7.483 6.68-5.665 6.663-.454 7.663.648 4.042 7.763-.41 6.675 1.766 4.043-3.538 5.56-4.284 4.872-.299 1.306-2.319 5.513-2.749 6.764 5.679-4.04 14.815-2.247 16.139-2.506-3.3 6.926-14.085 5.24-14.443 4.95zm102.249-25.505c1.442 1.115 13.67 8.792 15.926 8.966 0 0 1.08 1.218 1.972 2.325.831 1.032 1.137 1.195 1.233 1.403.096.207-.313.197-.382.19-5.5-2.401-11.097-4.927-15.853-8.918-.642-.547-.786-.796-1.102-1.213-.42-.557-1.664-2.545-1.794-2.753zm4.052 6.194c5.592 3.155 10.346 6.214 15.442 7.86.727.273 1.098.291 1.46.548.362.256 1.915 1.22 2.282 1.436 2.325 1.37 2.564 1.305 1.987 1.534-.638.255-4.721-.943-8.17-2.223-6.12-2.271-8.284-3.56-10.497-5.563-.499-.518-2.824-3.31-2.504-3.592zm-111.491 17.597c.472-.011 1.226.283 2.011.888.84.647 2.905 2.001 3.757 2.369.436.187.572.236.572.236l5.5 6.267-14.16 11.557s-1.15-1.181-1.515-1.576c-.346-.373-.247-.684.185-1.106.346-.34.372-1.076.314-1.437-.086-.536-.072-1.14.604-1.641.546-.403.63-1.11.605-1.306-.021-.156.295-.673.768-1.02.994-.727 1.294-1.612.958-2.654-.14-.437-.217-.551.353-.932 1.01-.677 1.263-1.317 1.339-2.306.012-.157-.03-.323-.053-.447-.2-1.051.725-.785 1.484.534.414.72.532 1.9.74 3.243.244 1.583.412 2.015.498 1.791.49-1.278-.089-6.077-1.543-6.728-2.125-.952-3.902-2.893-3.37-3.655.185-.264.218-.173 1.514.427.759.352 1.461.638 1.566.641 1.5.048.59-.597.102-.665-.587-.082-2.342-1.153-2.548-1.53-.342-.624-.153-.94.319-.95zm-3.621.825c1.383-.016 1.649.357 1.663 1.553.008.706.27 1.25 1.373 2.655.45.573.75 1.013.72 1.238-.048.371-.182-.014-1.706-.194-.541-.064-.817-.073-1.006.209-.525.781-1.637-.033-2.32-1.185-1.632-2.746-1.056-4.25 1.276-4.276zm26.362 1.655l15.053 18.497-1.698 1.324-15.11-18.246zm-2.517 1.136l1.612 2.733s-4.664 4.001-5.89 5.13c-9.91 8.058-32.282 26.348-32.282 26.348l-.3-3.679zm-27.172.495c.294.007.63.381 1.108 1.112.413.633 1.298 1.903 2.243 2.776 1.834 1.697 2.011 1.543.522 1.704-.592.064-.785-.007-1.146.898-1.092 1.368-4.319-3.533-3.563-5.408.295-.732.542-1.09.836-1.082zm5.251 2.645c.272-.013.63.09 1.05.345.798.33.851.52.72 1.286-.126.733-.682.923-1.775-.043-.83-.785-.69-1.554.005-1.588zm24.027.453l1.769 2.293-40.09 32.594v-3.751c.979.126 26.675-22.333 38.32-31.136zm-31.134.373c.107-.023.275.347.72 1.019.907 1.37 1.74 2.272 2.688 2.99.898.68.998 1.059.382 1.063-.263.002-.623.28-.812.607-.38.656-.413.5-1 .155-.84-.493-1.681-1.237-2.017-2.213-.316-.92-.35-2.32-.092-3.34.046-.178.082-.271.13-.281zm6.338 2.601c1.023-.035 1.76 1.16 1.083 2.127-.376.368-.715.545-1.465.102-.989-.585-1.168-1.486-.357-1.99a1.49 1.49 0 0 1 .74-.239zm-6.585 2.588c.215-.01.603.301 1.252.97.5.514 1.365.952 1.712 1.146.778.436.814.587.392.937-.18.15-.773.159-.933.631-.46 1.351-2.411-.219-2.597-2.15-.094-.981-.103-1.522.174-1.534zm4.903.16c1.28.054 1.885 1.554.865 2.291-.556.402-1.958-.308-2.098-1.044-.09-.473.746-1.267 1.233-1.247zm29.936 1.115c.743 0 1.344.604 1.344 1.35 0 .745-.601 1.349-1.344 1.349a1.346 1.346 0 0 1-1.344-1.35c0-.745.601-1.35 1.344-1.35zm-4.018.558c.743 0 1.344.604 1.344 1.35 0 .745-.601 1.349-1.344 1.349a1.346 1.346 0 0 1-1.344-1.35c0-.745.602-1.349 1.344-1.349zm-26.924 1.802c.082-.004.168-.004.256 0 1.234.06 1.3 1.24.566 1.874-.438.38-.835.499-1.402.044-1.013-.814-.638-1.848.58-1.918zm29.917 1.975c.743 0 1.344.603 1.344 1.349a1.346 1.346 0 1 1-2.693 0c0-.746.606-1.35 1.349-1.35zm118.035.079v3.412l-47.437 39.644-1.606-2.106zm-120.763.29l-3.51 7.913-1.053-2.04h-2.625l.805-2.36-1.545-1.888zm74.7 32.909l6.246-5.028c-2.69-13.62 8.044-19.04 18.237-15.084l6.342-5.427c-11.768-9.948-39.44-3.2-30.826 25.539zm-84.504-26.623c.743 0 1.344.604 1.344 1.35 0 .745-.601 1.35-1.344 1.35a1.346 1.346 0 0 1-1.344-1.35c0-.746.602-1.35 1.344-1.35zm-4.08.33c.742 0 1.301.561 1.301 1.307 0 .746-.559 1.397-1.301 1.397a1.35 1.35 0 0 1-1.344-1.354c0-.746.601-1.35 1.344-1.35zm21.718 2.74l-6.193 4.978c1.6 13.042-4.72 19.683-18.304 15.212l-6.57 5.233c17.75 12.258 40.98-3.543 31.067-25.423zm-19.06 1.178c.743 0 1.345.604 1.345 1.35 0 .745-.602 1.349-1.344 1.349a1.346 1.346 0 0 1-1.344-1.35c0-.745.601-1.35 1.344-1.35zm130.27.342a1.35 1.35 0 0 1 0 2.699 1.346 1.346 0 0 1-1.344-1.35c0-.745.602-1.35 1.344-1.35zm-133.05.322l-3.96 7.864-.986-2.368-2.658.037.859-2.745-1.663-1.41zm127.733.828l1.23 2.08 2.6.064-.978 1.98 1.877 1.942-8.468 2.089zm-137.18 5.71a1.35 1.35 0 0 1 0 2.7 1.346 1.346 0 0 1-1.344-1.35c0-.746.601-1.35 1.344-1.35zm-3.868.15a1.35 1.35 0 0 1 0 2.7 1.346 1.346 0 0 1-1.344-1.35c0-.745.601-1.35 1.344-1.35zm134.5.803c.743 0 1.344.604 1.344 1.35 0 .745-.601 1.349-1.344 1.349a1.346 1.346 0 0 1-1.344-1.35c0-.745.601-1.349 1.344-1.349zm13.749.21v2.996l-38.524 32.158-1.62-2.09zm-145.556 2.922c.743 0 1.344.604 1.344 1.35a1.35 1.35 0 0 1-1.344 1.354 1.35 1.35 0 0 1-1.344-1.354c0-.746.601-1.35 1.344-1.35zm134.558.324c.743 0 1.344.604 1.344 1.35a1.35 1.35 0 0 1-1.344 1.354 1.35 1.35 0 0 1-1.344-1.354c0-.746.601-1.35 1.344-1.35zm-3.805.243c.743 0 1.344.604 1.344 1.35a1.35 1.35 0 0 1-1.344 1.354 1.355 1.355 0 0 1-1.349-1.355c0-.745.606-1.349 1.349-1.349zm15.025.478l-.113 3.815c-12.002 10.272-36.55 30.677-36.465 30.69l-1.854-2.571s26.91-23.272 38.432-31.934zm-148.245-.56l-3.703 8.386-1.597-2.258-2.338-.16.557-2.268-2.146-1.465zm128.388 3.312l2.364-.45-.412 2.428 1.661 1.752-8.708 1.921 4.21-7.838zm13.011 40.857c1.766 2.652 1.654 5.548.915 5.992-.78-.44-1.456-1.205-2.262-1.554-4.057-1.757-7.297-3.2-7.876-5.783-2.21-5.846 7.752-.86 9.223 1.345zm-21.323-15.528l13.65-11.158s2.092 1.083 2.488 1.575c.141.541-.236.707-.793 1.211-.255.329-.415.645-.43 1.356-.015.766.237 1.11-.071 1.447-.515-.027-.926.647-.904 1.194.017.416-.526.878-.845 1.192-.564.557-.73.673-1.092 2.562-.036.189-.024.68-.29.935-.788.07-1.36 2.01-1.72 2.133-.576-.037-1.492-.744-1.715-1.788-.146-.679-.106-1.997.054-2.846.19-1.01.276-1.927.212-2.17-.147-.563-.518-.217-.512.573.002.321-.121 1.283-.324 2.19-.203.908-.755 2.115-.507 2.831.37 1.068 1.733 1.52 2.347 2.086 1.616 1.487 1.968 2.213 2.152 2.543 1.292 2.372 1.296 2.776.972 4.56-.186 1.028-1.183.853-1.783.436 0 0-3.839-2.805-5.509-4.198-2.53-2.11-4.307-4.266-5.38-6.664zm5.18 7.668c1.463.595 5.275 3.372 5.275 3.372l-3.472 7.25c.633 1.137.887 3.957.887 3.957 4.391-.338 6.77 7.093-.07 6.407.781 4.593-6.589 8.193-6.387-.039-7.677.599-5.099-8.132-.368-6.494-.142-3.7 2.315-4.179 4.048-5.088 1.42-1.613 2.292-5.266 2.292-5.266l-.346-1.114c-1.456 2.553-7.655 3.286-14.466 1.932 1.844-4.387 7.438-4.263 12.606-4.917zm-13.546 5.52c-.231.874-.237.864.813.757.53-.054 2.666-.05 4.156.01 2.74.214 7.054.233 9.218-1.422.419-.401.65-.374.727-.154.185 1.069-1.916 4.585-1.916 4.585l-3.468 1.925s-1.42.067-3.179.024l-.03 3.133c-1.379.818-3.743 4.323.057 7.01l-.125 3.412 3.35.062c2.224 2.137 4.034 2.127 6.075.115l3.863.003-.016-3.685c1.905-1.537 2.175-4.145.229-6.228l-.048-3.74-2.972.02s-.615-.478-.632-.858c-.003-.246 2.17-4.448 2.585-5.048.54-.78.394-.334 1.258 1.467 1.237 2.577 2.46 3.628 5.596 5.15 2.797 1.357 3.796 1.99 4.608 2.768.646.62 1.027.424 1.276-.5.54-2.055.374-4.111-.754-5.992-2.379-3.97-6.523-4.154-7.182-5.072-.087-.22.757-.472 1.664-.88 1.57-.957 3.865-3.851 4.16-5.013-.054-.56.315-2.323.586-2.714.313-.693.348-1.017.334-2.878-.28-1.063-.025-2.446.106-2.922.143-.966-.368-2.105-1.095-3.502-.272-1.297-.209-.96.627-3.883.136-.472 1.076-4.544-.126-4.824.014.037.126.161.16.229.391 1.333.136 2.59-.175 3.8-.94 3.272-.96 3.655-1.819 3.378-.232-.075-1.75-1.252-1.75-1.252s-.016-1.532.306-3.053c-.19.516-.317 1.848-.914 2.16-.32.075-.762-.211-1.596-.932-.318-.275-1-.755-1-.755s9.689-8.336 13.356-11.1v123.465l-69.584.03c-.873-7.647 1.418-17.765 5.21-27.9 2.345-6.263 5.712-10.91 9.51-16.516 7.279-10.691 12.786-21.546 10.663-35.308-.277-2.042-.557-3.02-.462-3.57.885-1.666 4.395-6.72 6.96-8.824 3.765-3.088 9.004-7.7 9.424-7.427 1.25 2.421 2.73 4.382 4.69 5.86.345.376.354.706-.442.874-5.197-.047-10.546 1.099-12.282 5.715zm-121.083-35.077c.742 0 1.344.604 1.344 1.35 0 .745-.602 1.349-1.344 1.349a1.346 1.346 0 0 1-1.344-1.35c0-.745.6-1.35 1.344-1.35zm130.354.306c.743 0 1.344.603 1.344 1.35 0 .745-.601 1.349-1.344 1.349a1.346 1.346 0 0 1-1.344-1.35c0-.746.602-1.35 1.344-1.35zm2.929 3.702c.743 0 1.344.603 1.344 1.35 0 .745-.601 1.349-1.344 1.349a1.346 1.346 0 0 1-1.344-1.35c0-.746.601-1.35 1.344-1.35zm-4.35.574c.743 0 1.344.604 1.344 1.35 0 .745-.601 1.349-1.344 1.349a1.346 1.346 0 0 1-1.344-1.35c0-.745.601-1.349 1.344-1.349zm-4.803 3.076l2.43-.12c-.304.875-.467 1.78-.64 2.689l1.979 1.46-8.564 1.462 3.69-7.619zm-5.842 22.22l-14.422-18.697 1.74-1.412 14.538 18.493zm-1.762-18.165c.743 0 1.344.604 1.344 1.35 0 .745-.601 1.349-1.344 1.349a1.346 1.346 0 0 1-1.344-1.35c0-.745.601-1.35 1.344-1.35zm30.292 2.094c1.169.913 0 2.192-1.118 1.688-.97-.411-.896-1.398-.132-1.794.476-.227.84-.17 1.25.106zm1.556.87c1.2.02 2.524 2.874 2.28 3.713-.356.976-.685 1.01-2.377-.426-1.672-1.42-1.696-1.48-1.02-2.248.375-.436.555-1.012 1.117-1.039zm-28.526.521c.743 0 1.343.604 1.344 1.35a1.35 1.35 0 0 1-1.344 1.354 1.35 1.35 0 0 1-1.344-1.354c0-.746.6-1.35 1.344-1.35zm-4.168.52c.743 0 1.344.603 1.344 1.349s-.601 1.35-1.344 1.35a1.346 1.346 0 0 1-1.344-1.35c0-.746.601-1.35 1.344-1.35zm29.523.962c1.327.197 1.674 1.203 1.064 1.952-.83 1.012-2.69.092-2.248-1.112.2-.547.684-.83 1.184-.84zm2.38 1.52c.52-.045 1.301.676 2.158 1.871.962 1.344 1.04 1.777.767 2.597-.397 1.195-.646 1.414-1.51.25-.325-.44-1.081-1.469-1.621-2.036-1.152-1.212-1.332-.904-.645-1.829.319-.428.54-.827.85-.854zm-3.119 1.412c1.192.617 1.306 1.421.602 1.99-.828.455-2.29-.084-2.574-.908-.415-1.205.857-1.816 1.972-1.082zm2.02 1.779c.674-.043 1.229.655 2.053 1.992 1.404 2.275 1.48 3.042.284 4.542-.86 1.08-.948 1.137-1.79-.583-.69-1.406-1.998-3.052-3.211-4.039-.507-.412-.685-.99-.32-1.029.107-.011.556-.032.997-.048.648-.024.883-.112 1.238-.462.234-.23.485-.357.749-.373zm-4.839 1.775c.627-.03 1.437.311 2.04 1.015.684.721.603 1.382-.74 1.514-.604.238-2.249-.845-2.257-1.573-.007-.61.404-.929.957-.956zm3.164 2.64a.913.913 0 0 1 .096 0c.564.026.855.572 1.488 1.849.973 1.959.692 3.026-.989 3.893-1.14.588-2.01.764-2.157.092-.043-.196-.043-.76-.138-1.309-.125-.73-.292-1.49-.936-2.465-1.027-1.554-1.209-2.106-.082-1.648.597.242 1.246.214 1.93-.146.3-.159.557-.254.788-.267zm-5.701 3.15c-.391-.008-.642.232-.537.874.355.175.916.012 1.34.165.57.206.923 1.137 1.532.985.064-.785-1.475-2.005-2.335-2.024zm-116.366 13.66c-3.142-1.502-10.926-4.98-14.676-5.03-6.953-1.96-7.186-1.07-9.624-1.697 12.906-3.36 21.555 3.1 24.808 6.239 1.476 1.478.672 1.053-.508.489zm8.218 30.546c7.385 12.862 14.268 27.37 25.816 48.851l-1.11.348-44.037.08c2.18-23.733-10.592-46.344-11.457-45.457 9.976.184 18.257-1.747 20.005-5.438l-1.422-.409c-5.805 5.03-14.51 5.262-20.313 3.707.132-12.366-.383-25.426 0-37.788 6.86-.512 12.338 2.013 16.14 7.045 6.39 8.459 10.725 19.215 16.378 29.061zm-20.196-34.261c1.766-.136 11.406 3.846 15.718 6.82 1.198 1.244 2.947 3.405 2.95 3.616.006.575-.845-.134-5.01-2.52-3.152-1.78-6.422-3.2-9.606-4.564l-.437-.187s-.236-.273-.64-.587c-1.134-.881-3.337-2.444-2.975-2.578zm4.686 4.51c-.096-.019 9.56 3.492 17.243 9.635 1.022.817 2.275 3.864 2.275 3.864-.685-1.296-12.82-8.585-17.08-10.254-.006-.006-2.438-3.246-2.438-3.246zm3.404 4.66c.527-.316 14.648 8.052 16.717 10.212.938.72 3.135 4.219 3.143 4.922.007.627-.68.086-1.944-1.087-6.503-6.097-15.898-10.692-15.974-10.59zm2.62 4.863c6.631 2.817 14.96 9.59 19.164 13.62 1.052 1.045 1.802 2.559 1.944 3.263.088.436-.132.407-.218.64-5.448-6.277-17.42-13.443-19.009-14.004.012.397-1.317-2.434-1.88-3.519zm22.017 19.562c.763.781 1.972 3.52 1.702 3.854-.133.165-.12.078-.44-.145-1.744-1.741-10.698-9.718-18.17-14.192-.701-.353-3.054-4.077-2.555-4.149 3.905 1.28 15.076 10.233 19.463 14.632zm-16.158-8.902c.129.01.363.176.764.398 6.87 3.805 16.83 13.386 18.718 15.69.43.71 1.106 2.011 1.056 2.809-.086.627-.336.094-3.114-2.65-4.464-4.39-9.599-8.637-15.04-12.204-1.047-.722-.847-.814-1.606-2.14-.761-1.331-1.063-1.924-.778-1.903zm43.943.145c4.906.14 6.824 3.87 9.846 10.743 2.473 6.772 3.498 12.977 3.611 17.916.008.332-.592.05-.865-.024-1.314-.354-2.95-.685-4.845-.204-1.392.353-2.715.313-1.286-.626.461-.303 1.71-1.464 2.374-1.879 1.346-.84.528-.83-.807-.17-1.01.5-1.687 1.133-2.103 1.233-.258.062-.098-.788.15-1.398 1.426-3.522 1.858-5.608-.266-6.261-.575-.177-1.35-.712-1.717-1.068-.292-.285-.54-1.425-.633-1.471-.098-.049-.166 1.038-.164 1.204.006.566.73 1.713 1.6 2.34 1.478 1.063 1.77 1.358.967 3.878-1.125 3.53-1.365 4.394-1.571 5.213-.12.471-.349 1.272-.465 1.791-.446 2.001-.391 3.75-.309 5.413.486 3.715 4.475 5.548 9.83 3.485.507-.198.717-.02.717-.02-4.265 4.356-9.052 7.139-11.842 15.939-3.589-7.26-8.671-12.948-17.12-15.228l-.125-1.516c2.947 1.419 8.661 3.349 12.288 1.18 1.942-1.332 1.35-2.19-1.006-1.273-2.806 1.094-7.874.966-10.404-.466-.515-.29-1.04-.04-1.189.01-.132-.853-1.35-4.069-1.17-5.278-.105-.17.77-.177.938.048.7.938 4.255 3.732 7.948 3.514 1.836-.108 3.346-.668 4.942-2.358.133-.12.782-.204.87-.304.143-.16.04-.4.034-.486-.04-.128-.278-.48-.435-.878a1.575 1.575 0 0 1-.213-.988c.005-.233.158-.355.278-.517.138-.311.1-.707.023-.918a.563.563 0 0 1-.112-.83c.5-.567-4.3-4.966-5.24-4.956-.34.005-.14.632.55 1.093 2.44 1.627 4.219 3.751 3.815 4.029-.31.213-1.404-.255-2.516-.518-2.233-.526-4.913-.86-7.82 1.246-1.088.897-3.964 1.031-3.964 1.031-.036-1.572-6.655-19.132-6.668-18.369 2.408-2.818 9.974-9.492 17.556-12.368 2.332-.768 4.837-1.16 6.518-.934zm-28.744 3.93l13.762.214c-3.46 1.748-9.747 8.02-9.747 8.02-1.798-3.632-2.348-5.445-4.015-8.233zm-11.897 1.823c1.026.005 11.95 8.942 13.504 11.052.187.255 1.293 1.427 2.46 2.602 2.826 2.844 3.99 4.487 4.004 5.66.006.554-.499.194-1.253-.64-5.657-6.312-9.339-9.738-16.331-14.578-.794-.426-3.26-3.72-2.423-4.087.012-.004.023-.01.039-.01zm37.366 1.645c-.307-.01-.257.286-.09.559 1.734 1.538 6.31 1.47 7.889.227 1.431-1.128-.446-.533-1.03-.281-1.368.589-2.834.522-4.739.015-1.11-.297-1.723-.51-2.03-.52zm4.22 2.505c-1.6.015-3.273.497-2.9 1.087.136.216.573.62 1.62.049 1.51-.75 4.612.233 4.704.257.316.084-1.032-.892-1.485-1.092-.498-.22-1.211-.308-1.938-.301zm-38.564 1.67c5.87 3.606 13.021 10.821 17.313 15.975.715.887 1.23 1.979 1.238 2.62.01.926-.187.413-4.086-3.552-3.057-3.141-7.672-7.416-10.728-9.718-1.836-1.343-2.163-1.518-3.027-3.112-.81-1.495-1.103-2.236-.71-2.213zm36.573 1.203c-1.104.527-2.568.415-3.994-.077-1.29-.446-.988-.065-.498 1.35.223.642.361 1.554.363 1.688.004.315.003.337.914-.174.793-.446.96-.6 2.654-.204 1.72.402 1.749.253 2.557-.17.705-.369.851-.59 1.333-.395.944.382 2.012.544 3.221-.095.927-.49 1.23-.159 1.66.058.582.294.808.107.58-.476-.091-.232-.262-1.229-.267-1.543-.009-.598-.155-1.137-.406-1.01-.925.467-1.676.964-2.559.948-1.619-.03-3.038-1.006-5.558.1zm-71.788 1.23c14.631 18.3 12.296 44.683 11.808 44.47l-11.808.05zm38.32 3.699c5.844 4.114 12.8 11.286 16.655 16.245.655.857.122 1.127.45 2.16.12.384-.528-.182-2.384-2.184-2.313-2.495-6.117-6.245-8.62-8.422-2.744-2.385-3.536-2.985-4.12-3.79-.461-.675-2.34-3.915-1.98-4.01zm32.892 1.683c-.062-.002-.124.002-.184.005-2.08.098-3.136 2.438-1.354 4.092.67.621 1.735.99 1.731.655-.002-.08-.336-.416-.57-.597-1.485-1.146-1.333-2.933.357-2.951.586-.007.623.203 1.978 1.18 1.593 1.147 3.474 1.149 3.452-.006-.017-.848-.332-1.717-1.755-1.577-.374.037-.873.077-1.31-.034-.42-.107-.778-.363-.943-.437a3.587 3.587 0 0 0-1.402-.33zm-29.093 5.388c4.47 3.014 10.616 9.829 13.757 13.848.72.942.767 1.984.476 2.544-.069.11-.618-.233-.618-.233-3.632-4.293-7.75-8.196-11.792-12.16 0 0-2.402-3.877-1.823-4zm43.345 6.519l-.966.482c-1.464-2.203-2.803-2.233-3.924.34l-.719-.181c-.536-.593 1.927-6.19 5.609-.641zm-.217-1.879c.403.015 1.108.233 1.272.646.183.38-.023.81-.576.791-.084-.003-.618-.661-.884-1.064-.197-.246-.112-.38.188-.373zm-16.42 2.695l-1.082.05c-2.059-2.716-3.598-.893-4.521.24l-1.158-.157c.185-2.984 5.437-4.023 6.76-.133zm10.517-2.32c.163.004.323.035.474.093-.426.649-.499 1.19-.595 1.777-.42.174-1.02.539-1.465.072-.829-.755.446-1.963 1.586-1.941zm-16.887.305c.51.002.357-.032.135.254-.223.29-.529.806-.693 1.268-.069.32-.122.437-.422.447-.571.018-1.729-.186-1.72-.178-.44-.417 1.38-1.746 2.7-1.791zm6.54.38c.34-.042.26.448.15.64-.214.255-.3.338-.42.02a1.354 1.354 0 0 0-.221-.366c-.169-.217-.15-.228.059-.265.093-.016.312-.027.431-.029zm17.667 2.168c1.259-.033.417 2.112-1.335 2.631-1.934.985-4.153.749-6.41-.543-1.289-.737-1.679-1.514-.557-1.204 4.228 1.169 5.256.952 7.806-.704.151-.13.313-.161.496-.18zm-40.677-.464c4.209 3.58 7.377 7.635 10.743 11.372.67.832.985 1.635.855 2.18-.16.676-1.542-.938-1.542-.938.035.015-8.216-8.826-8.216-8.826s-2.094-3.77-1.84-3.788zm12.578 1.236c.292.01.872.146 1.808.389 4.049 1.232 5.274 1.186 7.6.114 1.484-.684 2.097-.586 1.462.442-1.168 1.892-5.294 2.101-8.39 1.045-.82-.28-1.54-.77-2.33-1.364-.424-.442-.526-.638-.15-.626zm18.671 1.254c.243-.016.694.263 1.244.576 3.392 1.931 5.896 1.577 7.985.282.378-.346.583-.18.634.155.178 1.176.23 2.021-.305 2.587-.311.33-.84.478-1.639.748-3.284 1.109-7.28.316-8.046-2.157-.249-1.271-.406-2.157.127-2.191zm-26.913 5.304a.134.134 0 0 1 .04 0c.237.036.784.517 1.648 1.5 4.514 5.141 7.012 8.095 6.556 9.582-.042 0-.07.32-.261.155-2.483-2.152-4.51-4.505-6.02-6.965-1.654-2.696-2.334-4.24-1.963-4.272zm36.394 3.617c-3.81 2.925-8.43 9.885-8.845 13.314-.08.655-.01 1.147-.251 1.384-.192.188-.623.206-1.2.092-.353-.065-.268-.104-.352-.505-.328-1.569 1.17-5.519 4.269-10.174 1.626-2.443 5.32-5.74 6.351-5.763.688.285.02 1.684.028 1.652zm-28.208-1.588c.269-.008.685.133 1.266.384 3.42 1.472 4.696 2.008 6.91 3.82 4.124 3.376 8.709 11.395 7.363 12.145-.591.33-1.01.122-1.25-.623a18.609 18.609 0 0 0-.994-2.212c-2.764-5.101-6.36-8.61-11.429-11.092-1.872-.916-2.063-.815-2.205-1.582-.107-.576-.007-.83.339-.84zm28.153 2.947c.342-.03.425.599.308 1.862-.094 1.03-.156 1.008-1.3 2.215-1.827 1.486-3.988 4.975-4.989 8.529a.855.855 0 0 1-.266.543c-.47.406-1.064.208-1.47.2-.291-.156-.211-.8-.16-1.16.837-3.227 2.895-7.19 6.122-10.67.907-.979 1.452-1.494 1.755-1.52zm-27.443.092c1.811-.042 8.246 4.784 10.85 9.01 1.702 2.76 2.161 3.893 1.77 4.295-.208.213-1.123.247-1.601.058-.435-.171-.602-.836-1.417-2.373-2.126-4.01-5.188-6.917-8.504-8.451-.617-.286-.947-.467-1.147-.689-.222-.46-.507-1.754.05-1.85zm.977 3.587c.562.106 2.118 1.12 3.418 2.078 2.3 1.694 5.8 6.874 5.077 7.616-.232.238-1.036.247-1.449.084-2.462-4.4-5.658-6.495-6.956-7.718-.394-.664-1.314-2.23-.09-2.06zm-5.115.777c.106-.027.538.398 1.32 1.223 2.31 2.436 3.776 5.136 3.437 6.5-.287 1.153-.623.522-3.268-4.544-1.113-2.132-1.645-3.14-1.49-3.18zm31.615.068c.052 1.401-.06 1.746-.208 2.49-.1.506-.434.742-.75 1.136-.785.982-1.678 2.681-2.127 4.053-.378 1.107-.2 1.372-1.557 1.223-.632-.083-.48-.254-.232-.985.855-2.4 2.905-6.29 4.874-7.917zm-26.265 2.64c.029-.718 6.2 5.518 5.353 6.22-.803.141-1.282.17-1.618-.117-.66-1.483-3.598-4.297-3.598-4.297zm25.921 1.966a.083.083 0 0 1 .039 0c.276.057.123 3.892-.106 4.209-.44.222-1.272.242-1.717 0-.271-.148-.354-.422-.251-.719.256-.742 1.593-3.398 2.035-3.49zm-23.292 4.218c-.195.305-1.395.359-1.849.015-.145-.11-.286-2.013-.117-2.357.46-.302 2.118 1.932 1.966 2.342z" fill="#131f67"/><path d="M3508.704-1064.07l.773 1.02-4.52.024c.74.627 17.488 34.467 38.906 73.564 3.545 6.862 10.307 9.335 18.159 9.635l-20.8-33.629c2.216-1.212 6.615-4.455 9.275-3.852.165.82.954.493.966-.235l.962.02.338.528h4.042l.33-.479 3.485.504c-9.311-11.523-14.223-29.28-12.629-46.615l-30.88.068-.41-.543zm-3.747 1.044c-.017-.015-.03-.022-.03 0zm-35.502 22.557c-3.51 11.383-12.193 20.748-17.347 30.178-5.527 10.29-6.825 19.244-5.27 29.037l1.01.088c11.782-16.135 20.905-35.412 26.011-54.37.112-.412-.08-1.142.015-1.56-.218-.5-.027-1.043.111-1.189.297-.313.187-1.544-.034-3.577-.556-6.041-.446-10.783.056-16.259.387-4.204.366-4.865.366-4.865l-2.017-.03c.372 7.155-.57 15.972-2.9 22.547zm48.498-22.062l3.314.068c.51 10.169 9.04 11.491 10.36 11.343-2.178 6.876 1.427 14.422 10.109 15.493-1.991 6.375 1.534 14.779 8.48 14.55l.734.466c-.448.918-.543 2.806-.517 2.835-1.544.113-2.381.34-3.384.539-8.977-13.59-29.096-45.294-29.096-45.294zm29.453 0c-1.003 11.359 1.266 26.96 6.58 36.178 0 0-.169.618-.28.786-.506.766-.757.103-1.063-.515-1.132-2.099-3.27-2.425-4.207-1.257-2.068 2.83.174 3.947 1.915 5.545-7.114-.437-9.485-8.297-7.84-12.185-.037.742.359 1.86.88 2.655 1.999 3.044 4.919.476 4.082-1.933-.346-.996-1.621-2.658-1.621-2.658s1.732-.256 2.44-.686c.66-.412 1.078-1.142.908-2.14-.136-.801-.171-1.152-.6-1.874-.524-.658-1.464-1.112-2.217-1.062-1.468.098-1.647 1.112-2.608 1.807-.239-1.827-1.404-3.217-3.307-2.871-1.448.262-2.49 1.808-1.604 3.743.448.988 1.077 1.288 1.71 2.145-10.22-1.15-9.107-13.335-7.976-13.117 0 0 .308-.057.217.409-.582 2.982 3.106 4.764 4.724 2.597 1.03-1.758-1.184-4.532-1.184-4.532s1.475-.318 2.144-.706c2.67-1.545-.175-5.985-2.659-4.895-.871.399-1.093 1.21-1.944 1.642-.568-.635-.603-1.33-1.624-1.901-2.803-1.567-4.555 2.14-3.004 3.771.637.66 1.76 1.263 1.54 1.344-8.69-1.102-8.606-10.233-8.407-10.169zm-74.694.076h1.196c-.354 5.417-1.12 12.563-.619 17.845.585 5.046.611 5.762.251 6.262-.494.556-.232.819-.135 1.272.13.829.142.838.024 1.31a110.576 110.576 0 0 1-4.11 13.063c-5.591 15.48-14.714 32.358-21.87 41.21-.004-.031-.327.029-.331-.003-1.958-12.351 2.225-22.647 4.41-26.873 4.428-8.567 11.383-15.88 15.513-24.855 3.515-7.637 6.108-16.816 5.67-29.23zm44.022-.052l29.145 45.503-5.319 2.616-29.826-47.954zm17.082 8.888c.754 0 1.363.616 1.363 1.374 0 .757-.609 1.373-1.363 1.373a1.372 1.372 0 0 1-1.368-1.373c0-.758.613-1.374 1.368-1.374zm9.665 15.174c.763 0 1.382.622 1.382 1.388 0 .767-.619 1.389-1.382 1.389a1.386 1.386 0 0 1-1.383-1.389c0-.766.62-1.388 1.383-1.388zm-69.442 2.71c.498 1.983-9.25 31.743-23.101 50.68l6.048.127.187.67c8.473 12.56 3.174 23.672-3.668 28.833l2.369 3.17-2.132 1.733-2.132-2.549c-17.34 13.06-51.177 41.964-51.177 41.964l.189 4.636 2.64-2.087c17.164 16.68 53.559 15.768 63.104-18.664l2.557.058c-5.773 25.237-29.264 35.115-46.994 30.93l-4.153 5.99 1.112.597c-.205-.319-.393-.43-.092-.723l3.53-4.558c26.526 3.411 42.542-11.662 47.738-32.08l3.385.057c-2.904 17.152-10.912 32.253-22.332 44.071-8.242-.034-22.734-.223-22.734-.223 5.277 5.133 15.355 20.798 15.757 22.387 0 0 10.366.331 21.486.058 4.076-1.841 9.53-2.58 12.077-1.29 4.476 2.264 8.683 10.667 10.574 24.148.487 3.474.929 4.945 1.064 5.646.024.126.327.217.372.194.17-.09-.272.614-.29 1.136-.019.522-.002 1.309.246 1.582.314.346.276.575.232.724-.028.097-.633.66-.633.66-.09 7.854-.046 14.984-.474 24.644l1.538.01c-.012-15.544 4.66-29.928 11.86-39.828 4.376-6.498 9.008-13.501 11.57-20.17 2.882-7.505 3.28-15.392 1.735-22.047l-1.054.059c-6.332-4.358-8.912-13.66-1.112-20.305l-2.76-3.607c-7.79 6.046-9.579 17.2-1.51 26.43l-3.156-.009c-7.874-9.865-6.13-21.194 2.968-29.28l-2.035-2.597 2.212-1.957 1.997 2.193 50.792-42.608-.037-4.662-3.892 3.17c-22.784-21.148-56.57-6.309-61.524 19.164l-3.097.033c6.493-27.412 30.419-35.159 47.726-31.513l4.272-6.487c-3.142-.887-6.207-2.98-9.1-5.455-1.218-1.042-1.988-1.68-2.874-2.724-8.197-8.698-13.761-20.776-14.022-20.796l-22.29-.055c-3.27 1.623-8.87 3.47-11.943.978-6.598-5.35-8.812-16.141-9.72-23.086-.274-2.161-.507-5.922-.71-7.17-.125-.228-.369-.241-.589-.202zm79.024 12.003c.746 0 1.35.61 1.35 1.359a1.35 1.35 0 0 1-1.35 1.354 1.35 1.35 0 0 1-1.349-1.354c0-.749.603-1.36 1.35-1.36zm2.901 1.597c1.099 1.43 2.075 2.903 2.62 4.46-.512-.015-.993.145-1.563-.302-.132-1.573-.777-2.518-1.589-3.566zm-4.076 2.005c.451.221.808 1.93.493 2.223-.542.116-.912.077-1.095-.113-.272-.45.243-2.023.602-2.11zm-88.646 14.844l20.693.024c3.6 2.77 7.12 2.404 12.227.182h23.01l1.3 2.371h-58.351c.325-.88 1.121-2.577 1.121-2.577zm-1.706 3.703h59.55l1.503 2.432h-62.528zm5.748 3.534h6.682l-2.476 4.218h-6.894zm14.833 0h6.377l-2.838 4.213h-6.319zm20.626 0l-2.684 4.213h-6.483l2.785-4.174zm7.996 0h6.387l-2.388 4.213h-6.614zm-85.787.655c-4.14-.047-3.373 5.467-2.983 5.294-2.6-.597-4.52.642-4.84 2.866-.254 1.765 1.463 4.28 4.466 3.929-.399.462.009 3.13.408 3.373 0 0 .051.387-1.534 3.707-1.882 3.941-2.266 4.128-3.119 1.54-.917-2.785-2.335-4.196-6.029-5.996-.984-.48-2.376-1.316-3.094-1.859-1.65-1.247-1.668-1.228-1.59 1.306.1 3.29 1.094 4.732 4.592 6.674 1.713.95 4.99 2.293 5.585 2.287.417-.005 1.951.686 4.225 1.902.445.238 1.965 1.078 3.912 1.267 2.066.147 6.72-.343 9.418-1.907 1.514-.878 2.098-1.664 3.215-3.908 0 0-3.823.199-5.57-.262-3.63-.214-5.433-.003-8.185 1.432-2.302 1.2-2.431 1.415-1.47-.568.44-.91.849-1.982 1.219-3.048.4-1.061.506-1.15 1.513-1.253 2.208-.226 3.465-1.505 3.67-3.723a6.1 6.1 0 0 0-.034-1.222c1.503.223 4.58-.525 4.483-3.651-.086-2.811-2.082-3.457-4.539-3.65.316-1.44-.731-4.495-3.719-4.53zm.05.872c3.628.026 3.544 3.37 1.963 5.267l-1.93-1.595-1.557 1.443c-1.694-1.087-1.687-5.137 1.524-5.115zm99.275.04l1.784 2.646h-3.684zm-67.74 3.802h6.831l-2.741 3.868h-6.46s1.446-2.47 2.37-3.868zm21.534 0l-2.582 4.019h-5.971l2.393-3.937zm8.001 0h6.174l-2.441 4.286h-6.102zm14.529 0h6.251l-2.543 4.286h-6.164zm14.16 0h6.44l-2.658 4.286h-6.208zm-89.67.796l3.07 3.106-2.993 3.01-3.084-2.961zm7.784 3.026c-.544 3.609-4.007 3.412-4.991 1.648l1.411-1.617-1.73-1.705c1.68-2.706 5.721-1.052 5.31 1.674zm-10.308-1.727l-1.66 1.877 1.821 1.757c-1.173 1.637-5.682 1.507-4.778-2.432.574-2.501 3.109-2.96 4.617-1.202zm105.23-.46l1.9 2.622-3.564.029zm-74.099 3.219l76.395.247 2.045 2.51c-26.673.461-52.791-.43-80.04-.451zm-26.859 1.63c3.028 1.865.792 5.793-2.457 5.125-2.422-1.067-2.918-3.589-.739-5.053l1.707 1.413zm26.197 1.506l-2.084.01-2.03 2.383c7.675 8.118 7.393 15.16.241 21.3l2.877 3.232c8.023-6.89 9.8-17.717.996-26.925zm7.886.31c4.302 6.75 8.024 19.535-4.797 31.246l-1.547-1.883c11.162-10.945 8.54-20.149 3.54-29.28zm1.194.165l17.347.068c-3.714 14.21-6.32 22.576-6.71 44.804l-5.014.029c.545-.512-2.596-13.421-6.261-17.897 7.686-13.103 3.544-20.493.638-27.004zm-54.566.02c.3-.003.914.387 2.118 1.111 1.08.65 2.483 1.473 3.118 1.83 2.383 1.341 3.567 2.607 4.245 4.539.508 1.446.192 1.474-1.266.112-1.085-1.014-2.24-1.887-5.13-3.874-1.018-.7-1.34-.585-.75.267.426.614 1.342 1.312 3.196 2.446 1.345.823 3.197 2.471 3.051 2.714-.133.22-.362.202-1.01-.083-.3-.13-1.268-.53-2.147-.888-3.778-1.54-5.392-3.43-5.618-6.572-.079-1.095-.146-1.6.193-1.602zm79.165.068s.523.692.59.98c.145.624-.464 1.196-2.384 2.054-.658.294-1.206.453-1.189.84.088.905 1.817 2.289 1.605 3.523-.397.945-2.798 1.872-3.399 2.986.005.766 1.562 1.938 1.34 2.98-.122.31-.625.628-1.369 1.277-1.523 1.327-1.617 1.53-1.058 2.563 1.298 2.4 1.346 2.222-.426 3.927-1.785 1.717-1.752 1.696-.9 3.189.92 1.61.878 1.537-.357 2.568-1.21 1.01-1.16 1.216-.512 2.47.627 1.214.77 1.231-.286 2.17-1.233 1.097-1.464 1.212-.594 2.592.899 1.428.965 1.367-.049 2.534-.96 1.106-1.072 1.156-.55 1.908.653.944.777 1.194.091 2.233-.74 1.122-.738 1.042-.058 2.087.572.88.474 1.86.474 1.86l-2.147-.006s-.015-1.238-.266-1.694c-.608-1.104-.592-1.447.13-2.427.743-1.005.62-1.091-.072-2.097-.699-1.017-.598-1.007.31-2.165.833-1.062.875-1.563.401-2.17-1.123-1.438-1.12-2.043.01-2.995.861-.725.942-1.048.198-2.29-.728-1.216-.82-1.328.517-2.54 1.366-1.238 1.352-1.212.435-2.616-.889-1.361-.841-1.452.585-2.781 1.444-1.345 1.463-1.348.518-3.044-.885-1.587-.892-1.56.836-3.106 1.72-1.44 2.307-1.623.59-3.69-.957-1.638-.276-1.8 1.296-2.616 2.755-1.69 1.5-1.585.343-4.092-.968-1.68-.415-1.693 1.271-2.534.419-.18.883-.389 1.359-.655 1.128-.632.517-1.209.517-1.209zm3.602.039l8.282.106c-9.6 12.307-14.219 28.048-15.877 44.653l-3.128-.048c-.196-12.968 3.867-29.17 10.723-44.711zm42.526.288c4.737 4.003 8.247 6.295 10.744 7.198 0 0-3.34 5.566-3.597 5.362-19.214-3.716-42.063 7.532-47.231 31.78l-3.027.02c1.118-9.515 3.612-17.462 8.205-25.751 4.557-8.05 8.755-12.753 15.086-18.68zm-33.055-.206l4.081.073s.766.924 1.112 1.257c1.761 2.006 1.913 1.606-1.968 3.806-2.45 1.389-3.536 2.034-3.679 2.616-.11.586 1.07 1.75 1.209 2.534.001.088-3.332 2.328-3.936 2.645-.84.41-.883.762-.048 2.219.96 1.674.882 1.616-1.19 3.068-2.02 1.416-2.417 1.275-1.556 2.684 1.195 1.956.633 2.397-2.18 3.922-.711.385-.73.771-.233 2.107.69 1.856.869 1.67-.585 2.674-1.717 1.187-2.02 1.22-1.639 1.947 1.106 2.112 1.544 2.626.068 3.315-1.126.526-1.15.824-.527 2.219.626 1.401.788 1.345-.324 2.135-1.03.733-1.636.57-.633 1.767.793.947.722 1.695.077 2.277-.556.236-.815 1.297-.653 1.32l-1.43.04c-1.122-1.518.2-2.386.4-2.535.182-.35-.04-.596-.493-1.417-.622-1.131-.6-1.266.295-1.927.905-.668.932-.495.329-1.971-.702-1.717-.669-1.913.435-2.709 1.087-.783 1.1-.957.363-2.46-.78-1.587-.78-1.588 1.15-2.874 1.358-.905 1.377-.851.658-2.53-.497-1.158-.146-1.56 1.702-2.83 1.055-.725 1.135-.868.638-1.732-1.37-2.382-1.355-2.455 1.006-3.99 1.93-1.257 1.914-1.365 1.17-3.039-.807-1.813-.88-1.673 1.77-3.267 2.18-1.312 2.298-1.236 1.401-2.815-1.116-1.965-1.045-1.643 3.317-4.146 1.572-1.081 2.991-.707 1.426-2.548-.689-.883-1.533-1.835-1.533-1.835zm-77.028 3.233c.303-.011.538.362.523 1.053-.054.974-.513 1.94-.953 2.908-.922 1.972-1.841 3.431-2.325 3.437-1.14.012-1.11-.244.406-3.219.692-1.358 1.405-2.908 1.518-3.208.244-.65.565-.962.831-.971zm14.021 4.466c.021 4.175-13.023 6.28-13.7 4.171 2.274-1.787 8.997-.993 10.42-2.592-1.717-.1-4.043.184-5.637.213-1.988.036-5.2.889-5.232 1.241-.208-1.098 3.414-3.161 6.283-3.29 2.683-.118 5.596.202 7.866.257zm1.117 6.373s-25.434 21.13-38.006 31.353l.077 4.558 40.235-33.071zm-.082 1.044l1.625 1.98-37.77 30.897-.135-3.238zm119.384 10.84l-1.357 1.456c-36.89-27.558-70.86 14.284-52.129 44.216-.17.385-1.472 1.34-1.472 1.34-20.877-34.747 19.07-75.407 54.958-47.011zm-20.3-6.035c2.095.017 5.949 1.46 7.577 3.427 1.895 2.291 1.344 3.312-1.064 1.15-2.588-1.887-4.725-2.325-1.131-.096.792.491 1.505 1.452 1.542 1.558.131.383-.532-.019-3.544-1.121-1.791-.656-4.061-2.429-4.651-3.636-.442-.903.175-1.29 1.271-1.282zm-7.764.063c.653-.005 1.235.046 1.648.166 2.639.76 3.47 1.159 4.453 1.927.673.525.458.904-.324.568-.91-.392-3.792-1.253-4.307-1.2-.75.078.002.57 1.078.84 2.385.6 3.568 1.217 1.866 1.243-.888.132-4.773.145-5.83.02-1.769-.21-4.415-1.828-3.806-2.408.658-.626 3.262-1.14 5.222-1.156zm-7.567 2.49c3.13.038 4.822 1.21 1.402 1.447-5.879.935-7.008 2.218-.493.69 1.516-.356 1.488.193.44.708-.857.418-1.927.624-2.819 1.058-1.607.672-5.288.82-6.725.272-2.12-.809 4.534-4.218 8.195-4.174zm25.175.535c1.58.04 4.953 2.342 6.455 4.5.98 1.41.492 2.423-.992 1.29-.296-.226-2.427-2.044-2.543-2.087-.199-.073 1.768 1.802 2.055 2.33.247.448.814 1.474-.247 1.495-1.657-.205-5.55-4.571-5.574-6.727-.006-.577.32-.815.846-.801zm-19.615 1.228c.659-.022.323.33-.928 1.213-2.257 1.595-1.08 1.276 1.557-.087.801-.414 1.768-.738 2.108-.801.34-.063.744-.156.9-.204.708-.218.161.66-.992 1.587-2.427 1.953-5.167 3.486-7.059 3.956-2.411.6-2.922.676-2.03-.834 1.416-2.401 3.478-4.321 5.448-4.694.443-.084.777-.13.996-.136zm8.113.039c1.004-.02 2.246.188 4.202.611 1.374.43 1.014.523-.634.704-3.1.34-1.81.703 1.204.65 4.11-.03-2.06 1.488-4.061 1.792-1.561.07-2.02.014-5.425-.627-1.297-.244-.52-1.198 1.939-2.378 1.005-.482 1.77-.732 2.775-.752zm25.407.558l.111 2.66-49.774 41.784-1.692-1.878zm-16.936 2.286c1.984-.026 4.852 1.356 4.544 2.19-.115.31-.336.297-1.851-.108-.995-.265-2.775-.546-2.539-.325.082.077 1.472.61 2.002.738 1.753.423 3.853 1.418 3.39 1.714-.813.496-1.557.108-2.52.004-2.406-.335-6.36-1.555-7.01-2.164-.738-.692 1.848-2.02 3.984-2.049zm-23.217.155c.358.02.492.354.15.811-.519.687-.757 1.263-1.223 2.107-1.664 2.58-2.713 3.601-4.313 4.601-1.6 1-1.828.829-1.687-1.252.18-2.16 1.72-4.432 3.896-5.5 1.005-.143 1.582-.408.527.86-1.87 2.249-.59 2.02 1.156-.534.555-.812 1.136-1.112 1.494-1.093zm-6.464.301c1.079-.005 1.44.378.058 1.03-1.317.62-3.934 2.458-3.999 2.66-.108.342.872-.195 2.5-1.088 2.177-1.193 2.368-1.165 1.315.2-1.19 1.542-4.053 3.473-6.3 4.188-3.143.865-3.067.26-1.31-2.082 1.675-2.547 3.097-3.761 5.241-4.456.94-.305 1.848-.448 2.495-.452zm-53.318.389c11.406 19.749 5.074 39.815-8.16 50.048-13.834 10.7-35.358 10.064-48.06-2.776l1.763-1.67c-.01.008 20.022 20.489 45.25 2.31 12.803-9.227 18.09-31.015 7.529-46.204zm-51.095.043a.161.161 0 0 0-.087.02c-.384.25-1.831 4.516-2.122 6.286-.085.518.04 1.026.464 1.442.298.292.78.102.928.043.965-.438 1.497-1.11 2.34-3.237.566-1.165.644-2.558.532-3.044-.045-.197-.357-.656-.75-.917-.433-.29-1.045-.594-1.305-.593zm.223.889c.456-.005 1.359.74 1.47 1.271.008.926-.52 2.467-.914 2.238-.659-.822-1.417-.303-1.542-.602-.085-.91.498-2.104.899-2.898a.346.346 0 0 1 .087-.01zm123.19.738c5.072 0 10.116 1.492 13.818 4.786l-1.977 1.82c-8.685-6.216-18.796-4.397-24.788-.204-5.932 4.151-11.182 13.34-6.039 26.28l-1.856 1.69c-5.763-10.41-2.67-24.166 7.528-30.674 3.595-2.294 8.202-3.608 12.821-3.694.164-.003.33-.005.494-.004zm-75.002 1.519c.154 0 .388.506.363 1.126-.03.745-.344 1.716-.846 1.922-.566.232-.924-1.46-.924-1.46a6.534 6.534 0 0 1 1.407-1.588zm90.808.582c.206-.01.407-.002.58.02.566.07.571.58.038 1.068-.575.527-.875.555-1.455.13-.518-.378-.545-.657-.097-.98.235-.15.59-.22.934-.238zm-97.412.117l1.683 2.082-5.831 4.709-.696.053-44.635 37.11-.01-3.296zm93.26 5.024l-6.078 5.036c-12.15-6.338-21.894 4.956-18.457 15.215l-5.257 4.58c-9.403-25.908 18.097-34.773 29.792-24.83zm-31.829-3.956a.128.128 0 0 1 .053 0c.04.009.082.039.121.077.213.21-.21 3.644-.527 4.282-.115.232-.205.53-.203.665.003.282-1.12 2.639-1.997 4.194-.33.586-.684 1.355-.783 1.713-.705 3.402-2.224-2.068-1.687-5.242.252-1.492 2.361-4.573 2.973-4.345.312.117.29.352-.256 1.544-1.524 3.327-1.906 5.042-.305 1.825 1.845-3.707 2.325-4.66 2.611-4.713zm-103.267.068c.226.013.406.138.503.403.068.225.14.693.015.922-.312.704-.957 1.168-1.61 1.126-.287-.018-.6-.272-.638-.582a1.42 1.42 0 0 1 .386-1.122c.465-.477.968-.769 1.345-.747zm46.28.213c.72.036 1.478 1.98.995 2.87-.395.726-.468.59-1.16-.816a16.098 16.098 0 0 1-.643-1.534l.59-.466a.431.431 0 0 1 .15-.049c.023-.003.044-.006.067-.005zm-1.214.82s.757 1.378.942 2.476c.113.67.095.545-.638.267-.577-.362-.704-.572-1.063-1.024-.237-.419-.474-.728-.474-.728zm4.554.297c.383-.013.794.375 1.17 1.325 1.413 3.568 1.283 7.57-.305 9.46-.263.314-.327.327-.643.132-.257-.16-.283-1.855-.033-2.335.078-.15.31-1.174.328-1.753.042-1.37-.333-1.542-.512-.271-.207 1.468-.433 2.494-.832 1.611-.2-.448-.302-.896-.454-1.373-.795-3.085.132-6.757 1.281-6.796zm-6.155.912s1.36 1.763 1.92 2.393c.197.341.19.428-.126.549-.538.207-2.337-.997-3.05-1.369-.385-.308-.218-.544-.218-.544.491-.371.983-.737 1.474-1.029zm53.628.063c.725-.008.726.246-.048 1.364-4.325 6.247-3.452 5.319-.701 1.903 1.529-1.9 1.795-2.08 1.962-1.655.126.318-1.693 4.015-2.635 5.354-.486.692-2.147 1.85-2.987 2.277-2.057 1.045-1.83.625-1.069-1.966.97-4.02 3.405-7.253 5.478-7.277zm-56.166 2.16c11.855 29.599-20.608 42.59-35.255 28.902l1.706-1.364c20.376 13.875 40.486-8.353 31.282-25.746 0 0 .834-.697 2.267-1.791zm2.746.719c1.952.2 4.835 3.785 4.98 5.781.308 1.418-.09 1.662-.783.665-1.17-2.168-1.029-.794-.034 1.36.528 1.087.65 2.39.102 2.46-.751-.152-2.376-2.753-2.872-3.825-1.184-2.349-1.27-1.95-1.92-5.431-.121-.653.048-1.005.527-1.01zm-5.898.97c9.03 17.388-10.396 38.28-30.155 24.776l5.923-4.718c10.312 4.966 21.817-1.193 18.522-15.47zm90.087 3.243l-16.29 13.628c-3.353-11.296 8.957-17.749 16.29-13.628zm-30.257-.029c.533-.111.985 3.31 1.083 8.111.097 4.697.217 5.161-1.237 3.432-.61-.704-1.36-1.377-1.692-2.01-.966-1.832-.659-3.753-.392-6.436.249-2.503 1.14-2.112.996.51-.094 1.687-.076 3.784.188 3.781.096 0 .123-.163.063-.393-.125-.48.45-5.917.687-6.558.102-.277.206-.416.304-.437zm-44.896 2.068c1.177.462 1.512 4.405.237 8.218-.547 1.638-1.39 2.708-2.644 3.369-.896.471-1.105.322-.701-.5.743-1.34 1.14-2.728 1.44-4.456.12-1.687-.765-.333-.69.388-.695 3.147-1.608 3.62-1.49.306.087-2.443.406-3.49 1.552-5.17.576-.84 1.193-1.998 2.296-2.155zm40.86.398c.483.004.602.656.169 1.927-.3.88-1.324 3.733-1.204 3.723.075-.006 1.173-2.571 1.397-2.99.368-.687.504-.817.827-.786.315 1.267-.01 2.848-.165 4.16-.665 3.418-2.984 6.948-3.872 5.898-1.448-1.712-.77-8.645 1.15-10.752.723-.794 1.32-1.183 1.697-1.18zm-62.046.524c1.75 12.091-8.187 17.253-16.772 13.606.182-.045 16.772-13.606 16.772-13.606zm40.622.224l1.731 2.281 3.172.165-1.625 2.403 1.615 3.077-3.539.068-2.035 2.35-1.77-2.121-3.094-.166 1.803-2.888-1.455-2.762 3.34-.16zm-26.615 1.038c.398.014 2.354 2.596 2.548 3.549.59 2.308.372 6.674-.455 6.524-.897-3.145-.548-4.769-.87-4.408-.557.579.346 5.4.048 6.587-.141.303-.621-.062-1.16-.84-1.439-2.077-1.245-10.204-.145-11.402a.068.068 0 0 1 .034-.01zm105.915 4.9l-39.142 32.555 2.258 2.917 36.956-30.632zm-56.533.561c.172-.035.562.24 1.296 1.049 1.281 1.736 2.639 4.121 3.133 5.956.188.713.49 1.66.672 2.102.275.664.298.847.136 1.048-.678.839-3.514-1.273-4.43-3.296-1.284-2.84-1.316-5.4-.028-2.907.468.906 1.05 2.228 1.044 1.703-.002-.15-.57-2.053-1.005-2.902-.27-.535-1.255-2.663-.818-2.753zm56.118.792l.082 2.694-36.454 30.61-1.431-1.748s34.336-28.672 37.803-31.556zm-56.915 1.664c.171.018.259.264.208.811-.167 1.78-.604 5.654-.513 5.995.055.205.577-2.566.696-3.058.623-2.568 1.575 3.57 1.001 6.32-.09.432-.273 1.13-.367 1.558-.095.428-.4 1.16-.522 1.354-1.033 1.631-3.46-4.861-3.051-8.17.254-2.059 1.936-4.871 2.548-4.81zm-42.174 1.423c.477-.026.568.444.488 1.432-.276 3.386-2.518 6.942-4.975 7.888-2.447.941-2.674.752-1.223-1.005 1.1-1.333 1.766-2.731 1.58-2.913-.101-.1-.346.46-1.237 1.607-1.117 1.439-1.301.22-.285-1.893.877-1.826 1.697-2.781 3.346-3.898 1.163-.788 1.885-1.196 2.306-1.218zm22.167 1.029c-.493 14.582-4.114 30.424-11.105 44.197l-6.532.014c7.998-11.828 13.103-26.473 14.524-44.148zm2.872.014s.98 1.02 1.378 1.709c.44.759.562 1.422-.237 1.99-.927.787-1.313.495.198 2.447.797 1.028.538 1.196-.45 2.063-1.019.894-1.077.942-.13 2.15 1.014 1.293 1.197 1.492-.125 2.49-1.192.9-1.206 1.11-.276 2.573.857 1.347 1.116 1.333-.527 2.728-1.404 1.191-1.437.861-.082 3.053.498.807.463.859-.45 1.67-2.244 1.993-2.127 1.869-1.808 2.393 2.46 3.538 1.347 3.437-1.059 5.126-.485.417-.36.887.725 2.655.923 1.503.789 1.828-1.373 3.32-2.25 1.555-2.324 1.764-1.199 3.35 1.109 1.562 1.133 1.455-.667 3.068-.813.727-1.48 1.398-1.48 1.398h-3.988s.842-.772 1.416-1.2c3.276-2.434 3.263-2.176 1.881-3.931-1.223-1.553-1.104-1.656.136-2.544.89-.639 2.091-1.297 2.992-1.951.486-.347.127-.636-.681-2.17-.906-1.72-.955-1.52.73-2.912 1.844-1.524 1.875-1.468.875-3.398-1.003-1.936-1.02-1.768.246-2.806 1.883-1.543 1.972-1.46.982-3.247-.79-1.426-.798-1.385.536-2.724 1.346-1.349 1.179-1.264.382-2.5-.81-1.255-.767-1.424.3-2.378 1.15-1.027.987-.965.034-2.277-.94-1.292-.925-1.196.218-2.198.6-.528 1.204-1.063 1.17-1.311-.089-.639-.697-1.545-1.282-2.417-.223-.333.224-.435.938-1.18.727-.758.694-.567.145-1.573-.297-.544-.86-1.46-.86-1.46zm-10.69.034l1.137.03s.195.258.459.529c.73.747.762 1.186.029 1.587-.704.385-.434.924.155 1.791.624.92.618.814-.276 1.718-.923.754-1.4.967-.382 2.394.579.661.507 1.344-.392 1.936-.69.456-1.837.834-.628 2.568.59 1.236.637 1.157-.595 2.034-1.638 1.167-1.946.964-1.194 2.665.837 1.892.92 1.92-.798 3.19-1.995 1.473-2.063 1.593-1.233 3.358.839 1.78.86 1.33-1.252 2.98-1.547 1.21-1.899 1.277-1.44 2.277.858 1.874 1.222 2.377-1.282 3.665-2.89 1.487-3.037 1.598-1.648 3.81 1.129 1.8.878 1.545-.987 2.622-2.695 1.557-3.885 2.235-3.97 2.718-.054.547 2.104 2.175 2.104 2.175l-3.761.102s-1.582-1.289-2.195-1.889c-1.702-1.662-1.72-1.118 3.935-3.873 3.121-1.52 2.86-1.176 2.35-2.063-1.505-2.62-1.557-2.893 1.267-4.32 2.453-1.24 2.032-1.33 1.435-3.204-.52-1.634-.437-1.483.856-2.447 3.126-2.327 3.04-2.086 2.553-3.228-.48-1.122-.849-1.645-.488-2.198 1.126-1.622 3.522-1.967 2.543-3.898-.457-1.246-.62-1.525.759-2.602 1.244-1.04 1.25-.914.454-2.286-.97-1.26-.83-1.468.59-2.457 1.012-.928.998-.904.43-1.81-.782-1.25-.745-1.288.373-2.272.91-.801 1.068-.845.488-1.728-.77-1.172-.642-1.43.372-2.005.623-.352.62-.496.566-1.092-.01-.115-.334-.777-.334-.777zm14.108.068l5.236.015c1.673 9.748 4.593 13.747 6.28 16.834-6.62 10.671-5.114 19.534-1.072 27.377l-16.584-.063c4.252-14.603 6.444-29.295 6.14-44.163zm-35.942.04c.193-.015.328.298.653.853 1.05 1.796.307 4.342-1.228 7.01-1.149 1.996-1.357.471-.831-2.403.33-1.812-.579.903-1.01 3.092-.235 1.187-.802 2.145-1.418 2.087-.58-.094-.4-1.757-.381-2.126.13-2.62 1.103-4.476 2.992-7.077.716-.985 1.005-1.421 1.223-1.437zm53.454 5.125c.249-.011.596.093 1.025.34.334.192.933.557 1.349.786 1.452.803 1.57 1.048.88 1.855-.854.998-1.4.617-2.877-1.044-.996-1.121-1.013-1.908-.377-1.937zm-.483 2.194c.234.006.718.26 1.189.801.956 1.099.841 2.028-.218 1.762-.432-.634-.655-1.6-1.068-2.315-.094-.163-.044-.251.097-.248zm46.771.14c-.927.003-2.48 1.231-2.775 2.481-.9 3.814-.9 3.649-.092 4.204.237.163.415.282.532.354.474.375 1.119.956 1.204.84.77.004 1.939-4.881 1.9-5.888.049-1.063.086-1.192-.179-1.675-.12-.219-.33-.316-.59-.315zm-47.482.083c.062-.011.139.022.232.098.608.607.852 1.693 1.16 2.47.002.169-.068.446-.154.612-.526 1.012-1.343.03-1.427-1.714-.047-.98.004-1.43.189-1.466zm47.337.753c.041-.003.08-.002.116 0 .623.028.526.674-.338 1.611-.455.493-1.392.727-1.702.423-.45-.443.48-1.658 1.494-1.952.165-.047.308-.075.43-.082zm-105.171.534c.035 0 .067-.002.101 0 .326.02.599.168.813.417.414.515.24 1.311.043 1.976-.492 1.743-3.745 5.118-4.912 5.13-.695-.121 2.21-3.827 2.301-4.45-.216-.213-2.016 1.874-2.862 3.325-.383.656-.818 1.466-1.049 1.606-.607.07-1.306.458-1.31.049.1-1.852 3.71-5.887 4.941-7.01.755-.713 1.408-1.034 1.934-1.043zm8.707.175c2.79-.032-2.702 6.097-6.256 6.98-1.107.275-3.147.347-3.292.116-.146-.23.018-.418.473-.539.734-.193 4.365-2.512 4.361-2.786-.003-.343-1.503.226-2.784 1.058-.83.54-1.22.428-.77-.223 2.087-3.011 4.878-4.569 8.268-4.606zm48.286.01c.158.012.316.328.415 1.033.507 1.314.532 1.672.054 2.058-.819.661-1.02.476-1.01-1.043.007-1.252.277-2.07.54-2.049zm-91.895 1.742s1.017.383.594.869c-.294.337-1.546.05-1.547-.049zm140.136.039c.332-.022.34.286.165 1.063-.093.408-.494 2.554-1.204 3.15-.087.057-1.117-.56-1.398-.844-.128-.132-.531-.433-.585-.631-.175-.65.013-1.492.503-1.913.192-.164.577-.255.783-.257.163-.002.643-.16 1.069-.35.298-.132.516-.208.667-.218zm-139.779 1.48c.67-.005 1.493.067 2.19.306 2.058.6 5.831 2.298 6.411 2.854.846.811-1.36 1.674-4.012 1.704-1.407.016-1.672-.278-3.617-1.446-.25-.166-1.383-.913-1.054-1.185.36-.37 1.447.106 2.8.796.44.225 1.515.16 1.513-.039-.003-.234-2.704-1.242-4.729-1.888-1.329-.424-1.298-.851-.483-1.034a7.24 7.24 0 0 1 .981-.068zm-2.659.927s.56.498 1.286 1.044c.788.592 1.703 1.324 2.34 2.296.921 1.128 2.377 3.934 2.215 4.442-.373 1.164-4.262-.88-7.441-4.073-1.034-1.038-1.64-1.81-1.64-1.81l1.214-1.102s1.066.894 2.297 1.985c2.309 2.045 2.293 1.343-.03-.81-.656-.61-1.261-1.156-1.261-1.156.03-.39.399-.736 1.02-.816zm94.99.098s1.24 1.293 1.701 1.888c-7.567 7.427-10.456 17.803-3.152 28.853l-3.505-.015c-6.566-12.971-3.452-22.737 4.955-30.727zm-63.999.305c.47-.021.042.535-.793 1.961-1.559 2.664-1.868 3.337-4.4 4-.651.17-1.58.035-1.962.083-1.089.137-.605-.002 1.063-1.088 2.312-1.505.349-.73-1.788.374-1.238.64-2.537.608-2.65.277-.062-.183.501-.664.865-.99 3.255-2.922 4.254-2.799 7.282-3.855 1.321-.46 2.061-.747 2.383-.762zm-13.605 2.665c1.178.007 2.277.126 3.254.345.647.146 1.7.276.812 1.082-1.006.95-3.723 2.248-5.734 2.335-.282.01-4.423-.283-3.539-1.174.177-.1.739-.073 1.223-.166 2.294-.435 1.673-.806-1.15-.655-3.537.19-3.698-.177-1.02-.912 1.958-.538 3.882-.814 5.646-.85a19.2 19.2 0 0 1 .508-.005zm18.894.272c1.574-.016 2.798.267 2.805.869.01.977-2.97 3.12-4.927 3.543-.46.1-1.116.244-1.455.32-.683.155-4.462.023-4.83-.11-1.77-.646-.539-.9 2.707-1.277 1.413-.165 2.087-.537 2.084-.806-.001-.131-1.042-.168-2.591.029-1.731.22-1.391-.292.764-1.413 1.423-.74 3.66-1.137 5.443-1.155zm-29.13 1.354c.221.006.752.19 1.635.559 1.885.55 4.474 1.173 6.247 3.116 1.431 1.392 1.78 1.84 1.479 2.33-.365.593-4.807.142-6.677-.66-1.235-.53-2.707-1.667-3.38-2.65-1.628-2.383-.943-3.01 1.127-1.345 2.495 2.006 2.865 2.213 3.307 2.121.178-.037-.26-.449-1.097-1.073-2.101-1.567-3.125-2.41-2.64-2.398zm15.37 2.559c2.09.002 2.541.16 4.57 1.092 2.538.898 1.923 1.697-2.582 2.825-2.256.531-4.527.159-6.174-.86-3.631-2.243-3.392-2.691.662-1.689 1.332.33 2.66.391 2.741.141.063-.192-1.548-.603-2.857-1.039-1.417-.471-.2-.431 2.635-.46.375-.005.707-.01 1.006-.01zm104.477 9.69s-.464.22-.668.333c-.162.09-1.417.247-2.79.35-2.707.202-4.528.638-6.17 1.3-2.48 1.001-4.138 4.088-4.138 4.088 1.854-.126 12.345 1.777 15.255-2.017.61-.795-1.564 5.997-2.68 6.298-2.764-.333-3.928 4.023-3.651 3.84-2.789 1.084-4.952 1.721-4.243 4.97.31 1.418 1.74 3.101 4.771 2.678-.825 5.635 6.043 7.093 6.8.3 0 0 1.339-.256 1.854-.318 3.132-.744 3.89-5.338-.705-6.795-1.276-.38-1.348-.62-1.348-.62.238-1.037.181-2.125-.565-3.333 1.013-2.426 3.537-7.103 3.537-7.103zm.486 1.402c.631.847-2.664 2.25-6.173 2.552-.787.068-2.518.228-2.562.306-.378.665 6.785.182 9.017-1.072.764-.43.833-.052.5.61-2.59 3.345-8.844 2.52-13.733 1.933-.28-.282-.042-.627 1.054-1.52 2.009-1.636 3.456-2.182 6.628-2.509.886-.028 4.87-.781 5.269-.3zm3.874 3.46c-.45 1.439-2.804 5.83-2.804 5.83-.29.29-1.32.495-1.243-.616.012-1.194 2.238-6.11 2.838-6.204.717-.055 1.245.474 1.209.99zm1.493.335c.69 5.039 4.498 6.237 8.152 7.825.962.443 1.777 1.23 2.742 1.738 1.806-2.473-.23-7.275-3.409-8.84-2.362-1.106-4.515-1.987-5.845-1.888-.77.058-1.63.554-1.64 1.165zm1.954-.3c.409-.005.994.114 3.128.684 3.221.86 5.494 3.245 6.087 6.388.024.127.19 2.562-.366 2.475-.839-.242-1.29-1.09-2.636-1.655-1.68-.706-4.037-1.633-5.483-2.951-1.168-1.065-1.806-2.212-1.948-3.194-.145-1.02.195-1.124 1.049-.301 1.911 1.526 3.796 2.049 5.686 3.524.525.41 2.41 1.458 1.122.152-.871-.884-3.439-2.426-4.802-3.084-1.895-.914-2.924-2.027-1.837-2.039zm-145.092 5.028l21.597 33.896c-5.316 2.815-7.936 4.048-16.762 3.355l.033.446-3.75-.22c6.478 10.153 14.473 23.397 12.205 46.502l26.307-.027s.411.391.451.419c.385.26.962-.459.962-.459l11.867-.063.321.384 5.534-.039s-25.302-47.534-38.01-71.136c-5.22-9.469-10.657-13.675-20.755-13.058zm136.186 1.121c1.418-.035 2.829.944 2.838 2.845.005.99-.827 2.371-.827 2.371l-1.927-1.844-1.842 1.851c-.907-.753-1.444-2.186-1.147-3.001.567-1.394 1.802-2.194 2.905-2.222zm-22.336.675c1.828 7.152 3.802 17.014-12.049 39.804-9.375 13.48-12.442 26.196-12.817 41.716l-.947.005c.447-8.517.507-23.96.507-23.96l.885-.791s-.403-.657-.58-1.427c-.299-1.299-.047-.866.725-4.354 3.24-16.847 24.276-50.993 24.276-50.993zm-84.638 3.281l80.33.37-1.069 2.116-77.734-.558zm107.076.612l2.983 2.917-2.915 3.287-3.07-3.223zm-2.447 1.24l-1.627 1.737 1.41 1.49c-1.452 3.061-5.317.673-5.187-1.618.151-2.679 3.27-3.778 5.404-1.609zm5.155 3.453l1.297-1.654-1.465-1.612c2.399-2.379 4.667-.284 4.886 1.7.234 2.116-3.052 4.504-4.718 1.566zm-95.14-2.023l6.58.063-2.446 4.597-6.672-.03zm14.66.034h6.043l-2.553 4.66h-6.116zm14.272 0h6.41l-2.6 4.66h-6.586zm14.35 0h6.56l-2.388 4.66h-6.808zm14.615 0h6.324l-2.563 4.66h-6.507zm-69.834.024h4.25l-1.736 3.068zm105.968 2.94c2.432 1.96.742 5.181-1.793 5.238-1.745.04-4.278-2.924-1.537-5.34l1.826 1.676zm-89.394 2.477h6.179l-2.326 4.194h-6.053zm13.735.034h6.779l-2.389 4.194h-6.45zm14.514 0h6.745l-2.2 4.194h-6.812zm14.461 0h6.692l-2.084 4.194h-7.073zm-55.184.16h4.264l-1.818 3.36zm3.215 4.864l62.616.559-1.064 2.038-59.961.01zm2.2 3.65l58.675.146-1.349 2.82-20.272-.092c-3.956-2.964-8.477-1.594-13.634.092 0 0-15.52.163-21.622 0zm-19.513 11.951l30.947 49.042-6.841-.078-29.386-46.134zm-6.203 3.194l29.216 45.836c-1.34-.031-2.585.051-3.926.03.543-8.56-6.318-12.573-10.35-12.777 2.419-10.01-4.85-14.223-9.7-15.018 1.967-13.01-8.76-14.855-8.917-14.724.052-1.068-.148-1.839-.29-2.73l3.967-.617zm-4.734.727c-.063.275.55 2.868-.604 2.39l-.082-2.385zm-6.15.066c.417 1.724 1.3 2.066 2.497 3.222 0 0-1.532.261-1.887.015-.637-.443-1.968-3.25-1.968-3.25zm4.57 2.916c.74 0 1.339.606 1.339 1.35a1.34 1.34 0 0 1-1.34 1.344c-.74 0-1.339-.6-1.339-1.344 0-.744.599-1.35 1.34-1.35zm2.654 1.036c3.843-.253 9.416 3.886 7.947 11.63-.256-.54-.559-1.73-1.183-2.575-2.649-3.587-5.768 1.329-3.665 3.335 1.03.983 1.513 1.37 1.402 1.46-2.369-.451-4.163 1.655-3.177 3.992 1.643 3.025 3.926 1.422 5.247-.372 0 0 .813 2.707 1.622 3.052 1.238.526 2.946-.141 3.528-1.643.866-2.235-1.24-2.808-1.702-4.052 4.446.146 10.11 6.67 7.533 12.327.338-1.29-1.04-4.178-3.716-3.433-1.338.469-1.803 2.424-.724 4.436.345.644.532.883.532.883s-1.158.154-1.462.342c-3.473 2.147 1.004 8.004 3.589 4.343.263-.436.696-.933.696-.933.426.815.557 1.964 1.335 2.357 3.2 1.617 4.627-1.796 3.282-3.47-.757-.942-1.612-2.03-1.612-2.03-.133-.602 9.59 1.958 8.407 11.455l-25.779-.035c2.39-14.59-3.396-31.28-6.35-36.368l1.28-1.694c.32.63.853 2.217 1.794 2.52 2.99.967 3.9-1.131 3.5-3.288-.213-1.149-1.815-2.073-2.324-2.24zm6.826 13.73c.703 0 1.272.576 1.272 1.282a1.273 1.273 0 1 1-2.548 0c0-.706.573-1.282 1.276-1.282zm9.675 15.199c.71 0 1.286.578 1.286 1.29 0 .714-.576 1.292-1.286 1.292-.71 0-1.286-.578-1.286-1.291s.576-1.291 1.286-1.291z"/><path d="M3532.665-810.146c9.774-.213 14.157-11.218 6.918-19.763-1.05-1.247-1.158-1.962.765-.765 4.874 3.26 14.22 1.117 14.698-8.847.59-12.277-16.563-15.815-19.784-2.76-.17 1.377-1.29 1.346-1.02-.61.294-5.306 1.951-10.265 4.229-15.102h-11.62c2.278 4.837 3.935 9.796 4.229 15.103.27 1.955-.85 1.986-1.02.609-3.22-13.055-20.375-9.517-19.784 2.76.479 9.964 9.824 12.106 14.698 8.847 1.923-1.197 1.815-.482.765.765-7.24 8.545-2.856 19.55 6.918 19.763h.01zM3429.594-1055.78c9.774.213 14.157 11.218 6.918 19.764-1.05 1.247-1.158 1.962.765.765 4.874-3.26 14.22-1.117 14.698 8.847.591 12.277-16.563 15.814-19.784 2.76-.17-1.378-1.29-1.346-1.02.609.294 5.306 1.951 10.266 4.23 15.102h-11.621c2.278-4.836 3.935-9.796 4.229-15.102.27-1.955-.85-1.987-1.02-.61-3.22 13.055-20.375 9.518-19.784-2.76.479-9.963 9.824-12.106 14.698-8.846 1.923 1.197 1.815.482.765-.765-7.24-8.546-2.856-19.551 6.918-19.763h.01z"/></g></svg>