<svg xmlns="http://www.w3.org/2000/svg" width="63mm" height="88mm" viewBox="0 0 223.22835 311.81102"><rect y="370.276" x="260.433" height="311.811" width="223.228" rx="10.678" ry="10.664" fill="#fff" stroke="#000" stroke-width="1.001" transform="matrix(.99554 0 0 .9968 -258.773 -368.593)"/><path d="M17.638 70.248s-2.214-3.18-5.202-6.918c-1.999-2.501-3.596-5.21-3.745-7.543-.17-2.666 1.442-5.34 4.362-5.47 2.919-.129 4.103 2.056 4.585 3.857.483-1.801 1.667-3.986 4.586-3.856 2.92.13 4.533 2.803 4.362 5.469-.148 2.333-1.746 5.042-3.745 7.543a146.776 146.776 0 0 0-5.203 6.918zM205.59 241.563c0 .003-2.214 3.18-5.202 6.918-1.999 2.502-3.596 5.21-3.745 7.544-.17 2.665 1.442 5.339 4.362 5.469 2.919.13 4.103-2.056 4.586-3.857.482 1.801 1.666 3.986 4.585 3.857 2.92-.13 4.533-2.804 4.362-5.47-.148-2.333-1.746-5.041-3.745-7.543-2.988-3.738-5.2-6.915-5.202-6.918zM111.614 130.382s-4.645-7.63-10.912-16.603c-4.192-6.004-7.544-12.505-7.855-18.105-.358-6.397 3.025-12.814 9.15-13.125 6.121-.311 8.606 4.932 9.617 9.255 1.012-4.323 3.496-9.566 9.617-9.255 6.125.31 9.508 6.728 9.15 13.125-.311 5.6-3.663 12.101-7.855 18.105-6.266 8.972-10.912 16.603-10.912 16.603zM60.079 80.935s-4.646-7.63-10.912-16.603c-4.192-6.004-7.544-12.505-7.856-18.105-.357-6.396 3.026-12.814 9.15-13.125 6.122-.31 8.606 4.932 9.618 9.255 1.011-4.323 3.496-9.566 9.617-9.255 6.125.311 9.508 6.729 9.15 13.125-.311 5.6-3.663 12.101-7.855 18.105-6.267 8.972-10.912 16.603-10.912 16.603zM163.15 179.829s-4.646-7.631-10.912-16.603c-4.193-6.004-7.544-12.505-7.856-18.105-.357-6.397 3.026-12.814 9.15-13.125 6.122-.311 8.606 4.932 9.618 9.254 1.011-4.322 3.496-9.565 9.617-9.254 6.124.31 9.507 6.728 9.15 13.125-.312 5.6-3.663 12.1-7.855 18.105-6.267 8.972-10.912 16.603-10.912 16.603zM163.15 80.935s-4.646-7.63-10.912-16.603c-4.193-6.004-7.544-12.505-7.856-18.105-.357-6.396 3.026-12.814 9.15-13.125 6.122-.31 8.606 4.932 9.618 9.255 1.011-4.323 3.496-9.566 9.617-9.255 6.124.311 9.507 6.729 9.15 13.125-.312 5.6-3.663 12.101-7.855 18.105-6.267 8.972-10.912 16.603-10.912 16.603zM60.079 179.829s-4.646-7.631-10.912-16.603c-4.192-6.004-7.544-12.505-7.856-18.105-.357-6.397 3.026-12.814 9.15-13.125 6.122-.311 8.606 4.932 9.618 9.254 1.011-4.322 3.496-9.565 9.617-9.254 6.125.31 9.508 6.728 9.15 13.125-.311 5.6-3.663 12.1-7.855 18.105-6.267 8.972-10.912 16.603-10.912 16.603zM111.614 181.429s-4.645 7.631-10.912 16.603c-4.192 6.004-7.544 12.505-7.855 18.105-.358 6.397 3.025 12.814 9.15 13.125 6.121.311 8.606-4.932 9.617-9.255 1.012 4.323 3.496 9.566 9.617 9.255 6.125-.31 9.508-6.728 9.15-13.125-.311-5.6-3.663-12.101-7.855-18.105-6.266-8.972-10.912-16.603-10.912-16.603zM163.15 230.876s-4.646 7.63-10.912 16.603c-4.193 6.004-7.544 12.505-7.856 18.105-.357 6.396 3.026 12.814 9.15 13.125 6.122.31 8.606-4.932 9.618-9.255 1.011 4.323 3.496 9.566 9.617 9.255 6.124-.311 9.507-6.729 9.15-13.125-.312-5.6-3.663-12.101-7.855-18.105-6.267-8.972-10.912-16.603-10.912-16.603zM60.079 230.876s-4.646 7.63-10.912 16.603c-4.192 6.004-7.544 12.505-7.856 18.105-.357 6.396 3.026 12.814 9.15 13.125 6.122.31 8.606-4.932 9.618-9.255 1.011 4.323 3.496 9.566 9.617 9.255 6.125-.311 9.508-6.729 9.15-13.125-.311-5.6-3.663-12.101-7.855-18.105-6.267-8.972-10.912-16.603-10.912-16.603zM6.965 37.551c.156-4.416 1.751-6.072 4.89-8.382-2.504-1.81-3.56-4.476-3.345-6.746.516-5.497 4.755-8.245 9.38-8.127 4.63.123 8.615 3.797 8.926 7.791.27 3.472-.76 5.149-3.22 6.975 2.92 2.468 4.784 4.09 4.715 8.438-.069 4.35-3.764 9.525-10.205 9.683-6.44.158-11.3-5.216-11.14-9.632zm17.98.016c.275-3.998-3.255-6.695-7.24-6.734-3.88-.042-7.35 3.274-7.35 6.864 0 3.854 4.515 5.95 7.43 5.958 3.545.016 6.92-2.646 7.16-6.088zM23.67 23.265c.075-3.364-3.025-5.777-6.225-5.68-2.845.087-5.854 2.259-5.86 5.073 0 3.523 3.426 5.283 6.35 5.35 2.655.06 5.675-2.199 5.735-4.743zm0 0M194.917 274.26c.156 4.416 1.751 6.072 4.89 8.383-2.504 1.809-3.56 4.476-3.345 6.746.516 5.496 4.755 8.244 9.38 8.126 4.63-.122 8.615-3.797 8.926-7.791.27-3.472-.76-5.148-3.22-6.974 2.92-2.469 4.784-4.09 4.715-8.44-.069-4.349-3.764-9.524-10.205-9.682-6.44-.158-11.3 5.216-11.14 9.632zm17.98-.016c.275 3.998-3.255 6.695-7.24 6.734-3.88.042-7.35-3.274-7.35-6.863 0-3.855 4.515-5.95 7.43-5.959 3.545-.016 6.92 2.646 7.16 6.088zm-1.275 14.302c.075 3.364-3.025 5.778-6.225 5.681-2.845-.088-5.854-2.26-5.86-5.074 0-3.523 3.426-5.282 6.35-5.35 2.655-.06 5.675 2.2 5.735 4.743zm0 0" fill="#d40000"/></svg>