<svg xmlns="http://www.w3.org/2000/svg" width="63mm" height="88mm" viewBox="0 0 223.22835 311.81102"><rect y="370.276" x="260.433" height="311.811" width="223.228" rx="10.678" ry="10.664" fill="#fff" stroke="#000" stroke-width="1.001" transform="matrix(.99554 0 0 .9968 -258.773 -368.593)"/><path d="M60.079 146.864s-4.646-7.63-10.912-16.603c-4.192-6.004-7.544-12.505-7.856-18.105-.357-6.396 3.026-12.814 9.15-13.125 6.122-.31 8.606 4.932 9.618 9.255 1.011-4.323 3.496-9.566 9.617-9.255 6.125.311 9.508 6.729 9.15 13.125-.311 5.6-3.663 12.101-7.855 18.105-6.267 8.972-10.912 16.603-10.912 16.603zM17.638 70.248c0-.003-2.214-3.18-5.202-6.918-1.999-2.501-3.596-5.21-3.745-7.543-.17-2.666 1.442-5.34 4.362-5.47 2.919-.129 4.103 2.056 4.585 3.857.483-1.801 1.667-3.986 4.586-3.856 2.92.13 4.533 2.803 4.362 5.469-.148 2.333-1.746 5.042-3.745 7.543-2.988 3.739-5.2 6.916-5.203 6.918zM205.59 241.563s-2.214 3.18-5.202 6.918c-1.999 2.502-3.596 5.21-3.745 7.544-.17 2.665 1.442 5.339 4.362 5.469 2.919.13 4.103-2.056 4.586-3.857.482 1.801 1.666 3.986 4.585 3.857 2.92-.13 4.533-2.804 4.362-5.47-.148-2.333-1.746-5.041-3.745-7.543a146.776 146.776 0 0 1-5.202-6.918zM60.079 80.935s-4.646-7.63-10.912-16.603c-4.192-6.004-7.544-12.505-7.856-18.105-.357-6.396 3.026-12.814 9.15-13.125 6.122-.31 8.606 4.932 9.618 9.255 1.011-4.323 3.496-9.566 9.617-9.255 6.125.311 9.508 6.729 9.15 13.125-.311 5.6-3.663 12.101-7.855 18.105-6.267 8.972-10.912 16.603-10.912 16.603zM163.15 146.864s-4.646-7.63-10.912-16.603c-4.193-6.004-7.544-12.505-7.856-18.105-.357-6.396 3.026-12.814 9.15-13.125 6.122-.31 8.606 4.932 9.618 9.255 1.011-4.323 3.496-9.566 9.617-9.255 6.124.311 9.507 6.729 9.15 13.125-.312 5.6-3.663 12.101-7.855 18.105-6.267 8.972-10.912 16.603-10.912 16.603zM163.15 80.935s-4.646-7.63-10.912-16.603c-4.193-6.004-7.544-12.505-7.856-18.105-.357-6.396 3.026-12.814 9.15-13.125 6.122-.31 8.606 4.932 9.618 9.255 1.011-4.323 3.496-9.566 9.617-9.255 6.124.311 9.507 6.729 9.15 13.125-.312 5.6-3.663 12.101-7.855 18.105-6.267 8.972-10.912 16.603-10.912 16.603zM111.614 179.829s-4.645-7.631-10.912-16.603c-4.192-6.004-7.544-12.505-7.855-18.105-.358-6.397 3.025-12.814 9.15-13.125 6.121-.311 8.606 4.932 9.617 9.254 1.012-4.322 3.496-9.565 9.617-9.254 6.125.31 9.508 6.728 9.15 13.125-.311 5.6-3.663 12.1-7.855 18.105-6.266 8.972-10.912 16.603-10.912 16.603zM163.15 164.947s-4.646 7.63-10.912 16.603c-4.193 6.004-7.544 12.505-7.856 18.105-.357 6.397 3.026 12.814 9.15 13.125 6.122.31 8.606-4.932 9.618-9.255 1.011 4.323 3.496 9.566 9.617 9.255 6.124-.311 9.507-6.728 9.15-13.125-.312-5.6-3.663-12.101-7.855-18.105-6.267-8.972-10.912-16.603-10.912-16.603zM60.079 164.947s-4.646 7.63-10.912 16.603c-4.192 6.004-7.544 12.505-7.856 18.105-.357 6.397 3.026 12.814 9.15 13.125 6.122.31 8.606-4.932 9.618-9.255 1.011 4.323 3.496 9.566 9.617 9.255 6.125-.311 9.508-6.728 9.15-13.125-.311-5.6-3.663-12.101-7.855-18.105-6.267-8.972-10.912-16.603-10.912-16.603zM163.15 230.876s-4.646 7.63-10.912 16.603c-4.193 6.004-7.544 12.505-7.856 18.105-.357 6.396 3.026 12.814 9.15 13.125 6.122.31 8.606-4.932 9.618-9.255 1.011 4.323 3.496 9.566 9.617 9.255 6.124-.311 9.507-6.729 9.15-13.125-.312-5.6-3.663-12.101-7.855-18.105-6.267-8.972-10.912-16.603-10.912-16.603zM60.079 230.876s-4.646 7.63-10.912 16.603c-4.192 6.004-7.544 12.505-7.856 18.105-.357 6.396 3.026 12.814 9.15 13.125 6.122.31 8.606-4.932 9.618-9.255 1.011 4.323 3.496 9.566 9.617 9.255 6.125-.311 9.508-6.729 9.15-13.125-.311-5.6-3.663-12.101-7.855-18.105-6.267-8.972-10.912-16.603-10.912-16.603zM8.46 40.846l3.005-.955c1.135 3.034 3.425 3.932 5.85 3.737 4.349-.347 5.794-5.215 6.119-9.519-1.695 1.8-4.24 2.714-6.41 2.621-6.935-.372-8.71-5.93-8.774-11.747-.19-4.905 1.835-8.458 5.31-10.09 1.84-.825 6.053-.825 7.904.154 4.25 2.245 5.825 6.122 5.54 15.382 0 7.617-1.616 16.488-9.77 16.682-4.709.652-8.29-3.018-8.774-6.265zm11.805-8.347c1.414-.897 2.21-1.739 2.845-2.998.52-1.035.7-1.576.55-3.716-.385-5.523-3.275-8.658-7.47-8.037-2.339.353-3.619 1.663-4.354 4.1-1.355 4.507.365 9.779 3.586 10.993 1.448.55 3.688.392 4.843-.342zm0 0M214.766 270.966l-3.005.954c-1.135-3.033-3.425-3.932-5.85-3.737-4.349.347-5.794 5.216-6.119 9.519 1.695-1.8 4.24-2.714 6.41-2.621 6.935.372 8.71 5.93 8.774 11.747.19 4.905-1.835 8.458-5.31 10.09-1.84.825-6.053.825-7.904-.153-4.25-2.245-5.825-6.123-5.54-15.382 0-7.618 1.616-16.49 9.77-16.682 4.709-.653 8.29 3.017 8.774 6.265zm-11.805 8.347c-1.414.896-2.21 1.738-2.845 2.998-.52 1.035-.7 1.575-.55 3.716.385 5.522 3.275 8.657 7.47 8.036 2.34-.353 3.619-1.663 4.354-4.1 1.355-4.507-.365-9.779-3.585-10.992-1.45-.551-3.69-.393-4.844.342zm0 0" fill="#d40000"/></svg>