<svg xmlns="http://www.w3.org/2000/svg" width="63mm" height="88mm" viewBox="0 0 223.22835 311.81102"><g transform="matrix(1 0 0 1 -3105.277 383.253)"><rect y="-382.754" x="3105.784" height="310.814" width="222.232" rx="10.63" ry="10.63" fill="#fff" stroke="#000" stroke-width=".997"/><path d="M3122.925-332.94c-4.292 5.464-8.883 8.609-8.96 12.872-.026 1.38.81 3.727 3.429 4.176 1.699.29 4.037-.938 4.086-3.432-.01-.496.589-.483.583.197-.08 1.967-.777 4.258-1.95 6.122h5.622c-1.172-1.864-1.87-4.155-1.95-6.122-.01-.68.591-.693.584-.197.049 2.494 2.388 3.722 4.086 3.432 2.619-.45 3.454-2.796 3.429-4.176-.077-4.263-4.668-7.408-8.96-12.873zM3310.877-121.754c-4.292-5.464-8.883-8.609-8.96-12.872-.026-1.38.81-3.727 3.429-4.176 1.699-.29 4.037.937 4.086 3.431-.01.497.589.484.583-.196-.08-1.968-.777-4.258-1.95-6.123h5.622c-1.172 1.865-1.87 4.155-1.95 6.123-.01.68.592.693.584.196.049-2.494 2.388-3.721 4.086-3.431 2.619.449 3.454 2.795 3.429 4.176-.077 4.263-4.668 7.408-8.96 12.872zM3122.817-368.96v3.443h3.34s.08 3.319.11 10.36c.025 6.836.164 10.227-.27 12.174-1.17 4.488-7.665 4.512-8.955 1.286-.75-1.877-.55-3.336-.585-5.226h-3.59s.02.951.025 2.116c.021 5.046 1.69 7.459 5.595 8.41 4.015 1.086 8.71-.57 10.38-4.005.994-1.958.88-2.093.904-13.931.015-7.898.134-11.184.134-11.184h3.075v-3.444h-10.163zm0 0M3310.981-85.734v-3.443h-3.339s-.081-3.319-.11-10.36c-.026-6.836-.165-10.227.27-12.175 1.17-4.487 7.664-4.512 8.955-1.285.75 1.877.55 3.336.585 5.226h3.59s-.021-.952-.026-2.116c-.021-5.046-1.69-7.46-5.595-8.41-4.015-1.087-8.71.57-10.379 4.005-.994 1.958-.88 2.092-.905 13.93-.015 7.899-.134 11.185-.134 11.185h-3.075v3.443h10.163zm0 0"/><path d="M3135.266-358.925v263.156h163.268v-263.156zm51.866 1.444l73.961.271-11.465 17.527c-14.949-4.73-39.202-1.661-51.703.729-3.287-5.484-8.053-12.37-10.793-18.527zm-49.718.673h47.483l11.152 20.254c.404.565.019 1.73-.223 2.385-1.376 3.867-2.593 6.108-5.377 10.717-2.638 4.366-3.584 8.364-2.648 11.052.14.33.262.83.214 1.253-.155 1.34-1.282 2.891-2.817 3.953-1.044.167-3.211.3-4.466 1.538-1.076 1.062-1.957 2.615-1.818 5.453.064 1.016.194 1.66.194 1.66-14.183 5.888-24.347 12.787-24.01 13.04-.134-.062-12.55-5.726-17.684-7.127zm126.317 0h32.592v93.044l-12.305-8.095c1.026-.713 1.66-1.136 2.74-1.867.191-.058.554-.064.79-.117 2.179-.485 3.699-2.112 2.943-3.798-.514-1.145.187-1.075.819-2.008.711-1.05.563-1.985.111-2.869-.224-.439-.1-.612.277-1.423.998-1.235.276-3.325-1.014-4-.135-.2.142-.507.204-.794.364-1.675-.304-3.145-1.755-3.518-.747-.192-.996-.322-.732-.987.467-1.18-.149-1.62-1.12-2.003-1.635-.645-1.172-.749.848-1.655 4.136-1.855 5.11-7.371 2.265-12.377-.362-.636-1.328-2.13-1.984-3.13-.765-1.17-1.507-2.178-1.507-2.178l5.474-7.615s-3.812-4.506-5.169-6.997c.32-1.23 4.135-5.091 4.63-8.84.777-5.878-3.696-9.64-7.927-9.198-2.935.307-6.546 2.18-6.274 7.62.084 1.691.745 3.437 1.944 5.55.838 1.582 1.923 3.256 2.963 4.863l-5.508 7.514 5.566 7.036-.194.304c-.554.88-2.164 3.467-2.86 4.984-2.054 4.05-2.78 8.497 1.434 11.632.738.452 1.306.836 1.62 1.147.413.409.156.72-.51.875-.782.165-1.58.154-2.404.48-2.643.962-5.292 2.514-7.176 4.035-1.058.853-2.762 3.554-3.802 5.748-1.129 2.384-1.444 2.912-1.444 2.912l-19.361-12.367s-.492-.387-.626-.537c-.36-.403-.23-.637.02-1.084.212-.378.22-1.491.126-2.337-.026-1.62-.014-1.627.921-3.116.33-.524.466-1.048.277-1.858-.304-.909-.333-.62.247-1.243.226-.278.499-.415.543-.716.06-.403.022-1.106.029-2.42.014-2.63-.021-2.414 1.46-3.57 1.839-1.436 2.524-2.113 2.816-2.763.42-.931 0-1.634-1.032-3.493-.472-.85-1.203-1.997-1.557-2.637-.66-1.152-1.615-2.668-2.07-4.118-.689-1.113-.584-3.042.053-4.175.8-1.423 1.023-2.283.994-5.158-.026-2.666-.22-2.418.46-3.31 5.087-6.718 13.165-19.373 13.165-19.373zm20.723 9.991c.109 0 .22.005.33.01 1.601.076 3.192.59 4.669 2.018 2.009 2.01 1.872 4.906 1.212 7.92-.304.876-.53 1.766-1.15 2.68-.343.51-.624.982-.625 1.046 0 .064-.495.859-1.1 1.77-.592.892-1.27 2.135-1.27 2.135s.946 1.693 2.623 3.812c1.265 1.877 2.085 3.512 2.181 3.416 0 0-.32.812-.76 1.389-1.331 1.744-3.782 5.382-3.88 5.763-.023.091-.276.184-.271.275.018.338.504.739 1.236 1.742 4.422 6.059 5.047 11.173 1.726 14.177-1.652 1.495-3.283 1.963-5.033 1.776-3.205-.344-6.164-3.074-5.818-7.055.156-1.829.06-2.374 1.14-4.5.487-1.196 1.59-3.247 2.322-4.282.64-.742 1.324-1.8 1.324-1.8s-1.573-2.417-4.466-5.815c-.521-.622-.844-1.462-.844-1.462l4.956-7.325s-.576-1.421-1.542-2.86c-1.982-2.949-3.26-6.084-3.248-7.85.03-4.397 2.912-6.973 6.288-6.98zm12.34 104.652c-2.926 1.553-5.775 6.857-.207 3.158l.139 3.05c-2.896 4.101-8.558 1.094-7.118-3.152-3.91.505-4.52-3.455-4.32-5.339-5.143-1.118-3.367-6.552-3.367-6.552-2.97-2.479-3.492-5.075-1.085-7.81-2.433-1.511-3.119-2.478-5.793-3.575 2.05 18.197 11.892 27.648 22.25 36.07-.275 0-.304 5.86-.955 4.781-14.79-11.028-24.298-23.638-25.934-44.036-.126.32-7.013-5.32-8.152-5.021-2.387 33.03 23.965 54.743 34.924 59.022 0 0 .155 4.602-.033 4.618-16.609-7.23-35.076-28.448-38.634-53.692l-9.8 15.144-3.67-1.567 15.846-24.914-10.716-6.701-17.445 27.584s-.463 2.3.8 2.265c24.488 2.614 60.907 31.973 48.704 79.757-1.058-.418-2.743-1.235-2.826-1.2 1.913-4.117 7.253-30.794-8.81-52.343-7.36-9.872-18.773-20.38-37.087-23.48 1.513 3.116.853 10.184.853 10.184l4.267.862c-1.44-1.52-2.644-2.77-3.215-4.418-.8-2.566.372-4.086 3.22-2.56 1.13.634 1.415.609 2.516-.208 2.293-1.7 4.91.05 4.306 2.88-.09.417.021.68 1.11.778 2.466.245 4.951 1.465 6.56 3.378.789 1.008.967.858 1.668.251 1.721-1.491 4.572.575 4.063 2.884-.29 1.32-.13 1.635.48 1.892 3.364 1.41 4.19 2.3 5.237 5.24.383 1.076.698 1.43.897 1.37a26.72 26.72 0 0 0 1.178-.412c2.511-.95 3.981 2.08 2.201 4.456-.364.487-.094.954.553 1.306 2.09 1.138 3.51 3.856 3.758 6.707.094 1.084.208 1.085 1.294 1.04 2.78-.116 4.104 3.63 1.843 5.008-.788.48-.641 1.1-.03 1.824 1.622 1.919 2 3.305 1.858 5.492-.19 2.91-.004 2.854.926 3.207 2.702 1.027 2.198 5.335-.452 5.321 1.908 4.436-.604 9.845-.522 9.945 5.09 2.858.494 5.895-.985 5.36 0 0-.754 1.994.102 3.02-4.466 5.896-10.312 6.875-16.786 9.803l-.204-20.757c2.693 2.163 5.362 4.182 8.03 6.193 0 0 .676-.202.06-.77-1.186-1.095-4.171-3.02-5.006-3.788-1.802-1.364-8.407-7.666-9.581-9.16-.526-.994-1.32-.418-1.3-.358.79 1.361 1.38 2.948 2.402 4.363 2.209 3.055 4.353 6.451 4.13 9.81-.006 1.88-.755 3.822-1.174 4.766-.31 1.29-2.37-.22-1.852-1.307.916-2.977 1.675-5.416-1.6-10.2-1.597-2.332-3.666-6.565-3.666-6.565l-1.323.32.048 27.08c-1.11.046-3.925.774-3.345.794 8.774-1.75 11.458 10.778 2.986 11.186-1.609.057-3.272 2.822-3.442 4.321.073 3.638.607 7.475-2.06 10.969-.702.919-1.025 2.376-1.674 3.522-3.256 5.755-4.71 9.053-4.378 10.539.086.382.165.885.165.885-10.373 2.587-18.152 3.25-28.602 3.493-.102-.163 3.508-10.296 6.143-15.492 1.948-3.84 2.951-6.465 2.405-7.258-8.287.415-6.698-11.71 1.232-11.283 0 0 1.989-6.986 4.213-10.137 2.108-1.171 6.35.424 8.728-1.147 5.602-1.714 9.27 4.897 9.27 4.897l1.508-6.29-49.543-.237s-4.82 1.995-7.43.92c-1.667-.688-4.041-2.507-4.043-2.506 0 0 19.107-30.563 21.888-34.94.226-.356-.493-1.12-.495-1.127-.104-.994-22.678 35.324-22.678 35.324-12.745-8.145-28.764-18.45-42.963-27.505l-.039-13.606c10.312-6.485 9.378-9.135-.164-2.066-.134.112-.204-5.11-.204-5.11 7.274-6.485 1.225-4.455-.211-2.207.034-1.617-.342-3.813.696-4.78 3.178-2.924 6.924-.24 7.113 4.083 4.146.812 3.632 4.448 4.7 5.909 4.228 2.382 2.002 5.995 3.05 7.224 4.454 2.802 1.348 7.306.405 7.204.562.377 6.096 4.08 6.57 3.944-.48-19.41-19.913-35.07-22.493-36.966l.456-4.186s26.766 17.085 26.532 44.5l8.533 5.061c-.758-28.128-13.52-47.2-35.042-59.277l-.28-5.21c18.066 8.39 34.82 25.373 38.721 53.208L3185.6-210.7l3.525 1.703-16.06 25.715 10.028 6.582c7.78-10.22 14.267-22.754 18.221-28.717-.104-.545-.32-1.325-.32-1.325-38.24-6.295-59.781-42.055-49.514-79.42l2.657 1.167c-7.974 27.673 5.03 67.504 46.62 75.65-.083-2.943-.601-10.18-.601-10.18s-5.465-1.64-4.661-.983c1.339 1.142 4.346 6.064 3.075 7.814-.914.128-2.443-.383-4.116-1.606-.632-.462-.65-.363-1.358.392-1.966 2.094-4.822.894-4.849-1.984-.01-1.216-.056-1.473-1.784-1.485-2.62-.02-3.797-.468-5.367-2.565-1.115-1.487-1.012-1.494-2.323-1.045-2.512 1.193-4.516-1.312-3.729-3.377.389-.968-.025-1.277-1.168-1.466-2.224-.368-4.74-3.153-5.203-5.43-.094-.464-.327-.581-1.638-.536-2.573.089-3.997-1.468-2.982-3.648.548-1.18.703-1.655-.325-2.453-1.26-.98-1.972-1.66-2.531-2.846-.444-.94-.51-1.543-.815-3.546-.106-.697-.338-.81-1.25-.93-2.66-.345-3.71-3.062-1.756-4.823.596-.538.594-.525-.31-1.694-1.74-2.248-2.393-5.183-1.634-7.136.205-.53.005-1.177-.616-1.33-2.426-.604-2.467-3.288-.146-4.796.675-.438.709-.728.2-1.611-.894-1.547-.85-5.6.014-7.538.558-1.254.554-1.283-.31-1.834-1.844-1.175-1.317-4.408.863-4.94 1.058-.259 1.128-.397.843-1.68-.508-2.285-.595-2.88.757-3.783 3.718-2.41 13.241-7.016 13.241-7.016l3.147-1.495s.314 19.18.112 21.45c-.123.976.756 1.567 1.779 2.583 2.115 2.074 3.273 4.582 6.095 6.324 0 0 1.758-.976 2.846-1.674l.107-27.333c.222-.62.378-.689 1.1-.774.6-.116 2.109-.283 2.614-.43 1.215-.355 1.406-.845-.19-.683-.48.049-1.201.253-2.007.416-4.986 1.493-8.675-6.256-4.878-10.16.73-.652 3.452-1.786 4.69-1.863.357.002 1.42-1.305 2.147-2.512.73-1.212 1.034-2.114.616-3.328-.88-2.558-.04-6.484 2.59-10.771 2.847-4.046 5.047-8.561 6.2-13.369 10.092-1.214 18.652-3.718 27.773-3.164.357 3.076-9.972 21.214-7.816 22.276 8.127 1.942 5.353 11.559-.824 11.24-.925-.005-1.016.077-1.605 2.12-1.121 2.981-1.845 5.257-3.05 8.031-.003.714-4.036.52-7.416.496-1.452 1.117-7.67 4.141-11.07-3.599l-.123 6.616s46.529-.737 54.803.298c.177-2.071 4.6 1.604 4.6 1.604l-22.708 35.65 1.062 1.035c3.276-3.968 23.041-35.778 23.041-35.778l42.755 27.533c-.352 4.095.058 13.272.058 13.272-11.734 6.218-8.15 9.386-.07 1.855zm-70.844-97.496s12.11.098 18.183 1.07c5.317.85 5.044.694 5.023 4.548-.015 2.737-.019 2.675-.723 3.987-1.296 2.419-1.076 4.804.975 8.143 1.99 3.242 3.448 5.635 3.447 6.097-.001.715-.122 1.589-1.847 2.791-2.035 1.42-2.423 2.41-2.395 3.852.023 1.166-.199 1.547-.897 1.543-.28-.001-1.27.458-2.332.958-1.87.88-1.873.88-3.617.866-.875-.007-1.299-.336-1.542-.242-.47.22-.897 1.788-.883 2.246.05.161.3.064.815-.112 2.893-.988 7.196-.544 7.316-.111.584.527.585 1.342-.295 2.187-.571.895-.83 1.358-.592 2.743.324 1.883.082 2.63-.882 3.28-2.942 1.986-6.87 2.236-13.15 1.031-6.618-1.27-11.145-3.788-14.91-8.298-1.681-2.014-2.096-2.72-1.265-2.86 1.026-.157 2.162-.37 3.215-.822 4.65-1.997 4.569-10.498-1.697-11.385-2.557-.09 5.278-12.118 8.053-21.512zm5.975 5.856c-2.25 1.257-3.425 2.79-3.43 3.623-.001.341.076.28 1.15-.426 3.119-2.046 11.333-5.001 14.265-3.295 2.114 1.267 2.934.854 1.71-.85-2.873-3.996-10.621-.723-13.695.948zm8.033 1.34a5.36 5.36 0 0 0-1.023.11c-2.169.484-4.554 2.267-6.531 3.838-.975.774-2.354 2.308-2.57 2.71-.488.907.59 1.908 2.056 1.107.853-.466.929-.36 1.75-.247 1.893.57 4.052 1.451 7.39 1.171.31.071.287.144.179.436-.198.533-1.38 1.55-2.924 2.69-.796.588-1.492 1.069-1.546 1.156-.246.392.817.423 1.983-.237 1.653-.936 3.558-3.006 4.722-4.669.111-.158.265-.289.315-.46.114-.385-.582-.225-.955-.329-.16-.044-.127-.447-.17-.633-.11-.488.081-1.295.17-1.99.072-.56.675-1.005 1.072-1.417 1.743-1.81 1.607-2.63-.737-1.238-.395.234-.707.375-1.091.406-3.46.109-5.46-.025-8.345 2.4-1.283 1.031-2.053 1.132-.911.034 1.74-1.407 3.923-3.41 6.337-3.939 1.457-.362 2.843.752 3.481.465.005-.796-1.212-1.377-2.652-1.365zm-.502 5.001c.397.26.786 1.612.75 2.067-.043.53-.956.31-1.082.058l-.495-1.5c-.215-.506.44-.793.827-.625zm-1.762.306c.423.417.52 1.32.76 2.066-.152.538-3.558-.189-3.986-.79.51-.662 2.266-1.455 3.226-1.276zm5.973 9.687c-.256-.017-.595.107-.902.42-1.533 1.567-1.039 4.236.805 5.1.9.422 2.26.112 4.262-.503.954-.293 1.645-.426 1.823-.425.783.004 1.209-1.207.66-1.762-.635-.641-2.14-.547-3.758.702-.819.631-1.404.937-2.065.929-1.62-.02-2.407-1.684-.752-3.43.55-.582.354-1.003-.073-1.031zm-11.347 11.484c1.91 1.538 5.535.731 7.973-.878 2.178-1.439 3.081-1.863 4.829-1.563 2.142.368 2.062-.472 1.134-1.53-1.051-1.197-3.65-.827-5.823.61-4.819 3.189-6.562 3.722-7.96 1.997-1.503-1.853.286-4.23 2.054-2.933 1.451.985 1.43.244.83-.432-3.495-2.94-6.018 2.33-3.037 4.729zm-16.94 1.512c2.432 3.077 4.76 5.62 8.258 7.495l.038.58-11.307-.024c.79-1.376 3.034-7.96 3.011-8.051zm-38.285 8.017c-.239 4.639.595 7.363 3.317 10.606 2.893 3.447 2.678 8.82.817 12.14-.823 1.468-2.499-.338-1.71-1.277 1.124-1.41 1.191-4.851.66-7.002-1.191-3.554-3.894-5.295-4.99-9.052-.368-1.604-.251-4.486-.251-4.486zm3.54.392c.198-.03.513.173.98.576 1.599 1.381 1.326 5.335-.505 7.872-.56.77-1.025.55-1.561-.164-.724-.714-.473-.785.136-2.037.635-1.306.838-2.777.708-4.495-.088-1.157-.047-1.706.242-1.752zm103.717 1.355c1.411-.021 3.176.278 3.336.789.153.621-.182 1.12-.97 1.451-2.065.87-4.795-.347-4.107-1.834.173-.265.894-.393 1.741-.406zm-3.578.339c.406-.01.72.09.97.203.676.348-.387 2.727 2.981 2.68.806.119 1.4-.066 1.29.296-.167.548-1.612 1.37-3.18 1.601-4.694.693-4.49.459-4.277 3.77.139 2.16-.002 2.889-.296 4.2-.51 2.271-.71 4.466-.368 3.744.458-.965 1.626-4.014 1.62-5.748-.011-2.557.903-3.063 1.27-1.21.156 1.227-.394 1.919.431 3.17.468.702.682.69.369 1.78-.277.961-.085 1.244.252 1.732.338.492.68.605.392 1.292-.618 1.483.352 2.886 1.76 3.005.651.055.831.338.636.585-.345.428-1.03.631-1.6.755l-14.91-9.507s1.106-2.215 1.435-2.807c2.142-4.686 3.841-6.822 10.105-9.275a3.009 3.009 0 0 1 1.12-.266zm7.923 3.077c.41-.015.715.2 1.061.644.915 1.173.117 2.64-2.133 3.904-1.923 1.092-2.483 1.222-2.9-.493a2.304 2.304 0 0 0-.518-.842c-.446-.407-.344-.745.223-1.045.271-.144 1.136-.497 1.828-.954 1.202-.792 1.91-1.194 2.439-1.214zm-6.347 3.406c.47.008.956.121 1.314.353.596.388.602 1.36 0 1.747-1.197.488-3.088-.165-2.929-1.263.081-.558.83-.849 1.615-.837zm7.67 1.2c.425-.011.744.187 1.009.595.702 1.083-.123 2.169-2.488 3.324-1.556.76-3.544 1.091-3.413.644.106-.36-.45-2.136-.698-2.42-.095-.3.029-.03 1.993-.648.711-.224 1.57-.593 1.968-.842.675-.422 1.205-.641 1.63-.653zm-111.853 2.807c-1.094 2.623-1.267 3.782-.747 6.541.433 2.297.936 3.449 3.297 6.842 1.798 2.582 2.373 3.587 1.94 4.403-.306.44-.992.85-1.419.427-.878-1.146-1.405-2.538-2.261-3.814-3.3-4.831-3.53-6.06-3.952-9.875-.193-1.744.811-5.455 1.67-6.01.961-.376 1.769.883 1.472 1.486zm76.26-1.21c-.898.67-1.462 2.016-1.93 2.985.097.692.665.24 2.152-1.94.358-.524.115-1.088-.223-1.045zm28.408 1.185c1.32.04 1.789 1.222 1.197 1.839-.863.9-2.415.22-2.414-1.04 0-.535.249-.81 1.217-.799zm7.326 1.684c.757.032.857.784.456 1.873-.503 1.01-1.109 1.182-2.924 1.746-2.174.676-2.53.578-2.856-1.417-.126-.767-.064-.597 1.94-1.128.86-.228 1.864-.634 2.4-.856.404-.164.731-.229.984-.218zm-128.407.895l.534 4.03.868-3.018zm121.342 1.355c1.07.004 1.644.96 1.101 1.534-.303.32-1.073.326-1.445.14-.85-.62-.696-1.678.344-1.674zm-32.68 2.105l2.085 1.282-16.936 26.684-2.041-.043-.194-.426zm38.43.256c1.251-.017 1.36 1.159-.154 2.24-.621.398-1.317.494-1.857.518-.753.033-1.26-.162-1.32-.682-.326-1.274-.512-1.59.65-1.515.232.016.865-.02 1.373-.237.519-.22.959-.319 1.309-.324zm-5.178 1.166c.865.005 1.415.94.834 1.399-.716.566-1.61.216-1.604-.64.003-.546.152-.762.77-.759zm-121.865 1.887l-4.608 4.073c1.69 1.994 3.106 3.986 4.569 6.077zm93.171.262c2-.08 2.655.885 1.707 1.533-1.289.86-2.392.819-3.855.62-1.934-.36-.394-1.905 1.726-2.124a6.74 6.74 0 0 1 .422-.03zm-2.123 2.903c.403-.011.999.102 1.77.363 1.308.442 2.937 1.81 2.86 2.569-.124 1.228-2.44.594-4.306-1.166-1.168-1.103-1.213-1.743-.324-1.766zm-1.77.019c1.134.107 2.265 3.937 1.387 5.114-.862 1.154-2.38-1.33-2.105-3.28.11-.772.304-1.792.606-1.83a.523.523 0 0 1 .112-.004zm-74.058.842c.639.152 1.457 1.034 1.28 1.703-.13.269-.398.19-.689.121-.525-.222-.93-.952-.829-1.558.05-.164.12-.257.238-.266zm85.937.658l3.331 2.255-3.331.13zm-13.804 4.563c2.555.013 3.096.839 1.188 1.843-.793.418-2.725.496-3.724.15-1.586-.55.317-2.005 2.536-1.993zm20.674 1.717l.175 2.313-6.415.561-.33-2.41zm-22.177 1.152c.444-.028 1.153.177 2.08.653 1.745.896 2.738 2.4 1.838 2.874-.817.43-2.27-.08-3.298-1.156-1.359-1.425-1.468-2.318-.62-2.371zm-2.182.005c1.165.07 2.174 3.257 1.406 4.833-.42.863-.952.674-1.716-.745-.74-1.372-.78-3.795.072-4.06a.67.67 0 0 1 .238-.028zm-83.434.9l-2.804 5.627 5.08 4.426zm108.584 4.335l.45 2.226-6.157 1.514-.601-2.424zm-26.89.435c.75.014 1.456.192 1.861.547.562.493.44.714-.887 1.253-2.362.96-5.272.38-3.583-1.054.596-.507 1.643-.763 2.608-.746zm40-.13c-2.35 1.573-.086 2.439 1.595 1.25-.126-.406-1.1-1.244-1.594-1.25zm-41.727 3.154c1.682.055 4.983 2.358 4.277 3.46-.384.604-2.59.088-3.467-.75-1.152-1.102-1.762-2.575-1.125-2.69.096-.018.203-.023.315-.02zm-2.124.107c.868-.161 2.256 3.876 1.208 4.911-.392.387-.501.364-1.16-.218-1.313-1.162-1.088-3.303-.3-4.5.076-.114.163-.176.252-.193zm51.69 2.128c-.23-.428-.515-.626-.83-.861-8.176 3.135-6.08 6.122.83.86zm-19.373.277l.814 2.254-6.201 2.453-.912-2.467zm-106.074 4.267l-2.1 5.516c2.283.013 4.342 1.09 6.425 2.047zm108.134 1.621l1.314 2.216-5.833 3.15-1.163-2.337zm-135.51 4.316l2.39 1.684-3.51 4.354-.32-.614.04-3.614zm138.696 1.37l1.41 2.031-5.614 3.895-1.377-2.21zm-132.673 2.612l2.579 1.984-4.078 4.91-2.468-1.881zm28.383 1.215l-.12 5.907 6.07.233zm70.165 2.662l6.9 3.965-1.04-6.051c-1.802.35-4.115 1.522-5.86 2.086zm37.897-1.24l1.61 1.998-5.188 4.35-1.663-2.08zm-131.18 1.752l2.405 2.23-4.238 4.568-2.225-2.095zm135.612 3.241l1.866 1.892-4.727 4.906-1.867-1.891zM3155.5-227.01l1.861 2.168-4.838 3.837-1.794-2.178zm27.884.508l1.358 5.787c-.099-.42 6.024-1.726 6.822-1.287zm71.282.49l5.779 6.088.65-5.865zm35.737.957l2.09 1.63-3.879 5.516-2.366-1.853zm-130.738 3.677l1.72 2.482-5.07 3.015-1.44-2.192zm136.212.586l.32.319-.004 3.938-1.61 2.362-2.197-1.292zm-32.692 4.423l5.112 9.275 1.442-6.917c-1.89-.028-4.882-1.236-6.554-2.358zm-99.477 1.238l1.217 2.675-5.357 2.439-1.222-2.661zm2.895 6.386l.98 2.686-5.698 1.887-.902-2.589zm-25.47 4.864l1.774 1.24c9.243-4.847 6.362-6.28-1.774-1.24zm52.24-3.083c.348-.036.751.446 1.076 1.51.49 1.608.23 3.602-.863 3.575-.737-.089-1.01-1.974-1.014-2.52-.008-1.614.351-2.518.8-2.565zm5.066.963l2.201.237-.01.62-17.532 27.777-2.124-1.345zm-9.44.643c.699.007 1.721.487 2.628 1.447.53.573 1.098 1.388 1.236 2.22-.015.276-.485.172-.94.107-1.164-.164-2.877-.968-3.424-1.96-.67-1.217-.292-1.82.5-1.814zm80.603.99l2.337 11.375c.724-2.847 2.254-4.489 3.386-6.725-2.98-1.37-4.203-2.992-5.723-4.65zm-100.735 2.3l.548 2.942-5.905 1.365-.611-2.855zm22.028 1.021c.083-.001.167 0 .247.01 2.16.241 2.465.72 1.013 1.693-.88.59-3.263.673-3.656.044-.418-.67 1.14-1.734 2.396-1.747zm-42.853 1.728l1.833 1.07c3.14-2.265-.289-2.719-1.833-1.07zm39.745.992c.66.008 1.057 1.184 1.29 2.264.224 1.046.302 1.99-.102 2.516-.495.643-.98.757-1.373.121-1.151-1.866-1.114-4.917.185-4.901zm-4.868 1.708c.308-.011.696.066 1.149.237 1.532.577 3.564 2.918 2.705 3.242-1.267.477-4.037-.91-4.557-2.313-.263-.707.025-1.143.703-1.166zm-12.636 1.887l.14 2.908-6.21.251-.185-2.893zm15.215 2.448c.612-.018 1.223.063 1.717.276.889.383.241 1.078-1.285 1.606-1.008.349-2.445.439-2.948.039-1.179-.927.68-1.869 2.516-1.921zm-48.084.339c4.254 2.578 13.077 8.322 13.077 8.322-.416.082-.86.407-1.27.726-.317.26-.661.501-.96.624-.472.192-.906.219-1.3.305-2.742.595-4.085 2.143-3.229 4.069.336.756.424.634-.16 1.272-1.635 1.557-1.436 2.023-.853 4.016.007.282-1.947 2.677-.219 4.48.957.832 1.002.312.655 2.202-.121 1.137.19 2.07 1.847 2.395.922.422.909.275.582 1.055-.223 1.119.097 1.582.883 1.989.714.445 1.004.566.499.958-5.52 2.82-7.219 7.729-2.012 14.96.614.853 2.158 3.259 2.158 3.259-1.755 2.6-3.43 4.74-5.22 7.063l5.21 7.272c-.844 1.32-2.817 4.004-4.03 6.652-1.82 3.977-.618 9.553 4.621 11.22 2.247.715 5.214.135 7.083-2.032 1.517-1.758 2.344-5.25.96-8.888-1.751-4.076-3.851-6.074-4.53-7.234l5.578-6.988s-3.843-5.518-5.377-7.522c10.462-12.78 1.916-16.353.277-17.448-.255-.17-.194-.987-.194-.987 9.396-1.074 12.606-6.227 15.37-12.75 5.605 3.603 13.631 8.448 19.254 12.237.542.502.897.812.814 1.089-.067.226-.285 1.263-.295 2.327.261 1.695.136 2.462-.548 3.111-.645.611-.516.889-.412 1.549.18 1.146.353 1.26-.16 1.838-.633.712-.845 1.045-.728 2.773.07 1.026.201 1.794-.068 2.4-.35.788-1.307 1.187-2.564 2.172-2.2 1.725-1.904 2.252 1.134 8.511 2.589 5.334 2.885 6.554 1.891 8.448-.827 1.576-1.138 2.794-1.037 5.07.025.581.075 1.209.072 1.515-.006.737.004.652-.422 1.113a15.55 15.55 0 0 0-1.221 1.577c-3.613 5.408-13.116 19.299-13.116 19.299h-32.04zm44.87 2.516c.374-.027.826.642 1.338 1.993.295.78.264 2.135-.214 2.656-.951 1.038-2.26-1.393-1.847-3.319.187-.87.431-1.31.722-1.33zm89.876-1.462c.005 4.927-.101 11.322-1.801 16.036l1.928.871c-.622-4.84.15-8.813 4.598-10.907-2.024-1.371-3.57-3.688-4.725-6zm-94.667 3.107a1.66 1.66 0 0 1 .529.096c.72.198 1.599.618 2.133 1.162.914.93 1.857 2.047 1.62 2.153-1.512.662-5.347-1.36-4.844-2.942.11-.335.305-.463.562-.47zm-6.72.208l.039 2.414-3.714-2.37zm84.817 1.161c.601.053 1.531.838 1.387 1.384-.259.59-.576.536-.99-.085-.518-.774-.728-1.257-.397-1.299zm-75.256 2.985c.902-.024 1.68.175 1.765.644-.002.444-.687 1.018-1.532 1.277-2.111.65-3.695.23-3.118-.803.362-.684 1.726-1.086 2.885-1.118zm73.544 2.739c-.892 1.597-1.003 6.703.573 8.787 2.447 2.696 4.706 6.208 4.446 10.881l-2.352 1.05c.13-3.843-.024-6.342-3.03-9.657-3.58-3.883-2.739-10.611-1.503-12.59 1.061-1.953 2.588.813 1.866 1.529zm-103.023-2.124c.752-.044 1.671.4 3.335 1.495 4.256 3.006 6.564 4.166 10.784 7.142.617.576.587.494.48.948-1.614 6.161-6.299 11.05-13.242 11.946-.803.104-.389-.398-.873-1.364-.498-.995-1.417-1.428-2.438-1.437-2.867-.027-.416-1.632 3.083-2.09 1.157-.178 2.551-.335 3.288-1.031.16.075-.608-4.82.18-6.542.4-1.549.02-2.298-.413-1.345-.272.598-.653 2.169-.858 3.779-.173 1.36-.46 1.545-.78.885-.147-.301-.144-1.014.086-1.577.261-1.282-1.358-2.248-1.032-3.42.434-.98-.017-2.061-.563-2.42-.297-.635-.262-1.095-.223-1.539.091-1.039-.602-2.037-1.697-2.472-.484-.244-.34-.509.165-.76.235-.117.467-.183.718-.198zm-3.482 1.756c.276-.004.55.025.81.092.564.343 1.017 2.29.388 2.366-.232.028-.956.116-1.518.28-1.903.559-2.805.484-2.768-.609.038-1.114 1.6-2.103 3.088-2.129zm2.531.199c.75.004 1.354.88.883 1.345-.488.481-1.425.13-1.42-.566.001-.376.171-.781.537-.78zm.51 3.033c.214-.008.452.037.707.155.697.321 1.098 1.517.655 1.955-.337.333-1.302.216-1.818-.223-.923-.783-.475-1.85.455-1.887zm-2.362.174c.431.01.742.148.824.446.071.256-.048.492.068.856.182.574.547 1.013.228 1.244-1.46-.088-4.49 1.741-5.367 1.654-.73-.097-.813-.769-.18-1.858.732-1.258 3.133-2.369 4.427-2.342zm.883 3.537c.318-.02.371.156.242.62-.092.33-.016 1.115.208 1.62.241.544.678.867.451 1.08-.373.107-1.627.357-2.68.75-1.36.75-5.18 3.013-4.22-.605.307-1.209 1.712-2.048 4.166-2.903.93-.325 1.515-.541 1.833-.562zm2.002.044c.59-.043 1.264.24 1.566.973.886 1.76-1.655 2.011-2.468.546-.481-.868.143-1.464.902-1.519zm.485 4.098c1.32.007 2.345 1.641 1.387 2.26-.71.426-1.592.346-2.405.145-1.223-.536-.659-2.414 1.018-2.405zm126.433.034c5.024 2.625 11.842 5.044 18.468 6.842v65.172h-45.286l-12.403-21.592s-.411-.699-.543-1.006c-.25-.586-.16-1.063.01-1.67.41-1.466 1.655-4.338 2.802-6.377 2.996-5.488 7.251-11.507 4.946-16.78-.264-.603 2.38-3.873 2.38-3.873 4.072.332 7.44-2.317 6.234-8.57 8.5-3.469 15.503-6.288 23.392-12.146zm-128.775.32c.115-.005-.231 1.423.49 2.298.45.689.376.666-1.15 1.267-.57.309-1.142.778-1.464 1.065-2.184 1.945-4.346-.599-2.235-2.642a7.857 7.857 0 0 1 4.33-1.97c.012-.013.021-.018.029-.019zm103.86 1.344c.734.13 1.683 1.103 1.379 1.633-1.034 1.728-1.08 2.657-1.173 4.445-.103 1.995.24 2.29-.523 1.945-.497-.232-1.426-.63-1.634-1.137-.48-1.17.748-7.1 1.952-6.886zm-104.573 5.008c.812-.014 1.663.25 2.143.866.4.514.442.952.044 1.162-.946.498-4.075.239-4.233-.402-.243-.989.86-1.605 2.046-1.626zm47.41 1.268c3.824.016 8.285.827 11.739 2.332 4.902 1.845 9.22 6.548 10.196 8.56.297.61-.31.61-.833.667-5.84.963-7.783 8.132-2.856 11.56 1.545.963 2.792.86 2.792.86 1.25-.106-5.553 12.921-8.262 21.038-8.38-.342-14.712.946-22.905-1.867-.88-1.46-.67-4.684-.029-6.348.589-1.512 1.364-2.678.99-4.418-.653-3.03-3.42-6.976-4.345-9.479-.812-1.91-.76-2.622.655-3.716 1.667-1.289 2.078-1.559 2.535-2.21.427-.608.245-.747.253-2.115.009-1.66-.031-1.402 1.343-1.645.479-.085 1.609-.446 2.472-.9 1.792-.942 3.04-.909 4.093-.324.457.123.414-.35.606-.978.084-.273.277-.72.262-.856-.033-.28-.638-.2-1.305-.107-2.673.374-4.779.456-5.862.054-.939-.35-.941-.98-.392-2.028.49-.933.835-.918.635-2.864-.251-2.443.09-2.958 1.231-3.76 1.425-1 4.013-1.468 6.987-1.456zm13.819 2.153h12.427c-1.22 1.963-2.576 4.992-3.346 7.863-.112.223-.245.443-.533.154-1.676-2.395-3.584-4.956-8.548-8.017zm-10.304 8.734c-1.485.042-3.343.754-5.677 2.09-1.587.907-2.883 1.47-4.568 1.161-.963-.177-1.086-.04-1.212.271-.567 1.403 1.537 2.908 3.66 1.92.618-.257 5.354-2.707 5.616-2.917.284-.228 2.245-.804 2.763-.798 1.567.02 2.534 1.249 2.342 2.666-.255 1.894-2.946 1.989-3.122.305-.136-1.297-.678-.721-.728-.082-.003.544.41 1.786.859 2.066 2.273 1.416 5.27-1.341 3.835-4.18-.879-1.739-2.084-2.55-3.768-2.502zm-10.197 6.6c-1.542.293-2.545.892-4.208 1.03-1.371.302-1.27 1.392-.412 1.96.659.435 1.489.172 3.889-1.35 2.357-1.496 4.378 1.62 2.492 3.214-1.187 1.004-.372 1.268.44.663 2.088-1.554.89-6.104-2.201-5.517zm7.298 8.017c-.18-.013-.466.052-.849.227-1.766.807-3.124 1.658-3.97 2.792-.145.246-.066.662-.136.987-.055.256-.26.58-.223.755.031.151.53.313.606.455.307.576.11 2.044-.068 3.106-.085.508-.842.666-1.144.972-.996 1.01-.746 1.318.315.925.74-.276.426-.786 2.26-.431 2.374.46 4.255-.184 6.123-1.22 2.074-1.15 2.825-1.787 2.91-1.65.138.227.028.347-1.45 1.573-3.708 3.075-6.464 3.79-8.544 2.637-.623-.422-1.12-.595-.65.31.06.099.565.49.917.648 2.136.962 4.815.148 8.223-2.54.748-.59 1.41-1.252 2.274-1.974 2.828-2.362 2.084-3.443-1.11-2.294-1.007.363-1.29-.028-2.652-.556-1.83-.709-2.43-.776-4.534-.813-1.832-.032-2.106.139-2.104-.17.002-.39 1.233-1.773 2.618-2.375 1.351-.587 1.73-1.326 1.188-1.364zm3.37 5.83c.341.344-.148.564-1.47 1.19-.748.355-1.435.646-1.531.644-.118.212-1.364-2.592-1.024-2.73.146-.058 3.198.2 4.025.896zm-4.796-.295c.307.636.54 1.301.66 1.916.028.189.163.462-.136.46-.235.033-.622.053-.761-.165-.299-.468-.63-2.061-.519-2.37.23-.311.633-.094.756.159zm10.871 5.042c-.11.001-.318.083-.645.275-5.257 3.099-11.563 4.713-15.617 3.184-1.368-.516-1.618-.334-1.12.6.345.648 1.03 1.408 2.07 1.694 3.313.909 8.647-.415 12.752-3.102 1.67-1.094 3.04-2.655 2.56-2.651zm30.944 8.302c.01 0 10.2 19.114 11.099 20.012l-75.6-.321 12.737-17.983c.113 1.01 30.725 5.206 51.764-1.708z" fill="#131f67"/><path d="M3172.758-97.933l12.208-17.992c18.058 3.426 34.302 1.616 52.098-1.553l11.85 19.946zm95.737-67.052l-.078-10.682 3.729 1.384c-1.295-4.969 1.973-10.16 4.949-10.367-9.509-7.158-1.61-14.814-1.774-14.978-10.4-5.356-5.182-13.58-5.903-14.318-12.672-3.278-7.724-13.316-8.682-12.28-7.376 2.213-11.439-3.956-11.564-8.972-6.383 3.61-16.246-1.505-13.155-7.253 0 0 3.381 1.602 3.978 1.279 5.212-3.782 4.804 1.646 5.887 2.824 3.887-.562 6.182 2.408 7.15 3.85 5.734.006 5.498-1.367 5.548 4.182 4.32 1.095 4.148 3.426 6.65 6.61 5.446.06 4.53 1.83 3.298 4.837 3.925 3.119 4.243 5.56 4.89 8.396 4.283 1.55 5.051 2.18 2.256 5.783 3.78 5.654 1.96 8.929 2.535 9.237 4.712 3.393 2.357 4.622.3 5.924.714 4.509 1.287 5.172-.375 9.762 5.417 3.836-.86 5.566-1.18 5.486l-.015 3.801zm-131.163-27.851l-.11-13.236 45.92 29.612-5.801 9.088zm61.004 19.48l10.853-22.679-3.9-24.735 31.109.678c3.497 7.934 5.606 14.68 14.568 27.812l-9.468 2.944.329 15.898zm26.604-5.965c-.317-.656-.493-1.104-.434-1.397.116-.377.405-.36.776-.157 1.322.641 2.644 1.193 3.619-.02.488-.634.36-1.538-.054-2.06-.746-1.515-3.092-.419-3.881-.364-.733.016-1.015-.599-.413-1.474.359-.382.584-.802.643-1.297.411-3.467-5.51-2.234-3.455 1.128.934 1.245.389 1.994-.983 1.206-1.51-.866-3.608-.058-3.539 1.764.053 1.38 1.79 2.233 3.252 1.4.338-.192.6-.4.84-.504.679-.295 1.167-.052.941.712-.607.954-1.321 2.325-.724 3.226.598 1.315 2.657 1.192 3.363.374.487-.563.623-1.479.05-2.537zm71.763-69.514l-46.01-29.757c2.846-3.681 4.533-6.652 6.117-9.61l39.94 25.637zm-71.936-10.059l4.712 24.025-32.12.456c-1.765-8.066-12.798-26.324-12.768-26.005l8.564-21.005 42.625-.05zm-12.054-8.945c.814-.744.759-1.88-.138-3.157-.87-1.238-.482-2.131.91-1.293.772.517 1.996.624 2.823.361 1.05-.356 1.486-1.193 1.331-2.25-.188-1.277-1.607-1.627-3.123-1.07-.438.092-.705.45-1.083.62-.817.359-1.143-.622-.395-1.893.83-1.41-.031-2.92-1.556-3.054-1.629-.142-2.599 1.707-1.935 2.721.954 1.456.263 2.47-1.105 1.496-1.968-1.401-4.538.375-3.473 2.46.516 1.01 2.207 1.276 3.722.635 1.266-.535 1.642.08.875 1.375-1.577 2.66 1.013 5 3.147 3.049zm-46.604-23.59l-.34 12.803c-4.805-2.933-4.09-2.97-4.268-2.925 1.414 3.848-.237 8.603-4.313 10.94 7.346 6.876 3.377 11.71 2.171 14.975 9.384 5.438 4.623 14.832 4.661 14.346 9.253.052 9.066 8.125 9.332 11.494 11.441-.717 9.907 8.405 11.416 9.19 5.546-2.477 12.023-1.628 13.741 5.81 1.112 4.22-2.966.154-4.743.332-6.323 3.93-5.107-2.068-5.462-2.903-5.238.496-5.942-1.996-8.237-3.764-5.656 1.087-5.19-.77-4.857-4.199-4.438-.897-5.403-3.66-7.171-6.365-6.127.197-3.628-4.122-3.605-4.97-.744-.665-4.262-4.12-4.435-8.075-6.29-1.774-2.34-4.94-2.113-6.027-2.38-2.958-3.005-5.14-2.208-8.867-5.584-2.606-.92-5.04-.525-6.522-1.82-4.855-.494-6.309.224-8.936-3.593-4.203-1.446-3.97 1.184-6.52.333-.46-.586-2.572-.535-3.814zm32.262-47.446l-10.07-17.987h71.923s-7.827 10.823-10.862 16.27c-17.937-2.826-34.721-1.485-50.991 1.717z" fill="#d40000"/><path d="M3148.167-109.615c-6.307-1.43-7.379-9.343-1.457-15.923.479-.532.805-1.356.805-1.356-2.046-3.153-2.992-4.264-5.08-7.397 1.843-2.78 4-4.902 5.384-7.315-.084-.419-.698-.836-1.433-1.917-4.271-6.279-4.743-8.768-2.575-12.502 2.039-3.51 6.908-3.916 9.871-.822 3.203 3.344 3.054 6.383-1.106 12.568-.913 1.357-1.572 2.583-1.572 2.583 1.15 2.313 3.102 4.463 5.09 7.373-1.843 2.279-3.724 4.418-5.346 7.042 0 0 .164.564.524.971 6.61 7.473 6.089 16.057-1.386 16.787-.384.037-1.318-.02-1.719-.092zm53.166-95.376c-.174-.283-23.786 37.85-23.786 37.85l2.695 1.725 22.588-35.25c.341.258.674.566.605.995 0 0-18.605 30.254-21.704 35.09-.083.13 4.613 2.906 4.77 2.914 6.92-3.403 35.778-.457 54.94-1.628.075.058-.295 6.717-.295 6.717s-4.37-5.043-5.252-5.074c-4.357-.152-8.939 1.7-12.22 1.492-2.097.64-4.49 8.263-4.96 10.175-3.814-.442-7.497 3.54-6.616 7.248 1.247 4.12 3.389 3.81 5.706 3.877-.215 4.665-8.468 16.96-8.503 23.017 8.728-.688 18.171-.847 27.173-3.556 0 0 3.382-9.705 7.649-16.1 1.407-2.447 2.082-6.12 1.511-8.436-.361-2.535.734-3.175 1.711-4.95.596-1.11 2.796-1.063 3.077-1.145 5.726-1.655 3.68-9.044 1.244-10.358-3.04-1.64-7.336.9-8.988-2.424-1.747-3.518-1.181-10.795-1.181-10.795l-43.233.206s12.215-23.163 11.905-23.334c-3.34-1.83-8.796-8.19-8.836-8.256zm-28.917 21.084c.202-2.342.578-40.41-35.468-59.334l.192-5.004c.221-.258 32.79 14.67 38.376 53.446l10.05-15.718 3.696 1.448c-5.462 8.192-16.327 28.073-16.846 25.162zm-21.888-13.713c1.485-4.395-.951-2.063-3.172-2.243-1.518-.825-3.008-1.89-4.418-2.815 10.533-5.57 4.26-5.3-1.876-1.39-1.592-.86-3.604-2.746-3.73-2.587 11.886-7.63 7.427-7.784-.18-2.26.263-5.181.078-3.237.18-4.978 6.485-6.934.445-3.167 0-3.084-1.597-6.918 6.038-5.47 6.739-.24 1.343.998 3.985 2.232 4.763 6.522 3.667 2.33 3.282 4.26 3.112 7.051 1.434 1.414 5.135 4.398.818 7.154zm-13.673-31.566l.244-3.827c.497-1.56 28.296 18.232 26.292 43.663.328-.178-3.077-1.775-4.053-2.649.015-18.714-19.892-35.169-22.483-37.187zm159.44 21.468c-18.548-8.483-36.16-28.813-37.086-55.254l-10.476 17.511-3.719-1.571c.348.287 8.286-14.417 16.459-24.58 2.305 33.362 15.416 48.875 35.277 60.144zm-97.137-12.199c-17.973-2.226-43.96-26.645-36.193-59.747 1.101-3.362 18.435 15.262 18.436 15.261.109-.844 15.593 24.05 15.158 28.912 13.069 3.716 38.578.192 38.578.192 21.21 4.728 43.387 27.564 35.38 60.017 0 0-5.637-3.695-10.35-7.994-14.314-13.808-18.857-25.155-23.928-37.672-18.328-1.656-35.51 1.625-37.081 1.031zm97.31-27.568c.314 1.65.11 5.064.172 5.058-4.776 5.19-5.272 5.285.716 3.617-.742 4.977-4.43 5.795-6.62 4.1-.808-.624-.815-4.054-.815-4.054-3.632-.908-4.879-1.998-4.364-5.896-4.182-.498-4.018-2.53-3.674-6.772-3.808-2.138-2.86-5.541-.607-6.995l1.884 1.295c-.604.54-.31 3.92 3.029 1.405 0 0 2.67 2.212 3.952 3.07-9.658 6.198-3.803 4.835 2.146.764 1.116.76 2.64 2.003 3.434 2.54-7.838 5.608-10.41 10.297.748 1.868zm.47 21.072l-.32 4.468c-19.068-11.643-24.23-26.997-25.647-43.351 0 0 2.56 1.88 3.73 2.662 1.701 21.096 21.06 35.341 22.237 36.221zm-104.469-55.36l45.729.292-12.128 23.147 6.401 7.547s15.886-24.706 23.873-37.646l-2.763-1.65-22.798 35.758-.906-1.002 22.476-35.728c-1.348-.882-3.899-2.295-3.899-2.295s-38.943.624-55.87.556c.55-2.332.668-6.464.668-6.464 2.496 3.577 5.17 6.77 10.99 3.256 0 0 6.884.232 7.137-.095.842-1.36 2.335-5.635 4.075-10.463 6.64-.443 5.979-3.647 6.734-4.698-.509-9.418-5.801-4.346-5.346-7.77 1.496-6.101 9.142-19.913 8.176-21.123-1.973-1.307-21.531 2.537-27.223 3.237-.527-.203-3.305 8.862-6.236 12.738-3.189 4.216-4.325 8.737-2.697 13.001-1.688 4.688-4.92 4.208-7.518 5.535-2.945 3.184-2.133 8.06.674 9.946 1.955 1.313 4.956 1.245 8.015-1.234zm90.87-32.74l-5.35-7.172 5.186-7.543c-2.047-3.24-5.423-8.197-4.818-12.126 1.322-7.792 11.853-6.65 12.77.805.499 3.459-2.028 7.702-4.594 11.313 1.694 3.081 2.423 3.584 4.885 7.117-1.463 2.578-5.026 7.622-5.026 7.622 2.222 3.73 5.313 7.842 5.089 11.637-.235 3.258-3.793 6.56-7.114 5.867-10.327-2.158-4.56-13.18-1.028-17.52z" fill="#e2cf00"/><path d="M3186.594-357.684c2.836 5.316 10.89 19.659 10.89 19.659 19.153-3.964 35.26-4.973 52.186-1.273l12.092-18.299zm2.497 1.08h3.462l6.793 13.948 11.719-2.337-1.998-11.583 3.317.02 1.677 11.138 17.218-.436 2.23-10.75 3.176.038-2.279 10.925 13.635 1.834 6.671-12.798h4.582l-10.143 15.803c-18.045-3.51-35.97-2.33-50.974 1.354zm6.531 0h10.11l2.424 9.415c-1.241.647-5.877 1.752-7.428 1.597-1.853-3.238-3.766-7.92-5.106-11.013zm19.496 0h15.385l-1.314 8.016-12.902.412zm24.39 0h11.854l-4.679 9.734-8.94-1.214zm45.135 9.744a9.142 9.142 0 0 0-1.92.179c-3.075.643-4.687 3-4.713 6.851-.012 1.765 1.291 4.884 3.273 7.834.966 1.438 1.61 2.762 1.61 2.762l-5.16 7.568 5.49 7.156s-.855 1-1.363 1.718c-2.517 3.553-3.681 6.874-3.52 9.6.174 2.942 1.893 5.188 5.115 6.265 1.768.591 4.289-.132 5.983-1.664 1.368-1.237 2.056-2.845 2.085-4.732.042-2.697-1.263-5.964-3.864-9.527-.706-.968-1.052-1.728-1.052-1.728s3.64-5.172 5.013-7.538l-4.974-7.132c3.955-5.932 4.752-7.246 4.863-10.892-.18-3.612-2.806-6.698-6.866-6.72zm-.494.435c.17-.003.343.002.513.015 4.518.347 6.903 3.697 6.304 7.998-.614 4.1-4.318 7.922-4.912 9.241 1.781 2.89 5.14 6.997 5.14 6.997-1.426 2.585-5.106 7.596-5.106 7.596s.212.415.446.745c3.843 5.434 4.9 8.003 4.635 11.26-.208 2.569-2.24 4.861-4.776 5.327-4.015.737-7.31-2.107-7.714-5.947-.247-3.361 1.925-6.629 3.612-9.178a56.707 56.707 0 0 0 1.329-2.09l-5.47-7.166c1.668-2.638 3.774-5.225 5.32-7.452 0 0-.815-1.31-1.571-2.501-3-4.728-3.836-7.152-3.375-9.764.567-3.214 3.063-5.038 5.625-5.08zm.407 2.424c-1.67.045-3.264 1.273-3.899 3.049-.917 3.33 2.595 8.371 4.195 9.725 2.995-3.437 4.902-7.292 3.796-9.992-.728-1.632-2.423-2.826-4.092-2.782zm.412 1.08c3.025.062 4.157 3.645 1.823 7.722-.806 1.39-1.993 2.845-1.993 2.845s-1.108-1.379-1.774-2.42c-2.704-4.223-2.007-7.52 1.314-8.109.218-.028.428-.043.63-.039zm-60.196 1.862c-7.918.042-18.498 1.358-27.797 3.465-.807 4.977-3.311 9.97-6.042 13.934-2.63 4.287-3.58 8.02-2.7 10.577.823 2.395-1.424 5.969-3.894 6.194-3.068.279-5.022 2.411-4.984 5.448-.087 4.865 3.277 7.847 7.845 6.193.459-.057.766.242.766.242l-.267 27.845c-2.57.403-4.287.961-6.473 2.12-4.063-4.62-7.45-7.89-10.565-10.185-.09-6.198.166-12.43-.111-18.614-4.594 1.769-9.488 4.671-13.513 7.345-1.352.903-1.488 1.405-.98 3.692.285 1.282.215 1.42-.843 1.678-2.18.533-2.862 3.998-1.019 5.173.865.551.868.58.31 1.834-.862 1.939-.83 5.647.064 7.194.51.884.475 1.169-.2 1.607-2.32 1.508-2.163 4.734.263 5.337.62.154.782.419.577.948-.759 1.954-.068 4.922 1.672 7.17.905 1.17.902 1.156.306 1.694-1.954 1.762-.895 4.918 1.765 5.264.913.12.917.121 1.023.818.305 2.003.443 2.562.887 3.503.56 1.186 1.232 1.988 2.492 2.966 1.028.798 1.03.81.48 1.989-1.014 2.18.599 4.342 3.171 4.253 1.312-.046 1.312-.05 1.406.416.463 2.276 3.173 4.945 5.397 5.313 1.144.188 1.324.46.936 1.427-.625 1.557-.22 2.56 1.357 3.367 1.058.542 1.367.562 2.527.165 1.31-.45 1.324-.442 2.438 1.045 1.57 2.097 2.612 2.623 5.232 2.642 1.728.012 1.793.057 1.804 1.272.026 2.879 3.077 4.079 5.042 1.984.71-.755.707-.752 1.339-.29 2.765 2.022 5.217 2.544 4.989.653-.534-4.427-3.743-7.127-3.743-7.127l4.01 1.045c.176 4.674.343 10.31 1.318 14.206l-17.872 28.407s-1.084-.661-2.225-1.447a155.929 155.929 0 0 0-5-3.305c-.645-.403-1.47-.896-2.118-1.442-.622-.517.384-1.2.596-1.746 4.116-7.333 10.556-16.147 15.244-24.715l-4.538-1.752c-3.472 5.455-6.029 9.845-9.26 14.874-3.22-23.568-19.703-44.259-39.643-52.972l.068 6.17c20.934 10.685 35.875 32.74 35.477 58.753-.082.098-1.752-.9-4.01-2.4-1.19-.79-3.586-2.354-3.883-2.506.968-28.808-27.662-45.842-27.71-45.037l-.262 5.448c12.2 8.157 21.784 22.996 22.754 36.202.011.108-5.726-3.571-5.726-3.571 3.415-1.696 2.474-6.092.015-7.282-.77-.345-.815-.511-.432-1.548.787-2.129-.656-5.332-2.642-5.87-.871-.235-1.015-.463-1.057-1.683-.078-2.232-1.315-3.69-3.545-4.18-.615-.136-.62-.141-.654-.91-.188-4.323-4.425-6.084-7.603-3.16-.355.327-.727.948-.727.948l-.024 4.689c1.085-.596 2.732-2.633 3.408-2.55.747.087.385.589-1.294 2.037-1.09.94-2.148 1.93-2.148 1.93l.068 6.175c1.81-1.173 3.622-2.5 5.319-3.678 1.462-1.017 2.21-1.348 2.39-1.055.202.33-.125.762-.955 1.258-2.229 1.482-4.822 3.22-6.696 4.684l-.005 4.253.359.528.106 3.725-.334.082.005 4.694 44.03 28.068 22.406-35.273.368.373-22.41 35.122s.921.791 1.794 1.249c.89.497 2.001 1.159 2.953 1.79.448.733 1.233 1.38 2.075 1.287.771-.84 4.137-1.73 4.46-2.117 12.536-.184 48.52.06 48.52.06l.205 5.744c-1.618-5.57-6.834-6.718-10.934-4.224l-6.735.01c-.052 0-3.985 7.152-4.562 10.886-2.83-.384-6.598 2.369-6.789 5.163-.458 3.975 2.16 6.874 5.581 6.31.062.024-.537 3.938-2.473 6.996-2.568 5.397-3.892 8.416-5.46 13.02-1.06 2.893-.698 3.407-.518 3.479 10.047-.145 19.29-1.116 28.825-4.185 0 0-.176-.678-.262-1.06-.344-1.54.954-4.694 4.621-11.206 2.832-5.03 3.644-6.95 3.927-9.324.144-1.202.118-1.513-.3-3.754-.026-.209-.19-.51-.146-.736.297-1.51 2.6-4.162 2.653-4.098 0 0 .835-.155 1.168-.184 5.195-.364 6.804-7.409 2.42-10.587-2.137-1.306-3.395-1.405-5.659-.812l-.039-27.323 3.158.118 3.47-1.71c5.576 4.752 9.213 9.609 15.216 13.267l-.097.242-4.461-3.053.01 17.902c5.163-2.682 9.977-5.155 14.618-8.907l-.936-.808.04-2.56c4.361.343 4.78-5.198 1.197-5.86 0 0 .082-.446.427-1.151 1.1-2.252 1.236-4.374.436-6.716-.489-1.429-.468-1.788.111-1.785 2.65.014 2.407-4.678-.295-5.705-.93-.353-.864-.06-.674-2.97.143-2.187-.392-3.67-2.012-5.59-.612-.723-.56-1.072.227-1.552 2.262-1.378.623-5.356-2.157-5.24-1.086.045-1.084.044-1.178-1.04-.248-2.85-1.843-5.569-3.933-6.707-.647-.352-.742-.64-.378-1.127 1.78-2.375.116-5.623-2.395-4.674-.487.184-1 .368-1.14.411-.198.062-.358-.215-.741-1.292-1.045-2.93-1.971-3.85-5.295-5.245-.654-.274-.692-.467-.398-1.804.51-2.309-2.676-4.457-4.397-2.966-.701.607-.725.602-1.513-.407-1.572-1.804-4.13-3.062-6.405-3.3-1.089-.097-1.253-.182-1.164-.6.604-2.828-2.153-4.67-4.446-2.97-1.101.816-1.386.84-2.517.208-2.376-1.331-3.417-1.381-3.665-.18-.076 1.001.145 2.186.388 2.923.578 1.987 1.327 2.724 2.967 4.122 0 0-2.721-.753-3.408-.89.067-.07-.198-9.429-1.984-14.728l17.402-27.638 9.969 6.561-15.942 25.165 4.64 1.883s6.196-10.273 9.44-15.31c2.124 25.014 21.502 46.949 39.056 53.456-.06.03.056-3.596.13-5.351-18.52-8.138-36.135-30.877-35.026-58.169l7.438 4.752c2.16 21.874 11.707 34.692 27.623 45.53v-6.701c-10.96-8.095-20.068-18.668-22.483-35.587 0 0 3.716 2.343 5.382 3.454 0 0-.47.268-.713.47-1.989 1.651-1.39 5.04 1.231 6.957.426.312.43.313.03 1.38-.796 2.116.43 4.675 2.501 5.21 1.189.308 1.181.293 1.203 1.65.042 2.636 1.106 3.85 3.927 4.48.386.087.4.127.393 1.307-.016 2.913 2.789 4.872 5.232 3.653.764-.382 3.17-2.39 3.17-2.39v-4.688s-1.089.889-1.876 1.62c-1.378 1.282-1.812 1.44-1.808.658.003-.567.637-1.311 1.959-2.293.685-.51 1.726-1.597 1.726-1.597v-5.462s-.615-.973-.577-2.139c.02-.634.199-1.597.199-1.597l.659.015-.01-6.324-.8-.624.034-4.19-43.536-28.112-22.677 35.989-.567-.663 22.701-35.761-6.032-3.847-3.64 1.79s-25.2-.396-49.777-.082c0 0-.059-.677-.049-2.589.014-2.403.125-2.74.568-1.727.994 2.273 3.463 3.643 6.327 3.513 1.618-.074 1.843-.14 3.642-1.108.668-.36.79-.371 3.942-.349 3.379.025 3.986-.099 3.99-.812 1.176-2.671 2.335-5.77 3.006-8.1.324-1.13.468-1.627.732-1.858.206-.179.367-.138.858-.17 2.163-.138 2.764-.277 4.32-1.794 3.122-3.13 1.332-9.498-3.19-9.523-1.197-.006-.378-3.187 2.153-8.346 2.618-5.338 2.986-6.157 4.34-9.735.884-2.339 1.307-4.016 1.415-5.037h-.76zm-.237 1.544c.626.524-.939 4.38-3.758 10.214-2.327 4.816-3.368 7.225-3.865 8.97l-.455 1.611c-.153.539-.353.804-.888 1.186-.38.27-.909.67-1.178.885-.762.61-.943.417-.756-.813.347-2.28 1.253-4.741 3.345-9.023 1.659-3.408 3.281-7.06 4.544-10.785.283-.87.415-1.754.887-2.076.678-.38 1.395-.305 2.124-.17zm-3.395.222c.432.298-1.615 5.578-5.158 12.91-4.422 9.147-4.657 15.555-.68 17.123 3.137 1.236 6.295-2.212 4.36-4.728-.93-1.209-2.936-1.31-3.632-.058-.38.684.147 1.472.82.513.977-1.395 2.936.216 2.463 1.868-.325 1.133-1.915 2.044-2.9 1.848-4.344-.865-3.526-6.98.98-7.316 4.31-.321 6.271 5.456 3.141 8.763-.992 1.07-2.155 1.604-4.18 1.602-2.806-.004-5.429-2.317-5.163-4.462.371-1.962.428-3.548-.238-5.094-.213-.497-.474-.99-.46-1.617.04-1.738 1.474-4.437 4.674-11.104 1.146-2.389 2.553-6.53 3.249-9.145.245-.764.124-.98.412-1.085.716-.157 1.737-.372 2.312-.018zm-3.7.092c.657.028-.854 4.839-2.758 8.937-1.446 3.138-3.419 7.169-4.887 10.896-.47.79-.784.852-1.746.339-1.06-.566-.746-1.465 1.755-6.43 1.887-3.772 3.7-8.038 4.97-12.334.115-.516.29-.962.718-1.21.653-.284 1.29-.227 1.949-.198zm-3.52.542c.351.462-1.942 6.947-5.488 14.26-.757 1.552-1.27 2.97-2.031 4.557-.366.367-1.777.554-2.483.697-.728-.097-.038-1.46 2.037-5.647 1.69-3.413 2.17-4.378 3.059-6.454.647-1.52 1.59-4.132 2.473-6.571.07-.197.14-.635.33-.736.658-.277 1.46-.39 2.104-.106zm-3.461.406c.057.156-.073.478-.121.726-.558 2.61-1.833 5.04-2.764 7.534-.111.34-1.132 2.463-2.27 4.717-1.136 2.254-2.179 4.406-2.317 4.786-.138.379-.516 1.385-.839 2.235-2.04 4.368.154 7.812 2.857 8.052 4.215.349 4.613-5.549 1.639-6.116-1.122-.188-2.355.426-2.362 1.713-.079.673.75 1.454.739.488-.044-1.757 2.416-1.676 2.72-.184.59 2.909-2.722 4.33-4.696 2.047-.812-.94-.805-2.014-.654-2.976.41-2.603 3.415-4.486 6.201-2.52 3.812 2.687 2.496 8.631-2.429 9.599-1.684.437-3.806-.122-5.135-1.486-.846-.868-1.401-2.147-1.614-3.735-.119-.884-.165-1.924-.03-2.898.4-3.052 2.63-7.51 4.587-11.284 1.51-3.131 2.698-7.268 4.073-10.596.388-.284 2.473-.546 2.415-.102zm-3.719.417c.224.069-.927 3.684-2.57 7.591-1.807 3.963-4.153 8.497-5.484 12.396-.418.957-.723.929-1.915-.179-.629-.584-.275-1.455 1.93-5.946 3.391-6.909 4.65-9.856 5.159-11.501.239-.773.431-1.722.94-2.023.652-.307 1.293-.533 1.94-.338zm-3.39.866c-.358 1.163-1.533 4.61-3.544 8.694-1.26 2.579-2.492 5.435-3.738 8.095-.695 1.642-.715 1.64-1.9 1.887-1.999.416-1.999.394-.233-3.179a166.64 166.64 0 0 1 2.245-4.33c1.31-2.43 3.337-7.163 4.073-9.522.196-.632.47-1.225.79-1.549.205-.109 1.779-.577 2.308-.096zm-4.368.435c.357-.013.679.051.83.247.088.811-2.108 6-3.458 8.404-.412.738-.82 1.693-1.285 2.545-1.72 2.73-3.787 7.979-4.32 10.156-.847 3.46 3.116 6.076 5.172 3.56 1.304-1.522-.053-4.262-1.933-3.497-.656.267-.388.56.508.635 1.48.124 1.592 2.401.024 2.901-1.743.533-3.028-.976-3.021-2.52.013-3.169 3.486-4.333 5.66-2.602 2.168 1.802 2.514 6.086-.77 7.746-3.203 1.618-7.146-.576-7.938-4.413-.605-2.929.05-5.612 2.875-10.127 1.623-2.599 4.145-7.085 5.436-11.022.253-.667.476-1.22.707-1.5.216-.249.918-.491 1.513-.513zm85.845 9.217l-4.3 5.458c1.24 1.79 4.189 5.308 4.189 5.308l4.078-5.255zm.04 3.054l1.779 2.303-2.037 2.4-1.91-2.24zm.16 11.864s-5.2 5.685-4.006 9.904c1.067 3.758 6.733 4.672 8.112-.827.097-.438.02-1.03-.039-1.767-.118-2.24-4.068-7.31-4.068-7.31zm0 1.122s1.492 2.16 2.545 4.074c1.178 1.82 1.487 6.908-2.696 6.75-2.267.233-4.432-2.75-2.628-6.397.49-1.11 2.778-4.427 2.778-4.427zm-85.822.915c.29-.045.58.577.761 1.03.248.616-.46 2.389-1.207 3.27-.142.15-1.097.231-2.516.954-.004-.664.402-2.118.669-2.763.967-.954 1.789-2.09 2.172-2.429a.237.237 0 0 1 .121-.062zm-10.361.319c.638.722 1.266 1.348 1.24 1.795-.037.654-.808 1.462-1.39 2.037-.732.721-2.192.292-2.187-.644.002-.345 2.086-3.19 2.337-3.188zm22.008.939c.617.33 1.243 1.454 1.323 1.964-.905 4.862-4.253 10.805-4.14 10.582 0 0-2.053.365-2.924-.078 2.256-3.124 3.765-7.1 4.79-10.354.44-1.404.64-2.11.95-2.114zm-1.901.682c.345-.02.478.258.19 1.011-1.326 5.377-4.306 11.029-6.648 12.057-3.076 1.352-6.134.23-7.448-2.08-1.422-2.5-1.17-6.447 3.569-7.311 2.787-.285 5.642 1.907 4.155 5.434-1.655 2.615-6.104 1.157-4.8-2.216.985-1.237 3.05-.164 2.376 1.233-.342.71-.012 1.145.494.654 1.623-1.577-1.046-4.281-2.846-2.928-2.936 2.208.69 7.061 4.107 4.98 1.041-.635 2.925-4.195 3.631-6.79.305-1.116.58-2.176 1.3-2.854.686-.645 1.476-1.165 1.92-1.19zm-7.782.213c.168.006.365.09.635.222.343.169.745.476.698.871-.054.458-.315 1.453-.843 1.936-.318-.11-1.196-.46-1.794-.62-.376-.1.124-.908.354-1.355.37-.72.574-1.021.877-1.05.023-.002.049-.005.073-.004zm-9.683.184c.442-.009 1.143.48 1.605.546.09.668-.762 2.097-2.148 3.784-1.136 1.384-1.13 1.386-1.886-.136-.492-.99-.505-.963.897-2.704.754-.936 1.117-1.365 1.445-1.48a.52.52 0 0 1 .087-.01zm4.398.488c.02.357-.162 1.144-.315 1.602-1.572 4.684-5.243 9.325-8.272 10.465-3.953 1.29-7.574-.788-7.666-5.578.1-5.644 6.834-7.209 8.868-2.062.919 2.324-1.584 5.818-3.748 5.236-2.183-.588-3.094-3.989-1.294-4.83 1.18-.55 2.4.373 2.143 1.622-.09.433-.065.492.189.445 1.122-.21.53-2.458-.795-3.02-2.504-1.06-4.395 2.306-2.706 4.815 2.023 3.004 5.204 2.428 7.036-1.277.312-.631.905-1.536 1.314-2.008 1.11-1.282 1.463-1.786 2.443-3.48.54-.932.83-1.522 1.106-1.828.44-.03.74.092 1.697-.102zm8.868.247c.474.004.84.311.83.968-.01.549-.797 2.862-1.164 3.416-.142.212-.47.956-.52.793-.461-1.54-1.288-2.015-1.405-2.42-.138-.473.28-.927.465-1.354.395-.907 1.184-1.408 1.794-1.403zm8.36.73c.572-.004 1.383.258 1.55.683.524.916-3.017 9.448-3.146 9.474l-2.643-.117c1.587-3.401 2.99-6.773 4.01-10.02.07-.012.146-.019.228-.02zm35.452 13.505l3.36 1.993-22.148 35.123-3.22-2.458zm-55.26.726c20.688.076 49.18.038 49.18.038l-1.202 2.28s-31.12-.304-47.978-.272zm-27.928 1.437l-.043 11.544c-2.141-1.87-8.62-5.98-8.652-5.883 0 0 5.583-3.723 8.695-5.661zm88.58 1.146l2.08 1.312-23.273 36.966-1.295-2.536zm-60.647.513h3.24v3.653h-3.24zm7.419 0h3.932v3.653h-3.932zm8.591.039h4.044v3.653h-4.044zm8.432.014h4.088v3.653h-4.088zm8.495.025h4.034v3.653h-4.034zm8.5.077h4.126v2.574l-.626 1.08h-3.5zm22.24 1.19l39.473 25.485-.024 3.517-41.092-26.5zm-2.589 2.98l.34.243-1.673 2.554-.344-.193zm-60.976.378h44.307l-1.334 2.24-42.973-.062zm-36.375 1.142c.299-.019.88.243 1.785.75 2.178 1.22 3.55 3.793 2.608 4.722-.837.827-2.798-.944-4.014-3.474-.645-1.34-.815-1.97-.379-1.998zm78.398 2.206l-14.294 22.8c-3.231-4.42-6.853-8.238-14.764-5.652-4.124-3.182-8.484-3.673-13.125-.973l.053-16.097zm-73.583.01l1.115.963c-.329.628-.48 1.536-.693 2.347-.017-1.111-.114-2.217-.422-3.31zm90.616.237l44.04 28.915v2.68l-45.577-29.301zm-96.459.658c.57-.01 1.127.232 1.547.736.666.799.392 2.263-.543 2.888-1.861 1.246-4.095-1.165-2.618-2.825.463-.52 1.045-.788 1.614-.799zm7.293.344l2.405 1.92c-4.175 23.757 7.75 47.74 33.436 54.927l.29 3.044c.05.145-10.911-3.249-15.7-6.823-6.545-4.418-12.075-10.64-15.888-17.878-2.602-4.667-4.029-9.806-4.95-13.959-1.09-7.125-1.06-14.179.407-21.231zm-2.73 3.222c.922.038 1.022.7.281 1.974-.952 1.638-2.38 2.778-4.693 3.75-1.275.536-1.608.292-1.46-1.064.222-2.04 1.644-3.534 4.107-4.321.591-.164 1.189-.342 1.765-.339zm7.079.257l.955.808a2.001 2.001 0 0 0 .65 3.895 2 2 0 0 0 1.973-1.665c.36.308.697.595.96.823a3.155 3.155 0 0 1-2.933 1.988 3.155 3.155 0 0 1-3.157-3.15c0-1.152.625-2.152 1.552-2.7zm1.605 1.577c.11 0 .215.02.315.048l.698.595c.07.147.112.307.112.48a1.124 1.124 0 0 1-2.25 0c0-.62.504-1.123 1.125-1.123zm-7.579.726c-.26 3.063-.179 6.267-.082 9.473-.593-2.54-1.915-4.442-4.116-5.743 1.52-1.048 3.11-2.323 4.198-3.73zm11.574 2.404l2.138 1.844c-1.838 25.148 20.247 34.691 20.84 34.27l.93 2.846c-15.25-5.18-25.791-20.91-23.908-38.96zm123.015 60.29l-.112 3.167c-17.305-6.7-37.027-31.423-36.776-55.11-4.444 6.797-6.94 11.334-10.755 17.457l-3.036-1.442c4.994-7.423 9.74-15.363 14.748-22.655.57-.824 1.037-1.201 1.063.6-.004 8.15 2.53 41.68 34.868 57.983zm-140.708-58.325c.557-.036 1.353.233 2.357.905 1.583 1.058 3.358 4.33 2.744 5.06-.552.657-2.898-.124-4.063-1.354-2.308-2.438-2.46-4.52-1.038-4.611zm13.494.329a3.15 3.15 0 0 1 3.157 3.145 3.155 3.155 0 0 1-3.157 3.15 3.155 3.155 0 0 1-3.156-3.15 3.15 3.15 0 0 1 3.156-3.145zm7.065.3l2.06 2.41c.403 21.106 17.098 27.614 16.942 27.666l.504 2.27c-.93.13-20.655-8.831-19.506-32.346zm-7.065.842a2.005 2.005 0 0 0-2.007 2.003c0 1.106.899 2.003 2.007 2.003a2.005 2.005 0 0 0 2.008-2.003 2.005 2.005 0 0 0-2.008-2.003zm0 .88c.621 0 1.125.503 1.125 1.123a1.124 1.124 0 0 1-2.25 0c0-.62.504-1.123 1.125-1.123zm10.667 1.912c.254.001 1.445 1.727 1.445 1.727s-1.308.458-1.871-.111c-.56-.565-.259-1.62.426-1.616zm91.412.779l3.093 2.11c1.444 14.239 9.618 27.228 21.945 36.24l-.078 3.527c-15.014-10.124-23.35-23.88-24.96-41.877zm-115.902.242c.05-.004.101-.001.15 0 1.893.031 2.694 2.932.67 3.764-1.274.523-2.658-.232-2.794-1.524-.095-.91.583-1.884 1.503-2.153.163-.048.32-.078.47-.087zm25.814 1.901c.496.002 1.035.286 1.547.861 1.356 1.527 1.344 1.97-.088 2.55-2.013.815-3.686-.317-3.015-2.042.352-.905.918-1.37 1.556-1.369zm-20.612.073c.164-.004.316.018.456.072 1.484.578-1.733 6.459-3.86 7.055-1.35.379-1.634-.148-1.192-2.211.49-2.294 3.016-4.884 4.596-4.916zm9.465.135a3.15 3.15 0 0 1 3.156 3.145 3.155 3.155 0 0 1-3.156 3.15 3.155 3.155 0 0 1-3.157-3.15 3.15 3.15 0 0 1 3.157-3.145zm0 1.142a2.005 2.005 0 0 0-2.007 2.003c0 1.106.899 2.003 2.007 2.003a2.005 2.005 0 0 0 2.007-2.003 2.005 2.005 0 0 0-2.007-2.003zm-7.889.17c.28 2.912.755 5.606 2.051 9.192-1.215-1.94-2.949-2.903-4.61-4.001 1.164-1.73 2.512-3.461 2.56-5.192zm7.889.71a1.124 1.124 0 1 1-1.125 1.123c0-.62.504-1.122 1.125-1.122zm17.862.344c3.292-.07 5.62 2.634 5.474 5.226.097 3.01.205 4.937-.043 8.675l-2.672-4.882c-.038-1.384.198-2.431.092-3.808-.303-3.702-3.939-3.188-4.111-2.82l-1.15-1.863a6.69 6.69 0 0 1 2.41-.528zm11.593.373c3.084-.004 4.871 1.73 4.965 4.814.18 5.905-.135 19.388-.135 19.388l-6.672.005-3.641-9.01s-.145-.866-.117-1.495c.232-2.889.087-6.105.184-8.714.385-2.766 2.663-4.985 5.416-4.988zm-15.438.934c.43-.006.827.125 1.13.43 1.548 1.562 1.539 2.586-.029 3.29-2.074.932-3.152.756-3.86-.629-.693-1.357 1.227-3.072 2.76-3.091zm97.264.425l1.692 1.089s-.356.555-.548.885c-.96 1.65.672 2.618 2.934 1.742.408-.158.756-.382.756-.382l1.396.948s-1.006.543-2.104 1.08c-2.822 1.378-4.85.793-5.532-1.593-.27-.946 0-2.132.528-2.825.27-.355.878-.944.878-.944zm-71.566.199c2.582-.088 5.095 1.925 5.692 4.63.248 1.267-.072 18.019-.072 18.019l-10.246-.005.18-17.574c-.068-1.11 0-2.21.596-3 1.126-1.399 2.497-2.024 3.85-2.07zm-10.638.769c-2.07.095-3.244 3.44-1.115 5.018.89.658.908.782.432 3.009-.544 2.54.019 6.02 1.29 7.979.974 1.621.775.792.276-.653-.642-2.712-.327-4.703 1.24-7.853 1.402-2.654 2.76-6.734-1.696-7.471a2.052 2.052 0 0 0-.427-.029zm85.026.764l.926.625s-.139.115-.34.31c-.37.357-1.107.414-1.333.14-.374-.456.747-1.075.747-1.075zm-73.806 1.297c-2.224-.074-3.689 4.042-.844 5.037.647.417.755.962.354 1.732-.539 1.035-1.078 3.493-.994 4.52.12 1.473.498 3.396.795 4.064.747 1.84.597 1.105.403-1.021-.075-2.376.405-4.089 1.789-6.358 1.645-2.721 3.909-7.147-1.285-7.954a1.817 1.817 0 0 0-.218-.02zm-38.266.015a3.15 3.15 0 0 1 3.157 3.145 3.155 3.155 0 0 1-3.157 3.15 3.155 3.155 0 0 1-3.156-3.15 3.15 3.15 0 0 1 3.156-3.145zm14.629.319c.544-.005.954.356 1.45 1.094 1.362 2.027 1.206 2.443-1.421 3.885-2.783 1.528-4.645-2.315-1.983-4.094.805-.537 1.375-.835 1.842-.88.038-.004.076-.005.112-.005zm-28.888.15c2.936.03 7.522 4.213 5.285 4.82-.32.086-.722.145-.892.135-3.689-.225-7.914-4.99-4.393-4.955zm14.26.673a2.005 2.005 0 0 0-2.008 2.003c0 1.106.899 2.003 2.007 2.003a2.005 2.005 0 0 0 2.008-2.003 2.005 2.005 0 0 0-2.008-2.003zm116.27.59l1.464.992s-.895.41-1.949.972c-2.863 1.526-3.695 2.646-2.706 3.644.354.356.771.51 1.523.227 1.985-.769 3.836-2.124 5.687-3.193l1.101.754c-.025-.05-4.377 3.088-6.754 4.408-3.731 1.912-5.863-1.996-3.787-4.606 1.601-1.589 3.317-2.11 5.42-3.198zm-116.27.29a1.124 1.124 0 1 1-1.125 1.123c0-.62.503-1.123 1.124-1.123zm118.558 1.05l.8.537s-.086.04-2.53 1.442c-2.66 1.525-2.777 1.552-2.924 1.311-.13-.072.05-.695.868-1.243 1.43-.96 3.963-2.128 3.786-2.047zm-69.204.078c1.812-.035 3.658.823 4.713 2.66.537 1.396.583 2.692.577 4.157l-.044 9.837h-10.318s-.479-6.705 0-12.285c.468-2.804 2.742-4.325 5.072-4.37zm-32.045 1.456c.656-.048 1.138.594 1.76 1.984.617 1.376.153 2.155-1.784 2.99-.245.106-.524.183-.62.174-1.96-.186-2.76-2.44-1.354-3.808.873-.848 1.488-1.303 1.998-1.34zm104.866 1.006l.897.557s-.46.415-3.791 2.84c-2.691 1.959-3.079 2.49-2.517 3.59.454.887 1.438.772 2.798-.27 1.886-1.447 4.854-3.896 4.854-3.896l.097 1.674c-1.954 1.566-4.31 4.238-6.187 5.255-3.621 1.78-6.22-3.108-2.91-5.516 2.853-2.076 6.76-4.234 6.76-4.234zm-72.428.005c-2.698-.022-3.7 3.973-.8 4.82.834.446.765.676.208 2.665-.337 1.205-.446 2.69-.262 3.634.217 1.203.485 1.175.373-.116.004-.706.733-2.592 1.46-3.774 2.69-3.741 1.984-7.193-.98-7.229zm-62.839.049c1.78.012 2.775 2.485 1.232 3.551-1.094.755-3.381-.166-3.375-1.36.006-1.017.808-1.985 1.78-2.158.125-.022.245-.034.363-.033zm5.12.208c.56-.002.882.817.878 2.438-.006 2.325-.834 4.351-2.26 5.535-2.064 1.715-2.525-2.958-.596-6.048.804-1.287 1.484-1.925 1.978-1.925zm132.038.614c.509-.008.43.38-.16.789-.457.317-1.233.952-3.636 2.975-.436.368-1.062.847-1.387 1.065-.8.535-1.478.396-1.09-.223.381-.608 5.816-4.599 6.273-4.606zm-120.915.107a3.15 3.15 0 0 1 3.157 3.145 3.155 3.155 0 0 1-3.157 3.15 3.155 3.155 0 0 1-3.156-3.15 3.15 3.15 0 0 1 3.156-3.145zm0 1.141a2.005 2.005 0 0 0-2.007 2.004c0 1.106.898 2.003 2.007 2.003a2.005 2.005 0 0 0 2.007-2.003 2.005 2.005 0 0 0-2.007-2.004zm-37.747.058c21.348 10.771 34.656 30.922 37.941 53.877l10.371-16.417 2.803 1.055-15.113 24.58-.655-.204c-.063-24.013-12.056-46.729-35.395-59.194zm37.747.823a1.124 1.124 0 1 1-1.125 1.123c0-.62.504-1.123 1.125-1.123zm-8.81.13c.933 2.06 2.07 4.222 3.826 6.692-1.78-1.668-3.726-1.596-5.654-1.848zm25.383.446c.331-.016.662.123.921.479.873 1.197 1.034 2.308.427 2.908-.832.821-2.156.497-2.754-.673-.622-1.216.411-2.666 1.406-2.714zm104.692 1.664l.033 1.863s-.398.478-.819.871c-1.19 1.11-2.817 2.882-2.933 3.334-.378 1.469 1.077 2.008 2.511.929a74.155 74.155 0 0 0 1.208-.939v2.293c-1.211 1.027-2.417 2.036-4.068 1.704-.963-.293-1.808-1.049-1.984-2.013-.689-2.89 2.116-4.502 4.291-6.435.702-.624 1.76-1.607 1.76-1.607zm-116.819 1.626c.054-.003.106 0 .16 0a3.15 3.15 0 0 1 3.157 3.145 3.155 3.155 0 0 1-3.157 3.15 3.155 3.155 0 0 1-3.156-3.15c0-1.684 1.33-3.06 2.996-3.145zm63.382.706c1.72-.006 2.63 2.305 1.246 3.615-.544.515-1.773.88-2.468.397-1.918-1.334-.506-3.924 1.222-4.012zm-3.433 1.834c.995 1.054 1.75 4.115 1.164 4.694-1.298 1.336-5.068-3.11-4.843-6.014.4-1.743 3.31.93 3.679 1.32zm-46.13-1.67c.72.005.856.65.693 1.032-.155.362-.72.392-1.168.208-.763-.313-.406-1.244.475-1.24zm-13.659.272a2.005 2.005 0 0 0-2.007 2.003c0 1.106.899 2.003 2.007 2.003a2.005 2.005 0 0 0 2.008-2.003 2.005 2.005 0 0 0-2.008-2.003zm-15.026.88c3.807.005 7.823 2.997 4.33 3.59-2.593.441-4.274-.07-6.293-1.91-1.027-.936-.661-1.432 1.207-1.64a6.76 6.76 0 0 1 .756-.04zm15.026 0a1.124 1.124 0 1 1-1.125 1.123c0-.62.504-1.123 1.125-1.123zm5.27 2.85c.054-.002.111 0 .166 0a3.15 3.15 0 0 1 3.156 3.145 3.155 3.155 0 0 1-3.156 3.15 3.155 3.155 0 0 1-3.157-3.15 3.152 3.152 0 0 1 2.992-3.145zm62.03.16c.9-.015 1.69.154 2.147.571.559.51-.28 1.49-1.992 2.322-2 .974-5.49.838-5.484-.212.007-1.398 3.027-2.643 5.328-2.681zm-75.988.827c1.75.01 2.223 5.424.703 8.018-.789 1.346-1.85.446-2.609-2.211-.622-2.18.571-5.814 1.906-5.807zm14.124.155a2.005 2.005 0 0 0-2.008 2.003c0 1.107.9 2.004 2.008 2.004a2.005 2.005 0 0 0 2.007-2.004 2.005 2.005 0 0 0-2.007-2.003zm65.403.353c.149.003.337.077.587.199 1.91.936 3.298 5.304 2.303 7.253-1.048 2.051-3.405-1.897-3.385-5.671.007-1.234.088-1.731.432-1.776.02-.002.042-.005.063-.005zm-84.488.281c.04-.002.082-.001.122 0 1.727.042 2.983 2.425 1.357 3.648-.711.536-1.806.62-2.477.194-1.324-.84-1.252-2.885.126-3.6.294-.153.59-.23.872-.242zm19.085.247c.62 0 1.125.503 1.125 1.122a1.124 1.124 0 0 1-2.25 0c0-.62.504-1.122 1.125-1.122zm-11.792.377c.945 1.404 4.774 5.11 5.304 5.429-1.692-.546-3.433-.315-5.173-.082.196-1.283.403-3.387-.131-5.347zm61.534.32c25.955 6.062 41.8 33.546 35.535 59.33 0 0-2.185-1.218-2.53-1.8.917-4.462 1.483-11.528.334-18.634-1.949-12.052-11.74-29.738-33.189-35.805-.237-.78-.15-3.091-.15-3.091zm13.986.188c.293 1.764.576 3.54 1.011 5.127-1.828-1.311-3.9-2.438-6.02-3.348 1.515-.318 2.898-.585 5.009-1.779zm7.484.566c1.032-.026 2.083.709 2.06 1.98-.01.559-.608 1.563-1.071 1.8-1.725.878-3.496-.795-2.735-2.585a1.904 1.904 0 0 1 1.746-1.195zm-65.21.683a3.15 3.15 0 0 1 3.157 3.145 3.155 3.155 0 0 1-3.157 3.15 3.155 3.155 0 0 1-3.156-3.15 3.15 3.15 0 0 1 3.156-3.145zm0 1.141a2.005 2.005 0 0 0-2.007 2.004c0 1.106.899 2.003 2.007 2.003a2.005 2.005 0 0 0 2.008-2.003 2.005 2.005 0 0 0-2.008-2.004zm-53.708.3c12.896 7.596 24.465 23.75 25.324 42.018l-3.122-2.037c-1.345-12.304-7.657-25.692-22.304-36.666 0 0 .038-1.182.102-3.315zm71.415 0h16.67v3.586l4.999-2.57v7.93l-4.999-3.018v3.46h-16.67v-3.64l-5.105 2.463.058-7.891 5.047 2.83zm-17.707.581c.621 0 1.125.503 1.125 1.123a1.124 1.124 0 0 1-2.25 0c0-.62.504-1.123 1.125-1.123zm6.556.63c.02-.002.042 0 .063 0l.198 1.141c-.032-.002-.064-.005-.097-.005a2.005 2.005 0 0 0-2.007 2.003c0 1.107.899 2.003 2.007 2.003a2 2 0 0 0 .757-.145l.194 1.147a3.155 3.155 0 0 1-4.107-3.005 3.147 3.147 0 0 1 2.992-3.14zm37.654.396c.055-.002.11 0 .165 0a3.15 3.15 0 0 1 3.156 3.145 3.15 3.15 0 0 1-2.443 3.063l-.19-1.133a2.002 2.002 0 0 0 1.484-1.93 2.005 2.005 0 0 0-2.143-1.998l-.194-1.133c.054-.005.11-.012.165-.014zm22.134 1.064c3.893.021 5.508 2.251 2.318 3.199-1.478.438-3.413.206-5.324-.64-1.594-.703.6-2.572 3.006-2.559zm-81.365.213c.942-.003 1.853.141 2.526.46 1.627.77 1.59 1.292-.15 2.293-2.426 1.397-8.141-.017-6.415-1.587.812-.737 2.47-1.16 4.04-1.166zm21.741.344c.087 0 .172.01.253.029l.349 2.042a1.124 1.124 0 0 1-1.726-.948c0-.62.503-1.123 1.124-1.123zm37.665.401a1.12 1.12 0 1 1 .364 2.177zm6.865.804a3.15 3.15 0 0 1 3.157 3.145 3.155 3.155 0 0 1-3.157 3.15 3.155 3.155 0 0 1-3.156-3.15 3.15 3.15 0 0 1 3.156-3.145zm-61.446.793c.187-.01.399.076.625.261 1.891 1.544 2.834 4.81 2.09 7.239-.71 2.317-3.66-1.798-3.642-5.08.009-1.515.365-2.389.927-2.42zm81.723.276c.261.002.537.2.81.653 1.175 1.952 1.122 5.983-.097 7.238-.691.713-.948.578-1.668-.875-1.23-2.485-.302-7.026.955-7.016zm-20.277.072a2.005 2.005 0 0 0-2.007 2.004c0 1.106.899 2.003 2.007 2.003a2.005 2.005 0 0 0 2.008-2.003 2.005 2.005 0 0 0-2.008-2.004zm-58.94.537c2.383 1.501 4.823 2.871 7.36 4.012-2.374-.56-4.129.235-5.94 1.306.348-1.981-.328-3.592-1.42-5.318zm71.615.424c1.776.25 3.535.541 5.595.154a17.356 17.356 0 0 0-.346 5.335c-1.533-1.98-3.242-3.837-5.25-5.489zm-12.675-.08a1.124 1.124 0 1 1-1.125 1.123c0-.62.504-1.123 1.125-1.123zm-63.968 1.07c1.46.714 1.504 2.482.083 3.406-1.787 1.16-4.116-.877-3.002-2.628.994-1.185 1.684-1.176 2.92-.779zm70.3 1.02a3.15 3.15 0 0 1 3.157 3.145 3.155 3.155 0 0 1-3.156 3.15 3.155 3.155 0 0 1-3.157-3.15 3.15 3.15 0 0 1 3.157-3.145zm18.464.528c.304-.006.621.062.936.227 1.122.587 1.358 2.074.466 2.942-.989.961-2.337.796-3.002-.368-.758-1.328.282-2.776 1.6-2.801zm-30.444.464c15.535 5.277 25.94 22.525 23.433 39.129l-1.94-1.829c1.478-9.41-3.701-27.389-21.004-34.77zm11.98.15a2.005 2.005 0 0 0-2.007 2.003c0 1.107.899 2.003 2.008 2.003a2.005 2.005 0 0 0 2.007-2.003 2.005 2.005 0 0 0-2.007-2.003zm0 .88c.622 0 1.126.503 1.126 1.123a1.124 1.124 0 0 1-2.25 0c0-.62.504-1.122 1.125-1.122zm-59.07.2c.792.069 2.13-.074 2.443.672.353.943-1.585 2.573-4.043 2.893-1.001.06-3.146.313-3.598-.406-.424-.898 2.47-3.132 5.198-3.16zm-49.32.55c2.1-.092 4.467 2.712 2.341 4.999-1.701 1.757-5.183 4.151-5.183 4.151v-1.538s3.411-2.49 3.467-3.61c.007-1.3-1.067-2.035-2.264-1.253-.237.154-1.174.914-1.174.914l.078-2.578c.635-.694 1.755-1.041 2.734-1.084zm53.65.659c1.557.06 5.167 5.613 4.247 6.75-.728.9-3.66-1.096-4.761-3.242-.592-1.152-.414-3.205.3-3.474a.54.54 0 0 1 .214-.034zm24.01.672s.16 12.923-.567 14.143c-2.918 5.271-9.218 2.528-9.756-1.422-.387-2.383-.155-12.697-.155-12.697zm.921 0h10.066s-.045 18.19-.45 19.233c-.331.85-1.793 2.314-2.711 2.715-2.957 1.289-6.117-.54-6.9-3.992-.564-2.49-.005-17.956-.005-17.956zm10.91 0h6.681s.23.965.495 1.757c.463 1.382 2.039 5.346 2.22 5.588.816 1.087.857 12.978.049 14.332-2.947 4.41-7.852 3.126-9.644-1.757-.45-1.564.199-19.92.199-19.92zm7.791.45c11.983 5.68 21.154 17.723 20.006 33.178l-2.201-2.192c.803-10.666-7.334-24-16.83-27.962zm16.5.363a3.15 3.15 0 0 1 3.157 3.145 3.155 3.155 0 0 1-3.157 3.15 3.155 3.155 0 0 1-3.156-3.15 3.15 3.15 0 0 1 3.156-3.145zm11.821.32c1.173.017 2.605.42 3.676 1.301 1.28 1.053 1.458 1.886.465 2.192-1.918.59-4.222.019-5.668-1.403-1.344-1.321-.186-2.116 1.527-2.09zm-11.82.822a2.005 2.005 0 0 0-2.008 2.003c0 1.106.899 2.003 2.007 2.003a2.005 2.005 0 0 0 2.008-2.003 2.005 2.005 0 0 0-2.008-2.003zm-63.14.252c1.682.009 2.453 2.37 1.164 3.566-.528.49-1.971.595-2.599.188-1.726-1.118-.715-3.766 1.435-3.754zm22.222.6c-.557 1.596-1.451 3.398-2.192 4.63-1.984 3.302-1.726 5.515.369 6.634 3.076 1.641 5.31-2.766 2.278-4.495-1.063-.607-1.063-.614-.678-2.25.48-2.042.564-4.477.223-4.52zm40.917.029c.621 0 1.125.502 1.125 1.122a1.124 1.124 0 0 1-2.25 0c0-.62.504-1.122 1.125-1.122zm-30.13.648c-.14-.01-.032.812-.043 2.27-.017 2.352-.214 3.067-1.721 6.222-1.924 4.028-1.668 6.78.718 7.673 1.852.693 3.654-.72 3.665-2.879.006-1.027-.454-1.833-1.159-2.041-.638-.041-1.344-.338-1.294-.644.39-2.405 2.48-6.936-.165-10.601zm39.808.324c1.558.978 3.16 1.906 5.48 2.023-.989 2.363-.888 4.09-1.053 5.975-.992-2.538-2.523-5.346-4.427-7.998zm-118.85.368c.126-.002.25.007.374.024 1.489.231 2.747 2.134 2.347 3.552-.35 1.237-.459 1.446-5.252 4.64-2.66 1.772-2.938 1.848-2.938 1.848l-1.425-.958s1.206-.804 3.117-2.085c3.678-2.467 4.219-3.055 3.84-4.157-.41-1.197-1.786-.946-3.96.726-3.22 2.474-3.555 2.637-3.555 2.637v-1.476s1.411-1.12 2.022-1.645c1.492-1.058 3.554-3.087 5.43-3.106zm95.233.643c.361-.003.639.333.513.654-.06.153-.271.253-.552.251-.578-.003-.608-.821-.034-.9a.554.554 0 0 1 .073-.005zm32.316 1.717c.68 2.329-.784 6.21-1.68 6.707-.954.942-1.551.043-1.758-2.395.005-1.978 2.275-8.158 3.438-4.312zm-38.32-1.305c.293 3.354.399 6.14-1.177 8.864-2.044 3.532-1.514 6.56.674 7.228 2.178.666 4.104-.89 3.719-3.004-.118-.648-1.009-1.705-1.552-1.844-.67-.171-.75-.586-.368-1.916.739-2.576.49-5.839-.626-8.196-.103-.352-.512-1.145-.67-1.132zm7.332 1.117c1.838.01 2.705 2.395 1.329 3.653-.767.702-1.255.384-2.056-1.335-.744-1.594-.515-2.324.727-2.318zm17.116.49a3.15 3.15 0 0 1 3.156 3.144 3.155 3.155 0 0 1-3.156 3.15 3.155 3.155 0 0 1-3.157-3.15 3.15 3.15 0 0 1 3.157-3.145zm0 1.141a2.005 2.005 0 0 0-2.008 2.003c0 1.106.9 2.003 2.008 2.003a2.005 2.005 0 0 0 2.007-2.003 2.005 2.005 0 0 0-2.007-2.003zm0 .88a1.124 1.124 0 1 1-1.125 1.123c0-.62.504-1.122 1.125-1.122zm-13.543.828c.258-.01.509.033.742.145 1.663.802 1.481 3.1-.354 4.47-1.16.869-1.652.568-2.734-1.673-.588-1.216.954-2.884 2.346-2.942zm-96.371.261c.17.005.328.031.48.073 1.714.47 2.8 2.466 2.371 3.982-.945 2.338-4.145 3.124-6.575 4.103l-1.26-.92s1.78-1.01 3.51-1.804c1.62-.744 1.881-1.04 1.76-1.98-.236-1.833-1.124-1.766-5.15.398a45.055 45.055 0 0 0-2.84 1.66l-.893-.731c1.332-.876 2.132-1.36 3.588-2.352 2.431-1.66 3.818-2.375 4.834-2.424.059-.003.118-.006.175-.005zm128.03 1.358c.586 1.777-.61 3.336-2.41 2.637-.977-.379-1.67-1.625-1.063-2.78.81-1.267 3.08-1.048 3.473.143zm-36.129-.617l2.836 5.085s.038 1.415.064 2.201c.108 3.302.816 4.394 2.754 4.074.138-.023.829-.222.829-.222l1.231 2.07s-1.332.581-1.677.654c-2.282.478-5.44-1.232-5.93-3.518-.475-2.211-.107-10.344-.107-10.344zm-92.92 2.09c.857.062.493.715.098.929-1.666.846-3.24 1.767-4.98 2.767l-1.164-.72s.898-.501 1.518-.881c1.906-1.17 3.847-2.068 4.529-2.095zm113.992.653a3.15 3.15 0 0 1 3.157 3.145 3.155 3.155 0 0 1-3.157 3.15 3.155 3.155 0 0 1-3.156-3.15 3.15 3.15 0 0 1 3.156-3.145zm-13.353.43c.726-.02 1.332.291 1.726.944.843 1.396-.05 3.102-2.094 4.011-1.142.508-1.333.403-2.55-1.398-.824-1.218-.819-1.436.091-2.211 1.02-.87 2.004-1.322 2.827-1.345zm-110.777.276l45.204 29.21-1.29 2.187-43.826-28.629zm134.317.378c2.747.052 6.332 3.226 5.062 4.48a.876.876 0 0 1-.582.223c-3.921-.231-8.25-4.775-4.48-4.703zm-10.187.058a2.005 2.005 0 0 0-2.007 2.003c0 1.106.899 2.003 2.007 2.003a2.005 2.005 0 0 0 2.008-2.003 2.005 2.005 0 0 0-2.008-2.003zm-60.37.556l1.197 3.107L3180-165.67l-2.211-1.417zm60.37.324a1.124 1.124 0 1 1-1.125 1.123c0-.62.504-1.123 1.125-1.123zm8.262.373c1.102 2.044 2.937 3.297 5.023 4.176-1.97 1.622-2.961 3.726-2.884 5.927-.5-3.303-.932-6.588-2.139-10.103zM3151-202.741c.482.004.917.104 1.26.339 4.217 2.882.345 5.734-.014 5.51l-1.435-.904c.493-.817 1.614-1.924-.19-2.956-1.022-.446-2.162.09-3.156.779l-1.508-1.031s2.954-1.752 5.043-1.737zm99.426 1.63c.159-.004.314.005.466.034 2.38.46 2.215 2.98-.272 4.147-1.414.664-1.664.53-2.9-1.587-.58-.993 1.172-2.543 2.706-2.593zm-100.187.925c.253.006.577.228.616.435.122.662-1.106 1.326-1.106 1.326l-1.41-.934c.602-.332 1.232-.78 1.9-.827zm126.787.604c.345-.026.597.136.698.547.482 1.958-1.697 5.59-3.71 6.179-1.174.344-1.514-.207-1.129-1.829.54-2.279 2.91-4.8 4.14-4.897zm-72.914.15l3.66 2.652-21.964 34.644-3.8-2.255zm59.77.281a3.15 3.15 0 0 1 3.156 3.145 3.155 3.155 0 0 1-3.157 3.15 3.155 3.155 0 0 1-3.156-3.15 3.15 3.15 0 0 1 3.156-3.145zm0 1.142a2.005 2.005 0 0 0-2.008 2.003c0 1.106.899 2.003 2.007 2.003a2.005 2.005 0 0 0 2.008-2.003 2.005 2.005 0 0 0-2.008-2.003zm0 .88a1.124 1.124 0 1 1-1.125 1.123c0-.62.503-1.122 1.124-1.122zm-50.47.117c2.382 2.681 5.06 8.678 14.41 5.85 3.185 2.59 7.583 4.063 13.004 1.19l.039 16.16-41.51.044zm-75.814.411l40.88 26.849-1.28 2.254-39.638-25.28zm114.763.024c.039 0 .072.003.102.01 2.09.51 2.325 2.594.383 3.392-1.04.426-1.253.32-2.245-1.137-.396-.582-.62-1.064-.563-1.21.14-.357 1.738-1.062 2.323-1.055zm26.231 2.207c.73.004 1.458.39 1.799 1.151.512 1.142.216 2.1-.839 2.734-1.747 1.05-3.7-.878-2.793-2.758.364-.756 1.102-1.132 1.833-1.127zm-25.596 2.191c.964.005 1.773.924 1.304 1.48-.31.37-.71.265-1.222-.323-.6-.69-.635-1.16-.082-1.157zm11.72.402a3.15 3.15 0 0 1 3.156 3.145 3.155 3.155 0 0 1-3.157 3.15 3.155 3.155 0 0 1-3.156-3.15 3.15 3.15 0 0 1 3.156-3.145zm8.892.174c2.379.013 5.675 3.979 5.115 6.155-.183.71-1.517.326-3.103-.89-2.143-1.645-3.53-5.273-2.012-5.265zm-8.893.968a2.005 2.005 0 0 0-2.007 2.003c0 1.106.899 2.003 2.007 2.003a2.005 2.005 0 0 0 2.008-2.003 2.005 2.005 0 0 0-2.008-2.003zm7.646.406c.657 1.92 1.33 3.92 4.296 5.308-4.603 2.14-5.48 5.744-4.79 10.364l-1.076-.658c.986-4.14 1.733-8.855 1.57-15.014zm-7.646.474a1.124 1.124 0 1 1-1.125 1.123c0-.62.504-1.123 1.125-1.123zm-.587 5.057a3.15 3.15 0 0 1 3.157 3.145 3.149 3.149 0 0 1-1.42 2.632l-1.019-.76a2.007 2.007 0 0 0 1.29-1.872 2.005 2.005 0 0 0-4.005-.155l-1.023-.765a3.16 3.16 0 0 1 3.02-2.225zm14.362.401c1.502.008-.833 4.165-2.977 5.298-1.632.863-3.127.93-3.122.14.01-2.066 3.806-5.45 6.1-5.438zm-14.362 1.621c.622 0 1.125.503 1.125 1.123s-.503 1.122-1.125 1.122c-.616-.067-1.117-.55-1.124-1.122 0-.62.503-1.123 1.124-1.123zm13.877 3.789c.74.01 1.473.33 1.785.953.403.805.249 1.525-.49 2.255-1.815 1.791-4.285-.048-3.098-2.308.322-.614 1.064-.911 1.803-.9zm-5.804 1.688c2.529.079 4.442 3.218 3.986 4.994-.401.47-3.186-1.638-3.486-1.854-.356-.628-.377-1.646-.5-3.14zm-3.447 1.945c2.697 1.806 5.343 3.412 7.923 4.752l-7.904 5.066zm-70.548 2.352l42.557.155.005 1.785-43.725.024 1.163-1.964zm-1.735 2.792h2.86v3.479h-3.927v-1.921zm40.893.082h3.443v3.479h-3.443zm-33.78.024h3.917v3.479h-3.917zm8.15.03h4.233v3.478h-4.233zm8.66 0h4.073v3.478h-4.073zm8.698.057h3.88v3.48h-3.88zm-35.434 4.287l47.202.111v2.086l-48.55-.111zm40.273 4.393c4.806-.053 7.606 5.3 3.85 9.058-3.453 3.455-9.213-.957-6.337-4.843 1.606-2.17 5.553-.421 4.567 1.892-.649 1.522-2.775.812-2.71-.837.003-.663-.487-.21-.543.493-.072.893.846 1.88 1.915 1.882 2.789.007 3.207-3.682.519-5.037-2.401-1.21-4.93.334-5.513 3.397-.064.334-.46 1.17-.761 1.761-.888 1.78-1.175 2.807-1.62 4.839-.204.254-.827.66-1.26.876-1.37.683-1.313.395-.8-1.83 1.477-6.405 3.89-10.531 6.841-11.37a7.06 7.06 0 0 1 1.852-.28zm14.212.334c2.967-.063 5.201 2.376 5.591 4.26 1.705 5.734-5.923 9.245-8.58 4.05-1.486-2.969 1.59-6.511 4.41-5.13 2.307 1.13 2.158 4.642-.2 4.63-1.28.06-2.059-1.088-1.352-2.008.366-.363.805-.08.989-.687.077-.255-.286-.458-1.16-.281-1.446.293-1.3 3.204.38 3.784 2.499.863 4.636-1.768 3.446-4.37-1.43-3.128-5.302-3.141-7.074.131-.257.476-.66 1.155-.882 1.457-2.642 3.577-2.85 4.113-3.637 6.106-.078.198-.216.346-.455.32-.728 0-1.442.157-1.93.347-.33-.087.109-1.341.14-1.437 1.8-5.545 6.423-11.037 10.314-11.172zm-22.993 1.558c-.626 1.09-2.51 4.628-3.816 9.856-.344-.213-1.27-.598-1.939-.832-.254-.088-.047-.38-.063-.822.475-2.359 2.002-6.48 3.685-8.58.357-.261 2.654-.344 2.133.378zm2.691 1.045c-1.611 2.054-3.295 7.51-3.646 10.326-.053.425-.13.896-.174 1.045-.252.842-1.831-.966-1.824-2.086.013-1.9 2.124-7.692 3.632-9.904.526-.77.588-.899 1.712-.939 1.804-.045 1.011.653.3 1.558zm-78.814-1.354c-.398.01-.794.061-1.183.154-2.335.578-5.117 3.047-5.387 5.666-.128.08-.447 1.911-.243 2.84.772 3.516 2.827 5.9 5.344 9.387 0 0-3.16 4.889-5.33 7.147l5.13 7.407c-1.418 2.796-3.885 4.911-4.504 8.361-.967 4.543 1.416 8.97 6.488 9.377 3.784.114 6.265-2.438 6.735-6.304.191-2.57-.869-5.793-4.68-10.887-.188-.252-.557-.774-.557-.774s.428-.501.655-.837c1.34-1.81 4.834-6.232 4.834-6.232l-5.222-7.37s.226-.494.63-1.044c4.262-5.8 5.056-8.75 4.3-11.632-.297-1.136-1.004-2.01-1.963-2.98-1.55-1.57-3.323-2.32-5.047-2.28zm-.122.71c1.666-.023 3.384.642 4.776 2.096 3.203 3.344 2.92 6.172-1.24 12.357a75.349 75.349 0 0 0-1.81 2.85l5.252 7.239c-1.722 2.43-3.682 4.584-5.48 7.146.91 1.394 2.389 2.883 3.317 4.558 1.122 1.897 1.79 3.789 1.988 5.52.419 3.643-1.954 7.522-6.012 7.617-3.939.027-6.937-3.248-6.851-7.36.038-1.833.797-3.527 1.72-5.177.945-1.68 3.157-4.945 3.157-4.945l-5.081-7.393 5.382-7.17s-3.914-4.783-5.115-8.231c-.976-3.915.853-6.147 1.095-6.488 1.193-1.676 3.015-2.59 4.902-2.618zm-3.33 10.388c.782 2.031 2.053 3.543 3.492 4.986 1.334-1.556 2.822-3.602 3.639-5.555 3.933-9.403-11.258-10.17-7.13.569zm3.434 4.062c-1.927-2.238-3.289-4.098-3.42-7.05-.212-5.845 7.445-5.189 7.065.038-.427 2.845-1.924 4.645-3.645 7.012zm94.906-9.19c.147.823.95 2.217.882 2.545-.373.864-.916 1.293-1.673 2.715-.159.303-.085.365-.509.29-.399-.056-1.1-.275-1.474-.382-.214-.062-.46-.178-.359-.45.727-1.667 1.54-3.654 3.133-4.718zm-12.694 2.516l-.901 2.332c-.086.25-.095.292-.359.237-.513-.065-.963-.105-1.475-.067-1.117-.137.987-4.303 1.303-4.934.457.076 1.133 1.856 1.432 2.432zm.848.537a.281.281 0 0 1 .058 0c.46.06 1.142.307 1.649.528.28.115.288.123.165.47-.258.513-.576 1.992-.917 2.51-.01.075-1.592-.938-2.042-1.134-.017-.281.5-2.295 1.087-2.374zm13.416.276c.523.018 1.17.493 1.523.765.166.328.015.657-.567 1.66-.515.886-1.053 1.843-1.183 1.741-.391-.306-1.116-.702-1.474-1.195-.268-.367.24-1.306.586-1.82.545-.81.808-1.102 1.115-1.15zm-8.533-.118c.484.108-.283 2.595-.427 2.905-.457.683-1.17 1.583-1.736 1.945-.289.185-1.179-.345-1.158-.967.014-.442.861-2.67 1.143-3.262.041-.086 1.636-.611 2.178-.62zm-19.739.95c.108-.003.217-.001.325.005 1.9-.055 3.855.88 5.086 2.971.582.989.59 1.031.456 1.955-.314 2.17-.205 3.629.368 4.96.654 1.514.556 2.034-1.042 5.404-1.603 3.393-3.55 7.525-5.028 11.356a40.593 40.593 0 0 0-1.634 5.022c-.248.957-1.418.67-2.584.624-.593.13.855-3.852 3-8.612 1.719-3.81 4.055-8.102 4.987-12.365.76-3.476.517-4.905.1-6.365-1.608-4.247-7.204-3.206-7.19.706.12 2.535 3.058 3.893 4.135 1.408.18-1.142-.385-.477-.858.078-1.013 1.189-2.75-.133-2.477-1.887.359-2.304 3.34-3.061 4.78-1.239 1.579 1.996 1.232 4.054-1.047 5.598-2.348 1.721-4.486.743-5.658-1.045-2.504-4.014.92-8.47 4.281-8.574zm11.613 1.684c2.33.048 4.86 1.997 5.27 3.54.22 1.048-.118 2.28.257 3.292.312.811.612 1.278.388 1.998-1.918 6.16-6.447 12.73-8.684 20.022-.258.508-.494.572-1.072.736-.894.254-1.243.227-1.338-.238-.09-.444.21-1.285.732-2.864.626-1.89 2.01-5.13 2.822-6.653 1.892-3.547 2.946-5.973 4.32-9.004.257-.566.33-.902.733-1.718 1.731-3.504-.225-6.958-3.812-6.977-2.84-.015-4.111 4.426-1.624 5.724 2.433 1.27 4.249-2.066 2.085-3.247-.522-.285-.656-.013-.237.489.963 1.155.098 2.708-1.242 2.09-2.075-.957-1.006-4.485 1.416-4.282 3.74.315 4.226 5.742.412 7.118-5.243 1.89-7.993-6.533-3.06-9.368a5.081 5.081 0 0 1 2.634-.658zm11.045.17c1.38-.035 2.829.455 4.02 1.596 2.931 2.81 2.15 7.146-2.803 15.532-1.623 2.81-3.205 6.185-4.068 8.651-.215.615-.395.927-.883 1.195-.859.473-1.832.532-1.959.199-.322-.853 2.133-6.15 6.502-14.472 1.15-2.218 2.6-4.793 2.527-7.432-.289-2.096-2.035-3.603-4.374-2.918-1.574.461-2.217 2.677-1.057 3.793.484.467 1.08.711 1.464.673.726.023 1.55-.692.146-.77-1.484-.007-1.99-1.869-.737-2.709 1.801-1.207 3.87.216 3.724 2.565-.301 4.722-7.212 4.018-7.395-.847-.113-3.01 2.258-4.99 4.893-5.056zm-19.526 7.562c1.045-.08-.753 5.535-3.893 11.835-1.714 3.489-3.012 7.238-4.345 10.887-.361.488-2.525.577-2.52.072 3.84-12.277 6.552-14.391 7.864-19.068.229-.808.395-1.975.426-2.076.97-.278 1.788-1.438 2.468-1.65zm-71.08.828l-4.069 5.293 3.971 5.622 4.126-5.375zm88.09 1.635c-.004.634-1.223 3.686-2.134 5.52-3.985 8.025-4.975 10.19-5.663 12.33-.125.385-.326.64-.577.735-.496.184-1.878.45-1.993.26.842-4.69 7.292-15.36 8.543-20.035.502-.023 1.781.738 1.823 1.19zm3.19-.489c.27-.02.378.09.3.45-.125.582-.82 1.95-2.031 4.326-3.357 6.583-5.117 10.483-5.678 12.488-.131.47-.212.838-.437.958-.461.245-2.075.894-2.152.194.504-2.976 2.469-4.913 7.55-17.322.237-.408.445-.607.668-.644.625-.102 1.166-.399 1.78-.45zm-13.77 2.038c-.129.766-1.009 2.372-2.464 5.336-2.42 4.932-3.986 8.608-4.935 11.869-.155.53-.366 1.086-.573 1.229-.393.271-2.157.189-2.157.189-.268-1.349 1.861-6.378 4.233-11.666 1.29-2.876 2.785-5.743 3.788-8.323.688.102 2.012.761 2.107 1.366zm3.59-1.27c.719-.007.161 1.197-1.559 4.588-1.395 2.752-3.62 6.612-5.057 11.047-.375.977-.816 2.19-.98 2.7-.21.657-.407.982-.678 1.117-.519.259-1.773.244-1.993-.024-.35-.426 1.507-5.417 3.316-9.251 1.598-3.222 2.722-5.809 4.102-8.787.378-.591.394-.632.778-.709.798-.063 1.624-.596 2.072-.681zm-81.033.64l2.095 2.797-2.459 3.053-2.046-2.97zm-.315 12.063s-.89 1.022-1.804 2.641c-2.676 4.447-2.75 7.729.408 9.677 1.332.677 3.068.53 4.165-.425 3.575-3.113.917-7.388-1.392-10.287-.613-.851-1.377-1.606-1.377-1.606zm.13 1.137c1.341 1.578 2.322 2.763 3.216 4.746 1.027 2.665.368 4.76-1.62 5.743-3.142 1.556-6-1.937-4.51-5.665 1.106-2.763 2.915-4.824 2.915-4.824zm87.99 5.264c.294.56-29.907 7.532-52.187 1.548l-13.557 19.577 78.267-.136zm-1.145 1.389s7.275 12.566 10.846 18.72h-5.018l-7.152-15.28a79.674 79.674 0 0 1-11.423 2.317l2.545 12.963h-3.757l-2.124-12.387c-5.482.422-11.065.583-16.767.421l-2.458 11.966h-3.932l2.521-11.884c-4.328-.582-8.636-1.132-13.033-1.853l-7.375 13.737h-5.551l11.573-17.24c17.278 3.46 33.211 2.646 51.105-1.48zm-2.735 6.744l5.673 11.976h-10.744l-1.979-10.684zm-45.999.871l9.392 1.215-2.424 9.89h-12.684zm30.663 1.476l1.29 9.629h-16.185l1.799-9.44z"/><path d="M3165.365-350.164c-9.185 13.115-19.013 20.662-19.176 30.894-.055 3.314 1.735 8.945 7.338 10.023 3.636.696 8.642-2.25 8.746-8.236-.016-1.192 1.26-1.16 1.249.472-.172 4.722-1.664 10.219-4.173 14.694h12.032c-2.509-4.475-4.001-9.972-4.173-14.694-.012-1.633 1.264-1.664 1.248-.472.105 5.986 5.11 8.932 8.746 8.236 5.604-1.078 7.393-6.71 7.339-10.023-.164-10.232-9.991-17.779-19.176-30.894zM3268.436-104.53c-9.185-13.116-19.013-20.663-19.176-30.895-.055-3.313 1.734-8.945 7.338-10.022 3.636-.697 8.642 2.25 8.746 8.236-.016 1.191 1.26 1.16 1.248-.473-.17-4.721-1.664-10.218-4.172-14.693h12.032c-2.509 4.475-4.002 9.972-4.173 14.693-.012 1.633 1.264 1.664 1.248.473.105-5.986 5.11-8.933 8.746-8.236 5.604 1.077 7.393 6.709 7.339 10.022-.164 10.232-9.991 17.78-19.176 30.894z"/></g></svg>