<svg xmlns="http://www.w3.org/2000/svg" width="63mm" height="88mm" viewBox="0 0 223.22835 311.81102"><g transform="matrix(.99554 0 0 .9968 -1301.59 470.399)"><rect ry="10.664" rx="10.678" width="223.228" height="311.811" x="1307.925" y="-471.408" fill="#fff" stroke="#000" stroke-width="1.001"/><path d="M1367.773-438.713c-9.226 13.157-19.098 20.728-19.262 30.993-.055 3.324 1.742 8.973 7.371 10.055 3.652.698 8.68-2.258 8.785-8.263-.015-1.195 1.266-1.164 1.254.474-.172 4.737-1.671 10.252-4.191 14.74h12.086c-2.52-4.488-4.02-10.003-4.191-14.74-.012-1.638 1.27-1.67 1.254-.474.105 6.005 5.133 8.961 8.785 8.263 5.629-1.082 7.426-6.731 7.37-10.055-.163-10.265-10.035-17.836-19.261-30.993zM1325.142-421.435c-4.31 5.482-8.922 8.637-8.999 12.914-.026 1.385.814 3.739 3.444 4.19 1.706.29 4.056-.941 4.105-3.443-.01-.498.591-.485.585.197-.08 1.974-.78 4.272-1.958 6.142h5.647c-1.177-1.87-1.878-4.168-1.958-6.142-.01-.682.593-.695.585-.197.05 2.502 2.399 3.733 4.105 3.442 2.63-.45 3.47-2.804 3.444-4.189-.077-4.277-4.689-7.432-9-12.914zM1513.937-209.57c-4.31-5.482-8.923-8.637-9-12.914-.025-1.385.815-3.74 3.445-4.19 1.706-.29 4.055.94 4.104 3.443-.01.498.591.485.586-.197-.08-1.974-.781-4.272-1.958-6.142h5.646c-1.177 1.87-1.878 4.168-1.958 6.142-.01.682.593.695.586.197.049-2.502 2.398-3.734 4.105-3.443 2.63.45 3.47 2.805 3.443 4.19-.077 4.277-4.689 7.432-8.999 12.914zM1471.306-438.713c-9.226 13.157-19.098 20.728-19.262 30.993-.055 3.324 1.742 8.973 7.371 10.055 3.652.698 8.68-2.258 8.785-8.263-.016-1.195 1.266-1.164 1.254.474-.172 4.737-1.671 10.252-4.191 14.74h12.086c-2.52-4.488-4.02-10.003-4.192-14.74-.012-1.638 1.27-1.67 1.254-.474.105 6.005 5.133 8.961 8.785 8.263 5.63-1.082 7.427-6.731 7.372-10.055-.164-10.265-10.036-17.836-19.262-30.993zM1367.773-192.292c-9.226-13.157-19.098-20.729-19.262-30.993-.055-3.324 1.742-8.974 7.371-10.055 3.652-.698 8.68 2.257 8.785 8.262-.015 1.196 1.266 1.165 1.254-.473-.172-4.737-1.671-10.252-4.191-14.741h12.086c-2.52 4.49-4.02 10.004-4.191 14.74-.012 1.639 1.27 1.67 1.254.474.105-6.005 5.133-8.96 8.785-8.262 5.629 1.081 7.426 6.73 7.37 10.055-.163 10.264-10.035 17.836-19.261 30.993zM1471.306-192.292c-9.226-13.157-19.098-20.729-19.262-30.993-.055-3.324 1.742-8.974 7.371-10.055 3.652-.698 8.68 2.257 8.785 8.262-.016 1.196 1.266 1.165 1.254-.473-.172-4.737-1.671-10.252-4.191-14.741h12.086c-2.52 4.49-4.02 10.004-4.192 14.74-.012 1.639 1.27 1.67 1.254.474.105-6.005 5.133-8.96 8.785-8.262 5.63 1.081 7.427 6.73 7.372 10.055-.164 10.264-10.036 17.836-19.262 30.993zM1325.372-424.575v-2.914h2.631v-4.808h-13.158v-3.393l14.238-21.88 2.326.011v21.87h4.028v3.392h-4.028l-.076 4.808h2.205v2.919h-8.166zm2.631-24.985l-9.04 13.872h9.04v-13.872zm0 0M1513.706-206.43v2.914h-2.631v4.808h13.158v3.393l-14.238 21.88-2.326-.012v-21.869h-4.028v-3.392h4.028l.076-4.808h-2.205v-2.919h8.166zm-2.631 24.985l9.04-13.872h-9.04v13.872zm0 0"/></g></svg>