<svg xmlns="http://www.w3.org/2000/svg" width="238.11" height="332.599" viewBox="0 0 223.22771 311.81164"><g transform="matrix(.99553 0 0 .9968 -3617.013 30.846)"><rect y="-30.445" x="3633.736" height="311.811" width="223.228" rx="10.678" ry="10.664" fill="#fff" stroke="#000" stroke-width="1.001"/><path d="M3663.73-6.117c.086 79.373-.057 176.707 0 263.155h163.254V-6.117zm47.782 1.494c28.175.769 56.525-.063 84.908.16 0 0-10.312 18.063-13.438 23.749-.684 1.25-.754 2.135-.385 2.653.57.803.524 2.16-.115 2.944-.274.336-.399.554-.42.756-.02.2.16.42.304.784.505 1.732-.798 2.93-2.162 3.486-.914.373-2.95.619-4.453.547-9.42-.45-27.893-8.454-35.504-9.078-5.282-1.483-12.107-.965-17.733-.644-1.062.064-.876-2.426-.876-2.426-.887-8.224-6.679-15.384-10.126-22.931zm86.44.905h26.948V.48l-11.406 11.548c-1.055 1.08-1.888 1.975-1.888 1.975l-.067 10.42c-7.637-4.127-9.159-9.058-10.554-14.482-12.766 9.472-13.364 30.2.573 40.87.114-4.635 3.627-13.743 9.851-14.419l.087 36.107-7.655-7.52-16.645.218c2.744-4.477 2.806-8.034 1.03-12.23-2.992-6.858-7.61-22.51-7.255-22.457 0 0 .132-.337.51-.422 1.38-.309 2.257-1.648 1.863-3.258-.075-.519-.072-.397.28-1.07 1.354-2.324-.26-4.847-.26-4.847zm-88.308 0l9.99 18.225s-.13.833-.076 1.322c.079.703.312 1.33.712 1.985.265.434.46 1.026.52 1.574.1.901.1.902 1.411 2.091.276.25.328.404.226.664-.434 1.103-.18 3.359.68 6.052 1.084 3.402 1.364 3.357-.656 7.907-.42.95-.93 2.218-1.478 3.384-2.493 5.15-2.878 6.547 1.401 9.292 1.205.773 1.558 1.443 1.257 2.983-.237 1.21-.285 1.985.294 2.668.375.442.715.515.62.857-.063.232-.343 1.24-.25 2.086.252 2.283-2.37 5.645-4.761 6.823-.479.341-.616-.076-.886-.552-2.479-4.365-8.647-2.596-9.057 2.61-.108 1.376-.066 1.973-.419 2.266-.12.099-.481.305-.481.305s-9.232 6.037-15.104 9.141c-.383.202-.727.536-.997.59-.312.064-.543.007-.736-.188-2.168-4.146-.966-9.042-.78-10.778-.047-.615-.57-.727-1.358-.736-1.335-.016-3.256 1.346-3.674 2.615-.355 1.078-.583 1.776-.905 1.772-.324-.005-.481-.44-1.286-1.995-1.673-3.236-1.93-3.646-3.495-5.525-1.248-1.499-2.311-1.697-3.534-.58-.85.775-.822.1-1.546-.291-1.249-.855-3.126-.09-3.173 1.113-.039 1.01-.047 1.769-1.064 1.835-1.132.075-1.623 1.545-1.304 3.641.167 1.104.2 1.281-.135 1.685-1.095 1.32-1.238 2.23-.636 4.073 1.717 5.25 4.205 8.783 6.543 13.557 0 0-5.771 3.39-9.297 5.36V-3.718zm115.434 5.254l.14 84.85-12.75-12.604s-.248-16.26-.236-22.907c.013-6.648.109-13.295.082-14.531-.027-1.236.066-6.496.106-11.897.084-11.313-.946-9.914 1.146-12.085zm-24.917 10.172l.703 2.048c-5.342 3.08-11.879 20.234.12 32.829l-.24 2.595c-12.577-11.473-10.25-27.925-.583-37.472zm.915 2.421c1.834 3.806 3.92 7.176 6.765 9.239-1.532 3.677-2.19 7.733.404 13.204-1.82 1.004-4.349 3.67-6.967 9.131-9.469-9.619-7.36-23.566-.202-31.574zm-70.444 7.19c5.251.01 10.728.87 15.749 2.392 3.166 16.099 8.728 26.922 8.705 33.226 0 0-.439-.074-1.372-.75-2.288-1.662-5.292-.735-6.9 1.38-1.525 2.003.011 4.79-.77 5.96-1.48 2.18-5.285 6.21-5.923 6.076-.463-.097-.389-.3 1.243-2.818 1.699-2.621 3.001-4.997 2.44-5.578-.237-.246-.363.274-1.631 2.489-2.977 5.198-5.594 8.412-6.63 7.994-.486-.196-.235-.626 1.969-3.554 2.489-3.306 3.18-5.375 2.932-6.29-.19-.703-.575.434-1.608 2.465-1.1 2.15-3.09 4.546-4.7 6.846-.51.833-1.164 1.315-2.002 1.695-.622.27-1.612.713-2.186.64-.295-.039-.091-.213.313-.61 3.175-3.289 5.904-6.955 7.453-10.474.24-.462-.104-1.119-.496-.634-2.375 4.203-5.682 9.447-9.273 11.76-.77.497-1.93.917-2.976.829-1.767-.051-1.142-.447.467-1.487 3.446-2.226 8.281-8.626 9.062-10.89.184-.534-.021-.84-.361-.803-2.835 4.56-6.58 9.58-10.935 11.679-2.346 1.131-5.304 1.354-6.76.639-1.066-.524-.798-.705 1.093-.828 4.553-.452 9.887-4.75 12.528-9.297 1.547-2.517.462-1.94-1.304.49-3.015 4.145-9 8.119-12.711 7.805-3.754-.224-5.914-3.149-5.431-5.656.291-1.516 1.362-3.062 3.461-3.505 3.595-.759 5.948 4.967 2.658 6.047-1.12.368-1.547.09-1.14-.363 2.44-1.074 1.355-4.022-.704-4.324-1.295-.19-2.796.688-2.86 2.707.038 1.505 1.27 2.976 3.741 3.012 2.93.041 7.426-2.08 10.155-5.985 1.936-2.985.153-1.977-1.29.015-1.274 1.757-5.388 4.215-5.701 4.125l.14-2.024c.062.35 6.332-3.968 5.965-7.18-.236-2.333.103-3.046 2.518-3.017 1.805.022 4.1.658 4.766 1.491.688.824 1.458 1.084 1.117-.305-.553-2.254.11-2.626-1.189-2.198-.896.295-1.692-.429-2.59-1.07-.989-.706-2.24-1.008-3.732-.954-1.114.04-1.617-.027-1.44-1.085.126-.745.269-1.423.054-1.912-.35-.795-1.745-1.616-3.322-2.784-1.862-1.38-1.518-1.46 2.45-10.657 1.666-3.862 1.673-4.654.674-7.505-1.578-4.505-1.826-6.31 1.132-6.939a44.39 44.39 0 0 1 5.152-.285zm16.798 2.61l1.536.441c.012.001 4.796 16.466 7.535 24.505.836 2.453 1.473 5.767 1.632 8.88-.075 4.286-2.475 7.362-5.402 7.699-2.072.238-4.32-.843-5.349-3.162-.868-2.205-.214-4.807 2.287-5.704 4.33-1.553 7.5 4.003 3.255 5.714-2.196.884-4.283-.71-3.293-2.567.693-1.301 2.644-1.16 3.105.184.376 1.431.998.756.732-.213-.805-3.086-4.749-2.36-5.065.484 0 3.524 3.836 4.351 6.124 2.373 1.773-1.582 1.96-4.44 1.517-6.92-.609-5.15-3.508-11.83-5.566-19.454-1.028-3.807-2.516-8.345-3.048-12.26zm61.114.184l2.884 1.148-.067 9.558-2.446.847c-3.2-4.918-.539-11.548-.37-11.553zm-58.456.62l2.114.818c1.157 6.747 6.615 19.644 8.541 29.27.537 5.785.623 7.483-3.274 10.565v-.044h-2.109s-.01-.13.915-.823c5.103-3.838 2.057-12.296.13-18.796-3.358-10.382-6.358-21.003-6.317-20.99zm-19.755.673c-.268.003-.54.014-.814.03-3.188.171-3.711.377-3.721 1.074-.02 1.313.516 1.896 3.48 1.574 2.567-.28 6.284.121 8.845 1.23 2.922 1.264 3.616 1.562 4.666 2.106 2.636 1.365 2.176.007-.207-1.569-4.868-3.219-8.232-4.494-12.249-4.445zm23 .465l1.984.76s.524 1.555.712 2.445c1.93 8.613 7.181 18.299 7.796 28.374.138 3.301-.425 6.38-2.832 7.868h-1.815c1.94-1.94 3.234-2.502 2.692-9.248-.86-8.665-6.542-19.49-8.537-30.199zm3.52 1.4l1.83.677c2.106 11.631 12.552 29.01 5.902 37.394h-1.66c1.482-2.326 2.094-4.37 1.872-7.51-.646-10.568-6.007-20.825-7.944-30.562zm3.067 1.07l1.969.605c2.673 11.784 12.947 31.094 5.624 36.435l-1.445-.039c5.518-10.373-2.847-21.107-6.148-37.002zm3.433 1.098c.604.339 1.469.5 2.128.693 2.072 8.91 5.86 17.673 7.583 25.972.58 4.543-.411 7.946-3.25 9.238h-.607c2.548-3.867 2.067-8.745.708-14.017-1.828-7.09-5.379-14.89-6.562-21.886zm-31.027.155a9.107 9.107 0 0 0-2.884.456c-1.036.393-.909 1.215.053 1.045l1.286-.227c2.362-.414 5.274.442 8.801 2.59.852.52 1.778 1.019 2.008 1.191.648.487 1.34.485 1.103-.135-.095-.248-1.455-1.308-2.658-1.985-2.573-1.564-4.964-2.909-7.709-2.935zm34.373.775l1.984.305c3.731 17.245 11.921 27.96 4.915 34.358h-1.752c1.917-1.969 2.783-5.052 2.147-8.696-.648-3.72-2.56-9.624-4.145-14.816-1.838-6.019-3.318-11.109-3.149-11.15zm2.845.484l1.68.315c1.97 7.01 5.312 15.699 7.324 22.936 1.238 4.451.74 9.933-2.022 10.943l-1.42.024c2.344-3.15 2.679-6.432 1.608-10.676-2.199-8.711-5.527-16.314-7.17-23.542zm10.371.01c1.698 7.267 5.773 18.353 7.237 22.18 1.948 3.91 1.364 9.698-1.565 11.99l-1.386.028c1.675-1.575 2.25-4.227 1.983-6.977-.754-7.77-6.223-18.547-8.204-26.824zm-7.37.344l1.732.16c1.736 7.6 5.112 14.99 7.304 22.592.409 1.716.764 3.812.621 5.355-.3 3.235-1.632 5.786-2.802 5.786h-1.194c2.439-2.922 2.32-6.907 1.276-11.19-1.725-7.078-5.898-15.612-6.938-22.703zm-45.13.039c-.722.003-.735.668.42 1.684.705.622.65.415.61.81-.17 1.683.093 3.223.78 1.49.184-.462.454-.984.723-.92.509.158.25 1.098.496 1.574.415.839-.026 1.044-1.035.784-.727-.186-.768.21-1.219.712-.789.881-.66 1.407.554 1.133.2-.045.37.013.525.049.379.087.725.329 1.627 1.021 1.16.89 2.802 2.075 3.867 2.257 1.705.29 1.325-.532-.072-1.07-1.198-.462-2.683-1.743-2.677-2.097 0-.272.38-.11 2.537-.707.936-.259 2.252-.837 2.807-1.094.916-.424.96-.42 2.393-.378 2.442.073 2.815-.01 1.102-1.288-3.46-2.581-8.077-4.262-10.525-3.19-.742.324-.725.125-1.261-.185-.701-.404-1.273-.587-1.651-.585zm49.525.232c2.398 9.29 7.037 17.615 8.166 26.427.255 2.52-.166 4.983-2.249 7.113l-1.406.024c-.206.003 1.963-3.37 1.777-6.256a16.48 16.48 0 0 0-.549-4.822c-2.725-7.835-5.408-14.936-7.492-22.404zm-43.157 3.071c.546.1.552.365.373.686a65.58 65.58 0 0 0-.78 1.482s-.663.13-.8-.039c-.225-.33.54-1.904.98-2.125.074-.042.155-.017.227-.004zm1.51.28c.072-.002.162.036.303.092.628.249 1.718.76 1.247 1.157-.558.469-2.72.68-2.615.484l.722-1.341c.154-.285.221-.39.342-.392zm-6.621 8.12a.303.303 0 0 0-.14.038c-.125.076.159.58.573 1.153 1.913 2.594-.735 3.364-2.61 1.975-1.779-1.392-4.527-1.26-4.13.199.14.514 0 .764.996.78.883.012 1.111.062 1.907.61 3.044 2.093 6.976-.71 5.055-3.715-.362-.567-1.26-1.063-1.651-1.04zm7.511 4.052c-1.105 0-1.803.83-.419 1.077 4.944.893 1.629 6.048-1.858 3.392-3.143-2.852-7.346-2.832-7.396-.808-.01.509.016.526.76.668 1.752.332 4.368 1.133 5.37 1.641.588.299 1.208.578 1.376.62 2.094.765 4.78-.23 5.312-2.003.486-1.623.094-4.587-3.145-4.587zm-62.019 16.588c.662.008 1.366.59 1.868 1.443 1.16 1.97 2.572 5.283 3.472 7.108.227.46.235.871.221 1.09.071 1.07.428 1.474 1.06.992.62-.474 1.482-1.267.471-1.394-1.016-.77-1.583-1.902-.953-2.59.463-.508.282-.837-.091-.858-1.425-.02-3.548-4.282-2.547-5.2 1.35-1.238 2.844.296 6.023 6.638 1.401 2.802 1.466 5.867.265 4.348-.408-.382-.325-.184-.804 1.022-.36.907-.655 1.337-2.027 2.663-1.67 1.615-2.683 2.892-2.72 3.172-.072.535.902.035 1.613-.896 1.587-1.56 1.646-1.975 1.632.092-.013 1.87-.109 2.21.226 2.198.522-.02.801-1.498 1.045-3.283.29-1.607 1.121-2.418 2.504-3.312.379-.245.385-.414.312-1.123-.255-2.27 1.029-6.504 1.613-5.457.082.236.337.786.472 1.172.11.598.484 1.272 1.055 1.317.71.534.707.823.953 2.78.08.638.361 1.596.559 2.106.367.948.695 1.503.49 1.786-.129.14-.404.402-.404.402l-11.574 6.9s-.91.505-1.238.644c-.917.416-1.475.108-1.926-.581-2.452-3.674-4.136-7.8-5.86-11.606-1.034-2.26-.021-3.754 1.315-1.932.52.708.254 1.16 0 2.527-.047.248.182.153.612.223.676-.073 1.002.534.977 1.564-.427 1.476.163.679.443.605.535.008.654.331.953.944.187.864.565.614 1.117.044.456-.471.458-.46-.462-1.564-1.589-1.731-3.792-5.639-4.362-8.018-.157-.657-.1-1.181.019-1.53.718-1.626 1.717-1.631 2.807.639.185.386.55 1.009.809 1.385.419.609.678 1.132.664 2.101-.322.812-.374.828-.096.94.691.274 1.92 1.53 1.974 2.653.056 1.14.249 1.747 1.141 1.07 1.019-.772.585-1.083-.418-2.073-1.052-1.258-1.116-2.35-.492-3.258.103-.305.06-.391-.327-.354-1.221.12-2.409-1.436-1.56-2.62.39-.692.345-.87-.207-.89-.288-.01-.763.045-.997-.087-.36-.68-1.115-1.633-1.107-2.411.356-1.096.908-1.538 1.493-1.53zm72.544.059c2.007 1.237 3.994 2.525 6.25 3.113-5.225 9.464-13.629 14.535-20.66 16.516.239 1.211.408 2.418 1.574 3.161-.04-.183-.556-2.332-.443-2.774 9.687-2.487 18.215-12.03 20.395-16.951l42.572-.465c-31.56 30.445-32.817 73.294-7.068 109.209l-2.96 1.738c-19.843-29.888-19.64-58.685-13.69-77.969 4.22-13.673 11.792-24.118 17.546-30.088 0 0-23.082-.319-34.57.107-1.67 2.568-3.221 4.665-5.465 7.088 0 0 5.837-5.668 5.686-6.652 10.647-.006 21.627-.625 32.26.12-12.443 14.975-18.576 30.434-19.64 44.977-.04 1.892-.153.835-.775 1.53l-1.965 3.065-1.574-3.186c-1.07-.347-3.175.213-4.069-.111-4.377 19.639.046 43.342 5.807 58.81 0 0-1.446.814-3.226.678-1.948-.435-2.424.105-4.112.45-1.94.371-2.618.369-3.048.862a4.541 4.541 0 0 1-1.16.925c-4.727 1.727-10.275 8.202-10.275 8.11l-5.204-2.349c4.795-9.47 10.424-12.879 20.318-17.082l-.92-4.232c-10.538 3.948-17.244 8.674-22.533 17.857-6.417-.091-32.41-.275-32.437-.193 10.603-12.125 18.962-30.413 19.876-44.672.224-2.777-.163-1.442 1.059-2.27l1.921-2.3 1.507 2.265s1.091 1.397 1.781.233c1.934-19.884-.111-42.556-9.639-58.36 1.69-.112 3.374-.16 4.993.804 3.726 8.486 5.923 18.97 6.876 26.829 1.206 9.947 1.036 21.166-.193 30.693l.636.087c1.857-12.381 1.227-25.55-.477-37.06-.875-6.004-3.692-15.395-5.629-19.73-.535-1.199-.95-1.508-.442-1.686 11.61-.982 16.946-4.878 21.117-11.097zm-32.191 1.045c.888 0 1.608.724 1.608 1.618 0 .893-.72 1.617-1.608 1.617a1.613 1.613 0 0 1-1.609-1.617c0-.894.72-1.618 1.609-1.618zm87.262.824c-3.399 3.094-6.13 6.3-8.999 9.717 8.49 11.742 17.926 24.47 25.86 34.64 0 0 2.746-1.637 2.735-1.84-.01-.108-.22-.649-.27-.528-.117.282-2.224 1.467-2.224 1.467l-25.109-33.138s1.361-1.64 1.782-2.155c1.95-.645 7.38-7.407 7.646-7.268 4.253 3.277 17.081 17.168 22.022 21.426l.063 38.556c-.511 1.543-14.188 7.487-23.847 29.666-4.858 2.737-10.24 4.21-15.244 6.59 0 0 1.274 2.015 1.897 2.566-.764-1.661-.9-1.978.833-2.687l36.145-14.816-.067 2.992c-3.625 2.82-27.594 20.256-34.965 24.375-34.585-48.488-12.539-89.952 7.617-109.34zm-112.622 2.619c.944.016.706 2.217.357 2.978-.697.55-1.393.061-1.377-.969 0-.335-.06-.653-.145-.706-.523-.336.352-1.315 1.165-1.303zm21.123 1.375c.794.607 1.088 1.414 1.381 2.223-1.072-.17-3.941-.997-2.595-1.642zm-5.224 2.862c24.943 37.936 23.827 78.227-4.011 108.768l35.22-.053c4.483-8.896 11.951-14.318 21.507-17.658l.833 2.793c-10.982 3.546-16.539 9.423-20.958 17.567h-42.004c16.138-17.462 23.531-32.213 24.695-52.167 1.108-19.003-3.7-36.359-18.301-57.24zm7.03.435l5.883 2.794-.872 6.072-6.163-2.857zm-10.608 1.705c31.459 47.856 17.966 81.518-7.15 109.534l-4.627.077-10.785-10.076.198 61.226s-10.516 10.36-11.724 11.601c-1.194 1.156-2.09-.62-2.09-.62l.03-81.164.466-3.182.145-17.489 6.702-3.554 25.133 33.129s-1.01 1.496-1.478 1.762c.536 1.206 2.318-1.8 2.47-2.285-9.117-11.359-26.067-33.598-26.067-33.598l-7.059 3.704s.204-14.52.077-20.094c.271-1.315 1.251-.963 1.912-1.55 9.179-5.997 16.746-14.61 23.183-29.308 4.89-1.6 10.024-3.874 14.935-5.916l-7.073-10.677zm-19.278.61c-.265-.004-.94.305-1.854 1.138-1.686 1.538-3.907 4.065-3.914 4.546.452.164.852-.097 1.213-.465 1.41-2.093 3.59-2.911 4.868-4.745.198-.339-.011-.478-.313-.474zm15.845 2.222s4.88 7.15 6.13 9.05c-12.861 5.12-26.319 11.884-38.24 16.259v-2.866s22.387-16.88 32.11-22.443zm19.134 4.726l4.81 2.498-1.358 5.457-4.853-2.73zm3.968 9.079l3.952 2.895-1.805 4.629-3.982-2.755zm-32.255 3.394s-.609 2.146-1.632 4.067c-4.891 8.547-9.678 16.142-19.567 22.738-.376-.337-1.454-2.232-1.454-2.232l-.096-2.533c5.243-4.235 9.768-7.344 16.712-19.774l2.013-.823 1.714.745 1.16-2.082zm20.574.02c-4.558 9.722-9.042 19.75-16.303 27.327l19.87 27.894c6.539-19.695 4.112-38.153-3.567-55.222zm-25.003 2.12l-.953 1.66 1.651.96.953-1.661zm-2.696.18c-3.6 8.093-9.004 14.321-16.096 18.8l-.275-11.877zm1.266 2.415l-.953 1.661 1.651.959.953-1.661zm40.612.349l3.583 3.418-2.129 3.772-3.673-3.055zm54.879 1.68c0 .002-.01.006-.01.01-6.295 19.678-4.405 38.474 4.232 54.835 4.238-10.606 7.716-17.703 15.99-28.994-5.095-6.708-19.7-26.063-20.212-25.85zm-96.897.315l-1.001 1.631 1.622 1.008 1.002-1.632zm27.468 2.295c5.675 13.643 5.175 25.944 2.157 36.605l-14.174-18.007c5.193-6.483 8.641-12.62 12.017-18.598zm-28.932.048l-1.073 1.583 1.574 1.085 1.074-1.588zm-1.584 2.266l-1.175 1.516 1.503 1.181 1.174-1.515zm46.699 1.613l3.211 3.064-2.027 3.976-3.26-2.997zm-48.552.745l-1.233 1.458 1.45 1.24 1.232-1.458zm103.536.431l14.3 18.554c-4.783 5.725-8.758 12.47-12.311 19.74-3.985-12.554-5.783-24.89-1.989-38.294zm-105.544 1.879l-1.32 1.385 1.378 1.326 1.319-1.385zm33.405 1.854l-6.544 9.515 7.502 9.63c.807-5.213.988-11.265-.958-19.145zm-35.538.31l-1.406 1.298 1.29 1.414 1.406-1.298zm-2.066 1.855l-1.483 1.21 1.204 1.491 1.478-1.21zm55.885.982l2.687 3.157-2.725 3.25-2.552-2.886zm34.156.567l1.825.068c-2.993 29.686 2.89 44.706 8.093 57.769 0 0-.012.523-.187.677-.848.294-2.563.611-3.939-.605-7.001-18.097-8.528-40.39-5.792-57.909zm-92.443.382l-1.546 1.124 1.117 1.554 1.546-1.123zm114.37 1.056c-.465 0-.868 12.214.88 18.177l6.582-8.968zm-17.016 2.014l2.2 2.973-2.335 3.2-2.388-3.03zm-99.14.809c.11-.018.291.292.645.537.329.346.281.32-.087.615-.576.462-.748.387-.737-.334.049-.593.092-.805.178-.818zm60.203 2.232l2.432 3.5-2.692 3.482-2.301-3.665zm38.745 4.435l2.561 3.138-2.2 3.442-2.798-3.287zm59.308.664l.226 3.616-.886-1.321-1.627 1.254 1.136 1.515 1.42-1.113.087 1.457c-9.02 6.556-12.912 14.087-16.572 19.736l-1.627.692-1.854-.59-.905 1.612-1.575.372c-.048-.01 3.161-6.922 8.652-13.959 4.89-6.265 13.5-13.33 13.525-13.271zm1.045 5.66l.077 12.86-16.144 6.271c4.19-7.179 9.13-13.842 16.067-19.131zm-4.011-1.564l-1.474 1.215 1.272 1.467 1.468-1.215zm-2.268 1.937l-1.42 1.273 1.324 1.419 1.42-1.283zm-53.91.711l3.042 3.259-2.229 3.85-3.168-3.056zm51.618 1.37l-1.333 1.37 1.458 1.41 1.334-1.37zm-2.099 2.165l-1.28 1.423 1.55 1.351 1.28-1.423zm-2.109 2.426l-1.189 1.5 1.613 1.255 1.19-1.506zm-46.366 2.304l3.804 2.484-1.859 4.552-3.799-2.91zm44.527.02l-1.117 1.559 1.719 1.181 1.131-1.612zm-1.719 2.46l-1.035 1.612 1.738 1.123 1.03-1.665zm-1.536 2.435l-.953 1.66 1.8 1.032.954-1.68zm-1.387 2.518l-.953 1.66 1.993.867.79-1.583zm-37.824 1.026l3.895 2.654-1.724 4.769-4.112-2.925zm56.352 4.692v98.298h-42.563s-2.005-3.56-6.201-11.758c-1.777-3.471-3.279-4.946-3.433-7.694.16-1.614-.581-3.446-1.897-4.184-.442-.247-1.181.052-.934-.639.272-.76-.562-1.93-.79-2.179-.26-.44-.098-.547-.125-2.183-.027-1.582-.11-2.244-.448-3.438-.852-3.018-1.041-4.526-.553-6.091 1.266-3.97 2.587-7.014 4.294-10.715.993-2.166.842-3.013-2.205-4.586-2.281-1.177-2.584-1.165-2.296-2.885.134-.806.26-1.315.09-1.705-.102-.237-.48-.57-.702-.76-.298-.256-.209-.784.096-1.177.298-.385.3-.935 0-1.854-.624-1.932.787-4.492 3.452-6.26 1.178-.782 1.145-.62 2.373.677 3.591 3.793 8.926 1.41 8.937-3.936 0-1.667-.562-1.567 1.006-2.353 5.312-3.4 16.216-9.582 16.144-9.413.71 1.455.947 2.698 1.396 4.266.388 1.344.337 1.446.193 4.062-.131 2.364-.202 2.914.351 3.065 3.147.348 3.865-.77 4.468-2.813.261-.903.763-.72 1.074-.34 1.198 2.192 2.712 4.471 3.707 6.03 1.244 1.988 3.338 2.977 4.435 2.038.23-.773.42-.797 1.81-.48 1.685.385 2.645-.564 2.807-1.81.065-.498-.296-.478.607-.97 2.238-1.665 1.385-3.94 1.05-5.31.028.072.956-.568.977-1.85.107-6.66-5.633-16.25-5.504-16.003zm-54.017 3.835l4.555 2.213-1.074 5.471-4.68-2.116zm44.32 2.034c2.623 3.058 4.52 8.158 5.498 11.48.483 1.654.542 3.543.111 3.805-.426.26-.624-.018-.544-1.007.067-.823.09-1.461-.26-1.452-1.018.264-1.058-1.287-.953-1.651.07-.244.195-.415.25-.548.25-.6-.404-.52-1.083-.527-.601.014-.756-.353-.727-.925-.017-.635-.854-.511-1.33-.03-.434.441-.343.96.246 1.323.846.52 1.646 1.801 3.616 6.217 1.144 2.563.805 4.382-.558 4.362-.946-.028-2.047-2.632-2.937-4.551-.23-.496.346-1.05.549-1.317.523-.69.443-.909-.333-.92-.726-.01-1.035.054-1.473-.847-.165-.34-.284-.857-.226-1.187.374-.994-.395-1.234-1.141-.852-.941.394-.934 1.238.5 2.62.924 1.524.683 1.418-.192 2.445-.183.362-.073.585.313.59 1.11-.34 2.318 1.67 1.988 2.358-.34.296-1.27 1.369-.37 1.163 1.827-.5 2.94 2.19 1.863 3.103-1.606.81-1.986.557-4.459-4.41-.768-1.543-1.692-3.201-1.805-3.37-.114-.17-.164-.626-.16-.993.109-.9-.273-1.103-1.049-.746-.583.14-1.109.622-.37 1.08.862 1.495 1.167 1.736.693 2.116-1.078.863-.61.828.597 1.07.591.178.892.485 1.054.852.624 1.409 1.73 3.396 1.84 3.8.365 1.034-.295 1.498-1.2 1.453-.945.023-1.378-.728-1.838-1.37-1.72-2.403-2.96-4.785-4.714-7.515l.236-2.551s.46.1.717-.024c.505-.245.805-1.042 1.093-2.102.462-.921 3.185-3.018 4.227-4.144.193-.128.355-.338.357-.465-.01-.413-1.182-.137-1.955.755-1.136 1.014-1.62.666-1.584-.63-.112-1.6-1.083-.797-1.132.766-.125 1.234-.551 1.986-1.41 2.677-1.622 1.304-1.352.974-1.276 2.784.131 3.158-1.08 5.754-1.873 4.034-.282-.612-.611-1.306-1.32-1.337-.5-.022-.749-.516-1.025-1.738-.41-1.977-.984-3.249-1.507-5.07zm-40.372 6.802l5.248 2.102-.982 5.52-5.2-2zm40.015.509a.373.373 0 0 0-.12.029c-1.478 1.123-2.842 2.384-4.454 3.35-.604.36-1.31 1.287-1.314 1.535 0 .242.717.236 1.42-.072.668-.293 4.474-3.887 4.478-4.218.263-.29.237-.64-.01-.624zm-48.19 6.701c1.24-.003.517.367-2.191 2.256-2.643 1.844-7 7.675-7.506 9.84-.23.982.39 1.058 1.088-.291 3.21-6.204 9.28-11.873 14.839-11.621 2.723.123 4.194.862 1.94 1.186-6.179.763-10.797 4.306-14.839 11.37 0 .157.367.15.79-.122 3.7-4.549 7.868-10.573 15.19-10.086 5.282.32 6.783 6.637 2.398 8.793-3.822 1.88-7.347-2.698-4.18-5.413 1.03-.882 1.672-.495.685.407-2.12 1.934.478 5.38 3.062 4.072 1.572-.663 2.209-2.926.823-4.634-3.082-3.8-9.721-.91-14.348 5.23-.485.645-.905 2.048-.496 1.897.718-.297 1.152-.863 1.575-1.5 1.651-2.304 2.92-3.46 5.156-4.697 1.728-.957 1.834-.777 1.19.88-.272.7-.49.932-1.16 1.366-2.818 1.935-4.568 4.527-4.638 6.179-.05 1.205.827 2.78-.125 3.103-1.613.767-6.015.142-7.203-1.385-.854-1.097-1.185-.461-.544 1.322.424 1.178.406 1.844 1.045 1.724.809-.43 1.364-.33 2.932.533.756.415 2.097.803 2.913.992 1.489.346 1.8.2 1.767.848-.01.198.058.757.014 1.108-.241 1.952 1.379 2.616 3.587 3.898 1.29.75.781 1.52-.712 5.234-.777 1.68-1.44 3.94-2.398 5.646-.895 1.916-.972 4.014-.395 6.406 1.071 4.438 1.842 6.693-.067 7.093-4.914.748-15.77.717-21.695-1.573-1.516-11.44-9.548-28.411-8.518-32.8 2.056 3.117 10.675 2.292 8.08-6.42 0 0 .706-1.063 2.108-2.494 3.618-3.69 4.511-4.3 2.793-1.05-1.32 2.498-3.005 5.76-3.043 6.391-.03.504.36.62.665.218.225-.298.493-1.023.727-1.574 2.156-5.076 5.842-9.652 8.382-10.754.654-.283.621.02.169.577-2.99 3.74-5.272 7.198-6.895 11.712-.072.466.585.66.794.218 2.804-5.909 3.642-7.25 7.088-11.412 1.354-1.637 2.614-2.462 3.62-2.373.871.078.613.221-.192 1.085-.615.66-1.524 1.577-2.995 3.438-2.593 3.281-5.202 8.621-4.242 8.342.166.445.984-.974 1.676-2.329 1.895-3.2 3.908-7.429 8.41-10.21.94-.391 1.967-.616 2.875-.626zm-87.06 1.031l8.016 8.057 16.124-.208c-2.659 4.155-1.239 10.597.227 14.361 2.872 7.38 7.083 19.563 6.774 19.74 0 0-2.345.607-2.557 2.102-.314 2.216.642 2.052-.736 4.053-.31.45-.11 1.3.221 1.975.219.495.428 1.24.02 1.82l-14.224 25.486h-27.251v-4.941l13.775-13.76-.164-10.125c7.372 2.203 9.903 9.852 10.535 15.518 13.315-12.22 12.986-30.617.404-42.158-2.452 12.198-11.237 14.733-11.045 14.492zm100.276 1.448c.863.063 2.027.202 2.817.63-.535.321-.916.705-1.271 1.099-.432-.771-1.014-1.192-1.546-1.729zm22.35.087c.718-.002 1.6 2.11 1.093 2.605-.285.279-1.21.384-1.54.174-.424-.315-.208-2.776.447-2.779zm-25.431 3.666a1.68 1.68 0 0 1 1.675 1.685c0 .93-.75 1.685-1.675 1.685a1.68 1.68 0 0 1-1.676-1.685c0-.931.75-1.685 1.676-1.685zm-70.917 2.401l1.209.03c-2.197 2.953-2.493 5.495-1.714 9.18.875 4.146 7.556 19.729 7.987 24.02.02.194.04.741.04.741l-1.643.111s-.122-.443-.173-.614c-2.297-7.77-4.584-13.696-6.182-18.225-1.592-4.885-4.03-12.127.477-15.243zm8.83.03c.011-.003.021.001.03.004l1.16.01c-.043.026-1.732 3.669-1.854 5.878-.138 2.505.465 5.234 1.29 7.927 1.95 5.825 4.804 12.314 6.39 19.667.018.086.192.8.192.8l-1.719-.233s-.168-.753-.187-.857c-1.187-6.468-4.497-13.185-6.471-19.552-1.012-2.894-1.715-6.45-1.353-9.17.255-1.919 2.169-4.437 2.523-4.474zm14.035.014c-1.229 1.914-2.348 4.312-2.426 6.193-.071 3.498.942 6.452 1.955 9.543 3.116 9.517 4.628 14.538 6.186 22.171l-1.656-.712s-.064-.428-.1-.552c-.886-4.78-.941-4.362-6.14-20.437-1.218-3.859-2.379-7.242-2.152-10.454.052-1.83 1.64-5.453 3.313-5.742zm1.989 0h1.545s-.85.906-1.097 1.244c-2.7 3.766-1.919 7.806-.578 12.623 1.845 6.628 5.255 14.04 7.04 24.142.032.187 0 1.162 0 1.162l-1.84-.746c-1.671-9.262-5.794-18.866-7.78-27.197-1.17-4.891-.837-7.983 1.862-10.647.677-.526.848-.581.848-.581zm-18.86.053h1.156s-1.932 3.191-1.93 5.07c-.324 3.362.887 7.078 2.277 10.971 2.136 5.984 4.959 13.22 5.826 17.03.034.149.149.832.149.832l-2.018-.106s-.105-.922-.226-1.346c-2.328-8.19-4.596-13.488-7.27-20.966-.405-1.132-1.051-5.607-.289-8.507.598-2.277 2.325-2.978 2.325-2.978zm-3.095.005l1.247.034s-.188.34-.665 1.162c-2.275 4.143-1.256 7.925.154 12.139 1.881 5.622 4.835 12.488 6.678 18.985.104.366.246 1.472.246 1.472l-1.8-.024s-.367-1.324-.39-1.468c-1.014-6.022-6.487-16.06-7.911-23.7-.781-4.099-.11-6.637 2.44-8.6zm16.702 0s-1.968 3.43-2.147 5.34c-.353 3.747.829 6.849 2.18 11.074 2.333 7.29 5.624 15.845 5.918 19.755.01.13.058.605.058.605l-2.027-.726s-.09-.408-.13-.552c-1.767-7.075-3.856-14.122-6.664-22.064-.692-2.68-1.601-5.376-1.521-7.68.411-3.076.932-3.905 2.754-5.728zm8.917.005l1.632.034s-.487.263-1.651 1.51c-6.44 5.918 4.008 22.624 6.418 37.835.026.163.1.736.1.736l-1.795-.648c-.17-.758-.298-1.68-.506-2.509-1.952-7.775-4.557-15.77-6.947-23.023-1.342-5.284-1.832-9.938.577-12.54.755-.9 2.172-1.395 2.172-1.395zm-16.79.01l1.739.048c-1.256 1.584-1.993 4.052-2.06 6.247-.068 2.596.623 5.12 1.473 7.79 1.743 5.477 4.232 11.43 5.941 18.82.096.49.177.804.222 1.017.07.34.264.877.264.877l-1.834-.368s-.19-.479-.313-.731c-.186-.379-.355-.861-.506-1.438-.888-3.856-4.157-12.604-6.148-18.739-1.579-3.865-2.009-10.622 1.223-13.523zm21.701.068c2.223-.082 4.233 1.815 4.709 3.597.461 1.893-.13 4.03-2.2 5.084-3.359 1.711-6.975-2.84-4.324-5.345 2.009-1.899 4.98-.494 4.333 1.937-.417 1.582-2.803 1.684-3.197.087-.108-.532-.373-1.062-.563-.77-1.235 2.917 2.917 4.283 4.641 1.569 1.023-2.176-.924-4.978-3.789-4.445-3.928.73-4.38 5.744-2.75 11.591 2.276 9.244 7.704 21.675 7.695 27.381 0 .076.019.31.019.31l-1.724-.518-.024-.179c-1.033-7.97-6.92-21.165-8.609-31.308-.731-4.625 1.06-7.981 5.09-8.9.233-.052.463-.083.693-.091zm-17.044.072c-1.21 1.625-2 4.067-2.037 5.81-.037 2.554.875 5.04 1.627 7.7 1.905 6.565 6.355 18.69 6.192 20.96.046.244.169.997.169.997l-1.72-.513s-.067-.109-.196-.421c-.573-2.254-3.298-11.91-6.351-20.259-1.175-3.356-1.746-5.971-1.666-8.197.248-3.07 1.122-4.353 2.46-6.062zm32.73 10.885c-4.455.256-4.026 5.718-1.266 6.643.988.274 1.567.037 1.724-.179.178-.246-.021-.622-.67-.717-1.872-.618-2.542-2.835-.85-3.765.923-.487 2.398-.174 4.178 1.15 3.179 2.368 7.075 2.517 6.567.122-.123-.581-.373-.66-2.701-.978-1.891-.26-2.743-.86-3.568-1.308-1.3-.704-2.444-.997-3.413-.968zm-63.785 5.08c11.51 11.304 9.804 29.022-.03 37.892-.202-.716-.631-2.47-.678-2.42 7.395-7.739 10.878-20.423.173-33.425.056.05.238-.938.535-2.048zm72.14.3a.937.937 0 0 0-.29.043c-2.98.82-3.599 3.783-1.666 5.002 1.185.747 2.096.29.621-.615-1.263-.775-.64-2.812.891-2.789.67.01 1.125.302 2.826 1.564 1.4 1.038 2.72 1.121 3.02-.286.178-.839-.101-1.212-.993-.992-.394.097-.625-.135-1.16-.509-1.19-.83-2.489-1.435-3.25-1.418zm-73.33 2.217c10.376 12.11 7.045 24.74.048 32.14-1.92-5.7-6.63-9.257-6.63-9.257 1.775-3.959 2.833-8.094-.486-13.315 3.087-2.806 5.646-5.889 7.068-9.568zm67.412 4.42c-.487-.008-.329.464.818 1.27 2.735 1.87 2.969 2.208.318 2.164-.672-.04-1.725.439-2.32.639-3.46 1.16-3.627 1.068-5.283.678-.551-.13-1.11-.362-1.352-.14-.374.342-.794.568-.323 1.08.343.372.981.656 1.757 1.103 4.017 2.314 4.382 2.868 9.105 2.992.54.015.819-.267 1.136-.27.772-.01 1.176.18 1.955.895 1.427 1.31 1.494.358.645-1.36-.445-.902-.834-1.116-.616-1.802.498-1.562-.211-1.873-1.141-.489-.697 1.084-.776 1.059-1.435-.334-.874-1.74-.463-2.542.862-1.409 1.004.859 1.26.22 1.651-.46.514-.894.436-1.697-.481-1.627-.528.04-1.02-.204-1.435-.658-.812-.891-2.37-2.01-3.861-2.271zm1.136 4.707c.11.006.185.051.222.165.01.573-.383 1.743-.704 2.358-.102.274-.278.308-.524.358-.828.154-.886-.104-.737-.62.304-.796.555-1.93 1.623-2.256a.724.724 0 0 1 .12-.005zm-2.104.397c.335-.025.346.116.212.421-.24.517-.66 1.005-.973 1.41-.663.431-1.744-.888-1.266-1.23.667-.265 1.168-.538 1.863-.581.062-.01.116-.016.164-.02zm-74.325.862c.178 0 .36.036.549.116 2.51 3.409 2.34 8.596.39 11.466-.146.214-.294.253-.54.17-.839-.5-1.905-.685-2.7-.974v-9.979c.82-.175 1.526-.8 2.3-.799zm66.164.814c-.192.009-.272.14-.029.392 3.661 2.664 8.7 5.752 13.347 4.556.426-.093.77-.328.688-.77-.051-.275-.523-.513-1.035-.378-1.066.283-3.11.32-3.948.184-3.196-.527-6.019-2.582-8.474-3.786a.91.91 0 0 0-.55-.198zm-1.069 2.542c-.164-.008-.151.156-.048.464.516 1.544 5.697 5.14 9.789 6.329 3.513 1.02 8.56.017 8.266-1.661-.153-.875-.791-1.084-3.033-.799-4.936.965-9.688-1.065-13.293-3.321-.972-.616-1.47-1.003-1.68-1.012zm-32.326 2.11c2.156-.025 4.293.15 6.606.538 4.498.772 9.71 2.173 14.121 4.227 7.496 2.83 16.92 5.012 24.917 4.716 1.952.055 5.48-.113 6.163-.339 1.782-.402 2.275-.02 2.7 2.203.076.484.224.625.843 1.046.947.645.79 1.283.674 2.707-.097 1.198.623 1.87 3.51 7.229 3.286 6.098 6.49 13.184 6.49 13.184-28.8-.02-56.277-1.094-85.745-.174 2.65-6.32 9.876-17.715 14.404-26.862-1.095-2.814.258-3.293-.31-3.96-.917-1.564-.255-3.759 1.684-4.253a38.14 38.14 0 0 1 3.943-.261z" fill="#131f67"/><path d="M3695.517 254.858s9.438-19.188 13.414-24.936c5.722-7.293 31.545 3.17 44.388 5.784 5.22 1.012 17.32.538 17.32.538l10.114 18.332zm-19.598-21.801l-.4-59.733 2.955 1.854.677 60-12.772 12.298-.07-3.603zm7.73-6.816c3.042-6.158-.354-13.677-.353-13.674 1.764.438 6.682-8.946 7.118-8.675 7.526 9.28 8.83 23.11-.365 31.68-2.32-5.958-6.37-9.331-6.4-9.331zm5.617-42.247c5.718-5.876 10.252-10.453 14.785-17.03.37-.534-24.124-31.823-23.744-32.371 3.78-4.2 8.844-7.286 12.785-12.357 0 0 20.089 26.445 20.55 26.212 2.036-8.275 3.527-15.768 3.138-24.418-1.24-22.132-10.644-35.68-10.717-35.414-3.18 20.334-34.435 51.133-40.589 48.939l-.035-14.21c.372.71 19.8-12.571 24.924-30.125.368-1.26 15.443-6.112 15.338-6.298-.638-1.647-7.233-11.03-7.233-11.03s2.664-1.248 2.96-1.243c8.549 10.69 15 24.772 17.195 38.182 2.663 14.443 4.385 41.596-24.415 71.25zm86.34-37.366c-4.507-14.066-4.384-28.63-2.312-38.798 3.162-18.425 14.741-31.618 24.029-41.678l4.029.002-6.57 6.837c-3.008 3.47-7.365 10.71-7.365 10.71l24.035 31.592 13.7-2.978s-.414 14.133.011 14.133c-10.647 8.863-18.299 16.884-23.791 29.797-3.367 1.252-14.528 6.09-14.528 6.09-5.306-1.304 15.788-34.56 11.776-35.124-1.652-1.371-19.949-26.192-20.306-26.141-8.434 25.968-.206 53.239 14.632 72.286-1.684 1.097-3.208 1.951-3.069 1.694-6.356-8.867-11.925-19.454-14.27-28.422zm-43.908-13.02c.95 1.48 5.227-31.692-6.012-58.245 1.07-.815 10.341-2.598 10.341-2.598l2.495 7.95-6.324 2.693 1.167 3.727c4.91-2.395 15.543-5.93 22.083-16.856 0 0 31.78-.274 32.457-.218.66.056-6.481 6.938-13.254 20.87-3.093 6.363-5.555 14.597-6.067 24.257-.102 1.909-7.272-8.975-7.272-8.975 1.788-9.195 6.567-18.248 11.33-27.3 0 0-7.308-.419-12.414-.268-7.94 8.725-12.918 13.324-24.89 17.49 4.367 14.064 31.071 20.824 25.132 19.539-1.213-.288-2.75 12.928-1.465 27.82.247 11.908 6.618 31.757 6.843 31.597 0 0-4.247.962-4.587.277.716-.173-6.319 1.618-6.319 1.618l-2.515-7.398 6.807-3.15-1.101-4.175c-.027.002-15.021 4.563-22.366 17.717l-32.846.038c12.668-13.822 17.834-27.494 20.585-45.568 2.688.485 8.192-.842 8.192-.842zm80.778-119.333c4.13-3.475 12.419-12.525 12.419-12.525l.108 4.637-9.407 9.838.095 60.74-3.183-3.066zm-4.347 22.232c-1.695.811-5.071 4.804-6.68 9.29-10.9-9.792-6.411-27.787-.445-31.533 1.731 3.93 6.744 9.138 6.628 9.029-1.152 4.114-2.035 8.288.497 13.214zM3711.635-4.27l84.053.148c-4.794 9.494-9.193 17.168-14.29 26.514-2.65 3.216-60.05-10.388-60.32-9.032z" fill="#e2cf00"/><path d="M3666.2 242.767l-.56-79.756 9.554 9.333.567 61.249zm43.84-15.455c-1.977.303-.858-1.538-.496-3.288.2-.975-.737-1.892-.733-2.19.025-1.731 1.315-2.462 7.16-2.394 13.778.962 20.902 5.397 28.805 7.46 7.57 1.974 15.072 1.934 23.424 1.74.612.355 2.85 6.154 2.435 6.735-18.894 3.744-43.004-10.205-60.595-8.063zm34.054-41.3c-1.991-1.45-3.86-1.718-5.706-2.033 3.24-5.732 7.164-10.955 13.718-14.224l3.05 7.588c-3.855 1.993-7.639 4.365-11.062 8.67zm-39.804-19.704s-2.828 4.65-5.497 6.91c-7.935-10.699-25.678-33.479-25.678-33.479l-7.529 3.834s-.03-4.41.14-4.719c20.336-10.537 34.29-30.454 40.434-49.104 0 0 3.274 3.36 2.844 4.78-5.499 14.712-14.901 29.465-28.728 40.53zm25.362-21.704l25.673.037 1.136 8.974c-9.83 3.313-17.943 10.08-25.529 17.907l-12.177-.213c3.993-8.796 9.54-17.72 10.897-26.705zm95.048-37.81c.83 2.53-.01 5.259.312 5.145-30.75 15.293-39.538 48.86-39.538 48.86s-2.92-4.648-2.786-5.367c15.917-35.575 26.565-36.635 28.611-40.498l-24.208-31.505 5.476-7.49 25.965 33.978c2.58-1.195 4.052-2.196 6.168-3.124zm-15.163 46.023c5.215-9.43 10.594-14.913 15.953-18.684l-.26 12.446zm-143.765-37.015l.133-12.075 15.84-6.854c-4.38 9.6-10.325 14.745-15.973 18.93zm70.567-10.856l-.937-8.493c9.616-4.218 18.11-9.859 24.969-17.58 7.367-.356 12.4.146 12.36.046.012-.015-7.009 10.34-11.658 26.644zm79.667-89.212l8.752-8.893.276 79.522-8.791-8.568zm-76.922 64.626l-2.777-7.869c4.368-1.646 7.675-5.232 10.756-8.783 2.089 1.88 4.784 2.542 5.72 2.903 1.28.301-8.856 12.54-13.699 13.75zm-16.409-59.593s-1.092-.635-.972-1.531c.361-1.16-1.167-3.787-1.168-3.787 18.64-5.686 45.78 10.316 61.89 6.95-.135 1.131.05 2.48-.406 3.547.507 2.267.865 2.34-1.336 3.724-11.317 3.22-23.244-3.647-34.298-6.93-9.018-2.856-16.344-2.128-23.71-1.973z" fill="#d40000"/><path d="M3710.674-5.389l3.405 6.448-.589.401c.927 1.553 1.715 3.3 2.663 4.841l.684-.08c1.118 2.156 1.57 2.953 3.034 5.506l-.66-.003c.34 1.135 1.212 1.889 1.23 2.703.01 1.013-.25 2.042.368 2.728.734.813.822 1.038.67 1.514-.4 1.264.74 2.664 1.896 2.539 8.149-1.096 16.452-.166 24.752 2.356 5.97 1.893 11.268 4.013 16.285 5.504 1.582.475 4.779 1.224 7.53 1.426 7.633.563 11.916-1.001 10.63-4.193-.101-.256-.33-.443-.35-.575-.037-.243 0-.506.433-.863 1.252-1.286.553-2.222-.21-3.646 0 0 9.802-17.609 14.698-26.383zm84.87 1.582l-7.155 12.42c-3.824-.696-4.723 2.538-4.78 2.993-4.967-1.28-4.205 5.196-1.713 5.633.161.94-4.082 2.107-6.319-.094 3.437.463 4.654-4.11.456-5.125 5.534-4.137-4.848-10.331-4.972-1.773-4.882-.865-4.247 5.623-1.15 6.127-1.585 1.757-6.242 1.805-8.677-1.897 4.141 2.163 6.382-3.42 2.08-4.982 5.31-4.682-5.087-8.999-4.844-1.433-3.918-2.336-6.613 3.618-1.381 4.532-.299 1.071-7.15 1.08-8.888-1.69 4.857 1.115 5.08-4.832.794-5.316 4.303-5.492-6.62-8.27-4.786-.775-4.22-1.678-5.814 3.612-1.704 5.311.228.842-6.655 1.559-9.064-1.479 5.29-.798 3.439-5.954.012-5.541 0 0 .049-.149.242-.65 1.618-5.176-7.08-5.608-5.876-.12.193.505.406 1.178.406 1.178-2.398-.491-3.863.491-3.69 2.753.598 3.004 2.176 2.783 4.194 2.184.847.89-4.87 3.864-8.459 1.208 4.396-1.27 2.169-6.45-1.51-5.75-.151-1.654-1.938-3.973-4.268-2.842l-2.465-4.876zm7.188 69.003l-5.164.076c-3.627 3.724-29.892 28.054-25.469 64.806 1.892 15.719 6.257 29.318 17.927 45.384l3.119-1.841.477.321 32.34-18.708.017-5.682-37.54 15.838c-.744-.797-1.182-1.686-1.81-2.667l15.044-6.43s.36-.92.477-1.342c4.946-12.583 14.993-21.693 23.74-28.731-.047-12.389-.104-38.326-.104-38.326l-22.618-22.652c-2.9 2.667-5.473 5.41-8.045 8.386l25.968 34.374-2.302 1.506-25.695-34.195c3.043-3.68 6.346-6.889 9.638-10.117zm23.071 22.35s-.125-59.017-.295-87.515l-13.477 13.904.052 59.82zm-1.146-81.897l-9.522 9.88.107 60.806-2.447-2.426V14.74l11.896-12.533zm-92.665-1.463c.284.505.161 1.204-.296 1.774-1.948 2.43 4.169 6.65 8.57 5.917 3.35-.558 6.205-2.581 4.973-4.12-1.003-1.254-.348-2.522.857-2.513 1.24.009 2.235 1 1.16 2.358-2.389 3.02 1.256 6.565 6.828 6.638 3.94.052 5.254-.924 5.041-3.748-.1-1.322.159-1.687 1.074-1.888 1.461-.32 2.199 1.364.987 2.649-2.617 2.774.357 6.854 5.306 7.117 1.81.097 2.168 0 4.189-1.147 1.579-.897 2.136-2.25 1.362-3.302-.996-1.354.347-2.972 1.897-2.305 1.108.476 1.654 1.33.428 2.78-1.61 1.902-.847 3.472 2.254 4.531 2.416.825 4.088.723 5.22-.315.351-.322 1.134-.997 1.123-.79-.76 1.32-1.434 2.545-1.434 2.545-5.06 2.27-9.009-1.978-8.879-2.137-5.213 3.025-9.834 2.387-13.74-2.695-1.015.566-8.286 1.899-13.534-3.894-5.296 2.672-10.22 1.551-14.595-1.437-3.232 3.07-6.64 3.555-10.181 2.08l-1.05-2.12c.265-.1 1.407 2.127 6.949 1.089 1.86-.349 5.061-3.493 3.269-5.026-.821-1.168-.846-1.694-.12-2.402.713-.697 1.93-.338 2.342.36zm-13.576 2.782c.31.602.351 1.603.01 1.002-.18-.317-1.118-1.734-1.073-1.777.436-.037.87.416 1.064.775zm106.245.483l.062 78.468-8.109-8.09-.39-61.471zm-93.905 3.8l2.553 1.615-4.572-.028zm14.354 1.35l2.144 2.095-4.508-.951zm40.164 1.087l-.958 1.976c-.553-.622-.713-1.94.958-1.976zm16.203 32.621c1.628-3.674 3.805-8.353 7.33-9.841-2.624-5.243-2.283-10.484-.422-13.357-2.662-2.492-5.394-5.477-7.09-9.77-8.41 7.468-9.763 22.808.182 32.968zm-.252-31.533l.58 1.434c-7.491 9.219-5.179 21.32.247 27.779l-.78 1.626c-6.63-7.032-9.533-21.897-.047-30.84zm-44.778 5.215c8.679 2.56 15.63 6.553 25.665 2.996l.047 1.965c-6.387 4.123-19.11-.233-27.706-3.424-13.817-5.128-24.57-4.83-32.252-4.243-.676-.133-1.214-1.91-.13-1.921 14.365-.16 12.044-1.962 34.376 4.627zm1.96-3.475l2.851 3.04c-2.14-.675-4.222-1.425-6.158-2.357zm43.505.75l.559.775c.242.335-1.576.51-1.271.116zm-48.973 5.565c10.36 3.912 21.768 7.817 29.255 4.315 0 0 .047 1.49-.809 1.913 0 0-.79.642-3.432 1.008-12.113 1-19.977-4.044-29.754-7.024-3.71-1.13-9.668-2.5-15.786-2.755-3.633-.167-9.191.358-9.191.358-1.211-.101-1.194-.82-1.204-1.525 10.532-1.413 20.217-.359 30.92 3.71zm50.1-3.75c.134-.007.27.003.404.023l1.06 1.361-1.257 2.01s-1.108-1.027-1.67-2.034c-.31-.652.527-1.317 1.463-1.36zm-30.526.382l3.281 2.49c-2.466.122-5.243.215-7.99-.883zm27.79 1.268c.258-.006.529.268.847.814.61 1.048.53 1.248-.655 1.631-1.556.503-1.679.393-1.175-1.012.343-.956.65-1.425.982-1.433zm4.983.643l2.218 1.872c-1.225 3.205-2.027 7.272.433 13.112-.273.018-1.867 1.6-2.367 1.87-1.405-.592-4.498-12.163-.284-16.854zm-2.523 2.451l-.564 3.544c-.046.291-2.453-1.678-2.229-2.663.429-1.17 1.895-.92 2.793-.88zm-3.98 1.244c.29.002.748.71 1.31 1.637.437.722.347.995-.622 1.874-1.427 1.45-1.708.977-1.391-1.492.156-1.22.373-2.021.703-2.019zm2.95 3.212c.195.004.364.051.487.15l.164 3.453c.015.311-2.68-.123-3.033-1.438-.448-.843 1.337-2.186 2.383-2.165zm-3.555 2.918c.193-.027.796.376 1.367.717.992.592 1.013.852.159 1.956-1.004 1.297-1.503 1.089-1.656-1.167-.056-.828-.119-1.47.13-1.506zm3.954 1.32c.087 0 .164.026.231.083.477.41 1.207 3.87.9 4.232-.437.514-2.737-.17-3.25-.983-.488-.774 1.28-3.33 2.119-3.331zm-2.815 4.074c.264-.018.74.165 1.459.514.432.21 1.154.604 1.314.94.28.592-.186 1.469-.79 2.197-.398.482-.772.123-1.545-1.491-.622-1.299-.878-2.13-.438-2.16zm4.643 1.548c.053-.001.1.01.144.034.784.436.652 1.733-.274 2.692-1.112 1.151-2.078.284-1.31-1.177.487-.925 1.07-1.54 1.44-1.55zm-64.614 32.193c-.677.03-1.734.647-2.195 1.244-.583.754-1.092.656-1.738.6-.77-.01-1.94.16-3.525.887-.898.411-1.307.504-2.624.57-.859.045-1.72.161-1.911.262-.191.101-.81.319-1.372.485-1.15.338-.741.666-.081 2.157 3.356 8.653 5.76 18.736 6.637 26.949.984 9.421.686 20.846-.624 29.572-3.213.021-5.23-.144-8.614-.087-2.308 18.868-8.57 33.851-21.086 47.326l33.833.087c3.877-10.397 21.566-18.327 22.148-17.742l.931 3.794s-12.724 1.829-21.295 18.067c.877-.533 4.069-.163 6.176 2.037 4.208-5.366 11.112-8.873 11.157-8.79l.23-.648s1.267-.432 2.38-.645c.356-.068 1.088-.207 1.574-.378.75-.264 1.123-.545 2.282-.445 2.412.232 4.833-.472 4.782-.485-7.182-19.919-8.88-37.9-6.074-58.787 2.646.021 8.448.121 8.448.121.584-5.868 1.323-11.74 3.115-17.281 2.302-7.114 5.077-13.727 9.546-19.774 2.524-3.798 4.727-6.5 7.336-10.06l-33.12.077c-4.382 7.408-12.827 13.595-19.614 16.173-2.31.872-2.636.743-3.019-.349-.683-1.952-.65-1.869 1.156-2.387.603-.173 2.534-1.195 5.547-2.615 6.393-3.263 10.79-9.238 13.375-13.271 1.029-1.593.338-1.234-1.42-1.25-1.611-.126-2.347-.627-3.794-1.985-.534-.5-.763-.857-1.007-.828-1.89 2.73-5.063 6.332-7.54 7.399zm7.773-6.307c1.488 1.603 3.255 2.54 5.58 2.846-3.716 5.863-8.254 10.447-13.47 13.235l-2.652-7.501c6.5-3.044 8.238-6.093 10.542-8.58zm53.982 2.386c-35.026 32.565-32.965 73.62-8.437 106.967l-2.57 1.554c-23.037-31.044-27.205-76.968 7.993-108.66zm-22.081 3.972l8.586-.018-5.845 7.62-7.843-.03zm-1.346.063l-4.775 7.572-12.88.166c-7.709 9.556-15.988 14.218-24.416 17.399l-1.645-8.16s13.345-3.236 21.987-17.08zm-13.089.626l-2.985 3.322 3.1 3.172 2.832-3.22zm6.76-.077l-3.024 3.162 2.36 3.18 3.134-3.088zm-14.911.576l-.515 4.973 3.89 1.283.568-4.251zm23.666.186l-2.823 4.438 4.251.068 2.973-4.42zm-44.445 1.134l2.756 7.68-2.42 1.174-2.454-8.021zm-3.261 1.232l2.84 7.945-2.378.79-2.61-8.27zm3.404 31.37c.317 11.05.474 17.712-1.363 27.425-.096.508-2.07.058-2.07.058.25.084 1.113-10.976 1.044-17.923-.13-13.23-2.36-26.318-7.524-39.429.984-.605 3.412-.914 3.412-.914 3.258 9.942 6.146 20.638 6.5 30.784zm-34.39-30.637c11.308 15.086 19.39 35.554 18.038 55.75-1.295 23.482-10.148 37.016-25.697 53.278l-4.011.093c18.405-17.747 26.549-32.935 27.19-52.973.74-23.046-6.26-38.374-18.048-54.708zm-36.167 20.739l.039 5.495 38.523-16.615-5.556-8.231zm90.288-18l-4.194.213.14 4.256 4.371-.107zm37.381-.81l24.965 32.921-6.177 4.614-23.8-30.935zm-19.566 2.25l7.472.116-2.89 4.82-7.221-.058zm-1.38.118c-3.436 6.426-8.175 13.752-10.836 25.593l-24.599.021c-.046-2.703-.394-5.406-.794-8.11 10.6-3.901 18.81-9.732 24.849-17.44zm4.549.34l-3.207 1.859 1.96 2.266 3.534-1.36zm-29.28 2.367l-1.06 4.193 3.987 1.545.737-4.982zm22.937 3.133l7.17.044-3.02 6.062-7.101-.107zm17.07-.794l23.623 30.795-2.215 1.762-23.087-30.101zm-14.35 1.283l-3.23 2.707 2.431 2.822 2.98-2.391c.064-.05-2.18-3.138-2.18-3.138zm-31.353.223l-.992 4.077 4.146 1.108.741-4.372zm-5.734 2.711l-.843 4.014 3.905 1.06.823-3.868zm-32.24-.402c.2-.04-.653 4.777-1.908 5.645-.6.415-.911.324-1.432-.241-.358-.39-1.982-3.054-1.982-3.054l1.387-.701c1.684 2.707 1.682 1.398 2.32-.91zm-6.474 2.774c.55-.004 1.216.684 1.969 2.015 1.089 1.925 1.053 2.05-.737 2.605-3.221.857-4.419 1.062-3.428-1.075 1.067-2.302 1.488-3.54 2.196-3.545zm9.588-.381l2.205 3.794c-8.84 22.633-23.096 38.868-42.72 48.692l-.045-3.76c23.137-13.244 32.623-28.888 40.56-48.726zm60.099 1.636l6.957.126-1.858 5.35-7.396-.053zm-71.778-.234c-5.663 13.571-13.4 25.412-28.871 35.408l-.062-3.605c17.374-10.53 24.884-30.253 24.883-30.259zm87.936-.023c4.12.114 8.451 4.63 8.012 8.352-.31 2.624.19 4.57.9 3.496 1.57-2.373 6.193-.795 6.152 2.055-.023 1.516-1.03 1.765-1.609.397-.854-2.023-3.254-2.073-3.609.047-.332 1.987 1.344 3.447 5.821 5.074 5.247 1.238 8.406 5.967 6.54 8.686-.648.719-1.038.896-1.16.523a23.5 23.5 0 0 1-.285-1.244c-.595-2.85-1.953-4.047-3.603-3.068-.826.49-.721 1.14-.24 1.996.643 1.14.241 1.583-.909 1.002-1.816-.917-2.416-3.091-.655-4.094 2.093-.842 1.384-1.023-1.29-1.932-5.694-1.956-8.137-5.544-8.436-12.38.109-3.117-.315-4.228-1.772-4.654-1.334-.39-2.845 1.315-1.887 2.213.52.488.945.931.669 1.2-.885.865-3.099-.538-3.077-2.042.014-.984.385-1.187 1.849-2.344.406-.32.06-.926-.534-.934-2.239.725-2.08-2.252-.877-2.349zm-12.897.79l-3.478 2.01 1.811 2.545 3.851-1.82zm-67.671 1.975c.4 0 .726.324.726.726a.732.732 0 0 1-.727.731c-.4 0-.722-.33-.722-.731 0-.402.323-.726.722-.726zm7.129.315c7.34 16.11 9.086 34.534 3.978 52.944l-19.824-25.936c7.606-8.611 12.719-18.47 15.846-27.008zm-26.81 1.183l-17.689 7.473-.098 13.338c9.883-6.782 14.075-13.726 17.787-20.811zm17.003-.111c1.743-.055.883 4.677-1.38 6.291-.83.641-1.39.563-1.664-.72-.142-.664-.838-2.07-1.715-3.203-1.02-1.317-1.008-1.35.482-1.443 1.645.025 2.993-.77 4.277-.925zm-1.723 2.01c-1.286-.019-1.671.586-.905 1.414.644.697 1.156.548 1.589-.46.263-.614.028-.943-.684-.954zm-31.904 17.302l.043-11.32 15.127-6.405c-3.035 6.614-8.652 13.172-15.17 17.725zm134.382 9.145l-2.016 2.038-19.528-25.6 1.224-3.232zM3693.42 98.502c.655.01 2.14 2.293 2.556 3.932.31 1.216-.018 1.473-2.31 1.816-.95.261-3.517.009-3.309-.678.373-.992 2.832-5.073 3.063-5.07zm70.746.262l7.126.077-1.632 5.878-7.463-.111zm3.149.358l-3.318 2.31 2.625 2.6 3.514-2.184zm11.178 2.529l19.756 25.783c-5.894 7.539-11.773 16.2-15.637 27.647-7.034-16.544-9.61-32.648-4.119-53.43zm-80.233 2.193c.4 0 .727.325.727.727a.731.731 0 0 1-.727.73c-.4 0-.722-.328-.722-.73 0-.402.322-.727.722-.727zm-2.272.983c1.233.088.069 4.038-1.787 5.479-1.464 1.135-2.093.608-2.431-1.47-.122-.75-.907-2.026-1.598-3.034-.772-1.125-.454-1.304 1.502-.852 1.365.266 3.051-.06 4.314-.123zm66.022.966l7.471.045-1.15 8.926zm-72.797.413c1.178 1.104 2.665 4.976 1.902 5.255-.887.324-4.904-.145-5.354-.61-.31-.321-.31-.323.347-1.206a89.707 89.707 0 0 0 1.53-2.155c.435-.51.916-1.896 1.575-1.284zm4.16.132c-1.138.038-1.214.195-.674 1.428.44 1.006.746 1.096 1.502.436 1.053-.918.611-1.913-.828-1.864zm131.142.775l.27 4.401c-28.721 14.326-39.476 48.149-39.631 48.148l-2.085-3.902c13.179-32.658 30.706-42.115 41.446-48.647zm-135.334 5.205c1.71-.036 2.21-.153 2.2.484.02 1.714-1.573 4.147-3.519 5.065-1.31.618-1.34.632-1.488-.92-.114-1.195-.5-2.732-1.117-3.956-.193-.454-.935-1.495 0-1.199.933.296 2.86.548 3.927.526zm3.837-.398c.4 0 .722.324.722.726a.723.723 0 1 1-1.445 0c0-.402.323-.726.723-.726zm-9.152 1.003c.31-.009.605.632.958 1.574.767 2.048 1.002 3.159.775 3.64-.35.744-5.063.264-5.864-.566-.153.115 3.467-4.236 4.13-4.648zm3.394.509c-.675.046-.318.455.183 1.64.347.822.816.954 1.353.379.718-.77.815-1.382.362-1.71-.665-.269-1.157-.306-1.898-.31zm137.456 4.452l.025 1.474c-1.119-.336-1.812-.812-3.087-1.239-.782-.263-1.244-.451-.553-1.279 1.081-1.297 2.242-2.108 3.56-2.911l.01 1.67c-2.107.939-1.903 1.806.047 2.285zm-83.02-1.499h7.935v5.268h6.206l-.482 6.004h-5.724v5.268h-7.935v-5.268h-5.667l.457-6.004h5.21zm17.92.018c-4.018 20.022-.332 41.278 5.867 58.595l-3.128.346c-4.832-13.848-8.673-33.565-4.766-58.93 0 0 1.4-.025 2.027-.01zm58.895.389c.399 0 .722.324.722.726a.723.723 0 1 1-1.445 0c0-.402.323-.726.723-.726zm-139.585 1.68c.263-.008 1.07.342 1.786.542 1.077.301 1.927.432 2.908.45 1.973.039 2.23.021 1.382 1.652-.611 1.174-1.988 2.727-2.951 3.2-1.364.732-1.887.633-1.806-.716.01-.916-.385-2.507-.9-3.642-.4-.882-.857-1.473-.42-1.486zm8.344.643c.4 0 .727.324.727.726a.732.732 0 0 1-.727.731c-.4 0-.722-.329-.722-.73 0-.403.323-.727.722-.727zm133.508-.096c.56-.012 1.518.333 2.393.76 2.32 1.134 2.257 1.394-.886 3.637-2.282 1.741-2.822 1.936-2.903-.809-.082-2.314.166-3.561 1.396-3.588zm-143.041.663c.92.014 1.94 4.834 1.112 5.264-1.288.669-5.279-.635-5.263-1.734 0-.357 3.745-3.536 4.15-3.53zm140.268-.198c.55-.024.623.41.573 1.946-.027.814.112 2.142.168 2.76.117 1.285.01 1.373-1.001.8-.646-.369-1.96-.971-3.38-1.095-1.164-.101-1.25-.583-.889-1.355 1.029-1.71 2.89-2.91 4.529-3.056zm-136.85.726c-.803-.006-.604.424-.106 1.632.353.856.965.938 1.594.208.88-1.021.707-1.562-.573-1.757a8.697 8.697 0 0 0-.915-.083zm135.786 1.148c-.334.031-.791.297-1.011.44-.755.476-1.062.819.034 1.196.975.336 1.493.482 1.415-.363-.047-.509-.01-1.248-.438-1.273zm-74.475.624v5.249h6.317v-5.249zm68.832.456c.4 0 .722.324.722.726a.723.723 0 1 1-1.444 0c0-.402.322-.726.722-.726zm-118.25.818l19.928 25.722-1.324 3.353-20.525-27.153zm131.794-.121l.044 3.361c-2.252 1.657-16.549 12.075-23.945 29.612l-3.872 1.658c5.45-15.093 17.109-28.02 27.773-34.631zm-151.597 1.423c1.297.397 2.535 1.304 3.76 1.467 1.407.173 1.893.083 1.512.814-.854 1.637-2.465 3.352-4.165 3.912-1.216.4-1.79.251-1.599-.508.358-1.422.42-2.589.371-3.883.193-.706-.407-1.695.12-1.802zm-1.522.3c.827.712.663 5.206-.26 6.174-.483.506-1.882.044-3.982-1.152-1.372-.782-1.628-1.26-.943-1.739 1.16-.708 4.56-3.45 5.185-3.283zm142.372.097c.43-.009.963.066 1.604.213 2.483.561 3.037 1.132.92 2.823-.783.625-1.613 1.402-1.854 1.7-1.14 1.404-1.932.386-2.181-2.165-.175-1.785.093-2.801 1.511-2.57zm-3.11.242c.404 0 .662.212.655.717-.01.645.45 3.434.708 4.203.447 1.306.123 1.601-.954 1.031-.784-.425-2.859-.747-3.982-.658-1.277.1-1.24-.243-.866-1.322.663-1.912 3.229-3.97 4.439-3.97zm-136.527.93c-.486-.002-.506.657-.173 2.164.105.48.515.45 1.29-.096.916-.647.879-1.054-.154-1.676-.426-.256-.743-.391-.963-.392zm5.648.165c.4 0 .722.324.722.726a.723.723 0 1 1-1.445 0c0-.402.323-.726.723-.726zm128.52 2.822c.347.34 1.628.326 1.849.122.338-.314.18-1.772-.101-1.947-.722-.247-2.18 1.288-1.748 1.825zm-119.608 2.775c.435 2.078 3.342 1.963 3.014-.203-.192-1.266-.236-1.24.395-1.21 3 .147 2.48 4.904-.978 4.536-.721.087-.817.384-.207.64.607.253 2.93.852 3.289.851 3.762-.013 9.19 5.805 9.056 10.967-.087 3.377 1.051 5.806 2.215 6.082.925.218 2.268-.627 2.152-1.661-.16-1.426.993-.981 1.656.043 1.013 1.416-.293 3.458-2.706 3.298-1.026.201.755.856 2.074 1.24 1.197.068.186 1.55-.037 1.815-.676.79-2.893.186-4.632-1.225-2.134-1.733-3.05-4.056-3.303-8.619-.162-2.933-.38-3.529-1.227-2.319-1.526 2.698-5.178 1.378-5.634-1.472-.255-1.509 1.066-2.598 1.493-1.23 1.132 2.843 3.903 2.16 3.452-.663-.297-1.863-2.15-2.89-5.811-3.927-4.401-1.246-5.71-2.761-6.568-6.391-.38-1.607-.32-2.448.525-3.288.417-.415.949-.837.949-.837s.587 2.442.833 3.573zm115.123-2.304c.4 0 .722.325.722.726a.723.723 0 1 1-1.445 0c0-.401.323-.726.723-.726zm-138.138.69c1.31.478 2.437 1.184 3.788 1.647.877.3.637 1.005-.271 2.007-1.013 1.202-2.008 1.794-3.411 2.464l.015-2.032c1.706-.6 2.791-2.028-.074-2.486zm141.548 1.134c.496.005 1.199.023 2.023.194 2.089.434 2.333.62 1.079 2.097-.465.547-1.157 1.372-1.536 1.835-1.235 1.73-1.9 1.136-2.475-1.1-.714-2.333-.876-3.229.909-3.026zm-135 .833c.4 0 .723.325.723.727a.723.723 0 1 1-1.445 0c0-.402.323-.727.722-.727zm132.895 1.582c.199.737.501 1.676.732 2.342 1.133 2.513.416 1.541-1.615 1.32-1.365-.15-3.537.08-4.075-.3-.234-.306-.018-1.113.42-2.024.616-1.282 1.736-2.374 2.572-2.87 2.117-.983 1.624.267 1.966 1.532zm-122.01-.894l22.762 30.265-1.785 2.56-23.413-31.12zm142.654.113c-11.832 8.599-16.377 19.035-17.3 20.399l17.348-6.73zm-22.592.986c-.648.18-1.58 1.39-1.18 1.864.24.248 1.194.28 1.652.111.704-.26.223-1.979-.472-1.975zm-99.752 32.731l-4.848 6.145-25.263-32.862 6.374-4.63zm121.082-31.94l.18 11.296-14.839 6.22c4.969-8.44 9.836-13.658 14.66-17.515zm-101.456.959l5.943 7.78-7.262-.166zm75.145.636c.4 0 .722.325.722.727a.723.723 0 1 1-1.444 0c0-.402.322-.727.722-.727zm4.355 1.841c2.718.038 3.625.186 2.835 1.529-1.055 1.311-1.677 2.557-2.828 3.77-.664.679-1.494-.723-2.188-2.965-.56-1.811-.276-2.267.788-2.282 1.064-.015 1.245-.054 1.393-.052zm-3.14 2.45c.223.715.743 1.892 1.157 2.61.413.718.876 1.516.847 1.655-.07.337-.386.363-1.102.092-1.549-.702-5.19.04-5.285-.306-.541-.775.27-2.888 1.798-4.351.747-.715 1.43-1.18 1.826-1.187.395-.007.467.543.76 1.487zm-126.97-.556l25.706 33.571-1.779 2.178-25.994-34.22s-4.105 2.022-5.312 2.697l.163 17.363-.703-.034.105 87.947 14.344-14.383-.187-59.675c3.044 2.88 5.648 5.95 9.132 8.773l5.965-.048c15.573-15.928 24.102-29.56 25.974-53.97 1.252-16.332-4.143-36.868-18.453-56.77l-3.495 2.134 6.905 10.463-14.626 6.518c-5.824 12.35-12.73 23.747-25.36 30.275l-.071 15.983-.22.33.166 5.02zm125.682 1.146c-.682.052-1.75 1.532-1.261 2.039.576.275 1.465.255 1.836-.24.255-.486.19-1.515-.575-1.799zm-76.683 3.458l7.55.043-1.974 6.513-7.353-.14zm71.713-.029c.4 0 .723.324.723.726a.723.723 0 1 1-1.445 0c0-.402.323-.726.722-.726zm-38.46.198l.975 8.458c-8.234 3.01-17.112 8.118-24.877 17.51-1.327-.087-11.915.092-11.915.092.265.038 9.81-18.076 10.91-25.939zm-29.9.788l-3.462 2.392 2.706 2.9 3.582-2.44zm72.048.035c.736-.004 1.723.087 2.514.228 1.276.249 1.464.273 1.034 1.332-.575 1.405-1.869 3.939-2.196 4.14-1.17.73-3.768-4.497-2.882-5.401.235-.185.732-.295 1.53-.299zm-3.31 1.608c.334-.03.78.624.912 1.188.16.684 1.339 2.41 2.081 3.236.934 1.04.885 1.185-.452 1.293-1.593.128-3.15.443-4.046.77-1.39.508-1.58.396-1.401-1.238.268-2.46 1.902-5.162 2.906-5.25zm-1.22 5.089c.173.476 2.33-.399 2.45-.97-.02-.257-.867-1.74-1.376-1.808-.863.136-1.225 2.104-1.075 2.778zm-72.848-.334l7.135.068-2.34 5.912-7.053-.02zm3.194.792l-3.418 2.174 2.662 2.59 3.274-2.27zm72.561 1.072c.606-.006 1.247.053 1.382.276.379.628-1.165 4.136-1.165 4.136l-2.515 1.002c-.54-1.119-1.465-2.282-1.69-3.495-.089-.53.178-.723.76-1.052.868-.49 2.219-.857 3.228-.867zm-6.736.287c.399 0 .722.324.722.726a.723.723 0 1 1-1.445 0c0-.402.323-.726.723-.726zm-32.54.1s1.543 8.761 1.626 7.796c-11.9 4.507-18.86 11.157-22.158 17.645l-22.327-.016 4.984-7.776 13.217-.067c6.389-7.796 14.27-14.014 24.659-17.581zm-2.858 2.063l-1.102 3.54 3.336 2.14 1.257-3.801zm36.573.068c.283-.026.563.453 1.136 1.477.424.757.982 1.857.982 1.857l-.998.373c-.805-2.767-1.544-1.738-1.63.704l-1.368.549s.148-2.355.93-3.73c.449-.79.698-1.206.948-1.23zm-72.775 2.42l6.919.088-2.894 6.028-7.034-.194zm30.18.485l-.55 4.474 3.727.794.51-4.251zm-27.238.053l-3.418 2.223 2.243 2.968 3.289-2.223zm21.893 3.917l-.708 4.12 3.495.8.795-4.145zm-75.967.242l8.748 8.72.481 60.84-8.7 8.773zm47.596 2.228c-.03.048 6.979.201 6.979.201l-2.806 5.092-2.396-.108 3.154-2.164-2.022-2.6-3.24 2.126 1.805 2.629-4.733-.102zm45.128 1.506l2.376 7.894-2.856.499-2.146-7.427c.875-.456 1.75-.68 2.626-.966zm-22.443.493l.048 4.736 3.813.324.15-4.44zm18.956.756l2.173 7.5-1.813.519-2.596-7.12a7.379 7.379 0 0 1 2.236-.899zm-3.31 1.548l2.794 7.343c-3.859 1.573-7.86 4.94-10.87 8.301-2.233-1.65-3.547-1.822-4.924-2.195 3.798-7.116 8.284-10.852 13-13.449zm-42.15 1.841l7.337.223-5.103 7.665-8.301-.01zm21.843.286l-.477 4.483 3.929 2.334.597-4.605zm-4.733.63l-2.793 2.967 2.966 3.404 2.72-3.554zm-6.245.154l-3.317 3.06 2.638 3.462 3.034-3.481zm-42.266 2.855l.325 59.435-12.189 11.879-.09-3.197 9.69-10.176c.01-20.104-.054-40.208-.12-60.311zm32.43-1.92l-3.366 4.614 3.992.01 2.893-4.47zm-20.757 28.76c-1.327 4.803-7.445 10.011-7.555 9.923 3.03 4.366 2.927 10.59.256 13.658.013-.07 4.87 3.985 5.551 6.09.385.84.54 1.86 1.026 2.693.129.22.54.768.54.768 11.864-12.099 6.214-26.277.182-33.131zm.178 1.256c11.52 14.373 3.925 27.528-.094 31.198l-.767-1.275c8.56-10.005 4.932-22.295-.055-28.114zm-1.247 2.797c.077.234.526.91.193.867l-.578-.116zm-.087 1.603c.25 0 .46.078.573.252.235.392-.956 3.697-1.691 2.927-.222-.437-.483-.815-.687-1.267-.24-.54-.082-.8.467-1.336.378-.37.921-.576 1.338-.576zm1.657.896c.582.045 1.41 1.888 1.487 3.205.036.137-1.966-.31-2.499-.925.064-.54.567-1.911 1.012-2.28zm-4.507 1.504c3.469 7.013 3.252 12.49.198 17.527l-2.393-2.058c1.61-3.83 2.405-7.918-.303-13.122zm2.34 1.754c.24-.02.98.09 1.637.3 2.321.747 2.408 2.274.173 3.395-.925.464-1.214.258-1.747-2.078-.264-1.155-.463-1.582-.063-1.617zm4.482 2.688c.448-.002.654.848.708 2.314.052 1.393-.242 1.502-1.358.508-1.205-1.074-1.413-1.329-.308-2.212.324-.26.755-.61.958-.61zm-3.163 2.3c.22-.02.862.391 1.488.871 1.587 1.216 1.235 2.05-.568 2.639-1.25.407-1.188.459-1.156-1.714.016-1.075-.048-1.772.236-1.797zm21.012 1.978c-1.937.494-2.751 2.232-2.108 3.796.292.711.736.717.215 1.152-.581.675-.89 2.237-.25 2.806.754.435.948-.315.153 1.154l-14.593 26.957 87.596-.164-10.528-19.83c.024-.027.842-3.27-.843-3.662-.54-.125-.85-.63-.96-1.114.137-1.38-.486-1.967-1.01-2.68-8.327 1.183-15.56.594-21.535-.757-8.607-1.947-14.758-5.318-18.758-6.377-5.516-1.46-12.173-2.094-17.38-1.281zm4.718.186c6.787-.041 14.385 2.048 19.702 4.362 5.517 2.292 11.361 4 17.266 4.876 4.873.617 9.734.307 14.395-.065.51-.077 1.037-.007 1.417.4.965 1.079.308 1.755-2.11 1.98-3.88.322-8.692.184-12.96-.46-6.76-.782-13.925-2.837-20.107-5.414-7.726-2.915-14.822-3.891-20.43-3.03-3.078.472-3.53.546-3.519-.286.024-1.623 1.36-2.365 6.346-2.363zm-22.24 4.705c-.297.688-2.408-1.562-2.387-2.197.045-.28 1.754-1.402 2.432-1.857.328-.253.306-.122.31.175.012.848-.055 3.039-.354 3.88zm-3.25-1.66c.975.132 2.577 2.777 1.166 3.186-1.249.363-2.385.596-2.537-.246.643-2.069.885-2.887 1.256-2.935.038-.005.078-.005.116-.005zm56.645 9.032c6.218 1.08 14.379 1.728 19.713 1.309 3.058-.31 3.702-.21 3.683 1.072-.012.803.076.783-3.87.78-3.28.22-6.234-.135-9.409-.3-6.57-.328-12.538-1.46-18.055-3.385-6.12-1.597-11.422-4.664-17.41-5.297-5.492-.542-10.432.436-11.468 1.014-.346-.005-.527-.52-.506-.995.02-.465.192-.838.578-1.135 15.741-3.993 24.17 4.56 36.744 6.937zm-54.588-5.289c.524.006.358.786-.501 2.44-.73 1.407-1.017 1.4-1.43-.043-.44-1.54-.398-1.711.477-1.937.515-.124.95-.395 1.454-.46zm-3.674.785c.615.009 1.488 2.809 1.04 3.336-.354.416-1.634.133-2.007-.358-.6-.792.167-2.99.967-2.978zm27.52.756c2.442-.025 4.875.238 7.113.625-1.289.479-2.57.92-3.908 1.698a23.474 23.474 0 0 0-3.205-2.323zm3.173 3.399c8.63-4.839 12.272 1.841 13.52 2.918 7.544-1.679 9.02-.852 13.23 3.721 7.554-3.714 11.216-.557 14.37 1.44 3.699-3.476 8.389-3.571 10.833-1.827.458.77 1.093 1.745 1.145 2.037.041.226-.305-.038-1.155-.65-4.437-3.192-11.8.784-9.832 4.992.53 1.134.445 1.623-.347 2.078-1.125.765-2.507-.505-1.723-1.802 1.308-2.164.323-3.976-2.86-5.65-4.487-2.36-11.817.284-10.309 3.762.966 1.111.07 1.894-1.203 1.855-1.443-.046-1.932-1.016-1.007-2.053 1.154-1.325.851-2.668-.493-4.198-4.029-5.77-12.18-3.483-11.1 1.574.473 1.257-.874 1.764-2.273 1.205-.89-.355-.757-1.739.217-2.227 1.12-.114 1.28-1.746 1.145-2.794-.194-1.524-2.43-3.027-4.641-3.824-1.6-.576-3.087-.7-4.261-.592-2.477.228-3.86 1.92-3.452 4.455.24 1.495-.176 3.046-1.921 2.223-.956-.45-.716-1.537.26-2.538 3.43-3.369-3.477-7.467-7.646-4.644-.707.585-1.223.686-1.223.686 2.615-6.545 10.802-.415 10.726-.147zm11.365-.882l5.21 1.973c-1.201.239-2.048.58-2.899.919zm-13.609 2.128c-4.809-.916-5.07 4.488-1.936 5.37-4.311 5.956 6.978 8.267 4.907.918 5.72 1.036 4.685-5.51.432-5.45.995-2.44 8.847-.59 8.509 1.221-5.31.566-3.188 5.43-.891 5.435-5.551 5.286 5.557 10.158 5.262 2.19 4.457.943 4.982-5.007.697-5.398 1.57-2.22 7.173-.82 8.727 1.719-4.423.59-4.146 4.496-.685 5.127-4.387 5.616 6.409 7.692 5.287 1.163 3.868 1.337 5.991-3.853.98-5.336 5.133-3.076 10.708 1.508 10.104 1.602-5.859-.349-4.692 5.555-.453 5.235-2.697 6.13 7.992 6.471 5.281.113 4.808.089 4.386-5.513-.22-5.888 2.9-2.126 6.17-2.312 8.275-.323-4.384 1.16-2.562 6.283 1.847 4.865.408 4.287 3.875 3.378 3.952 3.248l3.102 5.82-84.047.135 7.173-13.313c4.24.218 4.089-3.886 3.903-3.987 2.819 2.024 5.851-3.007 1.726-4.45 3.37-3.546 8.367-.27 8.068-.016zm-27.36-.37c-.176.18-.222.288-.511.019-.733-.843 1.26-.914.51-.02zm17.378 2.23c.37.304.116 1.139-.184 1.424-.758.816-1.014.751-.347-.657.197-.427.383-.772.531-.768zm36.823.377l4.37 1.062-2.075 1.177a26.349 26.349 0 0 0-2.295-2.24zm13.657 1.77l4.753.304c-.628.43-1.244.83-2.013 1.613-.598-.64-1.732-1.278-2.74-1.918zm15.833 4.873c.264.554 1.314 2.482 1.215 2.533-1.537.269-1.949-2.031-1.215-2.533z" fill="#100f08"/><path d="M3693.815 50.25c-5.186-8.565-10.642-16.89-17.46-24 6.818-7.11 12.274-15.435 17.46-24 5.186 8.565 10.642 16.89 17.46 24-6.818 7.11-12.274 15.435-17.46 24zM3651.375 39.528c-2.161-3.568-4.435-7.037-7.276-10 2.841-2.962 5.115-6.43 7.276-10 2.16 3.57 4.434 7.038 7.275 10-2.84 2.963-5.114 6.432-7.275 10zM3796.886 200.683c-5.186 8.565-10.643 16.89-17.461 24 6.818 7.111 12.275 15.436 17.46 24 5.187-8.564 10.643-16.889 17.462-24-6.819-7.11-12.275-15.435-17.461-24zM3839.327 211.393c-2.161 3.569-4.435 7.037-7.276 10 2.842 2.963 5.115 6.431 7.276 10 2.16-3.569 4.434-7.037 7.275-10-2.84-2.963-5.114-6.431-7.275-10zM3652.172 12.758h3.32L3650.615.573l-3.726 5.147.026 7.038h2.617v3.63h-9.221v-3.63h3.038v-26.205l-3.038.012v-3.172h9.356v3.28h-2.582l-.055 12.771 8.167-12.879h-2.883v-3.172h9.954v3.172h-2.626l-6.725 10.525 6.585 15.673h2.922l.015 3.63h-10.236l-.03-3.635zm0 0M3838.53 238.163h-3.32l4.876 12.185 3.726-5.147-.026-7.037h-2.616v-3.63h9.221v3.63h-3.038v26.204l3.038-.012v3.173h-9.356v-3.28h2.582l.055-12.772-8.167 12.879h2.882v3.173h-9.954v-3.173h2.627l6.724-10.525-6.584-15.673h-2.922l-.015-3.63h10.235l.031 3.635zm0 0" fill="#d40000"/></g></svg>