<svg xmlns="http://www.w3.org/2000/svg" width="63mm" height="88mm" viewBox="0 0 223.22835 311.81102"><rect y="370.276" x="260.433" height="311.811" width="223.228" rx="10.678" ry="10.664" fill="#fff" stroke="#000" stroke-width="1.001" transform="matrix(.99554 0 0 .9968 -258.773 -368.593)"/><path d="M17.639 70.248s-2.215-3.18-5.203-6.918c-1.999-2.501-3.596-5.21-3.745-7.543-.17-2.666 1.442-5.34 4.362-5.47 2.919-.129 4.103 2.056 4.586 3.857.482-1.801 1.666-3.986 4.585-3.856 2.92.13 4.533 2.803 4.362 5.469-.148 2.333-1.746 5.042-3.745 7.543a146.776 146.776 0 0 0-5.202 6.918zM205.59 241.563s-2.214 3.18-5.202 6.918c-1.999 2.502-3.596 5.21-3.745 7.544-.17 2.665 1.442 5.339 4.363 5.469 2.918.13 4.102-2.056 4.585-3.857.482 1.801 1.666 3.986 4.585 3.857 2.92-.13 4.533-2.804 4.362-5.47-.148-2.333-1.746-5.041-3.745-7.543a146.776 146.776 0 0 1-5.202-6.918zM111.614 80.935s-4.645-7.63-10.912-16.603c-4.192-6.004-7.544-12.505-7.855-18.105-.358-6.396 3.025-12.814 9.15-13.125 6.121-.31 8.606 4.932 9.617 9.255 1.012-4.323 3.496-9.566 9.617-9.255 6.125.311 9.508 6.729 9.15 13.125-.311 5.6-3.663 12.101-7.855 18.105-6.266 8.972-10.912 16.603-10.912 16.603zM111.614 179.829s-4.645-7.631-10.912-16.603c-4.192-6.004-7.544-12.505-7.855-18.105-.358-6.397 3.025-12.814 9.15-13.125 6.121-.311 8.606 4.932 9.617 9.254 1.012-4.322 3.496-9.565 9.617-9.254 6.125.31 9.508 6.728 9.15 13.125-.311 5.6-3.663 12.1-7.855 18.105-6.266 8.972-10.912 16.603-10.912 16.603zM111.614 230.876s-4.645 7.63-10.912 16.603c-4.192 6.004-7.544 12.505-7.855 18.105-.358 6.396 3.025 12.814 9.15 13.125 6.121.31 8.606-4.932 9.617-9.255 1.012 4.323 3.496 9.566 9.617 9.255 6.125-.311 9.508-6.729 9.15-13.125-.311-5.6-3.663-12.101-7.855-18.105-6.266-8.972-10.912-16.603-10.912-16.603zM6.975 39.976l2.53-1.862c2.194 3.579 4.649 5.936 8.404 5.531 5.635-.388 7.97-6.301 6.79-10.757-1.14-3.998-5.805-5.946-9.515-3.814-.875.505-1.72.917-1.885.917-.389 0-1.27-1.754-1.15-2.289 2.49-3.64 8.535-10.018 8.535-10.018H11.24v4.271H7.615v-7.663h18.46v2.6s-4.947 5.136-6.581 7.949c4.025.147 7.27 2.702 8.435 6.74.68 2.126.375 6.99-.515 9.086-1.486 3.494-5.544 6.329-9.255 6.492-6.23.419-9.534-3.951-11.184-7.183zm0 0M216.251 271.835l-2.529 1.863c-2.195-3.58-4.65-5.937-8.405-5.532-5.635.388-7.97 6.302-6.79 10.758 1.14 3.998 5.805 5.945 9.515 3.814.875-.506 1.72-.918 1.885-.918.39 0 1.27 1.754 1.15 2.29-2.49 3.64-8.535 10.017-8.535 10.017h9.445v-4.27h3.624v7.662h-18.459v-2.6s4.946-5.136 6.58-7.949c-4.025-.147-7.27-2.701-8.435-6.74-.68-2.126-.375-6.99.515-9.085 1.486-3.494 5.545-6.33 9.255-6.492 6.23-.42 9.534 3.95 11.184 7.182zm0 0" fill="#d40000"/></svg>