<svg xmlns="http://www.w3.org/2000/svg" width="63mm" height="88mm" viewBox="0 0 223.22835 311.81102"><g transform="matrix(.99554 0 0 .9968 -3243.52 470.399)"><rect ry="10.664" rx="10.678" width="223.228" height="311.811" x="3258.559" y="-471.408" fill="#fff" stroke="#000" stroke-width="1.001"/><path d="M3318.407-438.713c-9.226 13.157-19.098 20.728-19.262 30.993-.055 3.324 1.742 8.973 7.371 10.055 3.652.698 8.68-2.258 8.785-8.263-.016-1.195 1.266-1.164 1.254.474-.172 4.737-1.671 10.252-4.191 14.74h12.086c-2.52-4.488-4.02-10.003-4.192-14.74-.012-1.638 1.27-1.67 1.254-.474.105 6.005 5.133 8.961 8.785 8.263 5.63-1.082 7.426-6.731 7.371-10.055-.164-10.265-10.035-17.836-19.261-30.993zM3275.776-421.435c-4.31 5.482-8.922 8.637-9 12.914-.025 1.385.815 3.739 3.445 4.19 1.706.29 4.055-.941 4.104-3.443-.01-.498.592-.485.586.197-.08 1.974-.78 4.272-1.958 6.142h5.647c-1.178-1.87-1.878-4.168-1.959-6.142-.01-.682.594-.695.586-.197.05 2.502 2.399 3.733 4.105 3.442 2.63-.45 3.47-2.804 3.444-4.189-.077-4.277-4.69-7.432-9-12.914zM3318.407-258.432c-9.226-13.158-19.098-20.729-19.262-30.994-.055-3.324 1.742-8.973 7.371-10.055 3.652-.698 8.68 2.258 8.785 8.263-.016 1.196 1.266 1.164 1.254-.474-.172-4.736-1.671-10.251-4.191-14.74h12.086c-2.52 4.489-4.02 10.004-4.192 14.74-.012 1.638 1.27 1.67 1.254.474.105-6.005 5.133-8.96 8.785-8.263 5.63 1.082 7.426 6.731 7.371 10.055-.164 10.265-10.035 17.836-19.261 30.994zM3464.57-209.57c-4.31-5.482-8.922-8.637-8.999-12.914-.026-1.385.814-3.74 3.444-4.19 1.707-.29 4.056.94 4.105 3.443-.01.498.591.485.586-.197-.08-1.974-.781-4.272-1.959-6.142h5.647c-1.177 1.87-1.878 4.168-1.958 6.142-.01.682.593.695.586.197.049-2.502 2.398-3.734 4.104-3.443 2.63.45 3.47 2.805 3.444 4.19-.077 4.277-4.689 7.432-9 12.914zM3421.94-438.713c-9.226 13.157-19.098 20.728-19.262 30.993-.055 3.324 1.742 8.973 7.371 10.055 3.652.698 8.68-2.258 8.785-8.263-.016-1.195 1.266-1.164 1.254.474-.172 4.737-1.671 10.252-4.191 14.74h12.086c-2.52-4.488-4.02-10.003-4.192-14.74-.012-1.638 1.27-1.67 1.254-.474.105 6.005 5.133 8.961 8.785 8.263 5.63-1.082 7.426-6.731 7.371-10.055-.164-10.265-10.035-17.836-19.261-30.993zM3318.407-372.573c-9.226 13.157-19.098 20.729-19.262 30.993-.055 3.324 1.742 8.974 7.371 10.055 3.652.699 8.68-2.257 8.785-8.262-.016-1.196 1.266-1.165 1.254.473-.172 4.737-1.671 10.252-4.191 14.741h12.086c-2.52-4.489-4.02-10.004-4.192-14.74-.012-1.639 1.27-1.67 1.254-.474.105 6.005 5.133 8.96 8.785 8.262 5.63-1.081 7.426-6.73 7.371-10.055-.164-10.264-10.035-17.836-19.261-30.993zM3370.173-396.073c-9.226 13.157-19.097 20.729-19.261 30.993-.055 3.324 1.742 8.974 7.37 10.055 3.653.699 8.68-2.257 8.786-8.262-.016-1.196 1.266-1.165 1.254.473-.172 4.737-1.672 10.252-4.192 14.741h12.086c-2.52-4.489-4.02-10.004-4.191-14.74-.012-1.639 1.27-1.67 1.254-.474.105 6.005 5.133 8.96 8.785 8.262 5.629-1.081 7.426-6.73 7.37-10.055-.163-10.264-10.035-17.836-19.26-30.993zM3421.94-372.573c-9.226 13.157-19.098 20.729-19.262 30.993-.055 3.324 1.742 8.974 7.371 10.055 3.652.699 8.68-2.257 8.785-8.262-.016-1.196 1.266-1.165 1.254.473-.172 4.737-1.671 10.252-4.191 14.741h12.086c-2.52-4.489-4.02-10.004-4.192-14.74-.012-1.639 1.27-1.67 1.254-.474.105 6.005 5.133 8.96 8.785 8.262 5.63-1.081 7.426-6.73 7.371-10.055-.164-10.264-10.035-17.836-19.261-30.993zM3318.407-192.292c-9.226-13.157-19.098-20.729-19.262-30.993-.055-3.324 1.742-8.974 7.371-10.055 3.652-.698 8.68 2.257 8.785 8.262-.016 1.196 1.266 1.165 1.254-.473-.172-4.737-1.671-10.252-4.191-14.741h12.086c-2.52 4.49-4.02 10.004-4.192 14.74-.012 1.639 1.27 1.67 1.254.474.105-6.005 5.133-8.96 8.785-8.262 5.63 1.081 7.426 6.73 7.371 10.055-.164 10.264-10.035 17.836-19.261 30.993zM3421.94-192.292c-9.226-13.157-19.098-20.729-19.262-30.993-.055-3.324 1.742-8.974 7.371-10.055 3.652-.698 8.68 2.257 8.785 8.262-.016 1.196 1.266 1.165 1.254-.473-.172-4.737-1.671-10.252-4.191-14.741h12.086c-2.52 4.49-4.02 10.004-4.192 14.74-.012 1.639 1.27 1.67 1.254.474.105-6.005 5.133-8.96 8.785-8.262 5.63 1.081 7.426 6.73 7.371 10.055-.164 10.264-10.035 17.836-19.261 30.993zM3370.173-234.932c-9.226-13.158-19.097-20.729-19.261-30.994-.055-3.324 1.742-8.973 7.37-10.055 3.653-.698 8.68 2.258 8.786 8.263-.016 1.196 1.266 1.164 1.254-.474-.172-4.736-1.672-10.251-4.192-14.74h12.086c-2.52 4.489-4.02 10.004-4.191 14.74-.012 1.638 1.27 1.67 1.254.474.105-6.005 5.133-8.96 8.785-8.263 5.629 1.082 7.426 6.731 7.37 10.055-.163 10.265-10.035 17.836-19.26 30.994zM3421.94-258.432c-9.226-13.158-19.098-20.729-19.262-30.994-.055-3.324 1.742-8.973 7.371-10.055 3.652-.698 8.68 2.258 8.785 8.263-.016 1.196 1.266 1.164 1.254-.474-.172-4.736-1.671-10.251-4.191-14.74h12.086c-2.52 4.489-4.02 10.004-4.192 14.74-.012 1.638 1.27 1.67 1.254.474.105-6.005 5.133-8.96 8.785-8.263 5.63 1.082 7.426 6.731 7.371 10.055-.164 10.265-10.035 17.836-19.261 30.994zM3265.756-424.57v-33h3.199v33h-3.199zm0 0M3278.437-457.57c-3.08 0-5.554 2.812-5.554 6.306v20.388c0 3.494 2.476 6.305 5.554 6.305h1.797c3.08 0 5.56-2.811 5.56-6.305v-20.388c0-3.494-2.482-6.306-5.56-6.306h-1.797zm.93 3.12c1.817 0 3.28 1.394 3.28 3.138v20.659c0 1.744-1.463 3.151-3.28 3.151-1.819 0-3.286-1.407-3.286-3.151v-20.659c0-1.742 1.467-3.138 3.285-3.138zm0 0M3474.588-206.435v33h-3.199v-33h3.199zm0 0M3461.907-173.435c3.08 0 5.555-2.812 5.555-6.306v-20.388c0-3.494-2.477-6.305-5.555-6.305h-1.797c-3.08 0-5.56 2.811-5.56 6.305v20.388c0 3.494 2.482 6.306 5.56 6.306h1.797zm-.93-3.12c-1.817 0-3.279-1.395-3.279-3.139v-20.658c0-1.744 1.462-3.152 3.28-3.152 1.818 0 3.285 1.408 3.285 3.152v20.658c0 1.743-1.467 3.139-3.285 3.139zm0 0"/></g></svg>