<svg xmlns="http://www.w3.org/2000/svg" width="238.11" height="332.599" viewBox="0 0 223.22771 311.81164"><g transform="matrix(.99553 0 0 .9968 -1249.606 30.846)"><rect y="-30.445" x="1255.711" height="311.811" width="223.228" rx="10.678" ry="10.664" fill="#fff" stroke="#000" stroke-width="1.001"/><path d="M1272.928 39.528c-2.161-3.568-4.435-7.037-7.276-10 2.841-2.962 5.115-6.43 7.276-10 2.16 3.57 4.434 7.038 7.275 10-2.84 2.963-5.114 6.432-7.275 10zM1419.091 50.25c-5.186-8.565-10.642-16.89-17.46-24 6.818-7.11 12.274-15.435 17.46-24 5.186 8.565 10.643 16.89 17.461 24-6.818 7.11-12.275 15.435-17.46 24zM1461.722 231.393c-2.16-3.569-4.434-7.037-7.275-10 2.841-2.963 5.114-6.431 7.275-10 2.161 3.569 4.435 7.037 7.276 10-2.841 2.963-5.115 6.431-7.276 10zM1315.558 50.25c-5.186-8.565-10.642-16.89-17.46-24 6.818-7.11 12.274-15.435 17.46-24 5.186 8.565 10.643 16.89 17.461 24-6.818 7.11-12.275 15.435-17.46 24zM1315.558 248.676c-5.186-8.564-10.642-16.889-17.46-24 6.818-7.11 12.274-15.435 17.46-24 5.186 8.565 10.643 16.89 17.461 24-6.818 7.111-12.275 15.436-17.46 24zM1419.091 248.683c-5.186-8.565-10.642-16.889-17.46-24 6.818-7.11 12.274-15.435 17.46-24 5.186 8.565 10.643 16.89 17.461 24-6.818 7.111-12.275 15.435-17.46 24zM1273.158 16.389v-2.915h2.63V8.666h-13.157V5.273l14.237-21.88 2.326.012V5.274h4.028v3.392h-4.028l-.076 4.808h2.205v2.919h-8.165zm2.63-24.986l-9.04 13.872h9.04V-8.597zm0 0M1461.49 234.532v2.915h-2.631v4.808h13.158v3.393l-14.238 21.88-2.326-.011v-21.87h-4.028v-3.392h4.028l.076-4.808h-2.205v-2.919h8.165zm-2.631 24.986l9.04-13.872h-9.04v13.872zm0 0" fill="#d40000"/></g></svg>