<svg xmlns="http://www.w3.org/2000/svg" width="63mm" height="88mm" viewBox="0 0 223.22835 311.81102"><g transform="matrix(1 0 0 1 -3105.277 736.062)"><rect ry="10.63" rx="10.63" width="222.232" height="310.814" x="3105.784" y="-735.562" fill="#fff" stroke="#000" stroke-width=".997"/><path d="M3122.925-665.812s-2.215-3.18-5.203-6.918c-1.998-2.502-3.596-5.21-3.745-7.544-.17-2.665 1.443-5.34 4.363-5.469 2.918-.13 4.103 2.055 4.585 3.856.482-1.8 1.666-3.985 4.585-3.856 2.92.13 4.533 2.804 4.362 5.469-.148 2.333-1.746 5.042-3.745 7.544-2.988 3.738-5.202 6.918-5.202 6.918zM3310.877-494.498s-2.215 3.18-5.203 6.918c-1.998 2.502-3.596 5.21-3.745 7.544-.17 2.665 1.443 5.34 4.363 5.469 2.918.13 4.102-2.055 4.585-3.856.482 1.8 1.667 3.986 4.585 3.856 2.92-.13 4.533-2.804 4.362-5.469-.148-2.333-1.746-5.042-3.745-7.544a146.793 146.793 0 0 1-5.202-6.918zM3122.817-721.768v3.443h3.34s.08 3.319.11 10.36c.025 6.836.165 10.227-.27 12.174-1.17 4.488-7.665 4.513-8.955 1.286-.75-1.877-.55-3.336-.585-5.226h-3.59s.02.952.026 2.116c.02 5.046 1.69 7.46 5.594 8.41 4.016 1.087 8.71-.57 10.38-4.005.994-1.958.88-2.092.904-13.93.015-7.899.135-11.185.135-11.185h3.074v-3.443h-10.163zm0 0M3310.983-438.542v-3.443h-3.34s-.08-3.319-.11-10.36c-.025-6.836-.165-10.227.27-12.174 1.17-4.488 7.665-4.513 8.955-1.286.75 1.877.55 3.336.585 5.226h3.59s-.02-.951-.026-2.116c-.02-5.046-1.69-7.46-5.594-8.41-4.015-1.087-8.71.57-10.38 4.005-.994 1.958-.88 2.092-.904 13.93-.015 7.899-.135 11.185-.135 11.185h-3.074v3.443h10.163zm0 0" fill="#d40000"/><path d="M3296.374-699.298l-11.46 7.493-.16 8.738c-6.795-3.27-9.75-8.628-10.82-14.904-1.922 2.432-1.54 14.71-1.54 14.71-1.746.91-2.385 2.096-3.501 3.163 1.096 1.816 4.2 4.907 4.2 4.907-.023-.055-1.423 12.784.271 13.295 1.55-5.472 3.61-10.246 11.203-15.252 0 0 .114 20.383-.372 40.075-3.212-2.218-10.003-6.201-14.39-10.277 5.689-7.36-.112-16.952-8.602-10.58-5.503-2.987-6.348-17.098-7.709-24.489-.262-1.482-1.543-5.83-1.543-5.83s-18.132-5.03-25.918-4.62c6.54 17.093 5.27 37.923-23.672 41.825-13.867 6.36-29.889 13.451-45.46 26.697-2.868 19.723-13.01 29.433-20.17 34.805.05 7.992-.054 15.904.274 23.97-.007.05 6.536-4.308 7.564-3.505 5.468 35.646 25.492 42.713 23.49 43.701-.324.16-6.562 6.591-6.562 6.591l-24.439-16.147c-.838 24.647-.352 49.779 0 74.467 4.315-2.446 12.246-8.298 12.246-8.298l.12-8.385c-.036-.797 11.114 6.985 11.14 16.255.869.592 2.771-13.34 1.039-14.848l4.57-4.73-4.922-4.753s1.249-7.89-1.302-12.435c-1.654 10.404-10.264 13.649-10.264 13.649s-.168-38.03-.39-38.063l15.36 9.754c-8.319 11.362 6.322 15.05 8.036 9.521 9.447 8.83 5.81 19.386 9.942 31.912l26.805 4.932c-11.047-20.558.94-43.983 22.636-42.308 4.063-1.698 7.742-4.15 7.742-4.15s-2.697-4.421-6.103-8.525l-46.433-.769 21.645-40.705-14.236-.46s11.57-24.611 9.07-26.594c-.878-.696-.511-8.632-.511-8.632l12.716.474c.503-5.68-6.15-27.326-15.536-41.481l52.189.469-29.38 41.1 15.78.454-9.417 19.4 1.51 15.132-14.001.455c2.414 20.978 17.95 43.08 23.411 49.905 9.03-2.146 25.887-15.087 36.348-23.133 1.356-14.077 6.188-26.06 18.822-35l.039-23.175s-7.211 4.67-7.21 4.346c.03-5.016-2.577-15.457-7.385-24.764-5.16-9.987-13.63-19.032-15.578-19.598 4.48-6.8 6.392-7.409 6.328-7.517l24.403 15.698zm-123.003 49.415s-4.746 1.811-8.87 1.755c-7.392.382-13.029.98-16.026 7.06-.61 1.851.725 2.533 1.706 3.018 5.572-6.938 20.378 2.226 23.19-11.833zm-32.808 31.838c0 .98 1.092 2.582 1.64.92.474-1.187.57-3.11.038-4.295-1.484-.838-1.66 2.416-1.678 3.375zm80.036 33.57l-7.217.034-.043 8.497 7.264-.004zm70.896 42.3c-.159.844-.937 4.64.824 3.98 2.078-1.606.309-8.985-.824-3.98zm-6.794 21.33c-.853-1.246-3.49 1.85-5.653 1.966-9.616.516-16.7-.774-17.898 9.316 5.546-3.55 13.315-1.932 18.32-3.08 3.619-1.205 7.77-4.491 5.23-8.203z" fill="#e2cf00"/><path d="M3135.266-448.577v-263.156h163.268v263.156zm7.471-170.546c.14-2.531-.898-3.58-1.798-1.838-.213.412-.912 4.81.748 4.957 1.09.096.99-2.033 1.05-3.119zm-2.634 2.97c-.01-.597-.377-.857.435-6.058-1.551-.6-2.894-3.125-1.765-4.721.441-.623.313-.76.132-1.283-.445-1.292-.21-2.346.987-3.17.765-.527.798-.667.553-1.36-.631-1.786-.04-3.53 1.664-4.124 1.18-.412.953-.47 1.077-1.221.278-1.68 1.204-2.696 2.884-2.527 1.563.158 1.666.16 1.8-.607.371-2.119 2.932-4.432 6.275-6.005 1.66-.781 4.413-1.334 9.686-1.32 3.02-.053 6.786-.457 8.898-2.32.349-.326.833-1.183 1.002-1.067.394.272.298 2.382-.474 4.306-2.248 5.605-5.291 7.15-13.894 7.098-2.564-.122-6.343.226-7.945 1.862-.477.507-.795.986-.616 1.246 3.564.507 7.223 2.12 9.353 9.173 6.463-4.595 16.764-11.633 29.538-17.995-1.535-8.43 5.753-9.73 9.84-8.053 0 0 .104-.55-.054-1.187a6.594 6.594 0 0 0-1.135-2.48c-.19-.382-1.337-1.107-1.11-1.68.37-.938.205-1.196-.578-2.06-.509-.562-.171-1.762-.048-2.246.161-.903.754-2.191.23-2.677-.81-.751-3.566-2.023-4.986-3.034-1.57-1.145-1.6-2.175.7-5.94 1.048-2.19 2.038-4.54 2.873-6.113 1.264-2.379 1.395-3.947.629-5.31-1-1.782-.835-3.894-.812-3.84 0 0-9.44-13.26-13.33-18.556h-44.356v100.927l7.63-7.284-2.065-2.45c-.292 1.422-.027 2.814-1.777 2.895-.596.02-1.147-.23-1.241-.819zm26.246 135.046c.251-4.005-1.66-10.562-4.539-15.104.124 3.45.372 7.667-.319 11.04zm69.696 10.451c-.348-.112-3.247-.29-5.068-.387-6.037-.321-9.956-3.225-12.572-7.242-.644-.988-.377-.943 1.049.175 4.007 3.14 7.76 5.018 11.053 4.547 4.67-.667 7.189 1.05 6.542 3.05-.113.35-.152.133-1.004-.143zm-15.814-8.934c-.934-.813-1.004-1.178.105-.438 3.39 2.263 7.482 5.957 12.539 3.793 1.048-.675.084-.585-1.672-.398-2.683.286-5.952-1.08-9.974-3.866-1.964-1.36-1.1-2.508 1.112-1.442.683.329 1.375.57 1.816.6 2.176-1.45 6.752-1.434 6.645-1.425.521-.45-1.188-1.165-3.732-2.128-1.652-.626-2.052-.883-.822-.931 1.074-.042 2.765.495 3.984 1.287 2.035 1.311 3.06 2.038 3.666 2.123.998.079 2.016.223.304 1.02-.779.362-.71.454-.62 1.33.14 1.37.22 1.355.851 2.13 1.063 1.174 1.526 3.36.01 1.992-.327-.151-.36.14-1.253.501-5.24 1.483-9.145-.832-12.959-4.148zm9.674.39c.292-.385.731-1.372.79-1.647-.1-.639-.666-.439-.953-.079-.489.602-1.173 1.488-.61 1.79.265.143.525.263.773-.063zm-1.79-.414l1.165-2.083c-.288-.135-4.233.683-3.615 1.25.548.504 2.45.833 2.45.833zm4.443-6.988c-1.797-.964-2.321-3.043-.978-4.423 1.128-1.16 3.042-1.061 5.331.352.806.498 1.3.75 1.852.547.923-.342 1.276.178 1.2.904-.167 1.598-2.648 1.989-4.213.165-2.07-2.41-4.319-.729-3.659 1.015.336.887.988 1.025 1.736 1.359 0 .174-.746.361-1.27.08zm-8.194-10.74c2.978-.806 7.405 2.353 9.806 1.923 1.04-.223.894 1.28-.187 1.825-1.263.636-3.058.208-6.867-1.784-3.137-1.7-5.676 1.118-3.579 3.22.45.425 1.106.68 1.91.643 1.06-.05 1.372.24.004.593-.786.203-2.248-.117-2.955-.835-1.69-1.715-1.273-5.014 1.868-5.586zm-63.014-9.226c-.088-3.55 1.803-5.522 1.85-5.537l-13.382-9.106.2 36.37c6.63-4.221 8.807-9.543 9.187-16.412 13.091 14.707 9.005 32.61.829 42.805-.336-6.24-2.193-13.612-9.753-17.392l-.013 7.444-12.712 8.921v8.74h29.756l14.273-21.328c-2.582-9.482-2.194-17.371-3.94-21.71-1.31-3.565-3.8-8.172-5.408-7.458-5.438 4.319-10.78-.72-10.887-5.337zm11.262 4.197c4.636 3.348 5.872 8.819 6.823 13.682.032.041 2.433 16.485 2.51 16.706.31.902.207 1.802-.588 2.487-4.28 5.888-12.649 18.519-12.649 18.519l82.02.483c-4.376-6.385-7.794-12.697-11.951-17.947.175-.28-.325-3.865-1.018-5.025-.713-1.194-.878-1.82-.394-2.912 1.2-2.69 2.43-5.607 3.539-8.076 2.122-4.73 2.365-4.77-.533-6.306-3.435-2.006-4.047-2.658-3.327-4.948.263-.833.296-1.166-.767-1.384-.493-.1-1.69-.388-2.495-.612-2.318-.733-1.647-.278-2.495.324-.646.32-1.202-.908-1.959-2.36-.87-1.667-1.09-1.706.35-.848 2.666 1.591 7.4.973 5.732-.869-.813-.898-1.567-1.359-1.481-3.392.085-2.018.116-2.61-1.25-2.89-2.733-.561-5.704-.327-8.248.31-7.742 1.938-13.953 8.674-16.308 13.68-.53.872.688.827 1.213.83 2.538-.226 4.337 3.829 2.677 5.647-.768.811-1.533.313-.714-.74.934-1.744-.459-4.05-2.502-3.462-2.57.738-2.643 4.072-2.962 6.395-.876 6.694 2.514 15.642 3.344 17.468 0 0 .181.272.119.272s-.47.377-.642.18c-.595-.678-2.098-6.154-2.913-10.066-1.578-10.82 1.212-20.768 10.187-26.42 7.95-5.752 11.954-4.513 16.468-4.779 1.541-.556 3.68-1.4 5.3-2.196 14.158-7.407 27.06-14.65 38.932-24.27 8.68-6.566 12.82-11.894 20.258-18.605l-.754-37.501s-.75-.625-.746-1.222c.487-2.51-3.904 1.674-6.721 3.076-1.774-17.205-11.05-34.123-22.294-44.017l.462-.633s3.761 2.49 5.639 3.676v-2.4l-4.528-2.844c-.202-.876-.09-1.01.899-1.014l3.629 2.683v-2.19l-2.934-1.876.94-1.187 1.57 1.022c-.666-1.733.277-1.672 1.244-.523.403.526.922 1.201 1.142 1.84.084.243.334.841.334.841l2.573 1.92s-.1-.936-.008-1.223c.434-1.36 3.539 3.03 3.149 3.132l2.634 1.905c.624-.954 2.97.946 3.067 1.883.207.407 9.08 6.131 9.08 6.131l.096-3.161.956-1.249.43-73.046-11.779 7.554-.13 8.843c-5.564-1.806-10.384-9.89-11.09-14.934-.362-.198-1.973 9.947-1.12 14.387-1.472 1.098-3.95 3.666-3.93 3.68l4.463 4.897s-.892 7.5-.684 11.226c.181 1.768.216 1.947.743 1.95.428.003.812-.46.814-.865 1.049-4.461 4.492-11.422 10.45-13.793.393-.012-.033 39.795-.033 39.795l-14.784-10.116c-.736-.634.966-.594 2.005-3.963 2.679-8.69-6.614-11.76-10.204-6.728-.59-.004-3.057-3.061-3.426-4.339-2.734-5.526-3.258-11.789-3.79-16.813-.32-2.284-1.156-6.029-1.848-8.283-.37-1.204-.408-2.074.39-3.195 3.436-7.102 10.054-11.987 12.56-19.157l-82.236-.267c5.209 4.313 9.73 16.344 14.478 17.89-2.275.295-1.502 2.29-.619 4.435 1.086 2.637.966 3.182-1.789 8.614-4.038 7.964-4.256 7.264-.227 9.73 2.488 1.597 2.94 1.946 2.575 4.116-.366 2.17-.468 1.498 1.586 1.675 1.099.095 1.974.294 2.469.519.561.255.98.61 1.702.373 1.217-.4 1.246-.105 1.295.79.02.38.595 1.166.773 1.459.468.77.25.899-.61.356-2.644-1.67-7.065-.956-5.438.86.67.747 1.344 3.236 1.401 4.472.103 2.212 1.536 2.997 4.545 2.541 5.779-.431 18.809-7.626 21.845-15.708-6.674 2.28-5.303-5.936-2.924-5.677 0 0-.64 1.457-.66 2.289-.073 2.938 2.381 3.165 4.071 1.084.735-1.092 1.628-5.153 1.189-9.737-.532-5.551-2.775-11.76-3.18-13.302 9.543 22.852.779 32.9-12.633 39.457-5.136 2.152-5.84 2.139-8.868 2.28-2.071.168-3.94 1.201-5.927 1.856-11.476 5.494-25.578 12.344-38.193 22.564-9.052 6.726-16.241 12.772-23.39 20.54l-.029 40.32c2.15-.336 5.64-2.436 7.706-3.644 2.367 15.06 10.088 32.498 22.876 42.928-.007-.005-.301.568-.308.564-1.822-1.213-3.642-2.42-5.407-3.35l-.092 1.918 4.304 2.968c.114.46-.738 1.105-.738 1.105l-3.552-2.462-.028 1.954 2.75 1.759c.744.746-.9 1.136-.9 1.136l-1.629-1.185s.117.95.067 1.118c-.425 1.442-2.778-1.744-3.203-3.333l-2.315-1.375c.328.94-.5 1.072-1.157.836-1.739-.885-1.642-2.37-2.005-3.252l-3.08-1.96c-.53 2.944-3.662-1.202-3.167-2.195l-3.951-2.697c.218.082-1.507.44-2.09.058-.673-.44-.909-2.237-.909-2.237l-2.368-1.471v2.575l24.365 17.063-.351.663-25.416-17.441 1.03 75.697 12.39-8.597c-.237-2.833.284-5.363.05-8.591 6.367 3.974 8.51 6.678 11.318 15.025 1.817-4.751 1.497-9.31.682-13.528 1.627-1.336 3.212-2.634 4.03-4.649-1.531-2.114-3.029-2.707-4.641-4.669-.127-2.391 1.269-9.513-.604-11.862 0 0-3.423 10.346-10.797 13.457-.224-10.925.03-38.39.03-38.39s7.579 5.246 11.443 7.378c1.816.972 3.082 1.582 3.106 2.274.012.352-.717.801-1.037 1.297-.2.308-1.039 3.263-.712 5.574.148 1.703.948 2.78 1.715 3.597 2.431 2.588 6.884 1.367 8.647-.63zm14.668-19.334l29.149-40.898c3.467 15.05 9.322 28.833 16.959 41.328zm14.413-42.987s2.035-4.044 2.968-6.19h-3.57l2.135-2.402h5.315l-2.843 6.078h2.256l3.12-6.078h8.282l-2.897 6.078h1.908l3.099-6.078h7.7l-2.708 6.078h1.804l1.582-3.068.387 5.582h-7.65l3.023-6.19h-2.465l-3.417 6.19h-7.166l3.108-6.19h-2.724l-3.414 6.19zm23.604-21.779l3.09-6.548h-2.445l-3.418 6.411h-7.639l3.006-6.338-1.903.006c-1.29 1.999-3.349 6.059-3.349 6.059h-8.101s2.291-4.306 3.195-6.412h-1.999l-1.626 2.602c-.573-.971-.196-3.551-.292-4.646h7.636l-3.068 6.284h2.437l3.344-6.284h8.063l-3.284 6.284h1.909l3.255-5.94h8.204l-2.875 5.94h2.533l-1.117 2.582zm-7.547-11.41l-1.546.291c-1.98-16.969-11.342-34.269-15.304-41.412l46.582.657zm54.696-97.978s-4.443 5.73-4.74 15.342l4.232-3.39c-.269-9.753.508-11.952.508-11.952zm-4.692 16.063c-.071 7.153 1.799 11.713 4.163 15.282.04-4.607.502-9.27.775-10.493zm-115.327 136.842l-15.063-10.407v2.281l17.903 12.197zm-2.714-5.586c-4.035-2.031-12.35-8.321-12.35-8.321v2.08l13.237 9.328c.26.257.609.191.731-.096-.52-.882-1.148-2.082-1.618-2.99zm-3.697-9.034l-8.652-6.056v1.884c2.218 1.993 9.52 6.736 9.52 6.736zm-8.652-7.434l8.14 5.278-.506-2.337-5.782-3.938zm146.286-73.16l.435-37.607c-8.482 4.023-10.163 15.756-9.88 16.12-8.444-8.727-11.626-27.545.216-40.2.89 4.059 1.19 9.946 9.567 15.326l.215-7.965 11.701-7.52v-9.408h-28.213c-4.368 5.548-8.732 12-13.052 17.889-1.622 2.207-2.027 3.245-1.716 4.399 2.84 10.238 2.271 22.844 8.234 28.805 7.997-7.543 15.49 3.813 9.273 10.815zm-121.642 162.622c1.082 3.425.338 10.334.268 10.334 1.292-.705 4.803-10.709 3.925-14.468m40.745-183.664c-1.991-.567-3.49-1.425-5.593-1.224-1.655.172-2.217-.377-1.208-1.28 1.32-1.123 2.6-1.585 5.046-.302 7.361 3.863 7.588-1.778 4.274-2.177-.941-.113-.897-.715.04-.563 5.143.206 3.576 7.04-2.559 5.546zm-8.606-5.633c-.974-.356-2.15-.952-2.583-.835-1.092.294-1.13-.309-1-1.022.314-1.723 2.07-1.41 4.392.072 3.325 2.123 4.599-.93 1.573-2.577-1.018-.554-.703-.708-.108-.732 1.575-.065 3.06 2.087 2.641 3.847-1.06 2.823-3.633 1.717-4.915 1.247zm9.743-5.213c-2.152-.375-5.268-3.276-6.714-3.474-.813-.093-1.768.006-2.028-.321-.795-1.003 1.456-1.002 1.61-1.366.005-.845.057-1.374.024-1.663-.397-.54-1.963-2.699-1.908-3.744.037-.065.82.579 1.224.58 3.841-2.03 6.467-1.13 9.709.306 1.34.593 4.797 3.282 4.84 3.708.075.722-1.465-.631-2.67-1.441-2.965-2.068-5.632-3.538-9.355-2.312-.58.2-.48.307 1.428.19 1.863-.113 3.39.46 5.77 2.017.592.387 1.305 1.048 1.731 1.251 2.995 1.432 3.648 2.84 1.742 2.458-.408-.081-1.2-.508-1.976-.783-1.369-.486-.884-.34-2.202.276-.462.216-1.575.672-2.489.78-.7.117-2.972.099-1.967 1.06 1.066 1.072 2.835 1.862 4.05 2.35.876.39.202.306-.82.128zm.255-4.663c1.403-.521.306-1.7-1.482-1.961-.409-.06-1.283 1.877-1.302 2.285-.014.304 2.016-.039 2.784-.324zm-3.87.208c.321-.204 1.399-1.766 1.4-2.015.006-1.002-1.274-.723-1.57.32-.36 1.27-.39 2.052.17 1.695zm-4.481-8.08c-1.153-.511-2.72-2.748-.928-2.37.386.089 2.398.193 3.696.2 4.42.018 8.826 2.027 11.628 4.949 1.559 1.625 1.66 2.829.079 1.709-5.606-5.046-9.045-4.108-14.475-4.488zm43.657 173.953l-1.564.834c.004.87.316.735 1.01 1.35 0 0-.96.157-1.663.11-1.143-.076-1.404-.057-.9.75.234.373.554.923.554.923s-.62.134-1.552-.122c-1.414-.39-2.138-.194-1.604.595.148.217.431.626.431.626-1.031-.235-2.926-1.16-2.926-1.16l-1.337.408c2.667 5.224 12.15 1.93 9.551-4.314zm46.254-7.455c1.466-1.233.754-2.746-1.387-3.855-.892-.462-.804-.468-2.248.383-1.781 1.049-1.907 1.103-.639 2.452 1.531 1.629 3.197 1.927 4.274 1.02zm-5.44-3.487c1.348-.6.847-.498.756-1.912-.394-1.628.525-1.742.98-3.262.188-.831-.513-.524-1.875.747-1.123.946-1.457 1.177-1.454.716.127-.384-.771-1.372-1.576-1.506-.68-.113-.616-.27.048-1.133 1.155-1.497 1.63-3.386.855-5.05-.979-2.104-1.301-2.413-3.465-.576-1.107 1.023-2.672 1.808-3.428 3.073-.541.931-.228 1.832.628 3.661 2.137 4.566 5.438 6.617 8.53 5.242zm7.575.04c2.377-.935 1.418-3.509-2.297-6.103-2.239-1.563-2.874-1.547-.973.147 1.217 1.084 1.407 1.467.886 2.247-.435.65-.892 1.415-.46 2.01.68.936 1.841 2.092 2.844 1.698zm-133.834-4.28l-2.591-1.641v2.244l2.59 1.552zm129.492 2.027c.513-.362.955-1.38.958-1.83.117-1.045-1.578-.794-2.388.36-.91 1.298.167 2.361 1.43 1.47zm5.801-3.533c1.18-1.24.607-2.562-1.818-4.137-.936-.615-1.412-1.016-1.298.203.036.372-.37.864-.633 1.158-.84.942-.467 1.112 1.928 2.634 1.22.775 1.155.842 1.821.142zm-135.293-2.386l-2.591-1.569v2.037l2.59 1.754zm-5.665 2.034l.034-2.043-3.357-2.239-.048 2.278zm132.01-.826c-.432 1.17 1.307.64 1.408.52.301-.591.035-.647-.114-.71-.305-.128-1.49.076-1.294.19zm.76-1.477c.596-.193.666-.118.583-1.196-.125-1.629.119-1.76 1.197-2.476.862-.572.869-.486.855-1.485-.017-1.205.065-1.724 1.646-1.97.647-.1 1.017-.26 1.071-.771.09-.86-1.29-2.315-3.005-3.153-.253-.002-4.087 3.344-5.158 4.5l-.654.707.782 1.47c1.22 2.293 1.02 3.137.303 6.177-.147.815.48.696.643-.283.215-.915.34-1.248 1.736-1.52zm5.843-8.112c-.295 1.847.659 2.983 1.56 2.066.49-.5.901-4.577.56-5.225-1.85-1.986-2.047 2.715-2.12 3.16zm-29.792 30.584c6.876-4.038 15.713-.737 20.692-4.05 2.322-2.566 4.657-4.203 3.34-5.973-1.025-1.379-1.69-1.59-1.69-1.59.072.098-3.63 3.225-8.998 2.502-8.95-.31-13.181 2.51-13.344 9.11zm11.75-9.615c4.38.153 7.94-.61 9.568-1.884 1.01-.791 1.163-.93-.421-1.058-3.401-.275-6.845-4.23-7.924-8.067-.22-.789-.479-1.646-.479-1.646-9.06 7.254-29.006 18.68-29.006 18.68 1.323 6.175-3.136 9.858-9.177 7.665-1.051-.095-.915 1.261-.717 1.818.33.914 1.06 1.68 1.202 1.802.9.773 1.067 1.283.932 2.024-.134.73-.12.706.39.98.908.488.86 1.182.366 2.615-.534 2.015-.57 2.522.874 3.482 1.858 1.197 5.507 2.508 4.968 4.31-1.22 4.083-3.225 7.597-4.987 11.417-.654 1.058-.514 2.805.002 3.62.64 1.248.565 2.742 1.393 3.888 4.58 6.82 8.525 12.717 12.698 18.877h43.117v-100.481s-7.273 6.648-7.252 7.117c.025.56 1.58 1.434 2.249 1.546.027-.303-.005-1.5.082-1.92.062-.608 2.004-.45 2.647.079.451.37.313 2.787-.143 4.755-.373 1.61-.321 1.631.367 2.561.839 1.134 1.129 2.095 1.019 3.376-.06.702-.055 1.256.143 1.72.467 1.092.33 2.63-.183 3.345-.745 1.038-.757 1.196-.595 1.75.61 1.924.382 3.56-1.755 4.393-.274.107-.573.581-.748.991-.932 3.076-2.68 3.072-5.072 2.186-1.693 6.619-8.578 8.282-13.538 8.086-5.168-.204-10.423.184-12.761 3.574.547-8.03 4.13-11.901 12.741-11.601zm15.595-13.334c.878-.33.987-1.248.25-1.837-1.134-.905-2.435.016-1.903 1.324.298.734.8.832 1.653.513zm-136.022-2.916l-3.441-2.391.02 2.142 3.43 2.208zm6.492 1.76l-2.435-2.93c-7.179-4.403-13.401-9.329-19.371-13.294l-.046 2.715 1.707.863s.145-.597.262-.942c.219-.647 2.193 1.174 2.822 2.633.156.363.497 1.175.497 1.175l2.3 1.274s.035-.654.036-.837c.008-1.389 2.469.523 3.59 2.794.272.551.629 1.135.629 1.135l2.165 1.319c.854-1.17 3.03.431 3.588 1.853.706 1.804 1.95 1.96 1.998 1.966zm-12.958-.395l.005-2.08-3.588-2.367-.046 2.11zm147.71.17c.093-.546-.444-2.67-1.25-2.789-.503-.074-1.29.69-1.294 1.225-.004.693 2.442 2.156 2.543 1.564zm-2.92-2.524c.785-.858-.204-1.977-1.402-1.588-1.423.461-.931 1.754.662 1.781.355.007.57-.004.74-.193zm-144.975-1.53l.013-1.984-3.314-2.197-.07 1.939zm-6.518-.7l.033-1.909-2.178-1.522v2.286zm.078-5.72l-2.223-1.454v2.07l2.324 1.333zm9.034-6.294c-.23-.61-1.17-2.546-1.17-2.546l-10.087-7.063v2.174l11.285 7.613zm-4.72-16.782l-.12-.885-.897.48zm-2.138.22l-1.411.766 4.262 2.78-.343-1.977zm148-23.425l1.099-.798-1.942-1.32-.145 1.339zm1.966-1.27l1.444-1.196-4.83-3.415.343 2.125zm3.424-1.787v-1.46l-7.833-5.305.541 2.667c1.381.8 3.068 1.97 4.832 3.213 1.118.791 1.122 1.096 2.46.885zm0-2.703v-2.315l-9.061-6.034.736 2.717zm0-3.477l.004-2.427-10.969-7.269 1.2 3.211zm0-6.096l-13.827-9.281 1.769 3.557 12.058 8.082zm0-3.546l-17.353-11.578 1.948 3.24 15.405 10.448zm0-3.764l-.65-.002c-.051 1.658-1.843.455-2.518-1.37-.509-1.221-.622-1.53-.622-1.53l-3.495-2.368c.073.482.275 1.857.275 1.857l-2.354-1.442s-.68-2.282-.702-2.297l-4.022-2.741c.085.467.153 1.237-.108 1.29 0 0-1.223-.524-1.783-1.34a4.08 4.08 0 0 1-.67-1.704l-3.281-2.13-.817.088s-.443-.3-.859-.639c-.778-1.396-1.69-1.606-2.778-2.174 0 0 2.31 2.704 3.544 4.301a15.366 15.366 0 0 0 2.508 2.529l18.332 12.267zm0-3.785l-1.417-.853.104 2.24 1.313.895zm-142.914-4.929c.087-.14-.275-.302-.674-1.18-.986-2.176-1.083-2.935-.556-5.22.252-1.092-.736-1.56-1.19-.396-.353.905-.902 1.414-1.428 1.348-.496-.063-.6.146-.385.833.263.95-.309 2.188-1.104 2.525-.802.207-.949.717-.723 1.456.375 1.226-.945 2.263-1.981 2.204-1.602-.091-.973 1.371.957 2.764.715.515 1.034.794 1.596.534 1.46-1.385 4.178-3.366 5.488-4.868zm138.98 4.489l-.08-2.136-4.028-2.729.496 2.858zm3.934-.896v-2.151l-1.659-1.069.085 2.287zm-151.648-3.332c.386.392.77.427 1.383.057.707-.37.436-.93-.303-1.295-.69-.364-1.659.745-1.08 1.238zm-1.202-.943c-.055-.45.492-1.057.87-1.08.829-.049.682-.492-.264-1.067-.444-.27-1.231-.9-1.519-1.109-1.415-1.03-2.782.56-1.73 1.905.88 1.125 2.178 1.793 2.643 1.35zm148.519 1.333l-.313-2.377-3.639-2.425.288 2.617zm-132.275-5.792c.198-.33.258-.645.238-1.043-.074-1.495-.843-3.253-1.92-4.723-.802-1.095-1.775-2.03-2.76-2.58-2.784-1.435-6.498-.817-5.958 1.032.385 1.25.295 2.295-.774 2.924-.727.427-.819 1.003-.05 1.004.558 0 2.038-.513 2.655-1.488.87-1.374 1.369-2.173 1.173.07-.081.938.036.869 1.486.794 1.967-.102 1.602.267.453 1.156-1.674 1.294-2.007 3.483-1.162 5.345.523 1.152.885 1.765 1.566 1.61 1.473-.97 3.876-2.919 5.053-4.101zm125.848 2.773l-3.582-2.365.141 2.53 3.867 2.29zm-137.447-2.314c-1.314-1.662-2.854.46-1.858 1.389.723.637 2.547-.015 1.858-1.389zm-3.104.231c-.164-.517.785-1.349.934-1.68.435-.962-3.452-3.64-4.66-2.054-.834 1.094-.256 2.188 1.99 3.685 1.355.903 2.005.902 1.736.05zm140.202-1.603l-3.31-2.068.057 2.185 3.516 2.126zm-5.836 1.955v-2.231l-3.335-2.332-.054 2.31zm-129.66-2.638c.606-.6.401-.795-.769-.734-.74.038-.966-.086-1.016.254-.11.752 1.164 1.097 1.786.48zm-2.775-.843c.06-.156-.358-.46-1.04-1.035-1.303-1.095-1.451-1.777-.198-2.63 1.786-1.218-.087-2.95-2.16-2.246-1.675.569-1.68 2.26-.685 3.349 1.364.911 3.838 3.54 4.083 2.562zm132.435-2.23l-3.28-2.256v2.197l3.28 1.918zm-131.817.143c1.46-.747 1.539-2.62.076-1.934-.604.283-1.394 1.05-1.396 1.397-.004.675.574.918 1.32.537zm1.072-4.3c1.894-1.02 1.604-1.967-.283-3.153-2.302-1.324-3.914 1.215-2.018 2.943.993.904 1.223.792 2.301.21zm2.456-1.84c3.078-3.317 5.119-3.147 9.183-3.058 10.483.094 13.696-4.931 13.364-8.454-5.094 2.537-9.64 1.175-14.49 1.91-8.366 1.872-9.347 5.819-9.931 8.077zm42.026-11.299c2.701.024 2.58.107 1.469-2.12 2.63.36 3.69 1.624 2.822-1 1.395.498 2.23.882 3.671 1.357l.915-.531c-5.564-5.43-11.735-.83-10.11 4.65l2.067-.992z" fill="#131f67"/><path d="M3205.525-450.67l1.294-6.288 11.547.563s1.342 3.947 1.885 5.725zm-26.668-.153l6.127-10.149 8.7 2.368-2.001 7.934zm16.923.153l2.636-10.834c-4.977-1.099-9.672-1.821-15.165-3.308l-8.917 14.13-5.364-.143c4.622-6.176 13.063-18.65 13.063-18.65 19.363 6.681 38.883 7.81 58.537 4.28 0 0 7.241 9.58 9.836 14.776l-5.106-.251-6.345-10.657c-4.418.48-8.763 1.071-13.372 1.264l3.156 9.393h-5.071l-2.877-9.367c-5.53-.214-10.176.219-16.802-.821l-2.337 10.183zm36.54.004l-1.745-6.662 6.232-.73s2.89 5.08 4.472 7.388zm-55.925-61.9c7.751-11.817 35.094-49.698 35.094-49.698l4.017.164s-24.488 34.208-36.297 51.458zm-39.527-18.383l9.545 6.894.069 53.674-9.7 6.848zm39.627-87.81l5.778 11.342c-24.55 23.33-19.734 50.708-6.582 70.236 0 0-1.7 4.369-5.406 9.008-17.795-11.77-23.208-42.36-23.072-42.688 19.61-17.544 22.254-23.13 29.282-47.898zm100.322 83.614c1.267-17.274 9.69-28.564 19.128-35.462l.483 17.57c-6.179 5.947-12.712 12.088-19.611 17.892zm-25.635-17.4c21.5-20.14 22.234-48.74 6.57-69.735l6.41-8.98c9.087 9.755 17.996 19.976 21.789 43.729-13.616 10.765-25.648 28.553-28.849 46.509zm-29.627-23.432l-.04-8.231 8.042-.04-.229 8.217zm-17-.065l-.115-8.202 7.95.057-.124 8.315zm13.768-21.962s26.65-37.416 37.11-50.921l2.222 1.64-35.441 49.49zm-62.247-26.165c-.026 14.762-9.46 26.46-19.097 34.092l.132-16.807zm140.017-71.236l.056 65.522-9.006-5.439.764-54.948zm-42.927 3.88c-20.33-5.302-38.851-6.889-58.322-2.703-2.538-3.036-11.066-15.68-11.066-15.68l4.922.073 6.966 11.184 13.272-1.74-3.417-9.097 5.471.024 2.727 8.922c-.028-.07 10.797.107 16.812.822.957-3.313 2.736-9.896 2.736-9.896l6.027-.004c-.774 3.164-2.854 10.69-2.854 10.69 4.937.688 14.094 3.023 14.177 3.124 3.213-4.554 6.199-9.109 9.104-13.663l5.874-.028c-1.73 2.94-12.103 18.118-12.429 17.972zm-3.75-7.854l-8.982-2.101 2.345-7.94 12.554-.007zm-51.577-2.873l-4.176-7.368h8.035l2.661 6.49zm18.241-1.5l-1.217-5.868h14.594l-1.492 6.25z" fill="#d40000"/><path d="M3182.714-710.114l12.979 18.788c.06-.06 7.274-1.442 14.363-1.79 7.048-.347 15.452.095 15.523.31 0 0 2.22 6.717 2.971 10.016.993 4.406.888 9.477-.16 12.842-1.534 4.931-2.345 6.411-5.775 9.798-2.543 2.473-6.138 5.164-9.846 6.602-5.137 2.151-5.66 2.14-8.686 2.28-2.002.095-2.205.173-3.3.743-.338.118-.558.471-.858.573-.254.085-.734-.012-.734-.012-16.695 7.339-29.763 15.522-39.635 22.83-.115.085-.189.464-.3.555-.807.663-1.552 1.165-2.34 1.77-.108.084-.35-.065-.458.018-11.614 8.975-18.193 16.252-20.612 18.353l.237 41.791s5.287-2.726 7.999-4.387c1.904 16.182 9.951 31.9 22.655 42.818l-5.511 7.62-25.398-17.54.354 77.107 13.502-9.406v-8.133c4.025 2.718 7.952 3.778 10.81 16.156 2.284-4.348 2.084-10.824 1.06-15.15.017 0 3.429-2.828 4.475-4.995l-5.019-4.465s1.3-10.81-1.066-12.988c-1.872 4.907-3.365 10.108-10.36 13.894l-.088-37.56c3.486 2.215 6.784 4.71 10.23 6.982l.476-.096 3.566 2.45s-.379.767-.724 1.292c-4.333 6.591 2.887 14.676 8.76 9.812 2.3-1.905 6.616 6.015 7.43 13.633.83 4.922 1.275 11.03 2.608 15.305.413 1.247.251 1.947-.627 2.704-4.5 6.351-13.547 19.15-13.547 19.15h6.517l.472-.75h-4.805c4.14-5.524 8.088-11.96 12.38-17.352 15.998 6.04 42.203 7.435 58.029 3.773 3.268 4.597 6.446 9.417 9.59 14.101h-4.553l.627.982h6.157l-12.97-19.15c-8.938 2.667-30.73 1.627-30.334 1.406 0 0-.06-.148-.815-2.32-3.742-12.115-4.089-22.868 5.298-31.558 4.985-4.447 10.554-7.38 16.773-6.824 2.78-.054 2.834-.205 3.993-.73.638-.29 1.961-.59 1.961-.59l6.3-3.505.831-.165 1.812-.959.375-.444 2.928-1.492.329.027 3.958-2.285.052-.321 1.557-.964.371.393c.432.036 15.517-9.893 21.807-15.427l.39.146c7.347-5.962 17.334-15.362 20.297-18.932l-.16-17.888-.25-.218-.101-19.808h-.573l-.025-2.443c-3.248 1.206-6.823 4.232-7.063 4.106-2.069-16.77-9.766-32.216-22.345-43.56l5.356-7.419 24.871 16.785.068-4.903h.31c.304-18.803.471-67.542.471-67.542l-.245-.023-.006-3.892-12.712 8.142-.179 8.226c-5.636-1.847-9.206-8.638-10.39-14.691-1.642.66-2.404 7.034-1.798 15.106-1.742 1.043-2.857 2.184-3.925 3.565 1.38 1.743 2.913 3.173 4.601 4.636-.353.761-1.098 11.533-.357 12.87.339.985 1.512.844 1.518-.193 1.715-8.401 9.659-13.914 10.105-13.406l-.195 38.737-14.112-9.923c2.963-3.356 3.587-9.017-.146-11.787-3.742-2.777-7.406-.422-8.273 1.344-4.582-2.995-6.124-14.094-6.793-18.439-.167-2.113-.709-4.984-1.332-7.573-.391-1.623-.855-3.173-.915-4.627-.026-.684.054-.982.674-1.839l13.722-19.526-7.005-.025-.068.12 5.51.016-12.375 17.627c-18.617-5.866-37.921-7.286-58.573-3.564l-10.202-14.392 4.638-.02-.183-.309h-5.824zm10.767.166l.196.352 8.019-.025-.12-.298-8.095-.03zm11.89.043l.153.424 5.47.02-.167-.415-5.457-.03zm27.931.15l-.054.192 6.028.01.054-.193-6.028-.01zm-18.474.003l.058.248h14.544l.054-.232-14.656-.015zm28.006.131l-.057.205 12.554-.01.107-.195h-12.604zm52.97 10.74l.04 2.652-8.433 5.376c-.211 11.336-.536 54.94-.536 54.94l-2.02-1.329.396-54.602s7.46-4.81 10.553-7.036zm-22.129 2.134h.285l.086.613h-.491l.12-.613zm.598 1.601l.222.832-1.234-.006.208-.803.804-.023zm21.287.43v1.73l-7.277 4.56v-1.716l7.277-4.574zm-22.458 1.44l1.903.025.319.957h-2.397l.175-.982zm-46.727.514l1.272.191c2.915 6.978 3.669 12.97 4.175 19.205 1.163 8.093 3.51 16.205 5.141 19.652l-1.866-.02c-.216-.027-4.155-11.743-4.976-18.66-.22-1.37-.132-2.642-.202-3.912-.415-5.349-1.146-9.368-3.544-16.456zm2.39.28l1.626.168c1.135 4.955 2.789 9.632 3.46 14.61 1.075 7.962 1.65 16.093 5.48 23.942l-1.52-.014c-2.322-5.306-3.76-10.84-4.685-16.824-.724-3.432-.732-6.008-1.115-9.11-.466-3.726-1.897-8.463-3.245-12.771zm2.469.233l1.625.241c1.07 4.92 2.904 10.335 3.39 14.783.989 9.058 2.406 17.498 5.254 23.488l-1.138-.035c-4.4-8.55-4.47-16.166-5.703-24.178-.726-4.718-2.265-9.438-3.428-14.3zm2.59.381l1.436.222c.998 4.896 2.79 10.437 3.206 15.403.738 8.79 2.292 15.443 5.554 22.54l-1.346.024c-3.938-6.911-4.465-15.395-5.692-23.986-.677-4.746-2.204-9.52-3.157-14.203zm61.736.01v2.143l-7.277 4.685v-2.114l7.277-4.714zm-59.387.415l1.499.234c.966 4.721 2.763 9.76 3.187 14.356.725 7.857 2.165 15.79 5.395 23.1l-1.385.088c-3.415-7.381-4.902-14.098-5.548-22.582-.363-4.757-2.188-10.557-3.148-15.196zm39.625.026l.52 1.272-3.486.169.043-1.428 2.923-.013zm-37.157.444l1.783.348c1.89 7.532 2.385 14.663 3.672 21.821 1.608 8.895 3.303 13.364 4.688 15.022l-1.476.05c-3.6-7.702-4.877-15.358-5.713-23.29-.494-4.68-2.023-9.291-2.954-13.951zm2.719.508l1.36.275c1.62 6.155 2.35 11.913 3.064 17.484 1.296 10.582 4.812 18.63 5.56 19.002l-1.5-.068c-3.252-4.508-4.456-12.182-6.055-23.013-.703-4.76-1.402-9.24-2.43-13.68zm2.188.44l1.523.376s1.375 5.416 2.412 12.603c.864 5.99 1.318 17.775 7.809 24.552 3.24 3.383 8.949 6.321 12.844 3.128 1.664-1.422 2.737-3.704 1.737-6.141-1.682-4.083-7.378-3.383-5.483.9.212 1.027-1.126 1.07-2.058.068-.98-1.072-.736-2.294-.041-3.417 1.464-2.368 5.385-2.612 7.686-.497 3.678 3.612 2.087 9.81-2.569 11.775-5.363 2.286-12.277-2.432-15.014-6.934-4.528-7.843-5.228-15.287-6.29-23.206-.54-4.276-1.58-8.766-2.556-13.207zm2.296.633l1.546.378c.005.021 1.695 7.632 2.256 12.142.694 5.573 1.459 12.141 3.838 17.212 1.48 3.152 3.633 5.804 5.81 7.35 1.872 1.327 3.55 2.167 6.04 1.624 2.875-.628 3-5.09.256-5.102-1.401-.006-.487-1.358.676-1.397 4.134-.136 4.254 6.4.361 7.858-4.457 1.67-9.276-1.477-12.26-5.43-5.22-8.133-5.015-15.551-6.162-22.11-.306-3.454-2.245-12.362-2.361-12.525zm31.284.228l.944 1.266-5.25-.023.024-1.206 4.282-.037zm-28.98.421l1.479.516c.042 0 1.486 5.91 2.383 12.894 1.064 6.733 1.411 12.336 4.888 17.2 1.446 2.023 4.176 4.722 5.896 5.043 1.065.23 2.168-.004 2.439-.816.444-1.33 1.582-.719 1.606.489-.005.844-.623 1.721-1.668 2.025-5.11.887-9.785-5.547-11.204-8.81-1.921-4.746-2.744-10.05-3.577-16.655-.353-2.795-2.04-11.708-2.243-11.886zm47.412.236l-.026 2.133-7.251 4.585v-2.074l7.277-4.644zm-45.185.417l1.658.453s1.383 5.197 2.208 11.616c.837 6.51 2.635 14.073 5.993 17.985.306.375.515.641.647.861.24.532-.047 1.43-.295 1.432-5.984-3.123-7.398-15.673-7.912-19.916-.758-6.561-2.3-12.431-2.3-12.431zm23.267 1.005l5.278.15 1.259 1.243-6.99-.063c-.737-.764-.278-.676.453-1.33zm21.918 1.731v1.77l-7.277 4.624v-1.81l7.277-4.584zm-21.735.561l7.723.135 2.71 1.617-11.803-.098 1.37-1.654zm21.735 2.244v2.124l-7.277 4.573v-1.992l7.277-4.705zm-24.594.402l13.124.14.033 1.426-14.233-.368 1.076-1.198zm-1.711 2.44l14.845.04.037 1.577-13.5-.13-1.382-1.486zm26.305.244v2.215l-7.277 4.52v-2.099l7.277-4.636zm-23.514 2.32l11.378.055-1.235 1.318-8.58-.085-1.563-1.288zm23.514.78v2.087l-7.277 4.59v-2.06l7.277-4.618zm-14.952 1.594l-1.379 1.345-5.896-.082.202-1.224 7.073-.039zm14.952 1.465v2.24l-7.277 4.46v-1.94l7.277-4.76zm-22.308.818l4.864.108-.743 1.024-4.257.02.136-1.152zm-43.748 1.785c.733 5.632 4.808 16.987 4.806 16.984l-1.604.013c.08.109-2.914-7.152-3.993-13.994-.13-.652.314-2.855.79-3.003zm43.43.323l3.745.068-.815 1.452-3.051-.006.12-1.514zm22.626.345v1.958l-7.277 4.488v-1.785l7.277-4.661zm-22.747 1.98l2.482.079-.587 1.344-1.924-.057.029-1.365zm22.747 1.057v2.088l-7.277 4.527v-2.016l7.277-4.6zm-67.589.444c.731 4.102 3.833 12.343 4.069 12.883l-1.375.018c-.062.188-3.224-7.387-3.562-10.628-.162-.679.197-2.022.868-2.273zm44.817.87l1.472.069-.251.767-1.192.03-.03-.865zm.132 1.847l.765.02-.183.73h-.478l-.104-.75zm22.64.04v1.686l-7.277 4.619v-1.6l7.277-4.706zm-69.412.182c1.104 3.289 2.208 6.64 3.515 9.847l-1.63-.039c-1.08-2.312-1.837-4.912-2.68-7.462-.232-1.065.262-1.976.795-2.346zm-1.624 2.196l2.71 7.593h-1.539c-.632-1.527-1.344-3.234-1.843-4.806-.51-1.63-.463-1.685.672-2.787zm71.036.475v2.002l-7.277 4.516v-1.726l7.277-4.792zm-72.863 1.615c.354-.036.378.416.693 1.322l1.486 4.204-1.9-.047c-.556-1.323-.897-2.48-1.037-3.77-.051-.624-.165-1.247.27-1.51.215-.122.37-.187.488-.2zm-2.02 1.585c.32.01.444.588.695 1.457l.789 2.466-1.773-.044c-.522-1.165-.723-2.003-.565-3.222.4-.464.663-.663.854-.657zm74.883.01v2.094l-7.277 4.387v-1.944l7.277-4.537zm-76.706 1.504l.743 2.427-1.602-.037c-.265-.57-.095-1.262-.105-1.905l.964-.485zm-2.098 1.243c.024 0 .045.007.055.02.228 1.073.005 1.14.019 1.131l-2.237-.014s1.812-1.154 2.163-1.137zm78.804.629v1.673l-7.277 4.55v-1.696l7.277-4.527zm-86.508 2.65l43.72.126 1.456 2.065s-4.253.116-18.186.029c-11.728.151-35.296-.251-35.296-.251l2.294-1.083c3.174-.075 6.057-.903 6.012-.887zm86.508.247v1.842l-7.277 4.42v-1.784l7.277-4.478zm-123.022 1.768c-3.515 1.563-6.796 1.947-9.248 1.748-5.278-.43-13.355 1.785-14.979 6.872-.51 1.796-.516 1.845.453 2.76.481.454.948.798 1.037.764.849-.756 1.975-2.158 3.181-2.568 1.586-.48 2.446-.547 5.047-.662 5.605-.249 6.871-.485 8.266-.855 3.068-.815 6.16-3.843 6.346-7.215.021-.387-.103-.844-.103-.844zm-.151.46c-.592 7.035-8.19 7.953-11.526 7.753-6.767-.406-9.433 1.62-10.505 2.879-.353.337-.559.256-.503-.05.786-3.896 7.062-4.043 10.221-4 7.743.354 9.704-3.39 9.485-3.426-.587.264-1.022.496-1.618.779-.256.107-.202-.05-.872-.438-.01.05-.774 1.791-1.763.14.025.082-.704 1.466-2.055.173.01.14-.816 1.327-2.136.113-1.241 1.066-1.832.479-2.365-.27-.391.235-1.541 1.792-2.5.116-1.022.653-1.449 1.36-2.328.933-2.052.369-3.827 2.48-4.55 4.414-.226.665-.683.77-.738.04-.243-2.019 3.069-5.516 6.393-6.481 2.585-.751 4.347-1.293 10.029-1.076 3.23.124 7.33-1.599 7.33-1.599zm82.94.534l2.049 1.392-35.664 49.32-3.148-.082 36.763-50.63zm-57.208.033h4.055v6.722h-3.496l-1.249-1.862c.323.19.698.304 1.1.304 1.2 0 2.172-.977 2.172-2.18a2.174 2.174 0 1 0-4.322.314l-1.307-1.944s.555-.332 1.88-.924c.342-.153 1.167-.43 1.167-.43zm12.497 0h6.868v6.722h-6.868v-6.722zm15.05 0h7.112v6.765l-7.112-.043v-6.722zm15.356 0h7.106v6.722h-7.106v-6.722zm54.43.16l.108 2.097-7.277 4.436v-2.075l7.17-4.458zm-51.137.695a2.305 2.305 0 1 0 0 4.609c1.27 0 2.3-1.033 2.3-2.307a2.3 2.3 0 0 0-2.3-2.302zm-30.249.12a2.3 2.3 0 0 0-2.299 2.303 2.303 2.303 0 0 0 2.3 2.307c1.269 0 2.299-1.033 2.299-2.307a2.3 2.3 0 0 0-2.3-2.302zm14.985.046a2.305 2.305 0 0 0 0 4.609 2.305 2.305 0 0 0 0-4.61zm7.743.274c1.065 0 1.928.866 1.928 1.934a1.931 1.931 0 0 1-1.928 1.935 1.931 1.931 0 0 1-1.928-1.935c0-1.068.863-1.934 1.928-1.934zm-30.484.03c1.066 0 1.928.865 1.928 1.934a1.931 1.931 0 0 1-1.928 1.934 1.931 1.931 0 0 1-1.928-1.934c0-1.069.863-1.935 1.928-1.935zm45.694.068c.458 0 .875.175 1.19.46l-2.1 2.86a1.784 1.784 0 0 1-.869-1.532c0-.988.794-1.788 1.779-1.788zm-30.189.01c1.066 0 1.929.866 1.929 1.934a1.931 1.931 0 0 1-1.929 1.934 1.931 1.931 0 0 1-1.928-1.934c0-1.068.863-1.934 1.928-1.934zm-23.287.14c.795 0 1.437.645 1.437 1.441 0 .797-.642 1.446-1.437 1.446a1.445 1.445 0 0 1-1.44-1.446c0-.796.646-1.441 1.44-1.441zm-4.412.078c12.252 15.65 18.764 31.516 21.628 48.807l-2.054-.098c-3.405-18.806-11.07-34.935-21.464-47.952l1.89-.758zm50.2.013a1.527 1.527 0 0 1 0 3.052c-.84 0-1.525-.685-1.525-1.528s.684-1.524 1.524-1.524zm-30.25.121c.84 0 1.525.68 1.525 1.523 0 .843-.684 1.53-1.525 1.53a1.527 1.527 0 0 1 0-3.053zm14.985.043c.84 0 1.523.68 1.523 1.523 0 .843-.683 1.53-1.523 1.53-.84 0-1.524-.687-1.524-1.53 0-.842.684-1.523 1.524-1.523zm38.126 1.095c.808 6.194-.787 10.192-5.496 10.84-6.005.827-6.785 1.28-6.818 6.983-.04 6.76-1.036 8.713-5.809 9.247-5.37.601-6.618 1.24-6.137 7.936.352 4.886-1.569 6.964-5.704 7.871-3.233.71-6.033 1.795-7.232 5.063l-2.955.04c.767-5.148 5.926-7.606 9.232-7.777 3.564-.848 4.31-2.045 3.733-8.312-.435-4.717 1.29-6.15 6.816-7.228 4.418-.874 5.5-2.146 5.26-5.77-.517-7.77-.005-8.939 4.398-9.884 2.243-.533 5.895-.773 7.288-2.491 1.584-1.955 1.181-3.62 1.037-6.021l2.387-.497zm28.383.206v2.032l-7.277 4.502v-1.978l7.277-4.556zm-106.93 1.204c-1.556 6.737 3.794 8.202 7.05 9.338 3.786 1.323 4.706 3.24 4.276 9.933-.325 5.063.23 6.183 3.5 7.922 5 2.588 6.343 6.265 4.122 11.649-1.37 3.319-.651 4.25.216 7.147l-2.424-.024c-.177.056-2.225-3.614-.478-7.563 2.07-4.68 2.011-7.029-2.604-9.134-3.57-1.63-4.666-3.167-4.888-6.52-.094-1.412-.083-2.114.247-5.183.415-3.87-.96-5.534-6.663-7.66-2.542-.947-4.27-3.153-4.79-6.65-.145-.979-.013-2.108-.013-2.108l2.449-1.147zm85.296.73l21.69 14.476-.15 3.22-23.01-15.422 1.47-2.273zm-13.977.32c1.049 0 1.901.853 1.901 1.905a1.904 1.904 0 0 1-1.901 1.905 1.902 1.902 0 0 1-1.9-1.905c0-1.052.85-1.905 1.9-1.905zm-68.237.832c.952 0 1.72.77 1.72 1.726 0 .955-.768 1.731-1.72 1.731a1.73 1.73 0 0 1-1.727-1.731c0-.955.774-1.726 1.727-1.726zm103.784.202l-.072 1.94-7.141 4.43v-1.94l7.213-4.43zm-96.059 1.272h49.415l-1.268 1.713-47.209-.483-.938-1.23zm-17.132.084c6.559 8.575 13.005 17.409 17.977 34.058l-2.12.818c-4.105-13.4-10.42-24.534-17.863-33.741l2.006-1.136zm113.255 1.527v2.124l-5.473 3.34-1.61-1.054 7.083-4.41zm-116.157.228l.97 1.276s-1.05.827-2.238 1.68c-3.235 2.32-3.657 2.583-3.872 4.094-.512 3.589 3.167 5.359 6.86 3.284 1.325-.607 4.229-2.452 4.229-2.452l.833 1.233s-4.162 3.123-6.605 3.835c-5.358 1.562-9.359-5.25-5.399-9.295.605-.619 1.883-1.448 2.902-2.108a143.44 143.44 0 0 0 2.32-1.547zm22.056.846l45.53.27-29.075 39.863-1.292-.072c-2.254-14.91-7.845-27.937-15.163-40.061zm-19.853 1.688l2.66 3.729s-1.735 1.662-4.599 3.233c-2.296 1.26-4.781-1.028-3.336-3.093 1.484-2.05 5.275-3.869 5.275-3.869zm113.954.382v1.944l-3.154 1.938-1.441-.923 4.595-2.959zm-114.287 1.494c-1.262.067-3.355 1.502-4.068 2.741-.307.533-.198.98.085 1.346.43.556.941.523 2.455-.286 3.092-1.653 3.67-2.633 2.31-3.602a1.16 1.16 0 0 0-.667-.199c-.039 0-.074-.002-.115 0zm-.1.797c.2-.02.43.042.62.025.535.22.371.887-.187 1.044-.123-.194-1.051-.22-.989.725-.226.536-.217.495-.897.57a.733.733 0 0 0-.84.402c-.468.252-1.043.173-1.15-.11-.104-.276.281-1.07.607-1.068.157.012.435-.223.723-.417-.01-.518.597-.593.772-.59.172.036.752.043 1.032-.431.08-.1.189-.138.308-.15zm114.387.466v2.997l-2.286-1.464 2.286-1.533zm-126.335.376c8.292 9.82 14.264 20.274 18.065 34.74l-1.663 1.152c-2.512-10.143-6.38-20.86-17.823-34.794l1.421-1.098zm97.016.165c3.754 3.198 19.14 17.723 22.071 43.503l-2.058 1.266c-1.654-13.607-6.99-29.207-21.343-43.033l1.33-1.736zm-7.419.894c1.05 0 1.9.853 1.9 1.905s-.85 1.905-1.9 1.905a1.904 1.904 0 0 1-1.9-1.905c0-1.052.851-1.905 1.9-1.905zm-91.906.744s1.743 1.797 1.74 2.225c-.006.847-.677 1.328-4.682 2.791-.676.247-3.634.931-3.634.931l-.108-1.44c1.509-.545 5.562-1.52 5.859-2.383.145-.34-.576-1.198-.424-1.198l1.25-.926zm27.627.367c.953 0 1.72.776 1.72 1.731 0 .955-.767 1.732-1.72 1.732a1.73 1.73 0 0 1-1.726-1.732 1.73 1.73 0 0 1 1.726-1.731zm69.795.494c12.534 12.281 19.432 27.457 21.044 43.127-14.598 11.908-24.515 26.878-28.455 45.605-1.947-3.256-3.604-6.998-5.405-10.657 19.478-17.168 23.578-48.087 6.731-69.761l6.085-8.314zm-76.658 2.342l.878 1.363s-.184.167-2.913 1.866c-3.991 2.486-4.65 4.107-3.317 6.65 1.362 2.601 2.883 2.739 7.17.657 1.514-.735 2.8-1.508 2.8-1.508l.686 1.426s-1.92 1.566-5.616 2.926c-3.477 1.279-6.765-.9-7.382-4.928-.45-2.928.824-4.498 5.896-7.385.57-.303 1.798-1.067 1.798-1.067zm59.725.646c1.05 0 1.9.855 1.9 1.907 0 1.053-.85 1.906-1.9 1.906-1.049 0-1.9-.853-1.9-1.906 0-1.052.851-1.907 1.9-1.907zm-77.457.074l1.147 1.085s-.494.73-3.32 2.435c-2.541 1.534-2.804 1.285-1.539 2.357 2.359 1.999 5.63 6.424 5.613 7.568-.017 1.101-1 2.117-2.886 2.969-1.033.466-5.119 1.926-5.72 2.031-1.192.131-1.529.61-.335 1.699 2.027 2.332 3.758 7.325 3.062 8.847-.783 1.715-1.723 2.005-9.232 2.35-.856.039-1.264-.205-.8.894.337.798.69 1.894 1.36 5.28.596 3.02.494 4.378-.675 5-.672.358-5.894.233-8.051-.192-2.47-.487-2.738-.52-2.339 1.093.518 2.227.841 8.196-.838 9.348-.7.456-1.451.344-4.518-.692-1.955-.66-3.65-1.418-3.65-1.418l.034-1.85c1.595.658 5.964 2.55 7.207 1.951 1.474-2.118-.573-9.545-1.355-11.136-.944-1.9.043-2.313 2.217-1.135 1.142.806 10.974 4.694 10.415 1.215-.599-3.301-1.668-7.058-3.742-9.418-1.918-2.182-.962-3.074 1.173-2.118 3.778 1.693 11.583 1.278 11.194-.477-.514-2.854-3.098-6.722-6.636-9.722-.984-.834-1.023-1.191.138-1.396 3.305-.265 12.763-1.239 11.44-3.466-1.134-1.823-2.65-3.84-3.94-4.924-2.119-1.782-4.255-2.556-5.203-2.926l.06-1.365c4.308-.36 6.547-1.659 9.718-3.887zm-10.427 1.344c-1.545 16.24-8.318 29.62-22.299 38.953l-.077-1.82c12.29-9.26 18.192-22.42 19.791-35.155l2.585-1.978zm11.87.768l1.15 1.034s-.298.45-1.953 1.777c-1.287.993-.837.602.04 1.784.78.939 2.169 2.825 2.169 2.825l-.414 2.509c-1.455-2.079-2.663-3.592-4.822-5.813-1.097-1.134-1.034-1.165.532-1.983 1.174-.651 2.129-1.441 3.298-2.133zm17.915.253c.006 0 .009.002.01.004 0 0 2.247 4.057 2.245 4.426-1.335 1.24-4.838 3.056-6.271 2.63-2.211-.707-2.558-3.073-.435-4.469 1.834-1.34 4.118-2.505 4.426-2.587a.096.096 0 0 1 .025-.004zm13.47 1.364c.952 0 1.72.77 1.72 1.726 0 .955-.768 1.731-1.72 1.731a1.73 1.73 0 0 1-1.727-1.731c0-.955.774-1.726 1.727-1.726zm-13.944.144c-1.642.434-3.252 1.906-4.156 2.554-.33.236-.07 1.42.247 1.827.405.523 1.153.436 2.048-.063.376-.209 1.055-.55 1.505-.76 1.263-.584 1.79-1.02 1.744-1.507-.202-.656-.718-2.099-1.388-2.051zm-33.046.63c.355 1.822-.74 5.022-1.361 6.827-3.677 4.824-9.01 7.291-14.08 8.976-1.126.375-2.639.185-2.639.185 7.015-7.238 13.03-12.544 18.08-15.989zm33.139.12c.461.019.793.616.645.968-.791.43-1.23.065-1.129.666 0 0 .08.937-1.08.959-.282-.124-.773-.102-1.011.14-.81.336-1.518-.375-.637-.78.238-.109.827-.294.988-.658.084-.45.457-.811.865-.56.216.015.7.05.856-.295-.06-.387.214-.421.41-.436a.588.588 0 0 1 .093-.004zm-47.537.81c-.197-.016-.346 0-.39.064-.342.322-.885 5.35-.53 5.712.492.503 1.851.641 1.98.043.426-1.973.321-3.446.525-5.11.037-.304-.992-.659-1.585-.709zm.548.546c.174.039.32.28.429.699-.02.829-.114 2.549-.433 3.51-.199.748-.775.578-.992-.111-.227-.716-.038-2.749.39-3.582.228-.393.431-.556.606-.516zm32.476.013l1.2 1.494c-2.543 24.23-19.797 45.193-38.22 53.504l-.055-1.607c21.076-11.103 33.76-29.588 37.075-53.39zm83.383.102l2.284 3.151-3.272.102.988-3.253zm-97.993 1.024c1.13 0 7.134 3.706 6.331 5.552-.638 1.469-5.662 1.587-7.966 1.38l.346-1.413s.702.245 3.379-.04c2.811-.188 2.604-1.157-.618-3.202a93.82 93.82 0 0 1-1.707-1.085l.235-1.192zm16.636 1.987c1.86 3.145 3.62 6.69 5.274 10.66-22.695 21.48-20.933 50.733-6.624 69.933l-6.166 8.347c-12.329-11.799-19.042-26.314-21.31-41.732 17.996-12.987 26.453-32.368 28.826-47.208zm84.278.953l1.355 2.598-3.254-.054 1.899-2.544zm-14.053 1.3c1.05 0 1.9.854 1.9 1.906s-.85 1.901-1.9 1.901a1.904 1.904 0 0 1 0-3.806zm-52.807.513l.647 1.477c.03.185-4.593 1.648-6.081 3.53-1.374 1.737-1.245 3.55-.472 4.8 1.318 1.784 2.252 2.034 4.475 1.35 1.812-.557 3.144-1.31 4.942-2.23l.284.745c.003-.04-2.582 1.521-4.553 2.635-.74.418-1.628.595-2.4.577-4.483-.109-6.858-5.912-3.162-9.339.542-.502 2.372-1.508 3.914-2.306 1.026-.531 2.406-1.239 2.406-1.239zm59.354.916c14.802 21.415 4.67 44.882-4.888 53.184l-.256-2.52c16.092-18.387 10.494-39.86 3.788-49.404l1.356-1.26zm9.526.962l1.163 2.645-3.438-.364 2.275-2.281zm-59.663.865a1.73 1.73 0 0 1 0 3.457c-.952 0-1.722-.77-1.723-1.726 0-.955.77-1.731 1.723-1.731zm48.372.339c12.974 18.905 5.739 49.05-19.009 58.233l-.126-2.114c25.233-10.58 27.712-38.75 17.573-54.645l1.562-1.474zm-56.24.115l1.64 4.439c-2.063 1.386-2.871 1.622-5.182 2.186-1.82.417-3.241-2.741-1.843-3.95 1.597-1.382 3.316-1.98 5.386-2.675zm-42.077.015c.305-.014-.017.743-.8 2.645-1.726 4.191-1.843 4.28-6.188 4.972-2.26.36-3.945.449-5.552.294-2.425-.234-3.463-.921-1.892-1.253 4.556-1.004 9.593-3.37 12.868-5.662.854-.615 1.355-.986 1.564-.996zm82.462.516a2.14 2.14 0 0 1 0 4.28 2.133 2.133 0 0 1-2.13-2.139c0-1.182.952-2.14 2.13-2.14zm-64.495.593l-.182 1.647s-2.633 1.395-3.878 1.921c-.953.387-1.019.473-.713 1.358.616 1.768 1.804 3.96 1.804 3.96l-1.1 2.5c-.67-2.249-1.379-4.624-2.613-6.717-1.17-1.638-1.389-1.841.433-2.184 2.353-.794 4.183-1.369 6.25-2.485zm23.505.535c-1.288.057-3.977 1.142-4.244 2.18-.15.586.016 1.407.511 1.591 1.339.499 4.026-.605 4.735-1.614.22-.312-.115-.957-.352-1.36-.18-.308-.146-.819-.65-.797zm.066.885a.387.387 0 0 1 .068 0c.218-.02 1.012.988.12.903-.307-.029-.587.087-.839.35-.03.483-.723.666-1.056.502-.248-.123-.596.13-.632.28-.5.362-1.132.345-1.213.088-.17-.18.335-.922.775-.894.094.006.407-.206.699-.46.14-.506.672-.418 1.008-.392.38.154.728-.343 1.07-.377zm69.699.077l.952 2.65-3.401-.304 2.449-2.346zm-15.754.583c1.143.325 1.776 1.397 1.146 2.47-.704.9-1.353.909-2.379.86.84.999 1.213 2.379.394 3.283-1.244 1.272-3.644-.679-3.466-.857l4.305-5.756zm-92.376.97s5.235 4.522 5.273 6.549c.014.772-.234 1.022-.85 1.227-2.056.684-7.779-1.073-7.779-1.073l.736-1.4c.901.248 5.336 1.4 5.717.833.396-.588-3.704-4.6-3.713-4.605l.616-1.531zm25.982 1.89l.628 2.187-2.14-.534 1.512-1.654zm83.595.391l.559 3.023-3.428-.802 2.869-2.221zm-65.346.049l.511 1.774c-22.738 10.576-29.378 34.863-17.52 54.906l-1.34 1.849c-15.873-25.797.203-51.98 18.35-58.53zm-51.778 1.786c.45.006.536.25.534.516-.002.363-2.297 3.303-3.04 3.964-1.613.653-7.834-1.954-8.763-3.972-.184-.59.43-.331 1.808-.05 3.49.998 7.028-.373 9.461-.458zm60.58.035a1.729 1.729 0 0 1 0 3.458 1.727 1.727 0 0 1-1.723-1.732c0-.955.77-1.726 1.723-1.726zm-29.288.037l.309 2.692-2.641-.154 2.332-2.538zm-42.338 2.092c1.73 1.56 4.274 2.85 6.53 3.3 1.403.31.996.455-.306 1.804-1.218 1.276-1.118 1.439-2.357.808-2.07-1.052-4.32-3.444-4.23-4.745.037-.542.132-1.17.363-1.167zm129.154.292l.43 2.871-3.242-1.125 2.812-1.746zm-90.036 1.035l1.057 2.57-2.875-.08 1.818-2.49zm71.133.613c1.354-.062 1.88.987 1.89 1.843-.003.36-.088.966-.088.966 1.69-1.079 3.933-.192 3.866 1.55-.094 2.458-1.29 2.48-3.249 2.155 1.072 1.783-.2 3.499-2.215 2.842-1.837-.599-1.482-2.542-.624-3.693-4.333.708-5.492 6.891-.487 8.728-1.006-1.561-1.256-3.426.926-3.74 2.027-.29 2.886 1.25 2.01 3.105 1.904-.664 3.698.433 3.125 2.293-.693 2.247-2.684 2.091-3.859.723.844 2.036-1.108 3.502-2.581 2.713-2.322-1.244-1.173-3.463.383-4.053-5.98-.618-7.367 7.676-2.96 8.859-1.132-.712-1.259-3.977 1.324-3.53 2.537.512 1.933 2.876.305 3.95 1.965-.42 3.804 1.3 2.608 3.041-1.409 2.052-3.352.59-4.074-.806.227 1.872-.96 3.065-2.488 2.363-2.623-1.206-.685-4.226 1.366-4.033-4.16-2.465-9.817 2.708-6.485 6.99-.13-1.945.837-3.542 2.17-3.322 1.172.133 2.198 1.473 1.868 2.527-.307.898-1.329 1.587-2.399 1.804 3.182.354 3.453 2.611 2.135 3.724-2.239 1.89-3.278-.291-3.797-1.566-.455 3.17-4.182 2.091-4.311-.199-.127-2.509 2.76-2.457 3.293-2.316.068-.087-2.234-2.37-4.69-2.696l.016-1.455c9.682-6.09 13.011-16.723 9.94-26.803l.582-.672c1.578 1.21 3.162 3.803 6.082 2.851 0 0-.68-.478-1.016-.81-1.503-1.486-.657-3.236 1.434-3.333zm-63.79 1.837l1.002 1.477c-14.68 17.25-12.004 36.987-3.562 50.053l-1.229 1.49c-7.472-9.607-13.572-32.902 3.789-53.02zm-46.529.214c1.213.703 2.022 1.762 3.154 2.688.874.711.863.839.14 1.514-1.626 1.573-2.54-.705-3.065-1.636-.643-1.247-.71-2.519-.229-2.566zm57.257.1c1.098.104 1.84 1.182 1.783 2.07-.02.384.007.694.007.694s.317-.393.573-.865c1.254-2.102 3.951-.893 3.508 1.521-.208 1.132-2.11 1.574-2.628 1.25.493 1.35 1.828 1.667 3.453 2.25.568.11 1.542.388 1.542.388l.039.914c-8.806 5.564-13.79 14.999-10.563 27.902l-.973 1.32c-1.776-4.285-3.397-4.19-6.317-4.359 0 0 .726.514 1.144 1.01.885 1.049.491 2.879-.734 3.07-2.84.44-2.868-1.578-2.492-2.946 0 0-.509.428-.757.59-1.127.734-2.53-.028-2.661-1.484-.123-1.37.343-2.257 1.75-2.427.472-.058 1.2.062 1.2.062s-.28-.539-.433-.842c-.673-1.324.803-2.457 2.16-2.171 2.14.517 1.971 2.37.732 3.825 3.32.25 5.06-1.927 4.816-4.088-.299-2.637-1.51-4.062-4.121-4.522 0 0 .421.663.602.984.668 1.19-.292 2.65-1.698 2.642-1.44-.01-2.363-1.335-1.808-2.642.136-.318.677-.717.595-.754-.057-.025-.8.206-1.004.238-1.731.27-2.843-1.257-2.117-2.782.514-1.08 2.06-1.371 3.183-.841.178.065.395.316.43.26.032-.053-.115-.406-.16-.656-.356-1.397.312-2.144 1.821-2.047 2.113.136 2.9 1.864 1.48 3.42-.366.402-.928.996-.928.996.07.306 3.012.528 4.515-1.05 1.74-1.826 2.015-5.636.266-6.88-.288-.205-.868-.614-.868-.614.833 1.675-.7 3.602-2.053 3.242-2.704-.654-2.47-2.873-.69-3.575 0 0-1.804-.676-2.324-1.404-.734-1.03-.486-1.978.395-2.702 1.11-.894 2.686-.307 3.447.797.46-1.405 1.108-2.354 3.023-1.59 1.34.642 1.328 2.435-.147 3.411-.473.313-1.313.604-1.313.604s1.267.725 2.81.742c2.977.034 5.333-3.485 4.133-6.175-.244-.546-.853-1.25-.853-1.25s-.065.94-.25 1.3c-.688 1.342-2.27 1.365-3.205.52-.85-.77-.6-1.797.059-2.498.5-.532.95-.637 1.648-.962-.793-.27-1.675-.463-2.06-1.286-.358-.784-.107-1.75.843-2.347.429-.225.834-.298 1.2-.263zm72.727.335l.202 3.042-3.38-1.3 3.178-1.742zm-93.136.179l1.216 2.766-3.139-.014 1.923-2.752zm65.582.004c2.95 10.935-1.199 18.785-9.07 24.933l-.871-1.145c6.152-5.242 10.756-11.42 8.722-22.428l1.22-1.36zm-90.434.037s4.558 5.92 3.649 7.922c-1.207 1.91-8.395-2.202-8.3-2.42l.9-.868c1.142.464 4.695 2.43 5.481 2.12.275-1.79-1.82-4.106-2.61-5.648l.88-1.106zm54.276.012l34.6.639-1.034 1.827-2.696.015-5.346 9.479-24.868-.006-.656-11.955zm-38.835.952l-1.196 2.17c-1.12.345-4.5.406-4.772.631.408 1.112.857 4.38.857 4.38l-1.333 1.708a79.542 79.542 0 0 0-1.472-6.707c-.448-1.653-.323-1.29 3.187-1.562 1.573-.09 3.194-.29 4.729-.62zm7.096 2.616l1.424 2.534-2.884.03 1.46-2.564zm-34.65.17c.158-.065 1.051.94 1.205 1.229-.066.659-1.084 1.018-1.241.783-.064-.095-.084-1.573.017-1.983.004-.016.009-.025.02-.03zm130.524.035l-.03 3.171-3.427-1.523 3.457-1.648zm27.216.715l-.047 2.055c-12.43 6.089-30.973 22.438-36.262 51.762l-1.083-1.198c5.285-27.998 23.527-44.554 37.391-52.62zm-125.036 2.828l1.546 2.336-2.79.305 1.244-2.641zm97.888.896l-.274 2.809-3.375-1.876 3.649-.933zm-64.936.584c.014.667.07 1.148.111 1.814-7.66 4.973-10.248 12.8-8.972 22.65l-1.06 1.572c-2.493-8.93.023-19.936 9.921-26.036zm-62.702.386s2.918 6.59 1.766 8.142c-1.122.917-3.707-.609-4.883-1.23l-.033-1.576s.896.46 1.799.822c1.854.824 1.858-.158.842-2.91-.357-.969-.71-2.089-.71-2.089l1.22-1.159zm151.507.195c.781.46 3.312 1.208 3.312 1.208l-.028 1.868-5.212-1.876 1.928-1.2zm-123.575 2.036l1.995 2.094-2.781.638.786-2.732zm121.074.235c.188-.013.385-.009.588.016 1.767.002 5.172 1.441 5.172 1.441l-.021 2.073c-1.73-.502-3.74-1.467-5.568-1.738-1.445-.2-1.36.612-1.367 2.66-.01 2.772.684 5.277 2.006 8.05 1.095 2.297.524 2.91-1.264 1.886-3.219-2.216-10.077-3.886-11.132-2.597-1.086 1.325 1.053 7.925 3.525 11.074 1.004 1.279 1.067 1.484.598 1.983-.38.404-.994.428-2.078.082-3.565-1.138-8.725-1.395-10.211-.43-1.476.956 2.363 7.566 5.587 9.7 2.09 1.496 1.688 2.24-1.692 2.316-5.518.026-9.763 1.26-9.527 2.772.4 2.568 3.973 6.09 8.075 7.959 2.51 1.029 1.46 1.437-.208 2.032-2.79.945-5.472 2.458-8.098 3.872l-1.263-1.619s2.643-1.685 5.516-3.303c.673-.38.638-.518-.305-1.311-3.06-2.574-5.307-5.446-5.776-7.379-.456-1.879.478-3.066 3.259-4.126 1.718-.654 2.35-.847 3.867-1.188 2.184-.491 2.221-.56 1.287-2.244a517.126 517.126 0 0 1-1.522-2.772c-3.255-5.583-1.54-7.597 6.016-7.712 1.855-.097 2.209-.104 2.107-.746-.402-2.63-1.562-5.65-1.398-7.879.346-3.36 3.793-4.173 9.85-2.657 1.402.351 1.499.279 1.252-.857-1.099-4.797-.094-9.154 2.725-9.358zm-21.638.374l-.53 3.26-3.226-2.153 3.756-1.107zm-120.621.77l8.896.584-1.413 1.664-5.376-.102-.202 4.603-1.72 1.48-.185-8.23zm57.653.352h7.323l-.058 7.767h-7.3l.035-7.767zm8.725 0h6.817v7.767l-6.758.072-.059-7.839zm8.163 0h7.307l-.066 7.767h-7.237l-.004-7.767zm63.832.62c-.172 1.997.245 5.606.414 7.156-.119.462-.438.396-2.352-.039-1.327-.445-5.007-.576-5.007-.576l1.542-1.638c1.26.15 2.255.138 3.56.301-.018-1.307.037-3.804.037-3.804l1.806-1.4zm-118.35 1.537l2.044 2.064-2.618.672.573-2.736zm99.89.672l-.815 3.323-2.961-2.67 3.775-.653zm23.95.091c1.48-.035 2.72.468 4.086 1.673l.012 1.697-2.911-1.315c-.033 1.934 1.674 5.427 1.674 5.427l-1.385.653c-1.198-1.964-2.03-3.729-2.1-5.941.016-.801-.095-2.156.624-2.194zm-124.839 3.353l2.431 1.449-2.695 1.093.264-2.542zm99.958.744l-1.19 3.418-2.599-2.959 3.789-.46zm-128.86 1.089l6.557 2.228-1.167 1.243-5.448-1.726.059-1.745zm91.993.903l.54 12.115-34.646-.287 1.206-1.712 2.25-.02 5.931-10.027 24.719-.069zm-63.553.943l2.575 1.823-2.676 1.185.1-3.008zm129.544 1.07l.006 1.98c-8.364 6.2-17.409 16.883-18.948 35.772l-2.257 1.935c1.102-18.444 8.76-31.16 21.2-39.687zm-30.516.072l-1.216 3.075-2.406-2.863 3.622-.212zm9.966.567c-.051 1.828 1.425 7.503 1.425 7.503-2.28.113-4.492-.15-6.954.543l1.16-2.074s1.071-.113 2.01-.3c1.938-.387 1.737-.152 1.287-1.843-.423-1.59-.447-1.92-.447-1.92s1.38-1.92 1.519-1.91zm6.387.385c2.274.018 5.686 2.064 7.217 3.23l-.806.904c-.227.076-3.417-1.638-5.925-2.04.82 1.63 1.21 2.844 3.027 5.425l-1.17 1.161c-.354-.079-4.9-6.813-3.696-8.333.366-.247.829-.351 1.353-.347zm-134.246 1.576c2.993 18.186 10.146 30.674 21.43 41.912l-1.148 1.503c-13.264-12.176-20.506-27.672-22.399-42.245l2.117-1.171zm18.667.764l2.439 1.336-2.505 1.465.066-2.801zm129.71.054l-.016 2.667-1.528-1.545a9.452 9.452 0 0 1 1.543-1.122zm-32.159.546l-1.662 3.062-2.171-2.9 3.833-.162zm29.793 1.32c2.212.309 2.923 4.742 2.187 5.605-.342-.54-3.388-2.44-4.77-3.236-.088-.234 2.14-2.23 2.583-2.369zm-35.564 2.276l3.54.336-1.88 2.93-1.66-3.266zm-91.745.001l2.757 1.35-2.503 1.77-.254-3.12zm124.505 1.302c.46.003.977.197 1.621.557 2.494 1.393 3.801 2.918 3.663 4.274-.063.622-.41.748-.814.296-.727-.816-3.18-1.878-5.294-2.293-1.601-.314-1.748-.451-1.268-1.194.728-1.127 1.327-1.645 2.092-1.64zm-42.643 1.285c3.834 14.56 10.573 25.766 19.034 34.989l-1.754 1.498c-6.424-7.393-13.49-16.044-19.261-34.75l1.98-1.737zm7.653.78l3.543.537-2.074 2.65-1.469-3.187zm-49.949.155c.411.014-1.218 6.211-6.845 6.639-3.562.593-3.962 1.194-4.016 6.755-.073 7.539-1.287 9.303-7.43 9.77-4.069.308-4.604 1.137-3.916 6.996.656 5.576-1.445 8.42-6.628 8.415-4.489.373-6.345 2.473-6.34 6.644.002 1.69.029 2.098.029 2.098l-2.902.228s.006-2.745.226-4.08c.884-5.398 3.191-7.56 8.047-7.535 3.755-.287 4.338-.897 4.209-6.606-.146-5.806-.223-5.768 1.287-7.289.973-.979 2.084-1.419 4.055-1.605 6.14-.58 6.624-.99 6.609-7.306-.57-5.247.878-8.46 4.2-8.723 6.724-.535 6.564-4.196 6.267-4.348l3.129-.049a.05.05 0 0 1 .02-.004zm13.75 0c3.944 21.332 16.42 41.307 23.267 48.68l-1.336.712c-9.98-12.434-19.051-26.71-23.537-49.36l1.606-.033zm-7.121.008l3.12.035-35.933 50.722-1.893-1.431 34.706-49.326zm4.36.035c3.375 12.296 6.031 24.32 16.646 40.404l-45.03-.296 28.383-40.108zm12.432.049c.263-.122 1.321 6.221-.256 9.15-1.418 3.963-.724 6.195 2.36 7.64 5.294 2.479 6.63 4.954 5.958 11.044-.47 4.263.816 6.324 4.806 7.694 4.76 1.634 6.842 4.202 6.817 8.41-.004.645-.245 1.382-.245 1.382l-2.657 1.566s.033-.571.134-1.256c.693-4.664-.188-5.93-5.678-8.129-5.185-2.077-6.47-4.48-5.587-10.47.288-1.953-.11-3.928-.917-5.415-1.357-2.424-4.357-2.401-6.514-4.615-1.781-1.895-1.98-4.542-.462-9.075.941-2.81 1.083-3.873.352-6.214-.482-1.541-.67-1.679-.67-1.679l2.56-.033zm-62.539.676l3.055.847-2.3 2.394-.755-3.241zm121.317.635c1.048-.029 3.076.34 4.736 1.169 3.809 1.902 4.501 3.463 1.163 2.622-1.882-.475-4.588-.367-7.199.28-2.758.684-2.7.714-1.75-.958 1.204-2.118 1.516-3.071 3.05-3.113zm-13.738.797c2.31-.036 4.638.628 6.826 1.45l-.693 1.195c-1.514-.252-3.105-.996-5.41-.812.944 1.814 2.065 2.751 3.569 4.351l-.562 1.2c-.134.162-4.39-3.4-5.243-5.793-.385-1.08-.037-1.552 1.513-1.591zm-50.054.276c1.14 0 2.064.927 2.064 2.07a2.07 2.07 0 0 1-2.064 2.075c-1.14 0-2.062-.93-2.062-2.074 0-1.144.921-2.07 2.062-2.07zm42.748.063s3.364 6.674 3.15 6.928c-2.085.922-4.36 1.399-6.652 2.237l.44-1.94s.762-.054 3.324-1.033c1.227-.469-1.338-3.89-1.338-3.89l1.076-2.302zm-13.666.498l3.486.627-2.325 2.613-1.161-3.24zm-65.196.026c.825-.066 2.1 1.538 2.096 1.54l-4.226 5.856c-2.011-.406-1.582-3.462.26-3.555.425.003 1.202.076 1.202.076s-.567-.31-.893-.744c-1.235-1.496-.066-3.044 1.561-3.173zm55.592 1.449c4.908.04 4.97 6.082 4.03 8.08-.683 1.371-1.723 2.131-4.865 3.555-2.723 1.234-3.027 1.151-3.027 1.151l-.65-1.457s1.586-.701 3.293-1.393c3.53-1.43 4.387-2.521 4-5.082-.547-3.625-3.34-4.189-8.74-1.759-.627.282-1.418.565-1.418.565l-.371-.73c.086-.072 4.326-2.301 6.702-2.854.371-.054.72-.079 1.046-.076zm-75.913.656l2.777.92-2.026 1.996-.751-2.916zm123.705.78c2.454-.008 4.476.407 4.47 1.285-.003.417-.097.453-2.301.76-3.35.466-8.948 3.332-12.097 5.994-1.865 1.576-1.382 1.209-.596-1.076.781-2.272 1.947-4.985 2.579-5.4 1.578-1.034 5.163-1.556 7.945-1.564zm-40.126.313l2.361.518-1.536 1.494-.825-2.012zm-7.916 1.288c.846-.013 1.262.386 1.594 1.198.72 1.754.01 2.785-2.728 3.962-1.241.557-2.349 1.34-3.708 1.59l-1.72-4.633s.544-.2 2.334-.943c2.04-.846 3.382-1.162 4.228-1.174zm-7.984.56c5.464 15.504 12.15 25.573 19.226 33.918l-1.71 1.073c-7.516-8.917-14.434-19.366-19.417-34.749l1.901-.241zm60.386.482c.237.024.356.112.314.28-.004.65-9.83 9.993-15.45 14.75-2.56 2.167-2.473 2.15-2.692 1.882-.138-1.61.951-7.358 1.612-8.36 3.753-3.987 9.544-7.23 15.179-8.449.442-.089.799-.128 1.037-.103zm-52.808.07c-.662.019-1.654.42-2.979.933-1.927.745-2.093 1.646-1.23 2.76.377.486.767.38 2.619-.356 1.89-.752 2.705-1.086 2.82-1.761.165-.985-.379-1.6-1.23-1.576zm.175.522a.695.695 0 0 1 .654.71c-.002.302-.436.594-.887.591-.16 0-.55.09-.794.343-.244.353-.401.693-.84.61-.255-.049-.726-.066-.91.095-.863.754-1.722.13-1.323-.627.101-.19.451-.288.734-.286.246 0 .805-.056.886-.359.097-.36.649-.46 1.033-.448.418.056.754-.154.862-.33.156-.138.338-.281.511-.295.024-.002.05-.005.074-.004zm-44.441.12a2.074 2.074 0 0 1 0 4.145 2.07 2.07 0 0 1-2.063-2.074c0-1.143.922-2.07 2.063-2.07zm-29.869.044l3.129.426-1.971 2.534-1.158-2.96zm62.458 1.597c1.14 0 2.064.927 2.064 2.07 0 1.144-.924 2.071-2.064 2.071a2.067 2.067 0 0 1-2.065-2.07c0-1.144.924-2.071 2.065-2.071zm-61.06 2.34l3.395.218-1.944 2.606-1.45-2.825zm17.921.498c1.141 0 2.063.925 2.063 2.069 0 1.143-.922 2.07-2.063 2.07a2.067 2.067 0 0 1-2.064-2.07c0-1.144.924-2.069 2.064-2.069zm84.795 1.292c1.415-.023 3.057.12 3.057.12l-.398 1.592c-1.726.165-3.942-.315-5.793.461.688 1.128 4.716 2.723 5.162 3.121.041.168-.332 1.687-.332 1.687.108.388-6.819-2.82-7.048-5.526.006-.918 2.993-1.417 5.352-1.455zm-23.823 1.653c3.936.037 5.88 5.548 4.35 7.989-.605 1.103-1.972 2.41-3.775 3.562-.867.555-3.163 1.683-3.163 1.683l-1.032-1.599s.916-.369 1.78-.841c2.168-1.228 6.565-3.847 4.439-7.41-1.194-1.929-2.98-2.305-6.69-.415-2.77 1.41-3.401 1.543-3.401 1.543l-.703-1.278c.184.105 5.53-3.121 8.195-3.234zm12.68.207c1.88 3.647 5.095 6.403 5.973 7.065 0 0-3.202 2.062-5.115 3.376l-1.122-1.325 2.746-2.365-3.094-4.328.612-2.423zm-89.518.368l3.09.006-1.32 2.793-1.77-2.799zm119.672.512c-.349 1.802-.403 3.713-.55 5.817.678.62 1.287.932 1.82.896.597-1.893 1.027-4.042.742-6.255-.566-.443-1.31-.392-2.012-.458zm.932.542a.38.38 0 0 1 .256.015c.385.187.353.465.361.813-.01 1.188.156 2.67-.351 3.816-.289.652-.946.407-.97-.48-.03-1.199.213-2.205.282-3.297.03-.468.188-.794.422-.867zm-44 1.644c2.029.152 2.81 1.854 2.062 3.076-1.834 2.349-3.709 2.776-6.114 4.135l-2.4-4.502s4.673-2.646 6.451-2.71zm-.057 1.005c-1.342.157-2.19.815-3.317 1.37-1.382.678-1.83 1.728-.893 2.68 1.033 1.155 4.641-1.598 5.237-2.264.367-.571.305-1.093-.21-1.504-.223-.178-.5-.28-.817-.282zm-74.012.19l3.023.034-1.635 2.316-1.388-2.35zm73.946.357c.13.01.25.052.342.117.514.366.47 1.022-.255 1.208-.367.094-.999.098-1.013.588-.011.366-.568.502-.886.45-.325-.053-.875-.081-.98.327-.279.556-.487.566-.876.178-.418-.424-.222-.959.594-1.048a1.02 1.02 0 0 0 .775-.561c-.02-.348.224-.55.607-.47.542-.006.898-.207 1.284-.715a.814.814 0 0 1 .408-.074zm-17.344.178c1.14 0 2.064.925 2.064 2.068a2.07 2.07 0 0 1-2.064 2.075c-1.14 0-2.063-.931-2.063-2.075 0-1.143.923-2.068 2.063-2.068zm-44.07 3.808c1.14 0 2.068.93 2.068 2.074a2.066 2.066 0 1 1-4.133 0 2.07 2.07 0 0 1 2.064-2.074zm86.919 1.753l.015 1.558c.053.07-3.214 1.515-5.127 2.384-.62.34-.377 1-.34 1.68l-.92.625s-1.274-.932-1.441-1.53c-.467-1.887 5.525-4.147 7.813-4.717zm-136.303.084l23.638 16.214-1.616 2.365-21.954-14.976-.068-3.603zm118.683.528c1.538 0 2.723.888 3.87 2.678 2.278 3.554 1.136 6.357-3.581 9.221-2.192 1.331-2.208 1.346-2.208 1.346l-1.115-1.379s1.597-.942 2.257-1.36c3.878-2.456 4.969-4.63 3.264-7.078-1.643-2.36-3.37-2.172-8.158.884-.969.618-2.127 1.103-2.127 1.103l-1.05-1.432s2.712-1.397 3.635-1.987c2.122-1.359 3.855-1.998 5.213-1.996zm-16.508 1.063a2.07 2.07 0 0 1 2.069 2.07 2.074 2.074 0 0 1-2.069 2.075 2.07 2.07 0 0 1-2.064-2.074c0-1.144.924-2.07 2.064-2.07zm-64.038.58c1.14 0 2.063.927 2.063 2.071a2.064 2.064 0 1 1-4.127 0c0-1.144.924-2.07 2.064-2.07zm80.458 1.654c.784-.028 1.371.484 1.692 1.267.82 2.002-.294 3.486-4.333 5.756-.339.19-1.056.578-1.056.578l-2.976-4.12s1.048-.722 2.036-1.315c2.212-1.451 3.63-2.13 4.637-2.166zm-.396.986c-.19.005-.409.08-.664.228-1.037.6-2.77 1.25-3.587 2.335-.478.665-.262 1.324.645 2.176.768.51 4.732-2.418 4.831-3.268-.335-.9-.654-1.486-1.225-1.471zm-118.03.224l.66.444-.66.522v-.966zm118.069.497c.243.013.474.084.592.224.293.358.117.966-.505 1.073-.313.054-.776.14-.926.604-.125.306-.552.566-.973.555-.487-.112-.743.183-.77.397-.239.41-.832.478-1.193.092-.282-.3.223-1.164.555-1.151.06.028.424.11.866-.483.09-.431.59-.696.952-.68.368.126.584-.282.732-.509.17-.09.426-.135.67-.122zm-116.498.537l.95.643-2.521 1.794v-1.445l1.57-.992zm1.84 1.208l1.294.867-4.705 3.38v-1.833l3.412-2.414zm2.413 1.543l1.363.906-7.187 4.87v-1.878l5.824-3.898zm2.588 1.317v1.566l-8.412 5.89v-1.587l8.412-5.87zm.95 1.126l1.812 1.242.454 53.097-11.335 7.81.01-2.321 9.518-6.9-.459-52.928zm136.734 1.435c-2.541 2.911-5.952 3.106-8.925 3.027-8.012.113-12.986.543-14.016 10.126 3.264-2.448 6.724-2.765 10.732-2.65 5.075-.007 7.357-.34 9.42-1.373 3.314-1.658 5.411-4.627 5.01-6.71-.392-.45-1.422-2.309-2.22-2.42zm-137.684.466v1.837l-8.412 5.652v-1.866l8.412-5.623zm96.063.17a2.07 2.07 0 0 1 0 4.139 2.064 2.064 0 0 1-2.063-2.07c0-1.143.922-2.07 2.063-2.07zm-54.919.212c14.864.463 46.432.284 46.432.284l1.684 2.433-49.634-.522 1.518-2.195zm96.88.087c.455-.03.516.584-.423 1.508-1.779 1.749-3.624 2.606-9.47 2.501-6.176-.11-8.583.866-10.182 3.625-.464.802-.454 1.115.218.508.564-.672 1.848-1.97 2.379-.742 1.049-.688 1.956-1.737 2.505-.41.304-.069 2.083-1.858 2.505-.273.85-.954 1.58-1.252 1.98.1 1.208-.574 1.85-1.664 2.537-.159.975-.7 1.712-1.573 2.28-.241.831-.246 1.678-1.774 2.158-.556.09.03 3.092-1.781 3.942-3.574.697-1.58 1.339-.532.546 1.083-2.036 3.955-5.517 5.4-13.509 5.411-4.85.005-6.858.483-8.382 1.374-2.447 1.43-1.128-2.172.587-4.358 2.16-2.754 4.624-3.568 11.372-3.321 3.69.022 6.047-.49 7.044-1.297.846-.685 1.458-1.148 1.913-1.179zm-109.639.838c1.14 0 2.068.93 2.068 2.074a2.07 2.07 0 0 1-2.068 2.071 2.067 2.067 0 0 1-2.064-2.07 2.07 2.07 0 0 1 2.064-2.075zm-28.385 1.535v1.868l-8.412 5.758v-1.91l8.412-5.716zm40.676.896h6.527v6.91h-6.527v-6.91zm14.628 0h7.024v6.91h-7.024v-6.91zm15.635.222h6.777v6.687h-6.777v-6.687zm14.685.134l4.512.156s2.505 3.197 3.563 4.671l-3.336 1.716-4.739.01v-6.553zm-41.81.47a2.3 2.3 0 0 0-2.299 2.302 2.303 2.303 0 0 0 2.3 2.306c1.269 0 2.299-1.032 2.299-2.306a2.3 2.3 0 0 0-2.3-2.302zm15.01.228a2.3 2.3 0 0 0-2.299 2.302 2.303 2.303 0 0 0 2.3 2.306c1.27 0 2.299-1.033 2.299-2.306a2.3 2.3 0 0 0-2.3-2.302zm15.352.06a2.3 2.3 0 0 0-2.301 2.3 2.307 2.307 0 0 0 2.301 2.309 2.305 2.305 0 0 0 0-4.609zm-36.638.467c.453.325.751.849.751 1.45a1.787 1.787 0 0 1-2.728 1.52l1.977-2.97zm6.276.024a1.524 1.524 0 1 1 .002 3.048 1.524 1.524 0 0 1-.002-3.048zm37.866.058c1.02 0 1.847.83 1.847 1.853a1.844 1.844 0 1 1-3.688 0c0-1.023.822-1.853 1.841-1.853zm7.776.004a2.3 2.3 0 0 0-2.3 2.303 2.303 2.303 0 0 0 2.3 2.306 2.305 2.305 0 0 0 0-4.609zm-38.192.068c1.02 0 1.845.83 1.845 1.853a1.849 1.849 0 0 1-1.845 1.852c-1.02 0-1.843-.83-1.843-1.852 0-1.023.823-1.853 1.843-1.853zm7.56.098c.841 0 1.525.68 1.525 1.523 0 .843-.684 1.527-1.525 1.527a1.526 1.526 0 0 1 0-3.05zm-58.824.027v1.858l-8.412 5.895v-1.827l8.412-5.926zm74.176.031a1.527 1.527 0 0 1 0 3.052c-.84 0-1.524-.686-1.524-1.529 0-.842.684-1.523 1.524-1.523zm-7.696.193c1.02 0 1.845.83 1.845 1.853a1.847 1.847 0 1 1-3.692 0 1.85 1.85 0 0 1 1.847-1.853zm22.976.362c.84 0 1.524.68 1.524 1.524 0 .842-.683 1.527-1.524 1.527a1.526 1.526 0 0 1 0-3.05zm-65.433 1.602c3.919-.046 8.158 1.95 10.55 5.26 3.618 4.854 6.036 11.042 7.134 19.165.544 4.023 2.415 16.103 3.477 18.957l-1.46-.28c-.198.093-2.074-7.598-3.256-17.758-.437-3.763-1.234-8.62-3.412-13.053-2.487-5.061-6.71-10.426-12.343-10.852-3.285-.248-6.368 1.817-6.7 4.726-.473 2.297.87 4.437 2.631 5.154 1.73.704 3.798.18 4.03-2.186.04-.388 0-.78-.144-1.141.801-.13 1.411.232 1.736.91.17.02.007 3.43-2.666 4.1-3.225 1.059-6.948-2.142-7.238-5.406-.22-2.748 1.865-6.144 4.494-7.065a9.933 9.933 0 0 1 3.167-.531zm-24.023 1.057v1.896l-8.412 5.822v-1.909l8.412-5.809zm24.208 1.204c4.706-.134 9.287 5.128 11.227 8.594 2.024 3.618 3.629 9.363 4.18 14.77.94 9.194 2.697 16.714 3.067 17.056l-1.283-.281c-.269.18-2.037-8.121-3.113-17.362-.604-5.183-2.522-10.32-4.803-14.28-2.105-3.654-4.943-6.383-8.302-6.779-2.106-.212-4.271.397-4.696 2.62-.225 1.306.455 2.588 2 2.7.364.026.713.055.777.066.818.146-.466 1.478-1.31 1.36-3.018-.422-4.408-4.465-2.03-6.615 1.39-1.258 2.845-1.808 4.286-1.849zm10.075 1.35l52.844.538s.046.948-3.243.792c-2.796-.132-4.603.259-6.457.856l-41.519-.092-1.625-2.094zm-34.283.614v1.76l-8.412 5.905v-1.944l8.412-5.721zm24.56.746c1.015-.014 2.05.248 2.829.7 6.545 3.803 9.046 13.243 9.908 19.184 1.176 8.8 2.533 16.975 2.911 17.177l-1.427-.324c-.19.007-1.75-7.623-2.723-16.171-.786-6.911-3.144-13.852-7.817-16.772-2.999-2.047-3.587-2.252-4.975-1.057-1.198 1.03-2.415-.521-1.412-1.785.692-.649 1.69-.938 2.705-.952zm-24.56 2.384v1.445l-8.412 5.875v-1.712l8.412-5.608zm38.462.037c.108-.1 4.548 7.458 5.95 19.372.74 6.273 2.852 16.97 3.191 17.056l-1.538-.164c-1.572-6.308-2.441-12.278-3.282-17.66-.95-6.088-1.714-11.497-5.496-18.555l1.171-.04c0-.004.002-.007.004-.01zm1.008.064l1.375.02c2.35 4.488 4.85 11.46 5.714 18.448.745 6.037 1.499 12.177 3.653 18.57l-1.474-.407c-1.85-5.19-2.507-11.46-3.502-17.96-1.1-7.185-2.825-13.44-5.766-18.67zm8.481.01c2.404 6.245 3.968 9.224 5.067 16.91.852 5.966 2.057 13.427 4.797 21.33l-1.391-.06c-2.03-5.456-3.585-12.761-4.298-19.78-.967-9.532-5.234-18.432-5.274-18.376l1.099-.024zm-2.367.024c.13-.195 4.584 8.744 5.616 18.57.687 6.536 2.212 13.005 4.305 19.25l-1.421-.032c-1.643-1.905-2.872-10.933-4.228-19.36-1.383-8.602-3.332-13.892-5.496-18.414h1.22c0-.008.002-.013.004-.016zm-3.591.01l1.262.006c3.304 7.242 4.676 11.55 5.694 18.553 1.287 8.857 2.523 16.848 3.89 18.928l-1.542-.1c-2.128-6.384-3.088-12.763-3.843-19.147-.818-6.913-2.798-12.834-5.461-18.24zm6.97.058l1.501.023c2.585 5.252 4.733 11.64 5.49 18.942.416 3.96 1.142 10.038 4.107 19.415l-1.2-.076c-2.428-6.289-3.887-13.69-4.758-20.146-.878-6.51-2.429-11.883-5.14-18.158zm9.238.043c1.417 3.642 2.584 7.26 3.35 10.982l-.849 1.66c-1.33-4.914-2.824-8.74-4.313-12.617l1.812-.025zm-6.842.006l1.828.043c3.139 7.307 4.752 15.034 5.193 17.626 0 0 .433 2.294.462 3.047-.106 6.385.996 10.94 3.365 17.806l-1.085-.078c-2.75-7.98-3.49-13.647-4.193-19.062-.582-6.808-2.791-13.823-5.57-19.382zm4.22.056c1.87 4.684 3.295 9.2 4.593 13.72-.059 1.026-.157 2.15-.823 2.98-1.525-5.528-2.812-11.273-5.168-16.69l1.398-.01zm3.451.04l1.447.025 2.882 8.282-1.128 1.253c-.847-2.743-1.714-5.758-3.2-9.56zm8.442.058l1.057 2.491-1.138.966s-1.162-2.33-1.467-3.428l1.548-.03zm2.146 0l.53 1.435-.955.73-.742-2.136 1.167-.03zm-8.283.029l1.49.01c.601 1.74 2.202 6.001 2.202 6.001l-1.07 1.126s-2.016-5.386-2.622-7.137zm2.31 0l1.32.014c.398 1.13 1.635 4.262 1.635 4.262l-.912.868-2.044-5.144zm6.907.058l1.307.063-.153.323-.816.407-.338-.793zm-42.85 1.843c5.472 2.894 6.982 11.56 7.575 16.326 1.036 8.315 2.197 15.08 2.443 15.262l-1.213-.195s-.898-4.272-1.519-8.337c-.517-3.382-.917-6.213-1.056-7.51-.088-.81-.223-1.753-.3-2.093-.764-3.416-1.01-4.198-1.996-6.277-.946-1.995-1.28-2.496-2.853-4.275-.604-.683-1.192-1.181-1.398-1.62-.294-.625.316-1.28.316-1.28zm-27.702.444v1.635l-8.412 5.958v-1.868l8.412-5.725zm0 2.868v1.881l-8.412 5.566v-1.668l8.412-5.78zm0 3.206v1.745l-8.412 5.881v-1.804l8.412-5.822zm14.05 1.765h.74l.053 1.223-1.145-.072.351-1.151zm-14.05 1.51v1.865l-8.412 5.572v-1.742l8.412-5.696zm13.181.71l1.779.02-.02 1.282-2.285-.078.526-1.224zm-1.031 2.055l2.92.053v1.22l-3.62-.06.7-1.213zm-12.15.265v1.96l-8.412 5.61v-1.97l8.412-5.6zm10.66 2.038l4.277.047-.026 1.02-5.105-.033.854-1.034zm-10.66 1.135v1.915l-8.412 5.402v-1.722l8.412-5.595zm8.876.91l5.872.082-.145.986-6.697-.03.97-1.038zm-8.876 2.084v1.841l-8.412 5.495v-1.77l8.412-5.566zm6.673 0l7.728.178 1.629 1.486-12.029.072 2.672-1.736zm-2.338 2.718l13.285.163.927.861-14.257.053.045-1.077zm-4.335.42v1.954l-8.412 5.527v-1.785l8.412-5.695zm4.349 1.717l14.724.068-1.066 1.184-13.678.04.02-1.292zm-4.349 1.48v1.788l-8.412 5.727v-2.055l8.412-5.46zm3.982.933l12.728.043-1.494 1.175-8.795.204-2.44-1.422zm-3.982 2.21v1.707l-8.412 6.045v-1.915l8.412-5.838zm7.704.217l7.473.033.14 1.007-6.426-.015-1.187-1.025zm2.069 2.075l5.736.058.27 1.301-5.105-.068-.901-1.291zm-9.773.91v1.585l-8.412 5.89v-1.754l8.412-5.722zm15.906 1.3l.066 1.238-3.422.13-.965-1.295 4.32-.072zm-.03 2.196l-.029 1.301-2.386.037-.536-1.252 2.952-.086zm-2.122 2.316l1.882.014-.16 1.001-1.456.02-.266-1.035zm.565 2.404h.917l-.156.783h-.468l-.293-.783zm18.61 13.24l-.438.565h13.15l.145-.565h-12.857zm16.956 0l-.233.763h5.935l.165-.763h-5.867zm9.695.15l-.183.72h15.171l-.25-.72h-14.738zm18.152 0l.309.874h5.105l-.338-.874h-5.076zm17.614 0l-8.96.004.322.978h9.267l-.629-.982z"/><path d="M3165.365-655.125s-4.646-7.631-10.912-16.603c-4.192-6.004-7.544-12.505-7.856-18.105-.357-6.397 3.026-12.814 9.15-13.125 6.122-.311 8.607 4.932 9.618 9.255 1.011-4.323 3.496-9.566 9.617-9.255 6.125.31 9.508 6.728 9.15 13.125-.311 5.6-3.663 12.101-7.855 18.105-6.267 8.972-10.912 16.603-10.912 16.603zM3268.436-505.185s-4.646 7.631-10.912 16.603c-4.193 6.004-7.544 12.505-7.856 18.105-.357 6.397 3.026 12.814 9.15 13.125 6.122.311 8.606-4.932 9.618-9.255 1.011 4.323 3.496 9.566 9.617 9.255 6.124-.31 9.507-6.728 9.15-13.125-.312-5.6-3.663-12.1-7.855-18.105-6.267-8.972-10.912-16.603-10.912-16.603z" fill="#d40000"/></g></svg>