<svg xmlns="http://www.w3.org/2000/svg" width="238.11" height="332.599" viewBox="0 0 223.22771 311.81164"><g transform="matrix(.99553 0 0 .9968 -723.515 30.846)"><rect y="-30.445" x="727.26" height="311.811" width="223.228" rx="10.678" ry="10.664" fill="#fff" stroke="#000" stroke-width="1.001"/><path d="M838.875 50.25c-5.187-8.565-10.643-16.89-17.461-24 6.818-7.11 12.274-15.435 17.46-24 5.187 8.565 10.643 16.89 17.462 24-6.819 7.11-12.275 15.435-17.461 24zM744.478 39.528c-2.161-3.568-4.435-7.037-7.276-10 2.841-2.962 5.115-6.43 7.276-10 2.16 3.57 4.434 7.038 7.275 10-2.84 2.963-5.114 6.432-7.275 10zM933.272 231.393c-2.16-3.569-4.434-7.037-7.275-10 2.84-2.963 5.114-6.431 7.275-10 2.161 3.569 4.435 7.037 7.276 10-2.841 2.963-5.115 6.431-7.276 10zM838.875 248.671c-5.187-8.565-10.643-16.889-17.461-24 6.818-7.11 12.274-15.435 17.46-24 5.187 8.565 10.643 16.89 17.462 24-6.819 7.111-12.275 15.435-17.461 24zM735.084 16.322l.161-2.035c.508-6.288 1.86-8.41 9.523-14.974 3.72-3.182 4.941-4.752 5.112-6.574.487-4.296-3.314-5.637-5.79-5.657-3.21-.029-6.84 1.924-5.107 6.462l-3.602 1.078c-.723-4.234.021-8.205 3.39-9.968 4.5-2.298 10.27-1.397 13.184 2.224 1.958 2.429 2.406 5.79 1.355 8.421-3.069 6.72-13.479 9.677-14.338 17.453h11.506V8.423h3.39v7.97l-18.784-.071zm0 0M942.663 234.6l-.161 2.034c-.508 6.288-1.86 8.41-9.523 14.974-3.72 3.182-4.941 4.753-5.112 6.574-.487 4.297 3.315 5.638 5.79 5.657 3.21.03 6.84-1.923 5.108-6.462l3.6-1.078c.725 4.234-.02 8.206-3.39 9.968-4.5 2.298-10.27 1.397-13.183-2.223-1.958-2.43-2.406-5.791-1.355-8.422 3.069-6.72 13.479-9.677 14.338-17.453h-11.506v4.33h-3.39v-7.97l18.784.07zm0 0" fill="#d40000"/></g></svg>