<svg xmlns="http://www.w3.org/2000/svg" width="63mm" height="88mm" viewBox="0 0 223.22835 311.81102"><g transform="matrix(1 0 0 1 -3633.726 383.253)"><rect y="-382.754" x="3634.234" height="310.814" width="222.232" rx="10.63" ry="10.63" fill="#fff" stroke="#000" stroke-width=".997"/><path d="M3651.375-332.94c-4.292 5.464-8.883 8.609-8.96 12.872-.025 1.38.81 3.727 3.43 4.176 1.698.29 4.037-.938 4.086-3.432-.01-.496.588-.483.583.197-.08 1.967-.778 4.258-1.95 6.122h5.622c-1.172-1.864-1.87-4.155-1.95-6.122-.01-.68.59-.693.583-.197.05 2.494 2.388 3.722 4.087 3.432 2.618-.45 3.454-2.796 3.428-4.176-.077-4.263-4.668-7.408-8.96-12.873zM3839.327-121.754c-4.291-5.464-8.883-8.609-8.96-12.872-.025-1.38.811-3.727 3.43-4.176 1.698-.29 4.037.937 4.086 3.431-.01.497.588.484.583-.196-.08-1.968-.778-4.258-1.95-6.123h5.622c-1.172 1.865-1.87 4.155-1.95 6.123-.01.68.59.693.583.196.05-2.494 2.388-3.721 4.087-3.431 2.618.449 3.454 2.795 3.428 4.176-.077 4.263-4.668 7.408-8.959 12.872zM3652.167-339.69h3.305l-4.855-12.145-3.71 5.13.027 7.015h2.605v3.618h-9.18v-3.618h3.024v-26.12l-3.024.012v-3.163h9.314v3.27h-2.57l-.055 12.73 8.13-12.837h-2.87v-3.163h9.91v3.163h-2.615l-6.694 10.49 6.555 15.624h2.91l.014 3.618h-10.19l-.03-3.623zm0 0M3838.531-115.005h-3.305l4.855 12.146 3.71-5.13-.026-7.016h-2.605v-3.618h9.18v3.618h-3.025v26.12l3.025-.011v3.162h-9.314v-3.27h2.57l.055-12.73-8.13 12.838h2.87v3.162h-9.91v-3.162h2.614l6.695-10.491-6.555-15.623h-2.91l-.014-3.618h10.19l.03 3.623zm0 0"/><path d="M3663.716-358.925h163.269v263.156h-163.269zM3779.6-97.445c-6.071-11.072-15.669-29.106-15.952-29.249-3.55 1.9-39.73 6.772-57.133 2.055-5.952 8.992-11.796 17.898-16.978 26.812zm-55.568-33.114c-.91.02-1.925.578-1.738.093.109-.281.366-3.12.478-4.135.272-.452.655.732.612 1.832-.025.63.276.18 2.337.289 2.228.118 4.054.538 4.81.702 2.636.573 7.736.162 9.92-1.436 1.184-.865 1.631.069.412.997-5.507 4.193-9.873 2.594-14.657 1.892-.714-.105-1.435-.25-2.174-.234zm2.342-3.978c-.343-.224-.568-.248-1.006-.042-1.69.793-1.248-.344-.03-1.49.555-.523.54-.79.117-1.339-.214-.278-.57-.312-.486-.73.366-1.796 2.877-4.514 5.683-5.729 1.168-.505 1.353.047-.124.92-2.27 1.34-3.004 2.484-1.72 2.018 2.49-.902 4.76-.265 7.947 1.331.91.456 1.326.545 2.1.462.573-.476 1.085.097 1.44.396.223.18.27.267.524.207 1.813-.428.727.733-1.751 2.549-4.438 3.15-9.279 4.636-12.695 1.447zm6.828.775c1.813-.55 4.025-1.696 5.382-2.892 1.649-1.454.716-1.233-1.179-.316-2.742 1.326-4.662 1.709-7.747 1.638-2.582-.06-2.501-.165-2.595.158-.33 1.135 3.223 2.294 6.138 1.412zm-5.01-4.43c.147-.489.26-1.14.127-1.351-.238-.384-.752-.1-1.404.728-.405.513-.35.582.046.987.2.135.352.236.472.306.55.236.64-.278.759-.67zm1.128.67c.794-2.714 2.572-2.662 3.84-.065l.895.005c-1.839-5.052-5.4-2.494-5.519.02.42.14.784.04.784.04zm6.642-.458c.84-.47.717-.79-.353-1.343-.76-.393-1.162-.473-1.3-.219.01.56.033 1.361.356 1.805.334.204.796.003 1.297-.243zm-11.766-7.729c-.154-.255-.127-.721.457-.993 3.6-1.673.977-5.204-1.803-2.556-.881.726-2.192 1.064-3.205.631-.952-.416-.97-1.585.295-1.834.415-.082 1.48-.309 1.873-.583 4.833-2.595 7.4 3.048 3.97 4.926-.704.413-1.452.644-1.587.41zm-13.538-5.124c-1.962-.892-2.23-3.989-.392-5.194 1.17-.803 2.366-1.022 5.589.578 2.276 1.13 3.58-.087 3.52 1.229-.036.8-.083 1.606-1.406 1.799-2.151.313-3.62-2.616-6.383-2.34-1.993.2-1.74 2.592-.3 3.078 1.92.648.755 1.416-.628.85zm36.062.45c-.36.17-.53-.621-.374-1.043.98-2.333 1.882-4.187 2.77-6.373.71-1.741 1.185-2.49 1.503-2.488.325.002.476.257-.068 1.33-.822 2.162-3.827 8.759-3.831 8.574zm-16.103-.605c-.868-.62-.721-1.54.266-.843 1.269.895 3.349-.743 2.924-2.289-.512-1.868-2.985-2.32-5.056-.647-3.267 2.64-6.85 2.773-6.85.71.01-.59-.077-.724 1.282-.816 1.58-.107 3.363-.833 4.25-1.375 3.973-2.43 8.201-.753 7.326 3.302-.395 1.913-2.732 2.84-4.142 1.958zm-14.57-5.985c-.323-.01-.913.316-1.082.19-.33-.248-.283-.968-.555-1.738-.483-1.367-.012-.94.838-.57 1.154.447 2.247.36 3.22.022 1.004-.35 2.321-.27 4.43.006 1.696.222 2.648.157 4.188-.284 1.67-.526 1.228-.337.95.698-.182.678-.41 1.588-.623 1.807-1.154-.65-2.031-.398-2.79.043-1.248.552-2.132.647-3.153.34-.961-.55-1.531-.504-2.303-.03-1.33.646-1.92-.422-3.12-.484zm24.912-2.842c.234-.413.574-.98.894-1.618 2.581-5.146 2.757-6.577.935-8.31-2.448-2.33-4.535-1.32-6.88 3.332-.57 1.13-.91 1.978-1.14 2.327-.266.401-.575.092-.728-.065-.29-.296 2.314-5.234 3.334-6.312 2.67-2.821 7.633-.565 7.317 3.273-.16 1.933-.526 2.992-2.286 6.535-.436.877-.814 1.62-1.045 1.978-.826.556-.637-.718-.4-1.14zm-24.33-.205c.408-1.833 6.261-2.68 7.804-.277.15.234.062.225-.6.043-2.976-.988-3.566-.934-6.417.197-.429.166-.734.235-.786.037zm22.333-.348c0-.172.218-.85.548-1.505 1.952-3.872 2.49-4.806 1.894-5.53-1.16-1.411-2.717-.185-4.149 3.858-.535 1.512-.9 1.19-1.16.95-.5-.456 1.713-5.16 2.78-5.862 2.42-1.544 4.324.243 3.254 3.403-.834 1.426-1.523 3.62-2.302 4.775-.37.518-.868.365-.865-.089zm-8.752-6.289c-.118-.195.11-.457.949-2.26 1.152-2.48 1.51-3.398 1.041-4.814-.834-2.522-3.98-3.14-5.89-1.485-.626.534-1.05 1.274-1.345 1.938-.69 1.537-1.266 3.525-1.675 3.942-.358.362-.857.435-.824-.196.454-1.338.668-2.376 1.742-4.338 2.678-5.841 10.396-3.136 8.59 3.013-.672 2.232-1.445 3.922-1.901 4.471-.255.306-.676.04-.687-.27zm-1.791-1.073c0-.192.29-.74.598-1.503 1.305-3.241 1.314-4.235-.589-4.276-1.138.146-1.307.615-2.306 3.172-.324.83-.503 1.422-.696 1.676-.207.272-.595.11-.755-.053-.408-.417 1.374-4.611 2.315-5.402 2.166-1.892 4.97.795 3.657 3.207-.616 1.686-1.147 2.83-1.508 3.352-.32.46-.72.396-.716-.173zm-46.093-37.791l-6.577-.454c1.165 7.068 1.224 14.848.047 20.365-1.007 4.717-1.018 8.191-.718 12.281.35 4.758 2.355 8.793 2.86 13.844.365 3.66-.44 7.48-1.16 11.118-1.204 6.08-.956 6.715-.779 13.85.164 6.616-.45 6.379-.827 5.992-.057-.058-.11-1.228-.102-2.62.01-1.39-.077-4.793-.155-7.155-.158-4.72.364-8.89.742-10.605.77-3.493 1.635-7.071 1.102-10.937-1.082-4.879-2.608-9.751-3.143-14.454-.66-5.799.962-11.617 1.499-15.829.518-4.066-.031-11.1-1.091-14.028-.183-.974-1.049-2.244-1.049-2.244-.991-.142-1.987-.283-3.378-.274-.078 27.924 0 55.86.021 83.789l6.133 5.722 6.302-6.024zm.442 32.033s9.358 5.418 19.676 10.742c-.982-6.092 2.134-7.01 5.06-7.717-.702-11.769 10.02-9.354 11.663.87l1.056.005c1.858-5.098 3.695-8.617 7.925-9.456 3.277-.65 6.51 1.437 7.33 6.354-.144-.345 10.87-6.5 11.173 6.504 5.001-3.123 8.57-.425 10.013 3.54 2.112-3.237 7.397-3.379 9.087-3.614.588-.683 1.627-1.072 3.513-1.06 1.618-.083 3.791-1.301 4.91.183 1.7.27 2.996-.04 4.45 1.09 1.156.884 2.446 2.855 4.371 1.496 3.672-1.778 7.798-2.58 11.08-4.724 0 0-.87-1.128-.616-.966.093.06.501.592 1.117.84.22.09 2.238-1.126 2.238-1.126-13.674-15.843-24.922-46.774-17.495-75.39.206-.488-.62-.675-1.025-.848.124-.22 2.131.075 1.28 1.895-.859 5.482-1.831 11.424-2.048 15.97 0 .554.046 1.049.046 1.049 30.66 14.223 26.9 45.03 19.024 55.752l1.241 1.664c.55.37 24.12-13.454 23.342-14.021l4.46-2.233-.723-60.409-17.638-1.356s.188-.507.41-.639c.162-3.688-.166-9.142.01-13.708.07-13.047.2-17.484.032-17.845-5.44-3.603-13.553-8.871-20.38-11.426.28.08-.11 5.407-.319 5.71-6.387 2.05-3.422 4.67-5.783 7.485-1.586 1.753-5.297 2.086-7.09-.017-2.14-2.084-3.145-6.865-3.145-6.865-3.379 3.634-2.685 8.024-7.21 9.677-7.273 3.629-9.582-7.22-9.16-6.968-2.787 2.702-10.607 4.9-11.452-6.511-3.516 3.256-7.458 1.64-9.13-2.367-2.146.076-4.553 1.768-6.726 2.682-2.015.897-4.594 1.425-6.509 1.385-2.394.29-4.366.28-6.524-.367-1.013.331-3.3-.659-4.005-2.077-1.078-1.275-2.02-1.35-3.045-1.12-3.494 1.852-7.24 2.299-11.365 4.237-.257.18.362.519.154.452-.088-.028-2.167 1.026-2.167 1.026 20.893 27.628 22.03 55.521 17.65 75.29-.171.686-.266 1.184.186 1.723-.663-.115-.674.08-.798-.347l2.173-16.594c.064-2.005.313-1.856-1.438-2.604-1.62-.691-3.15-1.358-4.487-2.184-5.094-3.797-10.852-8.47-13.658-14.301-8.006-12.533-5.364-27.488.632-39.337l-1.491-1.558c-17.512 8.824-27.851 18.339-27.851 18.339l.075 59.276 17.995 2.087zm-8.681-39.583c-.577-.641-2.047-.754-2.659-.266-.141.12-.443.748-.533.725-.815-.21-1.38-.38-1.488-1.073l.866-1.315c.684-1.04 1.672-1.41 3.335-1.801.59-.14 1.482-.266 1.797-.4 1.25-.544 1.685-1.72.42-1.193-.926.255-2.218.17-2.39-.68-.14-.698-.732-.972-1.392-.89-1.219.294-2.332.935-3.412 1.58-.478.29-1.386.947-1.386.947-.143.226-.671-1.421-.18-1.903.612.075 1.139.08 1.735-.158 1.488-.597 2.92-1.316 4.421-1.894.957-.377 1.044-.345.792-1.028-.124-.251-.234-1.088-.07-1.526.175-.465.156-.699-.141-.898-.676-.453-2.296-.03-4.575 1.07-.694.336-1.151.47-1.59.827.283-.726.118-.86.11-1.619.931.117 1.768-.254 2.51-.648.614-.322 1.3-.64 2.984-.856.46-.06.25-1.752-.273-2.243-.495-.464-1.536-.474-2.795-.1-1.125.26-2.524.524-3.297 1.739-.976.929.024-1.54 1.803-2.526.78-.017 2.501-.389 2.906-.479.687-.152.797-1.773-.201-2.468-.625-.548 2.27-.563 2.215-.395-.037.095-.064.788.157.965 1.247.377 1.236 1.403 1.346 1.835 1.432 2.364 2.137.88 3.122.066-.207 5.15 1.583 5.736 1.82 6.061-2.46 4.614-.605 4.728 1.7 5.789 0 0-.876.358-1.459.321-.917-.056-2.673 1.038-3.441 1.682-.424.356-.437.06-2.13.01-1.596-.046-1.713.073-2.44.398-1.436.64-1.429 1.243-.027 1.006 1.494-.255 2.958.658 3.13 1.9.118.236.012.651-.012.637-.31-.059-1.014.06-1.004-.09.011-.15 0-.713-.275-1.108zm2.18-6.24c.405-.26.475-1.001.122-1.3-.32-.273-1.684-.128-2.07.22-.87.69.721 1.844 1.948 1.08zm.873-3.1c.501-.393.562-1.339.128-1.888-.736-.93-2.66-.373-2.765.801-.11 1.25 1.589 1.91 2.637 1.087zm-.626-4.253c.09-1.027-.92-1.677-1.85-1.19-1.158.606-.455 1.885.995 1.81.804-.042.804-.042.855-.62zm-3.39-4.167c-.54.267-.568.907-.055 1.32 2.03 1.128 1.412-1.894.056-1.32zm141.863 6.138c-.892-3.306-3.35-.028-3.354.018-.087-3.388.55-4.896-1.974-6.053 2.533-3.862 2.005-4.395-.682-5.876.248.021 3.567-.727 4.135-2.635.126.09 5.209 1.35 5.843-1.442-1.534.704-4.55.808-4.585-2.193.286-.086 1 .062.94.158-.4 1.924 3.085 2.4 3.655.88 0 0 1.17.79 1.685.911.057.04-1.585 2.33-3.083 2.677-2.7.9-3.63 1.142-3.634 1.682-.001.21.44.243 1.243.408 1.676.116 1.641.479 1.861 1.037.195.495.384.594.943.544 1.915-.64 2.873-.977 4.208-2.32.162-.032.351 1.412.454 1.461.016-.23-1.355.172-3.46 1.411-1.719 1.012-2.391 1.159-2.61 1.432-.162.203.256.841.3 1.534.037.583-.353.865-.066 1.047.33.21.843.172 1.516-.004 1.486-.36 2.58-.948 3.914-1.778-.284.54.192 1.912.192 1.912s-.659-.467-1.201-.225c-1.045.461-2.735 1.09-3.191 1.198-.442.105-.634.163-.806.31-.213.181-.177.618-.181 1.258 0 .45-.13.865.15 1 .624.202 1.883.138 3.165-.312.546-.24 1.706-.875 1.706-.875l-.363 1.896c-.486-.552-1.882-.145-2.817.225-.472.15-.613.448-.732.862-.21.707.237 1.194.752 1.427.343.155.871.091.871.091-2.42.928-1.939 1.27-3.352.566-.611-.666-1.21-1.368-1.442-2.231zm2.534.001c-.402-.467-1.101-.735-1.509-.55-.363.194-.232.6-.117.91.307.857 2.435.58 1.626-.36zm-1.413-2.363c.568-.749-.057-1.756-1.106-1.763-.729-.005-1.117.453-1.11 1.027.015 1.087 1.742 1.361 2.216.736zm-1.165-2.853c1.051-.288 1.374-1.314.647-2.058-.517-.529-2.14-.594-2.573-.116-1.107 1.221.134 2.664 1.926 2.174zm.874-3.754c.617-.317.737-.847.191-1.449-.99-.848-2.719-.187-2.16 1.05.273.606 1.217.787 1.97.4zm-126.568-28.487c.929-.34 1.6-1.065 2.577-1.622.659-.362.46-.304-.383-.8-.664-.308-1.994-1.663-2.118-1.34-.301.578-.258 3.736-.076 3.762zm23.48 33.074c.039-.644.116-1.615.098-2.327.125-1.357-.117-.96-.847-.517-.54.35-1.406.883-1.745 1.053-1.34.672-1.179.708.706 1.62 1.582.713 1.76.644 1.788.171zm-1.837-3.175c1.28-.812 1.704-1.23 1.766-2.141.01-1.048-.114-1.429-1.027-.703-3.114 2.474-6.32-2.381-3.469-5.078.581-.55 1.32-1.411 1.326-1.63.047-1.564-1.703-.045-3.133 2.103-1.583 1.953-2.57 4.398-1.18 6.744 1.11 1.718 3.584 2.057 5.717.705zm-7.076-3.16c-.056-.766.158-1.621.258-1.876.349-.896.334-1.008-1.252-.262-.633.21-1.389.381-1.68.38-1.295-.009-.972.401.886 1.96 1.866 1.565 1.929 1.707 1.788-.202zm4.414-7.5c.198-.471-.213-.653-.607-.564-.03.007-.71.517-1.509 1.15-2.42 1.917-4.195 2.14-5.396.68-1.217-1.48-.708-3.237 2.013-5.249 1.2-.887 1.488-.947.911-1.335-.44-.294-.466-.25-2.191.926-3.478 2.369-4.52 3.987-4.17 6.344.07.968.575 1.475 1.062 1.852 3.316 2.956 7.916-1.12 9.887-3.804zm3.51 1.398l-.209-3.261c-3.536-3.067-6.889-8.306-8.048-12.644-1.182-3.859-.24-11.907-.062-11.31l-1.91-3.64c-1.664 3.863-2.39 9.755-.58 15.758 1.535 5.096 4.609 11.268 10.81 15.097zm-14.892-1.9c1.123-2.17 1.158-1.936-1.012-1.954-2.477-.022-2.2-.325-.804 1.803 1.12 1.71.932 1.858 1.816.151zm1.488-2.974c1.427-.46 1.101-.355 2.995-1.594 2.173-1.422 2.264-2.2.082-1.104-2.802 1.407-5.262 1.047-6.175-.789-.814-1.637.885-3.677 3.682-4.476.955-.273 1.459-.503 1.462-.924.01-1.284-4.754.429-6.716 2.367-3.787 3.741-.473 8.18 4.67 6.52zm-6.123-5.825c.128-.195.468-.663.782-1.148 1.341-1.568.214-1.1-.977-1.528-.629-.234-1.274-.466-1.643-.41-.712.109.24 1.493.47 2.386.64 1.99.566 1.929 1.368.7zm5.07-3.586c2.4-.236 2.645-.47 2.648-.97 0-.496-.293-.401-1.498-.233-3.192.446-5.305-.37-5.761-2.082-.471-1.767 1.69-3.44 4.571-3.341 1.56.053 2.6-.49 1.649-1.01-.495-.273-4.792-.214-5.763.07-2.856.837-4.02 2.435-3.759 4.647.395 2.73 1.878 3.514 5.492 3.32.692-.037 1.575-.317 2.42-.4zm1.857-8.896c0-.426-.683-.488-2.948-.827-3.017-.45-4.365-3.259-2.546-4.95.689-.64 2.332-.915 3.247-.747 1.99.365 3.206.776 3.224.097 0-.605-.573-.649-4.307-1.442-5.642-1.2-8.739 4.37-4.228 7.095 1.714 1.035 7.553 1.624 7.558.774zm1.4-7.971c0-.214-.183-.378-.61-.546-.621-.244-1.038-.29-2.438-1.239-1.862-1.262-2.428-3.725-1.185-5.097 1.206-1.28-.964-2.793-2.694-1.348-1.797 1.502-1.646 3.86.424 5.727 1.905 1.718 6.496 3.505 6.502 2.503zm-9.142-.333c1.96-.926 3.37-.393 1.869-1.67-.843-.786-1.562-3.018-2.147-1.125-.448 1.129-.778 3.12-.79 3.315.132.135.102-.096 1.068-.52zm69.36-4.805c-2.234-.56-3.76-3.168-3.19-5.676.32-1.417 1.646-4.756 1.906-4.963.986-.787.85.26-.054 2.077-.824 1.854-1.467 3.346-1.212 4.45.363 1.57.995 2.77 2.619 3.169 1.141.28 2.217-.199 2.946-.717.963-.684 1.874-2.44 2.963-4.872.348-.684.816-2.784 1.396-1.503.28.664-2.045 5.076-2.913 6.194-1.093 1.407-2.94 2.232-4.461 1.841zm13.464-1.476c1.088 1.049 2.927 1.576 4.128 1.2 2.946-1.044 4.284-3.844 3.169-8.344-.565-2.523-1.048-4.092-1.536-4.404-.238-.152-.497.13-.728.482-.206.313.109.754.443 1.941 1.408 5.001 1.04 7.263-.678 8.219-2.493 1.387-4.628-.21-5.352-3.779-.116-.551-.457-1.676-.457-1.676-.191-.496-1.735-.386-1.174 1.275.17 1.285 1.347 4.35 2.185 5.086zm12.637-13.1c-.039-1.759-3.718-9.394-3.968-8.583 0 0-.016 1.784.128 2.486.055.265.245.51.403.793 3.197 5.735 2.703 9.776-.07 10.662-.944.43-1.15.855-.727 1.3.855.934 2.997-.914 3.414-1.585 1.05-1.505.903-4.25.82-5.072zm-53.54-1.297c1.205-1.354 3.847-6.025 4.662-8.476 2.506-7.294 5.141-15.684 5.87-23.439.08-.978.13-2.467.18-2.595-.198-.214-1.44-.101-1.858.113-.2.262-.066.842-.138 1.6-1.121 8.718-3.192 16.66-6.262 24.745-1.344 3.513-2.59 5.825-4.209 8.268-.282.426-.641.865-.783 1.113-.409.594-.108.982.366.731.841-.479 1.567-1.399 2.172-2.06zm-4.109 2.121c3.844-5.322 6.576-11.71 8.7-19.252 1.342-4.88 2.523-9.819 3.232-14.852.145-1.074.262-1.793.054-2.115-.52-.14-1.488-.053-1.824.208-.205.313-.069.94-.258 2.388-.492 3.745-1.229 7.506-2.471 12.429-3.28 10.897-6.296 16.997-10.256 22.335-.32.449-.605.74-.576.931.042.28.426.257 1.055-.139.823-.65 1.763-1.218 2.344-1.933zm-5.856 2.828c1.88-1.074 5.191-5.747 7.531-10.78 2.625-5.94 4.821-12.652 6.26-18.464.623-2.547 1.51-8.908 1.384-9.327-.15-.497-1.988-.083-1.733.26 0 0-1.826 10.225-3.79 15.861-3.648 10.463-6.802 17.562-10.197 20.975l-1.32 1.323s.017.39.3.45c.678.126 1.129-.072 1.565-.298zm-2.878-.417c4.243-2.39 9.213-13.552 13.27-27.567.694-2.398 1.962-10.426 1.962-10.426s-1.69.063-2.017.421c-.328.485-.275 1.72-.749 4.654-1.824 8.865-4.576 16.951-8.711 24.944-1.789 3.541-4.76 6.876-6.637 7.826-1.05.531-1.356 1.116-.588 1.158 1.294.047 1.409.32 2.349-.189zm58.144 124.834c-3.182-.012-5.885 3.064-8.293 6.93-5.122 7.921-8.565 21.158-9.403 28.193l1.932-.367c-.29.134 3.613-18.725 9.558-26.8 3.214-5.095 3.079-5.172 4.883-5.639 2.281-.59 4.111 1.896 2.98 3.395-.41.507-.86.134-.733-.588.405-2.306-2.935-2.75-3.868-.484-1.073 2.606 1.78 4.931 4.568 3.906 2.491-.886 3.535-4.396 1.786-6.988-.9-.877-2.2-1.656-3.41-1.558zm-16.751-.323c-3.81 4.821-5.698 9.776-8.037 16.54-2.338 6.76-4.017 13.371-4.745 20.957l2.055-.266c-.075-4.878 5.229-28.098 12.681-36.797.416-.55.75-1.008.72-1.136-.414-1.174-2.181.24-2.674.702zm8.418-1.8c-4.938 4.077-8.883 12.985-11.485 21.22-2.812 8.9-4.073 17.057-3.862 17.057l1.962-.291c-.146-.517 5.512-31.88 16.013-37.59.91-.458 1.101-.92.333-1.12-1.181-.167-2.132.225-2.961.723zm5.529.02c-10.783 1.43-17.83 34.77-18.065 37.539 0 .043-.039.258-.039.258l2.147-.446.028-.16c1.478-8.518 2.92-14.49 6.28-22.19 2.62-5.706 6.233-13.002 11.633-13.71.439-.057.855.12.701-.394-.329-.818-1.943-.922-2.684-.897zm-64.264-10.499c-3.897 1.01-4.024 5.719-1.428 11.736.196.455.16.703.36.878.443.392.791-.154.84-.514.075-.547-.156-1.283-.569-2.353-1.605-4.164-1.22-6.564.37-7.625 4.077-2.118 5.174 2.23 5.79 4.23.151.488.203 1.158.469 1.195.813.112 1.2-.179 1.189-.179 0 0-1.08-3.745-1.739-5.151-1.065-2.277-3.598-2.753-5.282-2.217zm-28.274 4.446l-.04 49.633-7.46 7.067c-3.202-2.768-7.408-7.103-7.408-7.103l.132-83.907-2.4-.193c-.587 36.05-.011 72.829-.039 108.95h21.901l18.257-28.788s.231-.343.304-.523c.224-.556.198-1.384.088-4.442-.045-1.243.094-2.197-.088-2.489-.184-.295-.574-.084-.937.08-.37.168-.59.109-.391-.332.113-.25.478-.797.794-1.32 1.025-1.697 1.275-2.24.93-4.122-.086-.463-.507-.854-.873-1.4-3.073-4.575-4.324-11.357-2.798-16.325.486-2.196.31-2.64-.74-4.352zm96.564-53.368c-2.005-1.04-1.967-1.016-1.979.95.011 1.47.04 1.826.586 1.628.79-.405 1.757-.777 2.487-1.09 1.393-.483-.376-1.101-1.094-1.488zm7.94 5.112c-1.556-1.254-.982-1.11-1.422 1.717-.266 1.707-.61 1.752 1.14 1.187.995-.347 3.038-.128 2.121-1.305.01.02-1.533-1.338-1.839-1.6zm-62.542 43.394c-2.388 1.458-4.827 8.523-4.827 8.523-8.344 1.004-11.837 9.286-12.21 16.192-.295 5.452-.661 11.817-.116 12.375 5.471-2.483 7.579.383 8.097-.39.237-.337-1.213-1.455-3.035-2.459-.423-.233-1.078-.652-1.326-.86-.665-.555 1.326-.077 2.584.787 1.604 1.103 1.874.873 1.178-2.348-.757-3.502-.881-3.931 1.785-5.32 1.067-.555 1.674-1.027 2.438-1.89.611-.692.767-.86.542.156-.39 1.76-1.94 2.528-3.338 3.242-.695.36-.982 1.084-.986 1.705 0 .633.717 4.056 1.05 5.149.31 1.039.424 2.08.663 3.14.627 2.748.667 3.287.35 5.282-.186 1.17-.28 1.837-.215 2.544.059.642.146 1.516.146 1.516 0-.03-1.49-1.545-4.757-.247-2.355.936-4.216-.04-5.536-.732-.304 1.082-.235 2.258-.198 3.5 13.584 2.508 25.185 2.172 34.954 1.14.253-2.917 1.484-12.188 4.07-20.548 1.077-3.478 2.294-7.146 3.667-9.593.936-1.668 1.89-2.793 2.228-2.987.106-.064.115-.098.113-.143v-.261c-.034-.542-.164-1.382-.626-1.753-1.127-.908-2.926.26-3.517 2.285-.519 1.213-2.883 6.46-3.052 6.372-.139-.088-.467-.095-.348-.5.905-2.127 2.148-4.376 2.849-6.285.967-2.748 3.07-4.2 4.643-2.466.538.594.755 1.142 1.002 1.33.186.143.437.046.592-.19.592-.901-.782-2.948-2.256-3.36-2.128-.593-3.713.974-6.126 6.056-1.394 2.934-1.643 3.671-1.863 3.445-.05.02-.42.02-.285-.549.287-1.221 2.136-4.771 3.475-7.023 1.982-3.333 5.663-3.603 7.21-.71.237.394.249.91.512 1.261.475.62 1.256.497 1.45-.521-.211-.674-1.505-3.11-2.404-3.533-2.07-1.437-4.582-1.155-6.696.75-.479.433-.98 1.312-2.381 4.186-2.066 4.608-2.12 4.626-2.685 3.883.83-2.241 3.015-5.883 3.897-8.12.168-.333.202-.691.19-1.035-.052-1.625.21-4.498-3.193-6.539-2.902-1.579-6.734.083-8.04 3.191-.999 2.382-1.729 4.017-2.232 4.355-.708.474-.576-.187-.506-.426 1.006-2.155 2.42-4.333 2.645-6.501.146-5.868-5.744-8.037-9.574-5.076zm-30.408-109.957c4.596-2.158 7.743-3.245 12.427-4.64.632-.28.733-.344.062-1.687-2.968-5.933 5.174-10.663 7.941-4.839.37.777.455 1.206.819.835.68-.901 1.489-2.18 2.33-3.641 3.113-4.875 4.523-10.436 6.184-15.344.689-2.884 1.65-5.898 1.922-8.99-6.179-10.866-17.042-30.78-17.042-30.78h-43.412v87.098c12.094-10.193 20.323-13.88 28.77-18.012zm48.69-3.21c.525-.56.979-1.488 2.86-5.387.335-.696.871-1.774 1.09-2.276.282-.918 1.339-1.492.824.151-.117.355-.318.833-.638 1.47-.625 1.135-1.22 2.527-1.665 3.436-2.405 4.87-2.291 7.707.396 9.82 2.008 1.939 6.224 2.157 8.467-.973a9.196 9.196 0 0 0 .733-1.39c.975-2.391 1.694-3.586 1.879-3.823.998-1.28 1.158.306-.333 2.747-1.709 2.797-1.739 5.828-.262 7.961 2.19 3.161 6.348 3.251 8.958.715 1.357-1.606 2.435-3.65 3.303-6.262.193-.58.392-1.01.532-1.349.218-.523.53-.718 1.341-.874 5.556-1.075 10.218-6.835 10.88-13.125.087-.85.326-2.356.414-3.249.174-1.782.178-11.014 0-11.565-.094-.297-.26-.454-.621-.45-.278.003-.67.102-1.235.305-1.831.66-2.684.828-4.444.192-.581-.21-.983-.281-1.222-.26-.776.067.256 1.192 2.519 2.435.97.532 1.736 1.25.95 1.197-.229-.016-2.96-1.441-3.337-1.675-1.244-.77-.92.2-.279 2.753.861 3.428.365 4.39-2.315 5.734-.5.25-1.163.773-1.5 1.11-1.42 2.12-1.054.558-.338-.572 1.222-1.292.472-1.733-2.033-.837-2.859 1.022-4.15.276-4.95-1.33-.904-1.815.797-4.149 2.215-4.103.46.014.377.182-.3.648-.818.564-1.205 1.108-1.29 2.07-.173 1.963 1.217 2.797 3.16 1.48.917-.621 1.64-1.05 2.334-1.21.688-.158 1.722.1 1.72.657 0 .229-.034.791.015.916.182.621 1.166-.258 1.595-.57 1.463-1.105 1.415-1.323 1.015-3.115-.653-2.508-.983-4.801-1.605-7.344-.333-1.331-.39-2.836-.187-4.194.102-.68.364-2.079.417-3.036.053-.957-.01-2.325.029-2.325 1.453 1.123 2.043 1.319 3.461.775 2.194-.908 3.58-.813 5.428.08.684.33 1.307.563 1.307.563l.084-2.879s-1.711-.356-4.873-.776c-9.52-1.263-29.053-1.53-29.78-.368-.185.295-.37 2.351-.888 5.21-1.152 5.942-2.443 11.864-4.17 17.662-.355 1.181-.693 1.657-.512 1.692.074.015.427-.443.592-.634.926-1.08.216 1.484-1.182 4.571-.126.279-.23.584-.23.679 0 .186-.88 2.338-1.485 3.639-.377.809-.688 1.052-.685.535.424-1.779 1.548-4.08 1.71-5.665-.985 1.435-2.417 3.805-3.502 5.22-.2.38.012.498.187.968.652 1.758 2.23 1.915 3.142.324.509-.888 2.088-4.23 2.638-5.694.565-1.506.962-2.3 1.15-2.398.379-.197.451.659-.219 2.083-2.034 4.32-2.906 6.742-3.902 7.635-.773.693-2.11.649-2.853-.585-1.26-2.091-2.335-1.399-1.179.746 1.194 2.215 3.922 2.423 5.347.427.47-.659 2.684-4.926 3.38-6.662.388-.969.803-1.723.942-1.777.743-.289-.105 1.923-2.24 6.352-.691 1.71-1.802 3.505-3.305 4.06-3.653.808-4.148-1.143-5.419-3.367-.617-.553-1.177.331-.94 1.31.383 1.586 1.1 2.206 2.207 3.003 2.313 1.486 5.528.463 6.693-1.232zm16.298 9.267c-.331-.74-.283-1.493-.114-2.194a18.101 18.101 0 0 1 1.758-4.45c1.2-.574.283 1.707.133 2.045-1.447 3.048-1.584 4.227-.233 4.578 1.157.301 1.779-.413 2.872-3.145.562-1.402.786-2.023.985-2.104.421-.171.624 0 .599.428-.724 1.794-1.29 3.68-2.477 5.17-1.163.983-2.914.988-3.523-.328zm-10.852-2.341c-.504-.1-1.367-.756-1.967-1.31-2.044-1.891-1.707-4.505.828-9.419.197-.381.935-1.867 1.172-2.355.424-.874.842-.532.838.046 0 .163-.635 1.52-1.274 2.78-2.8 5.526-2.703 7.78.017 9.095 2.655 1.283 3.844.545 5.962-3.674 1.224-3.167 1.828-3.22 1.761-2.016 0 .45-1.485 3.486-2.441 4.897-1.387 2.047-2.588 2.41-4.896 1.956zm.201-2.667c-1.042-.651-1.468-2.272-.851-3.598.56-1.094 1.995-5.286 2.67-5.523 1.085-.037.506.88-.838 3.459-1.59 3.415-1.533 4.328-.306 4.85 1.136.485 1.675-.507 3.35-4.502.263-.627.63-1.278.845-1.142.267-.02.73.182-.152 1.992-.208.433-.563 1.341-.955 2.187-1.145 2.471-2.444 3.101-3.763 2.277zm18.815-7.25c-.458-.238-2.608-1.09-2.29-1.798.04-.066.165-.014.229.03 1.968 1.33 4.416 1.669 6.97-.18.429-.382.75-.123.51.357-.773 1.548-4.215 2.21-5.419 1.591zm-6.323-2.245c.06-.149.237-.591.394-1.186.236-.895.18-1.553.39-1.439.892.486 2.487.498 3.267.017.856-.527 2.592-.688 3.225-.273.904.594 1.364.318 1.998-.18.715-.563.728-.323 2.02.13.953.334 1.328.562 1.733.488.155-.028.47-.386.571-.367.31.056.345.944.631 1.959.253.897.109 1.114-.688.576-.592-.4-2.296-.588-4.067-.04-1.312.406-1.614.242-2.577.078-2.4-.41-4.13-.726-5.92.32-.954.558-1.301.848-.977-.083zm-5.969-4.433c-1.163-2.354 1.512-5.471 3.863-4.37.78.364 1.473 1.747.32 1.113-5.347-1.09-4.012 6.813 1.73 2.639 3.816-2.557 6.516-2.952 6.74-.479-.106.91-.906.764-1.512.847-1.582.223-2.167.482-3.999 1.275-2.788.887-5.513 1.611-7.142-1.025zm20.922 1.088c-1.305-.338-2.438-.858-3.799-1.107-1.347-.236-1.955-.946-1.711-1.902.253-.992 1.602-1.097 3.63.152 2.247 1.386 3.877 1.721 4.7 1.199 1.663-1.056.765-2.776-.822-3.216-1.191-.334-.315-.802.966-.416 2.067.79 2.11 4.56-.015 5.343-.71.262-1.964.19-2.95-.053zm-18.212-12.478c1.518-.947 2.985-1.793 3.507-2.358.274-.297 1.035-1.293.444-.989-3.096 1.877-6.69.318-9.294-.966-1.25-.59-.942-.329-1.903-.264-.65.043-1.174.181-1.29-.288-.052-.208-.416-.12-.65-.144-.961-.096-.353-1.381 1.668-2.798 2.383-1.671 4.463-2.762 6.527-3.212 2.144-.467 4.33-.203 5.935 1.355.616.599.561.998 1.124.63 1.285-.839 1.296.275.213 1.305-.745.708-.473.9.438 1.574.434.321.078.627-.165 1.095-.092.287-.02.6-.063.817-.203 1.007-4.741 4.562-6.385 5.17-1.13.212-.537-.647-.105-.927zm3.152-6.534l-.754.01c-.857 2.644-2.44 3.544-3.759.375l-.6.061c-.027 2.685 4.549 4.37 5.113-.446zm-4.956 2.479c-.31-.526-.66-1.734-.985-1.752-.885-.037-2.108.123-1.818.676.457.876 3.164 1.686 2.803 1.076zm6.065-.471c.816-.496.99-.838.457-1.382-.687-.704-1.046-.345-1.261.778-.186.966-.051 1.124.804.604zm-11.06-1.859c5.465-2.495 7.537-2.817 9.757-2.2.514.143.97.433 1.257.416 1.063-.064.385-1.266-1.523-1.954-2.18-.786-3.562-.429-7.75 1.775-2.453 1.29-4.446 3.198-1.74 1.963zm15.837-3.028c-.078-.15-.409-1.142-.503-1.504-.094-.363-.178-.737-.28-.739-2.536.41-4.765-.069-5.364-.213-3.834-.923-7.539-.736-10.305.357-.675.267-1.513.7-1.593.775-.219.206-.542-.028-.54-.286 0-.302 1.7-1.658 2.77-2.192 3.253-1.627 6.687-1.905 10.458-.881 2.457.95 4.04.796 5.61.102.772-.34.225.502-.02 1.62-.168.774.018 1.437.049 1.874.097 1.057-.023 1.587-.283 1.087zm57.101 222.947v-87.327c-21.782 15.142-31.31 18.152-41.546 21.863 3.423 7.04-4.12 13.064-8.446 5.915-4.452 5.044-10.585 22.71-10.802 28.576 0 0 11.843 20.674 17.62 30.973zm-79.163-28.626c.396-4.394 1.326-11.843 4.226-20.513 1.217-3.636 2.684-7.81 4.757-11.545.828-1.305.885-1.81 0-1.34-.555.295-3.089 3.178-3.434 3.906-3.887 8.275-5.685 18.217-7.108 25.808-.322 1.706-.417 3.827-.417 3.827zm2.844-.36c.925-10.675 4.817-25.087 10.665-34.48.55-.895 1.227-1.672 1.202-1.982-.076-.913-2.328.665-4.075 3.36-1.95 3.902-3.905 8.065-5.4 12.674-2.11 6.505-3.65 12.515-4.251 20.672zm5.62-.892c.586-6.151 2.478-11.794 4.065-17.448 1.94-6.912 4.529-12 7.546-16.581.968-1.47 2.11-2.845 3.195-4.246.139-.168.278-.471.246-.598-.697-.123-1.251.095-1.79.4-.753.425-1.811 1.498-2.43 2.294-4.297 5.53-6.61 11.986-8.756 18.51-2.06 6.264-3.545 12.288-3.836 17.96zm-38.6-4.715c.864-.068 1.42.096 1.672-.136.249-.23.168-.85.246-1.641.167-1.693-.01-1.6-1.055-.506-1.735 1.81-4.902 2.509-6.786 1.414-.95-.553-1.612-.935-1.701-.476-.105.536.04.946.446 1.232 2.282 1.05 4.449.328 7.178.113zm-2.04-1.297c1.202-.402 2.423-1.05 3.11-2.038.656-.944.646-1.078.15-.899-2.444 1.212-4.05 1.828-6.233 1.493-2.956-.454-3.079-.073-1.125 1.162 1.28.807 2.34.831 4.098.282zm-4.341-3.782c.458-.34.575-1.728.206-1.807-.373-.08-.918.608-1.051 1.17-.15.743.397.934.845.637zm4.577-.06l.786-.072c-.402-3.48-4.146-3.63-4.837.349l.593.089c.773-3.172 3.037-3.085 3.458-.366zm2.47-.56c1.145-.645.75-1.443-.796-1.749-1.015-.24-.959.597-.433 1.731.261.564.444.458 1.228.017zm-8.82-4.265c-.01-.388-.167-1.013-.35-1.39-1.32-2.728-2.049-5.951-1.899-9.957.107-2.871.143-3.759-.449-3.763-.826.402-1.314 5.744-.262 10.192.742 3.138 3.015 7.034 2.96 4.918zm-.032-4.348c-.08-1.5.247-4.862.084-5.596-.214-.964-.78-1.835-1.1-2.067-.496-.36-.62.33-.448 2.133.402 4.228 1.076 7.43 1.464 5.53zm.418-7.697c.326-.593.199-1.222-.52-2.636-2.83-5.57-3.198-9.377-.241-10.76.33-.155.54-.184.76-.307.933-.522.577-1.468-.817-1.077-3.852 1.079-4.612 4.716-1.365 11.445 1.654 3.358 1.911 3.828 2.183 3.335zm.701-3.159c.051-.233.15-1.144.189-1.33.039-.187-.35-.722-.767-1.797-1.089-2.804-1.112-3.968.073-4.78.384-.228.78-.239.84-.5.093-.407.086-1.076-.156-1.27-1.7.012-2.484 1.011-2.782 1.962-.449 1.503.02 3.706 1.353 6.435.647.85.985 2.407 1.25 1.28zm1.299-3.629c.908-1.85.047-4.246-1.204-3.428-.811.53-.852 1.09-.355 2.63.607 1.876.965 2.007 1.559.798zm3.186-4.948c.364-.363.041-.884-.63-2.927-.577-1.75-.313-2.946.783-3.292 1.574-.39 2.13 2.203 2.461 3.297.17.844.721 1.077 1.21.49.137-.165.176-.301-.057-1.222-1.016-4.022-2.344-5.301-4.482-4.3-1.982.93-1.722 3.006-.285 7.374.192.585.32 1.018.46 1.08.113.049.338-.298.54-.5zm1.756-1.366c.47-.468.442-.256-.096-1.934-.613-1.913-.935-2.312-1.594-1.655-.405.404-.2.848.262 2.414.536 1.818.68 1.922 1.428 1.175zm82.175-6.55c3.129-2.175 1.839-6.079-2.279-7.526a16.78 16.78 0 0 1-1.189-.46c-1.892-.916-3.364-1.2-3.368-.483 0 .422.566.634 2.38 1.525 2.682 1.318 3.288 2.84 1.964 4.76-.954 1.383.833 2.967 2.492 2.184zm2.839-4.75c.272-1.117.675-2.074.869-2.725.265-1.018-.077-.781-.746-.622-1.724.901-2.958.411-2.12 1.651.93 1.65 1.698 2.923 1.997 1.695zm-.214-3.903c2.149-1.297 2.625-4.676.625-6.287a7.218 7.218 0 0 0-2.307-1.2c-2.035-.626-4.972-.91-6.05-.581-.23.275-.24.707-.01.832.3.113.842.187 1.625.267 2.99.306 4.465 1.203 4.322 3.342-.147 2.204-1.896 3.052-5.053 2.355-1.697-.375-2.488-.194-1.807.206.81.476 2.552 1.1 4.268 1.44 1.467.26 3.14.36 4.386-.374zm-10.314-.556c2.419-5.47 3.693-19.82-10.128-30.193l.457 2.87c8.143 7.19 10.099 16.348 8.412 24.748zm12.34-9.808c-.866.565-1.59 1.152-2.7 1.652-.665.3-.682.373.221.87.438.24 1.157.682 1.433.982.478.52 1.042.72 1.253.53-.022-.814.254-3.506-.208-4.034zm-4.091 1.037c2.8-.89 4.297-2.248 3.978-4.519-.468-3.33-3.233-4.035-8.41-2.733-2.492.626-2.714 1.804-.35 1.197 2.985-.767 5.33.392 5.012 2.594-.185 1.9-1.701 3.007-4.363 3.007-1.405 0-1.84.126-1.65.637.13.346 4.63.184 5.783-.183zm-4.622-7.913c4.576-1.58 6.704-4.036 5.659-6.789-1.231-3.24-5.225-3.273-9.238-.257-1.875 1.383-1.588 1.895.229 1.191 2.355-1.09 3.87-1.258 4.834-.392 1.741 1.565.566 4.295-2.074 5.274-1.28.535-1.69.831-1.693 1.218 0 .612.23.464 2.283-.245zm7.72-.05c.117-.96-.958-4.286-1.423-3.52-.123.203-.55 1.142-1.09 1.63-1.574 1.42-1.277.883.286 1.317.87.242 2.097.858 2.226.572zm-12.104-7.108c4.627-2.702 6.392-6.557 3.995-9.12-2.156-2.304-5.728-.963-9.047 3.226-1.52 1.92-.378 1.679 1.673-.148 2.39-2.127 5.428-1.1 5.412 1.556-.01 1.134-1.6 3.042-3.107 3.928-.468.276-.536.698-.37.972.178.297.553.106 1.444-.414zm8.11-2.818c-.242-.726-1.982-3.843-2.356-3.736-.395.799-.424 1.85-.897 2.697-.645 1.274-.563 1.075 1.491 1.068 1.53-.005 1.714.211 1.762-.03zm-13.598-3.524c3.887-4.064 4.23-8.822.588-9.917-2.017-.607-5.242.863-5.251 2.38-.01.944.17 1.116.987.777 3.434-1.287 6.157 2.04 3.002 5.864-.768 1.107-.87 1.385-.647 1.614.262.268.475.167 1.321-.718zm41.884-34.75v-107.953h-22.766l-18.067 28.68-.027 7.038c-.001.244.41.395.676.089 1.027-.8.63.04-.55 1.85-1.194 1.832-.829 3.34.477 5.295 2.767 4.144 4.21 11.75 3.032 15.771-.445 1.518-.544 2.131-.254 2.98.332.972.536 1.49 1.496 2.116.836.587 7.707 3.287 18.776 10.457l-.054-50.602 6.975-6.735 7.368 7.102.258 83.542c0 .884 2.66 1.68 2.66.37zm-4.009-83.673l-6.17-5.789-6.098 5.703c-.032 27.212.155 83.062.155 83.062l6.06.439s.446-1.274-.122-4.568c-.851-4.943-.798-10.979.57-20.16.853-5.632.01-10.516-1.287-15.659-1.122-3.427-1.162-6.598-.959-9.664.432-4.888 1.767-8.58 1.93-15.612.093-4.01-.097-7.935.05-12.88.06-.662.337-.58.386.103.186 4.476.358 8.727.398 13.098-.133 5.684-1.512 11.533-1.663 16.736-.114 3.604-.172 4.85 1.338 9.239 2.374 6.897.812 17.492.784 17.68-1.006 6.787-1.739 15.47 1.658 21.967l3.291.296zm-42.443 51.334c1.82-.842 2.18-2.33 1.2-5.914a71.12 71.12 0 0 1-.442-1.689c-.21-.884-.605-.981-1.131-.278-.315.42-.024.518.459 2.488.73 2.978.306 3.963-.793 3.956-.974-.006-1.733-.815-2.011-2.747-.095-.66-.234-1.11-.392-1.374-.265-.442-.584-.363-.84.126-.333.633.292 3.239 1.122 4.502.901 1.273 1.522 1.535 2.828.93zm-.495-2.674c.387-.733-.093-2.538-.344-3.72-.23-.66-.494-.821-.927-.714-.645.16-.613.87-.38 2.041.476 2.384.733 2.685 1.65 2.393zm5.533-4.301c2.082-1.196 2.281-3.26.882-7.012-.574-1.538-1.288-2.621-1.682-2.633-.154.979-.297 1.5-.125 1.885.163.356.437.902.632 1.358 1.185 2.768.866 4.363-.279 5.228-1.068.808-.392 1.487.572 1.174zm-68.158-1.443c4.884-1.052 9.29-8.961 12.064-16.014 2.527-7.106 5.214-14.913 5.64-21.424 0 0-1.848.086-2.074.47-.21.38-.301 1.196-.497 2.36-1.274 5.989-2.286 10.538-4.507 16.167-1.543 3.908-3.225 8.331-7.402 14.273-1.372 1.66-2.942 2.69-4.914 2.967-.502.07-1.347-.024-1.56.127-.375.266-.037.87.928 1.114.865.218 1.743.075 2.322-.04zm67.3-.924c.745-.799.819-1.747-.017-3.753-.234-.562-.341-.88-.62-.802-.589.166-1.276 1.726-.87 3.046.53 1.72.84 2.224 1.507 1.509zm-69.005-1.257c1.431-.192 3.244-1.338 4.553-3.135 2.691-3.547 4.548-7.582 5.926-10.72 1.102-2.527 3.094-7.984 3.634-9.96 1.15-4.198 1.778-6.906 2.302-9.911.048-.276.094-.718.012-.86-.567-.156-1.809-.063-2.19.322-.686 4.82-2.28 9.654-3.446 13.673-1.965 6.836-7.567 17.772-10.62 18.288-1.643.277-3.525-1.161-3.223-2.637.186-.906.31-1.251.75-1.478 1.065-.377 1.685.352.517.829-1.353 1.185 1.082 2.997 2.578 1.731 2.536-2.146-1.19-6.257-4.24-4.367-3.378 2.093-2.51 5.717-.385 7.44 1.071.869 2.312.99 3.832.785zm23.923-4.907c2.088-2.158 3.655-4.952 4.796-8.445 2.47-7.843 4.52-16.835 5.262-23.879 0 0-1.783-.185-2.18.195-.28.268-.012.523-.77 5.67-1.273 7.504-3.13 14.957-5.815 21.408-1.1 2.609-1.413 2.928-2.19 4.283-1.085 1.914-.683 2.401.897.768zm46.308-16.352c-.193-.101-.177-.035-.259.022-.284.199-.099 1.2.547 2.748 1.702 2.766 1.9 8.135 1.79 10.153-.034.606-.096.954.086 1.492.18.529.497 1.143 1.007.113.56-3.975.12-8.137-1.392-11.507-.534-1.198-1.056-2.37-1.78-3.021zm1.31 11.723c.298-1.07-.252-5.312-.935-6.802-.276-.6-.773-.647-.714.035.01 1.47-.152 4.265 0 5.093.744 1.728 1.323 2.828 1.644 1.674zm-3.852-17.136h-.803c.028 2.775-2.415 3.546-3.316.214l-.723.169c.961 4.702 5.305 2.546 4.842-.383zm-4.883 2.091c-.417-1.231-.244-1.68-1.303-1.127-.809.422-1.294.873-.155 1.425 1.014.432 1.722.48 1.458-.298zm6.118-.709c.335-.683.295-1.299-.21-1.302-.39-.002-.498.31-.609.973-.197 1.183.292 1.402.819.33zm.425-4.609c.31-.1.221-.539.138-1.097-1.324-1.854-4.598-1.286-5.774-.918-1.358.444-1.699.279-2.623-.148-.764-.143-.871.044-1.057.412-.164.323-.193.938-.246 2.01-.045.905-.013 1.326.3 1.043 1.212-1.096 2.615-2.466 4.663-2.551 2.481-.104 4.6 1.29 4.599 1.249zm-9.015 2.509c0 .373.314.14 1.122-.37 2.938-1.758 4.64-1.51 7.156-.671.56.186.907-.404.3-.907-2.988-2.473-6.668-.896-8.578 1.948zm10.648-11.393l15.941-26.56-88.81-.066 15.08 28.199c12.296-2.867 32.537-6.529 57.79-1.573z" fill="#131f67"/><path d="M3705.484-122.368c1.881-2.827 11.197 2.21 11.69 4.206 5.512-4.373 12.207-4.691 17.594.783 5.54-6.102 11.469-5.685 17.638-2.151-.69-1.378 7.887-7.466 13.1-3.597l14.098 25.3-90.313.293c5.334-8.07 10.06-17.708 16.193-24.834zm-39.449-131.958c-.49-1.37-2.472-15.424 2.555-15.774 8.126 3.63 18.5 16.616 23.306 24.551 5.956 9.834 11.975 32.446 8.651 31.459-.48-.143 10.258 10.69 10.998 11.749 1.216 1.739-18.1 34.158-21.292 32.994-.964-.351-7.397-4.221-7.397-4.221l.184-10.817.156-21.825-17.703-1.555.621-4.752c5.938.491 12.031 1.612 17.53.33 3.619-6.676 2.236-16.637-2.115-20.65-2.302-1.412-4.475-.961-6.812-.661-9.478-1.595-4.567-17.693-8.682-20.828zm158.525 7.22l.057 3.99c-6.24 1.371-17.27-3.956-20.61 4.626.414 9.268 2.475 13.425 3.913 16.224 1.082 2.514 8.67-.354 11.344 2.181 7.668 9.513 5.859 22.18 5.926 33.593l-3.327 1.693c-22.992-13.666-40.647-56.118-43.093-68.204-.156-7.759 21.093-32.695 21.093-32.695.048-.054 7.742 4.72 7.742 4.72.186.076-.163 32.726-.162 32.575 6.076.315 11.966.913 17.117 1.297zm-45.588-29.843c-26.814 47.277-15.849 82.254 3.882 112.436 0 0-1.706.392-1.894.223-4.32-3.873-7.339-3.195-9.549-3.23-4.223-.067-5.39 1.202-7.814 1.445-6.188.618-5.685.776-10.934-1.217-6.624-5.443-15.496-9.617-22.556-11.813-5.66.514-14.29 3.209-17.553 1.026 22.703-42.228 19.302-69.26-4.2-113.521 1.948.578 2.251 2.412 3.71 2.865 4.831 1.88 11.488 1.167 15.477-.587 6.34-2.91 13.114 4.907 32.588 13.508 1.588.826 3.594-.477 5.347-.835 3.592-.733 6.67-2.282 9.35-1.375.86.291 4.146 1.075 4.146 1.075zm-54.122-55.26c-1.156-2.168-12.977-24.835-12.977-24.835l87.931.534-13.192 21.868c-1.245 1.187-7.442 4.496-13.763-2.996-.118 1.077-9.38 7.734-17.34-.283-4.79 4.388-9.677 6.93-17.737 1.99-.18 1.378-6.466 7.556-12.922 3.722z" fill="#e2cf00"/><path d="M3734.47-117.886c-8.519-8.051-17.388-.784-17.185-.324-3.372-3.455-6.67-6.285-11.114-4.895 0 0 0-1.213.034-1.24 13.252 2.446 33.549 3.08 57.275-1.928l1.217 2.57c-6.363-2.282-9.642.796-12.462 4.388-10.212-6.427-12.704-.788-17.764 1.429zm19.872-93.64l6.027-.119c1.135 17.694 15.78 44.768 16.132 44.768-1.02-1.43-10.688-.303-10.617-.122-5.316-14.316-11.153-28.618-11.543-44.527zm-35.154 41.973s-1.939-5.072-3.1-7.242c6.329-10.907 11.52-22.196 14.182-34.75l4.31.038c-1.277 17.332-15.02 43.654-15.392 41.954zm77.538-2.32c9.494-17.29 7.855-42.211-19.077-55.984 0 0 .702-18.267 2.705-18.309.452.142 12.19-.152 12.19-.152 3.075-7.618 8.024-16.831 14.94-23.052l.172 20.419c-5.117.51-8.238 2.158-9.789 6.198l-7.09 1.593c.52 20.512 8.167 39.465 30.846 56.487-5.42 4.701-23.943 14.245-23.872 14.078zm-113.634-12.888l.201-21.262c3.44-.75 6.15.256 8.99-5.966 0 0 4.765 2.283 6.348 3.125-4.454 8.045-8.3 16.641-15.54 24.103zm45.15-37.645l.234-10.795 10.153.296c-.862 3.66-1.13 7.32.02 10.98zm23.165-.131c.693-3.532 1.188-7.084-.25-10.832l10.994.189-.259 10.75zm-20.909-21.108c-1.829-21.173-16.2-45.137-16.403-44.627 1.694.274 4.676 1.12 6.317.336 1.987.333 3.708.106 3.802-.08.133-.74 13.36 30.742 11.595 44.322-.21.46-4.88.49-5.31.049zm25.412.185c1.551-9.78 5.556-27.672 15.015-42.181 1.075 2.576 1.977 5.225 3.452 7.633-7.131 10.473-11.526 22.445-14.192 34.665zm-65.741-5.272c-4.328-8.912-22.331-22.942-21.41-21.525 7.452-6.743 15.764-11.026 24.06-15.353 0 0 1.475 1.413 1.252 1.769-5.1 8.115-7.574 25.309-2.635 35.163 4.745 10.526 13.164 16.748 21.747 21.633-.664 6.581-.988 11.338-2.592 17.88 0 0-5.393-2.863-9.813-4.706-.703-12.427-3.25-23.543-10.61-34.861zm47.682-87.33c6.345 3.906 12.028 3.494 17.538-1.806 6.916 6.336 14.396 3.385 17.557.529 2.925 3.327 6.736 5.172 12.308 4.073l-1.38 2.925c.33-1.554-38.434-4.091-57.19 1.21 0 0-1.096-2.207-.974-2.226 1.632-.1 7.065 1.932 12.14-4.705z" fill="#d40000"/><path d="M3710.582-357.746l15.67 29.469.688-.13c21.718-4.287 38.919-4.873 57.393-1.592l16.424-27.435c-29.89-.344-90.175-.312-90.175-.312zm1.747 1.255l87.133.097-4.901 8.116c-2.935-.914-4.571.445-4.982 3.284 0 0-.363-.158-1.044-.232-4.294-.469-4.836 5.245-.828 5.935 1.024.176 1.197-.03 1.197-.03-3.576 3.034-5.607.988-7.289-.014-.046.355-3.205 2.751-6.184-.116 4.267.43 4.93-3.886 2.891-5.528a9.875 9.875 0 0 0-.861-.755c1.004-.883 1.222-2.057.579-3.4-1.294-2.702-5.348-2.544-5.968.406-.241 1.148-.25 1.35-.25 1.35-3.273.215-3.939 3.337-2.813 5.069.64.984 2.046 1.198 3.345 1.132-1.75 2.504-5.758 1.652-7.543-.412-2.836 3.366-6.068 2.956-7.68 1.152 1.095-.012 1.85-.028 2.856-.968 1.72-1.606.875-4.455-1.555-5.253a4.033 4.033 0 0 0-.838-.188c.017-.025.063-.182.168-1.04.604-4.969-6.767-4.478-6.054.41.083.567.234.872.234.872s-.782-.045-1.23.164c-4.093 1.906-1.273 7.154 1.89 5.804.3-.128 1.117-.533 1.235-.527-3.918 4.906-7.207 1.429-8.074.895-2.646 3.964-7.242 1.26-7.336.982.286.08 1.148-.1 1.967-.523 2.59-1.363 1.857-4.87-.163-5.635-.619-.218-1.366-.24-2.206-.174 0 0 .064-.883-.02-1.194-1.272-4.778-7.156-2.393-5.709 1.644.127.354.469.711.469.711s-.798.49-1.153.813c-2.81 2.552.05 6.762 3.33 5.01.424-.225.835-.7.953-.672-1.544 2.849-3.886 3.844-7.227 1.485-2.06 3.299-5.422 1.929-6.37.276 3.141.29 5.181-5.79-.857-5.988-.47-1.651-.446-4.167-4.273-3.734zm42.552 10.433c.691 0 1.249.568 1.249 1.267 0 .7-.558 1.268-1.25 1.268a1.262 1.262 0 0 1-1.253-1.268c0-.699.562-1.267 1.254-1.267zm19.469.15c.733 0 1.326.604 1.326 1.345 0 .74-.593 1.34-1.326 1.34-.733 0-1.326-.6-1.326-1.34 0-.74.593-1.345 1.326-1.345zm-38.163 1.466c.706 0 1.278.577 1.278 1.291s-.572 1.296-1.278 1.296a1.292 1.292 0 0 1-1.283-1.296c0-.714.576-1.291 1.283-1.291zm54.67 1.591l-1.11 1.993c-1.225-1.085-.381-2.508 1.11-1.993zm-69.913 2.747l-1.104-2.06c1.976.135 1.394 1.564 1.104 2.06zm33.774-1.122c7.478 8.611 14.184 6.064 18.57.339 1.88 4.88 6.072 8.253 13.285 4.972-.436.78-1.531 2.157-1.531 2.157-6.375 1.736-9.539-1.296-11.999-4.184-6.485 5.442-12.592 4.123-17.631-.677-4.301 5.473-11.266 6.649-17.713 2.182-2.947 4.396-7.175 6.171-12.491 3.97 0 0-1.128-1.791-1.225-1.905.77.653 10.56 4.76 12.95-5.117 3.409 5.845 14.583 6.155 17.785-1.737zm.751 3.54c8.412 7.95 17.239 1.076 17.464.59.132.443 4.933 6.236 11.855 4.06l-1.125 1.948c-13.024-2.227-25.005-3.657-52.444.421 0 0 4.38-1.31 6.595-4.842 1.233.81 10.752 6.18 17.655-2.176zm-29.481 6.589s3.661.434 3.948.508c.322.252-3.082 1.196-3.096 1.127zm7.423 37.926c-.222.007-.498.26-.957.716-.993.988-1.219 1.118-2.183 1.258-.726.105-2.261.998-3.192 1.857-.251.232-.732.426-1.306.527l-1.527.266c-.34.059-.71.168-.823.237-.489.301-1.285.347-2.178.13-.86-.208-.999-.202-1.948.093-1.382.43-2.287.43-2.967 0-.68-.43-1.76-.592-2.446-.368-1.013.331-3.638-1.257-3.632-2.196 0-.213-1.492-1.342-1.867-1.344-1.33-.2-13.02 4.465-12.96 4.735 14.354 17.917 26.437 45.215 17.335 78.62l-1.608-.78c1.35-6.071 1.886-12.182 2.302-18.39-26.942-11.755-29.261-39.091-18.804-56.35l-1.776-1.91c-6.337 3.417-12.776 5.357-28.438 18.636l.043 21.496c.039 19.432.029 38.366.029 38.366 5.668.635 11.91 1.153 18.067 1.688 0 0-.08 19.218-.22 26.734-.12 6.358.115 5.96.115 5.96l20.388 10.863c-1.433-5.722 2.103-7.995 5.063-7.757-1.308-5.517 1.94-8.042 5.648-7.334 2.504.478 3.381 1.874 4.814 6.486.233.75.554 1.752.554 1.752l1.429-.053c1.788-3.882 2.983-8.821 7.191-9.462 5.508-.838 7.56 2.987 7.557 6.81 5.337-4.752 11.73-1.073 11.313 6.026 2.686-1.744 7.235-3.321 10.102 3.406 1.078-.23 1.627-1.443 3.143-1.823.566-.12 1.852-.818 1.852-.818l.016-.233s1.191-.416 2.788-.68c1.371.516.971.498 1.71-.422.823-.426 2.157-.707 3.187-.614 1.079.098 1.559.176 2.192-.102.984-.435 1.905-.545 2.488.112.42.471 1.025.244 1.675.217 1.301-.052 3.034.488 3.575 1.67.797.82 2.542 1.653 2.542 1.653l1.412-.329.162-.527 11.549-4.455c-23.549-26.06-22.935-60.63-17.388-78.13l2.13 1.034c-1.13 5.187-2.411 10.514-2.244 18.245 21.205 9.556 31.755 34.255 18.9 55.814l1.358 1.775c5.349-2.269 18.802-9.903 23.452-14.051l.99.082s2.82-1.845 4.063-2.83l.168-57.211-.986.261-.177-3.342-17.483-1.403c.222-.168.39-.236.44-.57l-.1-31.673c-.65-1.004-15.293-9.672-20.738-11.7-.218-.001-.068.37.01 1.277.268 3.106-1.808 5.871-4.211 5.876-.866.002-1.015.374-.972 2.158.061 2.536-.846 4.24-3.489 5.204-3.133 1.143-5.254-.514-6.997-7.028-.458-1.71-1.353-1.283-2.21 1.055-.427 1.16-1.805 3.976-2.628 5.46-.635 1.141-1.638 1.648-3.001 2.255-1.063.53-3.364.439-4.69-.242-2.404-1.235-3.337-2.717-4.03-6.39-.091-.48-.403-.438-1.182.155-4.245 3.232-10.215-.11-10.18-5.698.01-1.64-.056-1.706-1.01-.92-2.878 2.377-6.79 1.172-8.356-2.572-.367-.877-.562-1.267-.847-1.258zm-24.399 1.983c.3-.013 1.235 1.243 1.235 1.243.862.964 2.02 1.452 3.226 2.167.112-.17 14.054 18.74 16.425 44.814l6.485.034c-1.21-25.335-8.123-37.512-11.295-45.327l2.326-.744c5.216 10.1 11.573 30.597 11.362 48.543h-10.71c-1.513-17.975-8.429-35.5-18.101-48.795-.674-1.021-1.201-1.733-1.005-1.915a.081.081 0 0 1 .053-.02zm-4.101 2.675l1.086 3.444s.13-.804.464-1.108c2.117-1.927 4.142.61 3.188 4.054a1679.8 1679.8 0 0 0-.642 3.149s-2.126-1.103-3.197-1.456c-2.95-1.267-3.934-3.765-1.68-4.049a20.381 20.381 0 0 1 1.154-.082 320.882 320.882 0 0 1-3.006-2.448zm9.907.387c.891.511 3.191 1.063 4.513.561 1.067-.405 1.88-.183 2.991-.087.637.055 1.905-.227 1.905-.227 6.34 13.482 10.702 29.478 11.429 44.108l-4.987.029c-1.883-15.542-7.835-31.329-15.387-43.04-.334-.51-.779-1.325-.464-1.344zm20.833.232c1.93.024 3.95 1.969 5.049 5.152.611 1.772.85 1.665 1.67 1.378 2.107-.73 4.35 1.608 1.527 1.998-2.771.462-1.19 5.94-1.426 6.423-1.123.199-3.233-4.458-3.178-5.843.135-3.395-3.021-6.235-4.982-4.808-.93.676-.829 1.153-1.115.91-.883-.75-1.062-2.815-.03-3.986.747-.846 1.607-1.234 2.484-1.224zm57.364 1.17s.11 4.466-.057 5.452c-.329 2.977-4.176 3.29-4.326.91-.629.95-1.06 2.133-1.312 3.197l-2.728-1.897c1.036-.751 2.024-1.41 2.79-2.34-2.022.154-3.152-1.615-1.799-3.12 1.503-1.725 5.66-1.911 7.433-2.201zm-100.304 1.413l1.206 1.374c-10.749 19.256-6.959 43.872 18.986 56.805-.171 5.908-.92 11.883-2.316 17.427l-9.572-4.692c.064-21.771-12.133-42.528-31.606-56.17 7.065-5.739 14.882-10.779 23.302-14.744zm78.375.165c.456 2.542 2.838 7.146 3.01 6.883-.025-.152-9.912 12.799-14.21 34.458l-3.67.014c2.406-14.432 7.208-28.05 14.87-41.355zm30.472.604l1.953 1.195c-10.246 8.67-16.993 19.66-21.949 31.513l-2.589-1.239c7.684-17.193 15.275-24.828 22.585-31.469zm2.733 1.92c.536.035 1.172.72 2.158 1.268.965.534.724.818-1.091 2.225-2.147 1.663-2.35 1.59-2.33-.784.011-1.574.405-2.624 1.157-2.704a.617.617 0 0 1 .106-.005zm-2.36 2.448c.113-.006.204.032.263.126.157.628.141 2.067-.11 3.487-.203.935-2.956 3.284-3.938 4.213-.394.261-.574.166-.647-.3.032-.737.102-1.719.115-2.718 0-.308-.06-.63.216-.866 1.35-1.61 3.313-3.9 4.101-3.942zm5.116.764c.017 0 .027.003.038.01.254.154.213 3.381.034 3.594-.798.209-2.947-.133-3.498-.43-.12-.375 2.912-3.195 3.427-3.173zm-95.972 1.045l.747 3.163s.213-.424.268-.508c1.483-2.293 3.288-.948 3.259 2.235-.01 1.006-.914 5.026-.914 5.026s-5.569-2.703-6.007-3.89c-.43-1.166.181-2.193 1.206-2.287.384-.044.786-.076 1.226 0l-2.393-2.472zm63.758.42l2.527.944c-5.27 8.663-10.708 17.22-14.669 36.736h-10.59c1.48-11.926 4.482-23.651 9.839-35.062 0 0 2.08-.646 3.254-1.03 0 0-8.754 20.243-9.773 33.258l5.117.111c2.73-12.682 7.84-25.828 14.295-34.956zm-20.053.315c1.423-.053 2.473.958 2.393 2.752-.018 1.641-.167 1.88-1.316 1.224-1.509-.86-2.702-.88-4.054.097-.744.537-1.474.982-1.474.982s.652-2.85 1.651-3.749c.957-.86 1.946-1.274 2.8-1.306zm-5.432 4.218c-.103.965-.384 1.407-.636 2.23 0 0 .828-.326 1.225-.513 1.882-.887 3.843.756 3.814 2.68.085 1.283-1.295 2.82-2.938 2.834-.574.005-1.18-.178-1.766-.619.425 2.352.51 3.44-1.192 4.62-1.424.957-4.423-.138-4.255-2.767l.105-1.62-1.44.188c-4.024.166-4.094-4.839-.847-5.625 1.296-.31 2.704.764 2.704.764-.617-1.227-.63-3.34.2-4.315 2.044-2.4 5.278-.218 5.026 2.143zm35.134-3.125c.22 1.874.956 3.916.746 5.664-.313 2.235-2.193 3.558-3.67 2.11a14.81 14.81 0 0 1-.513-.552c-.665.852-1.081 3.265-1.081 3.265l-2.608-1.625s1.81-1.285 2.311-2.017c.14-.204.206-.59.206-.59-1.452.458-2.683-1.042-2.288-2.366.786-2.168 4.69-2.972 6.897-3.889zm18.23 1.355c.976-.031 2.487.249 3.68.377.918.162.409.685-1.647 2.709-1.887 1.859-1.828 1.683-3.283 1.659-3.397-.058-3.993.019-2.015-2.138 1.037-1.13 1.942-2.151 2.685-2.53.158-.046.354-.07.58-.077zm-6.127.391a.165.165 0 0 1 .11.049c.225.212.15 1.18.125 2.612-.026 1.523-.01 1.524-.641 2.322-.805 1.018-1.473 2.057-2.312 3.037-.727.797-.704.712-1.14-1.204-.42-1.859-.186-2.438 2.183-5.132.802-1.04 1.373-1.697 1.675-1.683zm10.61 1.06l.03 3.768c-7.01 6.928-11.775 14.72-15.014 23.309l-2.44-.982c4.228-10.973 10.558-19.53 17.425-26.095zm-60.771 2.278a2.106 2.106 0 0 0-2.096 2.119c0 1.17.937 2.123 2.096 2.123s2.101-.952 2.101-2.123a2.11 2.11 0 0 0-2.101-2.119zm-.014.667c.8 0 1.45.658 1.45 1.466a1.46 1.46 0 0 1-1.45 1.466c-.8 0-1.446-.657-1.446-1.466 0-.808.646-1.466 1.446-1.466zm-77.887.895c21.869 14.18 31.674 36.161 31.63 55.045l-1.234-.562c-1.28-26.683-15.63-43.088-31.142-53.704zm129.47.203c.495.002 1.168.08 2.144.194 1.81.098 2.032.213.785 1.659a39.745 39.745 0 0 0-1.46 1.848c-.462.623-1.025 1.274-1.283 1.364-.38.132-3.558-.02-4.465-.145-.297-.042.093-.348 1.642-2.583 1.186-1.714 1.312-2.28 2.436-2.332.064-.003.13-.005.2-.005zm9.107.726s.434 12.162.12 19.918c-4.989-.186-7.919 1.728-9.136 5.35l-5.241-2.622c3.845-9.98 8.988-16.926 14.257-22.646zm-15.44.28c.284.005.446.598.527 1.766.33 2.09.294 2.334-.57 3.676-.429.668-1.019 1.612-1.306 2.1-.5.85-.856 1.103-.98.691-.684-2.256-.899-3.652-.657-4.107.399-.747 2.26-3.42 2.523-3.768.182-.24.335-.36.464-.357zm-124.745.228c17.58 11 30.439 29.785 30.97 52.48 0 0-3.746-1.776-6.059-3.076l-.12-2.205 1.221-.039.392 2.486 2.685-.087-.713-6.206-4.202.402-.847-3.517 1.273-.275.704 2.268 2.732-.73-1.455-5.529-4.22 1.166-1.35-3.734 1.402-.508 1.134 2.234 2.57-.904-2.426-5.543-3.882 1.852-1.971-3.618 1.517-.817 1.22 2.152 2.403-1.257-2.972-5.098-3.686 2.08-1.852-2.806 1.144-.808 1.264 1.476 2.11-1.51-3.235-4.396-3.527 2.79-2.609-3.052 1.202-1.03 1.794 1.625 2.006-1.77-3.844-4.237-3.36 3.096-2.502-2.196 1.225-1.37 1.56 1.205 1.66-1.988-4.182-3.482-3.135 3.134-3.005-2.007v-1.495c.975.38 2.008.824 2.933 1.32l1.556-2.38-4.49-3.061zm48.956.938l.665 3.88c.631-1.055 1.133-1.782 2.498-1.374 1.64.675 1.662 3.17.273 6.99-.257.707-.574 1.32-.574 1.32s-.719-.302-1.197-.634c-1.003-.693-2.692-1.478-3.556-2.854-.904-1.44-.924-3.456.737-3.284.33.002.981.16.981.16l-2.493-3.212zm-49.922 1.156l3.043 1.983-.631 1.161-2.412-1.098zm76.311.914c.882 1.247-2.221 4.918 1.838 6.385 0 0 .1.845-.746 1.36-1.986 1.459-4.839-1.206-3.954-3.948.566-1.753 2.202-3.787 2.862-3.797zm8.424.117s1.224.903 1.469 1.141c2.26 2.19 2.282 5.33.234 6.428-1.362.73-2.901.142-3.436-.919-.247-.49.16-1.004.68-1.001.975.006 1.72-1.882 1.43-3.87-.114-.787-.377-1.78-.377-1.78zm26.667.73s.27 2.684.656 3.874c1.186 3.337-.33 5.37-2.547 4.252-.316-.16-.875-.885-.875-.885l-.22 3.835-3.154-.928c.682-1.109 1.664-1.897 2.397-3.144 0 0-.472-.017-.885-.02-1.884.066-2.579-2.045-.603-3.782 1.472-1.283 5.231-3.202 5.231-3.202zm16.487.89c.382-.003.858.028 1.513.029 2 .002 2.514-.272 1.632.987a36.466 36.466 0 0 0-1.431 2.321c-.504.944-.605 1.241-1.446 1.427-1.216.244-2.595.075-3.986.14-.302-.014.319-1.062.665-1.712.85-1.594 1.367-2.688 2.096-3.023.287-.131.576-.166.957-.17zm-6.183 1.233c.242-.013.42.425.651 1.33.537 2.113.675 2.165-.192 3.899-.437.875-1.181 2.357-1.488 2.97-.786 1.573-.83 1.557-1.326.15-.95-2.7-1.032-2.423.536-5.456.98-1.895 1.466-2.874 1.82-2.893zm-115.35.74l2.828 2.293-.804.788-1.565-1.165-2.312 2.5 3.8 3.502 3.216-3.202 2.757 2.912-.842.72-1.618-1.576-2.422 2.09 3.614 4.314 3.642-2.805 2.283 3.023-.933.59-1.489-1.46-2.369 1.658 2.948 4.199 3.714-2.153 2.11 3.507-1.172.57-1.196-1.924-2.666 1.552 2.517 4.91 4.01-1.693 1.614 3.749-1.225.503-1.03-2.254-2.699 1.078 1.81 5.156 4.067-1.18.986 3.831-1.254.353-.617-2.123-2.59.628 1.082 5.176 4.14-.266.493 4.184-1.287.058-.32-2.496-2.638.034c.014.88.115 2.675.115 2.675l-1.594-.745c-2.368-15.91-10.812-29.169-23.393-38.4l-.067-1.901 3.063 1.963s2.808-2.528 3.292-3.173zm120.84 3.71c.877-.007.49.681-.58 2.738-1.192 2.294-1.404 2.342-3.637 2.892-2.716.67-2.636.82-1.168-2.345.567-1.22.98-2.289 1.498-2.695.681-.532 2-.328 3.432-.546a3.27 3.27 0 0 1 .455-.044zm-127.048.677c13.066 8.52 21.325 26.14 22.35 36.824 0 0-.353-.24-1.067-.57-.99-.46-1.234-.76-1.522-2.216-2.588-13.064-9.885-24.15-19.704-31.977zm117.825 2.182c.553-.116 1.56 3.894 1.259 4.735-.217.605-2.16-.823-2.867-1.127-.354-.152 1.234-3.53 1.608-3.608zm-63.007.184l-.062 4.16s.496-.596.751-.784c.972-.717 2.457.276 2.513 1.504.078 1.703-.177 2.394-1.527 4.76-.417.732-1.048 1.664-1.048 1.664s-1.593-1.149-3.336-2.903c-1.883-1.895-1.523-4.427.125-4.435.493-.004.933.166 1.364.305-.356-1.225-1.68-3.604-1.68-3.604zm51.07 3.115s.854 1.135 1.834 4.12c.936 2.852-.505 4.999-2.46 3.924-.35-.193-.718-.61-.718-.61-.137 1.382.106 3.869.139 3.889l-3.154-.556s1.732-2.78 1.857-3.468c0 0-.196.155-1.063.154-3.169-.002-2.511-3.811 1.15-5.925.549-.317 2.416-1.528 2.416-1.528zm18.168.048c.686-.03.362.64-.397 2.206-.839 1.731-.629 1.581-2.402.667-2.48-1.224-2.334-1.416.808-2.273.994-.371 1.632-.584 1.991-.6zm-44.978.508c2.484.015 4.316 2.492 3.948 6.012-.63 6.044-.268 5.67.383 6.274 1.187 1.099-.42 1.758-1.833.71-.984-.728-1.304-1.448-1.258-4.783.053-3.833-.152-4.809-1.508-4.474-.846.209-1.113.936-1.02 3.521.132 3.628-.105 4.542-1.469 5.703-1.47 1.15-3.056.125-1.713-.634.614-.698.73-1.585.493-3.777-.259-1.868-1.337-8.585 3.977-8.552zm62.351 3.057c4.78.181 16.866 1.175 16.866 1.175l.105 3.609c-.54.335-9.56-1.055-16.195-.93-1.552.03-2.65.723-3.772.141 1.077.452.979 5.895-3.766 4.576-4.024-1.462-2.063-6.96 3.082-8.349a23.18 23.18 0 0 1 3.68-.222zm-27.538 2.409l10.328 5.146c1.446 19.596 8.14 40.3 30.936 55.993-3.693 2.67-12.957 9.23-23.546 13.722l-.867-.938c12.573-21.609 3.074-45.393-18.942-56.157.059-5.998.804-11.915 2.091-17.766zm36.33 3.284c1.98-.078 2.496.152 2.666 1.06.16.856.79 1.058 1.536.783 1.818-.67 2.927 2.588 1.422 4.034-.935.897-.772 1.243 0 1.248 1.898.012 1.842 2.523-.086 3.947-.8.59-.79.859.048 1.277 1.402.7 1.12 2.083-.66 3.221-.97.62-1.002.772-.202.992 2.015.554-.04 3.455-2.244 2.94-.904-.21-1.765-.013-2.628.557-2.36.993-2.755 1.19-5.303.87-2.237-.414-3.237-1.159-3.814-3.144-1.312-4.036-2.727-8.507-2.743-12.914-.197-2.706 4.29-5.152 6.415-5.258 1.731-.263 3.717.37 5.598.387zm-141.267.068c2.374 0 4.298 1.944 4.298 4.343 0 2.4-1.924 4.344-4.298 4.344-2.373 0-4.297-1.945-4.297-4.344s1.924-4.343 4.297-4.343zm47.764 1.277l-.388 3.797s.632-.499.78-.624c1.119-.945 2.886.111 2.485 1.581-.131 1.296-2.344 5.147-3.226 5.955 0 0-3.55-3.909-3.93-4.673-.843-1.699.31-3.47 1.843-2.718.219.107.852.58.852.58l-1.125-3.603zm-47.476.304c-1.52.052-2.961.995-2.767 2.25.13.536.94-.238 1.738-.745a2.136 2.136 0 0 1 2.043-.145c.618.222.882.797 1.24 1.243.303.375.635.682.823.498.16-.2.095-.449.053-.673-.328-1.71-1.727-2.47-3.13-2.428zm115.738.59l1.536.794c2.068 27.693 15.924 43.973 30.482 53.67l-1.158.707c-17.866-11.568-30.27-32.293-30.86-55.17zm2.326 1.137s3.857 1.995 5.877 2.917l.077 2.505-1.35.049-.459-2.356-2.805.203.876 5.795 4.523-.561.632 3.502-1.532.324-.785-2.153-2.594.639 1.68 5.63 4.078-1.33 1.278 3.68-1.369.504-.876-2.157-2.685.948 2.077 5.494 4.245-1.378 1.714 3.439-1.288.576-1.23-2.134-2.546 1.316 2.987 5.132 3.833-2.031 1.79 2.742-1.407.953-1.278-1.678-2.063 1.373 3.303 4.557 3.302-2.501 2.47 2.878-1.092.977-1.684-1.727-1.996 1.8 3.934 4.362 3.417-2.998 2.427 2.283-.718.764-1.632-1.03-2.163 2.321 4.13 3.633 3.278-3.633 2.78 2.07v1.529l-2.483-1.272-1.666 2.534 4.15 3.173-.03 1.248c-23.687-14.282-29.92-36.434-31.127-52.91zm-48.496.276c1.024-.031 2.105.942 3.891 3.033 4.992 5.844 3.659 14.884-2.867 19.599-.95.687-1.333.626-2.493-.382-6.694-5.813-7.08-13.585-1.12-20.412 1.03-1.18 1.793-1.814 2.59-1.838zm23.925.803c1.231 1.907 2.785 3.869 2.962 6.186-.088 2.29-1.615 2.712-3.197 1.379-.2 1.202.48 3.545.48 3.545l-2.863-.31s1.123-1.981 1.168-3.22c-1.987 1.398-3.505-.426-3.235-1.897.568-2.502 2.602-4.19 4.685-5.683zm-23.839 1.494c-.234.02-.478.181-.852.484-1.743 1.413-3.113 3.171-3.824 4.997-1.5 3.852-.52 8.195 2.862 11.565 1.72 1.711 2.324 1.594 4.959-1.945 2.207-2.964 2.665-6.793 1.306-10.119-.663-1.622-1.865-3.205-3.307-4.353-.554-.44-.842-.653-1.144-.629zm55.058.711l2.22 1.103c2.833 18.885 12.017 30.407 22.308 38.352l-.02 1.751-2.76-2.162-3.308 3.497-2.68-2.22 1.005-.987 1.527.982 1.952-2.21-3.843-3.463-3.35 2.936-2.79-2.903.847-.715 1.929 1.702 2.158-1.935-3.733-4.232-3.34 2.559-2.331-3.125 1.014-.61 1.22 1.694 2.576-1.62-2.724-4.233-3.88 2.012-1.987-3.618 1.13-.547 1.287 2.032 2.417-1.175-2.432-4.992-3.967 1.325-1.46-3.927 1.134-.421 1 2.322 2.686-.871-1.824-5.374-4.101 1.17-1.015-3.951 1.268-.276.665 2.133 2.82-.57-1.034-5.118-4.198.537c-.139-.87-.758-3.212-.746-4.097l1.292-.106.407 2.254 2.824-.097zm-54.91.412c1.54.213 3.419 3.207 3.844 4.295.81 2.15.879 4.642.138 6.573-.605 1.58-2.416 4.381-3.565 5.17-.928.509-1.705.132-3.03-1.687-2.617-3.596-3.124-7.92-1.057-10.883 1.578-2.263 2.749-3.47 3.67-3.468zm57.887.933l1.115.532c1.37 10.944 7.786 25.962 20.416 34.947v1.374c-9.822-7.125-18.84-19.414-21.531-36.853zm-58.083.745c-4.398 3.35-3.694 8.597-.363 12.13 3.59-2.4 4.86-8.884.363-12.13zm-67.122.222c2.48-.058 4.054.816 4.81 2.554 1.173 2.7 1.333 3.213 1.574 4.63.138.809.35 2.03.469 2.713 1.288 7.337.34 10.101-4.068 11.246-1.315.341-3.15.452-4.432.14-.336-.082-1.568-.09-2.536-.12-1.922-.064-2.51-.27-3.475-1.06-.348-.285-.683-.514-1.1-.58-2.2-.353-2.857-2.389-1.188-3.894.951-.858 1.046-.971.958-1.118-.05-.082-.456-.152-.905-.155-2.217-.014-2.194-2.319.038-3.966 1.061-.783 1.54-1.52.837-1.34-2.021.482-2.735-2.504-.621-3.43 1.125-.636 1.932-1.168.846-1.228-.91.08-1.653-.6-1.374-1.401.338-.971 2.188-1.855 3.255-1.525.834.258 1.647.495 2.168.116 1.265-.919 1.831-1.333 2.92-1.48a13.571 13.571 0 0 1 1.823-.102zm73.737.562l10.194.198-.302 10.104-9.6-.184s2.104-4.514-.292-10.118zm-22.844.232l9.764.12c-1.609 3.809-1.009 7.722-.417 9.926l-9.557-.15zm16.306.014c2.623 1.545 3.345 7.17-.3 10.062-3.467-3.602-2.773-7.988.3-10.062zm-24.088 4.392l2.618.247-.933 3.787s.422-.45.56-.493c3.363-1.596 3.604 2.02.182 5.287-.757.72-1.972 1.707-1.972 1.707s-.952-1.456-1.709-2.772c-.86-1.323-1.444-2.74-1.297-3.492.214-1.091 1.513-1.813 2.34-1.146.409.328.881.827.881.827zm46.74 2.777s1.098 1.138 1.766 1.876c2.311 2.556 2.708 4.947 1.536 5.674-1.006.466-1.63.146-2.44-.518.167 1.585 1.412 3.923 1.382 3.928l-3.45.561s.852-3.174.78-4.372c0 0-.709.55-1.024.686-2.253.832-3.37-1.755-1.518-4.333 1.554-2.164 2.968-3.502 2.968-3.502zm47.136 4.788c2.316 0 4.193 1.897 4.193 4.237s-1.877 4.237-4.193 4.237c-2.315 0-4.192-1.897-4.192-4.237s1.877-4.237 4.192-4.237zm2.068 1.94c-.18.04-.329.461-.35 1.388-.208 1.9-1.773 2.666-3.484 1.785-.691-.356-1.28-.884-1.282-.48 0 .218.554 1.35.947 1.737 1.45 1.318 4.982 1.006 4.901-2.065-.038-1.445-.43-2.434-.732-2.365zm-76.12 1.591a1.871 1.871 0 0 1 1.402.547c1.146.79 1.363 1.802 1.436 5.615.064 3.365 0 3.447.545 3.855 1.345 1 2.156-.524 1.771-3.932-.37-3.282.8-5.667 2.762-5.654.965.006 1.144.579.411 1.31-.774.772-.96 1.716-.718 3.614.622 4.863.084 7.25-1.938 8.237-2.11 1.03-4.823-.153-5.298-2.844-.305-1.796-.302-3.924-.091-5.93.038-2.11-.01-2.35-.737-3.56-.515-.812-.13-1.218.455-1.258zm-53.048 1.577c1.166-.003 2.378.68 3.102 2.191 1.746 3.645-2.038 6.643-5.509 6.878-6.026.09-13.187-.787-19.235-1.6l.096-3.445c5.55.324 11.808.78 18.55 1.098-.767-3.202 1.053-5.118 2.997-5.122zm31.693.706l3.355.75-2.135 3.526c.633-.277 1.071-.47 1.704-.237 1.367.498 1.385 2.248.383 3.884-.792 1.188-3.022 2.606-4.542 3.478-.854-1.854-2.742-5.1-1.99-6.873.398-.942 1.502-1.4 2.53-.886.341.206.992.542.992.542zm7.93.097l10.223.12c-1.486 10.447-4.393 24.395-10.122 35.765l-2.408.629c5.053-11.298 8.413-21.893 9.984-33.738h-5.112c-2.94 12.713-7.29 24.494-13.98 34.73l-2.971-.978c7.147-11.452 12.81-24.233 14.386-36.528zm23.317.184h11.396c2.096 21.269 9.206 35.785 19.79 50.144 0 0-.669.151-1.063-.02-1.097-1.383-2.103-2.23-3.748-2.655-8.894-12.942-14.862-31.036-16.3-44.877h-6.777c.771 17.385 5.537 31.639 11.878 45.443l-3.44.639c-5.093-12.355-10.677-23.106-11.736-48.674zm17.732 2.626c.938.733 1.951 1.454 2.905 2.153 2.566 1.819 2.532 5.259.038 5.243-.265-.002-.88-.039-.88-.039s1.018 2.255 1.66 3.396c-1.04.28-3.211.691-3.211.691s.31-2.214.249-4.048c0 0-.417.47-.761.633-1.655.7-3.054-.76-2.848-2.486.28-2.328 2.848-5.543 2.848-5.543zm-76.13.416l5.61 2.815c-3.823 8.794-8.2 17.027-14.53 23.285l.162-20.32c3.456-.101 7-.133 8.758-5.78zm38.355.32h3.45c-1.53 16.222-12.137 38.167-14.128 40.813l-.655.499c.04-.022-1.359-4.975-2.948-6.758 5.983-8.156 12.252-23.83 14.28-34.555zm24.264 0h5.212c1.624 12.926 5.578 26.89 15.598 43.85 0 0-1.005.103-1.78-.367-1.708-1.07-2.895.347-3.915.292-1.595-.087-1.858-.183-3.504.211-8.268-17.625-10.614-31.499-11.61-43.987zm-56.297 2.901l1.862.886c-4.003 9.357-7.588 16.793-17.071 25.92l-.034-2.718c6.662-6.52 11.15-15.114 15.243-24.088zm2.71 1.306c.88.336 1.88.887 2.713 1.34.278.113.203.365.206.63-.352.888-1.906 1.278-2.494 1.45-.71.204-1.41.347-1.536.377-.811.193-.555-.629.325-2.428.397-.81.553-1.35.785-1.369zm3.718 1.984c.557-.035 2.807 1.222 3.288 1.673.17.533-.314 1.373-1.024 2.927-1.093 2.388-1.31 2.44-1.637.478-.057-.338-.382-1.454-.58-2.196-.456-1.72-.499-2.708-.047-2.882zm4.073 1.93s1.307.642 1.732.923c-5.84 17.675-21.39 32.285-21.307 31.948l-2.426-1.441c10.349-9.45 17.934-20.61 22-31.43zm-6.174.251c.565.012.073.714-.69 2.414-.722 1.664-.96 2.255-1.636 2.52-.97.355-2.363.366-3.6.585-.528.092-.306-.316.508-1.988.956-1.962 1.01-2.37 2.508-2.776.866-.137 2.032-.762 2.91-.755zm2.048 3.512c.602 2.189.59 2.62.187 3.38a85.544 85.544 0 0 1-2.015 3.541c-.68 1.127-.874.893-1.278-1.847-.25-1.7-.47-2.464-.284-3.204.34-.837 1.352-2.81 1.924-3.965.82-2.463 1.259 1.877 1.466 2.095zm10.75-1.91l3.063 1.015-2.403 2.931s1.008-.183 1.125-.135c2.41.161 2.01 2.583.143 4.048-.773.716-4.585 2.467-4.585 2.467-.408-2.167-1.25-3.551-1.048-5.775.142-1.198.247-2.279 1.7-2.312.763-.042 1.073.748 1.569 1.383zm55.526 2.626s1.845.962 3.556 2.292c2.231 1.736 2.613 3.775.383 4.561-.258.092-.99.054-.99.054.613 1.08 2.071 2.689 2.071 2.689-.73.517-1.761.921-2.905 1.282 0 0-.283-2.69-.555-3.73 0 0-.295.588-.66.818-2.149 1.351-3.835-1.195-2.68-4.416.7-1.956 1.78-3.55 1.78-3.55zm-23.619.45c5.365-.133 2.223 8.747-.46 8.174-.045-.08 2.215-5.253-.827-6.075-1.396-.378-.193-2.118 1.287-2.1zm-8.796.628c1.667-.01 2.88 1.178 1.287 1.925-2.506 1.177-1.014 3.995-.957 5.592.035.976-2.232-.852-2.714-2.835-.622-2.564-.334-4.462 2.384-4.682zm-39.68.934c.37-.002.648.028.741.101.157.419-.592 1.728-1.684 3.405-.582.893-.831 1.144-1.187 1.355-.845.48-2.031.355-3.02.425-1.474.02-1.215-.01.416-2.578.73-1.147 1.19-2.085 1.623-2.384.087-.057 2.002-.32 3.11-.324zm1.933 1.852c0 3.212 1.08 4.264.287 5.277-.969 1.578-2.206 3.305-2.656 3.85-.757.92-.673.746-.871-1.659-.144-1.743-.3-2.909-.077-3.453.648-1.574 1.419-2.327 2.22-4 .63-1.349 1.097-1.124 1.097-.015zm42.346 1.61c1.559.022 2.52 1.696 2.45 3.232l-.066 1.47c2.013-.78 4.512-.021 4.623 1.974.188 3.383-2.279 2.991-4.365 2.849.21.08.518 3.059-.723 4.198-1.947 2.203-5.578-.048-4.666-3.28.19-.67.23-1.092.23-1.092s-1.303.474-1.761.454c-3.95-.17-3.648-5.815.32-5.15.81.135 1.36.333 1.36.333s-.087-.357-.22-.861c-.578-2.173.634-4.156 2.818-4.126zm79.02 1.007l2.13 1.238v2.4l-3.029-2.264zm-127.664 1.606c.84-.008 1.499.058 1.369.261 0 .428-1.838 3.01-2.925 4.189-.925 1.005-1.057.862-3.321.75-.888-.045-1.47-.051-1.445-.29 1.043-1.383 2.48-3.163 3.474-4.649.39-.12 1.769-.25 2.848-.261zm2.072 1.127c.157-.002.205.34.201 1.088 0 .564.077 2.31.158 3.067.148 1.377.148 1.375-.435 2.196-.712.772-1.438 1.91-2.355 2.796-1.378 1.542-1.236 1.63-1.216-1.67.016-2.577-.176-2.577.34-3.182a32.908 32.908 0 0 0 1.737-2.264c.877-1.287 1.341-2.027 1.57-2.031zm13.133.455l2.833 1.528-2.838 2.907s.71-.003.948.044c1.823.357 1.686 2.31-.149 3.767-1.126.72-4.996 2.143-4.996 2.143-.133-1.642-.477-3.152-.412-4.914.027-.813.101-1.697.718-2.4.427-.476 1.14-.754 2.14-.1.524.471.799 1.005.799 1.005zm33.434.991c-1.11 0-2.01.91-2.01 2.032 0 1.122.9 2.031 2.01 2.031 1.11 0 2.01-.91 2.01-2.031a2.02 2.02 0 0 0-2.01-2.032zm31.674.479s3.709 1.408 5.38 2.955c1.56 1.315.825 3.482-.724 3.526-.112 0-.77-.096-.77-.096.525.806 2.283 2.786 2.283 2.786l-2.867 1.175s-.459-2.23-.814-3.482c-.999 2.331-3.464.814-3.627-.639-.398-2.13.498-4.21 1.139-6.225zm-31.674.179c.772 0 1.398.632 1.398 1.412 0 .78-.626 1.413-1.398 1.413a1.405 1.405 0 0 1-1.397-1.413c0-.78.626-1.412 1.397-1.412zm-54.732 2.888c1-.01 2.246.037 2.805.072.425.33-.464 1.355-2.182 3.178-1.378 1.462-1.581 1.259-3.25 1.272-2.8.023-2.87.042-1.584-1.436 1.408-1.62 2.23-2.662 2.88-3 .22-.057.732-.08 1.331-.086zm3.413 1.422c.296-.06.215.704.167 2.433l-.08 2.93-2.178 2.12c-2.521 2.279-2.22 2.422-2.202.29.014-1.695 0-2.886.359-3.638 1.1-1.34 2.247-2.527 3.499-3.806.197-.197.336-.31.435-.33zm55.359.73c.606-.051 2.153 2.624 2.541 4.866.885 5.12 3.919 7.546 6.054 5.49.869-1.208.966.11.924.74-.448 6.485-7.72 3.786-8.548-2.656-2.552 1.674-4.933-1.707-3.412-1.654 3.597-1.155 2.614-4.494 2.44-6.786zm-8.424.048c.357 2.244-3.645 6.086-5.896 3.391-1.145-1.37-.101-4.198 1.355-2.457 1.61 1.204 3.17-.193 4.541-.934zm-54.98 3.077c.822-.018 2.012.14 2.531.067.735.075.21.433-1.378 1.896-1.368 1.261-1.758 1.822-1.914 1.273-.076-.852-.043-1.866-.038-3.067.125-.118.425-.161.799-.17zm18.655 1.49l2.44 1.799-2.42 2.254c2.17-.109 2.364 1.949 1.54 3.095-.533.805-2.592 1.651-4.652 1.988-1.239.204-2.249.354-2.249.354s-.047-.966-.081-2.569c-.071-3.28.15-4.57 1.398-5.21.893-.457 2.404.261 2.775 1.099.123.276.446.76.446.76zm-15.707.178c.01-.002.016 0 .019.005.137.188-.36 5.524-.36 5.524l-3.536-2.012s3.58-3.453 3.876-3.516zm93.603.63c2.52 1.199 4.407.965 6.102 2.452 1.476.78 1.038 2.93-.038 3.41-.487.15-1.292.067-1.292.067.89 1.112 2.843 2.516 2.843 2.516l-3.101 1.31s-.424-2.113-.819-3.265c-.564 1.714-2.476 1.672-3.565.866-.772-.597-1.09-2.599-.723-4.334.097-.458.593-3.023.593-3.023zm-16.564 49.67c-30.581 7.324-55.422 2.795-57.886 1.93l-1.948 2.936c-.237.499-.383 1.99-1.704 2.394l-1.981 2.99.388.415-1.757 1.548.426.518-1.278 1.876-.502-.053-2.958 4.542.45.508-6.791 10.743 91.875.029c-5.34-10.181-11.053-20.164-16.334-30.376zm-.555 1.32l.545 1.534c-1.519-.19-3.293-.282-5.097-.363a48.27 48.27 0 0 0 4.552-1.17zm-5.337 1.335c-2.922 1.355-4.673 2.984-6.015 4.702-1.672-1.313-3.799-2.242-6.337-2.825zm-51.63.745l1.302.15s-.437.342-.747.27c-.238-.054-.555-.42-.555-.42zm58.527.764l.828 1.655c-1.99-1.067-10.502-3.507-12.917 5.045-2.542-3.473-13.02-8.506-18.335 2.195-1.512-2.899-10.31-11.24-18.335-.609-3.162-6.608-5.805-7.161-11.61-6.259 4.125-4.007 9.93.164 12.39 3.575 6.924-5.804 12.713-4.06 17.77.662 6.526-7.181 13.034-5.451 17.612-1.848 3.217-4.782 6.358-6.224 12.597-4.416zm-53.454.044c4.114.561 8.228.816 12.343 1.02-2.381.884-4.823 1.644-6.763 3.42-1.469-2.073-3.51-3.277-5.58-4.44zm29.682.663c-2.245 1.068-4.665 2.675-6.604 4.362-2.094-1.723-4.248-3.212-6.595-3.961 4.306.214 9.076.022 13.2-.401zm26.342 3.395s-.83.141-1.096.213c-3.633.976-2.842 6.148.895 6.148.355 0 1.24-.14 1.24-.14-.071 3.502.982 4.356 4.522 4.159l6.002 10.844-88.78-.387 5.639-9.112c2.835.336 4.618-1.258 3.986-3.69 0 0 1.746.538 2.235.54 3.21.021 4.04-4.956.962-5.818-.342-.096-1.201-.192-1.306-.222 1.407-3.553 5.272-1.456 6.38.019 2.491-2.07 5.246-1.144 6.427 1.538 0 0-.465-.262-.608-.368-2.919-2.157-5.634 2.312-2.776 4.373.281.203.876.377.876.377s-.347.287-.665.827c-1.484 2.522.905 5.594 3.79 4.804 2.215-.877 2.247-2.56 2.245-4.412 0 0 .765.06 1.45.068 2.658.032 3.42-3.408 1.793-5.008-.879-.864-2.028-.796-2.597-.908 3.064-3.04 5.141-.942 7.303.46.327-.008 3.753-4.166 7.825-.082-1.976-.524-4 .772-4.027 2.851.039 1.339.985 2.521 3.033 2.616-.22.672-.367 1.174-.38 1.827-.04 2.183 1.64 3.542 3.772 3.207 1.782-.23 3.1-2.29 2.465-4-.286-.773-.68-1.055-.68-1.055 4.799.607 4.715-5.536.984-5.909-.884-.088-1.566.3-2.458 1.125 2.195-4.534 6.207-3.624 7.71-1.77 2.062-1.514 4.904-3.58 8.304.102-.56-.12-1.35-.148-2.034.036-2.692.722-2.704 4.18-.57 5.233a4.46 4.46 0 0 0 2.13.438c-.71 2.907 2.484 4.983 4.744 3.591 1.62-.997 2.043-3.352.29-5.501 2.95-.134 3.241-3.849 1.537-5.152-1.336-1.021-2.908-.536-4.049.813-.366-1.067 2.55-4.775 6.667-2.104 2.181-1.848 4.345-2.417 6.82-.571zm1.287 2.902l1.154 2.119c-.768.077-1.867-.755-1.154-2.119zm-14.884 2.153c.722 0 1.307.59 1.307 1.32 0 .73-.585 1.32-1.307 1.32a1.314 1.314 0 0 1-1.306-1.32c0-.73.585-1.32 1.306-1.32zm-53.885.077c.174.709.25 1.416-1.024 1.553zm15.009 1.277c.66 0 1.197.541 1.197 1.21 0 .667-.536 1.208-1.197 1.208-.66 0-1.196-.541-1.196-1.209s.535-1.21 1.196-1.21zm19.914.377c.7 0 1.269.574 1.269 1.282 0 .708-.568 1.282-1.269 1.282-.7 0-1.268-.574-1.268-1.282 0-.708.568-1.282 1.268-1.282zM3693.815-350.164c-9.185 13.115-19.012 20.662-19.176 30.894-.055 3.314 1.735 8.945 7.339 10.023 3.635.696 8.641-2.25 8.746-8.236-.017-1.192 1.26-1.16 1.248.472-.171 4.722-1.664 10.219-4.173 14.694h12.032c-2.509-4.475-4.001-9.972-4.173-14.694-.011-1.633 1.265-1.664 1.249-.472.104 5.986 5.11 8.932 8.746 8.236 5.604-1.078 7.393-6.71 7.338-10.023-.163-10.232-9.991-17.779-19.176-30.894zM3796.886-104.53c-9.185-13.116-19.012-20.663-19.176-30.895-.055-3.313 1.734-8.945 7.338-10.022 3.636-.697 8.642 2.25 8.746 8.236-.016 1.191 1.26 1.16 1.249-.473-.172-4.721-1.664-10.218-4.173-14.693h12.032c-2.509 4.475-4.002 9.972-4.173 14.693-.012 1.633 1.265 1.664 1.249.473.104-5.986 5.11-8.933 8.746-8.236 5.603 1.077 7.392 6.709 7.338 10.022-.164 10.232-9.991 17.78-19.176 30.894z"/></g></svg>