<svg xmlns="http://www.w3.org/2000/svg" width="238.11" height="332.599" viewBox="0 0 223.22771 311.81164"><g transform="matrix(.99553 0 0 .9968 -986.56 30.846)"><rect ry="10.664" rx="10.678" width="223.228" height="311.811" x="991.486" y="-30.445" fill="#fff" stroke="#000" stroke-width="1.001"/><path d="M1103.1 50.25c-5.186-8.565-10.643-16.89-17.461-24 6.818-7.11 12.275-15.435 17.46-24 5.187 8.565 10.643 16.89 17.462 24-6.819 7.11-12.275 15.435-17.461 24zM1008.703 39.528c-2.161-3.568-4.434-7.037-7.275-10 2.84-2.962 5.114-6.43 7.275-10 2.16 3.57 4.434 7.038 7.275 10-2.84 2.963-5.114 6.432-7.275 10zM1197.497 231.393c-2.16-3.569-4.434-7.037-7.275-10 2.841-2.963 5.114-6.431 7.275-10 2.161 3.569 4.435 7.037 7.276 10-2.841 2.963-5.115 6.431-7.276 10zM1103.1 149.46c-5.186-8.564-10.643-16.888-17.461-24 6.818-7.11 12.275-15.434 17.46-24 5.187 8.566 10.643 16.89 17.462 24-6.819 7.112-12.275 15.436-17.461 24zM1103.1 248.671c-5.186-8.565-10.643-16.889-17.461-24 6.818-7.11 12.275-15.435 17.46-24 5.187 8.565 10.643 16.89 17.462 24-6.819 7.111-12.275 15.435-17.461 24zM997.991 9.16l2.54-1.87c2.206 3.591 4.672 5.956 8.444 5.55 5.66-.389 8.005-6.322 6.82-10.792-1.145-4.01-5.831-5.964-9.557-3.826-.88.507-1.728.92-1.894.92-.39 0-1.276-1.76-1.155-2.296 2.501-3.652 8.573-10.05 8.573-10.05h-9.487v4.284h-3.64v-7.687h18.541V-14s-4.968 5.153-6.61 7.974c4.044.148 7.303 2.71 8.473 6.762.683 2.133.377 7.012-.517 9.115-1.492 3.505-5.57 6.35-9.296 6.513-6.258.42-9.577-3.964-11.235-7.206zm0 0M1208.206 241.762l-2.54 1.869c-2.206-3.59-4.672-5.955-8.444-5.55-5.66.39-8.004 6.322-6.82 10.793 1.145 4.01 5.832 5.964 9.557 3.826.88-.507 1.728-.92 1.894-.92.391 0 1.276 1.759 1.155 2.296-2.5 3.652-8.573 10.05-8.573 10.05h9.487v-4.285h3.641v7.688h-18.542v-2.609s4.968-5.152 6.61-7.974c-4.044-.148-7.303-2.71-8.473-6.762-.683-2.133-.377-7.012.517-9.114 1.492-3.506 5.57-6.35 9.297-6.513 6.257-.42 9.577 3.963 11.234 7.205zm0 0" fill="#d40000"/></g></svg>