<svg xmlns="http://www.w3.org/2000/svg" width="238.11" height="332.599" viewBox="0 0 223.22771 311.81164"><rect y="370.276" x="260.433" height="311.811" width="223.228" rx="10.678" ry="10.664" fill="#fff" stroke="#000" stroke-width="1.001" transform="matrix(.99553 0 0 .9968 -258.772 -368.593)"/><path d="M17.639 70.248c-2.152-3.557-4.415-7.014-7.243-9.968 2.828-2.953 5.091-6.41 7.243-9.968 2.15 3.558 4.414 7.015 7.242 9.968-2.828 2.954-5.091 6.411-7.242 9.968zM163.15 80.936c-5.164-8.538-10.596-16.835-17.384-23.924 6.788-7.088 12.22-15.385 17.383-23.923 5.163 8.538 10.595 16.835 17.383 23.923-6.788 7.089-12.22 15.386-17.383 23.924zM205.59 261.5c-2.151-3.558-4.415-7.015-7.243-9.968 2.828-2.954 5.092-6.411 7.243-9.968 2.151 3.557 4.415 7.014 7.243 9.968-2.828 2.953-5.092 6.41-7.243 9.968zM60.079 80.936C54.916 72.398 49.484 64.1 42.696 57.012c6.788-7.088 12.22-15.385 17.383-23.923 5.163 8.538 10.595 16.835 17.383 23.923-6.788 7.089-12.22 15.386-17.383 23.924zM163.15 146.872c-5.164-8.538-10.596-16.835-17.384-23.924 6.788-7.088 12.22-15.385 17.383-23.923 5.163 8.538 10.595 16.835 17.383 23.923-6.788 7.089-12.22 15.386-17.383 23.924zM60.079 146.872c-5.163-8.538-10.595-16.835-17.383-23.924 6.788-7.088 12.22-15.385 17.383-23.923 5.163 8.538 10.595 16.835 17.383 23.923-6.788 7.089-12.22 15.386-17.383 23.924zM111.614 113.9c-5.163-8.537-10.595-16.835-17.383-23.923 6.788-7.088 12.22-15.386 17.383-23.923 5.163 8.537 10.595 16.835 17.383 23.923-6.788 7.088-12.22 15.386-17.383 23.923zM60.079 278.728c-5.163-8.538-10.595-16.835-17.383-23.924 6.788-7.088 12.22-15.385 17.383-23.923 5.163 8.538 10.595 16.835 17.383 23.923-6.788 7.089-12.22 15.386-17.383 23.924zM163.15 278.735c-5.164-8.538-10.596-16.835-17.384-23.924 6.788-7.088 12.22-15.385 17.383-23.923 5.163 8.538 10.595 16.835 17.383 23.923-6.788 7.089-12.22 15.386-17.383 23.924zM163.15 212.792c-5.164-8.537-10.596-16.835-17.384-23.923 6.788-7.088 12.22-15.386 17.383-23.923 5.163 8.537 10.595 16.835 17.383 23.923-6.788 7.088-12.22 15.386-17.383 23.923zM60.079 212.76c-5.163-8.537-10.595-16.835-17.383-23.923 6.788-7.088 12.22-15.386 17.383-23.923 5.163 8.537 10.595 16.835 17.383 23.923-6.788 7.088-12.22 15.386-17.383 23.923zM111.614 245.758c-5.163-8.537-10.595-16.835-17.383-23.923 6.788-7.088 12.22-15.386 17.383-23.923 5.163 8.537 10.595 16.835 17.383 23.923-6.788 7.088-12.22 15.386-17.383 23.923z" fill="#d40000"/><g fill="#d40000"><path d="M7.663 47.187V14.293h3.184v32.894H7.663zm0 0M20.287 14.292c-3.066 0-5.53 2.804-5.53 6.286v20.323c0 3.483 2.466 6.285 5.53 6.285h1.79c3.065 0 5.534-2.802 5.534-6.285V20.578c0-3.482-2.47-6.286-5.535-6.286h-1.789zm.925 3.11c1.81 0 3.266 1.39 3.266 3.13v20.591c0 1.739-1.456 3.142-3.266 3.142s-3.27-1.403-3.27-3.142V20.531c0-1.737 1.46-3.128 3.27-3.128zm0 0"/></g><g fill="#d40000"><path d="M215.562 264.625v32.894h-3.184v-32.894h3.184zm0 0M202.938 297.52c3.066 0 5.53-2.804 5.53-6.286V270.91c0-3.482-2.465-6.284-5.53-6.284h-1.789c-3.065 0-5.535 2.802-5.535 6.284v20.324c0 3.482 2.47 6.286 5.535 6.286h1.79zm-.925-3.11c-1.81 0-3.265-1.39-3.265-3.13v-20.592c0-1.738 1.455-3.141 3.265-3.141s3.27 1.403 3.27 3.141v20.593c0 1.737-1.46 3.128-3.27 3.128zm0 0"/></g></svg>