<svg xmlns="http://www.w3.org/2000/svg" width="238.11" height="332.598" viewBox="0 0 223.22834 311.81097"><g transform="matrix(1 0 0 1 -3369.501 736.062)"><rect y="-735.562" x="3370.009" height="310.814" width="222.232" rx="10.63" ry="10.63" fill="#fff" stroke="#000" stroke-width=".997"/><path d="M3387.15-665.812s-2.215-3.18-5.203-6.918c-1.998-2.502-3.596-5.21-3.745-7.544-.17-2.665 1.443-5.34 4.363-5.469 2.918-.13 4.103 2.055 4.585 3.856.482-1.8 1.667-3.985 4.585-3.856 2.92.13 4.533 2.804 4.362 5.469-.148 2.333-1.746 5.042-3.745 7.544-2.987 3.738-5.202 6.918-5.202 6.918zM3575.102-494.498s-2.215 3.18-5.202 6.918c-2 2.502-3.597 5.21-3.746 7.544-.17 2.665 1.443 5.34 4.363 5.469 2.918.13 4.103-2.055 4.585-3.856.482 1.8 1.667 3.986 4.585 3.856 2.92-.13 4.533-2.804 4.362-5.469-.148-2.333-1.746-5.042-3.745-7.544a146.793 146.793 0 0 1-5.202-6.918zM3379.912-699.759h-2.745v-3.747h2.745s.021-2.02.1-5.582c.17-7.593.36-8.771 2.555-10.861 4.335-4.13 11.595-.765 11.51 5.445-.126 8.766-.036 17.122-.291 18.306-.455 2.085-.5 2.202-.315 2.583.38.765 3.66 1.097 3.66.883v3.691c-2.506.195-3.546-.04-5.55-1.474-1.251 1.21-5.06 2.423-8.09.995-2.304-1.086-4.05-3.891-3.579-10.239zm9.28 6.542c-1.36-1.968-3.65-4.654-5.805-5.609-.134 2.264.061 4.162.855 5.183 1.265 1.625 3.309 1.997 4.95.426zm1.129-21.65c-1.01-2.863-3.604-3.834-5.5-2.042-1.185 1.115-1.375 2.288-1.4 8.662-.015 3.931-.015 5.584-.015 5.584 3.69 1.198 7.14 5.506 7.11 5.45l.09-11.89a33.383 33.383 0 0 0-.284-5.763zm0 0M3582.336-460.551h2.746v3.747h-2.745s-.022 2.02-.1 5.582c-.17 7.593-.36 8.772-2.555 10.861-4.335 4.13-11.595.765-11.51-5.445.126-8.766.036-17.122.291-18.306.455-2.085.5-2.202.315-2.583-.38-.765-3.66-1.097-3.66-.883v-3.691c2.506-.194 3.546.04 5.55 1.474 1.25-1.209 5.06-2.423 8.09-.995 2.304 1.086 4.05 3.891 3.578 10.239zm-9.279-6.542c1.36 1.968 3.65 4.654 5.804 5.609.135-2.264-.06-4.162-.854-5.182-1.265-1.626-3.31-1.998-4.95-.427zm-1.129 21.65c1.01 2.863 3.604 3.834 5.5 2.042 1.185-1.115 1.375-2.288 1.4-8.662.015-3.931.015-5.584.015-5.584-3.69-1.198-7.14-5.506-7.11-5.45l-.09 11.89c-.072 1.93.024 3.862.284 5.763zm0 0" fill="#d40000"/><path d="M3562.76-711.733h-163.268v263.156h163.268zm-20.119 2.123h17.553v101.451s-1.448-.031-1.348-.74c.133-.95-.012-2.727-.673-3.475-.279-.315-.734-.81-.913-1.17-.451-.906-1.194-1.843-1.788-2.096-.295-.126-.637-.196-.682-.402-.041-.191-.138-.822-.265-1.403-.315-1.454-.596-1.408.322-2.855 3.184-5.013 4.41-9.625 4.007-14.197-.125-1.428-.481-3.278-.65-3.532-3.076 3.104-5.303 6.941-7.397 9.776-.466-4.05-.4-7.107-.467-10.354 1.643-.471 2.637-1.352 3.345-3.605 0 0 1.76 1.389 2.84 1.19l-.71-2.616c4.71-1.456 5.355-7.646-.21-8.955l.502-3.26s-1.68.566-2.418.929c-.367.156-.458.032-.716-.503-2.594-4.065-6.624-3.2-8.4.808l-2.172-.93c.235 1.11.516 2.234.317 3.345-4.559 2.044-3.433 7.638.207 8.371l-.317 2.613 2.739-.89c.4 1.228.195 1.938 2.383 3.32-.054 5.476-.141 8.9.03 13.767-2.854-2.942-5.607-4.985-10.434-6.485 0 0-.045 1.18.236 2.972.092.59.075.504-.202.503-.627-.015-3.455-4.592-3.455-4.592s-.329.004-.615.29c-.337.336.433.958 1.514 2.574 1.265 1.892 1.143 1.812.149 2.662-5.652 4.828-13.814 23.207-12.442 24.994-3.573.215-17.497 7.09-20.025 21.263-.15.638-.447 1.466-.447 1.466l-4.027-1.006c2.429-11.609 7.91-35.215 7.91-35.215s3.854-1.102 6.108-1.345l-.024-.914-5.306 1.243.255-2.023 5.008-.992-.014-.479-5.301.717.865-3.368s-11.9 1.76-16.161 1.63c.27 13.097-.757 23.977-.204 38.092l-5.818-3.55c-.517-9.827-.673-34.648-.673-34.648l-16.062-2.54.533 3.898c-13.316-5.314-26.674-10.204-36.51-20.594 6.055-4.679 16.16-9.32 16.16-9.32l-.33-.745c-24.85 12.899-33.864 21.86-46.349 32.979v-92.054h67.267l-.226 16.868s-.088.435-.216.586c-.83 4.06 1.551 11.269 1.072 14.779.222 1.083.144 3.097.144 3.097-4.05 5.584-6.194 10.886-7.997 17.377-.697.278-1.725.853-2.45 1.05l-.207.885c1.589-.878 6.093-2.313 6.093-2.313 20.069 9.852 34.815 7.44 50.598.121-2.516 8.895 2.955 20.206 11.957 22.584 1.03.272 2.793.504 3.801.238 1.008-.293-2.268-7.843-3.72-8.125-4.348-1.897-6.139-6.353-5.675-11.464l-.72-1.22c-1.483 6.21 2.084 12.513 6.982 14.053l1.317 2.894c-8.878-2.681-12.658-11.051-9.703-19.327.052-5.165-3.271-7.448-4.796-9.674-7.72-2.965-9.155-10.165-7.804-15.983 3.594 1.539-2.422-5.11-2.422-5.11-2.647 5.773-3.753 13.072 2.302 20.469-3.917 5.226-8.968 9.36-14.614 12.891-8.252 4.336-14.443 1.415-18.43-8.187-2.393-5.766-3.25-11.513-3.239-17.533.014-3.726.055-3.84 1.442-3.208 1.302.593 4.128.678 5.815-.198 2.298-1.194 2.19-.467-.313 2.124-.68.705-1.407 1.341-1.408 1.476 0 .765 1.069.12 2.595-1.403.558-.557.97-1.092 1.144-1.084.2.009.181.726-.048 1.5-.088.297-.368 1.553-.625 2.787-.256 1.234-.607 2.684-.778 3.223-.679 2.14-.495 3.132 1.544 4.12 1.075.522 2.913 2.297 2.897 2.297 0 0-.44-1.946-.277-2.572.196-.752 1.084-.22 1.989.215 2 .962 3.164.99 4.237.087 1.481-1.245 1.057-4.042-.774-4.771-1.343-.535-1.578-.04-.237.901 2.011 1.413-.257 3.596-1.965 2.242-1.336-1.058-3.656-1.177-3.915-.295-.245.833-.498.682-1.423.137-1.438-.846-1.45-.993-.245-5.661 2.28-8.839 2.057-12.084-.966-14.77-2.238-1.987-5.935-2.91-9.77-.7v-3.01c5.63-2.266 9.726-6.12 13.028-12.393h.644c3.288 7.169 8.603 12.424 18.603 16.2 3.906 3.885-4.952-11.156-2.124-4.998-5.306-2.07-10.036-6.186-12.64-11.202h1.447c1.524 2.217 4.613 6.37 10.111 9.165 2.395.015-3.529-7.308-4.387-9.165h46.09c-1.463 11.303-3.522 23.398 4.583 45.413-3.802-2.01-19.044 2.272-16.361 3.118 1.347-1.566 11.06-3.876 18.247-2.168-.595-.517-10.96-24.79-4.93-46.363zm4.93 46.363c.014.011.027.017.03.005l-.03-.005zm-35.609 43.62l.043 1.77.365-.087-.211-1.722zm-41.612-89.983h2.023c-.444.92-1.092 1.716-2.08 2.283zm3.48 0h2.177c-1.696 2.718-3.5 4.47-5.676 5.758l.04-2.13a28.62 28.62 0 0 0 3.46-3.628zm3.599 0h2.009c-2.727 4.217-5.524 7.154-9.107 8.947v-1.723c2.213-1.733 5.35-4.386 7.098-7.224zm3.066 0h1.624c-2.793 5.357-6.688 9.164-11.788 11.221v-1.287c5.586-2.998 8.031-6.45 10.164-9.934zm4.44 0h1.951c2.677 5.356 8.239 10.53 14.345 12.75l.932 2.173c-8.05-2.91-13.38-7.262-17.228-14.923zm5.647 0h1.394c1.464 2.056 3.24 3.832 5.315 5.22l1.263 2.464c-2.8-1.897-5.925-4.307-7.972-7.684zm2.542 0h1.557l2.062 3.648c-1.374-.777-2.414-2.464-3.619-3.648zm-1.788 14.013c-2.134-.01-4.076.583-5.483 1.738-1.485 1.219-.392 2.547 1.745 1.548 3.64-1.702 7.821-.935 12.336 1.553 3.8 2.095 2.469-.088-1.077-2.42-2.43-1.618-5.1-2.408-7.52-2.419zm-17.165 2.744c3.062.024 6.57 1.39 6.656 3.199-2.031-1.71-6.113-2.541-10.03-.784-.3-.064-.342-1.137-.163-1.53.843-.626 2.145-.896 3.537-.885zm18.545 1.166c-1.937 0-3.709.51-4.527 1.607-.418.52-.529.576-.99.498-.9-.15-.85.374.178 1.81.498.697.416 1.49-.25 2.434-.766 1.085-.616 1.126 1.663 2.226 1.742.854 3.14 2.066 4.723 3.063 1.131.643 1.357.078.313-.77-.359-.29-1.42-1.053-2.374-1.678-1.617-1.06-2.804-2.131-1.519-1.655.59.187.741.266 1.39.377 1.665.363 3.31.565 4.709.28 1.002-.2 2.309-.87 3.383-1.804.274-.127.545.008 1.21.034 2.547.1 1.985-.653-1.672-2.662-3.618-1.987-6.456-2.35-8.77-1.258-.98.462-1.54.578-1.398.286a2.17 2.17 0 0 1 .86-.915c3.74-2.254 6.746-.386 10.044 1.307 1.415.849 1.797 1.07 1.965.798.215-.348-1.578-1.63-3.984-2.845-1.41-.737-3.246-1.132-4.954-1.133zm-11.959 2.61c.633.25.35.978-.229.748-3.454-1.561-4.147-2.322-8.264-.877-1.36.478-1.9.056-.23-.665 3.637-1.533 6.276-.499 8.723.794zm-2.367 1.837c-.935 4.786-5.666 3.31-5.132.025l.87.005c.068 2.89 2.944 2.87 3.436.029zm27.512.01l1.274 2.744c-2.786 6.91.996 16.213 9.222 18.442 0 0 1.327 2.053 1.067 2.313-15.443-3.441-14.255-18.265-11.563-23.499zm-14.628.18l.432.024c1.334 3.335 3.271 1.418 3.648.01l.985.024c-.3 3.454-5.505 4.04-5.065-.058zm-11.903.096c.624-.073.837.871.663 1.046-.048.048-1.192 1.166-1.332.508-.204-.963.409-1.507.668-1.554zm-7.204.097c.053 0 .106.003.163.01.388.298.535 1.187.332 1.645-.23.24-1.157-.087-1.336-.445-.276-.523.048-1.215.84-1.21zm25.047.32c.305.012 1.143.377 1.062.783-.021.104-1.188.97-1.451.828-.507-.272.194-1.515.293-1.592.017-.014.053-.021.096-.02zm-6.824.15c.01-.003.017-.003.019 0 .09.067.836.534.202 1.398-.044.06-.89-.243-.904-.344-.069-.502.566-1.019.683-1.055zm18.713 6.058c-.188 3.971.84 7.827 5.147 10.302l-.928-1.703c-1.104-.886-3.417-3.413-3.128-6.421zm-38.676 7.099l.486 2.613a59.665 59.665 0 0 0-5.661 12.417l-2.24.823c1.778-5.745 3.422-10.296 7.415-15.853zm.942 4.07l.634 2.245c-1.163 2.16-2.407 4.599-3.157 7.438l-2.475.92c1.114-3.762 2.743-7.417 4.998-10.603zm7.848.929a.414.414 0 0 0-.11.014c-.027.443-.022 1.667.071 3.683.018.382.39.221 1.442-.32.917-.471.822-.546 1.71-.246 2.461.848 3.58.48 4.542.23 1.466-.38 2.065-.226 2.917.287.469.283 1.108.491 1.235.538.675.247.418-.052-.043-1.888-.519-2.064-.296-2.29-1.118-1.753-.18.118-.702.41-.987.443-.715.084-1.911-.8-2.624-.52-1.726.68-1.71.502-3.314.106-.802-.198-1.57.294-2.265.432-.398.05-.902-1.01-1.456-1.006zm29.372 1.07c2.917 2.693 5.916 3.615 9.169 4.635-.392 1.34-1.177 2.846-1.543 4.597-16.93 9.012-33.944 8.728-49.993.547l8.328-3.203c4.55 7.935 10.383 10.053 16.94 7.457 7.328-3.433 12.753-8.208 17.099-14.034zm-36.177 1.586l.72 1.946-1.07 2.932-2.043.833c.391-1.998 1.146-3.64 2.393-5.71zm15.301 2.255c-.507.025-1.272.368-3.018.378-.945.005-1.685-.08-2.052-.005-.76.155.128.497 1.831.987 1.703.488 3.783-.248 4.042-.992.063-.182-.162-.399-.803-.368zm-14.104.959l.447.987-.765.276zm45.014.556l1.264 2.899c-2.19 4.772-3.644 17.852 10.976 21.92l.639 1.874c-9.95.195-19.922-12.54-12.88-26.693zm-33.476.987c-1.429-.014-2.925.343-3.888 1.113-.87.694.194 1.131 1.327.576 1.466-.719 3.915-.66 5.353.247 1.1.754 1.672.622.937-.528-.577-.902-2.11-1.391-3.73-1.408zm63.833 3.257c3.821-.063 4.218 5.445 3.474 5.918.215-.073.868-.266 1.798-.242 2.8.074 4.26 1.633 4.42 3.9.163 2.285-1.56 3.558-4.074 3.432-.933-.047-1.576-.143-1.533.024.467 1.825-.097 4.577-2.5 5.265-.275.079-.668.466-.677.605-.18 2.895.64 12.843.64 12.843s4.503-7.622 5.516-8.779c1.983-2.724 2.695-2.467 2.345 2.047-.484 6.247-1.435 7.698-5.002 12.993-1.573 2.27-5.297 1.079-4.96 2.613.074.34.68.948 1.283 1.525.387.37.788.601 1.692.57 1.589-.052 2.207-.377 1.258 1.013-.75 1.1-3.39 1.329-3.687 1.901-.692 1.331-.219 1.037-1.401 2.207-.905.998-.59.49-.178 1.311.647 1.06.378 3.176-.264 4.602-.523 1.161-.465 1.99-.465 1.99.01.097 1.47-1.518 1.911-3.384.367-1.552.796-2.33.793-1.461 0 1.096.186 2.587 1.168 3.155.777.45.889.899.76 1.452-.135.571.472 1.075 1.07 1.553.142.141.614.327.563.63-.16.953.225 2.075.916 2.258.307.153 2.268-.015 2.592-1.126-.032-.355 0-1.813-.783-1.897-.552-.256-.494-.409.341-.91 1.25-.75 2.156-1.288 2.773-1.403.826-.113 1.62-1.017 1.62-1.017l.158 59.957c-7.41 7.637-15.532 15.239-26.243 22.71-6.225-5.223-13.026-10.51-20.247-14.47l-2.494-1.485.894-1.151-4.33-5.75 4.873-3.948 1.235 1.573-2.306 2.255 3.46 3.852 7.775-7.636-5.123-4.936 2.667-5.028 1.706.842-1.287 3.189 3.897 2.482 4.878-9.755-6.185-2.836 1.566-6.552 1.908.203-.634 4.718 4.82.963 1.96-11.125-7.073-1.273.6-6.344 1.976.024-.289 3.509 4.998.716.942-9.698-6.935-1.156.894-7.486 1.586.227-.307 4.617 5.089.876c.56-3.131 1.015-7.063 1.845-10.134l-6.555-2.458 2.321-6.286 1.476.518-1.288 3.407 4.839 2.07 4.08-8.105-5.7-4.06c1.278-2.133 2.553-4.16 4.378-5.889l1.12.982s-.41.373-1.043 1.254c-.767 1.07-1.008 1.61-.903 1.887.103.275 3.625 2.893 3.892 2.894.311 0 1.479-1.07 2.081-1.79.645-.77.982-.845 1.649-.364.132.096.324.287.46.45.161.194.225.356.241.48a.373.373 0 0 1-.048.251c.057-.054.18-.147.442-.295.479-.269-.926-1.513-2.076-2.158-3.437-1.942-7.48-5.603-8.414-10.182-.343-2.056 4.936.417 8.573 4.065.55.552 2.6 2.55 2.6 2.55-.3-5.293-.727-10.67-.495-16.027l-.803-.561c-1.123-.788-1.556-2.081-1.658-3.378-.07-.894.692-1.35-1.047-1.292-3.619.032-5.713-3.397-3.518-6.33.784-1.097 4.122-1.633 4.118-1.606-.852-3.507 1.708-5.388 3.595-5.565zm-1.317 40.78c-.069.064-.04.065 0 0zm4.791-34.862l-.1.034a.201.201 0 0 0 .1-.034zm-120.486 11.454c10.106 8.567 16.554 14.332 37.123 20.784l.51 3.068c-11.828-2.75-24.73-8.316-40.07-22.153zm-3.042 1.98c6.399 6.015 12.959 10.597 19.597 14.44l2.331 1.413-1.201 1.238 3.907 5.672-5.027 4.128-1.197-1.2 2.624-2.59-3.734-3.697-7.607 7.753 5.214 4.655-3.023 4.68-1.095-.5 1.605-3.26-4.844-2.662-5.416 10.022 6.896 3.16-1.557 6.15-1.61-.082.543-4.82-5.185-.924-1.745 11.26 6.67 1.055-.158 6.485-1.778-.03.125-3.662-5.267-.247-.471 9.45 6.482.847-.643 7.67-1.596-.411.178-4.98-4.94-.488-1.701 10.588 6.665 1.916-2.355 6.6-1.446-.798.946-3.407c-1.215-.533-4.632-1.964-4.632-1.964l-4.354 8.221 5.647 3.872-3.475 6.145-1.34-.905 2.397-3.585-4.69-2.967-2.672 3.673c-1.134-.992-3.173-2.368-3.95-3.29-.831-.762-1.463-.879-2.533-.625-.844.2-1.656.354-1.47.054.092-.149 1.694-1.234 4.142-2.797.685-.438 1.224-.82 1.216-1.21-.01-.292.37-.755.865-1.055.547-.333.424-.643.336-.987-.473-1.85-.174-4.733.75-6.674.619-1.299.813-1.532.409-1.533-1.192.153-2.644 4.5-2.922 5.724-.093-.097-.223-1.243-.308-1.684-.152-.796-.263-1.29-.899-1.442-.759-.182-.518-.548-.595-1.123-.126-.932-.563-1.523-1.355-1.853-.763-.318-.846-.445-.813-1.21 0-.6-.624-1.617-1.086-1.94l-2.643.939c-.208.702.07 1.613.505 1.945 1.328 1.258-.615 1.276-1.946 2.095-.36.235-.79.745-1.082.576-.845-.279-.778 2.264-1.61 1.945l.202-60.987c7.082-7.384 27.719-22.782 27.719-22.782zm107.04 10.786l1.019 1.137c-3.16 3.58-5.452 7.267-7.977 11.769-2.155 3.84-4.017 9.218-4.993 15.083-.754 3.59-.87 7.244-1.336 10.917-.475 3.953-.566 9.274-1.317 13.448-1.387 11.447-4.58 17.537-11.52 24.031-3.05 2.855-12.538 8.245-12.796 8.193l-2.25-.561c19.457-10.03 24.321-16.947 26.427-40.688.411-29.785 13.865-41.323 14.743-43.329zm1.913 1.994l1.043 1.011-5.68 8.077 5.598 3.972-2.22 5.222-1.697-.634 1.207-3.562-4.71-1.998-3.806 10.375 6.709 2.13-1.106 6.76-1.355-.368v-4.607l-4.978-1.021-1.447 11.59 7.334 1.025-.539 5.981-1.735-.12-.067-3.562-5.089-.271-1.163 10.046 7.223 1.234-1.307 7.137-1.538-.367.346-4.709-4.844-.643-2.802 9.64 6.084 3.086-2.994 6.18-1.283-.9 1.658-3.654-4.733-2.351-4.57 7.974 4.959 4.912-4.844 5.11-1.081-1.393 2.499-2.71-3.734-3.722-7.766 6.219 3.964 5.26-.466.663-4.094-1.655-1.96-2.609-2.346 1.036-1.85-.711c11.47-6.056 18.933-13.078 22.014-23.668 1.693-5.856 2.196-12.245 2.744-18.684.286-3.345.581-6.703 1.062-10.007.566-5.397 1.386-9.927 3.561-15.132 2.638-6.314 5.844-10.764 9.794-15.582zm-61.723 3.992l7.876 4.181-.115 2.778-7.28-3.673zm2.215.077l5.613.775.024 2.279zm-25.302.073l3.278 1.486 2.777 3.227 2.081-1.374 2.259.852c-7.137 3.693-13.469 8.112-18.4 15.736-5.496 8.497-6.107 19.62-6.81 30.356-1.173 14.81-3.695 25.212-13.47 37.218l-1.442-.915 5.276-8.44-5.949-3.87 2.71-4.99 1.37.475-1.062 2.976 4.92 2.613 3.773-10.637-6.939-2.177 1.163-6.654 1.744.155-.46 4.766 4.958.79 1.423-11.247-6.685-1.03.15-5.943 1.638.16-.01 3.614 5.272.286.408-10.259-6.555-.73.808-7.245 1.835.189-.422 4.345 5.045.726 2.394-9.378-6.555-2.98 3.537-6.335 1.59.735-1.624 3.509 4.546 2.23 4.767-7.336-5.065-4.897 4.974-5.24 1.22 1.204-2.7 3.127 3.743 3.484 7.41-6.262-3.618-5.478zm47.139.348l-.231 2.628-7.896 4.515v-2.574zm42.376.092l1.744 1.09-1.264 1.509-1.523-.968zm-45.697.373l-4.729 2.749v-2.735zm55.764 2.565c.247.006.474.059.65.174.475.312.407 1.083-.13 1.461-.7.493-2.617.46-2.807-.048-.274-.733 1.218-1.612 2.287-1.587zm-75.472 1.084l6.786 3.687-.024 2.599-6.531-3.615zm22.106.082l-.399 3.387-6.987 3.731-.058-2.937zm-33.822.063l2.782.711c-10.3 4.628-20.48 11.34-24.44 23.049-1.237 3.504-2.071 7.404-2.614 12.397-.256 5.267-.93 10.45-1.177 14.84-.504 8.943-3.427 21.054-13.525 33.92l-.965-.765c6.194-7.686 9.414-14.656 11.403-22.018 3.152-11.716 1.59-24.645 4.95-36.439 2.05-7.174 6.306-13.59 12.682-19.138 4.437-3.471 10.904-6.557 10.904-6.557zm4.676.982c.03-.002.044 0 .048.01 2.5 8.478 5.589 23.93 5.589 23.93-6.615-3.222-17.627-2.633-17.627-2.633s-6.196-8.048-7.396-8.71c4.955-6.73 18.44-12.55 19.386-12.597zm85.175 1.336c1.523-.05 1.413 2.281-.515 3.866-.984.81-1.44.696-2.167.049-.214-.29-.833-.496-1.288-.44-1.08-.005 1.055-2.255 2.956-3.185.392-.192.731-.281 1.014-.29zm-77.337 1.897l6.05 3.126.058 2.574-5.598-3.058zm20.51.348l-.327 2.83-6.3 3.301.034-2.608zm58.955 1.055c.21-.02.372.062.524.232.86.963-.773 3.882-2.624 4.757-.71.336-1.148.281-1.74-.232-.287-.25-.712-.577-.956-.552-1.059.11-.474-1.086.38-1.156.236-.02 1.719-1.137 2.84-2.076.752-.63 1.228-.94 1.576-.973zm-6.4 1.137c1.337-.032 1.823 1.088.24 1.578-1.128.348-1.757.1-1.754-.663.237-.785.919-.876 1.514-.915zm-72.234 1.515l5.368 2.71.024 2.777-4.93-2.589zm19.208.382l-.375 2.628-5.78 2.99.014-2.172zm60.594 1.103c.366.023.474.434.471 1.162 0 1.206-.798 2.32-1.99 2.865-.872.398-1.487.367-1.922-.102-.197-.214-.473-.386-.615-.392-1.867-.075-1.566-.56.221-1.311.63-.265 1.866-1.128 2.451-1.549.66-.474 1.1-.69 1.384-.673zm-6.853.857c.916.004 1.723.654 1.216 1.074-.394.327-1.871.484-2.162.189-.553-.561-.061-1.267.946-1.263zm-72.06 1.868l4.575 2.482-.024 2.642-4.368-2.487zm17.55.203l-.105 2.705-5.253 2.608-.034-2.579zm56.514 1.122c.889.065.777.93.058 1.35-.536.376-1.23.179-1.514-.26-.638-1.222.813-1.075 1.456-1.09zm1.783 2.776c.148.3.066.834-.226 1.003-.39.166-1.4-.007-1.557-.304-.128-.243-.099-.371.15-.62.413-.33 1.342-.576 1.633-.079zm-75.183.05l3.906 2.15-.024 2.593-3.59-2.1zm16.247.069l-.192 2.497-4.546 2.27.062-2.435zm-47.595 1.572c.975.012 1.727.666 1.154 1.781-.358.697-.628.954-2.187 2.062-.636.452-1.188.865-1.23.919-.043.054-.449.336-.716.523-1.397.973-.912-1.06.831-4.056a2.474 2.474 0 0 1 2.148-1.229zm47.25 2.226l-.361 2.749-4.066 2.09v-2.647zm-15.287.257l3.287 1.64.048 2.676-2.985-1.577zm39.487.208a.292.292 0 0 1 .265.126c.269.38.312 2.019.048 2.947-.46 1.091-1.355-1.662-1.255-2.362.191-.316.625-.698.942-.711zm-69.1.498c1.33-.024 2.291.89 1.84 2.246-.518 1.308-3.518 2.132-4.872 3.034-.886.442-1.1-.038-.827-.808.127-.357.224-.636-.451-.736-1.64-.243-.64-1.045 2.364-3.073.658-.444 1.342-.651 1.946-.663zm65.924.857c.471-.005 1.053.273 1.653.929 1.032 1.129 1.779 3.505 1.216 4.123-.432-.049-.645.592-.668.852-.065.748-1.422-.618-2.706-2.773-1.034-1.736-.532-3.12.505-3.131zm-55.366.401c4.053-.027 11.79.816 22.5 7.564 1.366.862 2.732 1.812 4.277 2.58 4.063 2.206 7.416 3.701 12.653 4.684l-.149 2.729c-.047.861 1.363 5.848.716 8.652-.96-.018.928.828.928.828l1.23 2.535s-6.429-.055-9.352-.634c-4.708-.77-13.3-4.79-17.454-7.95-4.314-3.187-10.83-5.836-16.415-6.862l-.078-2.347s-.554-8.036-1-9.136l-1.028-2.54c.253.101 1.33-.09 3.172-.103zm33.808 1.762l-.312 2.695-3.566 1.684v-2.308zm17.771.12c.998.003 2.509 1.18 4.234 3.529.388.529.688.988.745 1.306.052.293-.128.462-.414.426-.68-.124-.93-.37-1.12.48-.046.21.075.59-.158.522-1.21-.358-4.672-3.875-4.46-5 .16-.843.574-1.263 1.173-1.262zm-31.756.18l2.6 1.394.116 2.656-2.312-1.001zm-27.94.808c.799-.026 1.294.291 1.548.915.612 1.503-.471 2.408-3.686 3.087-2.793.668-2.735.71-2.345-.334.259-.692-.604-.77-1.086-.953-.815-.31-.148-.407 2.196-1.583 1.473-.738 2.575-1.106 3.374-1.132zm-9.293.711c.079-.007.174.069.312.242 4.06 4.954 3.017 12.173-2.124 15.737-.584.39-.604.029-.538-.745l.1-1.471c.027-.292 5.905-3.926 1.558-12.01l.365-1.143c.116-.364.194-.598.327-.61zm66.341 1.54c1.603.005 6.103 4.116 4.186 4.263-.225.017-.148.31-.15.498 0 .187-.01.543-.061.677-.138.36-.663.288-1.47-.193-2.048-1.22-2.512-1.61-3.22-2.284-1.394-1.327-.998-2.968.716-2.962zm-15.844.706l-.029 2.216-3.205 1.563.019-2.003zm-40.622 1.592c2.158-.075 3.371 2.09 1.216 3.228-.862.454-3.698.136-5.017.019-1.49-.132-.61-.577-.529-.711.205-.34.363-.391-.413-.857-.617-.653-.97-.814.572-1.016.748-.098 2.566-.277 3.196-.484a3.51 3.51 0 0 1 .975-.18zm65.669.527c.159-.007.142.259.077.949l-.106 1.48c-.982.158-5.863 6.269-1.898 13.376l-.332 1.263c-.152.624-.202.715-.716.329-2.972-2.068-3.936-12.597 2.22-16.951.401-.268.632-.44.755-.446zm-11.591 1.234c.574.01 1.276.173 2.08.542 1.876.86 3.122 1.554 3.413 2.013.179.284-.103.52-.481.63-.458.132-.514.325-.39.866 0 .314.08.66-.312.682-.723.039-2.339-.474-3.974-1.36-2.76-1.495-2.386-3.41-.336-3.373zm-14.023.034v2.696l-2.634-1.225zm-44.144 2.318c.279.008.648.058 1.134.136.593.095 1.514.187 1.99.179 3-.053 4.244 2.051 1.768 3.12-.677.293-.96.262-2.812-.28-.887-.26-1.973-.531-2.417-.658-.892-.255-1.2-.538-.61-.74.55-.189.597-.572.255-1.08-.084-.508.077-.693.691-.677zm69.743 0c-.425 4.174-.772 7.427-1.398 11.512-.457-.181-3.696-7.879 1.398-11.512zm-12.629 1.999c.977.018 2.625.396 4.23 1.03 1.4.52 1.578.659.61 1.075-.585.25-.514.476-.342.861.267.289.772.867-.024.75-.943.071-3.42-.07-4.176-.203-2.262-.4-2.878-2.453-1.023-3.407.149-.077.4-.112.725-.106zm-58.114 1.055c.21 0 .592.113 1.288.333 4.062 1.29 5.708 2.854 3.72 4.37-.578.44-1.473.253-3.163-.697-1.728-.97-2.595-1.503-2.917-1.848-.32-.342-.145-.735.346-.702.674.045.573-.296.52-.866-.039-.4-.063-.59.206-.59zm10.957.377l3.114.711-7.776 34.242c-2.654.771-4.185 1.103-6.05 2.115l5.377-.934-.466 2.448-4.882.925-.11.73 5.593-1.016s-.2 2.337-.394 3.242c5.338-.433 10.61-1.927 15.979-1.97 0 0 .13-27.022.11-29.968-.02-3.183 0-6.988 0-6.988l5.382 3.059.89 34.057 16.858 2.759c-.118-.575-.577-3.207-.577-3.207 12.498 3.71 25.171 9.196 36.388 20.533-5.22 2.844-10.153 5.665-15.224 8.398l-.735 1.065c12.86-6.05 32.342-18.624 46.458-32.524v90.315h-67.185v-8.413l.038-7.53c-.274-4.828.56-10.146-.908-14.197l-.289-4.244c4.165-4.877 6.414-11.026 8.4-17.31 0 0 2.005-.781 2.98-1.127l.336-1.234c-1.936.995-6.381 2.666-6.381 2.666.478-.377-9.452-4.586-15.585-5.575-10.12-1.63-23.733.05-34.586 5.469-.532.377-.758.368-.625-.121 2.52-9.229-2.788-18.492-12.105-21.176-1.977-.57-3.595-.566-3.595-.566l.168.808c15.226 1.727 18.797 17.927 12.936 25.453-1.537 2.483-1.77 3.208 1.455 3.125 13.036-.107 17.567 14.56 11.626 22.677.015-.063.482.944.482.944 3.705-4.924 4.691-14.28-1.875-20.856 4.854-5.45 14.172-14.172 22.231-13.661 2.933.186 5.828 3.76 7.756 6.615 4.083 6.043 5.132 14.48 5.421 19.293.071 1.261.238 2.177.24 2.84.01 1.927-.359 1.697-1.595 1.375-1.551-.403-3.68-.42-5.252.063-2.528.775-2.12.333.13-2.473 1.326-1.655 1.504-2.165.956-2.274-.168-.033-.73.534-1.466 1.674-2.219 3.437-2.046 2.026-.442-3.334 1.042-3.485.937-3.728-1.903-5.894-.94-.716-2.094-1.412-2.196-1.63-.536-1.144-.759.29-.28 1.233.47.922-.523 1.342-2.267.392-4.106-2.29-6.779 2.346-3.114 4.355.863.474 1.345.085.677-.537-2.254-2.099-.686-3.867 2.364-2.008 1.764 1.075 2.434.73 3.023-.614.327-.549 3.064 1.426 3.061 2.192 0 .502-.319 2.111-.63 3.189-.876 3.04-1.114 3.985-1.494 5.957-.688 3.575-.67 5.406.067 6.978 1.652 3.52 5.812 5.181 9.42 3.764.524-.206 1.527-.377 1.527-.377l.043 2.584c-7.113 2.713-12.252 11.18-12.018 11.469l-2.538.005c-3.368-6.733-9.294-11.803-16.824-14.605-1.472-1.287.367 3.438 2.057 4.481 3.577 1.831 8.31 5.078 10.923 10.119l-1.798.029c-2.19-3.364-5.03-5.635-7.722-7.617-.633-.134.461 6.1 3.047 8.023l-46.375.813c3.165-12.468 3.773-26.302-3.642-44.437 6.148.38 11.601-.949 16.598-3.146l-.451-1.292c-5.694 2.737-11.941 3.276-18.194 2.633 4.743 8.843 8.894 27.207 4.853 45.03h-17.572v-96.9s.98.61 1.19.822c.534.54.896 1.347 1.048 1.93.194.748.4.793 1.46 1.593.51.384.804.721.803.92-.03.22-.036.901.307 1.32.935 1.138.77 1.869.067 2.604-3.263 3.418-5.307 10.602-3.657 18.18 3.87-2.623 7.856-9.483 7.983-9.494l.374 9.369c-.344-.077-2.706 1.332-2.734 3.174-1.07.32-2.376-.215-3.46-.537l.782 2.76c-3.972 1.595-4.186 7.066.417 8.628 0 0-.42 2.14-.78 3.289l2.988-.459c1.736 5.222 8.402 3.55 8.37-.093 0 0 2.029.767 2.798 1.108l-.75-3.559c7.581-3.808 1.91-8.794.18-8.722.023-.995.476-1.309.892-2.468l-3.06.193c-.562-1.838-2.62-3.342-2.697-3.14l-.423-13.41c2.315 2.033 4.592 4.117 7.66 5.735 2.832 1.493 3.12 1.16 2.701-1.418-.189-1.163-.173-1.926-.173-1.926 1.062.252 3.743 3.758 3.614 5.488.979 1.285 1.867-2.174-.658-5.12 6.722-7.088 11.844-18.836 12.936-26.843l8.939-3.58.1-1.172c6.09-4.102 9.266-9.81 10.938-16.264zm7.439 2.095l2.057.925-2.336 1.166zm-19.819.567c.397.183.997.58 1.822 1.19 1.748 1.29 2.768 2.18 2.801 2.962.017.386-.265.887-.706 1.122-1.056.564-2.066.103-4.349-2.25-.738-.76-1.231-1.167-1.456-1.505-.262-.394-.07-.765.365-.605 1.853.842.249-1.497 1.523-.914zm62.988.483c.38.002.681.01.87.049.494.1.638.383.331.658-.475.427-.34.858.14 1.089.328.158.195.492-.202.72-.233.135-.587.279-1.072.431-2.806.884-4.875.62-5.416-.696-.622-1.513.568-2.248 3.998-2.246.51 0 .97-.007 1.35-.005zm-40.862.9l-.024 2.028-2.913 1.408.318-2.056zm-24.754.634c.255.016.674.411 1.283 1.162 2.809 3.465 3.188 4.133 2.268 5.052-1.09 1.09-2.62.036-4.267-3-.222-.409-.492-.933-.654-1.123-.604-.712-.338-.935.428-.876.42.033.619-.116.63-.552.011-.459.113-.675.312-.663zm67.317 1.752c.511 0 .473.176.245.774-.176.53-.463.702.279 1.036.122.06.396.4.149.547-.586.399-3.205 1.6-4.152 1.916-1.842.615-2.975-.895-1.894-2.395.453-.629 3.567-1.767 5.118-1.868.097-.006.182-.01.255-.01zm-68.788 2.008c1.867 2.803 2.1 4.114.87 4.932-.778.596-2.437-.261-2.816-2.072-.29-1.386-.423-2.835.025-3.986.679-1.744 1.728.837 1.921 1.126zm26.21-1.16l.015 2.191-3.542 1.79.327-2.414zm7.218.086l3.33 2.173.193 1.868-3.441-1.907zm37.152 2.158c.088.001.135.042.135.146 0 .257-.066 1.175.433 1.258.979.163.756.471-.101 1.214-.93.828-1.778 1.811-2.898 2.415-2.888 1.075-3.795-1.998-1.062-3.595.943-.552 1.798-.932 2.436-1.113.48-.137.865-.328 1.057-.325zm-37.06 1.128l3.858 2.289.135 2.303-3.835-1.964zm-7.444.213l.014 2.003-3.768 2.173.312-2.24zm15.594 1.635c1.066.501 14.76 4.332 19.294 3.025 0 0 3.881 5.633 6.752 7.65-4.445 6.569-19.496 13.008-19.496 13.008zm30.823.14c.25-.008.31.242.308.712-.061 1.363-2.285 6.38-4.056 3.809-.487-.958.01-1.95 1.561-3.131 1.232-.938 1.867-1.378 2.187-1.39zm-74.558.792c.338.37.185 1.513-.543 1.437-.21-.022-.239-1.181-.1-1.81.209-.103.526.25.643.373zm28.189.636l-.024 2.546-4.47 2.448.481-2.83zm7.39.358l4.427 2.376.519 2.812-4.907-2.56zm-7.4 3.46v2.565l-5.022 2.594.341-2.531zm7.487.223l4.95 2.836.649 2.67-5.527-2.874zm-70.162.082c.812-.01 1.103.86.49 1.413-.404.38-1.552.303-1.653 0-.518-.503.193-1.4 1.163-1.413zm1.514 2.715c.12-.008.233-.001.332.024.584.15.948 1.001.59 1.486-.66.895-2.402.274-2.148-.857.068-.299.707-.617 1.226-.653zm61.075.857v2.293l-5.464 2.904.346-2.565zm7.727.319l5.637 3.049.432 2.57-6.06-3.175zm-71.479.068c.272-.015.489.061.606.266.104.183.228.652.62.88.73.427.806.517-.582 1.128-.584.258-1.732 1.044-2.133 1.316-1.228.832-1.727.553-1.817-.43-.113-1.24 2.127-3.095 3.306-3.16zm4.23 1.877c.284-.016.56.038.759.17.469.312.493.938.043 1.253-1.033.664-2.647-.246-1.788-1.04.241-.224.62-.362.985-.383zm59.512 1.244l.029 2.976-6.094 3.237.404-3.02zm-62.526.348c.4-.022.782.072 1.115.32.361.463.796.6 1.048.61 1.045.04.712.424-.385.929-1.512.694-2.574 1.576-3.662 2.593-1.132 1.058-1.214 1.286-1.586.852-1.383-1.613 1.313-5.18 3.47-5.304zm70.354.034l6.387 3.518.548 2.972-6.935-3.886zm-66.159 2.096c.259-.006.502.056.692.213.454.373.192 1.093-.437 1.417-.535.276-1.416.16-1.667-.096-.604-.613.49-1.513 1.412-1.534zm-3.085 1.495c.389-.038.742.462 1.057 1.002.11.134.547.074.86.077 1.196.01 1.363.519.202 1.166-.339.19-1.452 1.047-2.196 1.684-2.005 1.928-3.092 1.476-2.835-.498.245-1.888 1.873-3.33 2.912-3.431zm69.244.184l7.045 3.89.688 3.2-7.733-4.196zm-7.775.058l-.03 2.947-6.63 3.532.513-2.99zm7.881 3.75l7.89 4.81.29 3.131-8.18-4.742zm-7.886.523l.014 2.889-7.333 3.745.37-2.73zm-59.532 1.911c.187-.004.364.025.51.092.858.398.633 1.087-.659 1.795-1.318.723-1.77.599-2.052-.212-.238-.683 1.189-1.65 2.201-1.675zm82.392.392c13.72 3.163 27.153 10.001 40.194 21.94l-2.724 1.941s-11.429-13.124-36.826-20.818zm-14.892 1.375l3.806 2.26.01.575-3.816-.314zm-64.843.024c.289.015.543.184 1.903.837 5.463 3.97 7.65 6.365 9.006 10.719.813 2.608.797 2.501-1.874 1.083-2.513-1.343-5.956-3.572-8.18-6.455-.367 6.782.419 15.214.419 15.214 3.412 1.693 2.308 6.101 2.298 6.075 8.78-2.413 6.856 9.254.314 6.738 1.56 8.753-8.394 8.041-7.374.538-7.923-.308-6.522-9.003.055-7.801-.685-2.683.259-4.5 2.684-5.651l-.37-11.46s-6.457 9.332-7.536 9.185c-.633-.086-1.586-1.157.02-9.34.836-4.26 5.321-9.447 7.833-9.615.444-.03.63-.077.802-.067zm6.315.087l1.158.798-1.09 1.96-1.207-.88zm50.521.561l-.038 1.718-3.556.213zm-37.185 20.566c8.368 1.305 13.488 11.613 9.616 19.076-.469.336.254 1.96.725 1.35 4.082-5.826 1.044-20.145-10.865-21.51-2.42-.296-.224.436.524 1.084zm1.355 2.744c-.673 1.857-.85 2.302.874 1.544 3.047 1.135 6.334 6.128 5.282 11.144-.338.585.252-.382.653 1.268 1.504-3.672 0-11.59-6.81-13.956zm38.68 9.344c8.566-.025 17.044 1.86 23.788 5.764-2.292 1.283-9.606 3.073-9.606 3.073-4.111-4.645-6.206-9.29-13.639-6.915-7.784 2.023-14.794 8.807-18.739 13.308-3.955-2.37-6.097-2.95-9.604-3.146-.203-.006-.504.893-.255-.557 1.003-1.556 1.695-3.32 2.364-5.1 7.352-4.21 16.573-6.4 25.691-6.427zm26.628 5.962c-1.706 5.558-3.908 11.032-7.646 15.853l-.46-2.41c3.513-5.433 5.178-10.373 5.93-12.538zm-3.316 1.442c.22.353-3.406 9.054-5.195 10.637l-.701-2.246c1.459-2.22 3.619-7.57 3.556-7.621zm-22.115.01c-.113.01-.153.11-.154.33 0 .798.824 1.427 2.33 1.77 2.036.465 4.89-.244 4.893-1.214 0-.56-.396-.602-1.562-.058-1.462.681-2.753.548-4.661-.47-.438-.233-.701-.371-.846-.358zm18.131 1.39c-.566 2.107-1.407 3.659-2.48 5.269l-.345-1.108c.742-1.208 1.232-2.588 1.86-3.93zm-2.128.681c-.275.734-.578 1.582-1.207 2.236l-.817-1.742zm-12.888 1.615c-1.38.027-2.745.474-2.864 1.212-.057.354.473.217 3.039-.098 1.354-.166 2 .642 3.24.557.633-.075.042-.663-.155-.833-.69-.591-2.043-.861-3.26-.837zm-5.888 1.608c-.138.029.017.383.533 1.287.28.49.35 1.488.404 2.106-.067 1.538-.062 1.49.692.6.475-.475 1.397-.37 2.86.029.942.256 1.168.348 1.822-.065.758-.478.937-.237 1.59-.105.63.128 1.202-.127 1.893-.32.843-.234 1.005-.18 1.74 0 1.121.536.958.488 1.052-1.427.094-1.885-.01-2.02-1.09-1.384-1.05.616-1.774.894-3.384.33-1.755-.616-2.004-.46-3.249-.083-1.505.456-2.189.612-3.388-.126-.789-.485-1.318-.874-1.475-.842zm-24.523 2.846l.673 1.103c6.067 2.186 10.177 7.18 7.751 15.596l.577.93c3.036-8.482-.43-15.493-9.001-17.63zm1.879 3.59l.826 1.709c4.566 2.22 4.293 8.336 4.037 8.095l.716 1.592c1.142-3.957-.939-9.8-5.579-11.396zm19.069 9.122c-.18.002-.298.063-.346.189-.118.304.235.487 2.32 1.94 1.792 1.248 3.177 2.174 3.071 2.352-.07.12-1.184-.154-1.98-.392-2.084-.624-5.157.128-6.881 1.35-.437.296-1.165-.027-1.797-.193-.253-.072-.811-.14-1.086-.068-1.304.344-.042 1.597 3.147 3.223 3.915 1.995 6.033 2.177 8.41.968 1.579-.823 2.145-.213.418.725-3.016 1.639-5.904 1.132-10.668-2.167-2.207-1.529-3.09-1.273-1.192.183 3.33 2.621 9.738 5.818 13.672 1.912.153-.056.51-.03.682-.03.818.004.853-.256 0-1.615-.514-.82-1.554-1.682-.288-2.686.96-.761.89-1.122-.27-1.471-.305-.085-.274.117-.734-.257-2.785-2.26-5.509-3.968-6.478-3.963zm1.206 4.467c1.169.032 2.347.938 2.715 2.57.033.144.062.293.082.45l-.996.037c-.826-3.322-3.313-2.221-3.56-.276l-.898-.12c.33-1.853 1.488-2.694 2.657-2.661zm20.63 2.835l-.663.099c-.434-1.223-2.399-2.867-3.335.114l-.836-.034c.582-4.039 4.223-3.412 4.834-.179zm-5.085-1.678c.272.387-.205 1.041-.481 1.34-.265.285-.853.044-1.099-.238-.216-.278-.056-.832.303-1.016.372-.19 1.005-.363 1.277-.086zm-11.657.12c.278.627-.501 1.095-.599.883-.167-.059-.373-1.093-.277-1.16.257-.009.77.076.876.277zm17.526-.102c.42.034.877.235.96.712 0 .316-.358.659-.773.677-.183.008-.882-.509-.75-1.246.147-.262.318-.163.563-.143zm-24.365.199c.148.227-.129.905-.192.997-.033.047-.928.009-.908-.058.019-.067-.083-.578.134-.949.248-.159.787-.243.966.01zm16.253 2.187c.116.003.263.05.437.16 2.502 1.64 5.721 2.371 8.04 1.2.518-.262.856-.248.855.005 0 .277-.574.843-1.643 1.166-2.389.722-6.331-.231-7.694-1.703-.4-.433-.343-.836 0-.828zm-21.947 1.718c-.24-.007-.317.135-.27.426.159.977 6.852 4.845 9.65 5.366 2.298.429 4.083.237 5.488-.585 3.413-1.996 2.538-4.696-.802-2.662-2.244 1.367-7.93.738-11.313-1.229-1.504-.874-2.355-1.305-2.753-1.316zm30.154 1.414c.845-.357 1.209-.482 1.394-.325.86.724-.549 1.854-3.12 2.295-2.056.34-3.292.407-5.639-1.341-1.817-1.354-.961-2.01.082-1.395 2.776 1.634 4.838 1.685 7.282.766zm-29.559 4.228c5.921 2.136 12.657 7.285 15.647 13.54l-1.826-.014c-2.033-3.571-6.055-8.107-12.686-11.295-.588-.486-.894-1.355-1.135-2.23zm31.098 2.928v1.955c-3.66 1.857-6.727 4.715-9.04 8.657l-2.071-.029c2.373-4.23 5.927-8.19 11.11-10.583zm0 2.981v2.4c-2.314 1.366-4.245 3.167-5.599 5.231h-2.45c1.963-3.343 4.658-6.008 8.049-7.631zm-27.109 1.844c1.763 1.02 4.682 3.741 5.743 5.836l-.942.043c-.96-1.23-2.494-2.645-3.744-3.76-.798-.945-1.057-2.12-1.057-2.12zm27.109 1.538c.029 0 .03.019 0 .059v1.906c0 .05-1.758 1.206-2.504 2.284h-1.99c1.366-2.488 4.209-4.254 4.494-4.248zm0 3.17v1.08l-1.25.004c.083-.122.779-.892 1.254-1.084zm-24.384.271c.374.198.662.906.662.906l-.335.036z" fill="#131f67"/><path d="M3416.76-494.076c4.118.113 12.809-1.436 12.67-1.278 0 0 26.964 45.113 25.868 44.666-.351.56-34.543.54-34.543.54-.741.009 7.254-16.717-3.996-43.928zm12.226-31.783c13.14-10.963 26.903-11.044 41.682-12.552l.339-37.257 5.35 3.224.112 34.136c19.51 1.473 36.34 8.667 50.801 21.26.181.274-20.92 11.635-30.162 14.64-7.175-5.302-26.105-8.645-38.658-4.568-3.448 1.12-7.681 2.912-11.8 4.236 2.983-17.985-10.964-20.64-15.87-21.47-.615-.105-1.348-1.436-1.794-1.649zm-16.865 5.815c.23-3.832-.018-7.668-.303-11.586-.075-.895-7.683 11.658-8.109 8.613-1.064-7.622 2.695-17.313 8.6-18.502.59-.802 12.288 6.49 11.754 12.79-.175 2.053-10.437-6.932-10.48-6.396-.24 1.05.303 15.112.62 15.084 2.956 1.674 2.313 3.825 2.635 5.607 7.92-1.176 7.486 7.668.012 7.392.462 10.45-9.175 5.728-7.276.163-9.706-.46-4.926-9.59-.093-7.583-.292-2.304.274-4.707 2.64-5.582zm11.135-44.332c-.56-.222-20.705-1.261-20.705-1.261l1.054-49.395c10.285-23.776 48.991-12.657 42.833-7.598-18.496 12.2-21.311 34.448-23.182 58.254zm37.155-20.29l-.615-5.485c-1.58-3.408 41.187 16.478 41.67 16.903l1.244 5.852c.247 2.571-27.203-10.418-42.3-17.27zm77.852-9.732c-3.191 24.615-3.012 49.381-21.122 57.946 13.623 13.282 25.01 3.049 42.16-5.56.467-.002-.569-52.71-.857-52.674-6.796.362-13.503.516-20.181.288zm9.435-24.026c-3.369-.517-11.209-8.702-9.583-11.176.05-1.858 9.753 5.252 10.762 7.168-.497-.57-.567-17.368-.724-16.7-.37.197-2.964-1.673-2.288-5.174-7.44 1.655-7.031-8.075-.53-7.678-.84-8.853 9.902-5.601 7.044.328 9.193-1.705 7.606 8.684.66 6.993.589 3.94-1.025 5.029-3.283 5.816.144 1.651.76 12.668.76 12.668s6.797-10.485 7.284-9.581c1.73 2.529-1.065 19.9-10.102 17.336zm-31.496-38.664c-3.067 10.642 5.336 22.8 13.275 22.766 1.596-.253 4.655.615 3.6 1.476-12.525 10.214-41.751 12.335-41.759 11.892.306 12.54-.252 25.205-.55 37.74l-5.356-3.246c-.171-11.436-.452-23.132-.712-34.566-18.726-2.46-35.557-8.54-48.856-21.473 8.83-6.588 19.381-10.704 29.516-14.862 12.76 6.672 30.524 10.527 50.842.273zm-9.242-50.56c-.587-.26 2.019-2.209 2.019-2.209s21.757.288 32.55.141c-3.933 16.248-1.151 30.805 3.927 44.784-1.347-.316-10.283.413-12.466 1.396-.35.354-25.754-43.715-26.03-44.112z" fill="#e2cf00"/><path d="M3456.005-450.75l-26.305-44.713 3.947-1.726 27.12 46.503zm-46.807-59.78l3.8-3.936 3.81 3.887-3.984 3.726zm84.397-25.075l-.535-3.196c15.157 3.736 27.561 11.579 36.481 20.12l-2.123 1.565c.662-.182-21.532-16.938-33.823-18.489zm-43.534-2.913l4.32-.937-.136 2.687-4.192.841zm88.23-2.359l-2.62-2.124 1.885-2.25 2.544 2.019zm-89.016-21.665c6.506-3.1 11.585-15.609 10.947-16.443l3.546.846-8.19 34.272-5.667 1.248c-.028-6.557-.639-13.368-.636-19.923zm42.817 19.392c-2.206-7.215-6.549-23.534-6.549-23.534.159.533 14.112 4.527 19.09 3.072 2.124 2.929 4.461 5.502 6.926 7.861-5.167 5.088-11.582 9.338-19.467 12.6zm58.488-26.264l-2.458-2.144 2.205-2.718 2.7 2.07zm-32.113-1.434c-2.002-3.623-2.141-7.718 1.574-11.757zm-76.397-6.31c-.072-3.685.409-7.195 1.277-10.583 2.152 3.914 2.122 7.845-1.277 10.582zm56.197-3.378s5.404-25.208 7.745-35.086l5.968-1.392-.266 20.415c-5.942 4.877-10.113 16.497-9.923 16.497zm-86.844-4.191l-2.61-2.453 2.208-2.432 2.302 2.37zm46.735-9.828c-1.883-2.763-4.462-5.596-7.167-8.441 4.44-6.217 11.81-9.817 19.62-12.64l5.288 23.687c-5.978-1.814-12.423-3.778-17.74-2.606zm-36.63-21.113l1.838-2.301 2.407 1.908-1.83 2.545zm86.426-6.928l3.724-.836.136 2.904-4.462.83zm-75.265-18.1l2.84-1.778c9.969 9.01 20.978 15.226 32.986 18.762l.402 3.357c-13.54-4.202-25.927-10.037-36.228-20.34zm116.486-3.594l-3.692-3.665 3.324-3.722 3.948 3.435c-1.303 1.98-3.58 3.952-3.58 3.952zm-20.456-17.836l-27.635-47.464 3.992-.034 27.194 45.72z" fill="#d40000"/><path d="M3500.832-710.39l-6.603.024 37.48 75.897s-1.016.172-3.004-.353c-9.002-2.378-14.549-11.953-12.514-21.346.207-.73.26-1.355.26-1.355-23.205 10.575-37.571 6.68-50.969-.053l-5.714 2.207c.38-3.475 4.649-16.523 11.034-22.667l-.01-6.58-.154-3.107-.504-5.638c-9.5 9.006-20.584 23.183-21.972 43.315 0 0-8.65 4.473-16.031 9.422.41-.055 11.5 13.656 38.142 21.355l-1.173-4.375c3.962 1.12 9.594 2.005 15.196 2.72l.75 34.362 6.362 3.794.216-38.045c.196.157 10.148-.353 15.508-1.64l-.754 3.667 5.295-1.05v2.676l-5.805 1.38-8.265 35.562 4.815 1.08c1.41-7.164 4.968-12.958 10.125-16.512l-.053-1.364c3.308-2.39 10.182-4.289 10.226-4.244 2.345-11.533 7.803-19.526 13.605-27.128l-2.763-3.78 10.596-3.914-14.71-25.198c5.66-3.933 16.882-2.468 16.882-2.468-4.81-13.075-9.037-26.561-4.286-46.353l-40.915.033zm13.423.82c-.01 3.306-4.299 2.966-4.823-.017zm26.286-.104c-2.603 15.155-1.74 29.917 4.296 43.944 0 0-.88.051-.99.03-.083-.017.103-.757.058-.954-.12-.527-.988-.28-1.715.213-.317.215-.683.46-.913.576-.748.376-4.54.347-4.54.347 1.237-.843 2.977-3.217 1.967-4.602-.228-.295-.367-.165-.59.233-1.076 1.928-1.611 2.23-3.05 2.212-2.259-.028-3.875-1.437-3.692-3.562.177-2.064 3.195-3.154 2.75-1.151-.123 1.784 1.635 2.13 1.96.353.122-.666.025-.357.168-1.137 3.516-1.878 1.575-5.703-1.706-4.902-.771.205-.868.277-1.413-.005-1.012-.525-1.852-.36-2.234.377-.337.65.175 1.168.927 1.171.78.003.93.381.928.852 0 1.094-1.88 1.62-3.124.982-3.282-1.686-2.066-6.068 1.744-6.054 1.159.004 1.643.078 1.692-.174.138-.707-1.63-1.932-2.629-1.751-.846.166-1.36.389-.913-.746.275-1.17.267-1.7.034-2.579-.609-1.256-.594-.612-.97.407-1.256 2.095-3.147 2.56-4.777 1.413-1.512-1.064-1.467-3.085-.03-4.525 1-1 2.071-.32 1.471.798-.248.463-.052 1.037.394 1.152.902.232 1.462-.303 1.466-1.403-.019-.606-.185-.741.899-1.365 2.807-1.614.707-6.024-2.46-4.607-.696.311-.859.616-1.173.47-1.325-1.26-3.224.333-2.1 1.176.485.238 1.079.328 1.235.343.273.157.182.549-.217 1.04-1.311 1.558-4.29.789-4.993-1.408-.814-2.544 1.769-5.218 3.749-3.735.585.438 1.093.484 1.095-.165 0-1.01-1.26-2.17-2.873-2.056-1.638.116-1.46.328-.568-1.162.658-1.327.57-2.622 0-3.402-.442-.6-.896-.728-.85-.092.358 1.972-1.93 3.847-3.811 3.02-1.808-.814-2.705-2.852-1.817-4.621.82-1.632 2.806-1.802 2.475-.059-.155 1.112.684 1.697 1.495 1.04.295-.238.364-.448.384-1.165.023-.799-.3-1.033.212-1.5 1.34-.18 1.424-3.047 1.22-3.165l21.534-.102zm-24.004.097c.85 0 1.557.29 1.557 1.147 0 .856-.687 1.549-1.538 1.549-.85 0-1.542-.693-1.542-1.549s.673-1.147 1.523-1.147zm-15.09.111h3.422l27.033 45.366-3.2 1.568zm5.621 1.586c1.638.943 3.15 1.717 5.205 1.919-.602 1.23-1.15 2.572-1.25 4.869zm5.506 9.136c1.668.601 3.116 1.513 5.864.592-1.465 1.305-2.295 2.867-2.916 4.513zm14.064 5.48c.788 0 1.428.644 1.428 1.437s-.64 1.432-1.428 1.432a1.429 1.429 0 0 1-1.427-1.432c0-.793.64-1.437 1.427-1.437zm-8.757 3.582c1.205.446 2.468.743 3.87.678-.693.96-.929 2.421-.973 4.092zm4.139 7.15c1.115.548 2.436 1.346 4.78 1.09-1.553 2.651-1.22 3.382-1.379 4.542zm13.547 5.266a1.5 1.5 0 0 1 1.495 1.505 1.5 1.5 0 0 1-1.495 1.505 1.5 1.5 0 0 1-1.494-1.505 1.5 1.5 0 0 1 1.494-1.505zm-8.396 3.38c1.022.58 3.04.913 3.062.755-.13-.098-.581 1.96-.66 3.253zm4.704 7.727c1.453.863 3.06.78 4.005.882a17.2 17.2 0 0 0-3.047.887zm17.13 8.484c-3.498.227-4.31 2.929-3.895 5.666-2.668-.429-5.654 2.118-4.82 5.232.792 2.953 3.52 3.057 5.402 2.86-.145.717-.541 3.13 2.354 5.17l.385 15.333s-1.276-1.18-2.109-2.016c-3.637-3.648-9.108-6.29-8.765-4.234.05.302.167 1.07.255 1.704.578 3.47 5.21 7.223 8.366 9.112 1.128.633 1.826 1.31 1.826 1.31-5.905 6.359-9.08 13.142-9.87 19.875-.735 6.256-1.329 11.89-1.913 17.634-2.41 28.812-14.689 36.059-15.272 37.47l-.231 3.841-3.426-.256-3.95 3.44c12.938 6.733 20.485 14.857 20.38 15.011 10.331-6.812 19.249-14.379 27.666-22.211l-.163-64.152s-.699.257-.88.256c-.639-.002-.72.288-.942 1.515-.118.657-.507 1.262-.812 1.694-.578.82-.372.405.356.701 1.657.676-.495 3.735-2.85 4.109-1.696.269-2.644.583-2.932.977-3.57 3.145-7.127 3.644-9.817 2.488-1.324-.57-2.762-1.4-3.249-2.788-1.105-3.149 1.197-7.686 2.547-10.307 2.476-4.806 6.589-8.415 6.589-8.415l-.673-.736s.808.013.96-.043c3.55-1.3 3.77-1.318 4.422-2.265.653-.947 2.299-3.65 2.638-4.54 1.824-4.777 2.07-5.087 2.067-8.22 0-2.54-.171-4.236-.659-4.37-2.796 2.158-5.62 7.2-7.27 10.171-.571-4.402-.74-12.087-.74-12.087.591-.659 3.95-.29 3.205-5.803 2.956 1.342 6.07-.711 5.94-3.577-.203-4.463-3.618-4.332-6.397-3.768 1.324-2.696-1.193-5.946-3.722-5.781zm-.053.375c3.652.114 4.376 4.178 2.138 6.478 0 0-1.45-1.124-2.219-1.763-.73.577-.941 1.078-1.745 1.673-.95-.708-1.525-1.96-1.534-3.167.045-1.884 1.933-3.265 3.36-3.221zm-83.436.126c14.778 8.316 33.309 8.91 50.271.435l-.206 1.409-1.86 1.054 1.052 1.94.582-.28.015 1.283c-13.983 7.605-37.405 9.179-55.74-3.45l1.595-.746s.36.254.706.47c.669.416 1.771 1.084 2.5 1.413l1.11-1.612s-1.695-1.04-1.529-1.108l1.504-.808zm1.302 2.55l-.846 1.936 2.12 1.137.807-1.95zm-8.04.218c22.758 14.384 43.942 10.102 56.663 4.22l.164 1.533c-16.42 7.034-38.01 8.922-58.561-4.989zm53.569.924l-2.024.813.803 1.868 2.08-.895zm-56.289.348c18.494 12.008 38.329 14.359 59.705 5.56l.817 2.3c-20.819 8.418-42.79 7.448-62.862-6.863zm14.21.068l-.826 2.013 2.292.876.668-1.974zm38.892.833l-2.003.653.624 1.926 2.076-.712zm-35.388.551l-.495 2.023 2.34.663.409-2.032zm84.696 3.33c.315 3.44-4.75 5.1-6.646 1.89l1.67-2.043-1.494-1.403c2.027-3.228 6.174-1.674 6.47 1.556zm-105.26-3.218l5.518 3.818-4.008 6.271-5.94-4.016zm95.618.174l3.503 3.058-3.215 3.79-3.287-3.34zm-2.178 1.037l-1.97 2.306 2.132 2.283c-2.528 2.705-6.301 1.035-6.264-2.277.03-2.528 3.872-4.99 6.102-2.312zm-40.842-.887l-2.105.634.48 1.858 2.178-.571zm-28.391.585l-.39 1.999 2.418.522.408-1.988zm24.917.339l-2.24.489.385 1.989 2.244-.475zm46.73.47l-1.846 1.824 1.845 1.926 1.86-1.926zm-67.77.058l-.283 2.013 2.533.343.197-2.037zm17.056.275l-2.278.262.23 1.974 2.365-.3zm-13.446.233l-.03 2.066 2.221.179v-2.047zm9.794.193l-2.23.083.015 1.998 2.278-.145-.062-1.936zm-40.685.02a2.381 2.381 0 0 0-2.374 2.39 2.381 2.381 0 0 0 2.374 2.39 2.381 2.381 0 0 0 2.374-2.39 2.381 2.381 0 0 0-2.374-2.39zm36.946.067l-2.192.02.01 2.022 2.26.01-.078-2.051zm58.104.01l.962.968-.962.953-.985-.953zm-95.055.765c.861 0 1.557.701 1.557 1.568 0 .866-.696 1.572-1.557 1.572a1.57 1.57 0 0 1-1.561-1.572c0-.867.7-1.568 1.561-1.568zm-8.443.116l3.157 2.589c-1.004 1.936-4.185 6.025-4.185 6.025l-5.834-4.709 3.051-1.737c-.166.323-.26.686-.26 1.074a2.34 2.34 0 0 0 2.336 2.347 2.34 2.34 0 0 0 2.336-2.347c0-1.245-.966-2.26-2.182-2.342zm-1.764 1.665c.865 0 1.567.707 1.567 1.577s-.702 1.573-1.567 1.573a1.569 1.569 0 0 1-1.566-1.573c0-.87.702-1.577 1.566-1.577zm107.31.744s.861.329 1.071.654c1.694 2.618-.07 5.73-2.909 5.669-3.315-.071-4.188-4.257-1.908-5.964l1.854 1.763zm-86.199 1.066l6.536 2.526-2.48 7.152-7.146-2.952zm-26.863.745c26.664 24.19 64.543 25.93 92.076 9.872l1.677-.034.889.919c-31.366 18.678-70.357 14.614-96.68-9.427zm73.42 1.442l2.105 7.07-7.228 1.916-1.614-7.162zm-76.154.256c8.092 7.853 19.534 14.733 32.971 18.636l.331 2.898c-14.264-4.313-25.038-10.073-35.532-20.072zm31.327.112a2.345 2.345 0 0 0-2.335 2.351 2.34 2.34 0 0 0 2.335 2.347 2.34 2.34 0 0 0 2.336-2.347 2.345 2.345 0 0 0-2.336-2.351zm-11.624.527l6.742 3.59-3.36 6.77-7.16-3.866zm11.596.247c.864 0 1.566.707 1.566 1.577s-.702 1.573-1.566 1.573a1.569 1.569 0 0 1-1.567-1.573c0-.87.702-1.577 1.567-1.577zm11.163.963l6.478.948-.298 7.23-7.56-.915c.29-2.544 1.38-7.263 1.38-7.263zm31.29.179a2.345 2.345 0 0 0-2.336 2.352 2.34 2.34 0 0 0 2.335 2.347 2.34 2.34 0 0 0 2.336-2.347 2.345 2.345 0 0 0-2.336-2.352zm-.03.774c.865 0 1.567.707 1.567 1.578 0 .87-.702 1.572-1.567 1.572a1.569 1.569 0 0 1-1.566-1.572c0-.87.702-1.578 1.566-1.578zm-52.67.102a2.345 2.345 0 0 0-2.335 2.352 2.34 2.34 0 0 0 2.336 2.346 2.34 2.34 0 0 0 2.335-2.346 2.345 2.345 0 0 0-2.335-2.352zm41.416.01l.927 7.263-7.074.353-.418-7.244zm50.699.648h1.004c.093 6.251.584 13.487 1.303 18.839.108.797.157 1.032.077 1.176-.695 1.238-1.502-.32-1.817-3.876-.087-.98-.197-2.407-.317-3.344-.363-2.835-.25-12.795-.25-12.795zm-119.559.111c-10.637 6.682-28.329 22.643-28.223 23.015l.072 61.331 1.384.068 1.143-2.255c-1.77-.446-1.274-3.795 2.115-4.467.578-.114 2.344-.713 2.777-1.045 2.573-1.975 6.752-3.14 9.684-2.361 4.275 1.1 5.152 4.266 3.095 9.77-1.622 4.338-4.836 9.886-7.853 11.468-.246.13-.778.392-.778.392s.701.643.956.809c8.312-4.837 12.508-22.185 12.283-32.979.335-11.056 2.229-22.151 6.66-30.22 7.325-13.336 17.014-18.698 16.965-18.747 0 0-13.061-7.984-20.28-14.779zm27.416.005c.865 0 1.567.708 1.567 1.578 0 .87-.702 1.573-1.567 1.573a1.569 1.569 0 0 1-1.567-1.573c0-.87.703-1.578 1.567-1.578zm64.611.252l2.523 6.75-7.01 2.89-2.529-7.095zm-40.328.034a2.345 2.345 0 0 0-2.336 2.352 2.34 2.34 0 0 0 2.336 2.347 2.34 2.34 0 0 0 2.335-2.347 2.344 2.344 0 0 0-2.335-2.352zm14.253.586a2.345 2.345 0 0 0-2.335 2.351 2.34 2.34 0 0 0 2.335 2.347 2.34 2.34 0 0 0 2.336-2.347 2.345 2.345 0 0 0-2.336-2.351zm-14.282.188c.864 0 1.567.707 1.567 1.578 0 .87-.703 1.573-1.567 1.573a1.569 1.569 0 0 1-1.567-1.573c0-.87.702-1.578 1.567-1.578zm14.253.586c.865 0 1.567.707 1.567 1.577s-.702 1.573-1.567 1.573a1.569 1.569 0 0 1-1.566-1.573c0-.87.702-1.577 1.566-1.577zm23.846.803a2.345 2.345 0 0 0-2.336 2.352 2.34 2.34 0 0 0 2.336 2.347 2.34 2.34 0 0 0 2.335-2.347 2.344 2.344 0 0 0-2.335-2.352zm-.03.774c.866 0 1.568.707 1.568 1.578 0 .87-.702 1.573-1.567 1.573a1.569 1.569 0 0 1-1.567-1.573c0-.87.702-1.578 1.567-1.578zm-49.52.121l7.006 1.805-1.63 7.4-7.905-2.115zm88.635-.19c1.146 3.614-.957 8.25-1.063 8.552-1.274 3.636-2.806 6.607-3.364 6.78-.475.181-.684.065-.683-.382 0-.687 1.566-5.343 2.797-8.338.302-.734 1-2.951 1-3.324 0-.56-.537.353-1.12 1.751-1.127 2.797-2.772 5.791-3.128 8.502-.256 2.216-.674 1.903-.98-.735-.426-3.662.37-5.546 4.459-10.646.978-1.22 1.982-2.474 2.082-2.16zm-51.474 1.88l2.028 7.243-8.27 1.423-1.289-7.346zm-34.63.73a2.345 2.345 0 0 0-2.335 2.352 2.34 2.34 0 0 0 2.336 2.347 2.34 2.34 0 0 0 2.335-2.347 2.345 2.345 0 0 0-2.335-2.352zm12.365.47l7.492.43.067 7.53-8.13-.354zm-12.393.304c.864 0 1.566.707 1.566 1.578 0 .87-.702 1.572-1.566 1.572a1.569 1.569 0 0 1-1.567-1.572c0-.87.702-1.578 1.567-1.578zm31.443.668a2.345 2.345 0 0 0-2.336 2.352 2.34 2.34 0 0 0 2.336 2.347 2.34 2.34 0 0 0 2.335-2.347 2.345 2.345 0 0 0-2.335-2.352zm-15.532.605a2.345 2.345 0 0 0-2.335 2.352 2.34 2.34 0 0 0 2.335 2.347 2.34 2.34 0 0 0 2.336-2.347 2.345 2.345 0 0 0-2.336-2.352zm15.503.17c.865 0 1.567.706 1.567 1.577 0 .87-.702 1.572-1.567 1.572a1.569 1.569 0 0 1-1.567-1.572c0-.87.703-1.578 1.567-1.578zm-15.532.604c.865 0 1.567.707 1.567 1.578 0 .87-.702 1.572-1.567 1.572a1.569 1.569 0 0 1-1.566-1.572c0-.87.702-1.578 1.566-1.578zm51.089.45c.123-.003.286.02.394.02 1.673-.02 7.315 4.061 8.76 6.532 1.2 2.182.579 3.048-.802 1.099-1.905-2.136-5.424-5.307-5.873-5.309-.48-.002.182.69 2.423 2.89 2.222 2.18 4.567 5.024 4.565 5.53 0 .335-.442.292-1.077-.101-1.386-.86-2.59-1.73-3.205-2.313a73.958 73.958 0 0 0-1.58-1.442c-2.073-1.83-4.435-6.048-3.769-6.857.03-.036.09-.047.164-.049zm-104.532.6c1.443-.042 3.072.882 3.138 2.575.047 1.195.128 1.287 1.202 1.306 1.024.019 3.983.373 3.983.373l.02 3.348s-1.43-.009-3.076-.087c-2.804-.133-2.792-.137-3.148 1.104-.144.501-.344.748-.903 1.117-2.518 1.666-4.946-1.356-3.383-4.21.536-.98.567-1.314.197-1.901-.754-1.704.249-3.54 1.97-3.625zm.615 1.713c-.31 0-.65.135-.96.445-.416.415-.42 1.597 0 2.284.394.658.384.835-.078 1.268-.813.764-.836 2.278-.043 2.848.723.52 1.49-.166 1.495-1.217 0-1.15.804-1.13.804-1.13l5.268.092.017-.864-3.822-.193c-.532-.002-1.088-.053-1.498-.333-.435-.303-.93-.828-.457-1.467.662-.896.072-1.739-.721-1.733zm-11.418 1.98l2.499 4.277 2.912.107.255 2.603 3.54 2.296-3.627 2.136-.179 2.62-2.747.347-2.552 3.218-2.446-3.213-2.696.014-.039-2.685-3.71-2.405 4.06-2.299-.042-3.068 2.878-.193 1.894-3.756zm88.27 1.945l.12 2.584-4.09.73.534-2.632zm-26.21 2.603l5.512.17-.317 36.269-1.293-.01-.024-1.413-1.764.058-1.792-1.094zm-62.06.92l-3.234 4.123 3.916 3.445 3.45-4.031zm63.713.551v1.67h2.311v-1.67zm-63.64 1.428l2.277 1.679-1.735 2.308-2.196-1.916zm88.312.948l-.072 19.85c-7.574 5.985-9.934 16.521-9.933 16.521l-3.08-.184 7.828-34.967zm-41.054.44c-6.816 3.266-13.684 5.738-20.444 13.526 2.618 2.372 5.384 4.79 7.843 8.831 5.628-.844 11.889.17 18.718 2.875zm16.382.446v1.727h2.311v-1.727zm-76.606 2.492a5.97 5.97 0 0 1 .22 1.094c4.998-.422 3.724 5.418.539 5.618-.374.048.309 1.035 1.052 1.35 1.893.8 3.253.286 4.494-1.38.951-1.277 1.009-1.46 1.009-1.46l3.085 1.645s.088-.046-.457 1.379c-.991 2.592.455 5.772 1.572 3.455.595-1.235 2.344-1.938 3.556-1.428 1.416.597 1.906 3.143.913 4.748-.3.484-.31.586-.125 1.035.278.676.45 2.415.159 2.976-.378.728-.813.894-1.663.3-1.164-.812-1.815-1.15-3.84-1.718-3.556-.673-4.252-1.933-5.666-4.878-4.211 1.27-10.513-1.388-9.673-7.684.382-1.39.487-4.057-.217-4.602-1.378-1.07.135-2.612 2.206-2.86 1.703-.17 2.522 1.454 2.836 2.41zm59.58-1.824l5.478 23.102c-6.013-2.218-11.914-3.949-17.137-2.662-2.392-3.843-4.43-5.734-7.083-8.231 5.169-6.275 11.74-9.786 18.742-12.21zm-61.983 1.132c-.355-.004-.755.15-1.173.523 0 0 .37.312.572.735.322.677.326.677-.039 2.178-1.67 6.018 2.293 9.999 7.93 8.26 1.384-.431 1.33-.384 1.73 1.253.656 2.695 2.548 4.086 6.31 4.598.23.031.616.107.922.295 1.654 1.062.976-.351.524-.9-.323-.43-.913-.857-.913-.857s.504-.329.74-.455c1.061-.566 1.457-2.785.581-3.261-.799-.435-2.159.221-2.162 1.045-.01 1.505-1.893 1.665-3.543.414-2.119-1.606-.242-5.653-.23-5.648l-1.194-.528c.159.141-2.516 3.967-5.806 2.633-2.297-.932-3.917-3.612-2.851-4.376.776-.21 1.707.22 2.297-.238 1.175-.928.227-2.556-1.452-2.497-.352.013-1.153.17-1.153.17.088-.759.281-1.292.188-2.023-.098-.732-.602-1.314-1.279-1.321zm79.033 1.757v1.422l2.287.015v-1.423zm-.024 2.932v1.466h2.311v-1.466zm0 3.16v1.5h2.311v-1.5zm0 2.947v1.587h2.311v-1.587zm0 2.957v1.48h2.311v-1.48zm0 3.014v1.496h2.311v-1.496zm-75.15 1.462l1.946 3.31 2.311.101.091 2.275 3.931 3.024-3.436 2.473-.25 2.453-2.724.088-2.206 3.745-2.715-3.286-2.182-.353-.25-2.99-3.359-2.531 3.157-2.54.255-2.658 2.571.228zm127.91 1.582c.211.004.44.063.688.189.817.415 1.074.463 3.196.571 2.46.125 3.33.346 4.55 1.166.736.495.78.492 1.567-.034 3.456-2.305 7.402-.21 7.69 4.085.074 1.128.187 1.583.629 2.53.301.657.613 1.174.432 1.592-.554 1.28-3.216 1.361-4.666-.537-.26-.286-.523-.41-.884-.411-.72.27-2.563-1.19-2.542-1.253-.172 1.016-.257 1.823-.438 3.3l-3.224-.048s-.072-.595-.221-2.672c-.172-2.386-.761-3.084-1.519-1.795-1.304 2.22-4.769 1.244-4.969-1.398-.068-.896-.118-1.013-.605-1.39-1.632-1.262-1.157-3.925.317-3.895zm-52.76.13v1.327h2.311v-1.326zm53.13 1.419c-.64.046-.275 1.19.784 1.795.601.343.603.34.524 1.394-.143 1.907 1.683 2.842 2.494 1.277.14-.27.201-.615.144-.847-.34-1.386 2.638-1.008 3.354.426.165.33.35 1.206.438 2.09.084.84.106 1.81.106 1.81h.951s-.01-.578.043-1.132c.236-2.369 1.277-3.867 2.682-3.861.6.002.62.11.201.89-.709 1.32-.026 2.278 1.63 2.289 1.05.007 1.046.009 1.436.76.43.825.754 1.086 1.154.934.282-.108.287.051-.082-2.764-.55-4.193-2.974-5.323-6.32-2.947-.946.673-1.154.653-1.994-.164-1.259-1.224-2.056-1.505-4.517-1.597-1.173-.044-2.329-.16-2.566-.256a1.063 1.063 0 0 0-.462-.097zm-79.412 1.2c-.547.009-1.182.125-1.733.173.611 3.24.896 6.482 1.176 9.723 2.818-.493 6.468-.034 11.283 2.226 2.955 1.386 6.564 3.757 10.347 6.431 4.095 2.895 8.895 4.605 12.983 5.498 4.979 1.089 8.977.995 8.868.759-.22.037-1.795-7.95-1.588-9.658-6.887-.637-13.537-3.205-18.62-6.684-6.728-4.605-14.506-8.61-22.716-8.468zm26.282.27v1.346h2.311v-1.345zm-75.852.267l-3.657 3.837 3.98 3.794 3.377-3.866zm-.1 1.742l2.07 1.999-1.672 2.134-2.33-2.023zm51.563.315c.488.004.964.348 2.576 1.258 1.352.939 2.431 1.525 2.038.053.308-.424 1.805.955 3.57 1.824 2.128 1.717 2.136 1.303 2.413.45.285-.623.678-.201 2.379 1.384 2.233 2.084 2.033 2.087 2.48 1.568.508-.973.678-.963 2.498 1.142 1.892 2.126 2.292 2.58 2.696 1.67.623-.471.945-.014 3.513 2.414 1.263 1.269 1.56 1.072 1.797.218.245-.88.314-.681 2.446 1.021 2.47 1.99 2.714 2.136 2.816 1.447.164-1.094.929-.706 3.47 1.133 1.54 1.108 2.122 1.416 2.451 1.142.336-.598-.835-1.746 1.648-.663l.683 3.629-.86-.247c-.529-.151-1.686-.546-1.25.586.252.653-.373.576-2.302-.581-2.763-1.657-3.273-2.038-3.48-1.699-.364 1.241-.318 1.32-2.18-.15-2.17-1.655-2.605-2.113-2.908-1.548-.04 1.25-.645.996-2.667-.76-1.71-1.505-2.074-2.292-2.84-1.14-.21.4-.421.3-.704.091-.994-.74-2.994-2.865-3.559-3.475-.444-.488-.697-.33-1.062.072-.34.376-.367.26-1.47-.76-2.636-2.434-3.126-3.042-3.494-2.71-.3.571-.013 1.347-2.038-.26-2.539-1.842-3.641-2.66-3.47-1.453-.435.54-.13.647-2.671-.769-2.416-1.345-2.722-1.75-3.071-1.287-.237.73-1.048.468-1.048.426l-.49-3.693.87.01s.836-.343 1.22-.343zm-19.38.31c-.194.57-1.527 3.864-1.543 12.247.16.198 3.302-3.028 3.455-6.034.145-2.85-1.906-6.222-1.913-6.214zm43.764.232v1.529h2.312v-1.53zm-43.6 1.212c2.939 4.69-.3 9.113-1.106 9.425 0-3.525.515-6.839 1.107-9.425zm77.11 3.94c-4.83 3.065-4.046 11.36-1.676 13.484.174 0 1.696-8.96 1.676-13.484zm-.662 1.02l-1.3 10.676c-1.688-1.884-1.988-7.498 1.3-10.675zm30.461 1.802l2.552 3.233 2.268.17.505 2.332 3.311 2.715-3.316 2.264-.293 2.584-2.465.252-2.442 3.866-2.388-3.789-2.287-.246-.072-2.488-3.595-2.67 3.431-2.077.067-2.811 2.686.01zm-90.37 1.012c-1.62 7.763-5.493 13.075-10.956 16.646l.029.784-9.203 3.717c-2.015 9.47-5.64 18.708-13.24 27.375l2.12 4.335-10.28 3.557 14.716 25.41c1.013 0-7.13 3.881-16.96 2.87 6.221 15.337 7.504 31.215 4.061 45.12l48.167-.203-36.811-72.737-.6-1.186c-.512-.95 19.568 2.843 15.305 21.597-.06.434.09.49.332.31 3.903-3.377 29.828-12.74 50.53-.378l6.152-2.564c-2.927 10.319-6.255 17.418-11.865 23.639l.951 14.687c9.927-8.186 20.698-23.214 22.145-43.185 4.47-2.193 8.358-4.684 12.523-7.03l.553.178 2.696-1.63c-8.647-9.525-26.301-18.629-37.614-21.022l.668 3.228c-6.242-1.688-10.91-2.055-15.767-2.58l-.745-34.173-6.286-3.731-.197 37.697c-4.7.058-15.508 1.926-15.508 1.926l.486-3.223-4.95 1.026-.086-3.141 5.594-1.616 8.112-34.629zm.678.77l2.586.527-8.03 33.95s-4.505 1.254-4.782 1.08c-.359-6.367-.495-19.342-.495-19.342 7.925-6.652 9.166-11.362 10.721-16.216zm-55.115 2.491c1.21-.015 2.512.871 2.595 1.67.207.492.38.705.706.75 2.026.282 2.09.822 2.148 1.999-.285 2.255 1.214.362 1.639-1.878.044-.233.019-1.945.019-1.945l2.48-.025s.084 1.787.12 2.072c.218 1.732.952 3.136 1.46 2.216 1.745-3.155 5.74-1.546 5.11 1.495-.156.72-.146.765.34 1.312.794.891 1.09 1.834.827 2.656-.256.803-.813.925-2.014.44-.564-.227-1.247-.308-3.075-.362-2.586-.077-2.747-.126-3.754-1.109l-.634-.619-1.096.649c-1.824 1.079-3.483 1.12-5.41.125-1.256-.647-1.987-2.2-2.182-4.621-.037-1.286-.396-2.218-1.187-2.526-.428-.405.049-1.21.778-1.945a1.94 1.94 0 0 1 1.13-.354zm144.596.368l-3.407 4.278 4.05 3.649 3.773-4.467zm-78.923.615l4.72 2.72.605 33.69-5.334-.15.01-36.26zm-65.544.47c-.359.035-.133.614.13 1.5.236.791.296 1.283.221 1.833-.5 3.692 3.703 5.57 6.738 3.01.806-.93.939-.87 1.614.126.833 1.05 2.044 1.392 4.585 1.239 1.16-.07 1.928.553 2.432.14.363-.265.01-.97-.692-1.379-.43-.25-.446-.29-.36-1.157.215-2.185-1.575-2.763-2.846-.919-1.05 1.524-2.632.517-3.143-1.999-.303-1.935-.545-1.905-.773-.217-.248 2.052-2.932 4.276-4.003 3.266-.294-.297-.29-.223.01-1.253.387-1.322.077-1.815-1.356-2.158-.234-.057-.504-.254-.596-.436-.758-1.182-.725-1.597-1.96-1.597zm144.808.783l2.163 1.878-1.884 2.24-2.302-1.78zm-77.784 1.2v1.592h2.019v-1.592zm0 3.208v1.675h2.019v-1.675zm12.159 1.926c2.262 8.46 4.542 16.91 6.814 25.367 2.152-.866 14.581-6.42 20.443-13.53-.223.018-5.33-5.01-7.117-8.27-5.862.973-12.596-.265-20.14-3.567zm-12.159 1.007v1.563h2.019v-1.563zm13.432.426c5.343 1.604 12.186 3.817 18.487 2.69 1.625 2.94 3.977 5.36 6.632 7.593-4.769 5.224-11.665 9.209-18.8 12.277zm50.709.61c.268.002.54.104.802.338.846.757 1.497 1.019 3.225 1.302 2.783.456 4.905 2.206 5.507 4.54.253.98.392 1.033 1.778.681 5.251-1.33 9.299 3.054 8.05 8.904-.437 2.043-.57 2.288.039 3.097 1.334 1.45 1.624 1.468.163 2.744-1.33 1.204-3.972.622-4.532-1.33-.535-1.07-.527-1.151-1.408-1.293-3.426-.55-3.285-5.322-.058-5.874.27-.046.47.009.606-.053.916-.418-.999-2.6-2.58-2.265-1.942.41-2.908 1.664-3.672 3.63l-3.057-1.757c.767-1.597 1.33-3.654.663-4.927-.538-1.073-1.219-1.114-1.427-.087-.49 2.417-3.473 3.138-5.43 1.171-1.094-1.099-1.222-2.279-.418-3.871.52-1.03.533-1.104.312-1.539-.77-1.513.272-3.418 1.437-3.411zm-64.14 1.964v1.631l2.022-.01v-1.621h-2.018zm64.515.136c-.621.005-.617.614-.043 1.355.51.521.61.76-.096 1.21-.885.825-1.078 2.067-.467 3.014.918 1.422 3.035.63 2.793-1.045-.17-1.175.746-1.7 2.205-1.258 2.121.643 3.131 3.03 2.297 5.434-.157.453-.47 1.51-.47 1.51l.627.383s.743-1.195 1.034-1.558c2.409-2.982 8.104-1.47 7.47 2.259-.099 1.172-.094 1.33-1.36.963-.843-.437-1.655.47-1.63 1.602.042 1.02.92 1.838 2.139 1.674.965-.182 1.208-.15 1.138 1.161.1.912.437 1.515 1.029 1.825 1.438.598 2.178-.226 1.028-1.438-.696-.733-.654-1.868-.216-2.932.524-1.272.25-4.069-.553-5.647-1.156-2.273-4.393-3.226-7.102-2.09-1.239.666-1.374.82-1.495-.35-.679-2.899-2.845-5.09-5.546-5.283-1.038-.075-2.119-.646-2.782-.79zm-64.516 2.961v1.505h2.023v-1.505zm0 2.942v1.66h2.019v-1.66zm0 3.238v1.66s1.104-.031 2.019 0v-1.66zm65.914 2.661l2.21 3.29 2.447.165.288 2.657 3.71 2.328-3.215 2.027-.024 2.57-3.066.261-2.71 3.62-2.307-3.194-2.307.01-.543-2.85-4.084-2.086 4.19-2.405-.115-2.995 2.85-.02 2.676-3.377zm-65.914.392v1.704h2.019v-1.704zm0 3.122v1.684h2.019v-1.684zm64.674 1.253l-3.167 4.244 4.268 3.552 3.393-4.293zm-64.674 1.698v1.844h2.019v-1.844zm65.001.223l2.201 1.713-1.571 2.008-2.187-1.679zm-65 3.184v1.544h2.018v-1.544zm-60.07.199c-3.892.017-7.572 6.363-8.454 9.368-1.042 3.85-1.197 10.813-.207 11.009 3.488-2.527 5.141-6.81 7.761-10.017.407 3.708.343 10.86.343 10.86s-1.55.822-2.387 2.12c-.603 1.08-.796 2.369-.281 3.57-1.94-.634-5.452.082-5.652 3.687.126 5.077 5.631 4.362 5.652 4.292-.117-.03-1.084 5.4 3.8 5.977 1.754.206 4.838-1.08 3.922-6.02 3.084.512 5.743-1.198 5.777-4.186.039-2.047-1.506-3.807-4.167-3.818-.555-.002-1.725.252-1.725.252.037-.295 1.065-3.473-2.514-5.778l-.562-14.697s1.235 1.356 1.788 1.868c2.378 2.205 3.93 3.315 6.675 4.772 2.671 1.418 2.341 1.068 1.879-1.626-1.262-4.047-3.9-7.104-9.482-10.927-.718-.492-1.446-.71-2.167-.706zm.384.314l.783 20.786-1.158-.002-.995-20.765zm114.508.687c.103-.004.208 0 .317.01 2.518.214 3.164 3.048 2.033 4.307-.448.498-.602.605-.37.91 1.08 1.378.477 3.556-.591 3.89-3.398 1.064-3.913-.807-3.903-3.01l-5.247-.198.034-3.078 5.786.117c-.437-1.398.399-2.888 1.941-2.948zm-116.94.034a.32.32 0 0 1 .062 0c.544.047-.016 1.51-1.533 3.74-1.025 1.509-2.452 4.168-2.879 5.241-.934 2.35-1.563 6.562-.937 5.788.565-1.76.62-2.494 1.106-3.76.639-1.65 3.623-7.077 4.214-7.612.506-.457.637-.176.625 1.35-.026 3.438-1.644 7.056-5.503 11.29-.643.706-1.5 1.476-1.561 1.476-.372-.002-.362-.78-.356-2.415.025-6.495 2.42-12.294 6.103-14.788.288-.195.506-.296.659-.31zm3.907.3c1.692.499 4.731 3.235 5.983 4.64 1.45 1.577 3.393 5.94 3.051 6.611-.113.294-.358.248-1.206-.232-5.386-3.053-9.243-6.816-8.232-8.033.283-.34 1.44.36 2.99 1.81 1.052.94 2.131 1.895 3.094 2.85 1.514 1.5 1.854 1.721.942.053-.82-1.498-3.141-4.011-5.95-6.146-1.14-.867-1.4-1.567-.672-1.553zm113.364.876a.53.53 0 0 0-.187.034c-1.06.45-.628 1.832-.73 2.894l-5.825-.204-.034.813 5.464.3c.096.83-.333 2.62.37 2.923 1.529.64 2.364-1.344 1.067-2.535-.463-.414-.963-.597.322-1.181.846-.729.978-2.15.255-2.783a1.117 1.117 0 0 0-.702-.261zm-73.689.242l-.293 2.173-3.378.856-.086-2.323zm39.843.77c12.473 3.382 26.337 11.063 35.34 19.738l-1.801 1.19c-9.355-8.7-21.696-15.306-33.034-18.586zm-21.49.333c20.538-.057 39.262 7.983 54.37 20.968l-2.47 1.568c-13.781-11.472-29.05-19.122-49.594-20.034-13.427-.596-28.75 2.871-43.85 11.237l-1.125-2.057c14.667-8.053 29.065-11.644 42.669-11.682zm-1.615 3.117l8.078.237-.5 7.554-7.343-.242zm-8.689.537l1.14 7.288-7.031 1.32-1.995-7.306zm25.571.963l8.025 2.153-2.647 7.428-7.045-2.023zm-12.855.106a2.315 2.315 0 0 0-2.307 2.323 2.314 2.314 0 0 0 2.307 2.323 2.315 2.315 0 0 0 2.307-2.323 2.315 2.315 0 0 0-2.307-2.323zm0 .804c.85 0 1.538.678 1.538 1.519 0 .841-.688 1.524-1.538 1.524-.85 0-1.538-.683-1.538-1.524 0-.84.688-1.52 1.538-1.52zm-15.935.014a2.315 2.315 0 0 0-2.307 2.323 2.315 2.315 0 0 0 2.307 2.323 2.315 2.315 0 0 0 2.306-2.323 2.315 2.315 0 0 0-2.306-2.323zm0 .803c.85 0 1.538.679 1.537 1.52 0 .84-.688 1.524-1.537 1.524-.85 0-1.538-.683-1.538-1.524s.688-1.52 1.538-1.52zm31.77.934a2.315 2.315 0 0 0-2.307 2.323 2.315 2.315 0 0 0 2.307 2.323 2.314 2.314 0 0 0 2.306-2.323 2.315 2.315 0 0 0-2.306-2.323zm-44.721.271l2.378 7.109-6.81 2.778-2.551-7.022zm44.72.533c.85 0 1.539.678 1.538 1.52 0 .84-.688 1.523-1.537 1.523-.85 0-1.538-.683-1.538-1.524 0-.84.688-1.52 1.538-1.52zm13.341 1.703l7.223 3.842-3.734 6.794-6.733-3.532zm-60.474.615a2.315 2.315 0 0 0-2.307 2.322 2.315 2.315 0 0 0 2.307 2.323 2.315 2.315 0 0 0 2.307-2.323 2.315 2.315 0 0 0-2.307-2.322zm27.286.222l.337 7.177-6.396.454-1.163-7.132zm7.675.378l7.29 1.016-1.715 6.91-6.599-1.07 1.024-6.856zm-34.96.203c.848 0 1.537.678 1.537 1.52 0 .84-.689 1.524-1.538 1.524-.85 0-1.538-.684-1.538-1.525 0-.84.689-1.52 1.538-1.52zm23.883.929a2.315 2.315 0 0 0-2.307 2.323 2.315 2.315 0 0 0 2.307 2.322 2.315 2.315 0 0 0 2.307-2.322 2.315 2.315 0 0 0-2.307-2.323zm-11.649.29l1.889 6.983-7.03 2.028-2.158-6.717zm25.523.112a2.315 2.315 0 0 0-2.307 2.322 2.315 2.315 0 0 0 2.307 2.323 2.315 2.315 0 0 0 2.307-2.323 2.315 2.315 0 0 0-2.307-2.322zm-13.874.401c.85 0 1.538.679 1.538 1.52 0 .84-.689 1.524-1.538 1.524-.85 0-1.538-.683-1.538-1.524s.689-1.52 1.538-1.52zm13.874.402c.85 0 1.538.678 1.538 1.52 0 .84-.689 1.524-1.538 1.524-.85 0-1.538-.684-1.538-1.525 0-.84.689-1.52 1.538-1.52zm24.672.014a2.315 2.315 0 0 0-2.307 2.323 2.315 2.315 0 0 0 2.307 2.323 2.315 2.315 0 0 0 2.307-2.323 2.315 2.315 0 0 0-2.307-2.323zm-12.48.678l7.045 2.424-2.812 6.63-6.742-2.584zm12.48.126c.85 0 1.538.678 1.538 1.52 0 .84-.689 1.524-1.538 1.524-.85 0-1.538-.684-1.538-1.525 0-.84.688-1.52 1.538-1.52zm-52.996.246a2.315 2.315 0 0 0-2.307 2.323 2.315 2.315 0 0 0 2.307 2.323 2.315 2.315 0 0 0 2.306-2.323 2.315 2.315 0 0 0-2.306-2.323zm0 .804c.85 0 1.538.678 1.537 1.52 0 .84-.688 1.524-1.537 1.524-.85 0-1.538-.684-1.538-1.525 0-.84.688-1.52 1.538-1.52zm42.683 1.355a2.315 2.315 0 0 0-2.307 2.323 2.315 2.315 0 0 0 2.307 2.322 2.315 2.315 0 0 0 2.307-2.322 2.315 2.315 0 0 0-2.307-2.323zm0 .803c.85 0 1.538.678 1.538 1.52 0 .84-.689 1.524-1.538 1.524-.85 0-1.538-.684-1.538-1.524 0-.842.689-1.52 1.538-1.52zm-82.522.808c1.843.079 3.227 1.746 3.31 3.48.064 1.32-1.606 3.045-1.606 3.045l-1.945-1.812-1.866 1.731c-.315.106-1.766-2.376-1.323-3.66.577-1.674 1.765-2.855 3.43-2.784zm104.743 0l5.58 4.597s-2.45 1.5-2.903 1.767c.055-.2.082-.412.082-.63a2.315 2.315 0 0 0-2.307-2.322 2.315 2.315 0 0 0-2.306 2.322c0 1.1.763 2.025 1.782 2.265-.573.332-1.336.76-1.336.76l-2.945-2.487zm-8.833 12.287l-2.468 1.02c-15.193-10.049-35.976-15.548-59.735-5.43l-.817-1.983c17.638-7.396 39.89-9.699 63.02 6.393zm-1.35-10.041l5.978 3.692-3.796 5.87-5.839-3.76zm-1.807 11.381l-2.508.949c-18.545-11.998-38.31-11.359-55.971-4.167l-.273-1.685c20.796-9.066 41.666-6.181 58.752 4.903zm12.442-9.412c.85 0 1.538.679 1.538 1.52 0 .84-.689 1.524-1.538 1.524-.85 0-1.538-.683-1.538-1.525 0-.84.689-1.52 1.538-1.519zm-107.902 2.752l-2.062 2.095 1.883 2.13s-.598.509-1.03.746c-2.468 1.353-5.168-.783-5.04-3.09.189-3.362 4.211-4.964 6.25-1.881zm98.127-1.605a2.315 2.315 0 0 0-2.306 2.323 2.315 2.315 0 0 0 2.306 2.322 2.315 2.315 0 0 0 2.307-2.322 2.315 2.315 0 0 0-2.307-2.323zm-89.78.094c1.836.014 3.262 1.434 3.438 3.066.14 1.302-.532 2.552-1.981 3.437-1.967 1.2-4.251-.744-4.212-.863l1.658-1.65-1.993-2.054c-.058-.039 1.315-1.95 3.09-1.936zm-5.74.4l3.397 3.411-3.595 3.373-3.33-3.368zm89.6 9.078l-1.908.88-2.6-1.577-.769 1.485 1.447.925-1.504.567c-17.327-9.802-36.905-6.962-49.92-.457 0 0 .113-1.009.12-1.009l1.417-.727-.529-1.805-.76.222-.057-1.998c18.582-8.426 39.666-6.496 55.062 3.494zm5.92-8.769c.85 0 1.538.679 1.538 1.52 0 .84-.688 1.524-1.538 1.524-.849 0-1.538-.683-1.538-1.524s.689-1.52 1.538-1.52zm-95.593 1.22l-1.812 1.814 1.802 1.936 1.76-1.873zm56.716.401l-2.374.107.125 1.95 2.316-.058zm1.62.01l.042 1.95 2.153-.01-.01-1.926-2.186-.014zm3.82.034l-.106 1.94 2.139.097.153-1.93zm-9.227.247l-2.432.266.27 1.96 2.301-.271zm13.21.029l-.172 2.003 2.196.252.298-1.916zm-66.13.01l1.058 1.132-1.053 1.055-1.12-1.103zm48.82.595l-2.344.373.25 2.018 2.287-.455zm21.275 0l-.389 1.868 2.182.528.355-1.907zm-25.119.818l-1.97.527.428 1.965 2.08-.513zm28.863.077l-.413 1.897 2.225.61.447-1.82zm-32.116.944l-2.062.736.534 1.82 2.095-.712zm35.946.208l-.687 1.824 1.927.78.85-1.655zm-39.348 1.07l-1.956.808.807 1.805 1.855-.852zm-40.315.056l1.98 1.99 2.353-2.136c2.052 1.827 2.02 6.101-1.614 6.815-3.174.624-6.076-4.16-2.719-6.669zm83.195.384l-.754 1.674 2.128.944.736-1.611zm-60.724 10.743l26.864 45.976-4.248-.082-25.999-44.428zm-4.41 1.751l1.486 2.324c-2.909-2.332-7.185-.37-7.004 2.569.142 1.312 1.244 2.11 1.25.847-.133-1.321 1.726-2.472 3.075-2.41 2.49.033 4.01 3.254 2.292 4.858-1.13 1.048-2.659 1.001-2.143-.435.081-.496.041-.677-.192-.89-.715-.657-2.032.198-1.711 1.137.211.617.273.769-.461 1.277-2.849 2.014-.864 5.985 2.585 4.176.705-.256.992-.293 1.312-.17 1.435.557 2.413-.697 1.052-1.35-.79-.378-.81-1.025-.048-1.538 1.629-1.095 4.166.616 4.157 2.807-.01 1.55-2.037 2.695-3.984 2.245-1.157-.267-1.295.522-.235 1.34 2.055 1.587 5.131.272 6.05-2.584.29-.898.247-1.086.247-1.086l2.741 4.558s-.85-.406-1.363-.563c-2.581-.793-5.475.892-5.484 3.193 0 1.085.633 1.505.99.654.831-1.98 2.638-2.752 4.494-1.917 1.716.773 2.5 2.523 1.83 4.085-.702 1.635-3.057 2.116-2.792.57.128-.736-.319-1.186-1.105-1.112-.297.027-.68.898-.577 1.316.096.391.027.486-.98 1.277-2.394 1.88-.553 4.95 2.437 4.06.502-.149.689-.135 1.138.083 1.082.524 2.217.198 2.22-.64 0-.574-.255-.795-.932-.798-1.024-.004-.803-1.17.332-1.742 2.844-1.43 5.75 2.183 4.017 5-.744 1.21-1.214 1.334-3.873 1.04-.429-.048-.622.248-.367.6.786 1.122 3.127 1.478 4.49.856 1.47-.67 2.367-2.363 2.471-4.168l3.006 5.285c-2.338-2.461-6.371-1.52-7.02 2.004 0 .894.806 1.36 1.087.625 1.216-3.182 5.838-2.206 5.824 1.229 0 .553-.11.866-.461 1.35-.849 1.647-3.017 2.054-2.624.576.175-.458-.173-.955-.769-1.099-.587-.142-.961.354-.947 1.254.011.673.016.88.016.88-1.08.458-1.771 1.357-2.011 2.687l-21.042.047c2.502-14.686 1.914-27.947-2.87-40.489-.412-1.087-1.006-2.668-1.006-2.668l3.713.099c.896.782 4.282.479 5.605-.73zm3.573 5.767l2.173 3.931c-.9-.519-1.815-.863-3.215-.982.73-1.091.79-2.07 1.042-2.949zm-5.713 4.178c.792 0 1.432.645 1.432 1.442 0 .797-.64 1.442-1.432 1.442a1.44 1.44 0 0 1-1.437-1.442 1.44 1.44 0 0 1 1.437-1.442zm14.984 11.743l2.093 3.751c-1.018-.436-1.878-.863-3.47-.905.58-.68 1.08-1.824 1.377-2.846zm-6.036 4.018c.751 0 1.36.613 1.36 1.37a1.357 1.357 0 1 1-2.715 0c0-.757.605-1.37 1.355-1.37zm15.165 11.693l3.09 5.52c-1.215-.702-2.523-1.59-4.165-1.419.781-1.68 1.207-2.598 1.075-4.101zm-4.111 6.886l-3.315.012c.663-2.919 3.343-2.16 3.315-.012zm3.137-1.406c1.127.057 2.099.446 2.708 1.435l-4.171.01s.029-1.451 1.463-1.445z"/><path d="M3429.59-655.125s-4.645-7.631-10.912-16.603c-4.192-6.004-7.544-12.505-7.855-18.105-.358-6.397 3.025-12.814 9.15-13.125 6.121-.311 8.606 4.932 9.617 9.255 1.012-4.323 3.496-9.566 9.617-9.255 6.125.31 9.508 6.728 9.15 13.125-.311 5.6-3.663 12.1-7.855 18.105-6.266 8.972-10.912 16.603-10.912 16.603zM3532.66-505.185s-4.645 7.631-10.911 16.603c-4.192 6.004-7.544 12.505-7.855 18.105-.358 6.397 3.025 12.814 9.15 13.125 6.12.311 8.606-4.932 9.617-9.255 1.011 4.323 3.496 9.566 9.617 9.255 6.125-.31 9.508-6.728 9.15-13.125-.311-5.6-3.663-12.101-7.855-18.105-6.267-8.972-10.912-16.603-10.912-16.603z" fill="#d40000"/></g></svg>