<svg xmlns="http://www.w3.org/2000/svg" width="63mm" height="88mm" viewBox="0 0 223.22835 311.81102"><rect ry="10.664" rx="10.678" width="223.228" height="311.811" x="260.433" y="370.276" fill="#fff" stroke="#000" stroke-width="1.001" transform="matrix(.99554 0 0 .9968 -258.773 -368.593)"/><path d="M111.61 33.503c-9.774.213-14.157 11.218-6.918 19.764 1.05 1.246 1.158 1.962-.765.764-4.874-3.259-14.22-1.116-14.698 8.848-.59 12.276 16.563 15.814 19.784 2.76.17-1.378 1.29-1.347 1.02.608-.294 5.307-1.951 10.266-4.23 15.103h11.621c-2.278-4.837-3.935-9.796-4.229-15.103-.27-1.955.85-1.986 1.02-.609 3.22 13.055 20.375 9.517 19.784-2.76-.479-9.963-9.824-12.106-14.698-8.847-1.923 1.198-1.815.482-.765-.764 7.24-8.546 2.856-19.551-6.918-19.764h-.01zM111.61 279.137c-9.774-.213-14.157-11.218-6.918-19.764 1.05-1.246 1.158-1.962-.765-.764-4.874 3.259-14.22 1.116-14.698-8.848-.59-12.276 16.563-15.814 19.784-2.76.17 1.378 1.29 1.347 1.02-.608-.294-5.307-1.951-10.266-4.23-15.103h11.621c-2.278 4.837-3.935 9.796-4.229 15.103-.27 1.955.85 1.986 1.02.609 3.22-13.055 20.375-9.517 19.784 2.76-.479 9.963-9.824 12.106-14.698 8.847-1.923-1.198-1.815-.482-.765.764 7.24 8.546 2.856 19.551-6.918 19.764h-.01zM111.61 132.397c-9.774.212-14.157 11.217-6.918 19.763 1.05 1.247 1.158 1.962-.765.765-4.874-3.26-14.22-1.117-14.698 8.847-.59 12.277 16.563 15.814 19.784 2.76.17-1.378 1.29-1.346 1.02.609-.294 5.306-1.951 10.266-4.23 15.102h11.621c-2.278-4.836-3.935-9.796-4.229-15.102-.27-1.955.85-1.987 1.02-.61 3.22 13.055 20.375 9.518 19.784-2.76-.479-9.963-9.824-12.106-14.698-8.846-1.923 1.197-1.815.482-.765-.765 7.24-8.546 2.856-19.55-6.918-19.763h-.01zM205.592 261.5c3.91-.09 5.663-4.675 2.767-8.236-.42-.519-.463-.817.306-.318 1.95 1.358 5.688.465 5.88-3.687.236-5.115-6.626-6.589-7.914-1.15-.068.574-.516.561-.408-.253.118-2.211.78-4.278 1.691-6.293h-4.647c.91 2.015 1.574 4.082 1.691 6.293.108.814-.34.827-.408.254-1.288-5.44-8.15-3.966-7.913 1.15.191 4.151 3.93 5.044 5.879 3.686.77-.5.726-.201.306.318-2.896 3.561-1.143 8.147 2.767 8.235.001 0 0 0 0 0zM17.637 50.312c-3.91.088-5.663 4.674-2.767 8.235.42.52.463.817-.306.318-1.95-1.358-5.688-.465-5.88 3.687-.236 5.115 6.626 6.589 7.914 1.15.068-.574.516-.561.408.253-.117 2.211-.78 4.278-1.691 6.293h4.647c-.91-2.015-1.574-4.082-1.69-6.293-.109-.814.339-.827.407-.253 1.288 5.439 8.15 3.965 7.913-1.15-.191-4.152-3.93-5.045-5.879-3.687-.769.5-.726.201-.306-.318 2.896-3.561 1.143-8.146-2.767-8.235zM6.976 39.976l2.529-1.863c2.195 3.58 4.65 5.937 8.405 5.532 5.634-.388 7.97-6.302 6.79-10.758-1.14-3.997-5.806-5.945-9.515-3.813-.875.505-1.72.917-1.885.917-.39 0-1.27-1.754-1.15-2.29 2.49-3.64 8.535-10.017 8.535-10.017H11.24v4.271H7.616v-7.663h18.459v2.6s-4.946 5.136-6.58 7.949c4.025.147 7.27 2.702 8.435 6.74.68 2.126.375 6.99-.515 9.085-1.486 3.495-5.545 6.33-9.255 6.493-6.23.419-9.535-3.951-11.184-7.183zm0 0M216.251 271.835l-2.529 1.863c-2.195-3.58-4.65-5.937-8.405-5.532-5.635.388-7.97 6.302-6.79 10.758 1.14 3.998 5.806 5.945 9.515 3.814.875-.506 1.72-.918 1.885-.918.39 0 1.27 1.754 1.15 2.29-2.49 3.64-8.535 10.017-8.535 10.017h9.445v-4.27h3.624v7.662h-18.459v-2.6s4.946-5.136 6.58-7.949c-4.025-.147-7.27-2.701-8.435-6.74-.68-2.126-.375-6.99.515-9.085 1.486-3.494 5.545-6.33 9.255-6.492 6.23-.42 9.534 3.95 11.184 7.182zm0 0"/></svg>