<svg xmlns="http://www.w3.org/2000/svg" width="63mm" height="88mm" viewBox="0 0 223.22835 311.81102"><rect y="370.276" x="260.433" height="311.811" width="223.228" rx="10.678" ry="10.664" fill="#fff" stroke="#000" stroke-width="1.001" transform="matrix(.99554 0 0 .9968 -258.773 -368.593)"/><path d="M17.638 70.248c0-.003-2.214-3.18-5.202-6.918-1.999-2.501-3.596-5.21-3.745-7.543-.17-2.666 1.442-5.34 4.362-5.47 2.919-.129 4.103 2.056 4.585 3.857.483-1.801 1.667-3.986 4.586-3.856 2.92.13 4.533 2.803 4.362 5.469-.148 2.333-1.746 5.042-3.745 7.543-2.988 3.739-5.2 6.916-5.203 6.918zM205.59 241.563c0 .003-2.214 3.18-5.202 6.918-1.999 2.502-3.596 5.21-3.745 7.544-.17 2.665 1.442 5.339 4.362 5.469 2.919.13 4.103-2.056 4.586-3.857.482 1.801 1.666 3.986 4.585 3.857 2.92-.13 4.533-2.804 4.362-5.47-.148-2.333-1.746-5.041-3.745-7.543-2.988-3.738-5.2-6.915-5.202-6.918zM60.079 80.935c0-.006-4.646-7.63-10.912-16.603-4.192-6.004-7.544-12.505-7.856-18.105-.357-6.396 3.026-12.814 9.15-13.125 6.122-.31 8.606 4.932 9.618 9.255 1.011-4.323 3.496-9.566 9.617-9.255 6.125.311 9.508 6.729 9.15 13.125-.311 5.6-3.663 12.101-7.855 18.105-6.267 8.972-10.908 16.597-10.912 16.603zM163.15 80.935c0-.006-4.646-7.63-10.912-16.603-4.193-6.004-7.544-12.505-7.856-18.105-.357-6.396 3.026-12.814 9.15-13.125 6.122-.31 8.606 4.932 9.618 9.255 1.011-4.323 3.496-9.566 9.617-9.255 6.124.311 9.507 6.729 9.15 13.125-.312 5.6-3.663 12.101-7.855 18.105-6.267 8.972-10.909 16.597-10.912 16.603zM163.15 230.876c0 .006-4.646 7.63-10.912 16.603-4.193 6.004-7.544 12.505-7.856 18.105-.357 6.396 3.026 12.814 9.15 13.125 6.122.31 8.606-4.932 9.618-9.255 1.011 4.323 3.496 9.566 9.617 9.255 6.124-.311 9.507-6.729 9.15-13.125-.312-5.6-3.663-12.101-7.855-18.105-6.267-8.972-10.909-16.597-10.912-16.603zM60.079 230.876c0 .006-4.646 7.63-10.912 16.603-4.192 6.004-7.544 12.505-7.856 18.105-.357 6.396 3.026 12.814 9.15 13.125 6.122.31 8.606-4.932 9.618-9.255 1.011 4.323 3.496 9.566 9.617 9.255 6.125-.311 9.508-6.729 9.15-13.125-.311-5.6-3.663-12.101-7.855-18.105-6.267-8.972-10.908-16.597-10.912-16.603zM17.867 47.183v-2.906h2.62v-4.792h-13.1v-3.382l14.174-21.81 2.316.011v21.8h4.01v3.38h-4.01l-.076 4.793h2.195v2.91h-8.129zm2.62-24.906l-9 13.827h9V22.277zm0 0M205.359 264.629v2.905h-2.62v4.793h13.1v3.381l-14.174 21.811-2.316-.012v-21.799h-4.01v-3.382h4.01l.076-4.792h-2.195v-2.91h8.129zm-2.62 24.905l9-13.827h-9v13.827zm0 0" fill="#d40000"/></svg>