<svg xmlns="http://www.w3.org/2000/svg" width="238.11" height="332.599" viewBox="0 0 223.22771 311.81164"><g transform="matrix(.99553 0 0 .9968 -460.47 30.846)"><rect ry="10.664" rx="10.678" width="223.228" height="311.811" x="463.035" y="-30.445" fill="#fff" stroke="#000" stroke-width="1.001"/><path d="M480.253 39.528c-2.161-3.568-4.435-7.037-7.276-10 2.841-2.962 5.115-6.431 7.276-10 2.16 3.569 4.434 7.038 7.275 10-2.841 2.963-5.114 6.432-7.275 10zM669.047 231.393c-2.16-3.569-4.434-7.037-7.275-10 2.84-2.963 5.114-6.431 7.275-10 2.161 3.569 4.435 7.037 7.276 10-2.841 2.963-5.115 6.431-7.276 10zM574.65 149.46c-5.187-8.564-10.643-16.889-17.461-24 6.818-7.11 12.274-15.434 17.46-24 5.187 8.566 10.643 16.89 17.461 24-6.818 7.112-12.274 15.436-17.46 24zM470.16 16.393V13.57h2.691l5.736-30.178h3.264l6.318 30.178h2.174v2.822h-7.408V13.57h2l-.8-4.625h-7.473l-.577 4.625h2v2.822h-7.926zm13.338-10.74L480.25-10.5l-3.043 16.152h6.292zm0 0M658.954 234.528v2.822h2.692l5.735 30.178h3.265l6.318-30.178h2.174v-2.822h-7.408v2.822h1.999l-.799 4.625h-7.473l-.578-4.625h2v-2.822h-7.925zm13.339 10.741l-3.25 16.153-3.042-16.153h6.292zm0 0" fill="#d40000"/></g></svg>