<svg xmlns="http://www.w3.org/2000/svg" width="63mm" height="88mm" viewBox="0 0 223.22835 311.81102"><g transform="matrix(1 0 0 1 -3633.726 1088.87)"><rect ry="10.63" rx="10.63" width="222.232" height="310.814" x="3634.234" y="-1088.37" fill="#fff" stroke="#000" stroke-width=".997"/><path d="M3839.328-827.37c3.91-.088 5.663-4.673 2.768-8.234-.42-.52-.463-.817.306-.318 1.95 1.358 5.687.465 5.879-3.687.236-5.115-6.625-6.59-7.914-1.15-.068.574-.516.561-.408-.253.118-2.211.78-4.278 1.692-6.293h-4.648c.911 2.015 1.574 4.082 1.691 6.293.109.814-.34.827-.407.253-1.289-5.44-8.15-3.965-7.914 1.15.192 4.152 3.93 5.045 5.88 3.687.768-.5.725-.201.305.318-2.896 3.561-1.142 8.146 2.767 8.235.001 0 0 0 0 0zM3651.374-1038.556c-3.91.088-5.663 4.674-2.768 8.235.42.519.463.817-.306.318-1.95-1.358-5.687-.465-5.879 3.686-.236 5.116 6.625 6.59 7.914 1.15.068-.574.515-.56.407.254-.117 2.211-.78 4.278-1.691 6.293h4.648c-.911-2.015-1.574-4.082-1.692-6.293-.108-.815.34-.828.408-.254 1.289 5.44 8.15 3.966 7.914-1.15-.192-4.151-3.93-5.044-5.88-3.686-.769.499-.725.201-.305-.318 2.895-3.561 1.142-8.147-2.767-8.235zM3652.167-1045.305h3.305l-4.855-12.146-3.709 5.13.026 7.016h2.605v3.618h-9.18v-3.618h3.024v-26.12l-3.024.012v-3.163h9.314v3.27h-2.57l-.055 12.73 8.13-12.837h-2.87v-3.163h9.91v3.163h-2.615l-6.694 10.49 6.555 15.624h2.91l.014 3.618h-10.19l-.03-3.624zm0 0M3838.532-820.62h-3.305l4.855 12.146 3.709-5.131-.026-7.015h-2.605v-3.618h9.18v3.618h-3.024v26.12l3.024-.012v3.163h-9.314v-3.27h2.57l.055-12.73-8.13 12.837h2.87v3.163h-9.91v-3.163h2.615l6.694-10.49-6.555-15.624h-2.91l-.014-3.618h10.19l.03 3.623zm0 0"/><path d="M3794.479-1062.507l-81.705.4 10.375 19.84c21.236-1.927 39.845-.213 59.232.426zm-55.802 69.757c-.085.115-3.399.98-3.061 1.738 8.652 18.696 12.517 33.909 16.13 53.123 1.827-1.496 4.781-1.436 4.781-1.436-1.457-7.135 7.456-8.025 7.514-.56 1.71.4 3.47.407 5.015 2.15.694-20.997 8.16-42.722 17.802-57.776-10.988 4.389-27.109 15.327-27.109 15.327s-13.415-5.592-21.072-12.566zm66.785 2.236c-14.623 14.008-20.346 52.896-19.297 53.432-18.85-.635-24.562 20.334-8.223 31.64-.646 2.194-2.242 3.978-3.478 5.916 1.685.973 3.525 1.181 5.363 1.385 1.395 1.669 2.766 3.594 4.28 3.752 1.645-1.045 2.813-2.574 4.182-3.896 1.708-.439 3.402-.924 5.023-1.671-1.436-2.021-3.138-4.065-3.181-5.958 14.206-10.106 12.256-23.849-.55-30.884 3.815-23.142 9.38-37.926 15.838-48.439zm-100.71 17.88c-1.858.914-2.872 2.845-4.22 4.36-1.85.085-3.633.723-5.396 1.516 0 0 4.238 5.906 3.975 6.224-13.74 9.08-13.628 22.352-.435 31.095 2.235 18.89-13.672 48.782-14.475 47.913l-.029 6.18c11.321-12.484 17.787-35.034 18.432-53.243 22.608-1.519 23.409-23.559 7.845-31.849-1.197-1.107 3.913-6.229 3.913-6.229-1.297-1.288-3.467-1.435-5.367-1.593-1.2-1.445-2.245-2.887-4.244-4.375zm95.62 15.253c3.198 7.174 14.875-1.568 16.901 2.25 1.645 2.165 5.227 2.387 5.033-1.26-.673-3.613-3.03-4.413-12.38-2.84-3.548.597-5.002.95-4.98-.68-2.454-2.99-4.559 1.076-4.574 2.53zm10.846 10.47c-2.621-.003-3.067 10.34-3.029 13.445-7.59 12.095 15.57 10.72 5.554-2.456.35-1.721-1.277-4.528-1.232-5.77-.82-.105-1.181-4.775-1.293-5.22zm-135.561 15.599c-.24 3.128 2.032 12.622 2.876 12.3 2.967-4.823 2.615-8.948 2.308-13.658 7.069-13.724-17.075-8.091-5.184 1.358zm44.067 2.206c-1.054 20.202-5.96 40.022-17.074 57.21 9.567-4.499 18.852-10.305 27.838-15.274l20.997 13.114c1.216-.532 2.058-.795 2.864-1.598-9.676-14.28-12.671-34.834-16.887-53.428-1.604 1.148-4.62 1.724-4.62 1.724-.216 6.45-6.92 8.54-8.29.128zm-50.678 15.76c-2.24.144-3.924 5.739 2.42 6.567 4.478.64 10.211-1.585 13.055-.555 3.307 5.322 6.275-2.512 1.856-3.79-4.747-1.373-14.415 2.208-15.485-.836-.55-1.04-1.219-1.426-1.846-1.386zm38.083 87.502l-12.667 22.578 80.987-.492-10.586-21.535c.181-.24-35.371 4.265-57.734-.55z" fill="#e2cf00"/><path d="M3724.415-1040.106l1.605 2.938c18.97-3.154 33.907-3.647 53.533.18l1.791-3.06c-17.912-3.258-36.182-4.604-56.93-.058zm17.893 44.255l16.554 10.807s7.928-5.653 11.307-8.045l-2.051-3.04c-7.001 15.576-19.308 3.257-23.922-4.072 0 0-1.254 2.84-1.888 4.35zm44.463 5.229c1.147-.025 1.783.421 2.36 1.6.65 1.33.899 1.003.48-.657-.66-2.616 2.094-4.32 4.688-2.572 1.873 1.261 1.79 4.314-.256 4.879-1.653.457-1.696.894-.244.823 2.606-.128 3.298 3.38 1.444 5.095-2.131 1.973-4.848.575-5.096-1.899-.114-.7-.26-.69-.49-.293-.657 1.141-.718 2.625-.59 3.968l-3.85-2.41c1.371-.684 2.206-1.098 3.197-2.136.13-.136.227-.235.226-.294-.002-.106-.429.036-1.213.118-2.326.245-4.116-1.277-3.639-3.486.406-1.88 1.37-2.7 2.983-2.736zm-16.974 60.965c4.187-4.834 9.386-7.937 16.613-7.503.919-20.257 7.879-38.269 19.026-54.496l-12.263-7.44-4.92 2.995c-11.332 17.008-19.074 38.43-18.456 66.444zm-91.912-47.333s-8.3 6.275-12.157 9.305l.186 55.855 1.072.37c.077.12-.093-.828.398-1.261.402-.354 1.04-.756 1.418-.895 1.067-.392 1.115-1.11.119-1.73-.773-.482-1.067-1.226-.978-2.463.062-.873.026-1.064-.335-1.657-.448-.736-.486-1.668-.105-2.635.177-.449.16-.57-.156-1.176-.402-.772-.45-1.603-.15-2.499.114-.342.197-1.09.186-1.669-.04-2.224 1.78-3.7 5.14-4.165 1.314-.182 1.355-.237.751-1.349-3.403-6.274 4.244-9.544 4.816-8.54zm104.727 3.115c3.106-.045 5.662 2.456 5.707 5.59.045 3.136-2.438 5.716-5.544 5.761-3.106.046-5.661-2.46-5.706-5.595-.045-3.135 2.437-5.71 5.543-5.756zm.053 1.014c-2.487.036-4.472 2.099-4.436 4.609.036 2.51 2.08 4.518 4.567 4.482 2.487-.037 4.476-2.104 4.44-4.614-.036-2.51-2.084-4.514-4.571-4.477zm.116 1.442c1.687-.025 3.077 1.333 3.101 3.035.025 1.703-1.326 3.106-3.012 3.13-1.686.025-3.072-1.338-3.096-3.04-.025-1.702 1.32-3.1 3.007-3.125zm-111.653 2.332a2.23 2.23 0 0 1 .72.11c1.4.45 1.89 1.696 1.131 2.876-.596.928-.527 1.007.516.616.821-.308 1.24-.211 1.887.436 1.94 1.939-.948 5.199-2.848 3.224-.941-.979-1.03-.69-.378.99.211.544.56 1.39.56 1.39l-2.785-.041s.432-1.12.632-1.649c.482-1.274.498-1.46-.507-.659-2.266 1.807-4.836-1.285-2.75-3.306.424-.411 1.104-.43 2.051-.054.69.273.773.083.255-.574-1.127-1.429-.085-3.33 1.516-3.359zm57.727 5.006c-1.133 7.485-.144 17.989-.168 23.602 3.02.58 3.053 2.657 3.517 5.238 1.468-.517 4.678 1.672 5.117 1.48.334-7.595-3.578-29.64-8.466-30.32zm50.108 7.501c4.288.347 3.466 3.689 2.19 5.062-.606.704-.494 1.02.17.616 1.811-1.105 3.248-.307 3.832 1.595.997 3.25-3.235 6.048-5.122 3.132-.64-.988-1.031-.765-.874.27.096.996 1.06 3.06 1.06 3.06l-4.206-.38s1.285-2.158 1.511-2.74c.468-1.205.221-1.527-.677-.555-2.631 2.43-6.276-.68-4.578-3.902.838-1.588 2.382-2.102 4.05-.837 1.124.741 1.367.42.362-.478-1.879-1.679-.242-5.047 2.282-4.843zm-107.631 2.653c.048-.002.095-.003.143-.002.36.007.738.108 1.115.322 1.045.593 1.331 1.763.676 2.781-.377.586-.267.955.171.572.587-.512 1.882-.172 2.387.627 1.297 2.05-1.237 4.733-2.856 3.026-.714-.754-.988-.784-.905-.29.233.93.839 2.514.839 2.514l-2.914.051s.63-1.666.77-2.512c.106-.669-.158-.572-.852.219-.675.769-1.289.848-2.149.273-2.123-1.42-.423-5.066 1.791-3.841.763.422.87.178.274-.617-1.065-1.42.021-3.05 1.51-3.123zm151.248-1.302c-4.716 4.918-3.237 2.01-1.05 5.76.007 2.471 1.437 4.406.304 8.307-.363.762-.395 1.125-.196 1.892-.346 4.31-3.766 4.254-7.092 4.923.551-.036 5.27 8.761-3.533 9.45l.1 35.765 13.802-10.27-.06-55.827zm-103.568 18.882c-3.913 2.546-9.41 8.906-16.323 7.524-.837 22.314-8.092 39.59-18.442 54.436 3.574 2.132 7.507 4.691 11.161 6.332 3.09-1.609 4.825-2.28 7.857-4.798 12.441-19.399 16.387-40.605 15.747-63.494zm32.488 4.082c.699 11.46 2.546 22.312 8.452 31.019l.4-24.355c-2.105-.509-3.829-1.882-4.443-5.776zm-42.684 6.76l3.946.094s-.895 1.801-1.283 2.808c-.47 1.23-.247 1.48.653.626 1.171-1.113 3.038-1.217 4.02-.224 2.608 2.638-.12 6.936-3.204 5.05-1.321-.807-1.542-.536-.494.606 2.039 1.91-.09 4.659-2.473 4.67-1.722-.006-2.839-1.396-2.974-2.928-.066-.963.413-1.93 1.242-2.4.863-.49.245-.808-.693-.299-3.064 1.664-5.114-2.609-2.802-5.04 1.333-1.402 2.743-1.271 4.098.067.946.934 1.285.851 1.018-.254-.269-1.244-1.054-2.776-1.054-2.776zm106.532 3.354l2.828.003c-.278.707-.638 1.427-.863 2.125-.244.76-.066.857.683.122 1.95-1.321 4.029 0 3.606 2.093-.292 1.443-1.49 2.151-2.873 1.524-1.22-.553-.828-.316-.134.526.825 1.002.615 2.171-.476 2.945-1.93 1.37-4.478-.905-3.2-2.89.752-1.181.407-1.053-.279-.482-1.028.76-2.583-.316-2.614-1.807-.119-2.144 2.026-3.35 3.538-1.833.72.612.9.537.574-.353-.298-.647-.394-1.34-.79-1.973zm.152 15.596l2.963-.035s-.041.23-.498 1.095c-.536 1.017-.454 2.07.106 1.355.945-1.205 2.953-.87 3.611.604.767 1.717-.728 3.613-2.279 2.892-1.008-.468-1.077-.367-.407.61.652.95.363 2.119-.697 2.801-2.08 1.341-4.576-1.336-2.842-3.049.464-.458.318-.681-.245-.373-2.297 1.26-3.992-1.873-2.005-3.708.846-.781 1.493-.727 2.883.243.433.302.517-.01.205-.776-.532-1.306-.795-1.66-.795-1.66zm-110.013 1.876c3.298-.049 6.008 2.608 6.056 5.938.048 3.329-2.585 6.069-5.883 6.117-3.298.049-6.013-2.613-6.06-5.942-.049-3.33 2.588-6.065 5.887-6.113zm.068 1.076c-2.71.04-4.876 2.285-4.837 5.02.04 2.735 2.27 4.922 4.98 4.882 2.709-.04 4.875-2.29 4.836-5.026-.04-2.735-2.27-4.916-4.98-4.876zm.056 1.901c1.668-.024 3.038 1.319 3.062 3.003.024 1.683-1.306 3.07-2.974 3.095-1.668.025-3.043-1.323-3.067-3.007-.025-1.683 1.31-3.066 2.979-3.09zm-7.508 14.606l3.448 1.701s-1.63 1.34-2.279 2.03c-.83.888-.772 1.304.348.879 2.135-.81 4.274.403 4.314 2.64.053 2.986-3.445 4.423-5.125 2.162-.5-.672-1.096-.951-.862-.402.568 1.336.22 3.018-.77 3.71-.793.553-2.244.716-2.976.333-2.516-1.317-2.647-4.244-.24-5.4 1.21-.581 1.25-1.126.06-.827-2.478.624-3.924-2.404-2.136-4.483 1.897-2.208 4.99-1.751 5.332 1.515.06.581.453.16.629-.73.21-.66.257-3.128.257-3.128zm32.138 4.91s-12.625 7.252-12.24 7.558c.074.044 2.798 3.913 2.798 3.913 6.263-14.325 21.264-2.462 23.667 4.852.521.324.61.232 1.176.488.054-.516 1.094-5.596 1.094-5.596zm-20.695 52.897l-2.033 2.924c-.703.301 31.474 5.8 56.854.213l-1.756-3.364c-20.67 5.322-53.385.602-53.065.227z" fill="#d40000"/><path d="M3663.716-1064.54v263.155h163.269v-263.155zm48.952 2.034l81.972-.319-15.15 26.181c.145-1.38-29.457-5.61-53.65-.448zm-46.644.612h44.577l15.031 27.164s.883 1.697.356 3.473c-.576 1.937-1.07 2.798-1.588 3.787.052-.565-4.331-1.124-3.965 2.663.249 2.564 3.463 4.014 5.857 2.02.383-.033.38.325.296.951-.22 1.47-1.766 6.13-2.826 6.44-5.396-4.466-7.322 3.69-3.683 5.316 2.106.941 5.345.163 6.859-2.393 1.158-1.955 1.03-1.632 1.395.74.136.883.327 1.906.426 2.366.31 1.438 0 1.717-2.398 2.37-1.93.758-3.885 1.177-5.875 1.611-3.637.602-5.496 3.371-5.587 6.741-.02.729.006 1.066-.149 1.282-15.387 5.895-31.574 14.143-48.726 28.228zm102.329 64.6c-.583-.951-2.446-5.946-2.957-8.03-1.336-10.105-1.59-22.1-3.016-31.506l1.88.213s.706 2.723 1.467 10.081c.377 3.647.77 11.23 1.084 14.715.475 5.18 2.794 13.461 4.23 15.552 2.343 3.41 7.051 1.204 5.476-2.844-.817-2.1-3.98-1.76-3.542.42.008.388.3-.279.764-.689 1.367-.522 2.906.914 2.103 2.643-.997 2.208-3.947 1.2-4.925-1.582-1.169-3.325 2.769-5.817 5.715-3.79 3.281 2.26 3.288 7.985.645 9.792-4.448 1.638-7.472-1.633-8.924-4.975zm10.997 4.212c-.18-.106.006-.454.226-1.28.822-3.091.304-5.502-1.676-7.775-1.104-1.266-1.52-1.489-.941-1.718 1.225-.487 3.932 1.497 4.676 3.448.734 1.915.918 3.896-.116 6.061-.719.465-1.837 1.397-2.17 1.264zm3.352-2.058c-.003-.361.238-1.501.293-2.06.215-2.155-.784-4.345-2.552-6.056-1.483-1.436-1.62-1.584-.216-1.608 3.62-.062 5.93 5.846 4.26 8.757-.431.461-1.743 1.405-1.785.967zm3.065-2c1.066-5.036-3.76-8.393-3.857-8.236.24-1.129 2.157-.48 2.81-.04 2.44 1.653 3.843 5.975 2.345 8.431-.162.302-.363.475-.626.637-.503.32-.8.576-.903.352-.077-.169.203-.902.231-1.143zm-42.462-16.34c.504-.5.655-.514 1.624-.145 3.037 1.157 5.462-1.042 4.746-3.353-.26-.837-1.398-1.746-2.098-1.819-1.144-.12-1.167.49.066.955 1.515.572 1.669 2.195.334 2.927-1.566 1.067-4.133-1.643-6.015-1.414-.9.271-1.475 1.12-.961 2.158.4.728 1.755 1.168 2.304.69zm-3.369-.331c-1.053-.494-1.454-.485-1.253-1.644.133-.764 1.211-5.901 1.724-7.887 1.535-5.947.093-9.244-4.256-10.573-2.947-.9-5.484-.444-8.486 1.167l-.54-1.681c12.587-3.324 34.068-2.587 33.992-2.458.424 1.71.585 3.42.751 5.13 0 0-4.025-1.993-6.124-2.656-3.235-1-8.347.097-9.253 1.97-.514 1.063-.247 1.772 1.927.59 3.557-1.933 10.821-.46 13.382 1.59.59.473.56.576.571 1.13.017.844.066.893-1.098.265-6.105-3.15-11.322-2.785-13.122 1.35-.414-.126-1.998-.4-1.998-.4l1.7 2.536.323 2.656s2.778 1.555 4.309 2.213c1.507.645.64-.041-1.21-1.34-1.358-.954-.278-1.26.618-.895 1.842.427 4.537.969 7.655-1.03.968-.62 3.185-.082 3.22.2 0 0 .295 2.322.588 7.167.139 2.292.418 5.286.577 6.516.48 3.713.618 3.924-1.318 2.144-.65-.598-1.732-1.589-1.745-1.53-.245 1.152 2.61 3.175 3.276 3.869 1.009 1.053 1.819 3.75 1.415 3.91-.256.101-2.97-2.222-5.105-4.31-.8-.783-1.991-1.832-2.025-1.796-.442.297 1.351 2.34 3.03 3.867 1.96 1.783 2.187 1.942 1.529 2.21-1.217.497-2.312-.12-5.265-2.585-.288-.24-1.406-1.04-1.46-.983-.268.363 2.456 2.967 3.075 3.19 1.15.416 1.48 1.537.574 1.977-.605.293-2.86-.954-4.668-2.535-.323-.283-1.223-.765-1.282-.7-.359.232 1.662 1.996 3.59 3.168 1.888 1.147 2.19 1.43 1.71 2.385-.449.982-4.592-1.293-6.665-3.636-.44-.498-.79-.713-.701-.545.902 2.526 3.872 4.335 6.082 5.055.395.13.966.292 1.224.498.63.505.49 1.03-.192 1.325-2.356.668-6.072-2.213-8.73-5.23-.308-.129-.125.266-.044.397 2.218 3.571 6.463 6.288 9.02 5.781 1.495-.296 2.696.158 2.707.664.01.415-.814 1.076-2.422 1.192-3.637.261-9.319-3.755-12.643-8.87-.103-.159-.226-.218-.234-.12-.09 1.083 1.976 3.742 3.562 5.263 4.71 4.518 9.162 6.046 12.635 3.5 1.958-1.532 3.85-4.88.933-6-1.545-.592-2.522 1.554-1.2.942 1.736-.211 2.13.718 1.904 1.592-.442 1.5-1.915 1.738-3.112 1.107-2.084-1.139-1.641-5.043 1.056-5.725 2.43-.592 4.552 1.488 4.83 3.46.433 3.065-2.992 6.382-5.74 7.207-9.37 2.814-16.688-10.328-16.73-10.625-.47-.913-1.036-1.396-1.392-.332-.384 1.541-2.499 6.061-3.63 6.034.352-1.595 1.835-4.275 1.475-6.623-.625 1.928-1.944 6.043-4.467 8.234-.653.6-2.573 1.309-1.252-.238 1.595-2.263 3.681-5.356 3.25-8.262-.424.653-.654 2.306-1.138 3.397-1.211 2.733-3.858 5.975-5.605 6.5-1.29.388-1.17-.052.152-1.455 1.416-1.506 3.923-5.925 3.757-7.83-.071-.842-2.6 7.277-7.355 9.5-1.284.474-2.014-.123-2.014-.123 1.87-1.086 7.032-6.222 6.545-12.058 0 0-.276.864-.682 2.16-1.75 5.57-5.511 9.232-8.442 9.535-2.34.242-3.974-.71-3.393-1.131 3.034.022 5.527-1.036 7.474-4.02 1.98-3.034 2.718-7.908 1.518-13.066-1.082-4.652-1.32-8.836-1.697-13.308 3.324 1.146 6.668 1.909 9.904.632-.324 1.333-.864 1.498-1.718 2.504-.62.736-.408.91 2.01-.813.703-.502.957-.904 1.084-.77.207.219-.114 1.59-.818 4.325-1.052 4.09-.778 4.382 3.114 5.923.726.288.997.569 1.252.875.119.143.757 1.304.818 1.345.142.096.105-1.184.026-1.507-.209-.859-.669-1.504-1.071-1.758-.764-.71-1.866-.773-2.573-1.1zm73.48 53.337l.04-4.246 4.086 2.927-.05 1.401zm-6.984.923l-.15-78.533s3.137-2.103 4.705-3.145c.979 3.113.973 9.79.605 12.763-.614 1.936-.888 10.553-.191 14.938.555 3.495.453 9.276-.07 12.043-.206 1.08-.048 6.147.337 10.834.294 3.582.21 6.838-.22 8.702-.337 1.47-.22 6.733.165 8.752.567 2.97.664 12.512.41 13.03-.673.77-5.944.879-5.59.616zm6.214-82.184s3.159 2.106 4.683 3.159l.02 3.383-4.564-3.008zm-47.154 5.467l1.953.122c.779 4.09 1.116 8.738 1.426 13.399.099 7.186.978 14.765 2.65 19.733l-1.437 1.52c-2.446-5.693-2.638-14.673-3.184-20.75-.239-6.836-1.352-13.98-1.408-14.024zm47.534-.717l4.248 2.903.044 3.68-4.28-2.867zm-44.715.987l1.716.188c.522 4.855 1.322 8.15 1.626 13.499.394 6.918 1.582 12.598 2.32 18.001l-1.284.431c-.86.4-2.287-5.985-2.921-18.93-.192-3.917-.85-8.323-1.457-13.19zm2.595.182l2.05.37c.905 12.291 2.337 23.834 3.837 30.448l-1.782.119c-2.21-9.453-2.354-20.39-4.105-30.937zm2.96.436l1.883.33c2.266 28.106 3.663 27.743 4.1 28.848l-2.038.835c-2.203-8.077-2.648-19.463-3.945-30.013zm8.55 27.607c-.322.947-1.086.859-1.919.956-.933-2.583-1.478-5.662-1.869-8.677-.86-6.622-1.17-12.83-2.064-19.365l2.246.232c-.073.05 1.594 23.047 3.606 26.854zm-48.331-24.705c2.96.145 5.417 1.486 5.653 3.449.054.442-.293.227-.694-.083-2.547-1.97-5.444-2.584-8.944-1.313-.762.277-1.386.713-1.727.653-.306-.197-.4-.676-.167-1.071.816-1.377 4.414-1.706 5.879-1.635zm-6.866 3.942c.063 3.096-.683 4.803-2.292 5.518-1.942.863-4.433-.985-3.223-3.054.915-1.563 2.488-1.092 2.788.55l2.468-5.545s.252 1.756.259 2.531zm90.136-.496l-.027 3.19-4.554-3.071.304-3.068zm-80.782-.416c2.244.897 3.067 1.993 3.15 2.48-.13.363-.353.115-1.992-.778-2.522-1.561-5.81-1.816-8.7.167-.72.143-.794-.27-.072-1.052 2.201-1.74 5.242-1.765 7.614-.817zm17.038-.597c1.973-.063 4.333.443 6.326 1.452.881.447 1.672.725 2.247 1.238.46.242.495 1.294.159 1.373-.3.043-.792-.193-1.527-.711-4.736-3.104-8.143-2.722-10.881-.811-.152.105-.623.214-.809.2-.522-.04-.549-.256-.331-.541 1.267-1.446 3.162-2.143 4.816-2.2zm59.177 2.234l4.564 3.219-.003 3.165-4.852-3.405zm-82.375 1.286l.666.02c1.554 3.798 3.502 1.84 4.311.319l.812.133c-1.27 5.088-6.44 2.426-5.789-.472zm-1.134.506c.754.092.727.953.964 1.58.527 1.401-1.474.216-1.817-.126-.581-.617.245-1.39.853-1.454zm22.587-.148c1.967 3.022 3.102 1.233 4.223-.083l.535.173c-.14 2.169-3.758 4.481-5.476-.036zm6.05.342c.211.003.634.156 1.022.314 1.076.44 1.02.761-.172 1.296-1.906.856-2.569.966-1.998-.242.328-.553.546-1.285 1.148-1.368zm-7.475.46c.48.356.794.75.85 1.39.039.452-1.45-.068-1.447-.787.048-.457.293-.828.597-.602zm-13.186.173c.978.365.86.835.18 1.262-1.223.688-1.747.552-.956-.53.364-.498.443-.722.776-.732zm75.227 1.592l4.942 3.506-.044 3.22-4.937-3.397c-.23-1.38-.014-2.307.04-3.329zm-85.408 4.983c.235.006.327.788.382 1.93.092 1.901-1.825 4.548-3.763 5.46-2.333 1.097-4.832-.442-4.414-2.724.386-2.103 3.346-2.19 3.458-.247-.288.511.115.939.28.894.762-.206 2.557-1.836 3.287-3.66.285-.71.457-1.442.661-1.608a.168.168 0 0 1 .11-.045zm85.275-.593l4.939 3.636.022 3.199-4.898-3.4c-.193-1.426-.109-2.443-.063-3.435zm-59.924 5.065c-.373.633-.067 1.767.699.8 1.967-2.311 4.817.582 3.293 2.42-1.384 1.668-3.087 1.131-6.683-.254-2.62-1.01-3.032-.666-3.678.063-.532.6-.26 1.81.428 1.795 2.123.486 3.96.96 6.158 1.421 4.645.962 7.478-5.077 3.235-7.295-1.015-.531-3.116.158-3.452 1.05zm-20.498.695c-1.81 1.639-.325 5.947 2.34 6.331.56.081 1.393.058 2.34-.218 1.865-.543 3.92-1.657 4.005-2.306.382-2.949-3.967-.305-4.543.045-1.371.84-2.822.731-3.553-.267-1.648-2.249 1.305-4.83 3.099-2.078.452.694.293-.482-.2-1.282-.697-1.129-2.497-1.055-3.488-.225zm80.75-.929l4.641 3.311-.026 3.08-4.5-3.275zm.347 4.51l4.396 3.19.075 3.201-4.614-3.065c.09-1.152.112-2.235.143-3.327zm-24.647 1.838c3.865.064 6.046 5.828 4.008 8.226-.607.713-1.09.904-1.365.638-.06-.057.038-.701.077-1.43.126-2.323-.363-3.914-2.047-5.679-1.263-1.323-1.74-1.733-.673-1.755zm-47.593.918c-.73.263-1.502.795-2.1.664-.59-.13-.873.165-1.105.633-.885 1.788-.61 2.366 1.143 1.35.832-.481 1.123-.308 3.35.116 1.592.303 2.675.273 4.075-.094 1.741-.455 2.78-.49 3.66-.005.881.486 1.484 1.156 1.506.61-.098-.638-.65-2.27-.777-2.813-.061-.26-.494-.031-.904-.001-1.443.105-3.165-1.205-4.28-.512-.892.554-1.01.7-2.234-.025-.912-.54-1.544-.207-2.334.077zm46.554.401c2.618 2.206 3.288 4.163 3.034 5.77-.13 1.167-.216 2.458-1.35 3.16-.21.102-.521.164-.81.207.88-3.318-.158-6.29-3.857-9.46 1.076-.538 2.174-.358 2.983.323zm-59.03-.005c.116 0 .244.019.374.062.454.15.526 1.35.168 1.726-.357.376-.646.066-1.06-.887-.308-.52.014-.9.518-.901zm-2.417.933c.955-.02 1.318.864 1.482 1.567.14.6-.037 2.39-.544 1.766-.122-.38-.641-1.603-1.057-1.92-.925-.709-.833-1.393.119-1.413zm-2.69.89c.14-.004.319.013.536.05 1.492.252 2.634 2.648 2.287 4.008-.79 1.463-1.081.477-1.342-.85-.204-.55-.815-1.41-1.19-1.856-.776-.923-.897-1.335-.291-1.352zm89.695-.697l4.543 3.286.007 3.517-4.754-3.225c.106-1.23.16-2.41.204-3.578zm-92.646 1.426c2.224-.039 4.124 2.614 3.422 5.131-.87 2.625-5.2 2.065-4.48-.552.206-.753 1.002-1.304 1.762-.833 1.098.68.977-.427.28-.82-1.076-.607-2.555-.24-2.885.989-1.149 4.282 4.304 5.741 7.272 1.318 1.085-1.617 2.265-3.347 2.917-4.085.586-.663.71-.593.616.262-.378 3.978-3.126 8.95-8.28 8.678-5.01-.48-6.576-5.844-2.793-9.192.707-.54 1.398-.883 2.169-.896zm26.543.217c-1.833.896-3.494 1.234-5.298.442-1.334-.586-1.313.05-.733.572 1.675 1.44 4.723.789 6.029-.022.423-.263.563-1.025.002-.992zm70.66 6.359l.014 3.198-5.07-3.428c-.08-.766.004-1.929.171-3.13zm-4.888 1.068l4.829 3.21.127 3.17-4.692-2.937zm.337 4.446l4.612 3.22.067 3.46-4.57-3.034zm-112.481 3.639l-2.824 8.608 1.849.113 1.248 2.27 1.282-2.327 1.945-.149zm112.673 1.148l4.445 3.083.068 3.196-4.619-3.222zm-.18 3.913l4.557 3.323.09 3.395-5.165-3.473zm-101.968 1.922l-2.795 9.216 1.575-.217 1.476 2.466 1.49-2.214 1.412.08zm-21.04.685l-2.663 9.16 1.785-.006 1.506 2.31 1.322-2.23 2.023-.055zm122.414 1.686l5.348 3.787.045 3.606-5.185-3.505zm5.287 8.564l.06 3.157-4.5-3.232-.489-3.507zm-95.478.543l-3.268 9.31 2.192.021 1.329 2.236 1.063-2.247 1.76.018zm91.333.929l4.176 2.888-.032 3.242-4.111-2.78zm-79.13 37.672l-2.378-2.307c-.03-.188 1.945-1.154 3.16-.54 1.606.811 2.43 3.728.633 5.263-1.43 1.222-3.614.206-3.657.062zm-2.117-3.805c.042-3.564-1.817-4.48-3.356-5.201 0 0-.257-22.588-.223-23.263.001.099-.395-2.446-.44-2.596 0 .002-.369-.1-.369-.095.065 2.29.213 25.76.177 25.912-2.878.335-3.682 2.302-3.943 4.943-2.246-.17-3.706 1.194-3.751 1.42-.83-1.15-.212-2.842-.866-4.042-1.99 7.023 1.88 11.226 5.257 10.834.542 6.743 7.901 7.963 7.65-.217 8.903-.527 5.887-8.788-.136-7.695zm-41.827-28.357l-3.223 9.121 2.26-.26.823 1.683c3.618-3.219 5.445 1.75 3.604-2.51zm122.52 16.23c.416-.032.963.347 1.072.862.08 1.54-1.972 1.194-2.037.222-.046-.69.574-1.056.965-1.085zm1.34 10.013c.884-.732 2.291-.318 2.314.785.02.978-1.091 1.3-1.96.751-.674-.414-.717-1.188-.354-1.536zm.124 2.714c4.847.372 8.453-2.95 6.909-5.335 1.301-1.652.24-2.6.595-3.547 1.03-1.065.169-3.355-.09-3.363-.21-3.072-1.094-3.466-2.41-5.103-.396-.474.921-.938 1.427-1.754-1.548.414-2.378-.375-3.217-1.427-8.976.423-17.035 1.055-16.73 13.338-1.292 5.213.896 9.857 7.16 8.422 1.371-1.236.468-3.028.3-3.89-.535-2.369.082-3.909.255-5.019.533-3.433 3.026-6.62 3.297-1.239.437-.675.23-.775.952-1.055 1.72-.626 1.717 1.129 1.365 1.836-.226.364-.567.333-.918.293-.5-.06-1.153-.248-1.164-.433-.135.559.91 1.598.8 2.122-.138.498-.226.457.23.128 2.16-1.558 3.511 1.924.387 1.526 1.54.83-.738 3.257.852 4.5zm-3.195-18.746c1.702-.087 2.11-.102 2.03.799.323 1.663.736 2.435 2.885 2.26 2.166-.284 2.853-.42.673.9-1.1.49-1.458.585-2.763.466-1.315-.12-1.214-.253-1.965.2-.42.253-.878.561-1.22.624-.505.092-1.396.289-1.396.289-.506 2.583-1.277 3.884-2.337 5.111-1.5 1.72-2.261 2.022-.422 1.893.68.042.329-.301.626 2.483.104.976.284 2.106.427 2.486.479 1.269.543 1.9-1.276 1.99-4.538.346-5.597-4.112-4.993-6.39.052-.358.259-1.544.304-2.485.024-.514-.079-.95-.066-1.475.104-4.248 1.101-5.367 4.837-8.129 1.127-.833 3.15-1.004 4.656-1.022zm3.986.23c2.095-.044 4.12.971 3.11 1.63-.653.427-3.01.25-3.664-.22-.845-.607-.528-1.388.554-1.41zm-93.423 3.606l-.83 1.485c.394 3.238.438 4.937-.713 8.316l1.714 2.268 1.356-2.351 2.133.037zm97.956-.69c1.357.275 1.41 1.525 1.066 2.294-.758 1.692-5.835 2.51-5.835 2.512-.04-.727.06-1.427-.468-2.245 0 0 3.38-.892 4.095-1.55.478-.44.767-.996 1.142-1.01zm1.004 3.85c.492.007.754.366.887 1.098.063.392-.084.727-.4 1.155-1.29 1.413-4.91 2.392-6.219 2.033-.092-.123.13-1.611.225-2.273 1.742.053 4.675-1.507 5.507-2.013zm-51.632 8.703c-1.731-2.52-5.57-2.15-5.159-1.974.028-2.158-.338-5.122-3.583-5.437-3.273-.25-4.955 4.107-3.713 5.952-2.02-.846-5.05 1.275-5.05 1.474-.257.009-2.572 6.183 4.433 6.501.637 2.915 1.73 4.325 3.969 5.524l.055 23.792.791 1.08.07-24.933c3.585-.16 4.027-4.3 3.761-5.255 1.593.07 3.039-.254 4.257-1.191l.419 4.064s.84-1.434.656-2.194c-1.56-23.366 6.814-48.643 17.808-65.028.588-.688.767-1.509 1.058-1.515 2.681-1.458 4.375-2.439 4.375-2.439 4.421 2.144 12.316 7.32 12.316 7.32l.128 33.296c-.123-.328 14.71-1.67 14.488-1.266 0 0-1.3-.513-1.32-1.389l-.386-77.914-6.49-4.278s-5.335 3.518-6.827 4.72l.163 45.872-11.494-6.796s.184-1.622.2-2.149c-.183-6.26-3.228-8.36-9.025-6.503-.777.25-1.317.467-1.697.147-2.44-7.202-3.538-26.126-3.535-26.125l16.358-27.971 27.751-.155.48 106.871 1.004 56.018-14.164 10.41-.207-35.883s-2.03-.979-2.56-1.045c-.2-.016-.458.435-.097.667.52.335 1.801.804 1.801.804l.3 35.566s-5.506 3.74-7.968 5.299c-4.603 2.544-9.133 4.965-13.885 7.092-4.683 2.031-15.008 6.365-15.008 6.365-.896-2.986-9.751-9.964-19.708-5.033-.911.341-2.04.638-2.8 1.171-3.795.7-5.045 4.793-5.619 8.774-.02.157.3.122.312.137.04.057.904-3.82 1.246-4.553.73-1.567 1.652-2.505 2.14-2.652.223-.038.417.31.115.862-.6 1.097-1.088 3.429-1.234 4.48-.13.97-.156 1.75.023 1.783.032.03.882-2.937 1.264-3.985.997-2.732 1.625-3.864 2.586-4.446.984-.598 1.218-.514 1.024.121-1.465 2.884-2.07 5.065-2.356 8.136-.044.612.263.63.505-.384.803-3.225 1.904-7.586 4.506-8.888 1.111-.507 1.604-.482 1.485-.12-3.099 3.95-3.873 8.338-3.837 9.754.012.473.202.379.6-.644 1.049-3.894 2.605-7.206 4.451-8.83.715-.63 1.58-.803 2.305-.893 2.188-.274 2.263.544.358 1.664-2.17 1.275-4.68 5.915-4.958 9.399-.096 1.205.326 1.336.625-.272 1.287-6.924 7.169-11.502 11.883-9.381 2.121.954 2.505 2.28.66 1.69-3.738-1.194-7.888 1.48-9.6 5.21-1.546 3.372-1.514 5.143-.426 9.66.742 4.17 2.188 9.5 1.71 13.586-.513.794-2.136-.327-4.053-.565-1.156-.218-2.568-.273-3.776.193-1.052.406-1.649.508-1.844-.064-.063-.184.812-1.083 1.202-1.58.622-.795.265-.922-.612-.059-.43.423-1.353 1.411-1.606 1.463-.554.113-.577-.518-.13-2.123 1.57-6.231 1.15-6.337-1.542-7.6-2.668-1.025-1.824-1.541-3.005-2.561-.833.656 1.087 3.668 3.26 4.326 1.776.539 1.56 1.456.782 3.922-.79 3.453-2.136 8.022-1.357 11.088 1.637 6.442 8.117 6.311 13.08 3.707l.606 1.642c-4.197 1.715-26.315 3.18-33.769 2.316-.576-2.033-.633-2.556-.866-4.949 0 0 4.604 2.099 6.903 2.463 2.87.454 7.289.475 8.42-2.192.347-.782-.009-1.443-1-.99-1.82.833-4.93 1.45-7.444 1.293-2.11-.132-5.117-.987-6.417-1.777-.618-.376-1.14-1.11-.656-2.033.43-.095.993.383 1.327.556 3.807 1.939 5.895 2.315 8.378 1.571 1.883-.564 4.42-2.614 3.794-3.196-.636.223-2.746 2.012-4.201 2.402-2.996.803-6.189-.427-9.3-2.46-.96-.842-.522-1.454.654-.782 4.66 2.368 6.604 3.938 11.063.615.997-.745 1.552-.65 2.138-.198 2.315 2.093 2.308.918.612-1.257-.386-.494-.735-1.186-.966-1.922-.17-.545-.209-1.09-.517-1.448-.527-.61-1.473-.906-2.556-1.387-1.564-.694-2.083-.36-.93.208 2.021.994 3.005 2.06.496 1.485-2.278-1.028-6.08-.453-8.231 1.054-1.69.832-2.433 1.721-2.832-.159-.835-3.924-.021-9.248-1.14-16.097-.214-1.305-.475-2.133-.204-2.312.347-.229 1.214.616 2.29 2.14.49.694 1.463 2.03 1.457 1.752.037-1.45-2.198-4.172-4.042-5.244-1.014-.589-1.702-3.312-.543-2.712.895.44 5.552 4.57 6.438 6.043.412.684.76.248.324-.556-.261-.483-1.356-1.9-2.42-2.949-1.885-1.859-2.104-1.772-1.742-2.153.716-.753 2.25.218 4.985 2.715.702.894 1.63 1.701 1.515 1.257.28-.696-2.458-3.666-4.082-4.462-.303-.192-.345-.394-.316-.763.154-1.403 3.297.657 5.905 3.062.977.901.167-.794-.965-1.946-.889-.905-2.323-2.03-3.295-2.417-.966-.402-1.026-1.252-.268-1.608 2.614-.112 5.313 2.585 6.922 4.704.444.583.851 1.031.389-.07-1.49-3.32-4.59-5.19-6.736-5.569-1.744-.308-1.705-1.896-.067-1.717 1.803.198 4.756 1.84 7.258 4.382.728.74 1.953 2.418 1.701 1.433-.006-.268-.774-1.319-1.661-2.332-2.048-2.052-4.428-3.866-6.951-4.406-1.18-.337-4.682.345-4.703-.268-.009-.452.367-.724 1.482-1.098 4.328-1.454 10.663 2.3 14.128 8.069.248.413.717.588.746.495-1.672-4.715-6.87-8.989-11.005-9.721-2.812-.455-5.647.269-6.995 2.181-1.517 2.153-.923 5.031 1.355 4.8 1.195-.11 1.1-.795 1.078-.817-.082-.082-.777.248-1.206.163-1.558-.309-1.395-3.152.885-2.871 2.622.322 2.992 4.495.063 5.373-2.705.81-3.695-.437-4.435-1.915-1.084-2.166.08-5.658 1.99-6.997 5.346-3.747 12.108-.607 15.93 3.11a17.126 17.126 0 0 1 4.139 6.38c.223.549.7.492.48-.071-5.378-13.864-21.442-15.48-23.792-4.717-3.888-6.153-7.292-6.582-12.501-3.897-5.314 2.219-7.93 4.027-12.845 6.353l-11.145-6.039c-.656-11.175-.282-22.385-.237-33.575.032-.26-2.415.177-6.49.822-10.836 2.183-9.906-3.678-11.322-3.973-.757-.153-.701.175-.907-20.453-.06-5.99-.178-16.524-.265-23.407-.088-6.883-.11-12.617-.05-12.738.061-.121.67-.648 1.371-1.15 2.64-1.888 4.123-3.031 9.901-7.48 1.309-1.008 1.638-1.179 1.638-1.179.664 12.394.069 25.409.395 36.062l.488.003-.19-35.775c-.996-.264 22.783-14.309 35.814-18.865.244-.085.854.189.854.189 7.48 9.251 27.159 6.45 28.745-4.813 3.26 6.866 17.585 20.207 24.13 4.126 0 0 2.373 4.62 4.408 4.924 4.574.613 5.081-.115 15.15-5.044-11.512 17.628-17.86 36.292-18.672 58.896zm-6.119-4.395c.252.778.337 1.784.12 2.579-.293.62-.73.612-.73.612l-2.23-1.923-2.181 2.04s-1.335-1.356-.602-3.237c1.395-2.628 4.589-2.154 5.623-.071zm57.604-.31c1.428-.092.69 1.566-1.421 2.689-1.326.704-2.424.903-2.9.648a2.414 2.414 0 0 1 .123-1.803c.9-.467 3.376-1.286 4.198-1.535zm-92.14 3.122c1.585-.04 2.958 1.1 3.01 3.118.02.823-.398 1.638-.398 1.638l-2.648-1.97-2.023 2.177c-.345.121-1.584-1.438-.732-3.135.62-1.234 1.707-1.802 2.791-1.828zm38.285.926c2.227 1.02 2.614 4.163.447 5.373-1.03.576-2.65.897-3.407-.268l2.189-2.409-2.514-2.134c-.098-.099 1.925-1.184 3.285-.562zm53.464-.826c.384 0 .482.148.592.51.313 1.026-.481 2.059-1.853 2.386-1.267.302-1.146.451-1.746-.691-.47-.896-.596-.858.14-1.141.89-.292 1.84-.632 2.867-1.064zm-63.35 1.542s-1.58 1.62-2.272 2.299l2.379 2.504c.115.304-2.743 1.61-4.247-.36-.976-1.278-.427-3.71.96-4.545 1.415-.853 3.444-.145 3.18.102zm3.407-.283a2.55 2.55 0 0 1 2.577 2.526c.02 1.417-1.1 2.585-2.503 2.606-1.404.02-2.561-1.114-2.582-2.531a2.556 2.556 0 0 1 2.508-2.601zm-34.753 4.318l-2.28 2.41 2.466 2.708s-1.952.322-2.645.191c-3.357-.634-3.028-4.608-.432-5.659 1.096-.388 1.91-.258 2.89.35zm-44.763.818s.45 5.105.86 6.848c-.27 1.99-1.545 3.344-2.12 5.387-.305.909-1.454 2.13-1.676.85-.829-1.582-.036-3.537-.722-4.664-.525-1.062-.244-1.658-.475-2.76-.645-.911-.951-1.323-.844-2.132-.136-3.608-1.03-2.893-2.616-2.598-6.157.535-6.154 4.114-5.775 8.656-.874 4.259.737 3.251.685 4.017-.083 1.215.113 2.916.475 3.103 2.196 2.54 2.304 4.301 5.16 3.865 4.834.381 12.515-.344 14.175-6.292 1.035-8.387 1.355-16.355-7.127-14.28zm48.055-.822a2.464 2.464 0 0 1 2.49 2.441c.02 1.369-1.063 2.493-2.419 2.513a2.464 2.464 0 0 1-2.49-2.44c-.019-1.37 1.063-2.494 2.419-2.514zm-45.938 1.302c.913-.012 1.99.182 2.876 1.04 1.897 1.835 1.979 3.499 1.137 10.563-.237 1.99-.931 3.653-1.85 4.378-1.847 1.455-4.108 2.493-5.972 2.956-.983.244-1.838.25-2.503.244-.718-.005-1.137-.34-1.19-.948.157-1.645-1.507-1.805-2.47-1.712-1.718.069-1.893.251-.822-.587 1.223-.956 4.042-.97 4.578-.41 1.099-1.11 2.246-1.24 3.649-1.405-.208-.308-.71-1.54-.378-2.332.727-1.29 1.95-3.565 3.233-4.418 1.27-1.675.19-.918-.597-.89-.45.017-.412-.132-.485-.436-.313-1.306-.764-3.746-.768-5.2-.002-.7.648-.832 1.562-.843zm-8.088 1.808c.496.445.49 1.067-.032 1.53-.596.528-1.78.237-1.809-.759.08-1.005 1.24-1.288 1.84-.77zm85.655 3.537c-2.06.103-3.756-2.12-2.98-4.337.426-.6.61-.514.61-.514l2.344 2.114 2.25-2.375c1.853 2.257.263 4.943-2.224 5.112zm-88.164-3.443c-.17.648.053 1.295.08 1.61-.407.293-2.146.806-3.079 1.27-.648.224-1.117-.39-1.027-.951.246-1.045 1.768-1.727 2.875-2.051.34-.085.903-.116 1.15.122zm.381 2.99c.627-.077.443 1.302.208 2.006-.234.504-.925.483-1.546.52-1.097.064-2.479 1.341-3.073 1.136-.196-.092-.337-.617-.358-.951.129-1.84 3.157-2.515 4.77-2.712zm3.314 1.916c-.209.309-.881.458-1.445.302-.92-.256-1.063-1.59-.254-2.05 1.428-.476 2.286.876 1.7 1.748zm91.029-3.039l-1.25 1.921-1.9-.035 3.07 9.507 1.42-3.715c.19-1.708.415-3.413.59-5.123zm-40.408.802l2.429 2 2.083-2.15c1.55 3.487-.236 5.083-2.136 5.041-2.096-.046-4.33-2.051-2.376-4.891zm-53.323 3.605c.77-.148.44 1.952.333 2.012-.491.183-2.61.462-3.501 1.221-1.9 1.503-2.711.586-1.831-1.214.833-1.046 3.896-2 4.999-2.02zm2.417.1c.847-.08 1.44.865.924 1.766-.702.658-1.933.175-1.928-.757-.005-.586.475-.979 1.004-1.01zm-1.248 5.325c.116.49-.054.338-.944.603-.49.146-1.26.476-2.063.885-1.177.6-1.507.922-1.925.854-.332-.073-.715-.218-.818-.558-.41-1.356.685-2.739 3.235-3.688.53-.198 1.478-.357 1.803-.394.865.003-.06 1.344.712 2.298zm1.506-2.04c1.233-.019 1.464 1.633.541 1.923-2.158.563-1.976-1.925-.54-1.924zm-1.52 6.082c.347.336.396.887.008 1.173-.712.355-3.447.053-3.465-.721-.01-.511.904-.684 1.753-.701.85-.017 1.427-.02 1.704.25zm123.44.847l-2.253 3.041 3.023 7.639 2.762-9.25-2.17.867zm-127.463 7.848c.522 23.525.433 77.433.433 77.433l6.634 4.55 6.984-5.065c-.072-16.968-.14-28.672-.206-44.382l10.234 5.674s.314.457.267 2.58c-.707 5.862 4.909 9.667 8.636 7.353 1.437-.61 1.555-.718 1.859-.26.838 1.261 1.782 6.662 1.94 10.107.238 5.191 1.592 15.776 1.918 15.847l-16.657 28.344h-26.366v-105.673c1.349 1.605 2.068 2.657 4.324 3.492zm96.651-2.268l-1.25 1.925-1.506-.002 2.644 9.846 3.2-9.627-1.763-.22zm-83.402 78.515s-3.24 2.348-4.276 3.023c-.544.206-.808.244-.937-.28-.159-.646.096-1.868.322-3.888.208-1.868.207-1.973-.1-4.634-.322-2.78-.36-2.897-.1-6.566.29-4.093.347-8.068.026-10.528-.305-2.34-.301-7.674-.067-10.652.286-3.646.193-6.844-.28-9.49-.844-4.716-.983-6.34-.104-9.888.329-1.328.492-2.034.424-4.257-.077-2.472-.122-3.28-.999-8.753-.505-3.152-.543-3.584-.07-8.57.095-1.007.127-1.68.507-2 .444-.372 5.067-.644 5.067-.644zm-12.157-76.158l5.036-.056c-.389 1.592-.476 2.803-.516 3.954l-4.473-2.967zm.074 2.033l4.428 2.918c.005 1.231-.086 2.405.091 3.635l-4.488-3.006zm.008 4.63l4.74 3.27c.184 1.273.57 2.56.718 3.705l-5.372-3.669zm153.24 1.288l.248 94.14h-47.17l-14.951-28.986s.152-2.667.522-4.028c.446-1.645.566-2.003 1.193-2.081 1.678.877 3.548-.29 4.121-1.573.705-1.581-.723-3.974-2.914-4.492-.966-.233-2.021.206-3.089 1.028-.62.522-.758.58-.881.126-.279-1.023.622-3.805 2.231-6.192.895-1.328 1.138-1.71 1.427-1.205 1.172 2.043 3.684 1.62 4.638.466 1.153-1.397.912-4.582-1.701-5.426-5.113-1.651-7.46 3.527-7.396 3.514l-1.094-6.208c6.154-1.522 9.707-2.06 11.662-3.943 1.538-1.482 2.271-4.046 2.082-6.325 0 0 17.097-7.01 25.098-11.362 13.776-7.494 25.974-17.453 25.974-17.453zm-26.034.68l-1.264 2.246-1.794.002 3.629 9.479 2.771-9.897-1.73.156zm-126.983 2.722l5.43 3.779c.118 1.226.274 2.32.111 3.71l-5.715-3.817zm105.931-1.162l-1.351 1.812-1.558-.166 3.054 9.386c.928-2.713 1.774-6.396 2.691-9.113l-1.443.07zm-106.027 5.987l5.618 3.756c.022 1.16.076 2.253-.324 3.072l-5.302-3.433zm116.556.542l-1.364 2.647-1.817-.249 3.249 8.998 3.55-8.914-2.198.12zm-116.545 3.833l4.87 3.61c.07.053-.271 1.648-.194 2.551l-4.634-2.882zm.13 4.465l4.543 3.15c.01 1.194.091 2.317.278 3.333l-4.931-3.231zm-.077 4.55l5.251 3.773.278 3.033-5.563-3.531zm43.229 1.264c5.04 1.897 9.765 11.57 9.62 24.092-.101 8.694 2.501 21.103 2.453 20.96 0 0-1.462.197-1.876-.13-1.898-6.383-2.53-13.129-2.83-18.692-.246-4.64-.51-9.193-.801-10.256-.828-3.741-1.725-8.106-4.095-10.95-1.846-2.144-3.95-2.518-5.208-.11-1.03 1.973 1.139 5.237 2.94 4.152.435-.247.695-.665.124-.653-1.869.28-3.124-2.33-1.942-3.574 2.084-2.19 5.728 2.69 4.038 5.376-.745 1.161-2.693 1.367-4.252.938-3.466-1.691-4.336-5.833-3.175-8.562.884-2.081 2.827-3.324 5.004-2.59zm-6.096 1.244c.409.02.13.781-.248 1.97-.892 2.85.78 7.276 3.096 8.158.695.477.658.659.194.922-1.512.857-4.256-1.715-4.98-4.58-.524-2.072-.395-4.519.592-5.557.54-.568.969-.866 1.26-.907a.468.468 0 0 1 .086-.006zm-37.188 1.68l5.608 3.699c.26 1.154.146 2.384-.03 3.627l-5.612-3.948zm33.838-.047c.416-.013.261.69.145 1.974-.268 2.972.645 5.134 2.725 6.929.878.757 1.118.994.74 1.391-.535.564-2.072-.192-3.278-1.46-2.207-2.322-2.939-6.706-1.219-8.295.378-.348.67-.532.887-.54zm62.37.516c2.397-.094 4.42.844 4.642 3.799.326 4.327-3.669 6.693-6.455 4.209-2.498-2.494.034-6.398 2.929-4.57 1.455.928-.282 3.04-1.46 1.948-.53-.493-.764-.186-.386.382 1.14 1.717 3.383.29 3.223-1.223-.316-2.973-3.936-2.935-5.3-1.77-1.865 1.593-3.508 3.94-4.733 5.649-1.004 1.483-1.22 1.444-1.071-.389.391-4.843 4.874-7.889 8.612-8.035zm-65.253.946c.382-.014.23.538.26 1.962.153 3.656 1.68 5.931 3.617 7.205.648.724-.182 1.236-1.403.886-2.782-.864-5.623-6.897-3.265-9.491.331-.364.591-.555.791-.562zm-2.705 1.199c.386-.025.168.783.204 2.308.077 3.209 1.06 4.75 3.425 6.71.77.637.867.566.562.92-.81.941-3.553-.392-4.723-2.314-1.392-2.288-1.597-5.739-.301-7.042.362-.365.631-.57.833-.582zm-2.69 1.546c.32.001.141.581.19 1.967.12 3.36.88 5.024 2.993 6.579 1.327.977 1.65.684 1.244 1.07-.711.677-2.656.096-4.115-1.147-2.187-1.864-2.801-6.46-1.024-8.034.317-.28.545-.436.712-.435zm-25.464.474l5.388 3.77-.152 3.183-5.361-3.662zm94.214 5.969c-2.194-.454-3.023-2.051-2.757-3.862.09-.605.44-.95.816-.16.322 1.254 1.152 2.994 2.286 3.332.457.136.075.777-.345.69zm-47.174-3.758c2.474 6.285 2.43 13.154 2.84 19.643.545 8.626 2.057 14.435 2.55 15.414 0 0-2.415.028-2.537-.325 0 0-2.28-11.439-1.937-17.095.025-6.33-1.196-11.895-1.942-14.396-.788-2.215-.823-.752 1.026-3.241zm-47.07 2.455l5.184 3.42a46.78 46.78 0 0 0-.07 3.511l-5.08-3.629zm69.707-.293c.005.19.75.35 1.919.065 1.298-.316 2.59-.26 3.587.016 1.06.294 1.177-.05.218-.473-.467-.206-1.21-.675-2.325-.655-1.114.02-3.407.632-3.399 1.047zm20.999-.132c.126.235.521.762.873 1.175.667.781.855.786.552 1.105-.7.735-2.167-.33-2.325-1.689-.137-.992.354-1.619.9-.591zm-46.417.267c2.42 3.483 2.778 11.65 2.827 17.456.045 5.228 1.798 14.807 1.94 14.766-.5.297-1.17.193-1.8-.052-.623-.819-1.005-3.114-1.727-9.327-.187-1.603-.553-6.702-.635-10.808-.073-3.623-2.077-11.462-2.077-11.462s.778-.558 1.472-.573zm-2.695.87c2.207 4.97 2.565 9.905 2.665 15.893.094 5.664 1.34 12.299 1.811 15.227-.745.078-1.53.14-1.843-.198-.199-.275-.356-.705-.454-1.26-1.003-4.898-1.243-10.224-1.531-14.73-.432-6.982-.543-8.71-1.524-12.19-.556-1.974-.751-1.933-.331-2.313.319-.289.929-.434 1.207-.428zm24.808 1.144c.06 2.313.355 1.37 1.164 1.002.61-.053 1.107.284 2.24.703 1.442.535 1.312.714 2.326.212.625-.31 1.124-.416 1.423-.171 1.185.972 2.715.424 3.576-.363.671-.354 1.405-.16 1.973-.108.82.076.607-.452.708-1.498.09-.928-.261-1.01-1.213-.697-.974.32-1.94.367-2.786.106-2.162-.666-3.744-.233-4.815-.063-2.531.402-2.666.144-3.24-.222-.428-.273-1.134-.776-1.378-.761-.244.015-.163.852.022 1.86zm22.452-1.063c.24-.124.351.207.687.647.56.737.723 1.084.254 1.153-1.243.181-1.552.05-1.508-.73.034-.621.17-.865.567-1.07zm-49.86 1.098c1.824 1.855 2.286 12.262 2.494 14.503.658 12.14 1.8 13.885 1.213 14.796-.69-.012-.932.246-1.383-.363-1.561-4.447-1.47-9.018-1.723-13.657-.357-6.145-.961-9.473-1.818-12.519-.57-2.024-.563-2.058.465-2.614.182-.099.587-.152.751-.146zm-2.459 1.463c.643 1.475 1.934 8.177 2.109 13.964.14 4.594 1.226 13.578 1.428 13.627-.664.06-1.46-.075-1.783-.583-1.99-8.856-1.356-17.442-3.657-26.348.137-.432.865-1.144 1.903-.66zm-36.46 1.092l5.376 3.89.114 3.321-5.486-3.93zm79.906-.419c-3.036 1.19-3.821 2.165-3.344 3.022.402.722 1.61.469 4.843-.893 2.417-1.018 3.175-.573 3.665.963-.024 2.269-2.204 2.533-3.434 2.22-.529-.02-.45.03.113.74 2.502 1.982 5.572-1.893 4.042-4.35-1.197-2.244-3.269-2.883-5.885-1.702zm-19.053.92c-2.504 1.985-1.61 5.558.474 6.095.58.297 1.445.157 1.784-.07.313-.21.31-.55-.33-.657-1.935-.325-3.034-1.757-2.099-3.21.908-1.409 2.59-1.138 5.822.268 2.795 1.215 4.02.84 4.35-.62.145-.644-.033-1.248-1.373-1.298-3.73-.14-6.202-2.429-8.628-.507zm33.518 5.472c-.166-1.029-1.823.026-2.92 1.849-1.08 1.793-1.193 2.05-1.412.188-.328-2.776 2.527-4.948 4.308-5.017 2.144-.25 3.553.96 3.608 2.356.108 2.747-3.14 2.774-3.584.624zm-94.49-1.64l5.693 3.946s.192 2.115.07 3.252l-5.718-3.693zm68.36 1.326c-2.476 1.695-1.02 4.788.712 5.136 1.825.367 1.954-.92.139-1.299-.97-.385-1.22-1.317-.84-2.037.865-1.43 2.466-.504 3.397-.059 2.066.993 3.137 1.355 3.789.67 1.16-1.22.125-3.393-1.406-2.627-.413.207-.724.404-1.603.184-1.334-.282-2.935-.583-4.188.032zm-68.312 3.366l5.6 3.87-.17 3.42-5.259-3.893zm.115 4.703l5.268 3.789c-.078 1.446-.042 2.021.015 2.943l-5.327-3.472zm93.15.73c4.224.416 2.824 5.313-.125 3.991-.787-.597-1.024-.549-1.898 1.6-1.117 2.747-1.39 2.524-1.237-.651.113-3.108 1.528-4.917 3.26-4.94zm-33.28.745c.1.002.18.019.23.059.286.323-.571 1.601-1.297 2.352-.536.354-1.837-.603-1.52-1.07.368-.454 1.906-1.272 2.587-1.341zm5.636 2.522l-.755.109c-1.14-2.563-3.509-1.976-4.24.404l-1.041-.12c1.052-2.918 4.802-4.708 6.036-.393zm21.268.585l-1.278.077c-1.146-2.78-2.77-3.196-4.145-.449l-.99-.288c1.703-3.512 4.55-3.794 6.413.66zm-6.387-3.172c.653-.04.569.264-.112 1.203-.591.816-.735.944-1.33.499-.974-.73.646-1.648 1.442-1.702zm6.053.082c.125.007.27.02.436.061 1.317.329 1.922.958 1.276 1.766-.403.504-.795.701-1.06.364-.889-1.479-1.38-2.235-.652-2.191zm-19.894.875c.138.55-.294.942-.775.484-.196-.187-.366-.505-.342-.739.301-.286 1.022-.049 1.117.255zm-66.6 1.891l5.416 3.926c.178 1.383.215 2.433.207 3.378l-5.576-3.73zm78.944 1.19c3.12 2.157 6.778 2.128 9.066.233.512-.423.958-.441.966-.034-.326 1.512-4.304 3.452-7.411 2.352-1.707-.603-3.11-1.202-4.23-2.811-.665-1.048.705-.372 1.61.26zm-1.32 1.051c4.56 3.97 8.185 2.867 10.932.866.405-.103.412.266.502.951.116.878-.606 1.312-2.581 1.909-3.82 1.154-8.3-.11-9.107-2.695-.095-.508-.289-1.168.254-1.03zm-77.643 2.378l5.49 3.802-.174 2.905-5.349-3.65zm.088 4.451l5.183 3.546-.017 2.405-5.042-3.625zm37.649 1.129c22.113 5.05 37.785 2.651 53.165-.084l13.626 26.973-82.112.11c5.363-8.765 9.824-18.35 15.32-27z" fill="#131f67"/><path d="M3711.573-1063.4c2.366 4.103 4.233 8.343 6.362 12.541l.341.221.51.972.057.472 1.263 2.038-.008.438 5.357 10.058c4.419-1.665 40.713-4.663 54.151.241l1.958-3.348.468-.003 3.452-6.112-.055-.514 1.161-1.337.169-.609 3.808-6.016.014-.97 4.764-8.015zm82.179 1.154s-2.485 4.82-3.765 6.77c-1.036-.826-4.04-.266-3.86 2.93-4.897-1.872-6.078 4.023-2.292 5.35-1.943 1.712-3.8-.224-5.272-1.537-1.44.36-4.432 1.428-6.126-1.716 0 0 .708.386 1.415.805 4.005 1.229 4.328-4.225 1.349-5.118-.375-.1-1.081-.14-1.081-.14 1-4.195-5.428-5.659-5.55-.618 0 0-.764-.126-1.344-.02-3.408.627-2.627 5.7.857 5.456.48-.033.908.054.908.054-.056.812-4.272 2.364-7.309-.43-1.44 1.107-3.72 2.495-6.692-.266 1.954-.08 3.829-.641 3.807-2.877-.013-1.456-1.31-2.756-3.18-2.825-.107-1.627-1.307-3.179-2.866-3.298-1.903.112-2.876 1.662-2.89 3.298-1.618.169-3.132 1.608-2.784 3.26.475 2.252 2.195 2.529 4.157 2.1-2.387 3.873-6.274 1.852-7.472.618-1.427 1.343-3.915 3.163-6.98.676 1.634-.283 3.45-1.25 3.144-3.55-.242-1.812-2.258-2.35-3.134-2.254-.001-1.198-.898-3.174-3.013-2.97-2.309.223-2.17 3.169-2.143 3.192-1.907-.159-3.29 2.104-2.746 3.549.661 1.758 2.047 2.304 4.592 1.83-2.97 2.813-4.856 1.72-6.477 1.13-1.435 1.517-3.35 2.007-5.315.661 4.394.211 3.695-7.627-1.516-4.785-3.706-4.4-3.639-2.445-6.96-8.918zm-40.944 7.725c.213-.009.439.036.66.15.688.353.816.968.397 1.878-.147.32-.36.686-.325 1.024 4.838 9.005 15.505 4.98 16.509.796.063-.265-.059-.555-.196-.84-.41-.688-.356-1.252.177-1.724 1.135-1.005 2.763.182 2.104 1.536-.174.357-.357.749-.224 1.226 2.738 6.276 8.191 6.748 12.767 4.264-2.108 3.81-10.279 6.145-13.71-3.028-5.476 7.473-14.167 7.332-18.11-1.105-3.548 8.63-14.25 8.834-18.145 1.666-3.546 8.2-11.769 6.34-14.098 1.207 7.639 5.579 12.672-.245 13.576-2.728 0 0-.177-.29-.42-.532-.978-.968-.951-2.107.061-2.559 1.298-.579 2.513.678 1.847 1.912-.187.346-.352.422-.23.72 2.378 5.592 14.085 7.216 16.456-.628.08-.448.035-.862-.167-1.202-.557-.937.15-1.994 1.071-2.033zm-34.174 3.168c1.846.105 1.331 1.708.961 1.83zm68.569 1c.012.03-1.139 2.075-1.139 2.075-.61-.982-.45-2.205 1.139-2.076zm-6.243 10.337s-1.179 2.632-1.569 2.854c-21.872-5.656-52.391-.738-53.142-.194l-1.344-2.554c19.178-3.867 38.3-3.041 56.055-.106zm-36.949 39.12c-2.112 8.222-7.224 9.058-13.399 10.058-7.648 1.239-12.632-1.574-14.963-5.871 0 0-10.939 4.171-14.93 6.595 8.299 3.838 19.264 12.336 25.497 21.984 2.22 2.943 2.108 2.277 2.105 8.73-.01 13.995.024 19.198.024 19.198 3.424.518 3.611 2.895 3.425 5.564 2.748-1.225 5.393.274 5.38 2.892-.02 4.812-4.705 3.504-5.677 2.974 1.523 4.241-.265 5.997-2.09 6.205-2.25.257-4.832-.835-4.08-5.689-2.453.962-5.56-.786-5.99-3.708l-.12-4.95c6.068-11.522-1.549-20.892-8.701-23.973 0 0 2.023-4.222 4.64-5.408.266-.08-1.587-2.823-4.702-2.226-1.434.03-1.1.02-2.45-1.748-2.666-3.494-3.922-3.734-6.52.005-1.143 1.646-1.417 1.691-2.77 1.72-1.49.03-3.777 1.11-4.267 2.075-.112.221.473.447 1.249 1.362 1.117 1.317 2.84 3.126 2.569 4.969-5.89 2.418-15.66 13.03-5.387 26.619l-7.429.097-.354-48.372-5.166 2.902.23 37.889-1.474-.493c.113-12.085-.067-24.163-.445-36.242l-13.624 10.019.608 56.812 1.45.309c1.074 7.74 16.267 2.327 17.154 2.998l.181 31.569-.665 1.564 12.089 6.669 11.088-5.804s1.497-.272 2.057-.57c4.598-2.445 8.025-1.897 10.525 1.69 1.542 2.213 1.803 2.54 1.803 2.54.935-6.384 6.543-8.737 11.983-7.07 4.001 1.228 9.468 5.252 11.141 10.165 0 0 .301.74.598 1.072l.23.101c-.014-.128-.264-.74-.359-1.038-5.61-13.006-21.422-15-23.86-4.375l-2.24-3.167 11.773-7.286 16.087 10.685s-.756 3.756-.841 5.38l.277.13c.111-1.966.694-4.212 1.617-5.877.38-.686.822-1.245 1.315-1.66.961-.564 1.852-.506 2.828-1.43l-2.35-1.772-.052-5.688 4.722 6.673c1.484-.347 7.266-2.088 10.696-.16.387.122 5.417-1.326 8.548 5.756l15.079-6.32s.96-.547.97-.69c-15.034-5.6-30.215-25.427-28.754-25.746 0 0-.045-2.035.072-7.026.121-5.563.055-11.242.148-16.825-5.117-1.648-3.845-5.81-3.845-5.81-3.075.68-3.566.077-4.345-.47l-.53-5.267c1.844-1.584 2.95-1.731 5.233-1.226 0 0-1.107-2.29-.1-4.172.846-1.49 3.102-2.43 4.903-1.381 2.327 1.6 1.585 4.954 1.253 5.422 2.42-1.094 5.377.125 6.104 2.54.362-7.14.977-15.134 2.396-21.361 2.618-11.24 6.903-23.012 12.27-32.269.879-1.546 2-3.096 2.904-4.544.84-1.29 1.24-2.124 1.24-2.124s-1.149.638-2.364.98c-1.747.478-3.063.934-3.262 1.135-1.278 1.086-2.955 1.89-4.325 2.491-4.829 1.897-8.075-.932-10.08-5.252-1.116 5.487-6.098 10.13-13.445 7.244-4.152-2.223-5.457-3.645-9.339-9.447-.326-.593-1.167-1.275-1.167-1.275zm.16.897c2.747 5.482 6.86 9.366 10.857 10.919 7.138 2.361 11.846-2.251 13.174-6.488l1.377 2.354-10.807 7.744-16.307-10.464c.273-.252 1.731-3.938 1.706-4.065zm49.074.378l-4.841 2.878s-3.216 5.237-4.296 7.209c-5.648 10.068-9.887 21.02-12.098 31.887-.893 3.98-1.841 11.247-2.157 14.741-.505 5.574-.48 7.863-.335 12.975l.378.415s-.594 1.05-1.02 1.936c-1.155 2.406-1.438 3.767-1.367 6.557.16 6.42 4.028 12.566 9.49 15.07.308.141.718.323.718.323s-.936 2.556-2.636 4.356c-1.134 1.2-1.377 1.259-.976 1.849.558.821 2.357 1.535 4.593 1.502.79-.012.786-.014 2.248 1.593 2.854 3.138 3.712 3.073 6.31-.483.772-1.057 1.211-1.31 2.339-1.337 1.659-.04 4.687-1.392 4.673-2.023-2.042-.913-4.409-5.62-4.032-5.67 11.17-5.964 13.536-18.328 5.378-27.42l7.791-.126.287 49.323c1.526-1.022 4.975-3.22 4.975-3.22l-.114-38.381c.536.102 1.082.49 2.123.66l.307 36.548s10.01-7.123 14.772-10.84l-.292-55.929h-1.139l.182 55.9-13.227 9.748-.086-34.74s1.045-.158 1.435-.213c3.872-.547 5.665-5.53 3.095-8.783-.912-1.155-.265-1.073 1.675-1.449 3.439-.306 5.343-2.93 4.343-4.8-.429-.801.13-.715.493-1.477.238-.6.193-1.342.09-1.931-.134-.773.18-1.115.374-1.608.304-.773.009-1.645-.498-2.37-.534-.767-.387-1.588-.392-2.096-.023-1.136-.43-1.298-1.622-2.395-.9-.83-.177-1.011 1.149-1.7 2.086-1.084 2.23-4.919-.546-6.552-1.483-.873-4.182-.802-10.031.13-2.218.354-4.822.59-4.822.59s-.02-21.867-.172-33.139zm0 .773s11.876 7.012 11.782 7.209c-3.988 5.513-18.865 27.483-18.972 54.05-10.91-1.382-15.376 7.227-15.906 7.194-1.434-32.518 11.642-55.783 18.34-65.658zm-7.492 4.278l-.038.796-2.353 3.55-.063-3.55zm-3.635 1.236l.086 5.717-4.822 3.718-.282-5.964zm-44.694 1.308l2.478 1.729-.086 5.673-3.731-6.851zm67.833 1.912l.019 4.105c-9.507 13.535-14.496 28.995-16.02 48.574l-2.316-.077c.612-19.47 7.106-37.233 18.317-52.602zm-64.389.42l5.865 3.868-.254 6.47-5.324-3.447-.497-1.323zm35.505.276l-.024 6.016-4.53 3.394-.21-5.972zm-54.907 1.574c.672.008 1.208.502 1.334 1.439.498 3.998 3.512 2.844 4.229 4.046.271.41-.372.766-2.435.599-3.783-.286-6.54-3.374-4.607-5.408.497-.461 1.019-.682 1.479-.676zm26.142 2.578l5.009 3.22-.014 6.645-4.909-3.023zm22.852.02l.388 5.876-5.483 3.679-.196-5.838zm10.433.024l-3.147 6.764-18.365 13.337-15.24-9.962-2.828-6.528 17.781 11.71zm-49.525 2.684c4.88-.06 8.625 5.168 9.907 9.749.932 3.029 1.073 4.12 1.172 8.928.1 4.898.253 5.744 1.162 6.436.56.426.724.311.794-.555.158-1.925 2.438-.739 2.478 1.29.044 2.252-2.412 2.975-4.228 1.245-.968-.921-.98-.913-1.283.898-.201 1.213-1.601 8.806 1.976 10.695.674.064.835-.48.335-1.115-1.004-1.273 1.001-2.742 2.636-1.932 1.975.98 1.775 4.193-.335 5.336-2.414 1.307-5.535-.179-6.994-3.327-1.07-2.311-1.065-5.516.02-10.275.5-2.194.72-3.59.832-5.273.037-.552.101-1.153.143-1.337.117-.513-.134-.537-1-.097-2.362 1.202-4.938.348-5.573-1.85-.758-2.626 2.142-5.34 3.933-3.678.68.63.597 1.256-.216 1.66-1.408.7-.927 2.543.57 2.178 4.933-1.49.423-15.464-5.133-16.431-3.674-.64-6.557 3.583-3.899 5.842 1.041.885 2.098.41 1.87-.84-.317-1.744 1.979-1.555 2.828.232 1.38 2.908-2.185 5.276-5.516 3.665-5.978-3.583-1.891-11.334 3.52-11.444zm22.124 1.11l4.923 3.337.043 6.485-4.89-2.926zm10.845.56l.024 5.954-4.75 3.487v-6.335zm12.796 3.902l-2.43 6.833-15.332 10.584-12.648-8.006-2.176-6.32 14.901 9.743zm-99.505.498l-.005 34.586c-4.968.214-7.82 5.173-4.1 9.86l-1.406.193c-3.36.465-5.612 2.263-5.166 4.442.136.668-.002 1.342-.192 1.676-.299.895-.22 1.58.182 2.351.316.606.263.85.086 1.299-.38.967-.29 1.711.158 2.448.554.547.4.988.325 1.864-.088 1.237.132 1.735.905 2.216.995.62 1.367 1.639.234 1.555-.562-.042-2.54 1.883-2.54 1.883l-.187-55.503zm26.937 4.437c.889-.002 1.804 1.125 3.119 3.027.794 1.363.808 1.178 2.626 1.106 1.857.137 2.988.632 3.473 1.198.183.214-.304.27-1.478 1.472-1.218 1.247-1.387 1.743-2.196 3.139-.291.503-.927.55-1.225.092-.24-.372.376-1.58 1.531-3.004 1.63-1.588 1.288-1.748-1.08-1.497-1.665.177-1.842.093-2.474-.927-1.884-3.78-2.884-3.652-4.688.116-.492 1.055-.296.987-2.43.821-1.68-.13-2.096.297-1.148 1.188 1.48 1.226 2.057 4.12 1.975 4.085l-1.143.106s-.35-.652-.502-1.062c-.31-.832-1.143-2.08-2.048-3.066-1.28-1.397-.577-2.161 2.282-2.472 1.594-.174 1.63-.196 2.363-1.28 1.292-1.91 2.154-3.04 3.043-3.042zm69.545 3.443l-1.65 5.9-13.079 9.256-10.639-7.165-1.411-5.548 12.222 7.812zm-45.091 4.674s3.78 7.433 5.152 12.25c1.193 4.19 2.852 16.322 2.416 17.068-.93-1.287-4-.997-4.042-.985.26-1.421-.878-4.285-3.497-4.852zm43.03 2.718l-1.307 5.809-11.136 8.126-9.19-6.335-1.205-5.615 10.17 6.856zm-64.743.324l1.445.507.272 10.492 11.141 1.869.254 1.796-12.902-2.1c-.135-4.475-.21-12.564-.21-12.564zm-5.654.313l.31 12.202c-.12-.04-9.287 1.278-12.796 2.207l.206-1.67s6.372-1.4 10.988-1.937c0-3.412-.027-7-.034-10.478zm103.652 2.246s1.516.142 4.76-.435c8.362-1.477 10.627-.878 11.696 1.724 1.168 4.035-3.214 4.132-3.995 1.571-.497-1.66-2.293-1.296-8.29.138-5.127 1.227-8.377.245-8.314-2.687.064-3.015 3.467-3.282 4.143-.311zm-68.722-2.207a1.886 1.886 0 0 1 1.904 1.864 1.883 1.883 0 0 1-1.847 1.917 1.878 1.878 0 0 1-1.899-1.86c-.015-1.043.808-1.906 1.842-1.92zm-27.167.333l1.32.401s.195 7.96.235 7.972c2.841.632 8.807 1.762 8.807 1.762l.316 1.574c-2.497-.591-10.457-1.907-10.457-1.907-.249-3.452-.22-9.802-.22-9.802zm-9.639.15s.005 6.351-.1 9.763c.044-.03-6.755 1.093-10.208 1.816l.267-1.275c2.731-.622 5.704-1.247 8.711-1.883-.06-2.498-.057-7.977-.057-7.977zm4.856 1.366a1.52 1.52 0 0 1 1.53 1.502 1.513 1.513 0 0 1-1.487 1.536 1.504 1.504 0 0 1-1.521-1.492 1.513 1.513 0 0 1 1.478-1.546zm113.143 3.965c.926 1.383 1.701 1.342 2.612 1.207-.23.068-1.305.71-1.243.922.03.106-.454 1.855.282 1.927 2.775.27 1.37 3.179 1.703 3.626.75.863 1.299 1.41.784 2.486-.456.956-1.112.926-.602 1.744 1.105 1.677-.422 2.025-.287 3.167.093.69.333 1.632.08 2.168-.759 1.617-3.442 2.54-6.424 2.665-.424.02-.102-.681-.3-1.125-.738-.47-.335-1.263-.087-1.781.245-.689.247-.69-.21-1.039-1.273-.798-1.208-1.166-1.106-1.743.28-1.705.017-1.872-.492-2.124-.653-.324-.564-1.043-.273-1.965.2-.638.059-.798-.249-1.376-.18-.34-.234-.526-.239-.744.092-.88-.69-.878-1.784-.015-.928 1.614-1.247 3.732-1.828 5.07-.45 1.028-.52 2.102.015 4.472 1.027 3.621.264 4.225-3.775 3.452-3.037-.754-3.934-4.026-3.09-8.03.137-.648.1-1.274.038-1.782-.33-2.756.376-5.404 2.282-7.213 3.182-3.02 4.755-3.48 11.333-3.057 2.574.184 2.77.348 2.77.348s.01-1.25.09-1.26zm-47.372.83l-.766 5.616-6.175 4.398c-2.908-2.317-5.154-1.545-7.2.937-1.62-.83-4.86-3.09-4.86-3.09l-.828-6.369 8.98 6.287zm-65.637 1.333c.83-.012 1.509.659 1.521 1.497a1.51 1.51 0 0 1-1.478 1.54 1.512 1.512 0 0 1-1.531-1.492 1.521 1.521 0 0 1 1.488-1.545zm64.603 5.75l-.34 5.408-2.195 1.666-2.21-.227-.521-3.35zm-64.642.044a1.52 1.52 0 0 1 1.531 1.502 1.513 1.513 0 0 1-1.487 1.535 1.504 1.504 0 0 1-1.522-1.492 1.513 1.513 0 0 1 1.478-1.545zm6.057.169c.83-.012 1.509.654 1.52 1.492a1.51 1.51 0 0 1-1.477 1.54 1.512 1.512 0 0 1-1.526-1.497 1.509 1.509 0 0 1 1.483-1.535zm-12.04.29a1.512 1.512 0 0 1 1.525 1.497 1.509 1.509 0 0 1-1.478 1.54 1.516 1.516 0 0 1-1.53-1.497 1.513 1.513 0 0 1 1.482-1.54zm111.837.246c.423-.035 1.05.6.746 1.55-.408 1.084-.121 1.453.56 2.332.576.744.474.847.387 1.323-.132 3.122 1.86 1.773.995 4.041-.188.494.061 1.2.149 1.782-.195-.534-3.86-.485-4.172.058-.521-.078-1.182-3.554-.655-4.012.068-.002.45.596.646.932.492.842.598.812.444-.165-.608-3.874-.244-7.817.9-7.841zm-93.727.27a1.512 1.512 0 0 1 1.526 1.497 1.509 1.509 0 0 1-1.483 1.536 1.504 1.504 0 0 1-1.521-1.492 1.509 1.509 0 0 1 1.478-1.54zm-24.358.28a1.508 1.508 0 0 1 1.52 1.497 1.505 1.505 0 0 1-1.477 1.536 1.517 1.517 0 0 1-.043-3.032zm58.973.44l4.506 2.95c.075.93-.044 2.262.258 2.714-2.94-.277-4.43 1.414-4.43 1.414zm-32.099 4.717l-.349 1.603c-8.879-2.306-18.803-2.428-28.286.106l-.736-1.685c9.577-2.931 19.754-3.04 29.371-.024zm-42.039-.101c1.293-.023 2.615.463 3.545 1.516 1.748 1.977.907 5.643-1.564 6.808-3.698 1.744-7.55-1.985-5.98-5.828.652-1.596 2.337-2.467 4-2.496zm91.517.468l-.057 1.608-1.125-.946zm-23.531.073c1.63-.024 2.97 1.295 2.995 2.94.023 1.646-1.279 2.999-2.909 3.023-1.63.024-2.97-1.29-2.994-2.936-.024-1.645 1.278-3.003 2.908-3.027zm-67.904.096c-.398.006-1.059.17-1.359.45-.787.732.004.753 1.043.946 1.846.342 2.354 1.946 2.186 3.679-.153 1.575.372 1.55.794.966 1.72-2.38.252-5.849-2.664-6.04zm85.661.792a1.25 1.25 0 0 0-.081.048c.02.018.049-.004.081-.048zm-58.332.937c2.209-.046 2.44 3.62.488 7.716-.587 1.231-.887 1.078-1.531-.783-1.588-4.585-1.243-6.886 1.043-6.933zm5.109.106c.426-.022.839.142 1.177.531 1.187 1.366.274 3.578-2.89 6.982-.769.828-1.167 1.143-1.45 1.15-.791.016-.788-.117.11-3.072.397-1.303.789-2.733.871-3.177.264-1.42 1.245-2.366 2.182-2.414zm-7.994 3.279c.216 1.015.595 2.426.837 3.138.243.712.404 1.389.364 1.502-.195.546-1.605-.197-2.612-1.376-2.027-2.376-2.836-4.443-2.416-5.552.614-.889 2.187-1.283 2.912-.506.748.802.86 2.52.915 2.794zm13.973-2.366c2.138 1.272-.325 4.176-5.113 6.586-2.05 1.03-1.903.566-.35-1.468.595-.779 1.391-2.046 1.78-2.82.86-1.711 1.72-3.423 3.683-2.298zm-21.335.01c.679-.006 1.373.726 2.66 2.607.573.838 1.504 2.03 2.071 2.65.567.622 1.013 1.24.99 1.372-.22 1.318-6.887-2.858-7.366-4.616-.165-1.072.67-2.03 1.645-2.014zm95.416 3.823c1.202 2.496 1.305 4.047.31 4.612-1.413.801-3.23-.421-3.267-2.197-.012-.597-.62-2.68-1.177-4.032-.458-1.113-.52-1.8-.144-1.856 1.474.238 3.655 2.301 4.278 3.473zm-7.98-1.892c-.465 1.426-.957 3.653-.952 4.302.003.255-.151.777-.334 1.159-1.221 2.537-4.11.468-3.048-2.183.958-2.39 3.396-4.877 4.357-4.96.657-.056.043 1.473-.023 1.682zm1.946-1.37c.482-.048.886 1.015 1.508 2.804.84 2.416.806 4.301-.1 5.103-1.942 1.72-3.98-.777-3.196-3.915.628-2.509 1.242-3.937 1.788-3.992zm-65.167.443c2.418 35.917-15.824 63.55-17.123 64.304l-6.207 3.426-10.889-5.987c11.283-15.615 18.028-33.513 18.538-54.298 10.438 1.023 15.808-7.408 15.681-7.445zm59.816.114c.762-.211.23.46-.525 1.56-.806 1.172-1.852 4.361-2.682 4.872-1.861.903-3.967-.818-2.838-2.313 1.04-1.377 4.095-3.58 6.045-4.12zm11.074.243c.292-.001.838.193 1.63.584 3.876 1.91 5.788 4.43 4.13 5.635-1.165.847-2.41.19-3.574-2.038a20.215 20.215 0 0 0-1.598-2.5c-.872-1.127-1.075-1.68-.588-1.681zm21.79 1.28c2.49-.037 4.536 1.966 4.572 4.48.037 2.514-1.953 4.585-4.444 4.621-2.49.037-4.537-1.976-4.573-4.49-.036-2.514 1.954-4.575 4.444-4.612zm-1.373 1.181c-2.93 1.31-2.048 5.955.478 6.626 1.066.301 2.364-.147 1.83-.665-3.337-1.056-3.359-3.54-2.015-5.356.216-.292-.073-.703-.293-.605zm-122.081 6.388c-.114 2.625.45 5.67-.793 8.519-1.883 4.38-7.93 6.38-11.16 5.992-.674-.279-1.457-.543-2.121-.26-.401.173-.896.15-1.325-.05-.413-.194-.809.06-1.21-.086-.467-.32-1.232-1.044-1.142-1.584.146-.76.087-1.324-.795-1.574-1.222-.345-1.47-1.012-1.11-2.964.078-.422.172-.613-.1-.797-.9-.609-1.242-1.735-.65-2.921.385-.684.683-1.166-.01-1.71-.274-.625-.226-.862.364-1.66.628-.758.737-.845.334-1.493-.905-1.455.121-2.529 1.34-3.128 1.633-.677 3.06-1.026 4.784-1.227.64.037.613.606 1 1.154.567.891-.233 2.18.229 2.636.668.311.971.933.918 1.464-.023 1.236.051 1.66.383 2.177.368.574.506 1.627.163 2.343-.306.637-.273.594.129.97.397.371.593 2.236.452 2.2l1.676-.155c-.175.189.63-3.486 2.54-6.327-.104-2.226-.944-4.272-.87-7.212 4.141-1.496 7.132 2.057 6.974 5.693zm64.317-5c.598.473 3.566 1.307 3.674 1.211-.093 1.434.772 4.221 3.865 5.152.038 3.998.005 22.457.005 22.457-4.308-7.287-6.979-16.694-7.544-28.82zm-72.07.651s.164.532.315 1.56c.265 2.1-.02 2.386-.574.95-.648-1.68-.681-.37.048 3.477.176.932.17 1.149-.057 1.777-.143.394-.396 1.31-.594 2.028-.582 2.113-.923 2.72-1.52 1.038-.306-.857-.561-.99-.343-1.662.272-.84.206-1.47-.342-2.287-.09-.134-.286-.44-.32-1.309.168-1.95-.692-1.969-.861-2.473.028-.763-.325-2.613.196-2.563.428.041 1.978.084 2.712-.188.325-.121 1.34-.348 1.34-.348zm64.225.241c1.6-.023 2.914 1.268 2.937 2.883.024 1.615-1.255 2.941-2.856 2.965a2.909 2.909 0 0 1-2.942-2.878c-.023-1.615 1.261-2.946 2.861-2.97zm-44.737 1.782l2.196.42c.49.165.132 30.722-17.441 52.776l-.154-5.109c8.363-12.216 14.384-27.197 15.4-48.087zm37.232.642l.401 7.301c-1.236-1.061-4.376-3.048-4.353-3.09l.015-2.7c.002.006 2.698.21 3.937-1.51zm-16.925.102c.53.225.991.742 1.445 1.115l-1.436.975zm50.305.367c9.48 2.838 18.816 2.756 28.047.68l.631 1.787c-10.015 2.74-19.969 2.582-29.86-.603zm-45.914 1.366l.507 3.148-5.35 3.496.26-4.78 2.79-1.825zm47.364 2.622a1.575 1.575 0 0 1 1.588 1.56c.012.872-.681 1.59-1.545 1.603a1.57 1.57 0 0 1-1.584-1.56 1.572 1.572 0 0 1 1.54-1.603zm24.358.13a1.575 1.575 0 0 1 1.588 1.56c.013.873-.68 1.59-1.545 1.603a1.57 1.57 0 0 1-1.583-1.56 1.571 1.571 0 0 1 1.54-1.603zm-45.622 4.912c.701 2.495.548 8.131-.354 11.954-.27 1.148-.435 5.224-.435 5.224-.168.213 5.37-4.626 7.15 1.72.612 2.181-1.876 4.25-3.54 3.644-.325-.118-.227-1.198.083-1.834.923-1.897-1.71-2.884-3.21-1.202-3.466 3.886.1 13.723 5.535 14.679 4.511.793 8.129-3.74 5.118-6.442-1.316-1.18-3.423.448-2.459 1.951 1.03 1.607-.866 2.248-2.3.758-2.502-2.597.306-6.505 4.085-5.6 6.04 1.385 4.797 10.916-1.536 11.452-4.843.41-8.103-1.719-10.15-5.494-1.925-3.629-2.068-6.52-1.187-12.883.523-3.777.092-6.96-.947-6.938-.57.012-1.015.289-1.105.965-.185 1.384-.342 1.642-1.201 1.14-1.09-.638-1.697-2.694.086-4.085 1.828-1.426 4.196.8 4.1 1.183.044-.07.228-.432.473-2.052.799-5.27-.975-10.84-3.167-9.947-.48.196-.423.416.206.773 1.46.828.173 2.952-1.66 2.737-2.596-.304-3.186-3.96-.9-5.576 3.603-1.96 6.538 1.109 7.315 3.873zm-17.723-4.39s4.605 2.835 4.85 3.563c.157.467.345 4.534.345 4.534l-7.994-5.05-11.46 7.15c.188-1.569 1.012-5.61 1.012-5.61l6.095-3.892c.03.235 4.216 3.023 7.152-.695zm57.227.27a1.575 1.575 0 0 1 1.588 1.56 1.571 1.571 0 0 1-1.54 1.603 1.57 1.57 0 0 1-1.589-1.555 1.576 1.576 0 0 1 1.54-1.608zm-12.199.024a1.575 1.575 0 0 1 1.593 1.555 1.584 1.584 0 0 1-1.55 1.608 1.57 1.57 0 0 1-1.583-1.56 1.572 1.572 0 0 1 1.54-1.603zm6.133.358a1.579 1.579 0 0 1 1.593 1.56c.013.872-.68 1.59-1.545 1.602a1.575 1.575 0 0 1-1.588-1.56 1.571 1.571 0 0 1 1.54-1.602zm-15.356 2.24c4.15.872 8.311 1.768 12.29 2.207l.162 12.327-1.162-.068-.168-11.013c-3.843-.278-7.468-1.11-10.873-2zm30.86.4l-.215 1.45s-7.18 1.254-10.931 1.743c-.06 2.481-.053 10.772-.053 10.772l-1.435.265-.005-12.549c4.258-.467 8.511-.95 12.639-1.68zm-69.478.696l8.452 5.64.995 5.978-9.854-6.61s-8.933 6.068-12.275 8.319l1.02-5.635zm39.02 1.116c3.403.726 6.806 1.482 10.209 1.776l.143 9.918-1.564-.42-.125-8.049c-2.657-.232-5.387-.752-8.132-1.337zm30.104.294l-.287 1.347s-5.447.829-8.257 1.338c-.249.057-.158 8.73-.158 8.73l-1.344.207-.158-10.125zm-15.255 1.11a1.57 1.57 0 0 1 1.583 1.56 1.572 1.572 0 0 1-1.54 1.603 1.57 1.57 0 0 1-1.588-1.554 1.58 1.58 0 0 1 1.545-1.608zm-53.998 3.579l9.993 6.808s1.158 3.545 1.406 5.51l-11.5-7.495-14.39 9.628 1.665-5.948zm-60.571.207c.592.008 1.184.409 1.492 1.328.434 1.294 1.243 1.677 3.373 1.637 4.18-.225 8.563-2.208 12.509-.72 1.918.714 2.6 3.569.995 4.312-1.743.807-2.486.3-3.09-1.081-.559-.588-1.253-.496-5 .154a69.14 69.14 0 0 1-5.228.647c-4.177.341-6.483-.987-7.003-3.496-.332-1.603.964-2.794 1.952-2.78zm114.483 2.303a1.57 1.57 0 0 1 1.588 1.555 1.58 1.58 0 0 1-1.545 1.608 1.575 1.575 0 0 1-1.588-1.56 1.575 1.575 0 0 1 1.545-1.603zm-30.616 1.927a2.048 2.048 0 0 1 2.067 2.028 2.05 2.05 0 0 1-2.01 2.086c-1.124.016-2.045-.893-2.061-2.028a2.045 2.045 0 0 1 2.004-2.086zm-23.282 1.439s8.224 5.545 12.03 8.107l2.106 6.103-14.007-9.193-17.139 11.255 2.056-6.277zm59.375 1.907c.746 2.028 2.1 3.573 3.53 5.142 0 0-.797 1.525-3.64 1.435-1.553-.05-1.637.196-2.167 1.26-.871 1.347-1.58 2.228-2.143 2.665-.996.774-2.863-.382-4.401-2.733-.56-.856-.793-1.059-2.483-1.023-2.595.054-3.534-.673-2.186-1.85 1.175-1.445 2.02-3.034 3.071-4.553l1.167.135c.05.175-.907 3.093-2.253 4.278-.683.779.273 1.06 1.942.705 1.059-.322 1.33-.195 2.115 1.439 1.633 3.118 2.483 2.967 4.42-.193.676-1.41.65-1.55 2.511-1.144 1.998.203 2.6-.05 1.78-.754-1.659-1.42-2.574-4.77-2.574-4.77zm-59.303 4.177s14.872 9.832 14.834 9.618l2.98 7.088-17.456-11.718-21.325 13.997 3.19-7.015zm.574 6.455l5.185 3.443-.014 6.195-5.296-3.592zm-1.33.18l.096 6.112-4.65 2.796-.259-5.737zm-5.898 3.94l-.044.236.11.058.039.005.167 5.509-5.348 3.742.02-6.224zm13.695.067l4.875 3.283.2 6.557-5.29-3.496zm6.018 4.003l4.889 3.428.172 6.547-4.994-3.394zm-25.875.024l-.024 6.05-4.865 3.428-.23-6.18zm51.453 7.807c-.965 1.016-1.321.89-2.147-.787-.858-1.74-2.145-2.553-4.01-2.52-2.351.041-.813-1.516 1.68-1.7 4.311-.191 6.499 2.728 4.477 5.007zm-57.667-3.549l.13 6.07-4.842 2.54-.148-2.878 2.492-4.399zm-6.243 8.112l.168 1.106-.895.348zm58.26 43.746c-20.372 4.4-39.904 2.846-53.92.227l-6.406 11.048-.44-.02-1.65 2.86.176.327s-5.322 10.308-7.563 13.559c26.183-.255 83.653-.382 83.653-.382l-3.502-7.107.191-.193-3.458-7.422-1.124-1.284s-.687-1.341-1.201-2.781c-.473-1.326-2.502-4.954-2.502-4.954l-.287.024zm-53.184 1.555c.27.216 26.096 5.129 52.864.082l1.464 2.472c-23.428 5.443-57.326.244-55.988-.26zm.445 4.862c2.361-.085 4.754 1.196 6.367 3.332.513.68 1.354 2.685 1.354 2.685s1.13-1.889 2.238-2.835c1.677-1.43 3.852-2.623 6.999-2.51 2.897.104 6.087 1.687 8.965 6.262.726-2.64 10.246-11.61 18.087-.425.896-2.972 5.093-8.909 11.887-4.76.464 1.002.943 2.105.943 2.105-4.01-2.835-10.622-.934-12.184 3.49-.14.54.037.82.243 1.343 2.067 2.981-3.31 2.91-1.717.497.298-.548.323-1-.153-1.719-1.26-1.907-5.056-4.28-7.84-4.22-3.216.07-6.78 2.225-7.97 4.182-.44.722-.54 1.445-.153 2.076.28.636.184 1.17-.287 1.56-1.108.917-2.499-.141-1.966-1.497.35-.598.296-1.33-.421-2.347-1.441-2.042-4.804-4.194-7.73-4.133-4.19.098-8.42 3.142-8.152 5.65.118 1.101-.18 1.512-1.072 1.385-1.083-.154-1.206-1.187-.44-2.028.114-.27.297-.923-.052-1.4-4.423-6.038-11.045-4.278-12.562-2.926 1.474-2.551 3.532-3.691 5.616-3.767zm-3.937 4.192c1.66.013 3.447 1.28 4.013 2.269.41-.429 4.165-2.236 5.99.348-4.78-.364-4.838 4.755-1.306 5.248-1.61 4.939 5.61 5.237 5.152.599 5.394.805 4.729-6.098-.35-5.37 2.66-1.955 4.471-1.323 7.669.918 1.074-1.412 5.458-2.733 6.534-.265-5.024-.313-4.168 5.56-.416 5.61-1.115 4.07 6.266 5.567 5.128-.512 4.685.332 4.007-6.056-.483-5.528.333-1.163 4.89-1.665 6.903.555 1.85-1.705 3.893-2.872 7.582-.435-5.03-.846-5.093 5.746-.421 5.35-.436 4.366 6.17 4.44 5.066-.603 5.029-1.37 2.264-6.803-1.43-5.307 1.644-1.973 4.436-1.042 5.544-.642 3.423-3.954 6.405-.647 6.405-.647-5.957-.628-4.661 7.942 1.143 4.834-.005 1.763.745 3.29 3.115 3.539l2.817 5.886-79.843.53 4.405-7.82c.446.142 2.992.375 3.54-2.638 5.246 1.68 5.598-4.486 1.679-5.46.475-.332 1.01-.464 1.564-.46zm-3.114 2.23c.521.846.084 1.397-.814 1.42 0 0 .585-.856.814-1.42zm65.684 1.092l.517 1.096c-.559-.229-.628-.47-.517-1.096zM3796.89-810.146c9.774-.212 14.157-11.217 6.918-19.763-1.05-1.247-1.158-1.962.765-.765 4.874 3.26 14.22 1.117 14.698-8.847.59-12.277-16.563-15.815-19.784-2.76-.17 1.377-1.29 1.346-1.02-.61.294-5.305 1.951-10.265 4.23-15.102h-11.621c2.278 4.837 3.935 9.797 4.229 15.103.27 1.955-.85 1.986-1.02.61-3.22-13.056-20.375-9.518-19.784 2.759.479 9.964 9.824 12.106 14.698 8.847 1.923-1.197 1.815-.482.765.765-7.24 8.546-2.856 19.55 6.918 19.763h.01zM3693.82-1055.78c9.774.213 14.156 11.218 6.917 19.764-1.05 1.247-1.158 1.962.765.765 4.874-3.26 14.22-1.117 14.698 8.847.591 12.277-16.563 15.814-19.784 2.76-.17-1.378-1.29-1.346-1.02.609.294 5.306 1.952 10.266 4.23 15.102h-11.621c2.278-4.836 3.935-9.796 4.229-15.102.27-1.955-.85-1.987-1.02-.61-3.22 13.055-20.375 9.518-19.784-2.76.479-9.963 9.824-12.106 14.698-8.846 1.923 1.197 1.815.482.765-.765-7.24-8.546-2.856-19.55 6.918-19.763h.01z"/></g></svg>